<svg width="700" height="304" viewBox="0 0 700 304" fill="none" xmlns="http://www.w3.org/2000/svg">
<rect x="38.2739" y="24.2258" width="607.305" height="267.233" rx="46" fill="#E4D7CA" stroke="black" stroke-width="2"/>
<rect x="1" y="35.2893" width="628.271" height="267.233" rx="46" fill="#E4D7CA" stroke="black" stroke-width="2"/>
<path d="M98.7154 0C98.7154 15.3059 89.5863 28.9995 76.7114 28.9995C89.5863 28.9995 98.7154 42.694 98.7154 57.999C98.7154 42.694 107.845 28.9995 120.719 28.9995C107.845 28.9995 98.7154 15.3059 98.7154 0Z" fill="black"/>
<path d="M424.666 74.8979L404.885 74.8979L404.885 55.1173L424.666 55.1173L424.666 74.8979Z" fill="#252424"/>
<path d="M461.447 74.8979L441.667 74.8979L441.667 55.1173L461.447 55.1173L461.447 74.8979Z" fill="#252424"/>
<path d="M498.228 74.8979L478.447 74.8979L478.447 55.1173L498.228 55.1173L498.228 74.8979Z" fill="#252424"/>
<path d="M535.009 74.8979L515.228 74.8979L515.228 55.1173L535.009 55.1173L535.009 74.8979Z" fill="#252424"/>
<path d="M571.789 74.8979L552.008 74.8979L552.008 55.1173L571.789 55.1173L571.789 74.8979Z" fill="#252424"/>
<path d="M608.569 74.8979L588.789 74.8979L588.789 55.1173L608.569 55.1173L608.569 74.8979Z" fill="#252424"/>
<path d="M281.78 74.7808L262 74.7808L262 55.0001L281.78 55.0001L281.78 74.7808Z" fill="#252424"/>
<path d="M318.562 74.7808L298.781 74.7808L298.781 55.0001L318.562 55.0001L318.562 74.7808Z" fill="#252424"/>
<path d="M355.342 74.7808L335.561 74.7808L335.561 55.0001L355.342 55.0001L355.342 74.7808Z" fill="#252424"/>
<path d="M392.123 74.7808L372.342 74.7808L372.342 55.0001L392.123 55.0001L392.123 74.7808Z" fill="#252424"/>
<path d="M428.903 74.7808L409.123 74.7808L409.123 55.0001L428.903 55.0001L428.903 74.7808Z" fill="#252424"/>
<path d="M465.684 74.7808L445.903 74.7808L445.903 55.0001L465.684 55.0001L465.684 74.7808Z" fill="#252424"/>
<path d="M424.05 281.666L404.269 281.666L404.269 261.885L424.05 261.885L424.05 281.666Z" fill="#252424"/>
<path d="M460.831 281.666L441.05 281.666L441.05 261.885L460.831 261.885L460.831 281.666Z" fill="#252424"/>
<path d="M497.611 281.666L477.831 281.666L477.831 261.885L497.611 261.885L497.611 281.666Z" fill="#252424"/>
<path d="M534.393 281.666L514.612 281.666L514.612 261.885L534.393 261.885L534.393 281.666Z" fill="#252424"/>
<path d="M571.173 281.666L551.392 281.666L551.392 261.885L571.173 261.885L571.173 281.666Z" fill="#252424"/>
<path d="M607.953 281.666L588.172 281.666L588.172 261.885L607.953 261.885L607.953 281.666Z" fill="#252424"/>
<path d="M281.78 281.582L262 281.582L262 261.802L281.78 261.802L281.78 281.582Z" fill="#252424"/>
<path d="M318.562 281.582L298.781 281.582L298.781 261.802L318.562 261.802L318.562 281.582Z" fill="#252424"/>
<path d="M355.342 281.582L335.561 281.582L335.561 261.802L355.342 261.802L355.342 281.582Z" fill="#252424"/>
<path d="M392.123 281.582L372.342 281.582L372.342 261.802L392.123 261.802L392.123 281.582Z" fill="#252424"/>
<path d="M428.903 281.582L409.123 281.582L409.123 261.802L428.903 261.802L428.903 281.582Z" fill="#252424"/>
<path d="M465.684 281.582L445.903 281.582L445.903 261.802L465.684 261.802L465.684 281.582Z" fill="#252424"/>
<path d="M148.868 143.046C148.868 143.262 148.361 143.437 147.347 143.57C146.333 143.703 145.31 143.769 144.28 143.769C143.266 143.769 142.609 143.711 142.31 143.595C142.027 143.478 141.886 143.296 141.886 143.046V127.012C141.886 126.579 142.426 126.272 143.507 126.089C144.604 125.906 145.984 125.815 147.646 125.815C149.309 125.815 150.381 125.823 150.863 125.84C151.362 125.84 151.944 125.865 152.609 125.914C153.274 125.964 153.797 126.047 154.18 126.164C154.579 126.28 155.011 126.43 155.476 126.613C155.959 126.796 156.333 127.037 156.599 127.336C156.865 127.618 157.122 127.959 157.372 128.358C157.821 129.073 158.045 130.096 158.045 131.426C158.045 132.739 157.821 133.853 157.372 134.767C156.939 135.665 156.358 136.346 155.626 136.812C157.538 139.821 158.494 141.733 158.494 142.548C158.494 143.362 156.856 143.769 153.581 143.769C152.634 143.769 151.977 143.728 151.611 143.645C151.245 143.562 151.013 143.379 150.913 143.096L149.292 137.959L148.868 137.934V143.046ZM148.868 134.094H149.517C150.481 134.094 150.963 133.346 150.963 131.849C150.963 131.085 150.83 130.544 150.564 130.229C150.314 129.913 150.024 129.755 149.691 129.755H148.868V134.094Z" fill="black"/>
<path d="M166.619 142.498C166.586 142.98 166.328 143.312 165.846 143.495C165.38 143.678 164.532 143.769 163.302 143.769C162.072 143.769 161.041 143.661 160.21 143.445C159.395 143.212 158.988 142.922 158.988 142.572C158.988 142.173 159.728 139.63 161.208 134.942C162.687 130.237 163.535 127.527 163.751 126.812C163.834 126.596 164.499 126.422 165.746 126.289C167.01 126.139 168.356 126.064 169.786 126.064C171.232 126.064 172.03 126.313 172.18 126.812C175.322 137.253 176.893 142.556 176.893 142.722C176.893 142.888 176.793 143.055 176.594 143.221C176.128 143.587 175.206 143.769 173.826 143.769C170.883 143.769 169.379 143.42 169.312 142.722L169.138 141.101H166.744L166.619 142.498ZM168.614 136.363L168.24 131.874H167.691L167.267 136.363H168.614Z" fill="black"/>
<path d="M185.104 143.046C185.104 143.262 184.589 143.437 183.558 143.57C182.544 143.703 181.53 143.769 180.516 143.769C179.502 143.769 178.853 143.711 178.571 143.595C178.288 143.478 178.147 143.296 178.147 143.046V127.735C178.147 127.319 178.621 126.937 179.568 126.588C180.532 126.239 181.621 126.064 182.835 126.064C183.267 126.064 183.591 126.081 183.808 126.114C184.373 126.197 184.772 126.554 185.005 127.186L187.399 133.62H187.498V127.735C187.498 127.319 187.972 126.937 188.92 126.588C189.867 126.239 190.948 126.064 192.162 126.064C193.209 126.064 193.874 126.264 194.156 126.663C194.356 126.945 194.456 127.203 194.456 127.436V143.046C194.456 143.262 193.94 143.437 192.91 143.57C191.896 143.703 190.773 143.769 189.543 143.769C188.33 143.769 187.665 143.611 187.548 143.296L185.229 137.161H185.104V143.046Z" fill="black"/>
<path d="M204.415 143.769H198.53C197.715 143.769 197.167 143.711 196.884 143.595C196.601 143.478 196.46 143.287 196.46 143.021V127.286C196.46 126.854 196.643 126.546 197.009 126.363C197.374 126.164 198.006 126.064 198.904 126.064H204.515C207.707 126.064 209.909 126.696 211.123 127.959C212.337 129.206 212.943 131.484 212.943 134.792C212.943 138.1 212.312 140.428 211.048 141.774C209.785 143.104 207.574 143.769 204.415 143.769ZM204.215 129.78C203.816 129.78 203.55 129.813 203.417 129.879V139.954L204.365 140.054C204.864 140.054 205.238 139.655 205.487 138.857C205.753 138.059 205.886 136.679 205.886 134.717C205.886 132.756 205.753 131.442 205.487 130.777C205.221 130.112 204.797 129.78 204.215 129.78Z" fill="black"/>
<path d="M149.164 172.004C149.164 172.187 148.657 172.337 147.643 172.453C146.629 172.553 145.607 172.603 144.576 172.603C143.562 172.603 142.914 172.561 142.631 172.478C142.348 172.378 142.207 172.221 142.207 172.004V156.494C142.207 156.128 142.689 155.77 143.653 155.421C144.618 155.055 145.698 154.873 146.895 154.873C147.959 154.873 148.657 155.097 148.99 155.546C149.106 155.712 149.164 155.878 149.164 156.045V172.004Z" fill="black"/>
<path d="M158.126 171.88C158.126 172.096 157.611 172.27 156.58 172.403C155.566 172.536 154.552 172.603 153.538 172.603C152.524 172.603 151.875 172.545 151.593 172.428C151.31 172.312 151.169 172.129 151.169 171.88V156.568C151.169 156.153 151.643 155.77 152.59 155.421C153.554 155.072 154.643 154.898 155.857 154.898C156.289 154.898 156.613 154.914 156.83 154.947C157.395 155.031 157.794 155.388 158.027 156.02L160.42 162.454H160.52V156.568C160.52 156.153 160.994 155.77 161.942 155.421C162.889 155.072 163.97 154.898 165.183 154.898C166.231 154.898 166.896 155.097 167.178 155.496C167.378 155.779 167.478 156.036 167.478 156.269V171.88C167.478 172.096 166.962 172.27 165.932 172.403C164.917 172.536 163.795 172.603 162.565 172.603C161.351 172.603 160.686 172.445 160.57 172.129L158.251 165.995H158.126V171.88Z" fill="black"/>
<path d="M180.08 172.004C180.08 172.187 179.565 172.337 178.534 172.453C177.52 172.553 176.498 172.603 175.467 172.603C174.453 172.603 173.804 172.561 173.522 172.478C173.256 172.378 173.123 172.221 173.123 172.004V161.281H169.657C169.474 161.281 169.316 161.049 169.183 160.583C169.05 160.118 168.983 159.428 168.983 158.513C168.983 157.582 169.083 156.751 169.283 156.02C169.482 155.272 169.748 154.898 170.08 154.898H183.571C183.821 154.898 183.987 155.13 184.07 155.596C184.17 156.061 184.22 156.735 184.22 157.616C184.22 158.497 184.128 159.328 183.946 160.109C183.763 160.891 183.513 161.281 183.197 161.281H180.08V172.004Z" fill="black"/>
<path d="M192.708 171.88C192.708 172.096 192.201 172.27 191.186 172.403C190.172 172.536 189.15 172.603 188.119 172.603C187.105 172.603 186.448 172.545 186.149 172.428C185.867 172.312 185.725 172.129 185.725 171.88V155.845C185.725 155.413 186.266 155.105 187.346 154.923C188.443 154.74 189.823 154.648 191.486 154.648C193.148 154.648 194.22 154.657 194.703 154.673C195.201 154.673 195.783 154.698 196.448 154.748C197.113 154.798 197.637 154.881 198.019 154.997C198.418 155.114 198.85 155.263 199.316 155.446C199.798 155.629 200.172 155.87 200.438 156.169C200.704 156.452 200.962 156.793 201.211 157.192C201.66 157.907 201.884 158.929 201.884 160.259C201.884 161.572 201.66 162.686 201.211 163.601C200.779 164.498 200.197 165.18 199.466 165.645C201.377 168.655 202.333 170.566 202.333 171.381C202.333 172.196 200.696 172.603 197.421 172.603C196.473 172.603 195.816 172.561 195.451 172.478C195.085 172.395 194.852 172.212 194.752 171.93L193.132 166.793L192.708 166.768V171.88ZM192.708 162.927H193.356C194.32 162.927 194.802 162.179 194.802 160.683C194.802 159.918 194.669 159.378 194.403 159.062C194.154 158.746 193.863 158.588 193.531 158.588H192.708V162.927Z" fill="black"/>
<path d="M212.004 172.827C210.625 172.827 209.436 172.703 208.438 172.453C207.458 172.187 206.552 171.722 205.72 171.057C204.041 169.743 203.202 167.225 203.202 163.501C203.202 161.938 203.426 160.575 203.875 159.411C204.34 158.247 204.981 157.325 205.795 156.643C207.391 155.313 209.461 154.648 212.004 154.648C213.318 154.648 214.457 154.765 215.421 154.997C216.402 155.23 217.324 155.654 218.189 156.269C219.934 157.533 220.807 159.943 220.807 163.501C220.807 166.693 220.018 169.045 218.438 170.558C216.859 172.071 214.714 172.827 212.004 172.827ZM211.182 168.563C211.381 168.796 211.655 168.912 212.004 168.912C212.354 168.912 212.628 168.796 212.827 168.563C213.027 168.314 213.193 167.798 213.326 167.017C213.459 166.219 213.526 165.113 213.526 163.7C213.526 162.287 213.459 161.198 213.326 160.434C213.193 159.669 213.027 159.17 212.827 158.937C212.628 158.705 212.354 158.588 212.004 158.588C211.655 158.588 211.381 158.705 211.182 158.937C210.982 159.17 210.816 159.669 210.683 160.434C210.55 161.198 210.483 162.287 210.483 163.7C210.483 165.113 210.55 166.219 210.683 167.017C210.816 167.798 210.982 168.314 211.182 168.563Z" fill="black"/>
<path d="M149.859 202.216H143.974C143.159 202.216 142.611 202.158 142.328 202.041C142.046 201.925 141.904 201.734 141.904 201.468V185.732C141.904 185.3 142.087 184.992 142.453 184.81C142.819 184.61 143.45 184.51 144.348 184.51H149.959C153.151 184.51 155.354 185.142 156.567 186.406C157.781 187.652 158.388 189.93 158.388 193.238C158.388 196.547 157.756 198.874 156.493 200.221C155.229 201.551 153.018 202.216 149.859 202.216ZM149.66 188.226C149.261 188.226 148.995 188.259 148.862 188.326V198.4L149.809 198.5C150.308 198.5 150.682 198.101 150.932 197.303C151.198 196.505 151.331 195.125 151.331 193.164C151.331 191.202 151.198 189.888 150.932 189.223C150.666 188.558 150.242 188.226 149.66 188.226Z" fill="black"/>
<path d="M176.254 195.258C176.254 197.652 175.564 199.448 174.184 200.645C172.821 201.825 170.834 202.415 168.224 202.415C165.631 202.415 163.636 201.825 162.239 200.645C160.843 199.448 160.144 197.652 160.144 195.258V186.106C160.144 185.691 160.61 185.317 161.541 184.984C162.489 184.652 163.586 184.485 164.833 184.485C165.83 184.485 166.478 184.677 166.778 185.059C166.994 185.358 167.102 185.616 167.102 185.832V193.263C167.102 195.142 167.168 196.389 167.301 197.004C167.451 197.602 167.759 197.902 168.224 197.902C168.69 197.902 168.98 197.611 169.097 197.029C169.23 196.43 169.296 195.167 169.296 193.238V186.106C169.296 185.691 169.762 185.317 170.693 184.984C171.64 184.652 172.729 184.485 173.96 184.485C175.007 184.485 175.672 184.677 175.955 185.059C176.154 185.358 176.254 185.616 176.254 185.832V195.258Z" fill="black"/>
<path d="M190.732 202.041C190.067 202.191 189.385 202.291 188.687 202.34C188.005 202.407 187.332 202.44 186.667 202.44C186.019 202.44 185.512 202.424 185.146 202.39C184.797 202.357 184.331 202.274 183.75 202.141C183.168 202.008 182.636 201.825 182.154 201.592C181.671 201.36 181.156 201.019 180.607 200.57C180.075 200.121 179.627 199.589 179.261 198.974C178.413 197.544 177.989 195.699 177.989 193.438C177.989 191.925 178.222 190.587 178.687 189.423C179.169 188.259 179.743 187.362 180.408 186.73C181.09 186.098 181.863 185.591 182.727 185.209C184.124 184.577 185.528 184.261 186.942 184.261C188.97 184.261 190.424 184.427 191.306 184.76C191.705 184.909 192.062 185.142 192.378 185.458C192.694 185.774 192.852 186.231 192.852 186.83C192.852 187.428 192.702 188.184 192.403 189.099C192.12 190.013 191.705 190.47 191.156 190.47C190.99 190.47 190.375 190.337 189.311 190.071C188.247 189.805 187.523 189.672 187.141 189.672C186.559 189.672 186.06 189.997 185.645 190.645C185.246 191.293 185.046 192.216 185.046 193.413C185.046 194.61 185.221 195.541 185.57 196.206C185.936 196.871 186.41 197.203 186.991 197.203C187.407 197.203 188.155 197.037 189.236 196.705C190.333 196.355 190.973 196.181 191.156 196.181C191.671 196.181 192.07 196.655 192.353 197.602C192.652 198.55 192.802 199.315 192.802 199.897C192.802 200.478 192.619 200.944 192.253 201.293C191.904 201.626 191.397 201.875 190.732 202.041Z" fill="black"/>
<path d="M205.202 201.617C205.202 201.8 204.686 201.95 203.656 202.066C202.642 202.166 201.619 202.216 200.588 202.216C199.574 202.216 198.926 202.174 198.643 202.091C198.377 201.991 198.244 201.833 198.244 201.617V190.894H194.778C194.595 190.894 194.437 190.662 194.304 190.196C194.171 189.731 194.105 189.041 194.105 188.126C194.105 187.195 194.204 186.364 194.404 185.633C194.603 184.884 194.869 184.51 195.202 184.51H208.693C208.942 184.51 209.109 184.743 209.192 185.209C209.291 185.674 209.341 186.347 209.341 187.229C209.341 188.11 209.25 188.941 209.067 189.722C208.884 190.504 208.635 190.894 208.319 190.894H205.202V201.617Z" fill="black"/>
<path d="M217.804 201.617C217.804 201.8 217.297 201.95 216.283 202.066C215.269 202.166 214.246 202.216 213.216 202.216C212.202 202.216 211.553 202.174 211.271 202.091C210.988 201.991 210.847 201.833 210.847 201.617V186.106C210.847 185.741 211.329 185.383 212.293 185.034C213.257 184.668 214.338 184.485 215.535 184.485C216.599 184.485 217.297 184.71 217.63 185.159C217.746 185.325 217.804 185.491 217.804 185.657V201.617Z" fill="black"/>
<path d="M228.237 202.44C226.857 202.44 225.669 202.315 224.671 202.066C223.69 201.8 222.784 201.335 221.953 200.67C220.274 199.356 219.434 196.838 219.434 193.114C219.434 191.551 219.659 190.188 220.108 189.024C220.573 187.86 221.213 186.938 222.028 186.256C223.624 184.926 225.694 184.261 228.237 184.261C229.551 184.261 230.689 184.377 231.654 184.61C232.634 184.843 233.557 185.267 234.422 185.882C236.167 187.145 237.04 189.556 237.04 193.114C237.04 196.306 236.25 198.658 234.671 200.171C233.092 201.684 230.947 202.44 228.237 202.44ZM227.414 198.176C227.614 198.409 227.888 198.525 228.237 198.525C228.586 198.525 228.861 198.409 229.06 198.176C229.26 197.927 229.426 197.411 229.559 196.63C229.692 195.832 229.758 194.726 229.758 193.313C229.758 191.9 229.692 190.811 229.559 190.046C229.426 189.282 229.26 188.783 229.06 188.55C228.861 188.317 228.586 188.201 228.237 188.201C227.888 188.201 227.614 188.317 227.414 188.55C227.215 188.783 227.049 189.282 226.916 190.046C226.783 190.811 226.716 191.9 226.716 193.313C226.716 194.726 226.783 195.832 226.916 196.63C227.049 197.411 227.215 197.927 227.414 198.176Z" fill="black"/>
<path d="M245.615 201.493C245.615 201.709 245.099 201.883 244.069 202.016C243.055 202.149 242.041 202.216 241.026 202.216C240.012 202.216 239.364 202.158 239.081 202.041C238.799 201.925 238.657 201.742 238.657 201.493V186.181C238.657 185.766 239.131 185.383 240.079 185.034C241.043 184.685 242.132 184.51 243.346 184.51C243.778 184.51 244.102 184.527 244.318 184.56C244.883 184.643 245.282 185.001 245.515 185.633L247.909 192.066H248.009V186.181C248.009 185.766 248.483 185.383 249.43 185.034C250.378 184.685 251.458 184.51 252.672 184.51C253.719 184.51 254.384 184.71 254.667 185.109C254.867 185.391 254.966 185.649 254.966 185.882V201.493C254.966 201.709 254.451 201.883 253.42 202.016C252.406 202.149 251.284 202.216 250.054 202.216C248.84 202.216 248.175 202.058 248.059 201.742L245.74 195.607H245.615V201.493Z" fill="black"/>
<path d="M103.242 119.705C109.601 119.705 115.118 120.687 119.794 122.651C124.563 124.521 128.163 127.139 130.595 130.506C133.12 133.779 134.382 137.566 134.382 141.868C134.382 144.299 134.055 146.544 133.4 148.601C130.688 158.046 122.88 164.031 109.975 166.556C114.464 167.865 118.017 170.062 120.636 173.148C123.254 176.141 124.563 179.881 124.563 184.37C124.563 186.427 124.189 188.859 123.441 191.664C121.384 198.958 117.222 204.382 110.957 207.936C104.785 211.396 95.9946 213.126 84.5858 213.126H26.233C24.2692 213.126 22.7729 212.798 21.7443 212.144C20.6221 211.489 20.061 210.601 20.061 209.479C20.061 208.918 20.2013 208.31 20.4818 207.655C20.8559 206.627 21.4637 205.832 22.3054 205.271C23.147 204.709 23.6613 204.382 23.8484 204.289C25.3446 203.354 26.5603 202.418 27.4954 201.483C28.4306 200.455 29.2254 198.818 29.88 196.574L46.9931 136.117C47.3672 134.901 47.5542 133.732 47.5542 132.61C47.5542 131.581 47.3672 130.74 46.9931 130.085C46.7126 129.337 46.2918 128.495 45.7307 127.56C44.8891 126.345 44.4682 125.363 44.4682 124.615C44.4682 124.334 44.5618 123.82 44.7488 123.072C45.1228 121.856 45.9177 121.014 47.1334 120.547C48.4426 119.986 50.4064 119.705 53.0248 119.705H103.242ZM96.9297 145.375C97.5843 143.317 97.9116 141.4 97.9116 139.624C97.9116 134.761 95.1529 132.329 89.6356 132.329H83.3234L75.889 158.56H82.061C85.9885 158.56 89.0745 157.625 91.3189 155.755C93.6567 153.791 95.527 150.331 96.9297 145.375ZM86.6899 186.614C87.3445 184.37 87.6718 182.313 87.6718 180.443C87.6718 175.393 84.7729 172.868 78.975 172.868H71.9614L63.9659 200.501H71.1198C75.1409 200.501 78.3671 199.519 80.7985 197.556C83.2299 195.498 85.1937 191.851 86.6899 186.614Z" fill="#E4D7CA"/>
<path fill-rule="evenodd" clip-rule="evenodd" d="M125.696 192.283L125.691 192.299C123.476 200.151 118.941 206.095 112.11 209.969L112.105 209.972L112.1 209.975C105.427 213.716 96.1749 215.464 84.5858 215.464H26.2329C24.0886 215.464 22.0902 215.12 20.5277 214.141C18.8437 213.144 17.7231 211.562 17.7231 209.479C17.7231 208.55 17.9493 207.647 18.3076 206.794C18.8401 205.365 19.7361 204.174 21.0085 203.325C21.7017 202.863 22.3016 202.471 22.6728 202.266C24.0092 201.426 25.039 200.625 25.7996 199.873C26.3766 199.219 27.0314 197.988 27.6331 195.928C27.634 195.925 27.6348 195.922 27.6357 195.919L44.7508 135.455L44.7586 135.429C45.0731 134.407 45.2163 133.47 45.2163 132.61C45.2163 131.846 45.0751 131.441 44.9633 131.245L44.8701 131.082L44.8041 130.906C44.5927 130.342 44.2553 129.652 43.7627 128.824C42.8899 127.552 42.1303 126.091 42.1303 124.615C42.1303 124.005 42.3012 123.223 42.4807 122.505L42.4959 122.444L42.5143 122.384C43.1008 120.478 44.4078 119.103 46.2525 118.381C47.9992 117.643 50.3314 117.367 53.0248 117.367H103.242C109.824 117.367 115.654 118.381 120.673 120.484C125.737 122.474 129.725 125.322 132.469 129.107C135.307 132.8 136.72 137.085 136.72 141.868C136.72 144.498 136.367 146.974 135.638 149.278C133.131 157.971 126.751 163.839 117.087 167.106C119.114 168.338 120.893 169.841 122.407 171.622C125.438 175.094 126.901 179.4 126.901 184.37C126.901 186.695 126.481 189.338 125.7 192.267L125.696 192.283ZM120.636 173.148C118.839 171.031 116.602 169.332 113.926 168.051C112.701 167.465 111.384 166.967 109.975 166.556C111.424 166.272 112.809 165.945 114.13 165.574C124.569 162.643 130.993 156.985 133.4 148.601C134.055 146.544 134.382 144.299 134.382 141.868C134.382 137.566 133.12 133.779 130.595 130.506C128.163 127.139 124.563 124.521 119.794 122.651C115.118 120.687 109.601 119.705 103.242 119.705H53.0248C50.4064 119.705 48.4426 119.986 47.1334 120.547C45.9177 121.014 45.1228 121.856 44.7487 123.072C44.5617 123.82 44.4682 124.334 44.4682 124.615C44.4682 125.363 44.889 126.345 45.7306 127.56C46.2917 128.495 46.7125 129.337 46.9931 130.085C47.3671 130.74 47.5542 131.581 47.5542 132.61C47.5542 133.732 47.3671 134.901 46.9931 136.117L29.88 196.574C29.2254 198.818 28.4305 200.455 27.4954 201.483C26.5602 202.418 25.3446 203.353 23.8483 204.289C23.6613 204.382 23.147 204.709 22.3053 205.271C21.4637 205.832 20.8559 206.626 20.4818 207.655C20.2013 208.31 20.061 208.918 20.061 209.479C20.061 210.601 20.6221 211.489 21.7443 212.144C22.7729 212.798 24.2691 213.126 26.2329 213.126H84.5858C95.9945 213.126 104.785 211.396 110.957 207.936C117.222 204.382 121.384 198.958 123.441 191.664C124.189 188.859 124.563 186.427 124.563 184.37C124.563 179.881 123.254 176.141 120.636 173.148ZM94.6904 144.702L94.7019 144.666C95.2987 142.79 95.5737 141.115 95.5737 139.624C95.5737 137.635 95.0231 136.547 94.2968 135.907C93.5141 135.217 92.1014 134.667 89.6356 134.667H85.0907L78.9815 156.222H82.0609C85.6282 156.222 88.12 155.376 89.8188 153.962C91.6261 152.441 93.3274 149.518 94.6802 144.738L94.6904 144.702ZM91.3188 155.755C89.0745 157.625 85.9885 158.56 82.0609 158.56H75.889L83.3234 132.329H89.6356C95.1529 132.329 97.9116 134.761 97.9116 139.624C97.9116 141.4 97.5843 143.317 96.9297 145.375C95.527 150.331 93.6567 153.791 91.3188 155.755ZM84.4437 185.966L84.4455 185.96C85.0529 183.878 85.3339 182.044 85.3339 180.443C85.3339 178.369 84.7536 177.214 83.9621 176.524C83.1089 175.781 81.5867 175.206 78.9749 175.206H73.7187L67.0761 198.163H71.1198C74.7484 198.163 77.4013 197.285 79.3086 195.754C81.2071 194.136 82.9978 191.027 84.442 185.972L84.4437 185.966ZM80.7985 197.556C78.3671 199.519 75.1409 200.501 71.1198 200.501H63.9659L71.9614 172.868H78.9749C84.7728 172.868 87.6718 175.393 87.6718 180.443C87.6718 182.313 87.3445 184.37 86.6899 186.614C85.1936 191.851 83.2298 195.498 80.7985 197.556Z" fill="black"/>
<path d="M683.354 79.284C674.161 101.447 647.886 111.606 624.668 101.974C601.45 92.3433 590.081 66.5693 599.274 44.4065C608.467 22.2438 634.742 12.0849 657.96 21.716C681.178 31.3472 692.547 57.1212 683.354 79.284Z" fill="#D2E82F"/>
<path fill-rule="evenodd" clip-rule="evenodd" d="M631.125 85.6971C646.097 91.9079 662.75 85.4376 668.481 71.6212C674.212 57.8048 667.029 41.4472 652.056 35.2365C637.084 29.0257 620.431 35.496 614.7 49.3124C608.969 63.1288 616.152 79.4863 631.125 85.6971ZM630.229 87.8566C646.273 94.5117 664.365 87.6439 670.64 72.5169C676.915 57.39 668.996 39.7321 652.952 33.077C636.908 26.4219 618.816 33.2897 612.541 48.4166C606.266 63.5436 614.185 81.2014 630.229 87.8566Z" fill="#323232"/>
<path fill-rule="evenodd" clip-rule="evenodd" d="M632.177 75.2735C627.06 71.411 624.567 64.037 623.773 58.5886L626.086 58.2512C626.852 63.5025 629.213 70.1074 633.585 73.4075C635.718 75.0173 638.355 75.865 641.646 75.3695C644.978 74.8677 649.064 72.974 653.995 68.9101L655.482 70.7143C650.362 74.9331 645.892 77.0942 641.994 77.6812C638.054 78.2745 634.789 77.2449 632.177 75.2735Z" fill="#323232"/>
<path fill-rule="evenodd" clip-rule="evenodd" d="M652.769 47.5934L659.083 62.8591L661.243 61.9656L654.929 46.6999L652.769 47.5934Z" fill="#323232"/>
<path fill-rule="evenodd" clip-rule="evenodd" d="M649.596 56.2768L664.861 49.9627L665.755 52.123L650.489 58.4372L649.596 56.2768Z" fill="#323232"/>
<path fill-rule="evenodd" clip-rule="evenodd" d="M630.949 40.0349L637.263 55.3005L639.424 54.407L633.11 39.1413L630.949 40.0349Z" fill="#323232"/>
<path fill-rule="evenodd" clip-rule="evenodd" d="M627.776 48.7185L643.042 42.4043L643.936 44.5647L628.67 50.8788L627.776 48.7185Z" fill="#323232"/>
</svg>
