<svg width="102" height="102" viewBox="0 0 102 102" fill="none" xmlns="http://www.w3.org/2000/svg">
<g clip-path="url(#clip0_440_2002)">
<path d="M57.6634 91.039C79.7184 87.4845 94.7159 66.7239 91.1614 44.669C87.6069 22.614 66.8464 7.61645 44.7914 11.1709C22.7365 14.7254 7.73891 35.486 11.2934 57.5409C14.8479 79.5959 35.6085 94.5935 57.6634 91.039Z" fill="#D2EB2F"/>
<path d="M45.4773 27.0929L44.1448 21.1261L46.1593 20.6685C46.6251 20.5627 47.0252 20.5555 47.3596 20.6469C47.6936 20.7364 47.9632 20.9027 48.1684 21.1459C48.3736 21.3891 48.5155 21.6864 48.594 22.038C48.6725 22.3896 48.6703 22.7176 48.5875 23.0222C48.5046 23.3267 48.332 23.5904 48.0698 23.8132C47.8071 24.0341 47.4448 24.197 46.9829 24.3019L45.3527 24.6722L45.207 24.0196L46.8139 23.6546C47.1322 23.5823 47.378 23.4775 47.5512 23.3402C47.7264 23.2024 47.8386 23.0382 47.8877 22.8474C47.9384 22.6543 47.9371 22.4382 47.8837 22.1993C47.8304 21.9604 47.7391 21.7618 47.6099 21.6033C47.4807 21.4449 47.3073 21.3394 47.0896 21.2868C46.8714 21.2323 46.6013 21.2416 46.2791 21.3148L45.0099 21.6031L46.1993 26.9289L45.4773 27.0929ZM47.685 23.7751L49.7508 26.1223L48.9124 26.3127L46.8699 23.9602L47.685 23.7751Z" fill="black"/>
<path d="M49.2463 26.3385L48.7839 20.2539L52.4561 19.9748L52.5058 20.6285L49.5704 20.8515L49.7266 22.9074L52.4718 22.6988L52.5215 23.3525L49.7763 23.5611L49.9334 25.6289L52.9163 25.4022L52.966 26.0558L49.2463 26.3385Z" fill="black"/>
<path d="M53.2501 26.1201L52.4781 26.0554L55.22 20.1614L55.9801 20.2251L57.7039 26.4929L56.9319 26.4282L55.5432 21.1573L55.4957 21.1533L53.2501 26.1201ZM53.734 23.7686L56.8457 24.029L56.791 24.6822L53.6793 24.4218L53.734 23.7686Z" fill="black"/>
<path d="M63.668 21.9321L62.0825 27.8088L61.3937 27.6233L59.4358 22.1466L59.3784 22.1312L58.1336 26.7454L57.4218 26.5537L59.0073 20.6769L59.6961 20.8624L61.6624 26.3537L61.7198 26.3691L62.9678 21.7435L63.668 21.9321Z" fill="black"/>
<path d="M63.7938 28.7203L62.089 27.9213L64.7299 22.4213L66.5102 23.2557C67.0462 23.5069 67.4519 23.8319 67.7274 24.2308C68.0037 24.6279 68.1451 25.0791 68.1514 25.5843C68.1587 26.0878 68.0256 26.6242 67.7522 27.1935C67.4771 27.7664 67.1378 28.2116 66.7342 28.5291C66.3314 28.8448 65.8807 29.0218 65.3821 29.06C64.8843 29.0965 64.3549 28.9833 63.7938 28.7203ZM63.0417 27.644L64.0343 28.1092C64.4911 28.3233 64.9118 28.413 65.2964 28.3783C65.6809 28.3436 66.0248 28.1988 66.3278 27.9439C66.6309 27.6889 66.8899 27.3377 67.1048 26.8901C67.318 26.4461 67.4287 26.0297 67.4369 25.6409C67.446 25.2504 67.347 24.9013 67.14 24.5938C66.9339 24.2844 66.615 24.0286 66.1834 23.8263L65.1152 23.3256L63.0417 27.644Z" fill="black"/>
<path d="M70.0997 25.2961L66.6941 30.3595L66.081 29.9471L69.4866 24.8837L70.0997 25.2961Z" fill="black"/>
<path d="M70.1803 33.0371L74.5591 28.7871L76.0449 30.318C76.341 30.623 76.5324 30.9258 76.6193 31.2263C76.7075 31.5254 76.7103 31.8092 76.6276 32.0777C76.5464 32.3448 76.3989 32.5821 76.185 32.7896C75.9969 32.9722 75.809 33.0895 75.6214 33.1415C75.4352 33.1949 75.2539 33.202 75.0775 33.1629C74.9024 33.1251 74.7369 33.0602 74.581 32.9679L74.5382 33.0094C74.6597 33.1517 74.7434 33.3321 74.7893 33.5505C74.8352 33.7689 74.8226 34.0012 74.7515 34.2474C74.6804 34.4936 74.5294 34.7287 74.2985 34.9528C74.079 35.1659 73.8332 35.3076 73.561 35.378C73.2888 35.4484 72.997 35.4258 72.6855 35.3102C72.3739 35.1945 72.0508 34.9643 71.716 34.6193L70.1803 33.0371ZM71.1653 33.1108L72.1863 34.1628C72.5225 34.5091 72.8282 34.69 73.1033 34.7053C73.3812 34.7207 73.6163 34.635 73.8088 34.4483C73.957 34.3044 74.0572 34.1338 74.1093 33.9365C74.1628 33.7378 74.1596 33.532 74.0995 33.319C74.0409 33.1046 73.9189 32.9019 73.7335 32.7109L72.6876 31.6333L71.1653 33.1108ZM73.1495 31.185L74.1041 32.1686C74.259 32.3282 74.4301 32.4417 74.6173 32.5091C74.8059 32.578 74.9939 32.5948 75.1813 32.5597C75.37 32.526 75.5414 32.4344 75.6953 32.285C75.8877 32.0982 75.9859 31.8728 75.9898 31.6088C75.9952 31.3434 75.8568 31.0653 75.5745 30.7745L74.6033 29.7739L73.1495 31.185Z" fill="black"/>
<path d="M80.0942 35.5948L80.5173 36.2007L77.2046 38.5138C76.8626 38.7526 76.501 38.8852 76.1197 38.9116C75.7411 38.9385 75.3727 38.8602 75.0144 38.6767C74.6578 38.4921 74.3424 38.2036 74.0683 37.8111C73.7943 37.4186 73.632 37.0231 73.5815 36.6247C73.5327 36.2251 73.5855 35.8515 73.74 35.5037C73.8973 35.1565 74.1469 34.8634 74.4889 34.6246L77.8016 32.3115L78.2246 32.9174L74.9609 35.1964C74.7166 35.3669 74.5367 35.5725 74.4212 35.8131C74.3073 36.0525 74.2652 36.3096 74.2948 36.5845C74.3272 36.8599 74.4406 37.1368 74.6351 37.4153C74.8296 37.6938 75.0505 37.8957 75.2978 38.0209C75.5468 38.1451 75.8028 38.1941 76.0656 38.1681C76.3312 38.1425 76.5861 38.0444 76.8304 37.8738L80.0942 35.5948Z" fill="black"/>
<path d="M82.8641 41.3809L77.3125 43.9138L77.0156 43.2633L79.9942 38.2493L79.9695 38.1951L75.6106 40.1839L75.3039 39.5116L80.8555 36.9786L81.1523 37.6292L78.1678 42.659L78.1926 42.7132L82.5623 40.7194L82.8641 41.3809Z" fill="black"/>
<path d="M84.3623 47.2109L78.4152 48.6639L78.2436 47.9673L82.1155 43.5871L82.1012 43.5291L77.4317 44.6699L77.2545 43.9501L83.2016 42.4971L83.3732 43.1937L79.4926 47.5883L79.5069 47.6463L84.1879 46.5027L84.3623 47.2109Z" fill="black"/>
<path d="M84.333 47.8095L84.3952 48.6534L81.6789 50.5506L81.6841 50.6219L84.6493 52.1004L84.7115 52.9443L80.9717 51.0091L78.4638 51.1939L78.4094 50.457L80.9174 50.2721L84.333 47.8095Z" fill="black"/>
<path d="M78.3636 54.4473L84.3911 55.3342L84.0943 57.3713C84.0256 57.8423 83.8888 58.217 83.6839 58.4956C83.4809 58.7744 83.2295 58.966 82.9298 59.0702C82.63 59.1744 82.3025 59.2004 81.9474 59.1482C81.5922 59.0959 81.2879 58.9769 81.0344 58.7913C80.7808 58.6057 80.5975 58.3512 80.4843 58.0278C80.373 57.7047 80.3514 57.3097 80.4195 56.8426L80.6598 55.1941L81.319 55.2911L81.0822 56.9161C81.0353 57.2379 81.0446 57.5039 81.1102 57.714C81.1755 57.9261 81.288 58.0889 81.4478 58.2027C81.6093 58.3186 81.8107 58.3944 82.0521 58.4299C82.2934 58.4654 82.5109 58.4513 82.7046 58.3876C82.8982 58.3239 83.0586 58.2001 83.1856 58.0163C83.3145 57.8328 83.4027 57.5782 83.4502 57.2524L83.6373 55.969L78.2572 55.1774L78.3636 54.4473ZM80.6577 57.6835L77.7338 58.7687L77.8573 57.9209L80.7778 56.8592L80.6577 57.6835Z" fill="black"/>
<path d="M77.7509 58.2224L83.5916 59.9897L82.525 63.5146L81.8976 63.3247L82.7501 60.5071L80.7766 59.91L79.9793 62.5451L79.3519 62.3552L80.1492 59.7201L78.1643 59.1195L77.298 61.9828L76.6705 61.793L77.7509 58.2224Z" fill="black"/>
<path d="M79.9012 68.8234L74.4574 66.1153L74.776 65.478L80.532 64.6408L80.5585 64.5877L76.2843 62.4614L76.6136 61.8028L82.0574 64.511L81.7387 65.1483L75.9668 65.9908L75.9403 66.0439L80.2251 68.1755L79.9012 68.8234Z" fill="black"/>
<path d="M73.2394 67.6496L74.3626 66.1381L79.2606 69.7776L78.0877 71.356C77.7346 71.8312 77.3345 72.1649 76.8872 72.3572C76.4415 72.5507 75.9692 72.6018 75.4702 72.5107C74.9728 72.4207 74.4706 72.1874 73.9635 71.8106C73.4533 71.4315 73.0816 71.0142 72.8484 70.5588C72.6167 70.1046 72.5312 69.6302 72.5917 69.1357C72.6539 68.6424 72.8698 68.147 73.2394 67.6496ZM74.448 67.1222L73.794 68.0023C73.4931 68.4073 73.3218 68.8009 73.2802 69.1833C73.2386 69.5657 73.3136 69.9294 73.505 70.2746C73.6964 70.6198 73.9914 70.9405 74.39 71.2367C74.7855 71.5305 75.1738 71.7188 75.5552 71.8018C75.9382 71.8859 76.3015 71.8564 76.6453 71.7135C76.9907 71.5717 77.3056 71.3095 77.59 70.9268L78.2937 69.9797L74.448 67.1222Z" fill="black"/>
<path d="M75.3508 74.461L71.0695 70.1436L71.5912 69.6241L75.8725 73.9415L75.3508 74.461Z" fill="black"/>
<path d="M67.7713 73.0709L71.0836 78.1959L69.2919 79.3539C68.9349 79.5846 68.6005 79.7132 68.2889 79.7396C67.9783 79.7677 67.6994 79.715 67.4522 79.5815C67.2062 79.4496 67.0023 79.2585 66.8405 79.0083C66.6982 78.7881 66.6199 78.5809 66.6056 78.3867C66.5896 78.1937 66.618 78.0145 66.6909 77.8491C66.7621 77.6848 66.8582 77.5352 66.9791 77.4003L66.9468 77.3502C66.7835 77.4416 66.5902 77.4884 66.3671 77.4908C66.1439 77.4931 65.9185 77.4354 65.691 77.3175C65.4635 77.1997 65.2624 77.0056 65.0877 76.7354C64.9216 76.4785 64.8307 76.2097 64.8149 75.929C64.799 75.6483 64.8782 75.3665 65.0525 75.0836C65.2268 74.8007 65.5158 74.5287 65.9195 74.2678L67.7713 73.0709ZM67.5065 74.0226L66.2753 74.8183C65.8699 75.0803 65.6328 75.3447 65.564 75.6115C65.4946 75.8811 65.5327 76.1285 65.6783 76.3537C65.7904 76.5272 65.9381 76.6588 66.1214 76.7484C66.3058 76.8397 66.5083 76.8768 66.7289 76.8595C66.9507 76.844 67.1733 76.7639 67.3968 76.6194L68.658 75.8043L67.5065 74.0226ZM69.0074 76.3448L67.8563 77.0888C67.6694 77.2096 67.5247 77.3552 67.422 77.5256C67.3176 77.6971 67.2643 77.8782 67.2622 78.0688C67.2583 78.2605 67.3147 78.4464 67.4311 78.6266C67.5767 78.8518 67.7785 78.9921 68.0367 79.0476C68.296 79.1047 68.5957 79.0233 68.9361 78.8034L70.1072 78.0464L69.0074 76.3448Z" fill="black"/>
<path d="M63.3408 82.2813L62.6639 82.5775L61.0441 78.8761C60.8768 78.494 60.8176 78.1134 60.8663 77.7343C60.9141 77.3578 61.063 77.0118 61.3131 76.6964C61.5639 76.3828 61.9086 76.13 62.3472 75.9381C62.7858 75.7462 63.2053 75.6645 63.6059 75.693C64.0073 75.7233 64.3634 75.8483 64.6742 76.0679C64.9839 76.2901 65.2224 76.5922 65.3896 76.9744L67.0094 80.6758L66.3325 80.972L64.7366 77.3252C64.6171 77.0523 64.4507 76.8356 64.2375 76.6753C64.025 76.5167 63.7811 76.4251 63.5057 76.4003C63.2293 76.3782 62.9355 76.4352 62.6243 76.5714C62.3132 76.7075 62.0719 76.8847 61.9007 77.1027C61.7302 77.3226 61.632 77.564 61.6061 77.8268C61.5792 78.0923 61.6254 78.3615 61.7449 78.6345L63.3408 82.2813Z" fill="black"/>
<path d="M57.1105 83.8686L55.7134 77.9285L56.4095 77.7648L60.7433 81.6674L60.8013 81.6537L59.7044 76.9898L60.4237 76.8206L61.8208 82.7607L61.1247 82.9244L56.7765 79.013L56.7185 79.0266L57.8182 83.7021L57.1105 83.8686Z" fill="black"/>
<path d="M51.1465 84.1405L50.8479 78.067L51.5596 78.0313L55.1034 82.6338L55.1627 82.6309L54.9282 77.8623L55.6637 77.8254L55.9623 83.8988L55.2506 83.9345L51.6943 79.3207L51.635 79.3237L51.8701 84.1042L51.1465 84.1405Z" fill="black"/>
<path d="M50.5358 84.0628L49.696 83.9589L48.3663 80.9242L48.2953 80.9154L46.2659 83.5344L45.4261 83.4305L48.0549 80.141L48.3637 77.6453L49.0971 77.7361L48.7882 80.2318L50.5358 84.0628Z" fill="black"/>
<path d="M45.174 76.9362L43.1205 82.6824L41.1789 81.9886C40.73 81.8282 40.3889 81.6198 40.1557 81.3635C39.9218 81.109 39.783 80.8243 39.7395 80.5092C39.696 80.1941 39.7348 79.8673 39.8558 79.5287C39.9768 79.1901 40.1533 78.9146 40.3853 78.7022C40.6173 78.4898 40.9031 78.3599 41.2428 78.3126C41.5818 78.2671 41.9739 78.3239 42.419 78.483L43.9903 79.0444L43.7657 79.6729L42.2169 79.1195C41.9101 79.0098 41.6472 78.9665 41.428 78.9894C41.207 79.0117 41.025 79.0901 40.882 79.2246C40.7365 79.3604 40.6226 79.5433 40.5404 79.7734C40.4582 80.0034 40.4293 80.2199 40.4539 80.4227C40.4784 80.6256 40.5685 80.8075 40.724 80.9685C40.8788 81.1314 41.1115 81.2684 41.422 81.3793L42.6453 81.8165L44.4782 76.6875L45.174 76.9362ZM41.5468 78.5509L41.0551 75.4643L41.8632 75.753L42.3324 78.8317L41.5468 78.5509Z" fill="black"/>
<path d="M41.5827 75.5664L38.7081 80.949L35.4595 79.2141L35.7683 78.6359L38.365 80.0227L39.3364 78.204L36.9079 76.907L37.2167 76.3288L39.6452 77.6258L40.6221 75.7965L37.9833 74.3873L38.2921 73.809L41.5827 75.5664Z" fill="black"/>
<path d="M30.7513 75.6156L34.4875 70.812L35.0518 71.248L34.7424 77.0472L34.7894 77.0835L37.7229 73.3119L38.306 73.7625L34.5698 78.5661L34.0055 78.13L34.3128 72.3143L34.2658 72.278L31.325 76.0589L30.7513 75.6156Z" fill="black"/>
<path d="M33.2174 69.3016L34.4815 70.6973L29.9585 74.7936L28.6385 73.336C28.2411 72.8972 27.9916 72.4398 27.89 71.9636C27.787 71.4888 27.8287 71.0155 28.0152 70.5438C28.2002 70.0734 28.5268 69.6262 28.995 69.2022C29.4662 68.7755 29.9478 68.4921 30.4399 68.3519C30.9305 68.2131 31.4125 68.2215 31.8857 68.3771C32.3575 68.5341 32.8014 68.8422 33.2174 69.3016ZM33.4996 70.5897L32.7636 69.7769C32.4249 69.403 32.0721 69.1584 31.7051 69.0432C31.3381 68.928 30.9667 68.9307 30.5909 69.0513C30.2151 69.1719 29.8431 69.3989 29.475 69.7322C29.1099 70.0629 28.8496 70.4072 28.694 70.7652C28.537 71.1244 28.4952 71.4866 28.5685 71.8517C28.6404 72.218 28.8363 72.5779 29.1563 72.9313L29.9484 73.8058L33.4996 70.5897Z" fill="black"/>
<path d="M26.0943 70.0819L31.176 66.7036L31.5851 67.319L26.5034 70.6972L26.0943 70.0819Z" fill="black"/>
<path d="M28.9547 62.9118L23.2856 65.1802L22.4929 63.1981C22.335 62.8031 22.273 62.4501 22.307 62.1389C22.3391 61.8285 22.4445 61.5647 22.6231 61.3477C22.7999 61.1313 23.0267 60.9678 23.3035 60.857C23.5471 60.7596 23.7656 60.7225 23.959 60.7457C24.1516 60.7671 24.3222 60.8295 24.4705 60.9328C24.6181 61.0343 24.7466 61.1574 24.8558 61.3021L24.9112 61.2799C24.8529 61.102 24.844 60.9032 24.8846 60.6836C24.9252 60.464 25.0253 60.2538 25.1847 60.0529C25.3442 59.8521 25.5734 59.6919 25.8723 59.5723C26.1565 59.4586 26.4379 59.4209 26.7166 59.4593C26.9952 59.4976 27.2567 59.6296 27.501 59.8551C27.7453 60.0806 27.9568 60.4166 28.1354 60.8633L28.9547 62.9118ZM28.0711 62.4689L27.5264 61.1069C27.3471 60.6585 27.133 60.3748 26.8843 60.256C26.633 60.136 26.3827 60.1259 26.1336 60.2256C25.9417 60.3024 25.7841 60.4222 25.6608 60.585C25.5357 60.7485 25.4604 60.9403 25.4349 61.1603C25.4076 61.381 25.4434 61.615 25.5423 61.8623L26.1002 63.2576L28.0711 62.4689ZM25.5023 63.4968L24.9931 62.2234C24.9104 62.0167 24.7953 61.8465 24.6476 61.7129C24.4993 61.5775 24.3317 61.4904 24.145 61.4516C23.9575 61.411 23.7641 61.4306 23.5648 61.5104C23.3157 61.6101 23.139 61.7813 23.035 62.0242C22.929 62.2679 22.9513 62.5779 23.1019 62.9544L23.62 64.25L25.5023 63.4968Z" fill="black"/>
<path d="M20.8161 56.7234L20.6584 56.0015L24.6056 55.1391C25.0131 55.05 25.398 55.0666 25.7601 55.1887C26.1199 55.3094 26.43 55.5232 26.6902 55.8303C26.9486 56.1378 27.1288 56.5254 27.231 56.9931C27.3332 57.4608 27.331 57.8883 27.2245 58.2755C27.116 58.6631 26.9237 58.9878 26.6474 59.2494C26.3688 59.5096 26.0257 59.6842 25.6181 59.7732L21.671 60.6357L21.5132 59.9138L25.4022 59.064C25.6933 59.0004 25.9384 58.8798 26.1374 58.7021C26.3345 58.5248 26.4723 58.3036 26.5505 58.0385C26.6265 57.7718 26.6282 57.4725 26.5557 57.1407C26.4832 56.8088 26.3568 56.5376 26.1766 56.3269C25.9944 56.1166 25.777 55.9729 25.5243 55.896C25.2693 55.8175 24.9962 55.8101 24.7051 55.8737L20.8161 56.7234Z" fill="black"/>
<path d="M20.4696 50.3709L26.5524 50.1325L26.5817 50.8453L21.942 54.3468L21.9445 54.4062L26.7204 54.219L26.7507 54.9556L20.6679 55.1939L20.6386 54.4812L25.2897 50.9673L25.2872 50.9079L20.4994 51.0955L20.4696 50.3709Z" fill="black"/>
<path d="M21.3435 44.3978L27.3762 45.316L27.2686 46.023L22.0316 48.5894L22.0226 48.6483L26.7592 49.3692L26.648 50.0998L20.6154 49.1815L20.723 48.4746L25.9735 45.8982L25.9825 45.8393L21.2341 45.1165L21.3435 44.3978Z" fill="black"/>
<path d="M21.5609 43.8219L21.828 43.019L25.0652 42.3125L25.0877 42.2446L22.9193 39.7395L23.1865 38.9366L25.8942 42.1613L28.2804 42.9553L28.0471 43.6564L25.6609 42.8624L21.5609 43.8219Z" fill="black"/>
<path d="M29.6049 39.9606L24.3483 36.8547L25.4124 35.0873C25.6584 34.6786 25.9305 34.3846 26.2287 34.2053C26.5252 34.025 26.8328 33.9436 27.1517 33.9612C27.4705 33.9787 27.7848 34.079 28.0945 34.262C28.4042 34.445 28.6409 34.6703 28.8046 34.9378C28.9683 35.2054 29.0402 35.5098 29.0202 35.8512C28.9986 36.1916 28.8657 36.5644 28.6217 36.9697L27.7606 38.4L27.1857 38.0603L28.0345 36.6504C28.2026 36.3712 28.2969 36.1221 28.3173 35.9033C28.3387 35.6828 28.2971 35.4898 28.1927 35.3242C28.0876 35.1559 27.9298 35.0096 27.7193 34.8852C27.5088 34.7608 27.3013 34.6913 27.0967 34.6766C26.8921 34.6619 26.6953 34.7153 26.5062 34.8367C26.3154 34.9571 26.1349 35.1587 25.9647 35.4413L25.2943 36.5549L29.9862 39.3271L29.6049 39.9606ZM28.7258 36.1032L31.8622 36.2112L31.4194 36.9468L28.2953 36.8184L28.7258 36.1032Z" fill="black"/>
<path d="M31.6432 36.7242L26.9412 32.8487L29.2639 29.9975L29.769 30.4139L27.9124 32.6929L29.5011 34.0024L31.2375 31.871L31.7425 32.2873L30.0062 34.4187L31.6041 35.7358L33.4908 33.4199L33.9959 33.8362L31.6432 36.7242Z" fill="black"/>
<path d="M33.6837 26.0478L37.6913 30.6418L37.1529 31.1115L31.5032 29.6885L31.4583 29.7277L34.6049 33.3347L34.0487 33.82L30.0411 29.226L30.5794 28.7564L36.2459 30.1804L36.2908 30.1413L33.1364 26.5253L33.6837 26.0478Z" fill="black"/>
<path d="M39.4262 29.7246L37.8096 30.6904L34.68 25.4519L36.3681 24.4433C36.8763 24.1397 37.3738 23.9848 37.8606 23.9786C38.3464 23.9707 38.8023 24.1044 39.2283 24.3798C39.6533 24.6534 40.0277 25.0614 40.3517 25.6037C40.6777 26.1493 40.8612 26.6772 40.9021 27.1873C40.942 27.6956 40.8393 28.1665 40.5939 28.6001C40.3474 29.0319 39.9582 29.4068 39.4262 29.7246ZM38.1078 29.7487L39.049 29.1863C39.4822 28.9276 39.7912 28.6296 39.9761 28.2923C40.1611 27.9551 40.2313 27.5904 40.1867 27.1982C40.1421 26.806 39.9925 26.3967 39.7378 25.9704C39.4852 25.5475 39.1986 25.2247 38.8781 25.002C38.5566 24.7776 38.2097 24.6655 37.8373 24.6658C37.464 24.6645 37.0727 24.786 36.6634 25.0305L35.6505 25.6357L38.1078 29.7487Z" fill="black"/>
<path d="M40.0554 22.6239L42.3852 28.25L41.7029 28.5299L39.3732 22.9038L40.0554 22.6239Z" fill="black"/>
<path d="M66.3384 52.5717L55.2875 67.8226L40.0047 56.8158C38.1972 55.5145 36.9806 53.5483 36.6226 51.35C36.2646 49.1516 36.7946 46.9011 38.096 45.0935C39.3974 43.2859 41.3635 42.0693 43.5618 41.7113C45.7602 41.3534 48.0107 41.8834 49.8183 43.1847L51.5154 44.4174L52.7392 42.714C53.3865 41.8211 54.2033 41.0644 55.143 40.4871C56.0827 39.9098 57.1269 39.5233 58.216 39.3496C59.3051 39.1759 60.4177 39.2184 61.4904 39.4747C62.563 39.731 63.5747 40.196 64.4677 40.8433C65.3606 41.4906 66.1173 42.3074 66.6946 43.2471C67.2718 44.1868 67.6583 45.231 67.8321 46.3201C68.0058 47.4092 67.9633 48.5218 67.707 49.5945C67.4507 50.6671 66.9856 51.6788 66.3384 52.5717Z" fill="black"/>
</g>
<defs>
<clipPath id="clip0_440_2002">
<rect width="88.6033" height="88.6033" fill="white" transform="translate(0 14.0977) rotate(-9.15538)"/>
</clipPath>
</defs>
</svg>
