<svg width="61" height="58" viewBox="0 0 61 58" fill="none" xmlns="http://www.w3.org/2000/svg">
<ellipse cx="27.2462" cy="25.7638" rx="27.2462" ry="25.7638" transform="matrix(0.993218 -0.116264 0.117012 0.993131 0.5625 6.42383)" fill="#FBC848"/>
<g clip-path="url(#clip0_422_1084)">
<path d="M24.251 15.9855C24.1379 15.9997 23.7572 16.0494 23.4043 16.0923C22.2258 16.2417 20.737 16.6187 20.1794 16.9101C19.5021 17.2657 18.4719 18.2897 17.8791 19.2069C17.0179 20.5293 16.1008 22.627 15.2537 25.1659C14.3718 27.8538 13.779 30.8973 13.4476 34.4669C13.2782 36.3158 13.4123 37.0196 14.1319 38.0507C14.7036 38.8756 15.508 39.4374 16.5946 39.7714C17.0109 39.8996 17.286 39.9351 17.8999 39.9351C18.5842 39.9351 18.7536 39.9067 19.2901 39.7146C20.8638 39.1599 21.7105 38.3492 23.9615 35.2347C24.8434 34.0186 25.6831 32.9095 25.8384 32.7671C26.6922 31.992 28.5198 31.5156 30.6369 31.5156C32.8598 31.5156 34.7578 32.0417 35.5552 32.8882C35.7106 33.0518 36.5291 34.1468 37.3758 35.3202C39.5564 38.3354 40.4242 39.1602 41.9838 39.7146C42.5343 39.9138 42.6823 39.9351 43.4092 39.928C44.0865 39.928 44.3197 39.8925 44.7853 39.743C46.1121 39.3022 47.1349 38.3918 47.6079 37.2113C47.9186 36.4432 47.9609 35.9527 47.8267 34.4524C47.509 30.9612 46.8951 27.8112 46.0131 25.1517C45.1594 22.5919 44.263 20.551 43.4022 19.214C42.8024 18.2968 41.7792 17.2657 41.1019 16.9172C40.1773 16.4337 37.9337 15.9929 36.353 15.9855C34.2855 15.9784 33.3046 16.526 32.7189 18.0263L32.4575 18.7018L32.1331 18.7444C31.7239 18.8012 29.5504 18.8012 29.1411 18.7444L28.8304 18.7018L28.5554 18.0263C28.1179 16.9385 27.5322 16.4121 26.4245 16.1207C26.0219 16.0139 24.6602 15.9287 24.251 15.9855ZM25.8173 18.0973C26.0642 18.1541 26.3181 18.2468 26.396 18.3177C26.4664 18.3816 26.6429 18.7302 26.7911 19.0787C27.2286 20.1382 27.6167 20.5506 28.3648 20.7214C28.9224 20.8495 32.3519 20.8495 32.9091 20.7214C33.6572 20.5506 34.0449 20.1382 34.4827 19.0716C34.631 18.716 34.8286 18.3678 34.9202 18.2964C35.4496 17.8698 37.3829 17.955 39.4926 18.5027C40.4168 18.7373 40.9251 19.171 41.7084 20.387C42.7245 21.9587 44.1499 25.5996 44.7853 28.2662C45.4274 30.9683 46.0131 35.4625 45.8226 36.1738C45.632 36.8493 45.0181 37.4963 44.3267 37.7384C43.1623 38.1508 42.0264 37.7526 40.8972 36.5437C40.6289 36.2594 39.7258 35.0859 38.8932 33.9338C38.0605 32.7817 37.249 31.6938 37.0937 31.5231C36.2611 30.613 34.8145 29.9372 32.9658 29.6175C32.0201 29.4467 29.2542 29.4467 28.3085 29.6175C26.4597 29.9376 25.0132 30.613 24.1805 31.5231C24.0252 31.6938 23.2137 32.7817 22.3811 33.9338C21.5485 35.0859 20.645 36.259 20.377 36.5437C19.2478 37.7526 18.1119 38.1508 16.9475 37.7384C16.2561 37.4967 15.6422 36.8496 15.4517 36.1738C15.2611 35.4625 15.8465 30.9683 16.4889 28.2662C17.124 25.5996 18.5494 21.9587 19.5655 20.387C20.5605 18.8512 20.9698 18.602 23.1218 18.218C24.4345 17.9837 25.1329 17.9554 25.8173 18.0973Z" fill="black"/>
<path d="M36.9598 21.0274C36.3601 21.2407 35.9297 21.8806 35.9297 22.5561C35.9297 23.0612 36.1132 23.4519 36.4942 23.7863C37.0095 24.2271 37.6163 24.3127 38.2228 24.0209C38.4203 23.9283 38.6461 23.7792 38.731 23.6866C38.9708 23.4235 39.1754 22.9043 39.1754 22.5561C39.1754 22.1862 38.9286 21.6031 38.6746 21.3685C38.2369 20.9631 37.5244 20.8212 36.9598 21.0274ZM37.7572 21.9942C38.0182 22.0865 38.1171 22.243 38.1171 22.5561C38.1171 22.8762 38.0115 23.0324 37.736 23.125C37.0588 23.3455 36.6214 22.4283 37.2208 22.0514C37.4892 21.8948 37.468 21.8948 37.7572 21.9942Z" fill="black"/>
<path d="M21.8658 21.5673C21.6823 21.7096 21.6823 21.7309 21.6612 22.6836L21.64 23.6579L20.6803 23.6792C19.3962 23.7005 19.4596 23.6224 19.4315 25.1866C19.4103 26.3671 19.4103 26.3813 19.5797 26.5804C19.7562 26.7866 19.7562 26.7866 20.7159 26.8079L21.6756 26.8363V27.7826C21.6756 29.0696 21.6192 29.027 23.228 29.027C24.8086 29.027 24.7379 29.0838 24.766 27.7968L24.7942 26.8367L25.7469 26.8083C27.0239 26.7799 26.9675 26.858 26.9675 25.2295C26.9675 23.6224 27.0239 23.6937 25.7328 23.6937H24.7801V22.8046C24.7801 22.3141 24.7449 21.8445 24.7026 21.7522C24.5755 21.4679 24.3568 21.4179 23.1646 21.4179C22.1479 21.4182 22.0281 21.4324 21.8658 21.5673ZM23.7214 23.4091C23.7214 24.3049 23.7285 24.3479 23.8979 24.5111C24.0602 24.6819 24.1025 24.689 24.9914 24.689H25.9085V25.2224V25.7559H24.9914C24.1025 25.7559 24.0599 25.763 23.8979 25.9337C23.7285 26.0973 23.7214 26.1399 23.7214 27.0358V27.96H23.1921H22.6628V27.007C22.6628 26.0611 22.6628 26.0469 22.4793 25.905C22.3099 25.7697 22.1972 25.7555 21.3857 25.7555H20.4757V25.2221V24.6893H21.4072C22.6843 24.6893 22.6631 24.7106 22.6631 23.4307V22.4848H23.1925H23.7218V23.4091H23.7214Z" fill="black"/>
<path d="M34.0949 23.7365C33.0859 24.1773 32.825 25.5215 33.5941 26.3464C33.8977 26.6878 34.2925 26.8511 34.7655 26.8511C36.5085 26.8511 36.9952 24.3978 35.3864 23.7152C35.0828 23.5942 34.4056 23.6013 34.0949 23.7365ZM35.0335 24.6966C35.3864 24.8602 35.4709 25.3721 35.1888 25.6496C34.8219 26.0266 34.1657 25.7636 34.1657 25.2372C34.1654 24.7676 34.5958 24.4975 35.0335 24.6966Z" fill="black"/>
<path d="M39.4503 23.7863C38.6882 24.1917 38.3638 25.1731 38.7375 25.9337C39.2312 26.9577 40.6072 27.1781 41.3693 26.3461C41.9269 25.7488 41.9691 24.8884 41.4824 24.2484C41.1647 23.8289 40.7414 23.6227 40.1983 23.6227C39.8807 23.6227 39.676 23.6656 39.4503 23.7863ZM40.4663 24.7038C41.0309 25.0023 40.8333 25.8272 40.1983 25.8272C39.5704 25.8272 39.3658 25.0236 39.9162 24.7038C40.0994 24.597 40.2758 24.597 40.4663 24.7038Z" fill="black"/>
<path d="M37.0299 26.3537C36.3808 26.5954 35.9927 27.1005 35.9434 27.7475C35.8729 28.7502 36.5713 29.5254 37.5521 29.5254C38.8221 29.5254 39.5772 28.1387 38.907 27.0366C38.5259 26.4176 37.6793 26.1116 37.0299 26.3537ZM37.9543 27.4771C38.1449 27.6549 38.1731 28.0602 38.0107 28.2948C37.7638 28.6505 37.1429 28.5436 36.9806 28.117C36.7548 27.5268 37.4958 27.0433 37.9543 27.4771Z" fill="black"/>
</g>
<defs>
<clipPath id="clip0_422_1084">
<rect width="35.2212" height="35.4935" fill="white" transform="translate(13.0293 10.2046)"/>
</clipPath>
</defs>
</svg>
