<svg xmlns="http://www.w3.org/2000/svg" xmlns:xlink="http://www.w3.org/1999/xlink" viewBox="0 0 350 300"><defs><style>.cls-1,.cls-16,.cls-22,.cls-24,.cls-25{fill:none;}.cls-11,.cls-2{fill:#fff;}.cls-16,.cls-2{stroke:#000;}.cls-16,.cls-2,.cls-22,.cls-24,.cls-25{stroke-miterlimit:10;}.cls-16,.cls-2,.cls-22{stroke-width:2px;}.cls-3{fill:#ce1c24;}.cls-4{fill:#ddcf21;}.cls-5{fill:#ad241c;}.cls-6{fill:#5b2814;}.cls-7{fill:#d1972f;}.cls-8{fill:#d6a65c;}.cls-9{fill:#808834;}.cls-10{fill:#7a8034;}.cls-12{fill:#ffbdbd;}.cls-13{fill:#ff8abd;}.cls-14{opacity:0.63;}.cls-15{fill:#ff668a;}.cls-17{fill:#d99020;}.cls-18{fill:#7b4a30;}.cls-19{fill:#39964a;}.cls-20{fill:#d6b732;}.cls-21{fill:#afd5df;}.cls-22{stroke:#fff;}.cls-23{fill:#d25a24;}.cls-24,.cls-25{stroke:#afd5df;}.cls-24{stroke-width:0.96px;}.cls-25{stroke-width:0.58px;}.cls-26{clip-path:url(#clip-path);}</style><clipPath id="clip-path"><rect class="cls-1" x="410" width="350" height="300"/></clipPath></defs><title>未命名-1</title><g id="_14" data-name="14"><polygon class="cls-2" points="158.49 113.17 119.5 80.12 115 84.8 156.66 120.64 158.49 113.17"/><path class="cls-3" d="M108.34,125.87s-1.58-4-1.46-4.59-3.07-.39-4.56,0-1,.44-1,.44.3.94-.47-.09-4.42-9.37-4.42-9.37l-1.49.41s1.14,7.64,1.11,8.74-.22,1.32-1.74,2.09a42.66,42.66,0,0,0-3.76,2.31L92,131.13s-.31-1-1.39.11A5.84,5.84,0,0,0,89.28,133l14,47.71s1.62,1.75,6.44,1,6.16-.39,9.17-2.52a40.9,40.9,0,0,0,5-4.17l-12.32-48.18a2.86,2.86,0,0,0-3.18-.68"/><path class="cls-4" d="M336.62,236.76s-.63-4.26-.38-4.79-2.9-1.09-4.44-1.08-1.09.19-1.09.19.07,1-.44-.19-2.18-10.13-2.18-10.13l-1.54.06s-.62,7.7-.91,8.76-.51,1.24-2.16,1.64a40.68,40.68,0,0,0-4.19,1.4l.21,5.55s-.08-1-1.38-.21a6.05,6.05,0,0,0-1.67,1.36L319.24,289s1.19,2.08,6.05,2.47,6.08,1,9.49-.37a40.29,40.29,0,0,0,5.84-2.92l-1-49.72a2.85,2.85,0,0,0-2.94-1.38"/><path class="cls-5" d="M165.69,80.62c6.11,4.78,3.27,2.32,15.74,9.11,12.75,6.94,30.5,9.54,41.06,11.64,10.72,2.13,21.56,4.88,21.56,4.88L228.81,106c-14.92-.21-27.56,1.63-49-4.46-20.7-5.88-24.57-8-25.09-15.55s4.89-10.14,4.89-10.14Z"/><path class="cls-5" d="M289.45,105.21s5.74,2.31.79,11.22-17.1,7.32-23.77,5.64-12.42-5-33.56-11.8l-19.78-6.39-.69-.22,15.1,1.66c11.05,1.2,24.62,4.1,34.82,3.75S289.45,105.21,289.45,105.21Z"/><path class="cls-6" d="M157.87,91.38s-8.31,6.79-5.64,11.81,9,5.23,19.46,8.54c10.68,3.37,63.52,16.8,76.74,17.9,13.47,1.12,28.09,2.47,35.6,1.83s9.41-5,7.3-8.77-33-5.91-48.22-10c-14.88-4-20.87-5.52-32.92-6.1a110.88,110.88,0,0,1-39.3-9.31Z"/><polyline class="cls-7" points="276.61 147.5 275.84 129.89 152.64 106.65 147.97 113.04 277.14 149.54"/><path class="cls-8" d="M145.37,143.61S140.51,160.5,163.28,172a185.78,185.78,0,0,0,58.27,18.44c14.21,2,26,3,39.8-.63,17.79-4.63,23.57-13.22,23.57-13.22"/><path class="cls-9" d="M297.24,154c7.18,2.13,7.67,6.16,7.09,10.91s-.87,9-10.13,10.65-11.29,1.35-17.73-.92-1.94-1.09-9.53,2.76-5.63,4.92-15.59,3.68-9.07-7.48-16.38-5.29-7.63,3.21-15.51,1.47-7.64-11.23-13.78-9.8-7.36,2.2-17.75-.36c-10.23-2.52-10.22-10-17.47-10.36s-6.35.87-14.59-2-5.34-8.22-8.8-7.9-11.47-.75-14.09-2.58-.81-4,.28-5.48,0-4.55-2-9.48-.16-5.58,2.75-7.47,10.42.16,10.42.16L289,152"/><path class="cls-8" d="M151.64,101.36s9.42,10.32,20.85,15c11.64,4.8,28.12,8,42.7,11.45,14.92,3.55,28.39,5.22,38.2,6.92s14.23,2,18.39,2.94,2.23,1.13,8.74-.55l6.56-1.69s4.86,2.51,6,11c0,0,.32,9.16-2,10s-4.72,1.65-7.74.06.2-2.18-5-1-12-2.29-14.5-3.59-4.06-.52-8.33.13-2.42-.76-5.87-1.46-2.1-.52-8.65,1.7-7.5,3.79-12.43-.53-3.89-4.34-8-4.16-3.55,1.38-8.16-1.45-3.84-2.47-9.34-2.2-5.8,2-10.27-.81-4.2-3.14-9.48-3.88-6.73,2-10.9-1.44-5.15-10.76-10.09-10.09-4.11,4.61-8.68.29-6.75-7.54-5.93-13.48S151.64,101.36,151.64,101.36Z"/><polygon class="cls-10" points="167.83 141.01 172.38 143.19 176.91 144.65 175.29 146.74 171.18 145.22 167.31 143.76 167.83 141.01"/><polygon class="cls-10" points="240.81 159.48 246.18 161.04 251.34 161.81 250.22 164.41 245.49 163.49 241.03 162.6 240.81 159.48"/><polygon class="cls-10" points="240.73 165.15 246.11 166.74 251.27 167.53 250.16 170.14 245.42 169.19 240.95 168.29 240.73 165.15"/><polygon class="cls-10" points="284.99 159.41 291.61 160.29 297.67 160.18 297.54 163.77 291.88 163.58 286.55 163.38 284.99 159.41"/><polygon class="cls-10" points="284.19 165.49 290.81 166.39 296.87 166.31 296.74 169.9 291.08 169.69 285.75 169.47 284.19 165.49"/><polygon class="cls-10" points="165.89 145.89 169.78 148.04 173.69 149.57 172.09 151.21 168.56 149.65 165.22 148.16 165.89 145.89"/><path class="cls-8" d="M212.9,32.43c40.43,3.44,77.36,20.78,87.34,45.43,10.23,25.25,1.11,39.49-54.59,28.69-51.5-10-64.7-10.83-84.36-21.7-8.85-4.89-6.68-17,1.8-28.35C173.08,43.18,192.08,30.66,212.9,32.43Z"/><path class="cls-11" d="M187.84,57.62c-.1.46-.94.68-1.88.51s-1.63-.7-1.54-1.15.94-.68,1.88-.51S187.93,57.16,187.84,57.62Z"/><path class="cls-11" d="M211.44,62.07c-.1.47-1,.69-1.95.51s-1.69-.71-1.59-1.18,1-.69,1.94-.5S211.53,61.61,211.44,62.07Z"/><path class="cls-11" d="M194.93,73.56c-.1.46-1,.68-1.91.49s-1.65-.72-1.55-1.18.94-.68,1.9-.49S195,73.1,194.93,73.56Z"/><path class="cls-11" d="M218.85,46.51c-.09.46-1,.7-2,.52s-1.7-.69-1.6-1.15,1-.7,2-.53S219,46,218.85,46.51Z"/><path class="cls-11" d="M248.26,56.15c-.1.47-1,.71-2,.52s-1.78-.72-1.68-1.19,1-.71,2-.53S248.36,55.67,248.26,56.15Z"/><path class="cls-11" d="M249.13,69.18c-.1.48-1,.71-2,.51s-1.79-.74-1.69-1.22,1-.71,2-.51S249.23,68.7,249.13,69.18Z"/><path class="cls-11" d="M287.19,78.21c-.1.49-1.07.72-2.16.51s-1.9-.77-1.8-1.27,1.07-.72,2.16-.51S287.29,77.71,287.19,78.21Z"/><path class="cls-11" d="M263.14,90.07c-.1.49-1,.71-2.1.5s-1.84-.78-1.74-1.27,1-.71,2.1-.49S263.24,89.59,263.14,90.07Z"/><path class="cls-11" d="M225.36,76.08c-.1.47-1,.69-2,.5s-1.73-.74-1.63-1.21,1-.7,2-.5S225.46,75.61,225.36,76.08Z"/><path class="cls-11" d="M170.35,72.2c-.09.45-.92.67-1.84.48s-1.59-.7-1.49-1.15.92-.67,1.84-.49S170.45,71.75,170.35,72.2Z"/><path class="cls-11" d="M273,57.84c-.1.49-1.05.73-2.12.54s-1.84-.74-1.75-1.22,1.05-.73,2.11-.54S273.09,57.36,273,57.84Z"/><path class="cls-11" d="M244.87,109.84a12.64,12.64,0,0,1-15.05,10.07,13,13,0,0,1-9.54-15.44,12.66,12.66,0,0,1,14.82-10.1A13,13,0,0,1,244.87,109.84Z"/><path d="M242.61,110.09a10.11,10.11,0,0,1-12.05,8,10.43,10.43,0,0,1-7.66-12.39,10.11,10.11,0,0,1,11.9-8.07A10.42,10.42,0,0,1,242.61,110.09Z"/><path class="cls-11" d="M207.62,102.81c-1.45,6.92-7.9,11.33-14.34,9.85s-10.36-8.15-8.93-15,7.73-11.22,14.13-9.88S209.06,95.89,207.62,102.81Z"/><path d="M205.41,103c-1.15,5.54-6.31,9.07-11.48,7.88s-8.32-6.55-7.17-12,6.21-9,11.34-7.9S206.57,97.46,205.41,103Z"/><text/><path class="cls-12" d="M299.63,68.67s15.91-14.92.22-31.48-27-2.06-27-2.06l1.66,2.08a47.79,47.79,0,0,0-6.91-2.72c-20.27-6.26-38.89-16.2-58.5-13.23l5.64-2.66s-3.78-18-25.15-10-13.66,28.37-13.66,28.37l7.2-3.4a106.13,106.13,0,0,0-15.59,16.13,7.52,7.52,0,0,0,9.19,1.92c5.78-2.6,8.68-3.43,9.56-.62s5.07,11.95,8.85,10,3.93-8.19,9.33-5.6,7.77,7.56,11.43,10.2,8.35-2.32,11.67-2.84,1.51.27,8,6.08,9.53,11.2,14,6.18,6.24-8.79,9.32-4.3,1.28,7,8.47,8,7.3-2.15,10.8-4,5.26-1.27,9,3.51,5.18,7,10.1,6.06l4.91-.94A61.94,61.94,0,0,0,299.63,68.67Z"/><path class="cls-13" d="M184.21,38.66a21.16,21.16,0,0,0-4.69,2.13,4.77,4.77,0,0,0-1.75,1.7,1.29,1.29,0,0,0-.07,1,.9.9,0,0,0,.3.41,1.69,1.69,0,0,0,.48.26,6.69,6.69,0,0,0,2.43.24,22.07,22.07,0,0,0,2.53-.3,45,45,0,0,0,5-1.18l.64-.2.11.71A22.27,22.27,0,0,0,191,49.69a15.2,15.2,0,0,0,.78,1.37l.46.63.25.28.12.14.07.07,0,0h0s.07.07-.06,0l0,0,.33.26c.1.08.23.2.29.19a.7.7,0,0,1,.2.08,1.78,1.78,0,0,0,.26,0,1.81,1.81,0,0,0,.56,0,3.51,3.51,0,0,0,.63-.24,14.39,14.39,0,0,0,2.55-1.84c.45-.36.88-.72,1.41-1.07a3.9,3.9,0,0,1,2-.67l.33.1h0c.06,0-.09-.13.13-.09l0,0h.16a3.59,3.59,0,0,1,.41.11c.32.13.69.27,1,.41.53.27,1,.55,1.53.85,1,.59,1.94,1.2,2.87,1.83l5.55,3.77c.92.61,1.85,1.22,2.79,1.74.23.14.46.26.69.38a6.69,6.69,0,0,0,.67.32l.16.06.09,0,0,0h0c-.05,0,.11,0-.1,0h0l.41.09a2.79,2.79,0,0,0,.69.08,16.1,16.1,0,0,0,3.05-.26c1.06-.17,2.13-.39,3.2-.65,2.12-.52,4.27-1.15,6.34-1.85l1-.32.46.91c.29.55.61,1.13.93,1.68s.67,1.12,1,1.66a35.36,35.36,0,0,0,2.25,3.12c.4.5.82,1,1.25,1.42a13,13,0,0,0,1.36,1.23,6.84,6.84,0,0,0,1.45.93l.18.09.1,0h0c.1,0-.14,0-.11,0h0l.06,0,.48.13a3.5,3.5,0,0,0,.46.12l.37,0,.37,0H243c.3,0,.59,0,.9,0,.61-.07,1.23-.15,1.85-.28s1.24-.29,1.86-.44,1.24-.34,1.86-.55c1.23-.4,2.45-.86,3.67-1.34s2.43-1,3.59-1.54l.89-.43.52.82c.69,1.07,1.43,2.16,2.19,3.21s1.54,2.09,2.36,3.08a35,35,0,0,0,2.57,2.84,14.56,14.56,0,0,0,1.39,1.23c.24.16.48.36.72.51s.5.29.73.37l.34.1.09,0h0l0-.21c-.19,0-.05-.23-.09-.23h0l.25.23.49.13a2.53,2.53,0,0,0,.39,0l.37,0,.44-.1a7.11,7.11,0,0,0,.87-.25,22.79,22.79,0,0,0,3.47-1.56,57.9,57.9,0,0,0,6.56-4.2l.58-.42.39.57c1.2,1.72,2.55,3.38,3.92,5a29.89,29.89,0,0,0,4.56,4.37,11.17,11.17,0,0,0,1.3.85,15.69,15.69,0,0,0,1.43.68,21.61,21.61,0,0,0,3,1,31.09,31.09,0,0,0,6.31,1,28.87,28.87,0,0,1-3.22-.11,26.37,26.37,0,0,1-3.19-.47,20.67,20.67,0,0,1-3.14-.88c-.53-.19-1-.39-1.5-.63a13.28,13.28,0,0,1-1.43-.82,30.08,30.08,0,0,1-4.94-4.26,52.73,52.73,0,0,1-4.21-5l1,.15a58.32,58.32,0,0,1-6.6,4.52,23.58,23.58,0,0,1-3.67,1.8,8.4,8.4,0,0,1-1,.34l-.52.15-.6.09c-.2,0-.42.07-.59.08l-.5-.15-.24-.14h0l-.11.13,0,.07h-.08l-.15,0-.61-.15a10.12,10.12,0,0,1-1.05-.48c-.32-.18-.6-.39-.91-.59a17.79,17.79,0,0,1-1.61-1.33c-.52-.46-1-1-1.45-1.45s-.92-1-1.34-1.51c-.88-1-1.69-2.08-2.5-3.15s-1.56-2.15-2.31-3.28l1.41.39c-1.23.61-2.45,1.16-3.7,1.68s-2.52,1-3.82,1.42c-.64.23-1.3.4-2,.6s-1.32.36-2,.48a20.23,20.23,0,0,1-2.09.33c-.35,0-.73,0-1.09.06h-.56l-.63-.06-.62-.07a4.71,4.71,0,0,1-.51-.13l-.48-.13-.06,0-.14,0,0,0-.13-.06-.26-.13a6,6,0,0,1-1-.56,6.72,6.72,0,0,1-.91-.64,15.76,15.76,0,0,1-1.6-1.44c-.49-.5-1-1-1.4-1.56a38.83,38.83,0,0,1-2.4-3.36c-.36-.57-.72-1.16-1.06-1.75s-.66-1.18-1-1.81l1.44.59c-2.18.71-4.34,1.34-6.57,1.86-1.1.27-2.23.5-3.38.68a16.39,16.39,0,0,1-3.64.22,4.78,4.78,0,0,1-1-.14l-.41-.09-.13,0h0l-.06,0-.11,0-.23-.09c-.31-.13-.58-.27-.84-.41s-.53-.29-.77-.44c-1-.59-1.94-1.23-2.88-1.86l-5.5-3.88c-.92-.63-1.82-1.27-2.74-1.86-.46-.3-.92-.57-1.38-.82l-.56-.3-.39-.12-.1,0h-.08l.1,0h-.09a2.3,2.3,0,0,0-1.08.44,15.84,15.84,0,0,0-1.29.93,16,16,0,0,1-3,2,5.69,5.69,0,0,1-1,.32,3.36,3.36,0,0,1-1.1,0,3.73,3.73,0,0,1-.56-.12c-.19-.08-.38-.18-.56-.27a1.59,1.59,0,0,1-.4-.29l-.32-.27,0,0c-.13-.12,0,0-.07-.07h0l0,0-.07-.09-.15-.18-.3-.35-.51-.75a14.68,14.68,0,0,1-.82-1.57,19.36,19.36,0,0,1-1.1-3.3,23.91,23.91,0,0,1-.59-3.4l.75.51a43.62,43.62,0,0,1-5.18.94,21,21,0,0,1-2.63.17,7,7,0,0,1-2.69-.42,2,2,0,0,1-.63-.39,1.54,1.54,0,0,1-.43-.64,1.8,1.8,0,0,1,.14-1.48,5.06,5.06,0,0,1,2-1.79A21.13,21.13,0,0,1,184.21,38.66Z"/><g class="cls-14"><path class="cls-15" d="M221.32,32s-1.56-6.42-6.38-6.73.24,18.26.24,18.26Z"/><path class="cls-15" d="M220.48,31.54s6.14-2.46,9.19,1.3-15,10.38-15,10.38Z"/></g><g class="cls-14"><path class="cls-15" d="M283.63,38.47s-6.6-.44-8.35,4.06,17.49,5.27,17.49,5.27Z"/><path class="cls-15" d="M283,39.14s-.49-6.59,4-8.36,5.38,17.45,5.38,17.45Z"/></g><g class="cls-14"><path class="cls-15" d="M246.22,52.15s-1.36-3.8-4.76-4.18.92,10.63.92,10.63Z"/><path class="cls-15" d="M245.61,51.86s4.21-1.18,6.5,1.13S242,58.41,242,58.41Z"/></g><g class="cls-14"><path class="cls-15" d="M183,21.1s-3.57-1.88-6.33.14,7.87,7.2,7.87,7.2Z"/><path class="cls-15" d="M182.34,21.29s2.31-3.71,5.56-3.57-3.78,10.85-3.78,10.85Z"/></g><g class="cls-14"><path class="cls-15" d="M199.25,11.05s-.59,4,2.23,5.93,4.2-9.81,4.2-9.81Z"/><path class="cls-15" d="M199.65,11.6s-4.27-.95-5.2-4.07,11.48,0,11.48,0Z"/></g><g class="cls-14"><path class="cls-15" d="M301.49,55.74s-3.86-1.2-6.2,1.3,9.06,5.64,9.06,5.64Z"/><path class="cls-15" d="M300.89,56.05s1.59-4.07,4.81-4.52S304,62.88,304,62.88Z"/></g><g class="cls-14"><path class="cls-15" d="M259.3,40.82s-.78-4-4.09-4.84-.67,10.64-.67,10.64Z"/><path class="cls-15" d="M258.74,40.43s4.34-.53,6.26,2.09-10.81,3.86-10.81,3.86Z"/></g><line class="cls-16" x1="187.85" y1="124.31" x2="194.4" y2="121.03"/><path d="M194.4,127.77s.85,5.61-2.28,16.11c-2.41,8.11,14,8.79,18.55,7.33S221,134.5,221,134.5,197.28,133.84,194.4,127.77Z"/><path class="cls-16" d="M221.32,133.77c-1.67.27-7.82,1.23-18.88-2.15s-11-8.25-11-8.25"/><path class="cls-16" d="M220.31,129.43s2,5.31,1.42,6.9"/><path class="cls-17" d="M66,245.58s15.6-3.6,18.8,2a30.25,30.25,0,0,1,3.6,11.6s-15.6,2.8-16,5.2,3.2,8.8,2.8,13.2-4.4,12.4-17.2,6.8c0,0-7.6-8.6,6.4-7.4,0,0,.8,4.6,3,4.2s.6-7-3.4-10.2-12-8.4-10-13.6S66,245.58,66,245.58Z"/><path class="cls-17" d="M23.58,184s-3.2,58.57,65.07,77.23,164.8,2.38,164.8,2.38,52.8-15.16,65.6-42.9S334,184,334,184Z"/><path class="cls-17" d="M286.47,245.58s-15.6-3.6-18.8,2a30.25,30.25,0,0,0-3.6,11.6s15.6,2.8,16,5.2-3.2,8.8-2.8,13.2,4.4,12.4,17.2,6.8c0,0,7.6-8.6-6.4-7.4,0,0-.8,4.6-3,4.2s-.6-7,3.4-10.2,12-8.4,10-13.6S286.47,245.58,286.47,245.58Z"/><path class="cls-18" d="M39.47,230.38c.64.37,89.74,24.13,119.74,24.53s97.59-6.32,110-12.39,37.79-3.32,47.69-17.78L328.64,199H25.18S31.35,225.66,39.47,230.38Z"/><path class="cls-19" d="M23.56,191.58s4.61,27.48,6.92,31.4,5.77-6.36,8.17-7.56,2.67,2.06,7.33,6.52,9.6,7,13.07-3.43,2.67-7.55,8.8.68,8.67,6.17,13.33,2.4,7.87-10.29,12-6.86-.8,8.23,6.54,5.66-.94.52,10.13.86,15.6-1.72,18.67-7.2,9.73-2.75,16.8,1-4.67,26.06,12.13,26.23,18.27-19.55,23.6-22.29,4.13-10,9.6-3.43,14.93,20.71,22,12,11.87,11.32,27.2,17.67,19.47-9.26,27.2-18,2.93-.34,10.93,5.83,11.34-3.26,16.8-7.54-2.4-6.86,6.4-5,5.34,7.21,10.8.52,6.56,8.32,6.56,8.32L329,199.49Z"/><path class="cls-3" d="M23.58,193.18s9.07,6.14,18.14,6.14,13.86,0,16.53-3.07-2.13-2.27,10.13,3.07S83.32,210,91.32,204.38s3.66,21.44,21.06,20.54,22.67-20.27,31.74-24,13.33-2.14,19.2,0,8.53,1.06,17.06-1.6-8.53,12.8,18.67,20.26,31.58-19.2,40.33-20.8,2.87-3.2,15.14,2.67,14.06,3.2,22.49,0,1,17.07,15.91,17.07,20.8-13.87,25.33-16.54,9.59,2.4,9.59,2.4l5.34-20.8L19.85,178.14Z"/><path class="cls-20" d="M7.58,169.18s-7.6,6.62,0,15.91,15.2,2,15.2,2,2.4,4.48,10.8,4.48,20-7.6,28-5.6,7.6,3.2,14.4,7.2,15.2,4,20-1.6,3.2-8,12-1.78,2.4,13,15.6,6.21,9.2-20.43,22-4.43,16.4,28,24.8,21.2,8.8-25.76,16.8-25.68,2.8,9.68,12.8,11.68,15.6-12.56,24-11.68,1.85,14.53,16.2,14.44,18.37-10.92,23.89-14.44,9.2-1.49,17.36,2.7,12.15,11.38,20.55,3.78,10.94,2.8,17.07,3.6,11.65-3.92,11.65-3.92l3-8.49,7.52-1.25s7.6-6.14-4-14.34S7.58,169.18,7.58,169.18Z"/><path class="cls-21" d="M324.15,146.85c-10.45,0-19,5.39-19.44,12.15a12.63,12.63,0,0,0-10.92-6.32,12.88,12.88,0,0,0-2.72.3c0-.1,0-.2,0-.3,0-12.46-15.84-22.57-35.38-22.57s-35.38,10.11-35.38,22.57a15.24,15.24,0,0,0,1.6,6.73,55.75,55.75,0,0,0-16.84-2.3c-8.76,0-16.4,1.55-20.46,3.84a18.15,18.15,0,0,0,.76-5.16c0-12.34-12.44-22.35-27.78-22.35s-27.58,9.85-27.78,22.05a44.14,44.14,0,0,0-14.74-2.35,43,43,0,0,0-15.8,2.75C97.1,149.12,89.1,144,79.55,144h0c-1.24-15-12.77-25.54-26.8-25.54S27.12,129.87,25.9,144.31C15.34,144.88,7,151.59,7,159.75c0,8.54,9.12,15.48,20.36,15.48A24.59,24.59,0,0,0,40,171.89a25.8,25.8,0,0,0,26.19-.45,24.36,24.36,0,0,0,13.36,3.81A23.35,23.35,0,0,0,94.72,170c4.21,3.16,11.75,5.27,20.37,5.27,8.88,0,16.63-2.25,20.75-5.57,5.09,5.15,12.95,8.46,21.77,8.46,10.58,0,19.79-4.76,24.47-11.77,2.32,3.42,11.74,6,23,6,11,0,20.21-2.44,22.82-5.73,6.48,5.25,16.52,8.63,27.8,8.63,10.14,0,19.28-2.73,25.73-7.09a12.65,12.65,0,0,0,25-2.75c0-.18,0-.37,0-.55,3.06,4.41,9.84,7.49,17.73,7.49,10.76,0,19.48-5.71,19.48-12.75S334.91,146.85,324.15,146.85Z"/><path class="cls-11" d="M293.79,175.14a9.71,9.71,0,0,1-9.42-7.62l-.95-4.32-3.66,2.48c-6.18,4.17-14.95,6.57-24,6.57-10.23,0-19.68-2.9-25.91-8l-2.36-1.91-.44.56-2.37-4.85a12.26,12.26,0,0,1-1.3-5.41c0-10.61,14.83-19.57,32.38-19.57s32.38,9,32.38,19.57v.24l-.08,3.81,3.72-.82a9.87,9.87,0,0,1,2.07-.23,9.68,9.68,0,0,1,8.33,4.83l1.2,2.07.1,2.41,0,.42A9.71,9.71,0,0,1,293.79,175.14Zm-136.18,0c-7.73,0-14.88-2.76-19.63-7.57l-1.91-1.93-2.11,1.7c-3.75,3-11,4.91-18.88,4.91-7.61,0-14.73-1.79-18.56-4.67l-1.93-1.44-1.83,1.57a20.44,20.44,0,0,1-13.21,4.54,21.41,21.41,0,0,1-11.71-3.32l-1.59-1.05-1.62,1a22.74,22.74,0,0,1-23.15.4L40,168.42l-1.49.9a21.53,21.53,0,0,1-11.09,2.91c-9.58,0-17.37-5.6-17.37-12.48,0-6.49,7.05-12,16.06-12.45l2.61-.14.22-2.6c1.1-12.95,11.56-23.1,23.82-23.1,12.7,0,22.72,9.58,23.82,22.79l.22,2.75h2.76c8,0,15.09,4.13,16.93,9.82l1,3.07,3-1.22a40.09,40.09,0,0,1,14.65-2.53,41.55,41.55,0,0,1,13.73,2.17l3.95,1.44.07-4.21c.18-10.53,11.29-19.1,24.78-19.1,13.66,0,24.78,8.68,24.78,19.35a15.68,15.68,0,0,1-.63,4.32l-.71,2.41-1.46,2.18C175.28,171.14,166.86,175.14,157.61,175.14Zm166.54-5.79c-6.66,0-12.65-2.44-15.27-6.2l-1.32-1.9.15-2c.36-5.17,7.74-9.37,16.44-9.37,8.93,0,16.48,4.47,16.48,9.75S333.08,169.35,324.15,169.35Zm-119.06,0c-11.33,0-19.2-2.71-20.52-4.67l-.12-.18,1.66-.94c3.71-2.09,11.16-3.45,19-3.45a53.69,53.69,0,0,1,15.9,2.14l5.19,1.72-.62.79C224.05,166.67,216.7,169.35,205.09,169.35Z"/><path class="cls-21" d="M293.73,177.84a9.71,9.71,0,0,1-9.42-7.62l-.95-4.32-3.66,2.48c-6.18,4.17-14.95,6.57-24,6.57-10.23,0-19.68-2.9-25.91-8l-2.36-1.91-.44.56-2.37-4.85a12.26,12.26,0,0,1-1.3-5.41c0-10.61,14.83-19.57,32.38-19.57s32.38,9,32.38,19.57v.24l-.08,3.81,3.72-.82a9.87,9.87,0,0,1,2.07-.23,9.68,9.68,0,0,1,8.33,4.83l1.2,2.07.1,2.41,0,.42A9.71,9.71,0,0,1,293.73,177.84Zm-136.18,0c-7.73,0-14.88-2.76-19.63-7.57L136,168.34,133.9,170c-3.75,3-11,4.91-18.88,4.91-7.61,0-14.73-1.79-18.56-4.67l-1.93-1.44-1.83,1.57A20.44,20.44,0,0,1,79.49,175a21.41,21.41,0,0,1-11.71-3.32l-1.59-1-1.62,1a22.74,22.74,0,0,1-23.15.4l-1.53-.85-1.49.9a21.53,21.53,0,0,1-11.09,2.91c-9.58,0-17.37-5.6-17.37-12.48,0-6.49,7-12,16.06-12.45l2.61-.14.22-2.6c1.1-12.95,11.56-23.1,23.82-23.1,12.7,0,22.72,9.73,23.82,22.94l.22,2.9h2.76c8,0,15.09,4,16.93,9.67l1,3,3-1.25A39.86,39.86,0,0,1,115,158.85,41.55,41.55,0,0,1,128.75,161l3.95,1.43.07-4.21c.18-10.53,11.29-19.1,24.78-19.1,13.66,0,24.78,8.68,24.78,19.35a15.68,15.68,0,0,1-.63,4.32l-.71,2.41-1.46,2.18C175.22,173.84,166.8,177.84,157.55,177.84Zm166.54-5.79c-6.66,0-12.65-2.44-15.27-6.2L307.5,164l.15-2c.36-5.17,7.74-9.37,16.44-9.37,8.93,0,16.48,4.47,16.48,9.75S333,172.05,324.09,172.05Zm-119.06,0c-11.33,0-19.2-2.71-20.52-4.67l-.12-.18,1.66-.94c3.71-2.09,11.16-3.45,19-3.45a53.69,53.69,0,0,1,15.9,2.14l5.19,1.72-.62.79C224,169.37,216.64,172.05,205,172.05Z"/><ellipse class="cls-22" cx="45.45" cy="141.45" rx="2.55" ry="2.44"/><path class="cls-22" d="M51.74,146S51,141.58,56,141.15s14.8,6.23,14.8,6.23-7.65-5-10.78-1.8S51.39,148.5,51.74,146Z"/><ellipse class="cls-22" cx="169.38" cy="150.76" rx="2.55" ry="2.44" transform="translate(-31.46 45.49) rotate(-14.01)"/><path class="cls-22" d="M164.37,156.67s-.3-4.46-5.25-3.66-12.85,9.63-12.85,9.63,6.22-6.69,10-4.36S165.33,159,164.37,156.67Z"/><path class="cls-2" d="M125.71,78.31s3.5,5.79-.26,9-6.35,4.84-11.35.89-.86-.31-.86-.31-7-4.47-8.75-8.21-1.75-8.1-2.72-9.29-4.85-4.91-8.72-6.12S86.43,60.64,89.16,57s12.55-.81,13.3,0,2.7,2.53,4.38,2.5,5-1.82,11.16,5.51c0,0,1.22,3.62.59,4.71s3.59-1.87,9-1.84,12.71,4.28,9.59,8.92-9.84.09-9.84.09Z"/><path class="cls-11" d="M125.71,78.31s-3.46,7.36-6.75,8.36a33,33,0,0,1-5.72,1.24"/><path d="M125.71,78.31a12.66,12.66,0,0,1-.74,2.61,16.52,16.52,0,0,1-1.21,2.49,12.78,12.78,0,0,1-2,2.59,7.3,7.3,0,0,1-.66.57,3.74,3.74,0,0,1-.76.51,3.22,3.22,0,0,1-.86.39,5.71,5.71,0,0,1-.79.2A16.63,16.63,0,0,1,116,88a11.12,11.12,0,0,1-2.71-.13s1-.44,2.47-1c.73-.29,1.59-.61,2.48-.94a4.25,4.25,0,0,0,1.15-.56,5.41,5.41,0,0,0,.52-.39,4.43,4.43,0,0,0,.51-.47c.35-.32.67-.69,1-1s.65-.73.95-1.11L124,80.35C125,79.12,125.71,78.31,125.71,78.31Z"/><path class="cls-11" d="M113.2,84.77s-4.53-1.17-7-7.62"/><path d="M113.2,84.77a2.73,2.73,0,0,1-.51,0,5.09,5.09,0,0,1-1.3-.23,6.33,6.33,0,0,1-1.67-.8,8.36,8.36,0,0,1-1.6-1.39A9.15,9.15,0,0,1,107,80.64c-.14-.3-.27-.6-.38-.88s-.17-.58-.23-.83a5.93,5.93,0,0,1-.17-1.29c0-.31,0-.49,0-.49a4.1,4.1,0,0,1,.36.34c.23.22.5.55.84.92l2.25,2.66c.41.46.81.93,1.21,1.35s.79.81,1.13,1.17C112.65,84.27,113.2,84.77,113.2,84.77Z"/><path class="cls-23" d="M131,30.52l-9.72,3.38h-1.12l-.38,1.24h-.67l0,1.49-2.34,5.67s-.11.33.35.71a3.53,3.53,0,0,0,1.74.43c.17,0,2.07-4.7,2.07-4.7L122.4,37,131,35.9Z"/><path class="cls-23" d="M101.82,38.39l30.09,8.26a2.72,2.72,0,0,1,.39,1.12,2.5,2.5,0,0,1-.45.93,13.74,13.74,0,0,0,.9,1c.34.34-2.1-.5-2.1-.5L99.5,41a9.15,9.15,0,0,0,1.81-.42c.08-.14.09-2.16.3-2.16"/><polyline class="cls-23" points="101.95 41.62 97.22 83.59 118.98 89.43 130.65 49.25 102.12 41.62"/><ellipse class="cls-21" cx="66.36" cy="62.65" rx="12.26" ry="13.02"/><path class="cls-11" d="M66.36,73.27c-5.44,0-9.86-4.77-9.86-10.62S60.92,52,66.36,52s9.86,4.76,9.86,10.62S71.79,73.27,66.36,73.27Z"/><ellipse class="cls-24" cx="63.95" cy="56.62" rx="1.92" ry="1.5"/><path class="cls-24" d="M68.53,56a6.62,6.62,0,0,1,3.15,3.5c1,2.53-.33,6.95,1.67,4.95s.87-.32,1.1-2.49S68.53,56,68.53,56Z"/><ellipse class="cls-21" cx="72.36" cy="97.65" rx="12.26" ry="13.02"/><path class="cls-11" d="M72.36,108.27c-5.44,0-9.86-4.77-9.86-10.62S66.92,87,72.36,87s9.86,4.76,9.86,10.62S77.79,108.27,72.36,108.27Z"/><ellipse class="cls-24" cx="69.95" cy="91.62" rx="1.92" ry="1.5"/><path class="cls-24" d="M74.53,91a6.62,6.62,0,0,1,3.15,3.5c1,2.53-.33,6.95,1.67,4.95s.87-.32,1.1-2.49S74.53,91,74.53,91Z"/><ellipse class="cls-21" cx="71.36" cy="28.65" rx="7.35" ry="7.81"/><path class="cls-11" d="M71.36,35a6.16,6.16,0,0,1-5.91-6.37,5.93,5.93,0,1,1,11.82,0A6.16,6.16,0,0,1,71.36,35Z"/><ellipse class="cls-25" cx="69.91" cy="25.03" rx="1.15" ry="0.9"/><path class="cls-25" d="M72.66,24.68a4,4,0,0,1,1.89,2.11c.58,1.51-.2,4.16,1,3s.52-.19.67-1.49S72.66,24.68,72.66,24.68Z"/><rect class="cls-1" x="28.34" y="-234.42" width="417.63" height="334.24"/></g><g id="_15" data-name="15"><g class="cls-26"><rect class="cls-1" x="309" y="-28" width="350" height="300"/></g></g></svg>