<svg width="118" height="116" viewBox="0 0 118 116" fill="none" xmlns="http://www.w3.org/2000/svg">
<path d="M100.726 75.0066C91.5328 97.1694 65.2582 107.328 42.04 97.6971C18.8219 88.066 7.45261 62.292 16.646 40.1292C25.8393 17.9665 52.114 7.80757 75.3321 17.4387C98.5502 27.0698 109.92 52.8439 100.726 75.0066Z" fill="#D2E82F"/>
<path fill-rule="evenodd" clip-rule="evenodd" d="M48.4968 81.4198C63.4694 87.6306 80.1217 81.1602 85.8529 67.3438C91.5841 53.5275 84.401 37.1699 69.4284 30.9591C54.4558 24.7483 37.8035 31.2187 32.0723 45.035C26.3411 58.8514 33.5242 75.209 48.4968 81.4198ZM47.601 83.5792C63.6448 90.2343 81.7375 83.3666 88.0124 68.2396C94.2872 53.1126 86.3679 35.4548 70.3242 28.7997C54.2804 22.1446 36.1877 29.0123 29.9128 44.1393C23.638 59.2662 31.5573 76.9241 47.601 83.5792Z" fill="#323232"/>
<path fill-rule="evenodd" clip-rule="evenodd" d="M49.5488 70.9961C44.4318 67.1336 41.9395 59.7596 41.1448 54.3112L43.4582 53.9738C44.2241 59.2251 46.5854 65.8301 50.9573 69.1302C53.09 70.74 55.7275 71.5876 59.0178 71.0921C62.3497 70.5904 66.4357 68.6967 71.3671 64.6328L72.8539 66.4369C67.7345 70.6558 63.264 72.8169 59.366 73.4039C55.4264 73.9972 52.1606 72.9676 49.5488 70.9961Z" fill="#323232"/>
<path fill-rule="evenodd" clip-rule="evenodd" d="M70.1407 43.3161L76.4549 58.5818L78.6152 57.6882L72.3011 42.4225L70.1407 43.3161Z" fill="#323232"/>
<path fill-rule="evenodd" clip-rule="evenodd" d="M66.9677 51.9995L82.2334 45.6854L83.127 47.8457L67.8613 54.1598L66.9677 51.9995Z" fill="#323232"/>
<path fill-rule="evenodd" clip-rule="evenodd" d="M48.3214 35.7575L54.6355 51.0232L56.7959 50.1296L50.4818 34.864L48.3214 35.7575Z" fill="#323232"/>
<path fill-rule="evenodd" clip-rule="evenodd" d="M45.1484 44.4411L60.4141 38.127L61.3076 40.2874L46.0419 46.6015L45.1484 44.4411Z" fill="#323232"/>
</svg>
