<svg id="Слой_1" data-name="Слой 1" xmlns="http://www.w3.org/2000/svg" viewBox="0 0 146.34 127.41"><title>about-arrow</title><path d="M86.22,84.36a7.31,7.31,0,1,1-7.31-7.31A7.31,7.31,0,0,1,86.22,84.36Z"/><path d="M86.22,102.23a7.31,7.31,0,1,1-7.31-7.31A7.31,7.31,0,0,1,86.22,102.23Z"/><path d="M104.09,103.85a7.31,7.31,0,1,1-7.31-7.31A7.31,7.31,0,0,1,104.09,103.85Z"/><path d="M86.22,120.1a7.31,7.31,0,1,1-7.31-7.31A7.31,7.31,0,0,1,86.22,120.1Z"/><path d="M86.22,12.88a7.31,7.31,0,1,1-7.31-7.31A7.31,7.31,0,0,1,86.22,12.88Z"/><path d="M86.22,66.49a7.31,7.31,0,1,1-7.31-7.31A7.31,7.31,0,0,1,86.22,66.49Z"/><path d="M104.09,67.3A7.31,7.31,0,1,1,96.78,60,7.31,7.31,0,0,1,104.09,67.3Z"/><path d="M104.09,85.58a7.31,7.31,0,1,1-7.31-7.31A7.31,7.31,0,0,1,104.09,85.58Z"/><path d="M86.22,48.62a7.31,7.31,0,1,1-7.31-7.31A7.31,7.31,0,0,1,86.22,48.62Z"/><path d="M104.09,49a7.31,7.31,0,1,1-7.31-7.31A7.31,7.31,0,0,1,104.09,49Z"/><path d="M86.22,30.75a7.31,7.31,0,1,1-7.31-7.31A7.31,7.31,0,0,1,86.22,30.75Z"/><path d="M104.09,30.75a7.31,7.31,0,1,1-7.31-7.31A7.31,7.31,0,0,1,104.09,30.75Z"/><path d="M122,66.49a7.31,7.31,0,1,1-7.31-7.31A7.31,7.31,0,0,1,122,66.49Z"/><path d="M122,84.36a7.31,7.31,0,1,1-7.31-7.31A7.31,7.31,0,0,1,122,84.36Z"/><path d="M139.83,66.49a7.31,7.31,0,1,1-7.31-7.31A7.31,7.31,0,0,1,139.83,66.49Z"/><path d="M122,48.62a7.31,7.31,0,1,1-7.31-7.31A7.31,7.31,0,0,1,122,48.62Z"/><path d="M14.62,84.36a7.31,7.31,0,1,1-7.31-7.31A7.31,7.31,0,0,1,14.62,84.36Z"/><path d="M14.62,102.23a7.31,7.31,0,1,1-7.31-7.31A7.31,7.31,0,0,1,14.62,102.23Z"/><path d="M32.49,103.85a7.31,7.31,0,1,1-7.31-7.31A7.31,7.31,0,0,1,32.49,103.85Z"/><path d="M14.62,120.1a7.31,7.31,0,1,1-7.31-7.31A7.31,7.31,0,0,1,14.62,120.1Z"/><path d="M14.62,12.88A7.31,7.31,0,1,1,7.31,5.57,7.31,7.31,0,0,1,14.62,12.88Z"/><path d="M14.62,66.49a7.31,7.31,0,1,1-7.31-7.31A7.31,7.31,0,0,1,14.62,66.49Z"/><path d="M32.49,67.3A7.31,7.31,0,1,1,25.18,60,7.31,7.31,0,0,1,32.49,67.3Z"/><path d="M32.49,85.58a7.31,7.31,0,1,1-7.31-7.31A7.31,7.31,0,0,1,32.49,85.58Z"/><path d="M14.62,48.62a7.31,7.31,0,1,1-7.31-7.31A7.31,7.31,0,0,1,14.62,48.62Z"/><path d="M32.49,49a7.31,7.31,0,1,1-7.31-7.31A7.31,7.31,0,0,1,32.49,49Z"/><path d="M14.62,30.75a7.31,7.31,0,1,1-7.31-7.31A7.31,7.31,0,0,1,14.62,30.75Z"/><path d="M32.49,30.75a7.31,7.31,0,1,1-7.31-7.31A7.31,7.31,0,0,1,32.49,30.75Z"/><path d="M50.36,66.49a7.31,7.31,0,1,1-7.31-7.31A7.31,7.31,0,0,1,50.36,66.49Z"/><path d="M50.36,84.36a7.31,7.31,0,1,1-7.31-7.31A7.31,7.31,0,0,1,50.36,84.36Z"/><path d="M68.23,66.49a7.31,7.31,0,1,1-7.31-7.31A7.31,7.31,0,0,1,68.23,66.49Z"/><path d="M50.36,48.62a7.31,7.31,0,1,1-7.31-7.31A7.31,7.31,0,0,1,50.36,48.62Z"/></svg>