<svg width="238" height="99" viewBox="0 0 238 99" fill="none" xmlns="http://www.w3.org/2000/svg">
<path d="M131.145 25.6791C131.145 25.8952 130.638 26.0697 129.624 26.2027C128.61 26.3357 127.588 26.4022 126.557 26.4022C125.543 26.4022 124.886 26.344 124.587 26.2277C124.304 26.1113 124.163 25.9284 124.163 25.6791V9.64449C124.163 9.21225 124.703 8.90469 125.784 8.72182C126.881 8.53895 128.261 8.44751 129.924 8.44751C131.586 8.44751 132.658 8.45582 133.14 8.47245C133.639 8.47245 134.221 8.49738 134.886 8.54726C135.551 8.59713 136.075 8.68026 136.457 8.79663C136.856 8.913 137.288 9.06262 137.754 9.2455C138.236 9.42837 138.61 9.66943 138.876 9.96867C139.142 10.2513 139.4 10.5921 139.649 10.9911C140.098 11.706 140.322 12.7284 140.322 14.0584C140.322 15.3717 140.098 16.4856 139.649 17.3999C139.217 18.2977 138.635 18.9793 137.903 19.4448C139.815 22.4539 140.771 24.3657 140.771 25.1803C140.771 25.9949 139.134 26.4022 135.859 26.4022C134.911 26.4022 134.254 26.3607 133.889 26.2776C133.523 26.1944 133.29 26.0116 133.19 25.7289L131.569 20.5919L131.145 20.567V25.6791ZM131.145 16.7266H131.794C132.758 16.7266 133.24 15.9785 133.24 14.4823C133.24 13.7176 133.107 13.1772 132.841 12.8614C132.592 12.5455 132.301 12.3876 131.968 12.3876H131.145V16.7266Z" fill="black"/>
<path d="M148.896 25.1304C148.863 25.6126 148.605 25.9451 148.123 26.1279C147.658 26.3108 146.81 26.4022 145.58 26.4022C144.349 26.4022 143.319 26.2942 142.487 26.0781C141.673 25.8453 141.265 25.5544 141.265 25.2053C141.265 24.8063 142.005 22.2627 143.485 17.5745C144.964 12.8697 145.812 10.1599 146.028 9.445C146.112 9.22887 146.777 9.05431 148.023 8.92131C149.287 8.77169 150.634 8.69688 152.063 8.69688C153.51 8.69688 154.308 8.94625 154.457 9.445C157.599 19.8853 159.17 25.1886 159.17 25.3549C159.17 25.5211 159.071 25.6874 158.871 25.8536C158.406 26.2194 157.483 26.4022 156.103 26.4022C153.16 26.4022 151.656 26.0531 151.589 25.3549L151.415 23.734H149.021L148.896 25.1304ZM150.891 18.9959L150.517 14.5072H149.969L149.545 18.9959H150.891Z" fill="black"/>
<path d="M167.382 25.6791C167.382 25.8952 166.866 26.0697 165.836 26.2027C164.821 26.3357 163.807 26.4022 162.793 26.4022C161.779 26.4022 161.131 26.344 160.848 26.2277C160.566 26.1113 160.424 25.9284 160.424 25.6791V10.3677C160.424 9.95205 160.898 9.56968 161.846 9.22056C162.81 8.87144 163.899 8.69688 165.112 8.69688C165.545 8.69688 165.869 8.71351 166.085 8.74676C166.65 8.82988 167.049 9.18731 167.282 9.81905L169.676 16.2528H169.776V10.3677C169.776 9.95205 170.249 9.56968 171.197 9.22056C172.145 8.87144 173.225 8.69688 174.439 8.69688C175.486 8.69688 176.151 8.89638 176.434 9.29537C176.633 9.57799 176.733 9.83568 176.733 10.0684V25.6791C176.733 25.8952 176.218 26.0697 175.187 26.2027C174.173 26.3357 173.051 26.4022 171.82 26.4022C170.607 26.4022 169.942 26.2443 169.825 25.9284L167.506 19.7939H167.382V25.6791Z" fill="black"/>
<path d="M186.692 26.4022H180.807C179.993 26.4022 179.444 26.344 179.161 26.2277C178.879 26.1113 178.737 25.9201 178.737 25.6541V9.9188C178.737 9.48656 178.92 9.179 179.286 8.99613C179.652 8.79663 180.283 8.69688 181.181 8.69688H186.792C189.984 8.69688 192.187 9.32862 193.4 10.5921C194.614 11.839 195.221 14.1165 195.221 17.4249C195.221 20.7332 194.589 23.0607 193.326 24.4073C192.062 25.7372 189.851 26.4022 186.692 26.4022ZM186.493 12.4125C186.094 12.4125 185.828 12.4458 185.695 12.5123V22.5869L186.642 22.6866C187.141 22.6866 187.515 22.2876 187.765 21.4896C188.031 20.6916 188.164 19.3118 188.164 17.3501C188.164 15.3883 188.031 14.075 187.765 13.41C187.499 12.745 187.075 12.4125 186.493 12.4125Z" fill="black"/>
<path d="M131.442 54.6372C131.442 54.8201 130.935 54.9697 129.921 55.0861C128.907 55.1859 127.884 55.2357 126.853 55.2357C125.839 55.2357 125.191 55.1942 124.908 55.111C124.626 55.0113 124.484 54.8534 124.484 54.6372V39.1264C124.484 38.7606 124.966 38.4032 125.931 38.0541C126.895 37.6883 127.976 37.5054 129.173 37.5054C130.237 37.5054 130.935 37.7299 131.267 38.1787C131.384 38.345 131.442 38.5112 131.442 38.6775V54.6372Z" fill="black"/>
<path d="M140.404 54.5126C140.404 54.7287 139.888 54.9032 138.858 55.0362C137.843 55.1692 136.829 55.2357 135.815 55.2357C134.801 55.2357 134.153 55.1775 133.87 55.0612C133.587 54.9448 133.446 54.7619 133.446 54.5126V39.2012C133.446 38.7855 133.92 38.4032 134.868 38.0541C135.832 37.7049 136.921 37.5304 138.134 37.5304C138.567 37.5304 138.891 37.547 139.107 37.5803C139.672 37.6634 140.071 38.0208 140.304 38.6525L142.698 45.0863H142.798V39.2012C142.798 38.7855 143.271 38.4032 144.219 38.0541C145.167 37.7049 146.247 37.5304 147.461 37.5304C148.508 37.5304 149.173 37.7299 149.456 38.1289C149.655 38.4115 149.755 38.6692 149.755 38.9019V54.5126C149.755 54.7287 149.24 54.9032 148.209 55.0362C147.195 55.1692 146.073 55.2357 144.842 55.2357C143.629 55.2357 142.964 55.0778 142.847 54.7619L140.528 48.6274H140.404V54.5126Z" fill="black"/>
<path d="M162.358 54.6372C162.358 54.8201 161.842 54.9697 160.812 55.0861C159.797 55.1859 158.775 55.2357 157.744 55.2357C156.73 55.2357 156.082 55.1942 155.799 55.111C155.533 55.0113 155.4 54.8534 155.4 54.6372V43.9143H151.934C151.751 43.9143 151.593 43.6815 151.46 43.216C151.327 42.7505 151.261 42.0606 151.261 41.1463C151.261 40.2153 151.36 39.384 151.56 38.6525C151.759 37.9044 152.025 37.5304 152.358 37.5304H165.849C166.098 37.5304 166.264 37.7631 166.348 38.2286C166.447 38.6941 166.497 39.3674 166.497 40.2485C166.497 41.1296 166.406 41.9609 166.223 42.7422C166.04 43.5236 165.791 43.9143 165.475 43.9143H162.358V54.6372Z" fill="black"/>
<path d="M174.985 54.5126C174.985 54.7287 174.478 54.9032 173.464 55.0362C172.45 55.1692 171.427 55.2357 170.397 55.2357C169.382 55.2357 168.726 55.1775 168.427 55.0612C168.144 54.9448 168.003 54.7619 168.003 54.5126V38.478C168.003 38.0457 168.543 37.7382 169.623 37.5553C170.721 37.3724 172.101 37.281 173.763 37.281C175.426 37.281 176.498 37.2893 176.98 37.3059C177.479 37.3059 178.061 37.3309 178.726 37.3808C179.391 37.4306 179.914 37.5138 180.297 37.6301C180.696 37.7465 181.128 37.8961 181.593 38.079C182.075 38.2619 182.449 38.5029 182.715 38.8022C182.981 39.0848 183.239 39.4256 183.489 39.8246C183.937 40.5395 184.162 41.5619 184.162 42.8919C184.162 44.2052 183.937 45.3191 183.489 46.2334C183.056 47.1312 182.474 47.8128 181.743 48.2783C183.655 51.2874 184.611 53.1992 184.611 54.0138C184.611 54.8284 182.973 55.2357 179.698 55.2357C178.75 55.2357 178.094 55.1942 177.728 55.111C177.362 55.0279 177.13 54.8451 177.03 54.5624L175.409 49.4254L174.985 49.4004V54.5126ZM174.985 45.5601H175.633C176.598 45.5601 177.08 44.812 177.08 43.3158C177.08 42.5511 176.947 42.0107 176.681 41.6949C176.431 41.379 176.14 41.2211 175.808 41.2211H174.985V45.5601Z" fill="black"/>
<path d="M194.282 55.4602C192.902 55.4602 191.713 55.3355 190.716 55.0861C189.735 54.8201 188.829 54.3546 187.998 53.6896C186.319 52.3763 185.479 49.8576 185.479 46.1337C185.479 44.571 185.703 43.2077 186.152 42.044C186.618 40.8803 187.258 39.9576 188.072 39.276C189.668 37.946 191.738 37.281 194.282 37.281C195.595 37.281 196.734 37.3974 197.698 37.6301C198.679 37.8629 199.602 38.2868 200.466 38.9019C202.212 40.1654 203.085 42.576 203.085 46.1337C203.085 49.3256 202.295 51.678 200.716 53.1909C199.136 54.7037 196.992 55.4602 194.282 55.4602ZM193.459 51.1959C193.658 51.4287 193.933 51.545 194.282 51.545C194.631 51.545 194.905 51.4287 195.105 51.1959C195.304 50.9465 195.47 50.4312 195.603 49.6498C195.736 48.8518 195.803 47.7463 195.803 46.3332C195.803 44.9201 195.736 43.8312 195.603 43.0664C195.47 42.3017 195.304 41.8029 195.105 41.5702C194.905 41.3374 194.631 41.2211 194.282 41.2211C193.933 41.2211 193.658 41.3374 193.459 41.5702C193.259 41.8029 193.093 42.3017 192.96 43.0664C192.827 43.8312 192.761 44.9201 192.761 46.3332C192.761 47.7463 192.827 48.8518 192.96 49.6498C193.093 50.4312 193.259 50.9465 193.459 51.1959Z" fill="black"/>
<path d="M132.136 84.8485H126.25C125.436 84.8485 124.887 84.7903 124.605 84.674C124.322 84.5576 124.181 84.3664 124.181 84.1004V68.3651C124.181 67.9328 124.364 67.6253 124.729 67.4424C125.095 67.2429 125.727 67.1432 126.625 67.1432H132.235C135.427 67.1432 137.63 67.7749 138.844 69.0384C140.057 70.2852 140.664 72.5628 140.664 75.8712C140.664 79.1795 140.032 81.507 138.769 82.8536C137.505 84.1835 135.294 84.8485 132.136 84.8485ZM131.936 70.8588C131.537 70.8588 131.271 70.8921 131.138 70.9585V81.0331L132.086 81.1329C132.584 81.1329 132.959 80.7339 133.208 79.9359C133.474 79.1379 133.607 77.7581 133.607 75.7964C133.607 73.8346 133.474 72.5213 133.208 71.8563C132.942 71.1913 132.518 70.8588 131.936 70.8588Z" fill="black"/>
<path d="M158.53 77.8911C158.53 80.285 157.84 82.0805 156.46 83.2775C155.097 84.4578 153.111 85.048 150.5 85.048C147.907 85.048 145.912 84.4578 144.516 83.2775C143.119 82.0805 142.421 80.285 142.421 77.8911V68.7391C142.421 68.3235 142.886 67.9495 143.817 67.617C144.765 67.2845 145.862 67.1182 147.109 67.1182C148.106 67.1182 148.755 67.3094 149.054 67.6918C149.27 67.991 149.378 68.2487 149.378 68.4648V75.8961C149.378 77.7747 149.445 79.0216 149.578 79.6367C149.727 80.2352 150.035 80.5344 150.5 80.5344C150.966 80.5344 151.257 80.2435 151.373 79.6616C151.506 79.0631 151.573 77.7996 151.573 75.8712V68.7391C151.573 68.3235 152.038 67.9495 152.969 67.617C153.917 67.2845 155.006 67.1182 156.236 67.1182C157.283 67.1182 157.948 67.3094 158.231 67.6918C158.43 67.991 158.53 68.2487 158.53 68.4648V77.8911Z" fill="black"/>
<path d="M173.008 84.674C172.343 84.8236 171.662 84.9233 170.963 84.9732C170.282 85.0397 169.609 85.073 168.944 85.073C168.295 85.073 167.788 85.0563 167.422 85.0231C167.073 84.9898 166.608 84.9067 166.026 84.7737C165.444 84.6407 164.912 84.4578 164.43 84.2251C163.948 83.9924 163.432 83.6515 162.884 83.2027C162.352 82.7538 161.903 82.2218 161.537 81.6067C160.689 80.177 160.265 78.3316 160.265 76.0707C160.265 74.5578 160.498 73.2195 160.964 72.0558C161.446 70.8921 162.019 69.9943 162.684 69.3626C163.366 68.7308 164.139 68.2238 165.004 67.8414C166.4 67.2097 167.805 66.8938 169.218 66.8938C171.246 66.8938 172.701 67.06 173.582 67.3925C173.981 67.5422 174.338 67.7749 174.654 68.0908C174.97 68.4067 175.128 68.8638 175.128 69.4623C175.128 70.0608 174.978 70.8172 174.679 71.7316C174.396 72.646 173.981 73.1031 173.432 73.1031C173.266 73.1031 172.651 72.9701 171.587 72.7041C170.523 72.4382 169.8 72.3052 169.417 72.3052C168.836 72.3052 168.337 72.6293 167.921 73.2777C167.522 73.9261 167.323 74.8487 167.323 76.0457C167.323 77.2427 167.497 78.1737 167.846 78.8387C168.212 79.5037 168.686 79.8362 169.268 79.8362C169.683 79.8362 170.431 79.6699 171.512 79.3374C172.609 78.9883 173.249 78.8137 173.432 78.8137C173.948 78.8137 174.347 79.2875 174.629 80.2352C174.928 81.1828 175.078 81.9475 175.078 82.5294C175.078 83.1112 174.895 83.5767 174.529 83.9259C174.18 84.2583 173.673 84.5077 173.008 84.674Z" fill="black"/>
<path d="M187.478 84.25C187.478 84.4329 186.963 84.5825 185.932 84.6989C184.918 84.7987 183.895 84.8485 182.865 84.8485C181.851 84.8485 181.202 84.807 180.92 84.7238C180.654 84.6241 180.521 84.4662 180.521 84.25V73.5271H177.054C176.871 73.5271 176.714 73.2943 176.581 72.8288C176.448 72.3633 176.381 71.6734 176.381 70.7591C176.381 69.8281 176.481 68.9968 176.68 68.2653C176.88 67.5172 177.146 67.1432 177.478 67.1432H190.969C191.219 67.1432 191.385 67.3759 191.468 67.8414C191.568 68.3069 191.618 68.9802 191.618 69.8613C191.618 70.7424 191.526 71.5737 191.343 72.355C191.16 73.1364 190.911 73.5271 190.595 73.5271H187.478V84.25Z" fill="black"/>
<path d="M200.08 84.25C200.08 84.4329 199.573 84.5825 198.559 84.6989C197.545 84.7987 196.523 84.8485 195.492 84.8485C194.478 84.8485 193.83 84.807 193.547 84.7238C193.264 84.6241 193.123 84.4662 193.123 84.25V68.7391C193.123 68.3734 193.605 68.016 194.569 67.6669C195.534 67.3011 196.614 67.1182 197.811 67.1182C198.875 67.1182 199.573 67.3427 199.906 67.7915C200.022 67.9578 200.08 68.124 200.08 68.2903V84.25Z" fill="black"/>
<path d="M210.514 85.073C209.134 85.073 207.945 84.9483 206.948 84.6989C205.967 84.4329 205.061 83.9674 204.229 83.3024C202.55 81.9891 201.711 79.4704 201.711 75.7465C201.711 74.1838 201.935 72.8205 202.384 71.6568C202.85 70.4931 203.49 69.5704 204.304 68.8888C205.9 67.5588 207.97 66.8938 210.514 66.8938C211.827 66.8938 212.966 67.0102 213.93 67.2429C214.911 67.4757 215.833 67.8996 216.698 68.5147C218.444 69.7782 219.316 72.1888 219.316 75.7465C219.316 78.9384 218.527 81.2908 216.947 82.8037C215.368 84.3165 213.223 85.073 210.514 85.073ZM209.691 80.8087C209.89 81.0415 210.164 81.1578 210.514 81.1578C210.863 81.1578 211.137 81.0415 211.336 80.8087C211.536 80.5593 211.702 80.044 211.835 79.2626C211.968 78.4646 212.035 77.3591 212.035 75.946C212.035 74.5329 211.968 73.4439 211.835 72.6792C211.702 71.9145 211.536 71.4157 211.336 71.183C211.137 70.9502 210.863 70.8339 210.514 70.8339C210.164 70.8339 209.89 70.9502 209.691 71.183C209.491 71.4157 209.325 71.9145 209.192 72.6792C209.059 73.4439 208.992 74.5329 208.992 75.946C208.992 77.3591 209.059 78.4646 209.192 79.2626C209.325 80.044 209.491 80.5593 209.691 80.8087Z" fill="black"/>
<path d="M227.891 84.1254C227.891 84.3415 227.376 84.516 226.345 84.649C225.331 84.782 224.317 84.8485 223.303 84.8485C222.289 84.8485 221.64 84.7903 221.358 84.674C221.075 84.5576 220.934 84.3747 220.934 84.1254V68.814C220.934 68.3983 221.408 68.016 222.355 67.6669C223.319 67.3177 224.408 67.1432 225.622 67.1432C226.054 67.1432 226.378 67.1598 226.594 67.193C227.16 67.2762 227.559 67.6336 227.791 68.2653L230.185 74.6991H230.285V68.814C230.285 68.3983 230.759 68.016 231.707 67.6669C232.654 67.3177 233.735 67.1432 234.948 67.1432C235.996 67.1432 236.661 67.3427 236.943 67.7417C237.143 68.0243 237.243 68.282 237.243 68.5147V84.1254C237.243 84.3415 236.727 84.516 235.697 84.649C234.682 84.782 233.56 84.8485 232.33 84.8485C231.116 84.8485 230.451 84.6906 230.335 84.3747L228.016 78.2402H227.891V84.1254Z" fill="black"/>
<path fill-rule="evenodd" clip-rule="evenodd" d="M107.972 74.9156L107.968 74.9317C105.753 82.784 101.218 88.7276 94.387 92.6021L94.382 92.6049L94.3769 92.6078C87.7041 96.3486 78.4518 98.0964 66.8627 98.0964H8.50979C6.36546 98.0964 4.36711 97.7526 2.80457 96.7734C1.1206 95.7771 0 94.1946 0 92.1115C0 91.1827 0.226194 90.2795 0.58445 89.4269C1.11696 87.9982 2.01296 86.8064 3.28539 85.9581C3.97854 85.496 4.57848 85.104 4.94968 84.8991C6.28606 84.059 7.31584 83.2577 8.07644 82.5054C8.65342 81.8514 9.30827 80.6207 9.90998 78.5606C9.91082 78.5577 9.91166 78.5548 9.91251 78.5519L27.0277 18.0874L27.0355 18.0621C27.35 17.0399 27.4932 16.1032 27.4932 15.2428C27.4932 14.479 27.3519 14.0735 27.2401 13.8778L27.1469 13.7147L27.0809 13.5388C26.8696 12.9752 26.5321 12.2843 26.0395 11.4573C25.1668 10.1846 24.4072 8.72368 24.4072 7.24734C24.4072 6.63756 24.578 5.8555 24.7576 5.13735L24.7727 5.07664L24.7911 5.01683C25.3777 3.11054 26.6846 1.73602 28.5293 1.01361C30.2761 0.275944 32.6082 0 35.3016 0H85.5187C92.101 0 97.9308 1.01403 102.95 3.11718C108.014 5.10721 112.001 7.95473 114.745 11.7403C117.584 15.4332 118.997 19.7176 118.997 24.5007C118.997 27.1307 118.644 29.6065 117.915 31.9109C115.407 40.604 109.028 46.4721 99.3635 49.7385C101.39 50.9709 103.169 52.4737 104.684 54.2552C107.715 57.7267 109.178 62.0324 109.178 67.0029C109.178 69.3279 108.758 71.9711 107.977 74.8994L107.972 74.9156ZM102.912 55.7812C101.116 53.664 98.8793 51.9649 96.2024 50.684C94.9777 50.0979 93.6608 49.5994 92.2518 49.1885C93.701 48.9049 95.086 48.5777 96.4067 48.2069C106.846 45.2757 113.27 39.618 115.677 31.2337C116.332 29.1764 116.659 26.9321 116.659 24.5007C116.659 20.1991 115.397 16.4117 112.872 13.1387C110.44 9.77223 106.84 7.15383 102.071 5.28355C97.395 3.31975 91.8777 2.33785 85.5187 2.33785H35.3016C32.6832 2.33785 30.7194 2.61839 29.4102 3.17948C28.1945 3.64705 27.3997 4.48868 27.0256 5.70436C26.8386 6.45248 26.7451 6.96681 26.7451 7.24734C26.7451 7.99546 27.1659 8.97736 28.0075 10.193C28.5686 11.1282 28.9894 11.9698 29.2699 12.7179C29.644 13.3725 29.831 14.2142 29.831 15.2428C29.831 16.365 29.644 17.5339 29.2699 18.7496L12.1568 79.2065C11.5022 81.4509 10.7074 83.0874 9.77223 84.116C8.83709 85.0512 7.62141 85.9863 6.12518 86.9215C5.93815 87.015 5.42382 87.3423 4.5822 87.9033C3.74057 88.4644 3.13273 89.2593 2.75867 90.288C2.47813 90.9426 2.33785 91.5504 2.33785 92.1115C2.33785 93.2337 2.89894 94.122 4.02111 94.7766C5.04977 95.4312 6.54599 95.7585 8.50979 95.7585H66.8627C78.2714 95.7585 87.0617 94.0285 93.2337 90.5685C99.4991 87.015 103.66 81.5911 105.718 74.297C106.466 71.4916 106.84 69.0602 106.84 67.0029C106.84 62.5142 105.531 58.7737 102.912 55.7812ZM76.9673 27.3346L76.9787 27.2987C77.5755 25.423 77.8506 23.7474 77.8506 22.2564C77.8506 20.2674 77.3 19.1799 76.5736 18.5397C75.7909 17.8498 74.3782 17.3001 71.9124 17.3001H67.3675L61.2584 38.8551H64.3378C67.9051 38.8551 70.3968 38.0084 72.0956 36.5944C73.903 35.0742 75.6043 32.1506 76.957 27.3709L76.9673 27.3346ZM73.5957 38.3876C71.3513 40.2579 68.2654 41.193 64.3378 41.193H58.1658L65.6002 14.9623H71.9124C77.4298 14.9623 80.1884 17.3936 80.1884 22.2564C80.1884 24.0331 79.8611 25.9502 79.2065 28.0075C77.8038 32.9638 75.9335 36.4238 73.5957 38.3876ZM66.7206 68.5988L66.7224 68.5927C67.3297 66.5103 67.6108 64.6769 67.6108 63.0753C67.6108 61.0013 67.0304 59.8466 66.239 59.1573C65.3858 58.4142 63.8635 57.8385 61.2518 57.8385H55.9955L49.3529 80.7963H53.3966C57.0253 80.7963 59.6781 79.9179 61.5854 78.3866C63.484 76.7689 65.2747 73.6596 66.7188 68.605L66.7206 68.5988ZM63.0753 80.1884C60.644 82.1522 57.4177 83.1341 53.3966 83.1341H46.2428L54.2382 55.5007H61.2518C67.0497 55.5007 69.9486 58.0256 69.9486 63.0753C69.9486 64.9456 69.6213 67.0029 68.9667 69.2473C67.4705 74.4841 65.5067 78.1311 63.0753 80.1884Z" fill="black"/>
</svg>
