<svg id="圖層_1" data-name="圖層 1" xmlns="http://www.w3.org/2000/svg" viewBox="0 0 680 170"><defs><style>.cls-1{fill:#252424;}.cls-1,.cls-2,.cls-3,.cls-4,.cls-5{stroke:#000;stroke-miterlimit:10;}.cls-2{fill:#e8e8e8;}.cls-3{fill:#b30101;}.cls-4,.cls-5{font-size:60.77px;font-family:Swiss721BT-BlackExtended, Swis721 BlkEx BT;font-weight:800;}.cls-4{stroke-width:9px;}.cls-5{fill:#e5ad3a;stroke-width:3px;}</style></defs><title>sticker</title><rect class="cls-1" x="380.36" y="42.31" width="42.05" height="40.96"/><rect class="cls-2" x="338.31" y="42.31" width="42.05" height="40.96"/><rect class="cls-1" x="338.31" y="1.66" width="42.05" height="40.96"/><rect class="cls-2" x="380.36" y="1.66" width="42.05" height="40.96"/><rect class="cls-1" x="465.2" y="42.31" width="42.05" height="40.96"/><rect class="cls-2" x="423.15" y="42.31" width="42.05" height="40.96"/><rect class="cls-1" x="423.15" y="1.66" width="42.05" height="40.96"/><rect class="cls-2" x="465.2" y="1.66" width="42.05" height="40.96"/><rect class="cls-1" x="380.36" y="124.31" width="42.05" height="40.96"/><rect class="cls-2" x="338.31" y="124.31" width="42.05" height="40.96"/><rect class="cls-1" x="338.31" y="83.66" width="42.05" height="40.96"/><rect class="cls-2" x="380.36" y="83.66" width="42.05" height="40.96"/><rect class="cls-1" x="465.2" y="124.31" width="42.05" height="40.96"/><rect class="cls-2" x="423.15" y="124.31" width="42.05" height="40.96"/><rect class="cls-1" x="423.15" y="83.66" width="42.05" height="40.96"/><rect class="cls-2" x="465.2" y="83.66" width="42.05" height="40.96"/><rect class="cls-1" x="549.2" y="42.31" width="42.05" height="40.96"/><rect class="cls-2" x="507.15" y="42.31" width="42.05" height="40.96"/><rect class="cls-1" x="507.15" y="1.66" width="42.05" height="40.96"/><rect class="cls-2" x="549.2" y="1.66" width="42.05" height="40.96"/><rect class="cls-1" x="549.2" y="124.31" width="42.05" height="40.96"/><rect class="cls-2" x="507.15" y="124.31" width="42.05" height="40.96"/><rect class="cls-1" x="507.15" y="83.66" width="42.05" height="40.96"/><rect class="cls-2" x="549.2" y="83.66" width="42.05" height="40.96"/><rect class="cls-1" x="633.2" y="42.31" width="42.05" height="40.96"/><rect class="cls-2" x="591.15" y="42.31" width="42.05" height="40.96"/><rect class="cls-1" x="591.15" y="1.66" width="42.05" height="40.96"/><rect class="cls-2" x="633.2" y="1.66" width="42.05" height="40.96"/><rect class="cls-1" x="633.2" y="124.31" width="42.05" height="40.96"/><rect class="cls-2" x="591.15" y="124.31" width="42.05" height="40.96"/><rect class="cls-1" x="591.15" y="83.66" width="42.05" height="40.96"/><rect class="cls-2" x="633.2" y="83.66" width="42.05" height="40.96"/><rect class="cls-1" x="44.36" y="43.31" width="42.05" height="40.96"/><rect class="cls-2" x="2.31" y="43.31" width="42.05" height="40.96"/><rect class="cls-1" x="2.31" y="2.66" width="42.05" height="40.96"/><rect class="cls-2" x="44.36" y="2.66" width="42.05" height="40.96"/><rect class="cls-1" x="129.2" y="43.31" width="42.05" height="40.96"/><rect class="cls-2" x="87.15" y="43.31" width="42.05" height="40.96"/><rect class="cls-1" x="87.15" y="2.66" width="42.05" height="40.96"/><rect class="cls-2" x="129.2" y="2.66" width="42.05" height="40.96"/><rect class="cls-1" x="44.36" y="125.31" width="42.05" height="40.96"/><rect class="cls-2" x="2.31" y="125.31" width="42.05" height="40.96"/><rect class="cls-1" x="2.31" y="84.66" width="42.05" height="40.96"/><rect class="cls-2" x="44.36" y="84.66" width="42.05" height="40.96"/><rect class="cls-1" x="129.2" y="125.31" width="42.05" height="40.96"/><rect class="cls-2" x="87.15" y="125.31" width="42.05" height="40.96"/><rect class="cls-1" x="87.15" y="84.66" width="42.05" height="40.96"/><rect class="cls-2" x="129.2" y="84.66" width="42.05" height="40.96"/><rect class="cls-1" x="211.36" y="43.31" width="42.05" height="40.96"/><rect class="cls-2" x="169.31" y="43.31" width="42.05" height="40.96"/><rect class="cls-1" x="169.31" y="2.66" width="42.05" height="40.96"/><rect class="cls-2" x="211.36" y="2.66" width="42.05" height="40.96"/><rect class="cls-1" x="296.2" y="43.31" width="42.05" height="40.96"/><rect class="cls-2" x="254.15" y="43.31" width="42.05" height="40.96"/><rect class="cls-1" x="254.15" y="2.66" width="42.05" height="40.96"/><rect class="cls-2" x="296.2" y="2.66" width="42.05" height="40.96"/><rect class="cls-1" x="211.36" y="125.31" width="42.05" height="40.96"/><rect class="cls-2" x="169.31" y="125.31" width="42.05" height="40.96"/><rect class="cls-1" x="169.31" y="84.66" width="42.05" height="40.96"/><rect class="cls-2" x="211.36" y="84.66" width="42.05" height="40.96"/><rect class="cls-1" x="296.2" y="125.31" width="42.05" height="40.96"/><rect class="cls-2" x="254.15" y="125.31" width="42.05" height="40.96"/><rect class="cls-1" x="254.15" y="84.66" width="42.05" height="40.96"/><rect class="cls-2" x="296.2" y="84.66" width="42.05" height="40.96"/><ellipse class="cls-3" cx="337.42" cy="84.98" rx="196.95" ry="59"/><text class="cls-4" transform="translate(140.19 104.94)">PRODUCT</text><text class="cls-5" transform="translate(140.19 104.94)">PRODUCT</text></svg>