<svg xmlns="http://www.w3.org/2000/svg" viewBox="0 0 578 667"><defs><style>.cls-1{fill:#121413;}.cls-2,.cls-3{fill:#625d5d;}.cls-3{stroke:#000;stroke-miterlimit:10;}.cls-4{fill:#636162;}.cls-5{fill:#bbb6b0;}.cls-6{fill:#837f7a;}.cls-7{fill:none;}</style></defs><title>電化-06</title><g id="圖層_5" data-name="圖層 5"><ellipse class="cls-1" cx="126.72" cy="203.4" rx="41.03" ry="33.15" transform="translate(-112.92 201.3) rotate(-57.57)"/><ellipse class="cls-1" cx="338.72" cy="99.4" rx="41.03" ry="33.15" transform="translate(-10.52 48.01) rotate(-7.98)"/><path class="cls-1" d="M154.29,173.48s7.34-16,24.34-21,38-9,62-25a133.16,133.16,0,0,0,17-16,58.49,58.49,0,0,1,25-17,47.47,47.47,0,0,1,15-3s79.36,16.79,80.68,14.39,14.32-18.39,2.32-36.39-49-18-61-16-46,2-65,11-39,13-64,29-59,39-72,55c0,0-26,26-30,42s-6,40,8,48,26.4,3.73,26.4,3.73Z"/><path class="cls-2" d="M112.63,236.44s-13-6-10-16,16-27,33-29,18,3,18,3,7,8,0,20l6-11s1-18-13-17-29,3-36,13-12,13-11,22S102.63,230.44,112.63,236.44Z"/><path class="cls-2" d="M375.76,106.88s3-14-6.8-17.6-31.2-3.41-43,9-8.41,16.2-8.41,16.2,2.2,10.4,16,12l-12.4-1.8s-15-10-5.79-20.61,19.8-21.39,32-21,17.61-1.79,24.2,4.41S377,95.28,375.76,106.88Z"/><path class="cls-3" d="M182.63,124.44l-38,27s-1,4,1,3S182.63,124.44,182.63,124.44Z"/><path class="cls-3" d="M205.63,110.44c3-1,32-17,39-19s40-14,42-14,2,4,2,4-30,6-36,9S205.63,110.44,205.63,110.44Z"/><path class="cls-1" d="M271.63,272.44s-10,4-12,13l-24,6s-12,5-16,17-14,38-14,38l-6,14-12,14-52,50s-6,9-6,20,6,50,6,50,5,18,23,17,184-28,184-28,33-10,42-30l64-78,6-6s-4-48-6-51-7-2-7-2,2-3,2-4-3-3-7-6-13-13-16-19-9-23-9-26-5-17-25-13Z"/><path class="cls-4" d="M259.63,285.44s84-17,85-17,10-2,13,7a28,28,0,0,0,1,6c1,4,2,8,6,6s18-13,18-13l9-6s2-2,2-4-2-6-1-10,.21-3.21,3.11-6.61c-.11-.39,1.68.22,1.68.22a2.38,2.38,0,0,0-1.79,2.39c0,2-1,3,0,8s1,7-1,10-19,14-19,14l-9,7s-7,3-9-3-1-14-5-15-6-1-12,0-52,9-52,9Z"/><path class="cls-4" d="M357.63,274.44c1,0,3,1,3,0s-2-3,0-4,9-3,10-2a3.1,3.1,0,0,1,1,2l21-5-1,3-19,4,1,6a2,2,0,0,1-2,2c-2,0-8,3-9,1a13.38,13.38,0,0,1-1-5h-3C357.63,276.44,357.63,274.44,357.63,274.44Z"/><path class="cls-4" d="M275.63,288.44s-38,7-51,36-16,53,14,59,62-11,72-20S350.63,286.44,275.63,288.44Z"/><path class="cls-1" d="M275.36,290.84s-36.1,6.65-48.45,34.2-15.2,50.35,13.3,56,58.9-10.45,68.4-19S346.61,288.94,275.36,290.84Z"/><path class="cls-5" d="M283.63,295.44s-11,8-6,13,14,0,14,0S301.63,293.44,283.63,295.44Z"/><path class="cls-5" d="M302.63,307.44s-11,8-6,13,14,0,14,0S320.63,305.44,302.63,307.44Z"/><path class="cls-5" d="M306.63,329.44s-11,8-6,13,14,0,14,0S324.63,327.44,306.63,329.44Z"/><path class="cls-5" d="M296.63,348.44s-11,8-6,13,14,0,14,0S314.63,346.44,296.63,348.44Z"/><path class="cls-5" d="M275.63,361.44s-11,8-6,13,14,0,14,0S293.63,359.44,275.63,361.44Z"/><path class="cls-5" d="M231.63,355.44s-11,8-6,13,14,0,14,0S249.63,353.44,231.63,355.44Z"/><path class="cls-5" d="M231.63,335.44s-11,8-6,13,14,0,14,0S249.63,333.44,231.63,335.44Z"/><path class="cls-5" d="M239.63,315.44s-11,8-6,13,14,0,14,0S257.63,313.44,239.63,315.44Z"/><path class="cls-5" d="M258.63,299.44s-11,8-6,13,14,0,14,0S276.63,297.44,258.63,299.44Z"/><path class="cls-5" d="M250.63,363.44s-11,8-6,13,14,0,14,0S268.63,361.44,250.63,363.44Z"/><path class="cls-6" d="M269.63,319.44s-25,10-20,30,33,4,36,0,12-18,2-24S269.63,319.44,269.63,319.44Z"/><path class="cls-4" d="M199.63,360.44c-1,3-22,34-22,34l-2-1Z"/><path class="cls-4" d="M190.63,403.44c1,0,118-20,118-20v4Z"/><path class="cls-4" d="M350.8,271a57.35,57.35,0,0,0-4.17,11.41c-1,5-8,36-8,37s-10,57-10,57l3,1,6-38,6-36,6-24,3-8Z"/><path class="cls-4" d="M418.63,299.44c-1,1-68,60-68,60s2,4,2,3S418.63,299.44,418.63,299.44Z"/><path class="cls-4" d="M435.63,321.44l-77,80s0,5,2,3S435.63,321.44,435.63,321.44Z"/><path class="cls-4" d="M135.63,443.44c1,0,200-32,200-32v4C335.63,416.44,135.63,443.44,135.63,443.44Z"/><rect class="cls-6" x="206.63" y="453.44" width="68" height="21" transform="translate(-66.5 41.08) rotate(-8.58)"/><path class="cls-7" d="M462.21,351a4.42,4.42,0,0,1-2.4-2.1l.15,2.25,1.64,4,3.73,1.55S464.08,351.72,462.21,351Z"/><path class="cls-1" d="M468.21,359.54c2.12-2,1.33-6.28-1.76-9.49s-7.3-4.17-9.41-2.14-1.32,6.27,1.76,9.49S466.1,361.57,468.21,359.54Zm-6.61-4.48-1.64-4-.15-2.25a4.42,4.42,0,0,0,2.4,2.1c1.87.77,3.12,5.66,3.12,5.66Z"/><path class="cls-1" d="M457.83,350.36s-8.66,5.33-7.14,10l-3.15.25s-1.08-11.9,11.3-14l1.09,3Z"/><path class="cls-7" d="M393.56,70.52a4.41,4.41,0,0,1-1,3l2-1,3-3v-4S393.56,68.5,393.56,70.52Z"/><path class="cls-1" d="M399.2,61.68c-2.69-1.17-6.31,1.19-8.09,5.27s-1.06,8.34,1.63,9.51,6.3-1.18,8.09-5.26S401.88,62.85,399.2,61.68Zm-1.61,7.83-3,3-2,1a4.41,4.41,0,0,0,1-3c0-2,4-5,4-5Z"/><polygon class="cls-1" points="384.23 76.63 391.1 74.78 392.63 76.44 393.76 76.63 385.16 80.11 384.23 76.63"/><path class="cls-1" d="M395.07,76.67s5.56,2.77,8.56-.23l2,3s-6.77,6-13.88-2l1.88-2Z"/><path class="cls-7" d="M405.1,71.52a4.41,4.41,0,0,1-1,3l2-1,3-3v-4S405.1,69.5,405.1,71.52Z"/><path class="cls-1" d="M410.73,62.68c-2.68-1.17-6.3,1.19-8.09,5.27s-1.05,8.34,1.63,9.51,6.31-1.18,8.09-5.26S413.42,63.85,410.73,62.68Zm-1.6,7.83-3,3-2,1a4.41,4.41,0,0,0,1-3c0-2,4-5,4-5Z"/><path class="cls-1" d="M406.61,77.67s5.56,2.77,8.56-.23l2,3s-6.77,6-13.89-2l1.89-2Z"/><path class="cls-7" d="M417.1,71.52a4.41,4.41,0,0,1-1,3l2-1,3-3v-4S417.1,69.5,417.1,71.52Z"/><path class="cls-1" d="M422.73,62.68c-2.68-1.17-6.3,1.19-8.09,5.27s-1.05,8.34,1.63,9.51,6.31-1.18,8.09-5.26S425.42,63.85,422.73,62.68Zm-1.6,7.83-3,3-2,1a4.41,4.41,0,0,0,1-3c0-2,4-5,4-5Z"/><path class="cls-1" d="M418.61,77.67s5.56,2.77,8.56-.23l2,3s-6.77,6-13.89-2l1.89-2Z"/><path class="cls-7" d="M429.1,74.52a4.41,4.41,0,0,1-1,3l2-1,3-3v-4S429.1,72.5,429.1,74.52Z"/><path class="cls-1" d="M434.73,65.68c-2.68-1.17-6.3,1.19-8.09,5.27s-1.05,8.34,1.63,9.51,6.31-1.18,8.09-5.26S437.42,66.85,434.73,65.68Zm-1.6,7.83-3,3-2,1a4.41,4.41,0,0,0,1-3c0-2,4-5,4-5Z"/><path class="cls-1" d="M430.61,80.67s5.56,2.77,8.56-.23l2,3s-6.77,6-13.89-2l1.89-2Z"/><path class="cls-7" d="M441.42,79.57a4.43,4.43,0,0,1-1.66,2.73l2.2-.54,3.62-2.27.91-3.93S441.88,77.61,441.42,79.57Z"/><path class="cls-1" d="M448.9,72.23c-2.35-1.75-6.41-.26-9.06,3.32s-2.9,7.89-.55,9.63,6.41.26,9.06-3.32S451.25,74,448.9,72.23Zm-3.32,7.26L442,81.76l-2.2.54a4.43,4.43,0,0,0,1.66-2.73c.46-2,5.07-4,5.07-4Z"/><path class="cls-1" d="M440.21,85.26s3.75,4.95,7.77,3.6l.46,3.57s-8.74,2.38-11.55-8l2.58-1Z"/><path class="cls-7" d="M450,89.14a4.44,4.44,0,0,1-2.21,2.3l2.25,0,4-1.44,1.73-3.64S450.88,87.32,450,89.14Z"/><path class="cls-1" d="M458.9,83.58c-1.92-2.21-6.2-1.64-9.57,1.29s-4.53,7.08-2.61,9.29,6.21,1.63,9.57-1.29S460.82,85.79,458.9,83.58ZM454.1,90l-4,1.44-2.25,0a4.44,4.44,0,0,0,2.21-2.3c.86-1.82,5.81-2.82,5.81-2.82Z"/><path class="cls-1" d="M447.61,94.43s2.59,5.64,6.81,5.19l-.32,3.59s-9.05.44-9.56-10.26l2.72-.38Z"/><path class="cls-7" d="M457.36,100.62A4.44,4.44,0,0,1,454.5,102l2.14.72h4.28l2.86-2.84S458.79,99.2,457.36,100.62Z"/><path class="cls-1" d="M467.6,98.4c-1.05-2.73-5.28-3.64-9.43-2s-6.67,5.12-5.61,7.85,5.28,3.64,9.44,2S468.66,101.13,467.6,98.4Zm-6.68,4.37h-4.28L454.5,102a4.44,4.44,0,0,0,2.86-1.42c1.43-1.42,6.42-.69,6.42-.69Z"/><path class="cls-1" d="M453.28,105.54s-2.18,6.13,1.45,8.77l-2.92,2.5s-7.39-6.08.17-14.58l2.42,1.65Z"/><path class="cls-7" d="M455,113.62a4.43,4.43,0,0,1-3.14.51l1.83,1.32,4.08,1.27,3.58-1.88S456.82,112.68,455,113.62Z"/><path class="cls-1" d="M465.48,114.5c-.21-2.92-4-5-8.43-4.71s-7.87,2.94-7.66,5.86,4,5,8.42,4.71S465.69,117.42,465.48,114.5Zm-7.68,2.22-4.08-1.27-1.83-1.32a4.43,4.43,0,0,0,3.14-.51c1.79-.94,6.35,1.22,6.35,1.22Z"/><path class="cls-1" d="M450.75,117.58s-2.44,6,1.08,8.83l-3,2.37s-7.12-6.4.8-14.56l2.34,1.75Z"/><path class="cls-7" d="M451.71,127a4.42,4.42,0,0,1-3-1l1,2,3,3h4S453.73,127,451.71,127Z"/><path class="cls-1" d="M460.57,132.56c1.16-2.68-1.21-6.3-5.3-8.07s-8.34-1-9.51,1.67,1.21,6.3,5.3,8.07S459.41,135.25,460.57,132.56ZM452.74,131l-3-3-1-2a4.42,4.42,0,0,0,3,1c2,0,5.06,4,5.06,4Z"/><path class="cls-1" d="M446.08,127.5s-4.94,4.22-3.11,8.33l-3.79.7s-3.36-9,7.43-12.54l1.27,2.62Z"/><path class="cls-7" d="M443.71,135a4.42,4.42,0,0,1-3-1l1,2,3,3h4S445.73,135,443.71,135Z"/><path class="cls-1" d="M452.57,140.56c1.16-2.68-1.21-6.3-5.3-8.07s-8.34-1-9.51,1.67,1.21,6.3,5.3,8.07S451.41,143.25,452.57,140.56ZM444.74,139l-3-3-1-2a4.42,4.42,0,0,0,3,1c2,0,5.06,4,5.06,4Z"/><path class="cls-1" d="M438.08,135.5s-4.94,4.22-3.11,8.33l-3.79.7s-3.36-9,7.43-12.54l1.27,2.62Z"/><path class="cls-7" d="M435.71,144a4.42,4.42,0,0,1-3-1l1,2,3,3h4S437.73,144,435.71,144Z"/><path class="cls-1" d="M444.57,149.56c1.16-2.68-1.21-6.3-5.3-8.07s-8.34-1-9.51,1.67,1.21,6.3,5.3,8.07S443.41,152.25,444.57,149.56ZM436.74,148l-3-3-1-2a4.42,4.42,0,0,0,3,1c2,0,5.06,4,5.06,4Z"/><path class="cls-1" d="M430.08,144.5s-4.94,4.22-3.11,8.33l-3.79.7s-3.36-9,7.43-12.54l1.27,2.62Z"/><path class="cls-7" d="M429.71,154a4.42,4.42,0,0,1-3-1l1,2,3,3h4S431.73,154,429.71,154Z"/><path class="cls-1" d="M438.57,159.56c1.16-2.68-1.21-6.3-5.3-8.07s-8.34-1-9.51,1.67,1.21,6.3,5.3,8.07S437.41,162.25,438.57,159.56ZM430.74,158l-3-3-1-2a4.42,4.42,0,0,0,3,1c2,0,5.06,4,5.06,4Z"/><path class="cls-1" d="M424.08,154.5s-4.94,4.22-3.11,8.33l-3.79.7s-3.36-9,7.43-12.54l1.27,2.62Z"/><path class="cls-7" d="M424.71,165a4.42,4.42,0,0,1-3-1l1,2,3,3h4S426.73,165,424.71,165Z"/><path class="cls-1" d="M433.57,170.56c1.16-2.68-1.21-6.3-5.3-8.07s-8.34-1-9.51,1.67,1.21,6.3,5.3,8.07S432.41,173.25,433.57,170.56ZM425.74,169l-3-3-1-2a4.42,4.42,0,0,0,3,1c2,0,5.06,4,5.06,4Z"/><path class="cls-1" d="M419.08,165.5s-2.77,7.33-.95,11.44l-3,2s-6.31-13.37,4.48-16.95l1.27,2.62Z"/><path class="cls-7" d="M423,189.69a4.42,4.42,0,0,1-2.19,2.32l2.26-.07,4-1.47,1.7-3.67S423.8,187.86,423,189.69Z"/><path class="cls-1" d="M431.78,184c-1.94-2.19-6.22-1.57-9.55,1.39s-4.46,7.13-2.52,9.32,6.23,1.57,9.56-1.39S433.73,186.23,431.78,184ZM427,190.47l-4,1.47-2.26.07a4.42,4.42,0,0,0,2.19-2.32c.84-1.83,5.78-2.89,5.78-2.89Z"/><path class="cls-1" d="M422.47,194.9s2.17,5.95,6.66,6l1,4s-11.94-.7-10.62-12l2.92,0Z"/><path class="cls-7" d="M447.51,206.06a4.42,4.42,0,0,1-1.89,2.57l2.23-.34,3.81-1.94,1.24-3.84S448.13,204.14,447.51,206.06Z"/><path class="cls-1" d="M455.6,199.39c-2.19-1.94-6.37-.81-9.32,2.52s-3.58,7.61-1.39,9.55,6.37.82,9.32-2.51S457.79,201.34,455.6,199.39Zm-3.94,7-3.81,1.94-2.23.34a4.42,4.42,0,0,0,1.89-2.57c.62-1.92,5.39-3.55,5.39-3.55Z"/><path class="cls-1" d="M446.73,211.8s5.18,4.68,9.4,3.14l-.87,4.37s-9.17,2.74-12-8.27L446,210Z"/><path class="cls-7" d="M458.29,211.26A4.43,4.43,0,0,1,456.6,214l2.2-.51,3.65-2.22,1-3.93S458.77,209.3,458.29,211.26Z"/><path class="cls-1" d="M465.86,204c-2.33-1.77-6.41-.34-9.11,3.21s-3,7.85-.66,9.63,6.41.33,9.1-3.21S468.19,205.78,465.86,204Zm-3.41,7.23-3.65,2.22-2.2.51a4.43,4.43,0,0,0,1.69-2.71c.48-2,5.12-3.95,5.12-3.95Z"/><path class="cls-1" d="M458.79,217.91s4.08,5.74,8.68,3.92l.39,4.26s-10,3.27-12.8-9l2.95-1.27Z"/><path class="cls-7" d="M470.29,217.26A4.43,4.43,0,0,1,468.6,220l2.2-.51,3.65-2.22,1-3.93S470.77,215.3,470.29,217.26Z"/><path class="cls-1" d="M477.86,210c-2.33-1.77-6.41-.34-9.11,3.21s-3,7.85-.66,9.63,6.41.33,9.1-3.21S480.19,211.78,477.86,210Zm-3.41,7.23-3.65,2.22-2.2.51a4.43,4.43,0,0,0,1.69-2.71c.48-2,5.12-3.95,5.12-3.95Z"/><path class="cls-1" d="M469.17,222.92s6.52,2.64,9.42-1.37l2.62,3.38s-6.64,8.12-15.61-.66l1.81-2.66Z"/><path class="cls-7" d="M483.17,220.54a4.38,4.38,0,0,1-1.45,2.84l2.15-.69,3.44-2.54.61-4S483.47,218.55,483.17,220.54Z"/><path class="cls-1" d="M490.07,212.65c-2.48-1.56-6.41.23-8.79,4s-2.29,8.09.19,9.65,6.41-.23,8.78-4S492.55,214.21,490.07,212.65Zm-2.76,7.5-3.44,2.54-2.15.69a4.38,4.38,0,0,0,1.45-2.84c.3-2,4.75-4.38,4.75-4.38Z"/><path class="cls-1" d="M480.68,224.42s7.25,7.13,11.45,4.52l1,3s-11.29,3.9-16.27-7.62l2.68-1.78Z"/><path class="cls-7" d="M496.17,226.54a4.38,4.38,0,0,1-1.45,2.84l2.15-.69,3.44-2.54.61-4S496.47,224.55,496.17,226.54Z"/><path class="cls-1" d="M503.07,218.65c-2.48-1.56-6.41.23-8.79,4s-2.29,8.09.19,9.65,6.41-.23,8.78-4S505.55,220.21,503.07,218.65Zm-2.76,7.5-3.44,2.54-2.15.69a4.38,4.38,0,0,0,1.45-2.84c.3-2,4.75-4.38,4.75-4.38Z"/><path class="cls-1" d="M493.68,229.42s7.25,7.13,11.45,4.52l1,3s-11.29,3.9-16.27-7.62l2.68-1.78Z"/><path class="cls-7" d="M507.25,231.44a4.45,4.45,0,0,1-1.61,2.76l2.18-.58,3.58-2.34.83-3.95S507.66,229.47,507.25,231.44Z"/><path class="cls-1" d="M514.58,224c-2.39-1.7-6.41-.13-9,3.5s-2.75,7.94-.36,9.64,6.41.14,9-3.49S517,225.65,514.58,224Zm-3.18,7.33-3.58,2.34-2.18.58a4.45,4.45,0,0,0,1.61-2.76c.41-2,5-4.11,5-4.11Z"/><path class="cls-1" d="M505.59,236.17s6.84,7.53,11.18,5.16l.83,3s-11.49,3.26-15.81-8.52l2.78-1.63Z"/><path class="cls-7" d="M517.51,239.22a4.4,4.4,0,0,1-1.87,2.58l2.23-.36,3.79-2,1.21-3.85S518.12,237.29,517.51,239.22Z"/><path class="cls-1" d="M525.54,232.48c-2.21-1.93-6.37-.76-9.3,2.6s-3.51,7.64-1.3,9.56,6.37.76,9.3-2.6S527.75,234.4,525.54,232.48Zm-3.88,7-3.79,2-2.23.36a4.4,4.4,0,0,0,1.87-2.58c.61-1.93,5.36-3.61,5.36-3.61Z"/><path class="cls-1" d="M515.41,243.76s6.07,8.16,10.62,6.23l.53,3.11s-11.76,2.13-14.91-10l2.92-1.35Z"/><path class="cls-7" d="M526.07,249a4.43,4.43,0,0,1-2.28,2.23l2.26,0,4.07-1.32,1.83-3.59S527,247.17,526.07,249Z"/><path class="cls-1" d="M535.11,243.66c-1.86-2.26-6.16-1.81-9.6,1s-4.74,7-2.88,9.22,6.15,1.81,9.6-1S537,245.93,535.11,243.66Zm-5,6.24-4.07,1.32-2.26,0a4.43,4.43,0,0,0,2.28-2.23c.91-1.8,5.88-2.66,5.88-2.66Z"/><path class="cls-1" d="M523.23,253.1s4.63,9.06,9.44,7.91v3.16s-11.95.13-13-12.37l3.11-.85Z"/><path class="cls-7" d="M532.07,259a4.43,4.43,0,0,1-2.28,2.23l2.26,0,4.07-1.32,1.83-3.59S533,257.17,532.07,259Z"/><path class="cls-1" d="M541.11,253.66c-1.86-2.26-6.16-1.81-9.6,1s-4.74,7-2.88,9.22,6.15,1.81,9.6-1S543,255.93,541.11,253.66Zm-5,6.24-4.07,1.32-2.26,0a4.43,4.43,0,0,0,2.28-2.23c.91-1.8,5.88-2.66,5.88-2.66Z"/><path class="cls-1" d="M529.23,263.1s4.63,9.06,9.44,7.91v3.16s-11.95.13-13-12.37l3.11-.85Z"/><path class="cls-7" d="M536.41,269.67a4.45,4.45,0,0,1-3.08.8l1.94,1.14,4.18.9,3.39-2.2S538.11,268.57,536.41,269.67Z"/><path class="cls-1" d="M546.89,269.6c-.47-2.89-4.42-4.65-8.81-3.93s-7.58,3.65-7.1,6.54,4.42,4.65,8.81,3.92S547.37,272.49,546.89,269.6Zm-7.44,2.91-4.18-.9-1.94-1.14a4.45,4.45,0,0,0,3.08-.8c1.7-1.1,6.43.64,6.43.64Z"/><path class="cls-1" d="M531.9,271.82s-.53,10.16,4.21,11.58l-1.59,2.73s-10.41-5.86-5.08-17.22l3.11.82Z"/><path class="cls-7" d="M536.4,282.9a4.45,4.45,0,0,1-3.11-.73l1.19,1.92,3.29,2.74,4-.36S538.41,282.72,536.4,282.9Z"/><path class="cls-1" d="M545.71,287.72c.92-2.78-1.75-6.17-6-7.58s-8.4-.3-9.33,2.48,1.75,6.17,6,7.58S544.78,290.5,545.71,287.72Zm-7.94-.89-3.29-2.74-1.19-1.92a4.45,4.45,0,0,0,3.11.73c2-.18,5.38,3.57,5.38,3.57Z"/><path class="cls-1" d="M531.39,282.71s-5.19,8.74-1.66,12.2l-2.68,1.68s-6.48-10,3.53-17.61l2.37,2.17Z"/><path class="cls-7" d="M531,294.07a4.41,4.41,0,0,1-3-1.14L529,295l2.89,3.16,4,.17S533.05,294.16,531,294.07Z"/><path class="cls-1" d="M539.62,300.08c1.29-2.63-.91-6.35-4.92-8.31s-8.28-1.41-9.57,1.23.92,6.35,4.92,8.3S538.34,302.71,539.62,300.08Zm-7.75-1.93L529,295l-.93-2.06a4.41,4.41,0,0,0,3,1.14c2,.09,4.86,4.25,4.86,4.25Z"/><path class="cls-1" d="M526.1,293.22s-6.31,8-3.26,11.87L520,306.41s-5.09-10.81,5.83-17l2.06,2.47Z"/><path class="cls-7" d="M524.12,305.75a4.41,4.41,0,0,1-2.49-2l.25,2.24,1.8,3.88,3.79,1.39S526,306.45,524.12,305.75Z"/><path class="cls-1" d="M530.48,314.09c2-2.12,1.06-6.33-2.16-9.41s-7.47-3.86-9.5-1.74-1.05,6.32,2.17,9.4S528.46,316.2,530.48,314.09Zm-6.8-4.2-1.8-3.88-.25-2.24a4.41,4.41,0,0,0,2.49,2c1.9.7,3.35,5.53,3.35,5.53Z"/><path class="cls-1" d="M517.68,304.44s-8.43,5.69-6.71,10.32l-3.14.39s-1.58-11.85,10.7-14.43l1.22,3Z"/><path class="cls-7" d="M514.21,314a4.42,4.42,0,0,1-2.4-2.1l.15,2.25,1.64,4,3.73,1.55S516.08,314.72,514.21,314Z"/><path class="cls-1" d="M520.21,322.54c2.12-2,1.33-6.28-1.76-9.49s-7.3-4.17-9.41-2.14-1.32,6.27,1.76,9.49S518.1,324.57,520.21,322.54Zm-6.61-4.48-1.64-4-.15-2.25a4.42,4.42,0,0,0,2.4,2.1c1.87.77,3.12,5.66,3.12,5.66Z"/><path class="cls-1" d="M507.83,312.36s-8.66,5.33-7.14,10l-3.15.25s-1.08-11.9,11.3-14l1.09,3Z"/><path class="cls-7" d="M503.21,322a4.42,4.42,0,0,1-2.4-2.1l.15,2.25,1.64,4,3.73,1.55S505.08,322.72,503.21,322Z"/><path class="cls-1" d="M509.21,330.54c2.12-2,1.33-6.28-1.76-9.49s-7.3-4.17-9.41-2.14-1.32,6.27,1.76,9.49S507.1,332.57,509.21,330.54Zm-6.61-4.48-1.64-4-.15-2.25a4.42,4.42,0,0,0,2.4,2.1c1.87.77,3.12,5.66,3.12,5.66Z"/><path class="cls-1" d="M498.17,319.89s-9.2,4.33-8.2,9.18l-3.16-.1s.24-12,12.77-12.63l.75,3.13Z"/><path class="cls-7" d="M493.21,329a4.42,4.42,0,0,1-2.4-2.1l.15,2.25,1.64,4,3.73,1.55S495.08,329.72,493.21,329Z"/><path class="cls-1" d="M499.21,337.54c2.12-2,1.33-6.28-1.76-9.49s-7.3-4.17-9.41-2.14-1.32,6.27,1.76,9.49S497.1,339.57,499.21,337.54Zm-6.61-4.48-1.64-4-.15-2.25a4.42,4.42,0,0,0,2.4,2.1c1.87.77,3.12,5.66,3.12,5.66Z"/><path class="cls-1" d="M486.83,327.36s-8.66,5.33-7.14,10l-3.15.25s-1.08-11.9,11.3-14l1.09,3Z"/><path class="cls-7" d="M483.21,335a4.42,4.42,0,0,1-2.4-2.1l.15,2.25,1.64,4,3.73,1.55S485.08,335.72,483.21,335Z"/><path class="cls-1" d="M489.21,343.54c2.12-2,1.33-6.28-1.76-9.49s-7.3-4.17-9.41-2.14-1.32,6.27,1.76,9.49S487.1,345.57,489.21,343.54Zm-6.61-4.48-1.64-4-.15-2.25a4.42,4.42,0,0,0,2.4,2.1c1.87.77,3.12,5.66,3.12,5.66Z"/><path class="cls-1" d="M477.83,333.36s-8.66,5.33-7.14,10l-3.15.25s-1.08-11.9,11.3-14l1.09,3Z"/><path class="cls-7" d="M471.21,342a4.42,4.42,0,0,1-2.4-2.1l.15,2.25,1.64,4,3.73,1.55S473.08,342.72,471.21,342Z"/><path class="cls-1" d="M477.21,350.54c2.12-2,1.33-6.28-1.76-9.49s-7.3-4.17-9.41-2.14-1.32,6.27,1.76,9.49S475.1,352.57,477.21,350.54Zm-6.61-4.48-1.64-4-.15-2.25a4.42,4.42,0,0,0,2.4,2.1c1.87.77,3.12,5.66,3.12,5.66Z"/><path class="cls-1" d="M466.83,341.36s-8.66,5.33-7.14,10l-3.15.25s-1.08-11.9,11.3-14l1.09,3Z"/><path class="cls-7" d="M422.83,175.56a4.41,4.41,0,0,1-3.18-.16l1.51,1.67,3.73,2.1,3.88-1.08S424.78,175,422.83,175.56Z"/><path class="cls-1" d="M432.86,178.62c.41-2.9-2.83-5.76-7.24-6.38s-8.32,1.22-8.74,4.12,2.83,5.75,7.25,6.38S432.45,181.52,432.86,178.62Zm-8,.55-3.73-2.1-1.51-1.67a4.41,4.41,0,0,0,3.18.16c1.95-.54,5.94,2.53,5.94,2.53Z"/><path class="cls-1" d="M418.55,178.56s-1.26,6.9,1.58,10.38l-4,3s-7.47-10.6,2-16.9l1.92,2.2Z"/><path class="cls-1" d="M416.13,191.94s3.17,3.6,3.58,2.8.42-4.8.42-4.8v-1Z"/><path class="cls-7" d="M433,199.69a4.42,4.42,0,0,1-2.19,2.32l2.26-.07,4-1.47,1.7-3.67S433.8,197.86,433,199.69Z"/><path class="cls-1" d="M441.78,194c-1.94-2.19-6.22-1.57-9.55,1.39s-4.46,7.13-2.52,9.32,6.23,1.57,9.56-1.39S443.73,196.23,441.78,194ZM437,200.47l-4,1.47-2.26.07a4.42,4.42,0,0,0,2.19-2.32c.84-1.83,5.78-2.89,5.78-2.89Z"/><path class="cls-1" d="M431.5,205.3s3.22,5.64,7.59,4.62l0,3.85s-9.43,1.62-10.93-9.65l2.82-.76Z"/><polygon class="cls-1" points="438.13 209.94 445.13 209.94 445.13 212.94 444.09 213.85 438.13 213.94 438.13 209.94"/><ellipse class="cls-1" cx="292.13" cy="580.44" rx="148" ry="30.5"/></g></svg>