<svg width="863" height="449" viewBox="0 0 863 449" fill="none" xmlns="http://www.w3.org/2000/svg">
<path d="M14.7697 409C14.7697 419.317 8.64196 428.548 0 428.548C8.64196 428.548 14.7697 437.779 14.7697 448.096C14.7697 437.779 20.8974 428.548 29.5393 428.548C20.8974 428.548 14.7697 419.317 14.7697 409Z" fill="black"/>
<path d="M764.236 20C764.236 39.7179 752.521 57.3586 736 57.3586C752.521 57.3586 764.236 75.0005 764.236 94.7172C764.236 75.0005 775.951 57.3586 792.472 57.3586C775.951 57.3586 764.236 39.7179 764.236 20Z" fill="black"/>
<rect x="81.8301" y="58.3408" width="779.877" height="361.847" rx="46" stroke="black" stroke-width="2"/>
<rect x="34" y="73.2925" width="806.782" height="361.847" rx="46" stroke="black" stroke-width="2"/>
<line x1="523.983" y1="237.832" x2="596.029" y2="236.176" stroke="black" stroke-width="3"/>
<line x1="594.564" y1="237.689" x2="593.735" y2="146.596" stroke="black" stroke-width="3"/>
<circle cx="595.028" cy="142.649" r="2.84762" stroke="black" stroke-width="3"/>
<line x1="553.181" y1="360.081" x2="609.079" y2="360.081" stroke="black" stroke-width="3"/>
<circle cx="613.426" cy="360.959" r="2.84762" stroke="black" stroke-width="3"/>
<line y1="-1.5" x2="55.898" y2="-1.5" transform="matrix(-1 0 0 1 274.979 207.294)" stroke="black" stroke-width="3"/>
<circle cx="4.34762" cy="4.34762" r="2.84762" transform="matrix(-1 0 0 1 219.082 202.326)" stroke="black" stroke-width="3"/>
<path d="M385.215 260.593L351.694 232.18L347.825 236.203L383.641 267.024L385.215 260.593Z" fill="black"/>
<path d="M342.098 271.512C342.098 271.512 340.739 268.073 340.843 267.566C340.946 267.058 338.203 267.23 336.922 267.566C335.641 267.901 336.063 267.944 336.063 267.944C336.063 267.944 336.32 268.752 335.658 267.867C334.997 266.981 331.859 259.811 331.859 259.811L330.578 260.164C330.578 260.164 331.558 266.732 331.532 267.677C331.506 268.623 331.343 268.812 330.036 269.474C328.925 270.08 327.846 270.743 326.803 271.46L328.067 276.068C328.067 276.068 327.801 275.209 326.872 276.163C326.406 276.578 326.021 277.077 325.737 277.633L337.773 318.65C337.773 318.65 339.166 320.155 343.31 319.51C347.454 318.865 348.606 319.175 351.194 317.344C352.72 316.265 354.157 315.066 355.492 313.759L344.901 272.337C344.558 271.974 344.113 271.723 343.625 271.619C343.136 271.514 342.628 271.561 342.167 271.753" fill="black"/>
<path d="M538.357 366.846C538.357 366.846 537.816 363.184 538.03 362.728C538.245 362.273 535.537 361.791 534.213 361.8C532.889 361.808 533.276 361.963 533.276 361.963C533.276 361.963 533.336 362.823 532.898 361.8C532.459 360.777 531.024 353.091 531.024 353.091L529.7 353.142C529.7 353.142 529.167 359.762 528.917 360.674C528.668 361.585 528.479 361.74 527.06 362.084C525.839 362.419 524.636 362.821 523.458 363.287L523.639 368.059C523.639 368.059 523.57 367.199 522.452 367.878C521.908 368.179 521.421 368.575 521.017 369.047L523.415 411.758C523.415 411.758 524.438 413.546 528.617 413.882C532.795 414.217 533.844 414.742 536.775 413.564C538.514 412.864 540.193 412.025 541.796 411.053L540.936 368.308C540.686 367.876 540.31 367.531 539.858 367.319C539.406 367.107 538.901 367.038 538.409 367.121" fill="black"/>
<path d="M391.405 232.61C396.658 236.719 394.216 234.604 404.937 240.442C415.898 246.408 431.158 248.643 440.237 250.449C449.453 252.28 458.773 254.644 458.773 254.644L445.67 254.429C432.843 254.249 421.977 255.831 403.544 250.595C385.748 245.54 382.421 243.717 381.974 237.226C381.527 230.735 386.178 228.509 386.178 228.509L391.405 232.61Z" fill="black"/>
<path d="M497.803 253.75C497.803 253.75 502.738 255.736 498.482 263.396C494.226 271.056 483.781 269.689 478.046 268.245C472.312 266.801 467.369 263.946 449.194 258.1L432.189 252.607L431.596 252.417L444.577 253.845C454.077 254.876 465.744 257.369 474.513 257.069C483.282 256.768 497.803 253.75 497.803 253.75Z" fill="black"/>
<path d="M384.681 241.859C384.681 241.859 377.537 247.697 379.833 252.013C382.128 256.329 387.57 256.509 396.563 259.355C405.745 262.252 451.172 273.798 462.538 274.744C474.118 275.707 486.687 276.867 493.144 276.317C499.6 275.767 501.234 272.018 499.42 268.777C497.606 265.536 471.049 263.696 457.964 260.18C445.171 256.741 440.022 255.434 429.662 254.936C418.005 254.359 406.552 251.646 395.875 246.932L384.681 241.859Z" fill="black"/>
<path d="M486.765 290.107L486.103 274.968L380.185 254.988L376.17 260.481L487.22 291.861" fill="black"/>
<path d="M373.935 286.763C373.935 286.763 369.756 301.284 389.332 311.171C405.041 319.184 421.969 324.541 439.428 327.024C451.645 328.743 461.781 329.603 473.645 326.482C488.94 322.502 493.909 315.117 493.909 315.117" fill="black"/>
<path d="M504.5 295.696C510.673 297.527 511.094 300.991 510.595 305.075C510.097 309.159 509.847 312.813 501.886 314.231C493.925 315.65 492.18 315.392 486.643 313.44C481.107 311.489 484.975 312.503 478.45 315.813C471.925 319.123 473.61 320.043 465.047 318.977C456.484 317.911 457.249 312.546 450.965 314.429C444.68 316.312 444.405 317.189 437.631 315.693C430.856 314.197 431.062 306.038 425.784 307.267C420.505 308.497 419.456 309.159 410.524 306.958C401.729 304.791 401.737 298.361 395.504 298.051C389.271 297.742 390.045 298.799 382.961 296.332C375.877 293.864 378.37 289.265 375.395 289.54C372.421 289.815 365.534 288.895 363.282 287.322C361.029 285.749 362.585 283.883 363.523 282.611C364.46 281.338 363.523 278.699 361.803 274.46C360.084 270.222 361.666 269.663 364.167 268.038C366.669 266.413 373.126 268.176 373.126 268.176L497.416 293.976" fill="black"/>
<path d="M379.325 250.44C379.325 250.44 387.424 259.312 397.251 263.336C407.258 267.462 421.426 270.214 433.961 273.18C446.788 276.232 458.368 277.667 466.802 279.129C475.236 280.59 479.036 280.848 482.612 281.656C486.189 282.465 484.53 282.628 490.126 281.184L495.766 279.731C495.766 279.731 499.944 281.889 500.924 289.188C500.924 289.188 501.2 297.063 499.205 297.785C497.21 298.507 495.147 299.203 492.551 297.836C489.954 296.469 492.723 295.962 488.252 296.977C483.782 297.991 477.935 295.008 475.786 293.89C473.637 292.773 472.296 293.443 468.625 294.002C464.954 294.561 466.544 293.349 463.578 292.747C460.612 292.145 461.773 292.3 456.142 294.208C450.51 296.117 449.694 297.467 445.455 293.753C441.217 290.039 442.111 290.022 438.577 290.176C435.044 290.331 435.525 291.363 431.562 288.93C427.599 286.497 428.261 286.806 423.532 287.038C418.804 287.27 418.546 288.758 414.703 286.342C410.86 283.926 411.092 283.642 406.553 283.006C402.013 282.37 400.767 284.726 397.182 281.768C393.597 278.811 392.754 272.518 388.507 273.094C384.26 273.67 384.974 277.057 381.045 273.343C377.116 269.629 375.242 266.861 375.947 261.754C376.652 256.647 379.325 250.44 379.325 250.44Z" fill="black"/>
<path d="M393.244 284.528L397.156 286.403L401.05 287.658L399.657 289.455L396.124 288.148L392.797 286.893L393.244 284.528Z" fill="black"/>
<path d="M455.985 300.407L460.602 301.748L465.038 302.41L464.075 304.646L460.009 303.855L456.174 303.09L455.985 300.407Z" fill="black"/>
<path d="M455.918 305.281L460.543 306.648L464.979 307.328L464.025 309.572L459.95 308.755L456.107 307.981L455.918 305.281Z" fill="black"/>
<path d="M493.968 300.347L499.659 301.104L504.869 301.009L504.757 304.096L499.891 303.932L495.309 303.76L493.968 300.347Z" fill="black"/>
<path d="M493.28 305.574L498.972 306.347L504.182 306.279L504.07 309.365L499.204 309.185L494.621 308.995L493.28 305.574Z" fill="black"/>
<path d="M391.576 288.723L394.92 290.572L398.282 291.887L396.906 293.297L393.871 291.956L391 290.675L391.576 288.723Z" fill="black"/>
<path d="M431.992 191.179C466.75 194.137 498.5 209.044 507.08 230.237C515.875 251.945 508.034 264.187 460.147 254.902C415.872 246.305 404.523 245.591 387.621 236.246C380.013 232.042 381.878 221.631 389.169 211.873C397.757 200.421 414.092 189.658 431.992 191.179Z" fill="black"/>
<path d="M410.446 212.836C410.36 213.231 409.638 213.42 408.83 213.274C408.022 213.128 407.428 212.672 407.506 212.285C407.583 211.899 408.314 211.701 409.122 211.847C409.93 211.993 410.523 212.44 410.446 212.836Z" fill="black"/>
<path d="M430.737 216.661C430.651 217.065 429.877 217.254 429.06 217.1C428.244 216.945 427.607 216.489 427.693 216.085C427.779 215.681 428.553 215.492 429.361 215.655C430.169 215.819 430.814 216.266 430.737 216.661Z" fill="black"/>
<path d="M416.543 226.54C416.457 226.935 415.683 227.125 414.901 226.961C414.119 226.798 413.482 226.342 413.568 225.947C413.654 225.551 414.376 225.362 415.202 225.526C416.027 225.689 416.603 226.145 416.543 226.54Z" fill="black"/>
<path d="M437.105 203.285C437.028 203.68 436.245 203.886 435.386 203.732C434.526 203.577 433.924 203.138 434.01 202.743C434.096 202.347 434.87 202.141 435.73 202.287C436.589 202.433 437.234 202.846 437.105 203.285Z" fill="black"/>
<path d="M462.391 211.572C462.305 211.976 461.532 212.183 460.629 212.019C459.726 211.856 459.099 211.4 459.185 210.996C459.271 210.592 460.044 210.386 460.904 210.541C461.764 210.695 462.477 211.16 462.391 211.572Z" fill="black"/>
<path d="M463.138 222.775C463.052 223.187 462.278 223.385 461.376 223.213C460.473 223.041 459.837 222.577 459.923 222.164C460.009 221.751 460.783 221.554 461.642 221.726C462.502 221.898 463.224 222.362 463.138 222.775Z" fill="black"/>
<path d="M495.861 230.537C495.775 230.959 494.941 231.156 494.004 230.976C493.067 230.795 492.37 230.314 492.456 229.884C492.542 229.454 493.376 229.265 494.313 229.446C495.25 229.626 495.947 230.108 495.861 230.537Z" fill="black"/>
<path d="M475.185 240.734C475.099 241.155 474.325 241.344 473.38 241.164C472.434 240.983 471.798 240.493 471.884 240.072C471.97 239.651 472.743 239.461 473.689 239.651C474.635 239.84 475.271 240.321 475.185 240.734Z" fill="black"/>
<path d="M442.703 228.706C442.617 229.11 441.843 229.299 440.983 229.136C440.124 228.973 439.496 228.5 439.582 228.096C439.668 227.692 440.442 227.494 441.302 227.666C442.161 227.838 442.789 228.302 442.703 228.706Z" fill="black"/>
<path d="M395.41 225.371C395.333 225.758 394.619 225.947 393.829 225.783C393.038 225.62 392.462 225.181 392.548 224.795C392.634 224.408 393.339 224.219 394.129 224.373C394.92 224.528 395.496 224.984 395.41 225.371Z" fill="black"/>
<path d="M483.661 213.025C483.575 213.446 482.759 213.652 481.839 213.489C480.919 213.326 480.257 212.853 480.334 212.44C480.412 212.027 481.237 211.812 482.148 211.976C483.06 212.139 483.739 212.612 483.661 213.025Z" fill="black"/>
<path d="M459.477 257.73C459.214 259.157 458.667 260.517 457.87 261.729C457.072 262.941 456.04 263.982 454.834 264.788C453.628 265.595 452.273 266.153 450.848 266.427C449.423 266.702 447.958 266.688 446.539 266.388C443.71 265.682 441.27 263.899 439.738 261.419C438.206 258.939 437.703 255.959 438.337 253.114C438.601 251.706 439.141 250.364 439.924 249.165C440.708 247.966 441.721 246.934 442.905 246.127C444.088 245.32 445.42 244.755 446.822 244.464C448.225 244.173 449.671 244.161 451.078 244.43C453.948 245.093 456.441 246.862 458.014 249.352C459.587 251.843 460.113 254.854 459.477 257.73Z" fill="black"/>
<path d="M457.533 257.946C457.317 259.084 456.875 260.168 456.235 261.133C455.594 262.098 454.766 262.925 453.801 263.566C452.836 264.207 451.752 264.648 450.614 264.864C449.476 265.08 448.306 265.066 447.173 264.824C444.903 264.258 442.943 262.828 441.713 260.838C440.483 258.848 440.079 256.455 440.588 254.172C440.798 253.041 441.23 251.964 441.86 251.002C442.489 250.04 443.303 249.212 444.255 248.567C445.206 247.922 446.276 247.472 447.403 247.243C448.53 247.014 449.691 247.011 450.819 247.234C453.127 247.768 455.129 249.196 456.388 251.203C457.646 253.211 458.058 255.635 457.533 257.946Z" fill="black"/>
<path d="M427.452 251.687C426.205 257.636 420.66 261.427 415.123 260.155C409.587 258.883 406.217 253.148 407.446 247.259C408.675 241.37 414.092 237.613 419.594 238.765C425.096 239.917 428.69 245.737 427.452 251.687Z" fill="black"/>
<path d="M425.551 251.85C424.562 256.613 420.126 259.648 415.681 258.625C411.236 257.602 408.528 252.993 409.517 248.308C410.505 243.622 414.856 240.57 419.266 241.516C423.676 242.462 426.548 247.087 425.551 251.85Z" fill="black"/>
<path d="M506.555 222.336C506.555 222.336 520.233 209.509 506.744 195.272C493.255 181.035 483.531 193.501 483.531 193.501L484.959 195.289C483.042 194.357 481.056 193.575 479.018 192.95C461.591 187.569 445.583 179.023 428.724 181.576L433.573 179.289C433.573 179.289 430.323 163.814 411.951 170.692C393.579 177.57 400.207 195.083 400.207 195.083L406.397 192.16C401.452 196.295 396.959 200.944 392.994 206.027C393.929 207.157 395.22 207.937 396.655 208.237C398.091 208.537 399.586 208.339 400.895 207.677C405.864 205.442 408.357 204.729 409.114 207.144C409.87 209.56 413.473 217.461 416.722 215.742C419.972 214.022 420.101 208.701 424.744 210.927C429.386 213.154 431.424 217.427 434.57 219.696C437.717 221.966 441.749 217.702 444.603 217.255C447.458 216.808 445.901 217.487 451.481 222.482C457.061 227.477 459.674 232.111 463.517 227.795C467.36 223.479 468.882 220.238 471.53 224.098C474.178 227.958 472.63 230.116 478.812 230.976C484.993 231.836 485.088 229.128 488.097 227.537C491.106 225.947 492.619 226.445 495.834 230.555C499.049 234.664 500.287 236.573 504.517 235.765L508.739 234.956C508.521 230.677 507.788 226.439 506.555 222.336Z" fill="black"/>
<path d="M407.326 196.535C407.326 196.535 400.749 198.332 401.48 200.765C402.21 203.198 411.083 200.713 411.083 200.713C411.083 200.713 411.624 206.061 414.135 208.657C416.645 211.254 419.783 205.76 421.872 206.026C423.961 206.293 432.55 213.403 435.482 214.417C438.413 215.432 447.81 212.225 447.81 212.225C447.81 212.225 451.601 219.834 455.694 221.476C459.786 223.118 470.094 218.037 470.094 218.037C470.094 218.037 476.224 227.623 479.757 228.104C483.291 228.586 491.209 222.439 491.209 222.439C491.209 222.439 495.989 229.187 500.081 231.208C502.996 232.489 506.139 233.168 509.323 233.202" fill="black"/>
<g opacity="0.63">
<path d="M439.231 190.81C439.231 190.81 437.89 185.29 433.746 185.024C429.602 184.757 433.952 200.722 433.952 200.722L439.231 190.81Z" fill="black"/>
<path d="M438.509 190.414C438.509 190.414 443.787 188.299 446.41 191.532C449.032 194.764 433.514 200.455 433.514 200.455L438.509 190.414Z" fill="black"/>
</g>
<g opacity="0.63">
<path d="M492.801 196.372C492.801 196.372 487.127 195.994 485.622 199.863C484.118 203.732 500.659 204.394 500.659 204.394L492.801 196.372Z" fill="black"/>
<path d="M492.26 196.948C492.26 196.948 491.838 191.283 495.699 189.761C499.559 188.239 500.324 204.763 500.324 204.763L492.26 196.948Z" fill="black"/>
</g>
<g opacity="0.63">
<path d="M460.637 208.133C460.637 208.133 459.468 204.866 456.544 204.54C453.621 204.213 457.335 213.678 457.335 213.678L460.637 208.133Z" fill="black"/>
<path d="M460.112 207.884C460.112 207.884 463.732 206.869 465.701 208.855C467.669 210.841 457.009 213.515 457.009 213.515L460.112 207.884Z" fill="black"/>
</g>
<g opacity="0.63">
<path d="M406.288 181.438C406.288 181.438 403.218 179.822 400.845 181.559C398.473 183.295 407.611 187.749 407.611 187.749L406.288 181.438Z" fill="black"/>
<path d="M405.722 181.602C405.722 181.602 407.708 178.412 410.502 178.533C413.296 178.653 407.252 187.861 407.252 187.861L405.722 181.602Z" fill="black"/>
</g>
<g opacity="0.63">
<path d="M420.257 172.798C420.257 172.798 419.75 176.237 422.174 177.896C424.599 179.556 425.785 169.462 425.785 169.462L420.257 172.798Z" fill="black"/>
<path d="M420.6 173.271C420.6 173.271 416.929 172.412 416.13 169.772C415.33 167.133 425.999 169.772 425.999 169.772L420.6 173.271Z" fill="black"/>
</g>
<g opacity="0.63">
<path d="M508.153 211.219C508.153 211.219 504.835 210.188 502.823 212.337C500.811 214.486 510.612 217.186 510.612 217.186L508.153 211.219Z" fill="black"/>
<path d="M507.639 211.486C507.639 211.486 509.006 207.987 511.774 207.6C514.542 207.213 510.312 217.358 510.312 217.358L507.639 211.486Z" fill="black"/>
</g>
<g opacity="0.63">
<path d="M471.881 198.392C471.881 198.392 471.211 194.953 468.365 194.231C465.519 193.509 467.789 203.379 467.789 203.379L471.881 198.392Z" fill="black"/>
<path d="M471.4 198.057C471.4 198.057 475.131 197.601 476.782 199.854C478.433 202.106 467.488 203.172 467.488 203.172L471.4 198.057Z" fill="black"/>
</g>
<path d="M416.088 273.146C416.088 273.146 416.818 277.969 414.127 286.996C412.055 293.968 426.164 294.553 430.075 293.297C433.987 292.042 438.956 278.931 438.956 278.931C438.956 278.931 418.564 278.364 416.088 273.146Z" fill="black"/>
<path d="M439.23 278.304C437.795 278.536 432.507 279.361 422.999 276.456C413.49 273.55 413.542 269.363 413.542 269.363" fill="black"/>
<path d="M438.36 274.572C438.36 274.572 440.08 279.137 439.581 280.504Z" fill="black"/>
<path d="M305.698 374.429C305.698 374.429 319.11 371.334 321.861 376.148C323.557 379.229 324.609 382.622 324.956 386.121C324.956 386.121 311.545 388.528 311.201 390.592C310.857 392.655 313.952 398.157 313.608 401.94C313.264 405.723 309.825 412.6 298.821 407.786C298.821 407.786 292.287 400.392 304.323 401.424C304.323 401.424 305.011 405.379 306.902 405.035C308.793 404.691 307.418 399.017 303.979 396.266C300.54 393.515 293.662 389.044 295.382 384.573C297.101 380.103 305.698 374.429 305.698 374.429Z" fill="black"/>
<path d="M269.228 321.487C269.228 321.487 266.477 371.841 325.17 387.884C383.864 403.926 466.853 389.93 466.853 389.93C466.853 389.93 512.246 376.896 523.25 353.048C534.255 329.199 536.103 321.487 536.103 321.487H269.228Z" fill="black"/>
<path d="M495.241 374.429C495.241 374.429 481.83 371.334 479.078 376.148C477.383 379.229 476.33 382.622 475.983 386.121C475.983 386.121 489.395 388.528 489.739 390.592C490.083 392.655 486.988 398.157 487.332 401.94C487.676 405.723 491.115 412.6 502.119 407.786C502.119 407.786 508.653 400.392 496.617 401.424C496.617 401.424 495.929 405.379 494.038 405.035C492.146 404.691 493.522 399.017 496.961 396.266C500.4 393.515 507.277 389.044 505.558 384.573C503.838 380.103 495.241 374.429 495.241 374.429Z" fill="black"/>
<path d="M282.889 361.362C283.439 361.68 360.04 382.107 385.832 382.451C411.624 382.794 469.732 377.017 480.402 371.799C491.071 366.58 512.89 368.944 521.402 356.513L531.495 334.384H270.604C270.604 334.384 275.908 357.304 282.889 361.362Z" fill="black"/>
<path d="M269.21 328.004C269.21 328.004 273.173 351.629 275.159 354.999C277.145 358.369 280.12 349.531 282.183 348.499C284.247 347.468 284.479 350.27 288.485 354.105C292.491 357.939 296.738 360.123 299.722 351.156C302.705 342.189 302.017 344.665 307.287 351.741C312.557 358.816 314.741 357.045 318.747 353.804C322.753 350.563 325.513 344.957 329.064 347.906C332.614 350.855 328.376 354.982 334.686 352.772C340.997 350.563 333.878 353.219 343.395 353.512C352.913 353.804 356.807 352.033 359.446 347.322C362.086 342.61 367.812 344.957 373.89 348.181C379.968 351.405 369.875 370.586 384.318 370.732C398.761 370.878 400.025 353.924 404.608 351.569C409.19 349.213 408.158 342.971 412.861 348.62C417.564 354.268 425.697 366.425 431.775 358.936C437.853 351.448 441.98 368.669 455.159 374.128C468.339 379.587 471.898 366.167 478.544 358.653C485.189 351.139 481.063 358.36 487.94 363.665C494.818 368.969 497.69 360.862 502.384 357.183C507.078 353.503 500.32 351.285 507.886 352.884C515.452 354.483 512.477 359.083 517.171 353.331C521.865 347.58 522.811 360.484 522.811 360.484L531.803 334.804L269.21 328.004Z" fill="black"/>
<path d="M269.228 329.38C269.228 329.38 277.026 334.658 284.824 334.658C292.621 334.658 296.739 334.658 299.035 332.019C301.33 329.38 297.204 330.067 307.744 334.658C318.284 339.249 320.588 343.823 327.466 339.009C334.344 334.194 330.612 357.441 345.572 356.667C360.531 355.894 365.061 339.241 372.859 336.034C380.657 332.827 384.319 334.194 389.366 336.034C394.412 337.874 396.699 336.945 404.033 334.658C411.366 332.372 396.699 345.663 420.084 352.076C443.468 358.49 447.234 335.57 454.756 334.194C462.279 332.819 457.224 331.443 467.772 336.49C478.321 341.536 479.86 339.241 487.108 336.49C494.355 333.738 487.967 351.165 500.786 351.165C513.604 351.165 518.668 339.241 522.563 336.945C526.457 334.65 530.807 339.009 530.807 339.009L535.398 321.126L266.021 316.449L269.228 329.38Z" fill="black"/>
<path d="M255.472 308.747C255.472 308.747 248.938 314.438 255.472 322.425C262.006 330.412 268.54 324.144 268.54 324.144C268.54 324.144 270.603 327.996 277.825 327.996C285.047 327.996 295.02 321.462 301.897 323.181C308.775 324.901 308.431 325.932 314.277 329.371C320.123 332.81 327.345 332.81 331.472 327.996C335.598 323.181 334.223 321.118 341.788 326.465C349.354 331.813 343.852 337.642 355.2 331.804C366.548 325.967 363.11 314.24 374.114 327.996C385.118 341.751 388.213 352.068 395.435 346.222C402.657 340.376 403.001 324.075 409.878 324.144C416.756 324.213 412.286 332.466 420.883 334.186C429.48 335.905 434.295 323.388 441.516 324.144C448.738 324.901 443.107 336.636 455.444 336.559C467.781 336.481 471.237 327.17 475.982 324.144C480.728 321.118 483.892 322.863 490.907 326.465C497.923 330.068 501.353 336.249 508.575 329.715C515.796 323.181 517.98 332.122 523.25 332.81C528.52 333.498 533.266 329.44 533.266 329.44L535.845 322.141L542.31 321.066C542.31 321.066 548.844 315.788 538.871 308.738C528.898 301.688 255.472 308.747 255.472 308.747Z" fill="black"/>
<path d="M527.635 289.549C518.65 289.549 511.3 294.183 510.922 299.995C509.97 298.346 508.602 296.975 506.955 296.022C505.307 295.068 503.437 294.564 501.533 294.561C500.747 294.564 499.963 294.65 499.195 294.819C499.195 294.733 499.195 294.647 499.195 294.561C499.195 283.849 485.577 275.157 468.778 275.157C451.979 275.157 438.361 283.849 438.361 294.561C438.37 296.57 438.841 298.55 439.737 300.347C435.04 298.952 430.157 298.285 425.259 298.37C417.728 298.37 411.159 299.702 407.669 301.671C408.099 300.232 408.319 298.737 408.322 297.235C408.322 286.626 397.627 278.02 384.439 278.02C371.251 278.02 360.728 286.489 360.556 296.977C356.477 295.589 352.192 294.906 347.884 294.957C343.248 294.886 338.64 295.688 334.3 297.321C332.435 291.501 325.557 287.099 317.346 287.099C316.28 274.203 306.368 265.142 294.306 265.142C282.244 265.142 272.271 274.951 271.222 287.365C262.144 287.855 254.974 293.624 254.974 300.64C254.974 307.982 262.814 313.948 272.478 313.948C276.293 313.989 280.048 312.997 283.344 311.077C286.79 313.028 290.696 314.021 294.655 313.953C298.615 313.885 302.484 312.758 305.861 310.69C309.29 312.873 313.281 314.011 317.346 313.965C322.091 314.049 326.711 312.45 330.388 309.452C334.008 312.168 340.49 313.982 347.901 313.982C355.535 313.982 362.198 312.048 365.74 309.194C370.116 313.621 376.874 316.467 384.456 316.467C393.552 316.467 401.47 312.375 405.494 306.348C407.488 309.288 415.587 311.506 425.267 311.506C434.724 311.506 442.642 309.409 444.886 306.58C450.457 311.094 459.089 314 468.787 314C477.504 314 485.362 311.653 490.907 307.904C491.487 310.521 493.013 312.831 495.192 314.392C497.371 315.952 500.05 316.653 502.714 316.36C505.378 316.067 507.84 314.801 509.628 312.804C511.415 310.807 512.403 308.22 512.4 305.54C512.4 305.385 512.4 305.222 512.4 305.067C515.031 308.858 520.86 311.506 527.643 311.506C536.894 311.506 544.391 306.597 544.391 300.545C544.391 294.493 536.885 289.549 527.635 289.549Z" fill="black"/>
<path d="M501.534 313.87C499.642 313.858 497.809 313.203 496.338 312.013C494.866 310.822 493.843 309.167 493.436 307.319L492.619 303.605L489.472 305.737C484.159 309.322 476.619 311.385 468.796 311.385C460.001 311.385 451.877 308.892 446.521 304.508L444.492 302.866L444.113 303.347L442.076 299.177C441.352 297.733 440.969 296.142 440.958 294.526C440.958 285.405 453.708 277.702 468.796 277.702C483.884 277.702 496.634 285.439 496.634 294.526V294.733L496.565 298.008L499.763 297.303C500.348 297.175 500.944 297.108 501.543 297.106C502.995 297.113 504.42 297.5 505.677 298.228C506.933 298.957 507.977 300.001 508.704 301.258L509.736 303.038L509.822 305.11V305.471C509.836 307.683 508.97 309.811 507.416 311.386C505.862 312.961 503.747 313.854 501.534 313.87ZM384.457 313.87C377.812 313.87 371.665 311.497 367.581 307.362L365.939 305.703L364.125 307.164C360.901 309.743 354.668 311.385 347.893 311.385C341.351 311.385 335.23 309.847 331.937 307.371L330.278 306.133L328.704 307.482C325.494 310.077 321.474 311.458 317.347 311.385C313.786 311.428 310.289 310.437 307.28 308.531L305.913 307.629L304.52 308.488C301.538 310.323 298.117 311.322 294.616 311.383C291.115 311.443 287.662 310.562 284.618 308.832L283.345 308.093L282.064 308.867C279.171 310.547 275.876 311.411 272.53 311.368C264.294 311.368 257.597 306.554 257.597 300.639C257.597 295.059 263.615 290.322 271.404 289.935L273.648 289.815L273.837 287.58C274.783 276.446 283.775 267.72 294.315 267.72C305.234 267.72 313.848 275.956 314.794 287.313L314.983 289.678H317.356C324.234 289.678 330.329 293.228 331.911 298.12L332.771 300.759L335.35 299.71C339.376 298.207 343.648 297.469 347.945 297.535C351.956 297.49 355.947 298.121 359.749 299.401L363.145 300.639L363.205 297.02C363.36 287.967 372.911 280.599 384.509 280.599C396.253 280.599 405.813 288.061 405.813 297.234C405.806 298.492 405.624 299.742 405.271 300.948L404.661 303.02L403.406 304.895C399.649 310.431 392.41 313.87 384.457 313.87ZM527.635 308.892C521.91 308.892 516.76 306.795 514.507 303.562L513.373 301.929L513.502 300.209C513.811 295.764 520.156 292.154 527.635 292.154C535.313 292.154 541.804 295.996 541.804 300.536C541.804 305.075 535.313 308.892 527.635 308.892ZM425.277 308.892C415.536 308.892 408.77 306.562 407.635 304.877L407.532 304.723L408.959 303.915C412.149 302.118 418.554 300.948 425.294 300.948C429.917 300.874 434.525 301.494 438.964 302.788L443.426 304.267L442.893 304.946C441.577 306.588 435.258 308.892 425.277 308.892Z" fill="black"/>
<path d="M501.483 316.192C499.591 316.179 497.759 315.524 496.287 314.334C494.816 313.144 493.792 311.489 493.385 309.64L492.568 305.926L489.422 308.059C484.108 311.644 476.569 313.707 468.745 313.707C459.95 313.707 451.826 311.214 446.47 306.829L444.441 305.187L444.063 305.669L442.025 301.499C441.301 300.055 440.919 298.463 440.907 296.848C440.907 287.726 453.657 280.023 468.745 280.023C483.833 280.023 496.583 287.761 496.583 296.848V297.054L496.514 300.33L499.712 299.625C500.297 299.496 500.894 299.43 501.492 299.427C502.944 299.434 504.369 299.821 505.626 300.55C506.882 301.278 507.926 302.323 508.654 303.579L509.685 305.359L509.771 307.431V307.792C509.785 310.005 508.92 312.132 507.366 313.707C505.812 315.282 503.696 316.176 501.483 316.192ZM384.407 316.192C377.761 316.192 371.614 313.819 367.53 309.683L365.879 308.024L364.074 309.451C360.85 312.03 354.617 313.673 347.843 313.673C341.3 313.673 335.179 312.134 331.886 309.658L330.227 308.42L328.654 309.769C325.454 312.392 321.433 313.801 317.297 313.75C313.735 313.793 310.238 312.801 307.229 310.896L305.862 310.036L304.47 310.896C301.487 312.73 298.066 313.73 294.565 313.79C291.064 313.851 287.611 312.97 284.567 311.24L283.252 310.509L281.971 311.283C279.077 312.963 275.782 313.827 272.436 313.784C264.2 313.784 257.503 308.97 257.503 303.055C257.503 297.475 263.521 292.738 271.31 292.351L273.554 292.231L273.743 289.996C274.689 278.862 283.681 270.136 294.222 270.136C305.14 270.136 313.755 278.501 314.7 289.858L314.889 292.351H317.262C324.14 292.351 330.235 295.79 331.817 300.665L332.677 303.244L335.256 302.169C339.264 300.62 343.528 299.839 347.825 299.865C351.842 299.813 355.838 300.437 359.647 301.714L363.042 302.943L363.103 299.324C363.257 290.271 372.809 282.903 384.407 282.903C396.15 282.903 405.71 290.365 405.71 299.539C405.704 300.796 405.522 302.046 405.169 303.253L404.558 305.325L403.303 307.199C399.598 312.753 392.359 316.192 384.407 316.192ZM527.585 311.214C521.859 311.214 516.709 309.116 514.457 305.883L513.322 304.293L513.451 302.574C513.76 298.129 520.105 294.518 527.585 294.518C535.262 294.518 541.753 298.361 541.753 302.9C541.753 307.44 535.245 311.214 527.585 311.214ZM425.226 311.214C415.485 311.214 408.719 308.884 407.585 307.199L407.481 307.044L408.909 306.236C412.098 304.439 418.503 303.27 425.243 303.27C429.866 303.195 434.474 303.815 438.913 305.11L443.375 306.588L442.842 307.268C441.535 308.91 435.207 311.214 425.2 311.214H425.226Z" fill="black"/>
<path d="M288.031 287.005C289.242 287.005 290.223 286.065 290.223 284.907C290.223 283.748 289.242 282.809 288.031 282.809C286.82 282.809 285.839 283.748 285.839 284.907C285.839 286.065 286.82 287.005 288.031 287.005Z" fill="black"/>
<path d="M293.438 288.818C293.438 288.818 292.802 285.018 297.101 284.649C301.399 284.279 309.825 290.005 309.825 290.005C309.825 290.005 303.248 285.706 300.557 288.457C297.866 291.208 293.138 290.967 293.438 288.818Z" fill="black"/>
<path d="M395.086 294.947C396.261 294.654 396.986 293.505 396.705 292.381C396.425 291.257 395.245 290.583 394.07 290.876C392.896 291.169 392.171 292.318 392.451 293.442C392.732 294.566 393.911 295.24 395.086 294.947Z" fill="black"/>
<path d="M390.269 297.991C390.269 297.991 390.011 294.157 385.755 294.844C381.5 295.532 374.708 303.123 374.708 303.123C374.708 303.123 380.055 297.372 383.305 299.375C386.555 301.378 391.094 299.994 390.269 297.991Z" fill="black"/>
<path d="M357.032 230.623C357.032 230.623 360.041 235.601 356.808 238.361C353.576 241.121 351.349 242.522 347.05 239.126C342.752 235.73 346.311 238.86 346.311 238.86C346.311 238.86 340.293 235.017 338.788 231.801C337.284 228.586 337.284 224.838 336.45 223.814C335.616 222.791 332.28 219.593 328.953 218.553C325.626 217.513 323.262 215.415 325.609 212.303C327.956 209.191 336.398 211.606 337.043 212.303C337.688 212.999 339.364 214.478 340.809 214.452C342.253 214.426 345.107 212.887 350.403 219.189C350.403 219.189 351.452 222.301 350.91 223.238C350.369 224.176 353.997 221.631 358.648 221.657C363.299 221.682 369.575 225.336 366.893 229.325C364.21 233.314 358.433 229.403 358.433 229.403L357.032 230.623Z" fill="black"/>
<path d="M357.033 230.624C357.033 230.624 354.059 236.951 351.23 237.811C349.626 238.311 347.98 238.668 346.312 238.877" fill="black"/>
<path d="M346.277 236.177C346.277 236.177 342.382 235.171 340.259 229.626Z" fill="black"/>
<path d="M361.581 189.538L353.224 192.443H352.261L351.935 193.51H351.359V194.791L349.347 199.665C349.347 199.665 349.252 199.949 349.648 200.276C350.106 200.525 350.621 200.653 351.144 200.645C351.29 200.645 352.923 196.605 352.923 196.605L354.187 195.109L361.581 194.163V189.538Z" fill="black"/>
<path d="M336.494 196.303L362.363 203.405C362.544 203.697 362.658 204.026 362.698 204.367C362.626 204.658 362.494 204.93 362.311 205.167C362.555 205.466 362.813 205.753 363.085 206.027C363.377 206.319 361.279 205.597 361.279 205.597L334.499 198.547C335.029 198.48 335.55 198.359 336.055 198.186C336.124 198.066 336.132 196.329 336.313 196.329" fill="black"/>
<path d="M336.606 199.081L332.539 235.163L351.247 240.184L361.28 205.64L336.752 199.081" fill="black"/>
<path d="M306.007 228.353C311.828 228.353 316.547 223.342 316.547 217.16C316.547 210.978 311.828 205.966 306.007 205.966C300.186 205.966 295.467 210.978 295.467 217.16C295.467 223.342 300.186 228.353 306.007 228.353Z" fill="black"/>
<path d="M306.008 226.291C301.331 226.291 297.531 222.19 297.531 217.16C297.531 212.131 301.331 208.004 306.008 208.004C310.685 208.004 314.485 212.097 314.485 217.135C314.485 222.173 310.676 226.291 306.008 226.291Z" fill="black"/>
<path d="M303.937 213.265C304.848 213.265 305.587 212.688 305.587 211.976C305.587 211.263 304.848 210.686 303.937 210.686C303.025 210.686 302.286 211.263 302.286 211.976C302.286 212.688 303.025 213.265 303.937 213.265Z" fill="black"/>
<path d="M307.874 211.443C309.115 212.08 310.079 213.151 310.582 214.452C311.442 216.627 310.298 220.427 312.018 218.708C313.737 216.988 312.766 218.432 312.964 216.567C313.161 214.701 307.874 211.443 307.874 211.443Z" fill="black"/>
<path d="M311.166 258.444C316.987 258.444 321.706 253.432 321.706 247.25C321.706 241.068 316.987 236.057 311.166 236.057C305.345 236.057 300.626 241.068 300.626 247.25C300.626 253.432 305.345 258.444 311.166 258.444Z" fill="black"/>
<path d="M311.166 256.381C306.489 256.381 302.689 252.28 302.689 247.251C302.689 242.221 306.489 238.095 311.166 238.095C315.843 238.095 319.643 242.187 319.643 247.225C319.643 252.263 315.835 256.381 311.166 256.381Z" fill="black"/>
<path d="M309.094 243.356C310.006 243.356 310.745 242.779 310.745 242.066C310.745 241.354 310.006 240.777 309.094 240.777C308.182 240.777 307.443 241.354 307.443 242.066C307.443 242.779 308.182 243.356 309.094 243.356Z" fill="black"/>
<path d="M313.031 241.534C314.272 242.171 315.236 243.242 315.739 244.543C316.599 246.718 315.456 250.518 317.175 248.798C318.895 247.079 317.923 248.523 318.121 246.658C318.319 244.792 313.031 241.534 313.031 241.534Z" fill="black"/>
<path d="M310.306 194.644C313.796 194.644 316.625 191.638 316.625 187.929C316.625 184.221 313.796 181.215 310.306 181.215C306.816 181.215 303.987 184.221 303.987 187.929C303.987 191.638 306.816 194.644 310.306 194.644Z" fill="black"/>
<path d="M310.306 193.389C308.907 193.333 307.588 192.726 306.636 191.7C305.683 190.673 305.176 189.312 305.225 187.913C305.167 187.211 305.256 186.504 305.485 185.837C305.714 185.171 306.079 184.559 306.556 184.041C307.034 183.522 307.613 183.109 308.259 182.826C308.904 182.543 309.601 182.396 310.306 182.396C311.011 182.396 311.708 182.543 312.353 182.826C312.999 183.109 313.579 183.522 314.056 184.041C314.534 184.559 314.898 185.171 315.127 185.837C315.357 186.504 315.445 187.211 315.387 187.913C315.436 189.312 314.929 190.673 313.977 191.7C313.025 192.726 311.705 193.333 310.306 193.389Z" fill="black"/>
<path d="M309.059 185.591C309.605 185.591 310.048 185.245 310.048 184.818C310.048 184.39 309.605 184.044 309.059 184.044C308.513 184.044 308.07 184.39 308.07 184.818C308.07 185.245 308.513 185.591 309.059 185.591Z" fill="black"/>
<path d="M311.424 184.517C312.169 184.903 312.746 185.548 313.049 186.331C313.547 187.629 312.877 189.907 313.908 188.91C314.94 187.913 314.355 188.746 314.484 187.629C314.613 186.511 311.424 184.517 311.424 184.517Z" fill="black"/>
<path d="M385.567 269.975L355.283 244.305L351.788 247.94L384.146 275.777L385.567 269.975Z" fill="white" stroke="black" stroke-width="2" stroke-miterlimit="10"/>
<path d="M346.617 279.839C346.617 279.839 345.39 276.732 345.483 276.274C345.577 275.816 343.099 275.971 341.942 276.274C340.784 276.577 341.165 276.616 341.165 276.616C341.165 276.616 341.398 277.346 340.8 276.546C340.202 275.746 337.367 269.268 337.367 269.268L336.21 269.587C336.21 269.587 337.095 275.521 337.072 276.375C337.048 277.229 336.901 277.4 335.72 277.998C334.717 278.546 333.742 279.144 332.8 279.792L333.926 283.924C333.926 283.924 333.685 283.148 332.846 284.01C332.418 284.396 332.068 284.86 331.813 285.377L342.687 322.434C342.687 322.434 343.946 323.793 347.689 323.21C351.433 322.628 352.474 322.907 354.812 321.253C356.19 320.278 357.489 319.195 358.695 318.014L349.126 280.592C348.817 280.264 348.415 280.037 347.974 279.943C347.532 279.849 347.073 279.891 346.656 280.064" fill="#CE1C24"/>
<path d="M523.922 365.968C523.922 365.968 523.433 362.659 523.627 362.247C523.821 361.836 521.374 361.401 520.178 361.409C518.982 361.416 519.332 361.556 519.332 361.556C519.332 361.556 519.386 362.333 518.99 361.409C518.594 360.484 517.297 353.541 517.297 353.541L516.101 353.587C516.101 353.587 515.619 359.568 515.394 360.391C515.169 361.214 514.998 361.354 513.716 361.665C512.612 361.968 511.526 362.331 510.462 362.752L510.625 367.063C510.625 367.063 510.563 366.286 509.553 366.9C509.061 367.172 508.622 367.529 508.256 367.956L510.423 406.543C510.423 406.543 511.347 408.158 515.122 408.461C518.897 408.764 519.844 409.238 522.493 408.174C524.064 407.542 525.581 406.783 527.029 405.906L526.252 367.288C526.026 366.898 525.686 366.587 525.278 366.395C524.87 366.204 524.413 366.141 523.969 366.216" fill="#DDCF21"/>
<path d="M391.16 244.693C395.906 248.406 393.7 246.495 403.385 251.769C413.288 257.159 427.075 259.179 435.277 260.81C443.603 262.464 452.023 264.6 452.023 264.6L440.186 264.406C428.597 264.243 418.78 265.672 402.127 260.942C386.049 256.375 383.044 254.728 382.64 248.864C382.236 243 386.438 240.988 386.438 240.988L391.16 244.693Z" fill="#AD241C"/>
<path d="M487.287 263.793C487.287 263.793 491.745 265.587 487.9 272.507C484.056 279.428 474.619 278.193 469.438 276.888C464.257 275.583 459.791 273.004 443.372 267.723L428.009 262.76L427.473 262.589L439.201 263.878C447.783 264.81 458.323 267.063 466.246 266.791C474.168 266.519 487.287 263.793 487.287 263.793Z" fill="#AD241C"/>
<path d="M385.086 253.05C385.086 253.05 378.632 258.324 380.706 262.223C382.779 266.122 387.696 266.285 395.82 268.856C404.116 271.474 445.157 281.905 455.425 282.759C465.887 283.629 477.242 284.678 483.075 284.181C488.908 283.684 490.384 280.297 488.745 277.369C487.106 274.441 463.114 272.779 451.293 269.602C439.735 266.495 435.083 265.314 425.723 264.864C415.192 264.343 404.845 261.892 395.199 257.633L385.086 253.05Z" fill="#5B2814"/>
<path d="M477.312 296.639L476.714 282.961L381.024 264.911L377.396 269.874L477.724 298.224" fill="#D1972F"/>
<path d="M375.377 293.618C375.377 293.618 371.602 306.737 389.288 315.669C403.48 322.909 418.773 327.748 434.546 329.991C445.583 331.545 454.741 332.321 465.459 329.502C479.277 325.906 483.766 319.234 483.766 319.234" fill="#D6A65C"/>
<path d="M493.337 301.688C498.913 303.342 499.294 306.472 498.843 310.162C498.393 313.851 498.168 317.152 490.975 318.434C483.783 319.715 482.206 319.482 477.204 317.719C472.202 315.956 475.698 316.872 469.802 319.863C463.907 322.853 465.43 323.684 457.694 322.721C449.958 321.758 450.649 316.911 444.971 318.612C439.293 320.313 439.045 321.106 432.924 319.754C426.804 318.403 426.99 311.032 422.221 312.142C417.452 313.253 416.505 313.851 408.435 311.863C400.489 309.905 400.497 304.096 394.866 303.816C389.235 303.536 389.934 304.492 383.534 302.263C377.134 300.034 379.386 295.878 376.699 296.127C374.011 296.375 367.79 295.544 365.755 294.123C363.72 292.701 365.126 291.016 365.972 289.866C366.819 288.717 365.972 286.332 364.419 282.503C362.866 278.674 364.295 278.169 366.555 276.701C368.815 275.233 374.648 276.826 374.648 276.826L486.937 300.134" fill="#808834"/>
<path d="M380.248 260.802C380.248 260.802 387.564 268.817 396.442 272.452C405.483 276.181 418.283 278.666 429.607 281.346C441.196 284.103 451.658 285.4 459.277 286.72C466.897 288.041 470.33 288.274 473.561 289.004C476.792 289.734 475.293 289.882 480.349 288.577L485.445 287.264C485.445 287.264 489.219 289.214 490.105 295.808C490.105 295.808 490.353 302.922 488.551 303.575C486.75 304.227 484.885 304.856 482.54 303.622C480.194 302.387 482.695 301.928 478.656 302.845C474.617 303.761 469.336 301.066 467.394 300.056C465.452 299.047 464.241 299.653 460.924 300.157C457.608 300.662 459.044 299.567 456.365 299.023C453.685 298.48 454.734 298.62 449.646 300.344C444.559 302.068 443.821 303.288 439.992 299.932C436.163 296.577 436.971 296.561 433.778 296.701C430.586 296.841 431.021 297.773 427.44 295.575C423.86 293.377 424.458 293.656 420.186 293.866C415.914 294.076 415.681 295.42 412.209 293.237C408.737 291.054 408.947 290.798 404.846 290.223C400.745 289.649 399.619 291.777 396.38 289.105C393.141 286.433 392.38 280.748 388.543 281.268C384.706 281.788 385.351 284.849 381.801 281.493C378.252 278.138 376.558 275.637 377.195 271.023C377.832 266.41 380.248 260.802 380.248 260.802Z" fill="#D6A65C"/>
<path d="M392.822 291.599L396.356 293.292L399.874 294.426L398.616 296.049L395.424 294.869L392.418 293.735L392.822 291.599Z" fill="#7A8034"/>
<path d="M449.506 305.944L453.677 307.156L457.685 307.754L456.815 309.773L453.141 309.059L449.677 308.368L449.506 305.944Z" fill="#7A8034"/>
<path d="M449.444 310.348L453.623 311.583L457.631 312.197L456.769 314.224L453.087 313.486L449.615 312.787L449.444 310.348Z" fill="#7A8034"/>
<path d="M483.821 305.89L488.963 306.573L493.67 306.488L493.569 309.276L489.173 309.129L485.033 308.973L483.821 305.89Z" fill="#7A8034"/>
<path d="M483.2 310.612L488.342 311.311L493.049 311.249L492.948 314.037L488.552 313.874L484.412 313.703L483.2 310.612Z" fill="#7A8034"/>
<path d="M391.314 295.389L394.336 297.059L397.373 298.247L396.13 299.521L393.388 298.31L390.794 297.152L391.314 295.389Z" fill="#7A8034"/>
<path d="M427.829 207.264C459.231 209.935 487.915 223.404 495.666 242.549C503.612 262.161 496.529 273.221 453.266 264.833C413.266 257.066 403.013 256.421 387.743 247.979C380.869 244.18 382.555 234.775 389.141 225.959C396.901 215.613 411.658 205.889 427.829 207.264Z" fill="#D6A65C"/>
<path d="M408.365 226.829C408.287 227.186 407.635 227.357 406.904 227.225C406.174 227.093 405.638 226.681 405.708 226.332C405.778 225.982 406.438 225.804 407.168 225.936C407.899 226.068 408.435 226.472 408.365 226.829Z" fill="white"/>
<path d="M426.695 230.285C426.617 230.65 425.918 230.821 425.18 230.682C424.443 230.542 423.868 230.13 423.946 229.765C424.023 229.4 424.722 229.229 425.452 229.377C426.182 229.524 426.765 229.928 426.695 230.285Z" fill="white"/>
<path d="M413.871 239.209C413.794 239.567 413.095 239.737 412.388 239.59C411.681 239.442 411.106 239.031 411.184 238.673C411.261 238.316 411.914 238.145 412.66 238.293C413.405 238.44 413.926 238.852 413.871 239.209Z" fill="white"/>
<path d="M432.449 218.2C432.379 218.557 431.672 218.744 430.896 218.604C430.119 218.464 429.575 218.068 429.653 217.71C429.731 217.353 430.43 217.167 431.206 217.299C431.983 217.431 432.566 217.804 432.449 218.2Z" fill="white"/>
<path d="M455.293 225.687C455.215 226.052 454.516 226.239 453.739 226.091C452.963 225.943 452.357 225.532 452.434 225.167C452.512 224.802 453.211 224.615 453.988 224.755C454.765 224.895 455.37 225.314 455.293 225.687Z" fill="white"/>
<path d="M455.967 235.808C455.89 236.181 455.191 236.359 454.414 236.204C453.637 236.049 453.024 235.629 453.101 235.256C453.179 234.884 453.878 234.705 454.655 234.86C455.431 235.016 456.045 235.435 455.967 235.808Z" fill="white"/>
<path d="M485.53 242.821C485.453 243.202 484.699 243.381 483.853 243.218C483.006 243.054 482.377 242.619 482.455 242.231C482.532 241.843 483.286 241.672 484.132 241.835C484.979 241.998 485.608 242.433 485.53 242.821Z" fill="white"/>
<path d="M466.85 252.033C466.772 252.413 466.073 252.584 465.219 252.421C464.364 252.258 463.79 251.815 463.867 251.435C463.945 251.054 464.644 250.883 465.498 251.054C466.353 251.225 466.928 251.66 466.85 252.033Z" fill="white"/>
<path d="M437.505 241.167C437.428 241.532 436.729 241.703 435.952 241.555C435.175 241.408 434.608 240.981 434.686 240.615C434.763 240.25 435.463 240.072 436.239 240.227C437.016 240.382 437.583 240.802 437.505 241.167Z" fill="white"/>
<path d="M394.78 238.153C394.71 238.503 394.065 238.674 393.351 238.526C392.636 238.379 392.116 237.983 392.193 237.633C392.271 237.283 392.908 237.113 393.622 237.252C394.337 237.392 394.857 237.804 394.78 238.153Z" fill="white"/>
<path d="M474.508 227C474.431 227.38 473.693 227.567 472.862 227.419C472.031 227.271 471.433 226.844 471.503 226.471C471.573 226.099 472.318 225.904 473.141 226.052C473.965 226.2 474.578 226.627 474.508 227Z" fill="white"/>
<path d="M452.66 267.388C452.422 268.677 451.928 269.906 451.208 271.001C450.487 272.096 449.555 273.036 448.465 273.765C447.376 274.494 446.151 274.997 444.864 275.245C443.577 275.494 442.253 275.481 440.971 275.21C438.416 274.572 436.211 272.961 434.827 270.721C433.443 268.48 432.988 265.788 433.561 263.217C433.8 261.945 434.287 260.733 434.995 259.65C435.703 258.567 436.618 257.634 437.688 256.905C438.757 256.177 439.96 255.666 441.227 255.403C442.494 255.14 443.801 255.13 445.072 255.373C447.665 255.971 449.917 257.569 451.338 259.819C452.759 262.07 453.234 264.79 452.66 267.388Z" fill="white"/>
<path d="M450.905 267.583C450.71 268.611 450.311 269.59 449.732 270.462C449.153 271.334 448.406 272.082 447.534 272.66C446.662 273.239 445.683 273.638 444.655 273.833C443.626 274.028 442.569 274.016 441.546 273.797C439.495 273.286 437.724 271.994 436.613 270.196C435.501 268.398 435.137 266.237 435.596 264.173C435.786 263.152 436.177 262.179 436.746 261.31C437.314 260.441 438.05 259.693 438.909 259.11C439.769 258.527 440.736 258.12 441.754 257.913C442.771 257.707 443.82 257.704 444.839 257.905C446.925 258.388 448.734 259.678 449.871 261.492C451.008 263.305 451.38 265.496 450.905 267.583Z" fill="black"/>
<path d="M423.727 261.928C422.601 267.303 417.591 270.728 412.589 269.579C407.587 268.429 404.542 263.249 405.653 257.928C406.764 252.608 411.657 249.214 416.628 250.254C421.599 251.295 424.845 256.553 423.727 261.928Z" fill="white"/>
<path d="M422.011 262.076C421.118 266.379 417.11 269.12 413.094 268.196C409.079 267.272 406.632 263.109 407.525 258.876C408.419 254.643 412.349 251.885 416.333 252.74C420.318 253.594 422.912 257.773 422.011 262.076Z" fill="black"/>
<path d="M495.193 235.412C495.193 235.412 507.55 223.823 495.364 210.961C483.177 198.099 474.393 209.361 474.393 209.361L475.682 210.977C473.95 210.134 472.156 209.428 470.315 208.864C454.571 204.002 440.109 196.281 424.878 198.588L429.258 196.522C429.258 196.522 426.322 182.541 409.724 188.755C393.126 194.969 399.114 210.79 399.114 210.79L404.707 208.149C400.239 211.886 396.18 216.085 392.598 220.678C393.442 221.699 394.608 222.403 395.905 222.674C397.202 222.945 398.553 222.767 399.736 222.169C404.225 220.149 406.477 219.505 407.161 221.687C407.844 223.87 411.099 230.969 414.035 229.454C416.971 227.94 417.087 223.093 421.281 225.105C425.476 227.116 427.316 230.977 430.159 233.027C433.002 235.078 436.645 231.225 439.223 230.821C441.802 230.417 440.396 231.031 445.437 235.544C450.478 240.056 452.839 244.243 456.311 240.344C459.783 236.445 461.157 233.517 463.55 237.004C465.942 240.491 464.544 242.441 470.128 243.218C475.713 243.994 475.798 241.548 478.517 240.111C481.235 238.674 482.602 239.124 485.507 242.837C488.412 246.55 489.53 248.274 493.352 247.544L497.166 246.814C496.969 242.948 496.307 239.119 495.193 235.412Z" fill="#FFBDBD"/>
<path d="M405.545 212.103C404.268 212.504 403.045 213.059 401.902 213.757C401.343 214.072 400.874 214.527 400.543 215.077C400.483 215.197 400.447 215.327 400.437 215.46C400.428 215.594 400.446 215.727 400.489 215.854C400.534 215.98 400.615 216.091 400.722 216.172C400.834 216.26 400.96 216.328 401.095 216.374C401.707 216.552 402.347 216.615 402.982 216.561C403.641 216.521 404.297 216.443 404.947 216.328C406.258 216.097 407.555 215.791 408.831 215.411L409.328 215.256L409.413 215.807C409.641 217.488 410.115 219.127 410.819 220.67C411.002 221.035 411.205 221.39 411.425 221.734L411.782 222.223L411.976 222.44L412.07 222.549L412.124 222.604C412.124 222.604 412.178 222.658 412.077 222.604L412.334 222.806C412.411 222.868 412.512 222.961 412.559 222.953C412.614 222.966 412.666 222.987 412.714 223.015C412.781 223.02 412.849 223.02 412.916 223.015C413.06 223.038 413.207 223.038 413.351 223.015C413.52 222.969 413.684 222.907 413.84 222.829C414.551 222.426 415.215 221.947 415.821 221.4C416.171 221.12 416.504 220.84 416.916 220.569C417.376 220.256 417.914 220.076 418.47 220.048L418.726 220.126C418.772 220.126 418.656 220.025 418.827 220.056H418.951C419.059 220.078 419.165 220.107 419.27 220.141C419.518 220.242 419.805 220.351 420.046 220.46C420.458 220.67 420.823 220.887 421.235 221.12C422.011 221.578 422.741 222.052 423.464 222.541L427.774 225.47C428.489 225.943 429.211 226.417 429.941 226.821C430.12 226.93 430.299 227.023 430.477 227.116C430.646 227.209 430.82 227.292 430.998 227.365L431.122 227.411H431.192C431.153 227.411 431.277 227.411 431.114 227.411L431.433 227.481C431.608 227.524 431.788 227.545 431.969 227.543C432.763 227.552 433.556 227.484 434.338 227.341C435.161 227.209 435.992 227.039 436.823 226.837C438.47 226.433 440.14 225.943 441.747 225.4L442.524 225.151L442.881 225.858C443.107 226.285 443.355 226.736 443.604 227.163C443.852 227.59 444.124 228.033 444.38 228.452C444.919 229.291 445.502 230.1 446.128 230.876C446.439 231.264 446.765 231.652 447.099 231.978C447.428 232.321 447.781 232.641 448.155 232.934C448.499 233.221 448.877 233.464 449.281 233.656L449.421 233.726H449.499C449.577 233.726 449.39 233.726 449.413 233.726H449.46L449.833 233.827C449.95 233.866 450.069 233.897 450.19 233.92H450.478H450.765H451.208C451.441 233.92 451.666 233.92 451.907 233.92C452.381 233.866 452.862 233.804 453.344 233.703C453.825 233.602 454.307 233.477 454.788 233.361C455.27 233.244 455.751 233.097 456.233 232.934C457.188 232.623 458.136 232.266 459.083 231.893C460.031 231.52 460.971 231.116 461.872 230.697L462.563 230.363L462.967 231C463.503 231.831 464.078 232.677 464.668 233.493C465.258 234.309 465.864 235.116 466.501 235.885C467.126 236.656 467.792 237.393 468.497 238.091C468.836 238.432 469.197 238.751 469.577 239.046C469.763 239.171 469.95 239.326 470.136 239.443C470.322 239.559 470.524 239.668 470.703 239.73L470.967 239.808H471.037V239.645C470.889 239.645 470.998 239.466 470.967 239.466L471.161 239.645L471.542 239.745C471.643 239.753 471.744 239.753 471.845 239.745H472.132L472.474 239.668C472.703 239.618 472.929 239.553 473.15 239.474C474.08 239.146 474.982 238.74 475.845 238.262C477.614 237.29 479.317 236.2 480.94 235L481.39 234.674L481.693 235.116C482.625 236.452 483.674 237.742 484.738 239C485.795 240.253 486.983 241.391 488.28 242.394C488.601 242.637 488.938 242.858 489.29 243.054C489.651 243.249 490.021 243.425 490.4 243.582C491.157 243.898 491.936 244.157 492.73 244.359C494.333 244.786 495.975 245.046 497.631 245.136C496.797 245.154 495.962 245.125 495.13 245.05C494.298 244.979 493.47 244.857 492.653 244.685C491.823 244.522 491.008 244.294 490.214 244.002C489.802 243.854 489.437 243.699 489.049 243.513C488.666 243.323 488.295 243.111 487.938 242.876C486.543 241.915 485.256 240.806 484.101 239.567C482.932 238.341 481.84 237.044 480.831 235.683L481.608 235.8C479.982 237.086 478.269 238.259 476.482 239.311C475.574 239.858 474.62 240.326 473.631 240.709C473.378 240.813 473.119 240.901 472.854 240.973L472.451 241.089L471.985 241.159C471.829 241.159 471.658 241.213 471.526 241.221L471.138 241.105L470.952 240.996L470.866 241.097V241.151H470.804H470.687L470.214 241.035C469.935 240.926 469.663 240.802 469.398 240.662C469.15 240.522 468.932 240.359 468.691 240.204C468.255 239.884 467.837 239.539 467.441 239.171C467.037 238.813 466.664 238.394 466.315 238.044C465.965 237.695 465.6 237.268 465.274 236.872C464.59 236.095 463.961 235.256 463.332 234.425C462.703 233.594 462.12 232.755 461.538 231.877L462.633 232.18C461.678 232.654 460.73 233.081 459.759 233.485C458.788 233.889 457.802 234.262 456.792 234.588C456.295 234.767 455.782 234.899 455.239 235.054C454.695 235.21 454.214 235.334 453.685 235.427C453.149 235.541 452.607 235.626 452.062 235.683C451.79 235.683 451.495 235.683 451.215 235.73H450.78L450.291 235.683L449.81 235.629C449.676 235.603 449.544 235.569 449.413 235.528L449.041 235.427H448.994H448.885L448.784 235.38L448.582 235.279C448.31 235.16 448.05 235.014 447.806 234.844C447.557 234.699 447.32 234.532 447.099 234.347C446.66 234.003 446.244 233.63 445.856 233.229C445.476 232.841 445.079 232.452 444.769 232.017C444.102 231.181 443.479 230.31 442.905 229.408C442.625 228.965 442.345 228.507 442.081 228.048C441.817 227.59 441.569 227.132 441.305 226.642L442.423 227.101C440.73 227.652 439.052 228.142 437.32 228.545C436.466 228.755 435.588 228.934 434.695 229.074C433.762 229.235 432.814 229.293 431.868 229.244C431.606 229.236 431.345 229.199 431.091 229.136L430.773 229.066H430.672H430.625H430.54L430.361 228.996C430.12 228.895 429.91 228.786 429.708 228.677C429.507 228.569 429.297 228.452 429.11 228.336C428.334 227.877 427.604 227.38 426.874 226.891L422.602 223.877C421.887 223.388 421.188 222.891 420.473 222.433C420.116 222.2 419.759 221.99 419.402 221.796L418.967 221.563L418.664 221.47H418.586H418.524H418.602H418.532C418.227 221.51 417.938 221.627 417.693 221.811C417.347 222.035 417.013 222.276 416.691 222.534C415.975 223.138 415.194 223.659 414.361 224.087C414.11 224.194 413.85 224.277 413.584 224.336C413.301 224.383 413.013 224.383 412.73 224.336C412.583 224.316 412.437 224.285 412.295 224.242C412.147 224.18 412 224.103 411.86 224.033C411.745 223.974 411.64 223.898 411.549 223.807L411.301 223.598C411.2 223.505 411.301 223.598 411.246 223.543L411.192 223.474L411.075 223.334L410.842 223.062L410.446 222.479C410.21 222.086 409.997 221.679 409.809 221.26C409.448 220.433 409.162 219.575 408.955 218.697C408.739 217.829 408.586 216.946 408.497 216.056L409.079 216.452C407.754 216.776 406.41 217.02 405.056 217.182C404.378 217.269 403.696 217.313 403.013 217.314C402.302 217.343 401.592 217.232 400.924 216.988C400.743 216.918 400.577 216.816 400.434 216.685C400.283 216.55 400.168 216.379 400.1 216.188C400.036 216 400.012 215.8 400.031 215.601C400.049 215.403 400.11 215.211 400.209 215.038C400.592 214.444 401.129 213.963 401.763 213.648C402.954 212.977 404.225 212.458 405.545 212.103Z" fill="#FF8ABD"/>
<g opacity="0.63">
<path d="M434.369 206.929C434.369 206.929 433.157 201.943 429.414 201.702C425.67 201.461 429.6 215.885 429.6 215.885L434.369 206.929Z" fill="#FF668A"/>
<path d="M433.718 206.572C433.718 206.572 438.487 204.661 440.856 207.582C443.225 210.502 429.205 215.644 429.205 215.644L433.718 206.572Z" fill="#FF668A"/>
</g>
<g opacity="0.63">
<path d="M482.765 211.955C482.765 211.955 477.639 211.613 476.28 215.108C474.921 218.604 489.864 219.202 489.864 219.202L482.765 211.955Z" fill="#FF668A"/>
<path d="M482.275 212.476C482.275 212.476 481.894 207.357 485.382 205.983C488.869 204.608 489.56 219.536 489.56 219.536L482.275 212.476Z" fill="#FF668A"/>
</g>
<g opacity="0.63">
<path d="M453.708 222.58C453.708 222.58 452.652 219.629 450.011 219.334C447.371 219.038 450.726 227.59 450.726 227.59L453.708 222.58Z" fill="#FF668A"/>
<path d="M453.235 222.355C453.235 222.355 456.504 221.439 458.283 223.233C460.062 225.027 450.431 227.443 450.431 227.443L453.235 222.355Z" fill="#FF668A"/>
</g>
<g opacity="0.63">
<path d="M404.606 198.464C404.606 198.464 401.833 197.004 399.689 198.573C397.546 200.142 405.802 204.165 405.802 204.165L404.606 198.464Z" fill="#FF668A"/>
<path d="M404.094 198.612C404.094 198.612 405.888 195.73 408.412 195.839C410.937 195.948 405.476 204.266 405.476 204.266L404.094 198.612Z" fill="#FF668A"/>
</g>
<g opacity="0.63">
<path d="M417.225 190.658C417.225 190.658 416.767 193.764 418.957 195.264C421.148 196.763 422.22 187.644 422.22 187.644L417.225 190.658Z" fill="#FF668A"/>
<path d="M417.537 191.085C417.537 191.085 414.22 190.347 413.498 187.924C412.775 185.5 422.414 187.924 422.414 187.924L417.537 191.085Z" fill="#FF668A"/>
</g>
<g opacity="0.63">
<path d="M496.637 225.369C496.637 225.369 493.639 224.437 491.821 226.379C490.004 228.321 498.858 230.759 498.858 230.759L496.637 225.369Z" fill="#FF668A"/>
<path d="M496.171 225.61C496.171 225.61 497.406 222.449 499.907 222.099C502.408 221.75 498.586 230.915 498.586 230.915L496.171 225.61Z" fill="#FF668A"/>
</g>
<g opacity="0.63">
<path d="M463.868 213.78C463.868 213.78 463.262 210.673 460.692 210.021C458.121 209.369 460.171 218.285 460.171 218.285L463.868 213.78Z" fill="#FF668A"/>
<path d="M463.432 213.477C463.432 213.477 466.803 213.065 468.295 215.1C469.786 217.135 459.898 218.098 459.898 218.098L463.432 213.477Z" fill="#FF668A"/>
</g>
<path d="M408.372 278.628L413.459 276.08" stroke="black" stroke-width="2" stroke-miterlimit="10"/>
<path d="M413.459 281.315C413.459 281.315 414.12 285.672 411.689 293.828C409.817 300.127 422.562 300.655 426.096 299.521C429.63 298.387 434.12 286.542 434.12 286.542C434.12 286.542 415.696 286.03 413.459 281.315Z" fill="black"/>
<path d="M434.368 285.975C433.071 286.184 428.294 286.93 419.704 284.305C411.114 281.68 411.16 277.897 411.16 277.897" stroke="black" stroke-width="2" stroke-miterlimit="10"/>
<path d="M433.584 282.604C433.584 282.604 435.137 286.729 434.687 287.964" stroke="black" stroke-width="2" stroke-miterlimit="10"/>
<path d="M313.731 372.819C313.731 372.819 325.847 370.022 328.333 374.372C329.864 377.155 330.816 380.22 331.129 383.382C331.129 383.382 319.012 385.557 318.702 387.421C318.391 389.285 321.187 394.256 320.876 397.673C320.566 401.091 317.459 407.304 307.517 402.955C307.517 402.955 301.614 396.275 312.488 397.207C312.488 397.207 313.109 400.78 314.818 400.469C316.527 400.159 315.284 395.032 312.177 392.547C309.07 390.061 302.857 386.023 304.41 381.984C305.964 377.945 313.731 372.819 313.731 372.819Z" fill="#D99020"/>
<path d="M280.782 324.989C280.782 324.989 278.296 370.481 331.322 384.974C384.348 399.468 459.323 386.823 459.323 386.823C459.323 386.823 500.333 375.048 510.275 353.502C520.217 331.956 521.887 324.989 521.887 324.989H280.782Z" fill="#D99020"/>
<path d="M484.97 372.819C484.97 372.819 472.854 370.022 470.368 374.372C468.837 377.155 467.886 380.22 467.572 383.382C467.572 383.382 479.689 385.557 480 387.421C480.31 389.285 477.514 394.256 477.825 397.673C478.135 401.091 481.242 407.304 491.184 402.955C491.184 402.955 497.087 396.275 486.213 397.207C486.213 397.207 485.592 400.78 483.883 400.469C482.174 400.159 483.417 395.032 486.524 392.547C489.631 390.061 495.844 386.023 494.291 381.984C492.738 377.945 484.97 372.819 484.97 372.819Z" fill="#D99020"/>
<path d="M293.125 361.012C293.622 361.3 362.826 379.754 386.127 380.065C409.428 380.376 461.926 375.156 471.565 370.442C481.204 365.727 500.916 367.863 508.606 356.632L517.724 336.639H282.025C282.025 336.639 286.818 357.346 293.125 361.012Z" fill="#7B4A30"/>
<path d="M280.768 330.876C280.768 330.876 284.348 352.22 286.142 355.265C287.937 358.31 290.624 350.325 292.488 349.393C294.352 348.461 294.562 350.993 298.181 354.457C301.801 357.921 305.638 359.894 308.333 351.793C311.028 343.692 310.407 345.929 315.168 352.321C319.929 358.714 321.902 357.114 325.521 354.185C329.141 351.257 331.634 346.193 334.842 348.857C338.05 351.521 334.22 355.249 339.921 353.253C345.622 351.257 339.191 353.657 347.789 353.921C356.388 354.185 359.906 352.585 362.291 348.329C364.675 344.073 369.848 346.193 375.339 349.106C380.831 352.018 371.712 369.347 384.761 369.479C397.809 369.611 398.951 354.294 403.091 352.166C407.231 350.038 406.299 344.399 410.547 349.502C414.796 354.605 422.143 365.587 427.635 358.822C433.126 352.057 436.854 367.615 448.761 372.547C460.668 377.479 463.884 365.354 469.888 358.566C475.891 351.778 472.163 358.302 478.377 363.094C484.591 367.886 487.185 360.562 491.426 357.238C495.666 353.914 489.561 351.91 496.396 353.354C503.231 354.799 500.544 358.954 504.785 353.758C509.026 348.562 509.88 360.22 509.88 360.22L518.004 337.02L280.768 330.876Z" fill="#39964A"/>
<path d="M280.782 332.119C280.782 332.119 287.827 336.888 294.871 336.888C301.916 336.888 305.636 336.888 307.71 334.504C309.784 332.119 306.056 332.741 315.578 336.888C325.101 341.036 327.182 345.184 333.396 340.818C339.61 336.453 336.239 357.471 349.753 356.772C363.268 356.073 367.361 341.028 374.406 338.131C381.451 335.234 384.759 336.469 389.319 338.131C393.878 339.793 395.944 338.954 402.569 336.888C409.195 334.822 395.944 346.83 417.07 352.624C438.197 358.419 441.599 337.712 448.395 336.469C455.191 335.226 450.624 333.983 460.154 338.543C469.684 343.102 471.075 341.028 477.622 338.543C484.17 336.057 478.399 351.801 489.98 351.801C501.56 351.801 506.135 341.028 509.654 338.954C513.172 336.881 517.102 340.818 517.102 340.818L521.25 324.663L277.885 320.438L280.782 332.119Z" fill="#CE1C24"/>
<path d="M268.355 313.478C268.355 313.478 262.452 318.62 268.355 325.836C274.258 333.051 280.161 327.389 280.161 327.389C280.161 327.389 282.025 330.869 288.549 330.869C295.074 330.869 304.083 324.966 310.297 326.519C316.511 328.073 316.2 329.005 321.482 332.111C326.763 335.218 333.288 335.218 337.016 330.869C340.744 326.519 339.501 324.655 346.336 329.486C353.171 334.317 348.2 339.583 358.453 334.31C368.705 329.036 365.598 318.441 375.54 330.869C385.482 343.296 388.278 352.616 394.803 347.335C401.327 342.053 401.638 327.327 407.851 327.389C414.065 327.451 410.026 334.908 417.793 336.461C425.56 338.014 429.91 326.706 436.434 327.389C442.958 328.073 437.871 338.675 449.017 338.605C460.162 338.535 463.285 330.123 467.572 327.389C471.86 324.655 474.718 326.232 481.056 329.486C487.394 332.741 490.493 338.325 497.017 332.422C503.541 326.519 505.514 334.597 510.275 335.218C515.037 335.84 519.324 332.174 519.324 332.174L521.654 325.579L527.495 324.608C527.495 324.608 533.398 319.839 524.388 313.47C515.378 307.102 268.355 313.478 268.355 313.478Z" fill="#D6B732"/>
<path d="M514.236 296.134C506.12 296.134 499.479 300.321 499.137 305.571C498.278 304.081 497.042 302.843 495.553 301.982C494.065 301.12 492.376 300.665 490.656 300.662C489.945 300.665 489.237 300.743 488.543 300.895C488.543 300.818 488.543 300.74 488.543 300.662C488.543 290.985 476.24 283.132 461.063 283.132C445.886 283.132 433.583 290.985 433.583 300.662C433.591 302.477 434.017 304.265 434.826 305.89C430.583 304.629 426.172 304.027 421.746 304.103C414.942 304.103 409.008 305.307 405.855 307.086C406.244 305.785 406.442 304.435 406.445 303.078C406.445 293.493 396.783 285.719 384.868 285.719C372.954 285.719 363.447 293.369 363.291 302.845C359.607 301.591 355.735 300.974 351.843 301.02C347.654 300.956 343.491 301.68 339.571 303.156C337.885 297.897 331.672 293.921 324.254 293.921C323.291 282.27 314.336 274.083 303.439 274.083C292.541 274.083 283.532 282.946 282.584 294.161C274.382 294.604 267.904 299.816 267.904 306.154C267.904 312.787 274.988 318.177 283.718 318.177C287.165 318.214 290.557 317.318 293.536 315.583C296.649 317.346 300.177 318.243 303.754 318.182C307.331 318.12 310.827 317.102 313.877 315.233C316.976 317.206 320.581 318.234 324.254 318.193C328.54 318.269 332.715 316.824 336.037 314.115C339.307 316.569 345.163 318.208 351.858 318.208C358.756 318.208 364.775 316.461 367.975 313.882C371.928 317.882 378.033 320.453 384.884 320.453C393.101 320.453 400.255 316.756 403.89 311.311C405.692 313.967 413.008 315.971 421.754 315.971C430.298 315.971 437.451 314.076 439.478 311.521C444.512 315.598 452.31 318.224 461.071 318.224C468.947 318.224 476.046 316.103 481.056 312.717C481.58 315.081 482.958 317.168 484.927 318.578C486.895 319.988 489.315 320.621 491.722 320.356C494.129 320.091 496.353 318.947 497.968 317.143C499.583 315.339 500.475 313.002 500.473 310.581C500.473 310.441 500.473 310.293 500.473 310.154C502.85 313.579 508.116 315.971 514.244 315.971C522.602 315.971 529.374 311.536 529.374 306.068C529.374 300.6 522.594 296.134 514.236 296.134Z" fill="#AFD5DF"/>
<path d="M490.656 318.107C488.946 318.096 487.291 317.504 485.961 316.429C484.632 315.353 483.707 313.858 483.339 312.188L482.601 308.833L479.759 310.759C474.959 313.998 468.147 315.862 461.118 315.862C453.172 315.862 445.832 313.61 440.993 309.648L439.16 308.165L438.819 308.6L436.978 304.833C436.324 303.528 435.978 302.09 435.968 300.631C435.968 292.39 447.487 285.431 461.118 285.431C474.749 285.431 486.267 292.421 486.267 300.631V300.817L486.205 303.776L489.095 303.14C489.623 303.023 490.162 302.964 490.702 302.961C492.014 302.967 493.302 303.317 494.437 303.975C495.572 304.633 496.515 305.577 497.172 306.712L498.104 308.32L498.182 310.192V310.518C498.188 311.511 497.998 312.496 497.623 313.415C497.248 314.334 496.694 315.171 495.995 315.876C495.296 316.581 494.464 317.141 493.548 317.524C492.632 317.906 491.649 318.105 490.656 318.107ZM384.884 318.107C378.88 318.107 373.327 315.963 369.637 312.227L368.154 310.728L366.515 312.048C363.602 314.378 357.971 315.862 351.851 315.862C345.94 315.862 340.41 314.472 337.435 312.235L335.936 311.116L334.515 312.336C331.615 314.68 327.983 315.928 324.254 315.862C321.037 315.9 317.878 315.005 315.159 313.283L313.924 312.468L312.666 313.244C309.971 314.902 306.881 315.805 303.718 315.86C300.555 315.914 297.436 315.118 294.685 313.555L293.536 312.887L292.378 313.586C289.764 315.104 286.788 315.885 283.765 315.846C276.324 315.846 270.273 311.497 270.273 306.153C270.273 301.112 275.749 296.833 282.747 296.483L284.775 296.374L284.945 294.355C285.8 284.297 293.924 276.413 303.447 276.413C313.311 276.413 321.093 283.854 321.948 294.114L322.119 296.25H324.262C330.476 296.25 335.983 299.458 337.412 303.877L338.189 306.262L340.519 305.314C344.156 303.956 348.015 303.289 351.897 303.349C355.522 303.308 359.127 303.878 362.562 305.035L365.63 306.153L365.684 302.883C365.824 294.704 374.453 288.048 384.931 288.048C395.54 288.048 404.177 294.79 404.177 303.077C404.172 304.213 404.007 305.343 403.688 306.433L403.137 308.305L402.003 309.998C398.608 315 392.069 318.107 384.884 318.107ZM514.237 313.61C509.064 313.61 504.411 311.714 502.376 308.794L501.351 307.318L501.468 305.765C501.747 301.749 507.479 298.487 514.237 298.487C521.173 298.487 527.037 301.959 527.037 306.06C527.037 310.161 521.173 313.61 514.237 313.61ZM421.762 313.61C412.962 313.61 406.849 311.505 405.824 309.982L405.731 309.842L407.02 309.112C409.902 307.489 415.688 306.433 421.778 306.433C425.954 306.365 430.117 306.925 434.127 308.095L438.158 309.431L437.677 310.044C436.488 311.528 430.78 313.61 421.762 313.61Z" fill="white"/>
<path d="M490.611 320.204C488.901 320.193 487.245 319.602 485.916 318.526C484.587 317.451 483.662 315.956 483.294 314.286L482.556 310.93L479.713 312.857C474.913 316.096 468.102 317.96 461.073 317.96C453.127 317.96 445.787 315.707 440.948 311.746L439.115 310.262L438.773 310.697L436.933 306.93C436.278 305.626 435.933 304.188 435.923 302.728C435.923 294.488 447.441 287.528 461.073 287.528C474.704 287.528 486.222 294.519 486.222 302.728V302.915L486.16 305.874L489.049 305.237C489.578 305.121 490.117 305.061 490.657 305.059C491.969 305.065 493.257 305.415 494.392 306.073C495.527 306.731 496.47 307.675 497.127 308.81L498.059 310.418L498.137 312.29V312.616C498.143 313.609 497.953 314.593 497.578 315.513C497.202 316.432 496.649 317.268 495.95 317.973C495.251 318.678 494.419 319.238 493.503 319.621C492.587 320.004 491.604 320.202 490.611 320.204ZM384.839 320.204C378.835 320.204 373.282 318.061 369.592 314.325L368.101 312.826L366.47 314.115C363.557 316.445 357.926 317.929 351.806 317.929C345.895 317.929 340.365 316.538 337.39 314.301L335.891 313.183L334.47 314.402C331.579 316.771 327.946 318.045 324.209 317.998C320.992 318.037 317.833 317.141 315.114 315.42L313.879 314.643L312.621 315.42C309.926 317.077 306.836 317.98 303.673 318.035C300.51 318.09 297.39 317.294 294.64 315.73L293.452 315.07L292.294 315.769C289.68 317.287 286.704 318.069 283.681 318.03C276.24 318.03 270.189 313.68 270.189 308.336C270.189 303.295 275.626 299.016 282.663 298.666L284.691 298.558L284.861 296.538C285.716 286.48 293.84 278.596 303.363 278.596C313.227 278.596 321.009 286.154 321.864 296.414L322.035 298.666H324.178C330.392 298.666 335.899 301.773 337.328 306.177L338.105 308.507L340.435 307.536C344.056 306.137 347.908 305.43 351.79 305.455C355.419 305.407 359.029 305.971 362.47 307.125L365.538 308.235L365.592 304.965C365.732 296.787 374.361 290.13 384.839 290.13C395.449 290.13 404.086 296.872 404.086 305.16C404.08 306.295 403.915 307.425 403.596 308.515L403.045 310.387L401.911 312.08C398.563 317.097 392.023 320.204 384.839 320.204ZM514.191 315.707C509.019 315.707 504.366 313.812 502.331 310.892L501.306 309.455L501.422 307.901C501.702 303.886 507.434 300.624 514.191 300.624C521.127 300.624 526.992 304.095 526.992 308.196C526.992 312.297 521.112 315.707 514.191 315.707ZM421.717 315.707C412.917 315.707 406.804 313.602 405.779 312.08L405.686 311.94L406.975 311.21C409.857 309.587 415.643 308.53 421.732 308.53C425.909 308.463 430.072 309.023 434.082 310.193L438.113 311.528L437.632 312.142C436.451 313.626 430.734 315.707 421.694 315.707H421.717Z" fill="#AFD5DF"/>
<path d="M297.769 293.835C298.863 293.835 299.749 292.987 299.749 291.94C299.749 290.893 298.863 290.045 297.769 290.045C296.675 290.045 295.788 290.893 295.788 291.94C295.788 292.987 296.675 293.835 297.769 293.835Z" stroke="white" stroke-width="2" stroke-miterlimit="10"/>
<path d="M302.654 295.474C302.654 295.474 302.079 292.041 305.963 291.707C309.846 291.373 317.458 296.546 317.458 296.546C317.458 296.546 311.516 292.663 309.085 295.148C306.654 297.634 302.382 297.416 302.654 295.474Z" stroke="white" stroke-width="2" stroke-miterlimit="10"/>
<path d="M394.485 301.01C395.546 300.745 396.201 299.707 395.948 298.692C395.694 297.676 394.629 297.068 393.567 297.333C392.506 297.597 391.851 298.635 392.104 299.651C392.358 300.666 393.423 301.275 394.485 301.01Z" stroke="white" stroke-width="2" stroke-miterlimit="10"/>
<path d="M390.134 303.762C390.134 303.762 389.901 300.297 386.056 300.919C382.211 301.54 376.075 308.399 376.075 308.399C376.075 308.399 380.906 303.202 383.842 305.012C386.778 306.822 390.879 305.571 390.134 303.762Z" stroke="white" stroke-width="2" stroke-miterlimit="10"/>
<path d="M360.107 242.899C360.107 242.899 362.826 247.396 359.905 249.889C356.985 252.382 354.973 253.649 351.09 250.581C347.206 247.513 350.422 250.34 350.422 250.34C350.422 250.34 344.985 246.868 343.626 243.963C342.266 241.058 342.266 237.672 341.513 236.747C340.759 235.823 337.746 232.934 334.74 231.994C331.734 231.054 329.598 229.175 331.719 226.347C333.839 223.52 341.466 225.718 342.049 226.347C342.631 226.976 344.146 228.312 345.451 228.289C346.756 228.266 349.334 226.875 354.119 232.569C354.119 232.569 355.066 235.38 354.577 236.227C354.088 237.074 357.365 234.775 361.567 234.798C365.769 234.821 371.439 238.122 369.016 241.726C366.593 245.33 361.373 241.796 361.373 241.796L360.107 242.899Z" fill="white" stroke="black" stroke-width="2" stroke-miterlimit="10"/>
<path d="M360.107 242.899C360.107 242.899 357.42 248.615 354.865 249.392C353.415 249.844 351.928 250.166 350.422 250.355" fill="white"/>
<path d="M360.109 242.899C359.99 243.593 359.797 244.273 359.534 244.926C359.275 245.596 358.961 246.243 358.594 246.86C358.165 247.594 357.642 248.271 357.041 248.872C356.879 249.029 356.708 249.177 356.528 249.315C356.348 249.47 356.15 249.603 355.938 249.711C355.731 249.844 355.506 249.946 355.27 250.014C355.069 250.08 354.864 250.132 354.656 250.169C353.968 250.311 353.269 250.397 352.567 250.425C351.864 250.478 351.157 250.444 350.462 250.324C350.462 250.324 351.239 249.982 352.38 249.548C352.947 249.322 353.615 249.074 354.307 248.817C354.625 248.718 354.926 248.572 355.2 248.382C355.34 248.29 355.475 248.189 355.604 248.08C355.745 247.968 355.878 247.846 356 247.715C356.272 247.466 356.52 247.179 356.777 246.938C357.033 246.697 357.281 246.371 357.514 246.076L358.78 244.483C359.557 243.528 360.109 242.899 360.109 242.899Z" fill="black"/>
<path d="M350.392 247.917C350.392 247.917 346.874 247.008 344.955 241.998Z" fill="white"/>
<path d="M350.39 247.917C350.258 247.929 350.126 247.929 349.994 247.917C349.651 247.901 349.312 247.841 348.984 247.738C348.524 247.595 348.087 247.386 347.687 247.117C347.229 246.811 346.811 246.448 346.444 246.037C346.106 245.628 345.814 245.183 345.575 244.709C345.466 244.476 345.365 244.243 345.279 244.025C345.194 243.808 345.147 243.575 345.101 243.381C345.02 243.052 344.976 242.716 344.969 242.379C344.969 242.138 344.969 241.998 344.969 241.998C345.067 242.08 345.161 242.169 345.248 242.262C345.427 242.433 345.637 242.689 345.901 242.977L347.648 245.043C347.967 245.4 348.278 245.765 348.588 246.091C348.899 246.417 349.202 246.72 349.466 247C349.963 247.528 350.39 247.917 350.39 247.917Z" fill="black"/>
<path d="M364.217 205.78L356.667 208.406H355.797L355.502 209.369H354.982V210.526L353.164 214.93C353.164 214.93 353.079 215.186 353.436 215.481C353.85 215.707 354.316 215.822 354.788 215.815C354.92 215.815 356.395 212.165 356.395 212.165L357.537 210.813L364.217 209.959V205.78Z" fill="#D25A24"/>
<path d="M341.552 211.893L364.923 218.308C365.087 218.572 365.19 218.869 365.226 219.178C365.161 219.441 365.042 219.687 364.876 219.9C365.097 220.171 365.33 220.43 365.575 220.677C365.84 220.941 363.944 220.289 363.944 220.289L339.75 213.92C340.228 213.859 340.7 213.75 341.156 213.594C341.218 213.485 341.226 211.916 341.389 211.916" fill="#D25A24"/>
<path d="M341.652 214.402L337.979 247.001L354.88 251.537L363.944 220.329L341.784 214.402" fill="#D25A24"/>
<path d="M314.01 240.848C319.269 240.848 323.532 236.321 323.532 230.736C323.532 225.151 319.269 220.623 314.01 220.623C308.751 220.623 304.487 225.151 304.487 230.736C304.487 236.321 308.751 240.848 314.01 240.848Z" fill="#AFD5DF"/>
<path d="M314.011 238.984C309.786 238.984 306.353 235.279 306.353 230.735C306.353 226.192 309.786 222.463 314.011 222.463C318.236 222.463 321.669 226.16 321.669 230.712C321.669 235.263 318.228 238.984 314.011 238.984Z" fill="white"/>
<path d="M312.139 227.217C312.962 227.217 313.63 226.696 313.63 226.052C313.63 225.409 312.962 224.887 312.139 224.887C311.315 224.887 310.647 225.409 310.647 226.052C310.647 226.696 311.315 227.217 312.139 227.217Z" stroke="#AFD5DF" stroke-width="0.96" stroke-miterlimit="10"/>
<path d="M315.695 225.57C316.816 226.146 317.687 227.113 318.142 228.289C318.919 230.254 317.886 233.687 319.439 232.133C320.992 230.58 320.115 231.885 320.293 230.199C320.472 228.514 315.695 225.57 315.695 225.57Z" stroke="#AFD5DF" stroke-width="0.96" stroke-miterlimit="10"/>
<path d="M318.671 268.033C323.93 268.033 328.193 263.505 328.193 257.92C328.193 252.335 323.93 247.808 318.671 247.808C313.412 247.808 309.148 252.335 309.148 257.92C309.148 263.505 313.412 268.033 318.671 268.033Z" fill="#AFD5DF"/>
<path d="M318.67 266.169C314.445 266.169 311.012 262.464 311.012 257.92C311.012 253.377 314.445 249.648 318.67 249.648C322.895 249.648 326.328 253.346 326.328 257.897C326.328 262.449 322.888 266.169 318.67 266.169Z" fill="white"/>
<path d="M316.798 254.402C317.622 254.402 318.289 253.88 318.289 253.237C318.289 252.593 317.622 252.072 316.798 252.072C315.974 252.072 315.307 252.593 315.307 253.237C315.307 253.88 315.974 254.402 316.798 254.402Z" stroke="#AFD5DF" stroke-width="0.96" stroke-miterlimit="10"/>
<path d="M320.356 252.755C321.478 253.331 322.348 254.298 322.803 255.474C323.58 257.439 322.547 260.872 324.1 259.319C325.654 257.765 324.776 259.07 324.955 257.385C325.133 255.699 320.356 252.755 320.356 252.755Z" stroke="#AFD5DF" stroke-width="0.96" stroke-miterlimit="10"/>
<path d="M317.894 210.394C321.047 210.394 323.603 207.678 323.603 204.328C323.603 200.978 321.047 198.262 317.894 198.262C314.741 198.262 312.186 200.978 312.186 204.328C312.186 207.678 314.741 210.394 317.894 210.394Z" fill="#AFD5DF"/>
<path d="M317.893 209.26C316.629 209.209 315.437 208.66 314.577 207.733C313.717 206.806 313.259 205.576 313.303 204.312C313.25 203.677 313.33 203.039 313.537 202.437C313.744 201.835 314.074 201.282 314.505 200.814C314.936 200.345 315.46 199.972 316.043 199.716C316.626 199.46 317.256 199.328 317.893 199.328C318.53 199.328 319.159 199.46 319.743 199.716C320.326 199.972 320.849 200.345 321.281 200.814C321.712 201.282 322.042 201.835 322.249 202.437C322.456 203.039 322.536 203.677 322.483 204.312C322.527 205.576 322.069 206.806 321.209 207.733C320.349 208.66 319.157 209.209 317.893 209.26Z" fill="white"/>
<path d="M316.767 202.215C317.261 202.215 317.66 201.902 317.66 201.516C317.66 201.13 317.261 200.817 316.767 200.817C316.274 200.817 315.874 201.13 315.874 201.516C315.874 201.902 316.274 202.215 316.767 202.215Z" stroke="#AFD5DF" stroke-width="0.58" stroke-miterlimit="10"/>
<path d="M318.903 201.244C319.576 201.593 320.098 202.176 320.371 202.883C320.822 204.056 320.216 206.114 321.148 205.213C322.08 204.312 321.552 205.066 321.668 204.056C321.785 203.046 318.903 201.244 318.903 201.244Z" stroke="#AFD5DF" stroke-width="0.58" stroke-miterlimit="10"/>
</svg>
