<svg id="圖層_1" data-name="圖層 1" xmlns="http://www.w3.org/2000/svg" viewBox="0 0 388 245"><defs><style>.cls-1{fill:#778087;}.cls-2{fill:#70a941;}.cls-3{fill:#d6b732;}.cls-4{fill:#848059;}.cls-5{fill:#6f4b25;}.cls-6{fill:#674521;}.cls-7{fill:#65411e;}.cls-8{fill:#7c5a3a;}.cls-9{fill:#828058;}.cls-10{fill:#c2ac80;}.cls-11{fill:#ac9380;}.cls-12{fill:#6d4820;}.cls-13{fill:#7b4a30;}.cls-14{fill:#ce1c24;}.cls-15{fill:#d99020;}.cls-16{fill:#e4d7ca;stroke:#000;stroke-miterlimit:10;stroke-width:2px;}.cls-17{font-size:23.01px;font-family:CooperBlack, Cooper Black;}.cls-18{letter-spacing:0.01em;}.cls-19{fill:#ad241c;}.cls-20{fill:#5b2814;}.cls-21{fill:#d1972f;}.cls-22{fill:#d6a65c;}.cls-23{fill:#808834;}.cls-24{fill:#7a8034;}.cls-25{fill:#fff;}</style></defs><title>burger-box</title><polygon class="cls-1" points="175.96 196.78 252.51 241.47 352.64 200.79 249.81 103.44 175.96 196.78"/><path class="cls-2" d="M201.22,27.37c-8.85,14.85-9.72,19.33-8.48,20.36,2.5,2.08,13.45-10.16,20.82-6.58,3.76,1.82,2.9,6,6.94,7.74,5.74,2.54,10.14-4.63,16.58-3.48,9.28,1.65,9.36,18.17,17.35,19.37S270.12,50.07,274.1,52c3.29,1.59-.06,13.36,2.7,14.34,3,1.06,8.62-12,13.5-10.85,2.89.66,2.28,5.57,6.17,7.36,5,2.3,11.11-3.36,12.72-1.55,1.44,1.63-3.4,6.22-1.93,8.92,2.26,4.11,16.39-1.55,18.9,2.71,1.85,3.14-4.2,9-2.32,11.23,1.71,2,7.24-2.22,10,0,3.3,2.63-1.7,10.66,1.54,13.95,3.83,3.88,14.78-3.23,17-.38,1.57,2-7.3,7.9-5.78,12,1.44,3.93,10.41,1.58,14.26,7.36,2.19,3.27.54,5.87,2.7,8.14,2.9,3,9.16,1.83,14.66,0l.33-25L308.88,33.06,209,21.23Z"/><path class="cls-3" d="M187.91,37.87a3.86,3.86,0,0,0,0,3c1.33,2.67,6.68,2.79,9.95,2.18,10.35-1.92,14.77-13.83,18.25-12.4,2.27.94,1.13,6.31,3.6,7.24,2,.76,5-2,7.45-4.91,0,0-2.05,12.91,7.2,14.46s15.68-9.6,15.68-9.6-3.85,5.21,3.6,6.5a8.42,8.42,0,0,0,5.61-.73c2.77-1.52,3-4.63,3.65-4.55,1.63.21-1.09,16.88,2.83,18.46,4.27,1.72,14.53-15.34,17.48-13.69,1.58.89-.5,6.34,1.54,7.49s5.5-4,8.48-3.1c3.82,1.2,1.57,10.79,5.92,13.17,5,2.76,14.48-6.5,16.19-4.65,1.27,1.38-3.47,7-2.06,8.53s7.21-3.12,9-1.55c2.48,2.17-5.89,13.47-3.34,16s14-5.94,15.94-3.61c1.44,1.7-3.53,7.53-2.06,9s5.91-2.94,8.23-1.55c3.93,2.35-4.31,17.56.26,21.7,4.93,4.46,20.86-7.55,23.9-3.88,2.3,2.77-4.89,11.89-2.82,13.69,1.58,1.38,6.43-3.47,8.74-2.07,1.7,1,1.93,5.43-2.06,17.57,0,0,3.53,7.36,9.13,4.65l.33-35.07L306.3,30.56l-94-12Z"/><polygon class="cls-4" points="268.7 164.75 193.25 186.44 267.03 228.81 339.78 198.59 268.7 164.75"/><path class="cls-5" d="M159.57,142.27h-9.25s-2.12-13.17,1.54-14.72,103.67-20.63,103.67-20.63l12.79,10.49v47.34l-89.93,23.44Z"/><polygon class="cls-6" points="159.57 142.27 182.71 142.27 191.96 157.19 185.28 162.13 196.59 174.82 201.22 174.82 199.37 182.83 178.59 188.28 159.57 142.27"/><polygon class="cls-6" points="268.38 117.28 251.35 127.29 251.35 139.95 264.27 153.64 264.11 159.58 268.56 164.75 268.38 117.28"/><polygon class="cls-7" points="199 57.17 268.57 117.28 290.68 78.54 287.4 75.63 216.07 41.92 199 57.17"/><polyline class="cls-8" points="268.57 117.28 290.75 78.15 271.79 66.33 288.24 52.12 375 138.79 370.5 142.27 363.87 144.59 270.19 117.28"/><polygon class="cls-6" points="316.96 83.33 290.62 78.92 290.75 78.15 317.09 82.57 316.96 83.33"/><polygon class="cls-6" points="265.23 114.57 257.52 100.04 265.23 88.61 281.24 83.57 283.16 78.73 290.68 78.54 268.57 117.28 265.23 114.57"/><polygon class="cls-9" points="268.57 117.28 268.7 164.75 353.54 197.29 369.86 145.89 268.57 117.28"/><path class="cls-10" d="M371.27,138.79s-59.76-63.55-70.56-70.52l-10.8-7L287.21,65s8.49.78,6.94,5.82-6.94,3.68-6.94,3.68L280.85,78,226.67,61.29s5-4.65,4.44-5.61-15.43-4.07-17.94-4.07-8.86,6.78-8.86,6.78-22-5.43-28-4.07-6,.39-6,.39L177.12,46s2.51.77,4,0,1.35-3.88,1.35-3.88l39.33-31L312.28,16,378.6,94.62l-.38,44.17-7.72,3.48Z"/><path class="cls-11" d="M159.57,141.5l20.44,50,79.82,45.72,93.71-39.91s25.83-50.37,26.6-51.92,1.55-6.58-1.92-6.58-7.72,3.48-7.72,3.48L266,178.7s-3.85-.78-6.55,5-2.7,4.26-2.7,4.26Z"/><path class="cls-12" d="M256.75,188s.45,3.06.92,7.67c.24,2.3.5,5,.73,7.86.11,1.44.25,2.93.35,4.44s.2,3,.31,4.59.18,3.08.26,4.59.14,3,.21,4.45c.13,2.89.22,5.58.26,7.9.11,4.62,0,7.71,0,7.71s-.45-3.06-.92-7.66c-.24-2.3-.5-5-.73-7.86-.11-1.44-.25-2.93-.34-4.45s-.21-3-.32-4.58-.17-3.08-.26-4.59-.14-3-.21-4.45c-.13-2.89-.21-5.59-.26-7.9C256.68,191.09,256.75,188,256.75,188Z"/><polygon class="cls-13" points="361.12 123.16 367.29 113.34 305.59 53.16 205.33 33.52 199 46.96 294.15 70.79 361.12 123.16"/><path class="cls-13" d="M170.37,54.71a120.17,120.17,0,0,1,33.94,3.68s5.77-5.75,7.31-6.27,19.81,2.46,19.49,3.56-4.44,5.61-4.44,5.61L280.85,78l6.36-3.48s7.66-.32,6.94-3.68-.64-5.11-6.94-5.82l2.7-3.68S309.08,73,311.85,78s59.42,60.84,59.42,60.84l7-2.33L317.09,72s-12.27-10.07-20-14.2-109.2-19.94-109.2-19.94l-5.39,4.24s.71,5-5.4,3.88Z"/><path class="cls-13" d="M287.21,74.47s6.08,1.45,6.94-3.68-6.62-6.25-6.62-6.25Z"/><polygon class="cls-13" points="303.85 70.61 311.85 77.95 313.92 75.44 303.85 70.61"/><polygon class="cls-14" points="213.98 17.32 307.65 28.62 378.6 100.43 378.34 114.38 302.51 36.11 204.31 25 213.98 17.32"/><polygon class="cls-15" points="213.98 17.51 307.65 28.71 378.6 100.43 378.6 95 312.28 15.96 221.85 11.12 212.98 17.32 213.98 17.51"/><polygon class="cls-15" points="175.16 179.62 259.65 224.57 360.3 184.1 353.54 197.29 259.83 237.2 180.01 191.48 175.16 179.62"/><path class="cls-16" d="M178.78,72.69,166.56,60.38a33,33,0,0,0,1.76-15.82C164.48,17.13,125.22,0,80.64,6.33S3,40,6.88,67.41,50,112,94.57,105.64c24.64-3.49,45.73-13.41,59-26.21Z"/><text class="cls-17" transform="matrix(0.98, -0.18, 0.18, 0.98, 25.79, 57.45)">CLI<tspan class="cls-18" x="40.64" y="0">C</tspan><tspan x="57.48" y="0">K ON </tspan></text><path class="cls-19" d="M197.12,118.26c7,2.78,3.71,1.26,17.09,4.09s29.66.22,39.28-.8,19.34-1.49,19.34-1.49l-12.76,4c-12.77,4-23.25,9.26-44,9.86s-25-.21-27.67-7.3,1.66-11.11,1.66-11.11Z"/><path class="cls-19" d="M308.9,107.24s5,.55,3.3,9.53S300.63,127.63,295,128s-11.2-1-30.33-1.26l-18.49-.26h-.65s3.75-.75,13.33-2.71,21.48-3,29.65-6.07S308.9,107.24,308.9,107.24Z"/><path class="cls-20" d="M192.9,130.77S187,139.72,191,143.69s9.9,2.2,20.49,2.1,59.69-3.41,70.81-6.19,23-5.63,28.65-8.22,6.06-6.79,3.54-9.49-27.39,3.65-40.84,4.13-18.89.82-29.38,3.68a99.74,99.74,0,0,1-37.61,2.75Z"/><polyline class="cls-21" points="309.07 147.24 304.24 132.24 192.42 146.84 189.88 154.36 309.97 148.85"/><path class="cls-22" d="M196.3,184s.33,17.44,24.46,20.2a158.52,158.52,0,0,0,54.95-3c12.06-2.85,21.7-5.78,31.66-13.17,12.59-9.33,15-18.31,15-18.31"/><path class="cls-23" d="M326.38,147.07c5.87-.18,7.15,3.08,7.81,7.24s1.42,7.8-5.1,11.83-8.2,4.42-13.65,4.39-1.75-.36-6.7,5.18-3.2,5.91-11.33,7.9-9.08-3.68-14.43.5-5.41,5.2-12.35,6.19-9.27-7.5-14.08-4.27-5.69,4.34-15.34,5.44-11.69-5.75-18.24-3.65-5.47,2.91-13.77,3-7.26-5.84-10.38-4.38-11,3.18-14,2.35-1.95-3.51-1.35-5.26-1.34-4.32-4.76-8.32-1.81-5.26.43-8,10-3.23,10-3.23l130.58-16.32"/><path class="cls-22" d="M189.94,142.13s11.79,6.86,23.62,7.77,27.2-1.14,40.68-2.32,25-3.57,33.38-4.86,11.82-2.28,15.33-2.59,2,.36,6.68-2.88l4.66-3.23s4.32.83,7.21,7.8c0,0,2.39,7.7.81,9.09s-3.2,2.72-5.88,2.22-.36-1.92-4.1.59-9.87,1.45-12.17,1.06-3.33.71-6.56,2.52-2.12,0-5.06.44-1.82.16-6.57,4-5.16,5.58-10.32,3.26-4.34-2.67-7.75-1.26-2.62,2.3-7.25,1.19-3.91-1.05-8.55.88-4.49,3.58-9.12,2.46-4.52-1.54-9.39-.56-5.45,3.94-10.14,2.13-7.68-8.33-12-6.15-2.46,5.62-7.93,3.05-8.5-4.94-9.46-10.81S189.94,142.13,189.94,142.13Z"/><polygon class="cls-24" points="216.22 174.19 220.94 174.73 225.4 174.61 224.53 177.05 220.42 176.98 216.53 176.89 216.22 174.19"/><polygon class="cls-24" points="283.62 168.04 288.35 167.79 292.67 166.92 292.42 169.51 288.4 170.13 284.58 170.71 283.62 168.04"/><polygon class="cls-24" points="284.97 173.03 289.7 172.77 294.02 171.9 293.77 174.5 289.75 175.12 285.94 175.69 284.97 173.03"/><polygon class="cls-24" points="318.35 155.07 323.59 153.94 328.13 152.16 328.86 155.22 324.56 156.66 320.47 158 318.35 155.07"/><polygon class="cls-24" points="319.17 160.47 324.41 159.34 328.94 157.56 329.68 160.62 325.38 162.06 321.29 163.4 319.17 160.47"/><polygon class="cls-24" points="215.84 179.32 219.94 180.03 223.88 180.16 222.9 182.19 219.29 181.91 215.86 181.63 215.84 179.32"/><path class="cls-22" d="M226.6,60.31c35.88-6.2,70.36,1.08,84.13,20.48s10.2,33.9-36.5,39.1-58.79,8.21-80,3.66c-9.79-2.09-11.29-14.39-6.55-27.63C193.21,80.44,207.28,63.66,226.6,60.31Z"/><ellipse class="cls-25" cx="209.36" cy="90.51" rx="1.66" ry="0.83" transform="translate(-7.04 18.44) rotate(-4.96)"/><ellipse class="cls-25" cx="231.75" cy="88.55" rx="1.66" ry="0.83" transform="translate(-6.79 20.37) rotate(-4.96)"/><ellipse class="cls-25" cx="220.23" cy="103.61" rx="1.66" ry="0.83" transform="translate(-8.14 19.43) rotate(-4.96)"/><ellipse class="cls-25" cx="234.05" cy="72.2" rx="1.66" ry="0.83" transform="translate(-5.37 20.51) rotate(-4.96)"/><ellipse class="cls-25" cx="261.82" cy="73.95" rx="1.66" ry="0.83" transform="translate(-5.41 22.92) rotate(-4.96)"/><ellipse class="cls-25" cx="265.91" cy="85.56" rx="1.66" ry="0.83" transform="translate(-6.4 23.32) rotate(-4.96)"/><ellipse class="cls-25" cx="298.97" cy="84.34" rx="1.66" ry="0.83" transform="translate(-6.17 26.17) rotate(-4.96)"/><ellipse class="cls-25" cx="282.7" cy="100.78" rx="1.66" ry="0.83" transform="translate(-7.66 24.83) rotate(-4.96)"/><ellipse class="cls-25" cx="247.62" cy="97.88" rx="1.66" ry="0.83" transform="translate(-7.54 21.78) rotate(-4.96)"/><ellipse class="cls-25" cx="197.39" cy="109.08" rx="1.66" ry="0.83" transform="translate(-8.69 17.48) rotate(-4.96)"/><ellipse class="cls-25" cx="282.62" cy="69.62" rx="1.66" ry="0.83" transform="translate(-4.96 24.7) rotate(-4.96)"/><ellipse class="cls-25" cx="261.14" cy="120.49" rx="11.18" ry="12.34" transform="translate(-10.65 26.44) rotate(-5.68)"/><ellipse cx="257.88" cy="120.55" rx="8.94" ry="9.87" transform="translate(-10.67 26.12) rotate(-5.68)"/><ellipse class="cls-25" cx="227.37" cy="124.49" rx="11.18" ry="12.34" transform="translate(-11.21 23.12) rotate(-5.68)"/><ellipse cx="224.11" cy="124.55" rx="8.94" ry="9.87" transform="translate(-11.23 22.8) rotate(-5.68)"/><text class="cls-17" transform="matrix(0.98, -0.18, 0.18, 0.98, 38.67, 83.23)">AN ITEM</text><text/><polygon class="cls-13" points="174.61 179.28 166.9 154.87 257.67 195.66 380.8 149.11 360.3 184.1 259.65 224.57 174.61 179.28"/><path class="cls-3" d="M252.09,206.79a31.93,31.93,0,0,1-10-1.87c-6.48-2.25-5.22-9.76-4.47-13.94a8.43,8.43,0,0,1-1,.06c-3.25,0-5.78-1.94-7.63-3.36-.45-.35-1.08-.83-1.51-1.09-3.1,2.91-9.75,3.95-14.66,3.95a33.74,33.74,0,0,1-4.1-.24c-5.3-.65-6.32-8-7.14-13.91-.2-1.43-.45-3.23-.72-4.36a6.52,6.52,0,0,1-1.73.25,6,6,0,0,1-4.45-2.06c-2.27,1.76-6.46,3.81-14.06,4.59-.64.06-1.28.1-1.89.1h0c-10.16,0-8.37-8.42-13.76-14.07l-7.55-18.46a2.33,2.33,0,0,1,2.15-3.21,2.27,2.27,0,0,1,1,.24c34.06,16.72,84.62,41.3,94.88,45.68a51.49,51.49,0,0,1,4.74-6.43,2.25,2.25,0,0,1,1-.7c34.09-12.48,113.75-41.5,117-41.5A5.85,5.85,0,0,1,384,142.1a2.36,2.36,0,0,1-.24,1.23l-11.22,22a2.33,2.33,0,0,1-2.06,1.26,2.43,2.43,0,0,1-.38,0l-5-.82c-3.69-.61-5.16-3.1-6.13-4.75-.67-1.14-.86-1.34-1.08-1.38a16.61,16.61,0,0,0-.84,2.64,28.85,28.85,0,0,1-4.9,10.87c-2,2.6-4.28,3.92-6.87,3.92-4.65,0-8.44-4.33-10.7-6.91l-.64-.73a1.35,1.35,0,0,0-1-.33,7.74,7.74,0,0,0-6.16,4.52c-1.26,3.25-5.09,13.15-15.56,15.38a14.26,14.26,0,0,1-3,.35c-4.62,0-5.85-3.17-6.66-5.26-.59-1.52-1-2.49-2.06-3.13a3.54,3.54,0,0,0-1.92-.53,6.82,6.82,0,0,0-4.51,2.05c.55,3.49-.8,12.09-7.86,17.92a12.66,12.66,0,0,1-8.07,3.24c-5.94,0-10.85-5.08-14.47-9.5a8.31,8.31,0,0,0-1.72-1.7,16.26,16.26,0,0,0-.37,7.14,5.73,5.73,0,0,1-1.27,4.72C257.87,206,255.44,206.79,252.09,206.79Z"/><polygon points="245.78 144.65 242.63 153.84 252.16 151.98 245.78 144.65"/></svg>