<svg xmlns="http://www.w3.org/2000/svg" viewBox="0 0 436 527"><defs><style>.cls-1{fill:#fefefe;}.cls-1,.cls-2{stroke:#414040;stroke-miterlimit:10;stroke-width:5px;}.cls-2{fill:#da5971;}</style></defs><title>butt2</title><g id="圖層_2" data-name="圖層 2"><path class="cls-1" d="M340.28,85.77A213.26,213.26,0,0,0,332.49,48L39.25,126.84c4,32.48,45.59,47.06,45.59,47.06,119.8,87.44,239.6-11.7,271.27-42.69S340.28,85.77,340.28,85.77Z"/><g id="圖層_2-2" data-name="圖層 2"><path class="cls-1" d="M171.52,463.38s-21.12-6.26-28.46-.34-16,15.62-7,26.17,75.39,42,106.42,13.6,47.83-46.22,52.37-60.92S217.71,382,217.71,382L163.1,405.41s-8,30.72,7.25,54.49c.68,1.07,1.42,2.13,2.2,3.17.52.69,1.08,1.38,1.64,2.07a52.27,52.27,0,0,0,13,11.08"/><path class="cls-1" d="M403.7,440.63s5.27-72-53.23-44.75S372.3,518,391,500.61,403.7,440.63,403.7,440.63Z"/><path class="cls-1" d="M366.6,456c13.35-19.31,61.83-92.3,27-194.65C349,130.42,266.1,142,266.1,142l-26.36,7.9s-70.89,27.46-102,78.05a97.87,97.87,0,0,0-11.48,26.31C109.1,319,83.82,465.2,236.67,487.07c2.54.36-1.63-.25,1,0C237.67,487.11,309.63,538.31,366.6,456Z"/><path class="cls-2" d="M321.85,484.5l-13.49,26.23-26-13.37a14.56,14.56,0,1,1,13.31-25.91l.32.17.17-.33a14.44,14.44,0,0,1,25.69,13.21Z"/></g></g></svg>