<svg xmlns="http://www.w3.org/2000/svg" viewBox="0 0 473 399"><defs><style>.cls-1{fill:#fefefe;}.cls-1,.cls-2{stroke:#414040;stroke-miterlimit:10;stroke-width:5px;}.cls-2{fill:#da5971;}</style></defs><title>butt</title><g id="圖層_2" data-name="圖層 2"><path class="cls-1" d="M129.43,334.49s-21.12-6.26-28.46-.34-16,15.62-7,26.17,75.39,42,106.41,13.6S248.21,327.7,252.76,313s-77.14-59.9-77.14-59.9L121,276.52s-8,30.72,7.26,54.49c.68,1.07,1.42,2.13,2.2,3.17.52.69,1.07,1.38,1.64,2.07a52.19,52.19,0,0,0,13,11.08"/><path class="cls-1" d="M361.61,311.74s5.27-72-53.23-44.75,21.83,122.16,40.51,104.73S361.61,311.74,361.61,311.74Z"/><path class="cls-1" d="M324.5,327.15c13.36-19.31,61.84-92.3,27-194.65C306.92,1.53,224,13.1,224,13.1L197.64,21s-70.89,27.46-102,78.05a98.3,98.3,0,0,0-11.48,26.31C67,190.14,41.72,336.31,194.57,358.18c2.54.36-1.63-.25,1,0C195.57,358.22,267.53,409.42,324.5,327.15Z"/><path class="cls-2" d="M279.75,355.61l-13.48,26.23-26-13.37a14.56,14.56,0,0,1,13.31-25.91l.32.17.17-.33a14.44,14.44,0,1,1,25.69,13.21Z"/></g></svg>