<svg width="115" height="74" viewBox="0 0 115 74" fill="none" xmlns="http://www.w3.org/2000/svg">
<g clip-path="url(#clip0_705_7401)">
<mask id="path-1-inside-1_705_7401" fill="white">
<path fill-rule="evenodd" clip-rule="evenodd" d="M102.762 59.8219C110.429 53.5351 115 45.6111 115 37C115 16.5655 89.2564 0 57.5 0C25.7436 0 0 16.5655 0 37C0 57.4345 25.7436 74 57.5 74C70.6747 74 82.8146 71.1488 92.5106 66.353L105.205 70.1647L102.762 59.8219Z"/>
</mask>
<path fill-rule="evenodd" clip-rule="evenodd" d="M102.762 59.8219C110.429 53.5351 115 45.6111 115 37C115 16.5655 89.2564 0 57.5 0C25.7436 0 0 16.5655 0 37C0 57.4345 25.7436 74 57.5 74C70.6747 74 82.8146 71.1488 92.5106 66.353L105.205 70.1647L102.762 59.8219Z" fill="#FEFEFE"/>
<path d="M102.762 59.8219L102.128 59.0487L101.645 59.4444L101.789 60.0518L102.762 59.8219ZM92.5106 66.353L92.7982 65.3953L92.4206 65.2819L92.0673 65.4567L92.5106 66.353ZM105.205 70.1647L104.918 71.1224L106.577 71.6205L106.178 69.9348L105.205 70.1647ZM114 37C114 45.2308 109.633 52.8938 102.128 59.0487L103.396 60.5952C111.224 54.1763 116 45.9913 116 37H114ZM57.5 1C73.2153 1 87.3962 5.10079 97.6175 11.678C107.849 18.262 114 27.2379 114 37H116C116 26.3276 109.279 16.8035 98.6998 9.99611C88.1102 3.18194 73.5411 -1 57.5 -1V1ZM1 37C1 27.2379 7.15058 18.262 17.3825 11.678C27.6038 5.10079 41.7847 1 57.5 1V-1C41.4589 -1 26.8898 3.18194 16.3002 9.99611C5.72124 16.8035 -1 26.3276 -1 37H1ZM57.5 73C41.7847 73 27.6038 68.8992 17.3825 62.322C7.15058 55.738 1 46.7621 1 37H-1C-1 47.6724 5.72124 57.1965 16.3002 64.0039C26.8898 70.8181 41.4589 75 57.5 75V73ZM92.0673 65.4567C82.5218 70.178 70.5358 73 57.5 73V75C70.8137 75 83.1074 72.1196 92.954 67.2494L92.0673 65.4567ZM105.493 69.2069L92.7982 65.3953L92.223 67.3108L104.918 71.1224L105.493 69.2069ZM101.789 60.0518L104.232 70.3945L106.178 69.9348L103.735 59.5921L101.789 60.0518Z" fill="black" mask="url(#path-1-inside-1_705_7401)"/>
</g>
<defs>
<clipPath id="clip0_705_7401">
<rect width="115" height="74" fill="white"/>
</clipPath>
</defs>
</svg>
