<svg width="1948" height="238" viewBox="0 0 1948 238" fill="none" xmlns="http://www.w3.org/2000/svg">
<rect y="149" width="1946" height="89" fill="#E17838"/>
<rect y="74.9893" width="49.9193" height="37.5955" fill="#252424"/>
<rect x="49.9197" y="74.9893" width="49.9193" height="37.5955" fill="#E8E8E8"/>
<rect x="99.8398" y="75.646" width="49.9193" height="36.1685" fill="#252424"/>
<rect x="149.76" y="75.646" width="49.9193" height="36.1685" fill="#E8E8E8"/>
<rect x="49.9197" y="111.815" width="49.9193" height="36.1685" fill="#252424"/>
<rect y="111.815" width="49.9193" height="36.1685" fill="#E8E8E8"/>
<rect x="149.76" y="111.815" width="49.9193" height="36.1685" fill="#252424"/>
<rect x="99.8398" y="111.815" width="49.9193" height="36.1685" fill="#E8E8E8"/>
<rect x="199.665" y="74.877" width="49.6628" height="38.4776" fill="#252424"/>
<rect x="249.597" y="74.9941" width="49.9193" height="37.6756" fill="#E8E8E8"/>
<rect x="299.517" y="75.6465" width="49.9193" height="36.1685" fill="#252424"/>
<rect x="349.437" y="75.6465" width="49.9193" height="36.1685" fill="#E8E8E8"/>
<rect x="249.597" y="111.815" width="49.9193" height="36.1685" fill="#252424"/>
<rect x="199.677" y="111.815" width="49.9193" height="36.1685" fill="#E8E8E8"/>
<rect x="349.437" y="111.815" width="49.9193" height="36.1685" fill="#252424"/>
<rect x="299.517" y="111.815" width="49.9193" height="36.1685" fill="#E8E8E8"/>
<rect x="399.356" y="75.7593" width="49.9193" height="36.1685" fill="#252424"/>
<rect x="449.275" y="75.7593" width="49.9193" height="36.1685" fill="#E8E8E8"/>
<rect x="499.193" y="75.6465" width="49.9193" height="36.1685" fill="#252424"/>
<rect x="549.113" y="75.6465" width="49.9193" height="36.1685" fill="#E8E8E8"/>
<rect x="449.275" y="111.815" width="49.9193" height="36.1685" fill="#252424"/>
<rect x="399.356" y="111.815" width="49.9193" height="36.1685" fill="#E8E8E8"/>
<rect x="549.113" y="111.815" width="49.9193" height="36.1685" fill="#252424"/>
<rect x="499.193" y="111.815" width="49.9193" height="36.1685" fill="#E8E8E8"/>
<rect x="599.033" y="75.7593" width="49.9193" height="36.1685" fill="#252424"/>
<rect x="648.954" y="75.7593" width="49.9193" height="36.1685" fill="#E8E8E8"/>
<rect x="698.872" y="75.6465" width="49.9193" height="36.1685" fill="#252424"/>
<rect x="748.792" y="75.6465" width="49.9193" height="36.1685" fill="#E8E8E8"/>
<rect x="648.954" y="111.815" width="49.9193" height="36.1685" fill="#252424"/>
<rect x="599.033" y="111.815" width="49.9193" height="36.1685" fill="#E8E8E8"/>
<rect x="748.792" y="111.815" width="49.9193" height="36.1685" fill="#252424"/>
<rect x="698.872" y="111.815" width="49.9193" height="36.1685" fill="#E8E8E8"/>
<rect x="798.71" y="75.7593" width="49.9193" height="36.1685" fill="#252424"/>
<rect x="848.63" y="75.7593" width="49.9193" height="36.1685" fill="#E8E8E8"/>
<rect x="898.55" y="75.6465" width="49.9193" height="36.1685" fill="#252424"/>
<rect x="948.47" y="75.6465" width="49.9193" height="36.1685" fill="#E8E8E8"/>
<rect x="848.63" y="111.815" width="49.9193" height="36.1685" fill="#252424"/>
<rect x="798.71" y="111.815" width="49.9193" height="36.1685" fill="#E8E8E8"/>
<rect x="948.47" y="111.815" width="49.9193" height="36.1685" fill="#252424"/>
<rect x="898.55" y="111.815" width="49.9193" height="36.1685" fill="#E8E8E8"/>
<rect x="998.386" y="74.9893" width="49.9193" height="36.1685" fill="#252424"/>
<rect x="1048.31" y="74.9893" width="49.9193" height="36.1685" fill="#E8E8E8"/>
<rect x="1098.23" y="74.877" width="49.9193" height="36.1685" fill="#252424"/>
<rect x="1148.15" y="74.877" width="49.9193" height="36.1685" fill="#E8E8E8"/>
<rect x="1048.31" y="111.045" width="49.9193" height="36.1685" fill="#252424"/>
<rect x="998.386" y="111.045" width="49.9193" height="36.1685" fill="#E8E8E8"/>
<rect x="1148.15" y="111.045" width="49.9193" height="36.1685" fill="#252424"/>
<rect x="1098.23" y="111.045" width="49.9193" height="36.1685" fill="#E8E8E8"/>
<rect x="1198.06" y="74.9893" width="49.9193" height="36.1685" fill="#252424"/>
<rect x="1247.98" y="74.9893" width="49.9193" height="36.1685" fill="#E8E8E8"/>
<rect x="1297.9" y="75.646" width="49.9193" height="36.1685" fill="#252424"/>
<rect x="1347.82" y="75.646" width="49.9193" height="36.1685" fill="#E8E8E8"/>
<rect x="1247.98" y="111.815" width="49.9193" height="36.1685" fill="#252424"/>
<rect x="1198.06" y="111.815" width="49.9193" height="36.1685" fill="#E8E8E8"/>
<rect x="1347.82" y="111.815" width="49.9193" height="36.1685" fill="#252424"/>
<rect x="1297.9" y="111.815" width="49.9193" height="36.1685" fill="#E8E8E8"/>
<rect x="1397.74" y="74.9893" width="49.9193" height="36.1685" fill="#252424"/>
<rect x="1447.66" y="74.9893" width="49.9193" height="36.1685" fill="#E8E8E8"/>
<rect x="1497.58" y="75.646" width="49.9193" height="36.1685" fill="#252424"/>
<rect x="1547.5" y="75.646" width="49.9193" height="36.1685" fill="#E8E8E8"/>
<rect x="1447.66" y="111.815" width="49.9193" height="36.1685" fill="#252424"/>
<rect x="1397.74" y="111.815" width="49.9193" height="36.1685" fill="#E8E8E8"/>
<rect x="1547.5" y="111.815" width="49.9193" height="36.1685" fill="#252424"/>
<rect x="1497.58" y="111.815" width="49.9193" height="36.1685" fill="#E8E8E8"/>
<rect x="1597.42" y="74.9893" width="49.9193" height="36.1685" fill="#252424"/>
<rect x="1647.34" y="74.9893" width="49.9193" height="36.1685" fill="#E8E8E8"/>
<rect x="1697.26" y="75.6465" width="49.9193" height="36.1685" fill="#252424"/>
<rect x="1747.18" y="75.6465" width="49.9193" height="36.1685" fill="#E8E8E8"/>
<rect x="1796.81" y="75.6465" width="49.9193" height="36.1685" fill="#252424"/>
<rect x="1896.05" y="75.6465" width="49.9193" height="36.1685" fill="#252424"/>
<rect x="1846.73" y="75.6465" width="49.9193" height="36.1685" fill="#E8E8E8"/>
<rect x="1647.34" y="111.815" width="49.9193" height="36.1685" fill="#252424"/>
<rect x="1597.42" y="111.815" width="49.9193" height="36.1685" fill="#E8E8E8"/>
<rect x="1747.18" y="111.815" width="49.9193" height="36.1685" fill="#252424"/>
<rect x="1697.26" y="111.815" width="49.9193" height="36.1685" fill="#E8E8E8"/>
<rect x="1846.73" y="111.298" width="49.9193" height="36.1685" fill="#252424"/>
<rect x="1796.81" y="111.298" width="49.9193" height="36.1685" fill="#E8E8E8"/>
<rect x="1896.05" y="111.298" width="49.9193" height="36.1685" fill="#E8E8E8"/>
<line y1="-0.5" x2="1945.97" y2="-0.5" transform="matrix(1 -0.000395458 0.000685956 1 0 148.754)" stroke="black"/>
<line y1="75.1465" x2="1945.97" y2="75.1465" stroke="black"/>
<rect x="2.0271" y="1.1123" width="49.9193" height="37.5955" fill="#252424"/>
<rect x="51.9468" y="1.1123" width="49.9193" height="37.5955" fill="#E8E8E8"/>
<rect x="101.867" y="1.76904" width="49.9193" height="36.1685" fill="#252424"/>
<rect x="151.787" y="1.76904" width="49.9193" height="36.1685" fill="#E8E8E8"/>
<rect x="51.9468" y="37.938" width="49.9193" height="36.1685" fill="#252424"/>
<rect x="2.0271" y="37.938" width="49.9193" height="36.1685" fill="#E8E8E8"/>
<rect x="151.787" y="37.938" width="49.9193" height="36.1685" fill="#252424"/>
<rect x="101.867" y="37.938" width="49.9193" height="36.1685" fill="#E8E8E8"/>
<rect x="201.692" y="1" width="49.6628" height="38.4776" fill="#252424"/>
<rect x="251.624" y="1.11719" width="49.9193" height="37.6756" fill="#E8E8E8"/>
<rect x="301.544" y="1.76953" width="49.9193" height="36.1685" fill="#252424"/>
<rect x="351.464" y="1.76953" width="49.9193" height="36.1685" fill="#E8E8E8"/>
<rect x="251.624" y="37.938" width="49.9193" height="36.1685" fill="#252424"/>
<rect x="201.704" y="37.938" width="49.9193" height="36.1685" fill="#E8E8E8"/>
<rect x="351.464" y="37.938" width="49.9193" height="36.1685" fill="#252424"/>
<rect x="301.544" y="37.938" width="49.9193" height="36.1685" fill="#E8E8E8"/>
<rect x="401.383" y="1.88232" width="49.9193" height="36.1685" fill="#252424"/>
<rect x="451.302" y="1.88232" width="49.9193" height="36.1685" fill="#E8E8E8"/>
<rect x="501.221" y="1.76953" width="49.9193" height="36.1685" fill="#252424"/>
<rect x="551.14" y="1.76953" width="49.9193" height="36.1685" fill="#E8E8E8"/>
<rect x="451.302" y="37.938" width="49.9193" height="36.1685" fill="#252424"/>
<rect x="401.383" y="37.938" width="49.9193" height="36.1685" fill="#E8E8E8"/>
<rect x="551.14" y="37.938" width="49.9193" height="36.1685" fill="#252424"/>
<rect x="501.221" y="37.938" width="49.9193" height="36.1685" fill="#E8E8E8"/>
<rect x="601.061" y="1.88232" width="49.9193" height="36.1685" fill="#252424"/>
<rect x="650.98" y="1.88232" width="49.9193" height="36.1685" fill="#E8E8E8"/>
<rect x="700.899" y="1.76953" width="49.9193" height="36.1685" fill="#252424"/>
<rect x="750.818" y="1.76953" width="49.9193" height="36.1685" fill="#E8E8E8"/>
<rect x="650.98" y="37.938" width="49.9193" height="36.1685" fill="#252424"/>
<rect x="601.061" y="37.938" width="49.9193" height="36.1685" fill="#E8E8E8"/>
<rect x="750.818" y="37.938" width="49.9193" height="36.1685" fill="#252424"/>
<rect x="700.899" y="37.938" width="49.9193" height="36.1685" fill="#E8E8E8"/>
<rect x="800.737" y="1.88232" width="49.9193" height="36.1685" fill="#252424"/>
<rect x="850.657" y="1.88232" width="49.9193" height="36.1685" fill="#E8E8E8"/>
<rect x="900.577" y="1.76953" width="49.9193" height="36.1685" fill="#252424"/>
<rect x="950.498" y="1.76953" width="49.9193" height="36.1685" fill="#E8E8E8"/>
<rect x="850.657" y="37.938" width="49.9193" height="36.1685" fill="#252424"/>
<rect x="800.737" y="37.938" width="49.9193" height="36.1685" fill="#E8E8E8"/>
<rect x="950.498" y="37.938" width="49.9193" height="36.1685" fill="#252424"/>
<rect x="900.577" y="37.938" width="49.9193" height="36.1685" fill="#E8E8E8"/>
<rect x="1000.41" y="1.1123" width="49.9193" height="36.1685" fill="#252424"/>
<rect x="1050.33" y="1.1123" width="49.9193" height="36.1685" fill="#E8E8E8"/>
<rect x="1100.25" y="1" width="49.9193" height="36.1685" fill="#252424"/>
<rect x="1150.17" y="1" width="49.9193" height="36.1685" fill="#E8E8E8"/>
<rect x="1050.33" y="37.1685" width="49.9193" height="36.1685" fill="#252424"/>
<rect x="1000.41" y="37.1685" width="49.9193" height="36.1685" fill="#E8E8E8"/>
<rect x="1150.17" y="37.1685" width="49.9193" height="36.1685" fill="#252424"/>
<rect x="1100.25" y="37.1685" width="49.9193" height="36.1685" fill="#E8E8E8"/>
<rect x="1200.09" y="1.1123" width="49.9193" height="36.1685" fill="#252424"/>
<rect x="1250.01" y="1.1123" width="49.9193" height="36.1685" fill="#E8E8E8"/>
<rect x="1299.93" y="1.76904" width="49.9193" height="36.1685" fill="#252424"/>
<rect x="1349.85" y="1.76904" width="49.9193" height="36.1685" fill="#E8E8E8"/>
<rect x="1250.01" y="37.938" width="49.9193" height="36.1685" fill="#252424"/>
<rect x="1200.09" y="37.938" width="49.9193" height="36.1685" fill="#E8E8E8"/>
<rect x="1349.85" y="37.938" width="49.9193" height="36.1685" fill="#252424"/>
<rect x="1299.93" y="37.938" width="49.9193" height="36.1685" fill="#E8E8E8"/>
<rect x="1399.77" y="1.1123" width="49.9193" height="36.1685" fill="#252424"/>
<rect x="1449.69" y="1.1123" width="49.9193" height="36.1685" fill="#E8E8E8"/>
<rect x="1499.61" y="1.76904" width="49.9193" height="36.1685" fill="#252424"/>
<rect x="1549.53" y="1.76904" width="49.9193" height="36.1685" fill="#E8E8E8"/>
<rect x="1449.69" y="37.938" width="49.9193" height="36.1685" fill="#252424"/>
<rect x="1399.77" y="37.938" width="49.9193" height="36.1685" fill="#E8E8E8"/>
<rect x="1549.53" y="37.938" width="49.9193" height="36.1685" fill="#252424"/>
<rect x="1499.61" y="37.938" width="49.9193" height="36.1685" fill="#E8E8E8"/>
<rect x="1599.45" y="1.1123" width="49.9193" height="36.1685" fill="#252424"/>
<rect x="1649.37" y="1.1123" width="49.9193" height="36.1685" fill="#E8E8E8"/>
<rect x="1699.28" y="1.76953" width="49.9193" height="36.1685" fill="#252424"/>
<rect x="1749.2" y="1.76953" width="49.9193" height="36.1685" fill="#E8E8E8"/>
<rect x="1798.83" y="1.76953" width="49.9193" height="36.1685" fill="#252424"/>
<rect x="1898.08" y="1.76953" width="49.9193" height="36.1685" fill="#252424"/>
<rect x="1848.75" y="1.76953" width="49.9193" height="36.1685" fill="#E8E8E8"/>
<rect x="1649.37" y="37.938" width="49.9193" height="36.1685" fill="#252424"/>
<rect x="1599.45" y="37.938" width="49.9193" height="36.1685" fill="#E8E8E8"/>
<rect x="1749.2" y="37.938" width="49.9193" height="36.1685" fill="#252424"/>
<rect x="1699.28" y="37.938" width="49.9193" height="36.1685" fill="#E8E8E8"/>
<rect x="1848.75" y="37.4214" width="49.9193" height="36.1685" fill="#252424"/>
<rect x="1798.83" y="37.4214" width="49.9193" height="36.1685" fill="#E8E8E8"/>
<rect x="1898.08" y="37.4214" width="49.9193" height="36.1685" fill="#E8E8E8"/>
<line y1="-0.5" x2="1945.97" y2="-0.5" transform="matrix(1 -0.000531881 0.000510015 1 2.0271 74.877)" stroke="black"/>
<line x1="2.0271" y1="1.26953" x2="1948" y2="1.26953" stroke="black"/>
</svg>
