<svg width="882" height="648" viewBox="0 0 882 648" fill="none" xmlns="http://www.w3.org/2000/svg">
<path fill-rule="evenodd" clip-rule="evenodd" d="M28.0646 305.994C26.6966 306.978 24.7918 310.17 28.1159 315.065C26.7899 318.002 25.4212 324.626 30.554 327.621C35.6868 330.617 40.7931 325.158 42.7046 322.054L28.0646 305.994ZM28.0794 306.01C29.1864 304.739 32.5423 303.139 37.1096 306.901C40.158 305.853 46.8817 305.104 49.3899 310.49C51.8981 315.877 45.988 320.454 42.7195 322.07L28.0794 306.01Z" fill="#9B9B9B"/>
<path d="M25.0059 300.164C22.6208 296.559 23.3741 292.635 24.0489 291.123C30.8768 291.149 32.6482 299.933 32.4158 300.869C32.1834 301.804 27.9871 304.671 25.0059 300.164Z" fill="#9B9B9B"/>
<path d="M39.2775 302.485C36.0067 299.64 36.4912 295.162 37.1423 293.278C42.6614 294.192 45.0943 299.208 45.3654 301.822C45.0726 302.515 43.3659 306.041 39.2775 302.485Z" fill="#9B9B9B"/>
<path d="M15.9681 321.173C12.3766 318.368 12.7951 315.065 13.4534 313.764C21.2791 312.816 23.3791 318.834 23.4508 321.962C22.4531 322.868 19.5597 323.978 15.9681 321.173Z" fill="#9B9B9B"/>
<path d="M22.5858 308.72C17.6727 311.613 13.2398 303.348 12.5477 303.059C13.5783 297.022 19.9024 300.425 20.2662 300.849C20.63 301.272 27.499 305.827 22.5858 308.72Z" fill="#9B9B9B"/>
<path fill-rule="evenodd" clip-rule="evenodd" d="M855.231 335.783C854.26 334.405 851.088 332.469 846.16 335.743C843.236 334.388 836.627 332.953 833.58 338.055C830.533 343.157 835.94 348.318 839.025 350.261L839.009 350.274C840.592 353.559 845.109 359.515 850.521 357.061C855.932 354.607 855.25 347.876 854.233 344.817C858.041 340.288 856.475 336.917 855.215 335.797L855.231 335.783Z" fill="#9B9B9B"/>
<path d="M861.091 332.78C864.72 330.431 868.637 331.224 870.141 331.914C870.047 338.741 861.246 340.424 860.313 340.182C859.38 339.941 856.555 335.716 861.091 332.78Z" fill="#9B9B9B"/>
<path d="M858.628 347.027C861.505 343.785 865.979 344.315 867.856 344.985C866.886 350.494 861.846 352.877 859.23 353.122C858.54 352.822 855.031 351.08 858.628 347.027Z" fill="#9B9B9B"/>
<path d="M840.175 323.533C843.016 319.969 846.315 320.421 847.609 321.092C848.479 328.927 842.44 330.966 839.312 331.007C838.416 330 837.335 327.096 840.175 323.533Z" fill="#9B9B9B"/>
<path d="M852.561 330.275C849.717 325.333 858.026 320.983 858.322 320.294C864.349 321.385 860.883 327.675 860.455 328.034C860.028 328.394 855.405 335.217 852.561 330.275Z" fill="#9B9B9B"/>
</svg>
