<svg width="64" height="17" viewBox="0 0 64 17" fill="none" xmlns="http://www.w3.org/2000/svg">
<path d="M31.8875 16.5725C49.4407 16.5725 63.6704 12.8779 63.6704 8.32033C63.6704 3.76276 49.4407 0.0681152 31.8875 0.0681152C14.3342 0.0681152 0.104492 3.76276 0.104492 8.32033C0.104492 12.8779 14.3342 16.5725 31.8875 16.5725Z" fill="#E82826"/>
<path d="M10.963 9.7282L9.64688 6.25499V10.0058C9.65349 10.0957 9.63786 10.186 9.60133 10.2684C9.5648 10.3509 9.50848 10.423 9.43747 10.4784C9.27255 10.5814 9.08215 10.6361 8.88784 10.6361C8.69353 10.6361 8.50313 10.5814 8.33821 10.4784C8.26632 10.4233 8.20896 10.3515 8.17116 10.2691C8.13335 10.1868 8.11622 10.0963 8.12131 10.0058V5.68489C8.11171 5.58496 8.13412 5.48457 8.18521 5.39825C8.23631 5.31192 8.31343 5.24415 8.40549 5.20478C8.64356 5.11186 8.89799 5.06849 9.1533 5.07726H9.66185C9.8878 5.06961 10.1138 5.08976 10.3349 5.13727C10.4606 5.16441 10.5721 5.23637 10.6489 5.3398C10.7441 5.48672 10.8196 5.64564 10.8733 5.8124L12.0623 8.81301L13.2588 5.8124C13.3125 5.64564 13.3879 5.48672 13.4832 5.3398C13.56 5.23637 13.6716 5.16441 13.7973 5.13727C14.0183 5.08976 14.2443 5.06961 14.4702 5.07726H14.9788C15.2341 5.06849 15.4885 5.11186 15.7266 5.20478C15.8187 5.24415 15.8958 5.31192 15.9469 5.39825C15.998 5.48457 16.0204 5.58496 16.0108 5.68489V10.0058C16.0155 10.0955 15.999 10.1851 15.9626 10.2673C15.9262 10.3494 15.8709 10.4217 15.8014 10.4784C15.6364 10.5904 15.4395 10.6457 15.2405 10.6359C15.0463 10.6446 14.8545 10.5893 14.6946 10.4784C14.6236 10.423 14.5673 10.3509 14.5308 10.2684C14.4942 10.186 14.4786 10.0957 14.4852 10.0058V6.25499L13.169 9.7282C13.1094 9.89982 13.0395 10.0677 12.9596 10.2308C12.8914 10.3543 12.787 10.4538 12.6606 10.5159C12.4751 10.6164 12.2653 10.6631 12.0548 10.6509C11.8891 10.6536 11.7243 10.6257 11.5687 10.5684C11.4487 10.5211 11.3413 10.4466 11.2547 10.3508C11.181 10.2626 11.1206 10.164 11.0752 10.0583C11.0528 9.95325 11.0079 9.84823 10.963 9.7282Z" fill="white"/>
<path d="M23.1222 5.94703H19.3831V7.3198H22.8305C23.0241 7.30736 23.2175 7.34616 23.3914 7.43232C23.4477 7.45937 23.4952 7.50196 23.5283 7.55509C23.5614 7.60823 23.5788 7.66972 23.5784 7.73237C23.5778 7.7939 23.5609 7.85417 23.5293 7.90693C23.4978 7.95969 23.4528 8.00303 23.3989 8.03245C23.2244 8.12504 23.0275 8.16661 22.8305 8.15246H19.3831V9.70528H23.2867C23.4908 9.69085 23.6951 9.73234 23.8775 9.82531C23.9377 9.85384 23.9886 9.89896 24.0243 9.95541C24.0599 10.0119 24.0789 10.0773 24.0789 10.1441C24.0789 10.211 24.0599 10.2764 24.0243 10.3328C23.9886 10.3893 23.9377 10.4344 23.8775 10.4629C23.6951 10.5559 23.4908 10.5974 23.2867 10.583H18.7998C18.5412 10.5963 18.2835 10.542 18.052 10.4254C17.9717 10.367 17.908 10.2884 17.8673 10.1976C17.8267 10.1068 17.8104 10.0069 17.8201 9.90784V5.8045C17.8103 5.66636 17.8472 5.5289 17.9248 5.4144C18.0061 5.30433 18.1221 5.22504 18.2539 5.18937C18.4417 5.1398 18.6356 5.11707 18.8298 5.12185H23.2119C23.4161 5.10626 23.6206 5.14782 23.8026 5.24188C23.8616 5.26864 23.9117 5.31187 23.9468 5.36642C23.9819 5.42097 24.0005 5.48453 24.0005 5.54945C24.0005 5.61437 23.9819 5.6779 23.9468 5.73245C23.9117 5.787 23.8616 5.83023 23.8026 5.85699C23.591 5.95858 23.3528 5.99012 23.1222 5.94703Z" fill="white"/>
<path d="M28.126 9.7282L26.8099 6.25499V10.0058C26.8165 10.0957 26.8009 10.186 26.7643 10.2684C26.7278 10.3509 26.6716 10.423 26.6006 10.4784C26.4356 10.5814 26.2451 10.6361 26.0508 10.6361C25.8565 10.6361 25.6661 10.5814 25.5012 10.4784C25.4293 10.4233 25.372 10.3515 25.3342 10.2691C25.2964 10.1868 25.2793 10.0963 25.2844 10.0058V5.68489C25.2748 5.58496 25.2971 5.48457 25.3482 5.39825C25.3993 5.31192 25.4765 5.24415 25.5686 5.20478C25.8067 5.11186 26.0611 5.06849 26.3164 5.07726H26.8249C27.0508 5.06961 27.2768 5.08976 27.4979 5.13727C27.6236 5.16441 27.7352 5.23637 27.812 5.3398C27.9072 5.48672 27.9826 5.64564 28.0363 5.8124L29.2328 8.81301L30.4219 5.8124C30.4756 5.64564 30.5509 5.48672 30.6462 5.3398C30.723 5.23637 30.8346 5.16441 30.9603 5.13727C31.1813 5.08976 31.4074 5.06961 31.6333 5.07726H32.1418C32.3971 5.06849 32.6515 5.11186 32.8896 5.20478C32.9817 5.24415 33.0589 5.31192 33.11 5.39825C33.1611 5.48457 33.1834 5.58496 33.1738 5.68489V10.0058C33.1785 10.0955 33.162 10.1851 33.1256 10.2673C33.0892 10.3494 33.0339 10.4217 32.9644 10.4784C32.7994 10.5904 32.6025 10.6457 32.4035 10.6359C32.2093 10.6446 32.0175 10.5893 31.8576 10.4784C31.7866 10.423 31.7304 10.3509 31.6938 10.2684C31.6573 10.186 31.6417 10.0957 31.6483 10.0058V6.25499L30.3321 9.7282C30.2725 9.89982 30.2026 10.0677 30.1227 10.2308C30.0544 10.3543 29.95 10.4538 29.8236 10.5159C29.6404 10.6154 29.4333 10.6621 29.2253 10.6509C29.0571 10.6542 28.8898 10.6262 28.7318 10.5684C28.6118 10.5211 28.5043 10.4466 28.4177 10.3508C28.344 10.2626 28.2836 10.164 28.2382 10.0583C28.2158 9.95325 28.1709 9.84823 28.126 9.7282Z" fill="white"/>
<path d="M38.3874 10.5534H35.8897C35.6308 10.5692 35.3725 10.5148 35.1419 10.3959C35.0632 10.3359 35.0007 10.2571 34.9602 10.1667C34.9197 10.0763 34.9025 9.9771 34.9101 9.87825V5.77491C34.902 5.67418 34.9198 5.57306 34.9617 5.48115C35.0036 5.38924 35.0681 5.30959 35.1494 5.2498C35.3797 5.13013 35.6383 5.07568 35.8972 5.09227H38.5445C38.8842 5.08801 39.2239 5.10556 39.5615 5.14479C39.8187 5.16949 40.0707 5.23271 40.3093 5.33233C40.4953 5.4026 40.6693 5.50128 40.8252 5.62487C40.965 5.73025 41.0821 5.86296 41.1693 6.01497C41.2431 6.15343 41.2816 6.30803 41.2815 6.46504C41.2815 7.01265 40.8776 7.41024 40.055 7.66529C41.1319 7.89034 41.6703 8.34043 41.6703 9.00056C41.6654 9.3112 41.5392 9.60752 41.3188 9.82574C41.0531 10.0838 40.7263 10.2697 40.3691 10.3658C40.0872 10.4404 39.7995 10.4906 39.5091 10.5159C39.2025 10.5384 38.8211 10.5534 38.3874 10.5534ZM36.5403 5.92495V7.32023H38.0359C38.3567 7.32964 38.6776 7.30448 38.9931 7.24521C39.1944 7.2077 39.3766 7.10173 39.5091 6.94515C39.5547 6.89868 39.5909 6.8436 39.6152 6.78309C39.6396 6.72258 39.6519 6.65784 39.6512 6.59258C39.6536 6.46383 39.6107 6.33837 39.53 6.23822C39.4493 6.13807 39.336 6.06963 39.21 6.04496C38.7696 5.93828 38.3167 5.89285 37.8639 5.90994L36.5403 5.92495ZM38.2678 8.13038H36.5403V9.72821H38.3201C39.4418 9.72821 40.0027 9.45817 40.0027 8.91806C40.0052 8.78432 39.9643 8.65338 39.8861 8.54509C39.8078 8.4368 39.6965 8.35705 39.569 8.31792C39.1444 8.16861 38.6945 8.10488 38.2453 8.13038H38.2678Z" fill="white"/>
<path d="M48.5197 5.94717H44.7807V7.31994H48.2206C48.4165 7.30758 48.6123 7.34634 48.7889 7.43246C48.8453 7.45951 48.8928 7.50209 48.9259 7.55523C48.959 7.60837 48.9763 7.66985 48.9759 7.73251C48.9755 7.79498 48.9578 7.85611 48.9248 7.90908C48.8918 7.96206 48.8447 8.00483 48.7889 8.03259C48.6147 8.12596 48.4176 8.16757 48.2206 8.1526H44.7807V9.70542H48.6469C48.851 9.69174 49.0549 9.73319 49.2376 9.82545C49.2956 9.85597 49.3441 9.9018 49.378 9.958C49.4119 10.0142 49.4298 10.0786 49.4298 10.1443C49.4298 10.2099 49.4119 10.2743 49.378 10.3305C49.3441 10.3867 49.2956 10.4326 49.2376 10.4631C49.0549 10.5553 48.851 10.5968 48.6469 10.5831H44.16C43.9013 10.5964 43.6437 10.5422 43.4122 10.4256C43.3311 10.3675 43.2663 10.2892 43.2243 10.1985C43.1824 10.1078 43.1647 10.0077 43.1728 9.90798V5.80464C43.1668 5.66688 43.2033 5.5306 43.2776 5.41454C43.3619 5.30436 43.4803 5.22525 43.6141 5.1895C43.8019 5.13994 43.9957 5.11721 44.1899 5.12199H48.5721C48.7739 5.10741 48.9756 5.14895 49.1553 5.24202C49.2143 5.26878 49.2644 5.31201 49.2995 5.36656C49.3346 5.42111 49.3532 5.48467 49.3532 5.54959C49.3532 5.6145 49.3346 5.67804 49.2995 5.73259C49.2644 5.78714 49.2143 5.83037 49.1553 5.85713C48.9571 5.94991 48.7358 5.98127 48.5197 5.94717Z" fill="white"/>
<path d="M52.9837 8.22058H52.4004V9.97594C52.4082 10.0737 52.3909 10.1718 52.3503 10.2611C52.3098 10.3503 52.2472 10.4277 52.1686 10.486C51.9908 10.6013 51.7819 10.6589 51.5703 10.6511C51.3526 10.6625 51.1372 10.6019 50.9571 10.4785C50.8843 10.4176 50.8267 10.3404 50.7891 10.2531C50.7514 10.1658 50.7346 10.0709 50.7402 9.97594V5.77508C50.732 5.6754 50.7498 5.5753 50.7917 5.48457C50.8337 5.39383 50.8984 5.31558 50.9796 5.25747C51.2087 5.13374 51.4677 5.07658 51.7274 5.09243H54.427C54.8009 5.09243 55.115 5.09242 55.3842 5.12993C55.638 5.13899 55.8895 5.18189 56.132 5.25747C56.3748 5.31991 56.605 5.42396 56.8125 5.56503C56.998 5.68057 57.1522 5.84034 57.2612 6.03012C57.363 6.20009 57.4173 6.39445 57.4182 6.59274C57.423 6.78607 57.3781 6.97737 57.2877 7.14819C57.1973 7.31901 57.0645 7.46356 56.9022 7.56793C56.4255 7.86084 55.8884 8.04046 55.3318 8.09305C55.6368 8.19756 55.9224 8.35221 56.1768 8.55065C56.4469 8.74298 56.6974 8.96158 56.9247 9.20328C57.1074 9.39565 57.2726 9.60401 57.4182 9.8259C57.5069 9.93678 57.5661 10.0684 57.5902 10.2085C57.5887 10.2482 57.5793 10.2872 57.5627 10.3233C57.546 10.3594 57.5223 10.3917 57.493 10.4185C57.4135 10.4965 57.3158 10.5532 57.2088 10.5836C57.0768 10.6302 56.9376 10.653 56.7976 10.6511C56.6359 10.656 56.4751 10.6252 56.3265 10.5611C56.2047 10.5056 56.0933 10.4295 55.9974 10.336C55.9076 10.2535 55.7805 10.1185 55.6235 9.94593L54.9654 9.19577C54.771 8.97068 54.5557 8.76469 54.3223 8.58064C54.1511 8.4466 53.9555 8.34725 53.7465 8.28809C53.4964 8.23117 53.2398 8.20846 52.9837 8.22058ZM53.9334 5.92512H52.4378V7.42542H53.9334C54.2687 7.42985 54.6038 7.40725 54.9354 7.35789C55.1571 7.3279 55.3692 7.24843 55.5562 7.12534C55.6274 7.07313 55.6845 7.00396 55.7223 6.92407C55.7602 6.84418 55.7776 6.7561 55.773 6.66776C55.7704 6.51542 55.7087 6.37008 55.601 6.26267C55.4647 6.13969 55.3003 6.05212 55.1224 6.00762C54.7354 5.93593 54.3416 5.90826 53.9484 5.92512H53.9334Z" fill="white"/>
</svg>
