<svg width="60" height="62" viewBox="0 0 60 62" fill="none" xmlns="http://www.w3.org/2000/svg">
<path d="M58.844 15.1345C57.6946 10.6876 55.857 6.9133 53.9136 4.62632C53.7976 4.07045 53.5584 3.5469 53.2132 3.09331C52.868 2.63972 52.4255 2.26737 51.9173 2.00302C48.4464 0.50826 42.5255 6.39013 38.6991 15.127C36.4986 20.1419 35.4627 25.0148 35.6744 28.5275C30.2445 27.4664 24.6546 27.4918 19.2348 28.6022C20.0653 24.9408 20.3355 21.177 20.0364 17.4364C19.3861 7.72046 15.7186 -0.0149042 11.8469 0.246678C7.97521 0.508261 5.35878 8.60984 6.01667 18.3631C6.39476 24.0283 7.79371 29.0058 9.6615 32.1224C4.31525 35.1866 0.950195 39.5962 0.950195 44.499C0.950195 53.744 12.8904 61.2402 27.621 61.2402C42.3515 61.2402 54.2917 53.7665 54.2917 44.499C54.2917 39.1552 50.299 34.4019 44.0983 31.3376C46.3223 29.1452 48.1873 26.6237 49.626 23.8638C51.7887 28.5051 54.632 31.3825 56.9081 30.807C60.0085 30.0596 60.8932 23.0193 58.844 15.1345Z" fill="#F44920"/>
</svg>
