<svg width="64" height="17" viewBox="0 0 64 17" fill="none" xmlns="http://www.w3.org/2000/svg">
<path d="M32.1189 16.5725C49.6722 16.5725 63.9019 12.8779 63.9019 8.32033C63.9019 3.76276 49.6722 0.0681152 32.1189 0.0681152C14.5657 0.0681152 0.335938 3.76276 0.335938 8.32033C0.335938 12.8779 14.5657 16.5725 32.1189 16.5725Z" fill="#FCEFDB"/>
<path d="M21.2756 5.26722L23.7733 9.5581V5.22972C23.7574 5.00589 23.8123 4.78273 23.9303 4.59208C23.9814 4.5257 24.0472 4.47216 24.1224 4.4357C24.1977 4.39925 24.2804 4.38087 24.364 4.38204C24.4489 4.37969 24.5331 4.39748 24.6097 4.43399C24.6864 4.47049 24.7534 4.52467 24.8052 4.59208C24.9294 4.7803 24.9873 5.00472 24.9698 5.22972V10.9534C24.9698 11.591 24.7379 11.9136 24.2668 11.9136C24.1593 11.9133 24.0528 11.8929 23.9527 11.8536C23.8547 11.8112 23.7658 11.75 23.691 11.6735C23.6043 11.5839 23.5267 11.4859 23.4592 11.381L23.2498 11.0434L20.782 6.82004V11.0884C20.7968 11.3119 20.7362 11.5338 20.61 11.7185C20.5593 11.7854 20.4936 11.8392 20.4183 11.8757C20.3429 11.9122 20.26 11.9303 20.1763 11.9286C20.0897 11.9306 20.0038 11.912 19.9258 11.8742C19.8477 11.8363 19.7798 11.7804 19.7276 11.711C19.6086 11.5261 19.5511 11.3082 19.5631 11.0884V5.46977C19.5566 5.27988 19.5793 5.09013 19.6304 4.90716C19.6867 4.76117 19.7825 4.63385 19.9071 4.53957C20.0291 4.45079 20.1751 4.40111 20.3258 4.39704C20.4296 4.39377 20.5326 4.417 20.625 4.46455C20.7082 4.50673 20.7819 4.56544 20.8418 4.63709C20.9169 4.7246 20.9822 4.82021 21.0363 4.92215L21.2756 5.26722Z" fill="#B50619"/>
<path d="M30.5942 5.64172H27.6627V7.4346H30.3624C30.4433 7.42857 30.5247 7.43872 30.6017 7.46447C30.6787 7.49023 30.7499 7.53106 30.811 7.58462C30.8608 7.63779 30.8996 7.70027 30.9252 7.76849C30.9509 7.83671 30.9629 7.90932 30.9606 7.9822C30.9649 8.13155 30.9112 8.27674 30.811 8.38729C30.7515 8.44367 30.6807 8.48686 30.6034 8.514C30.5261 8.54114 30.444 8.55163 30.3624 8.54481H27.6627V10.6152H30.6989C30.7833 10.6087 30.8683 10.62 30.9482 10.6484C31.028 10.6768 31.101 10.7218 31.1625 10.7803C31.2162 10.8371 31.2579 10.9044 31.2849 10.9779C31.3119 11.0514 31.3236 11.1296 31.3195 11.2079C31.3231 11.2849 31.3109 11.3618 31.2839 11.4341C31.257 11.5063 31.2156 11.5722 31.1625 11.628C31.1 11.685 31.0268 11.729 30.9472 11.7573C30.8676 11.7856 30.7832 11.7978 30.6989 11.793H27.1617C27.0498 11.8054 26.9365 11.7923 26.8303 11.7546C26.7241 11.7169 26.6278 11.6557 26.5485 11.5754C26.4088 11.3739 26.3427 11.1301 26.3615 10.8853V5.40918C26.3555 5.23228 26.3861 5.05605 26.4513 4.89157C26.4976 4.76618 26.588 4.66213 26.7056 4.59902C26.8488 4.5346 27.0048 4.50382 27.1617 4.50901H30.5942C30.6781 4.50192 30.7626 4.51224 30.8424 4.53934C30.9221 4.56644 30.9955 4.60974 31.0578 4.66653C31.1102 4.71973 31.1511 4.7831 31.1781 4.85277C31.2051 4.92243 31.2176 4.99692 31.2148 5.07162C31.2183 5.14866 31.2063 5.2256 31.1793 5.2978C31.1523 5.37001 31.111 5.43598 31.0578 5.49171C30.9951 5.54755 30.9215 5.58971 30.8417 5.61553C30.7619 5.64136 30.6776 5.65027 30.5942 5.64172Z" fill="#B50619"/>
<path d="M36.8979 10.6459L35.8584 6.27997L34.8115 10.6459C34.7292 10.9759 34.6619 11.2085 34.6096 11.3585C34.562 11.5054 34.4769 11.6374 34.3628 11.7411C34.2319 11.8592 34.0601 11.9211 33.8842 11.9136C33.7456 11.9186 33.6084 11.8848 33.4879 11.8161C33.3807 11.7407 33.2935 11.6403 33.2336 11.5235C33.1664 11.3817 33.1138 11.2334 33.0766 11.081C33.0417 10.9059 33.0043 10.7484 32.9644 10.6084L31.9025 5.70236C31.8468 5.4915 31.8142 5.27517 31.8053 5.05722C31.7978 4.88078 31.8596 4.70844 31.9773 4.57713C32.0316 4.51553 32.0983 4.46625 32.1731 4.43261C32.2479 4.39898 32.3291 4.38175 32.411 4.38209C32.508 4.37175 32.6057 4.39135 32.6913 4.43827C32.7768 4.48519 32.846 4.55719 32.8896 4.64464C32.9902 4.88559 33.0629 5.13728 33.1065 5.3948L33.944 9.64067L34.8863 5.66484C34.9536 5.35728 35.0209 5.13224 35.0732 4.9672C35.1325 4.81009 35.2272 4.66888 35.3499 4.55463C35.4923 4.43597 35.6735 4.37448 35.8584 4.38209C35.9509 4.3762 36.0436 4.38911 36.131 4.42004C36.2184 4.45098 36.2986 4.4993 36.3669 4.56212C36.4831 4.67154 36.5705 4.80814 36.6212 4.9597C36.6661 5.10223 36.7334 5.33477 36.8082 5.66484L37.7579 9.64067L38.6029 5.3948C38.632 5.21746 38.672 5.04208 38.7226 4.86968C38.7544 4.74272 38.8189 4.62635 38.9095 4.53213C38.9598 4.4806 39.0206 4.44053 39.0877 4.41464C39.1548 4.38875 39.2266 4.37765 39.2983 4.38209C39.3791 4.38234 39.4589 4.39987 39.5324 4.4335C39.6059 4.46714 39.6715 4.5161 39.7246 4.57713C39.7846 4.64134 39.8313 4.7168 39.8621 4.79919C39.8929 4.88159 39.9072 4.96928 39.9041 5.05722C39.8939 5.27504 39.8613 5.49124 39.8069 5.70236L38.7375 10.6084C38.6627 10.9384 38.6029 11.1785 38.558 11.3585C38.5052 11.5095 38.4211 11.6476 38.3113 11.7636C38.1764 11.8778 38.0055 11.9405 37.8289 11.9405C37.6524 11.9405 37.4815 11.8778 37.3466 11.7636C37.2328 11.658 37.1457 11.5269 37.0923 11.381C37.0475 11.2235 36.9802 10.9834 36.8979 10.6459Z" fill="#B50619"/>
<path d="M45.6495 9.60322C45.6581 10.0181 45.5547 10.4276 45.3504 10.7885C45.1464 11.1442 44.8419 11.4313 44.4754 11.6137C44.0478 11.824 43.5756 11.927 43.0995 11.9137C42.5477 11.9363 42.0015 11.7954 41.5291 11.5086C41.225 11.3204 40.9689 11.0635 40.7812 10.7585C40.6125 10.4689 40.5199 10.1411 40.512 9.80578C40.5071 9.63559 40.5658 9.46969 40.6765 9.34066C40.7261 9.27973 40.789 9.2311 40.8603 9.19857C40.9316 9.16604 41.0095 9.15048 41.0878 9.15313C41.1536 9.15213 41.2189 9.16497 41.2794 9.19081C41.3399 9.21665 41.3944 9.25493 41.4393 9.30317C41.553 9.43069 41.6373 9.58181 41.6861 9.74575C41.7527 9.94703 41.8405 10.1407 41.9478 10.3234C42.0495 10.4838 42.188 10.6176 42.3516 10.7135C42.5594 10.8206 42.7912 10.8723 43.0247 10.8635C43.3655 10.8784 43.7001 10.7692 43.9669 10.5559C44.08 10.4663 44.1716 10.3524 44.235 10.2225C44.2984 10.0927 44.332 9.95033 44.3334 9.80578C44.3428 9.59207 44.2705 9.3828 44.1314 9.22066C43.9959 9.06529 43.8236 8.94661 43.6304 8.87557C43.3617 8.7737 43.0869 8.68853 42.8078 8.62052C42.406 8.52437 42.0169 8.38084 41.6487 8.19293C41.3454 8.03997 41.0875 7.80974 40.9009 7.52531C40.7064 7.20796 40.6101 6.83985 40.6242 6.46759C40.6173 6.08941 40.7185 5.71717 40.9159 5.39487C41.1099 5.06305 41.4028 4.80068 41.7534 4.64472C42.1581 4.46533 42.5973 4.37822 43.0396 4.38967C43.3881 4.38439 43.7348 4.44024 44.0641 4.5547C44.3406 4.65016 44.5949 4.8007 44.8119 4.99729C44.9864 5.16175 45.1285 5.3577 45.2307 5.5749C45.3155 5.76116 45.3613 5.96285 45.3653 6.16753C45.3648 6.34139 45.307 6.51018 45.2008 6.64762C45.1528 6.71183 45.0908 6.76415 45.0195 6.80056C44.9482 6.83698 44.8695 6.85651 44.7895 6.85766C44.7276 6.86179 44.6655 6.85255 44.6074 6.83055C44.5494 6.80855 44.4967 6.77431 44.453 6.73015C44.3476 6.60654 44.2619 6.46736 44.1988 6.31755C44.1031 6.07682 43.9608 5.85755 43.78 5.67243C43.5552 5.49592 43.2715 5.41268 42.9873 5.43988C42.6954 5.42655 42.4077 5.5139 42.1722 5.68742C42.0769 5.75726 41.9994 5.84872 41.9461 5.95433C41.8929 6.05993 41.8653 6.17668 41.8656 6.29504C41.8639 6.42756 41.9002 6.55777 41.9702 6.67012C42.0485 6.7808 42.1476 6.8751 42.2619 6.9477C42.378 7.02222 42.5038 7.08026 42.6358 7.12022C42.7555 7.16523 42.9649 7.23275 43.2565 7.31526C43.5892 7.40014 43.9163 7.50535 44.2361 7.63032C44.5054 7.73097 44.7577 7.87268 44.984 8.05042C45.1913 8.2192 45.3554 8.43525 45.4626 8.68055C45.589 8.97145 45.6528 9.28588 45.6495 9.60322Z" fill="#B50619"/>
</svg>
