<svg width="76" height="116" viewBox="0 0 76 116" fill="none" xmlns="http://www.w3.org/2000/svg">
<path d="M13.1533 110.016C13.1533 110.016 13.6469 114.51 15.1426 114.51H63.7518L65.3148 110.016H13.1533Z" fill="white" stroke="black" stroke-miterlimit="10"/>
<path d="M74.1392 16.3391C73.3429 12.5862 69.3687 9.62887 69.3687 9.62887V5.87594L39.2503 5.23794V4.40479L6.19443 5.15537V8.9083C6.19443 8.9083 2.43808 11.9106 1.68682 15.6636C0.935547 19.4165 0.935547 104.983 0.935547 104.983C0.935547 104.983 3.94062 109.487 8.44824 110.237H66.9796C71.7501 109.487 74.9355 105.021 74.9355 105.021C74.9355 105.021 74.9355 20.062 74.1392 16.3391Z" fill="#FFDA08" stroke="black" stroke-miterlimit="10"/>
<path d="M74.2233 47.0984H0.935547V63.5767H74.2233V47.0984Z" fill="#0741FF" stroke="black" stroke-miterlimit="10"/>
<path d="M0.935547 63.9517V104.481C0.935547 104.481 5.38517 109.642 8.35408 109.642H63.8808C63.8808 109.642 72.1817 108.893 73.6699 104.481C75.1581 100.069 74.4178 63.9517 74.4178 63.9517H0.935547Z" fill="#FF3204" stroke="black" stroke-miterlimit="10"/>
<path d="M69.3613 0.510254H6.5432C5.09764 0.510254 3.92578 1.68389 3.92578 3.13164V3.43872C3.92578 4.88648 5.09764 6.06011 6.5432 6.06011H69.3613C70.8069 6.06011 71.9787 4.88648 71.9787 3.43872V3.13164C71.9787 1.68389 70.8069 0.510254 69.3613 0.510254Z" fill="white" stroke="black" stroke-miterlimit="10"/>
<path d="M30.7429 91.575C30.6124 92.3265 30.2456 93.0166 29.696 93.5448C29.1902 94.0322 28.5134 94.3012 27.8115 94.2937C27.537 94.316 27.2609 94.2779 27.0025 94.1821C26.7442 94.0864 26.5099 93.9353 26.3159 93.7395C25.9531 93.2647 25.7774 92.6729 25.8223 92.0768C25.8339 91.3358 26.0021 90.6058 26.3159 89.9347C26.6026 89.2533 27.0339 88.6426 27.5797 88.1447C27.8721 87.864 28.2591 87.7037 28.664 87.6953C28.9978 87.7131 29.3252 87.7944 29.6287 87.935C30.1148 88.1297 30.3765 88.3394 30.3765 88.5716C30.3743 88.6827 30.3318 88.7892 30.2569 88.8712C30.2194 88.9111 30.1742 88.9429 30.1241 88.9648C30.0739 88.9867 30.0199 88.9982 29.9652 88.9985C29.8754 88.9853 29.7904 88.9492 29.7184 88.8936C29.4105 88.6801 29.0522 88.551 28.679 88.5192C28.4367 88.5383 28.2114 88.6511 28.0508 88.8337C27.8797 89.0113 27.7222 89.2016 27.5797 89.403C26.979 90.1649 26.65 91.106 26.6449 92.0768C26.6114 92.4452 26.6952 92.8149 26.8842 93.1328C27.0023 93.2566 27.1477 93.3509 27.3087 93.4081C27.4698 93.4654 27.642 93.4839 27.8115 93.4624C28.2687 93.4705 28.7129 93.3107 29.0603 93.013C29.4482 92.6438 29.7099 92.1616 29.8082 91.6349C29.151 91.6531 28.5036 91.7981 27.9012 92.0618C27.8458 92.0907 27.7843 92.1061 27.7218 92.1067C27.6661 92.1085 27.6107 92.0972 27.56 92.0738C27.5094 92.0504 27.4649 92.0155 27.4301 91.9719C27.3565 91.8927 27.3163 91.788 27.318 91.6798C27.3191 91.607 27.3399 91.5359 27.3781 91.4739C27.4162 91.412 27.4704 91.3615 27.5348 91.3278C28.4703 90.898 29.5 90.7149 30.5261 90.796C30.6341 90.7944 30.7386 90.8346 30.8177 90.9084C30.8925 90.9899 30.9327 91.0973 30.9299 91.208C30.9352 91.2804 30.9206 91.353 30.8877 91.4177C30.8547 91.4824 30.8046 91.5368 30.7429 91.575Z" stroke="#FFDA08" stroke-miterlimit="10"/>
<path d="M34.3325 94.2493C33.6295 94.2695 32.9443 94.0265 32.4106 93.5678C32.1402 93.3398 31.9246 93.0537 31.7796 92.7309C31.6346 92.4081 31.564 92.0567 31.573 91.7028C31.5682 90.7911 31.8595 89.9026 32.4031 89.1713C32.6502 88.7878 32.9888 88.4719 33.3883 88.2522C33.7878 88.0326 34.2357 87.916 34.6914 87.913C35.398 87.8549 36.1005 88.0662 36.6582 88.5047C36.9014 88.7648 37.0871 89.0733 37.203 89.4102C37.319 89.747 37.3627 90.1046 37.3312 90.4595C37.3431 91.3527 37.0822 92.2281 36.5834 92.9686C36.3507 93.3587 36.021 93.6817 35.6265 93.9062C35.232 94.1307 34.7862 94.2489 34.3325 94.2493ZM34.6914 88.7369C34.3535 88.7469 34.0236 88.8421 33.7321 89.0136C33.4407 89.1851 33.1971 89.4273 33.0238 89.7181C32.6119 90.2974 32.3921 90.9916 32.3956 91.7028C32.3894 91.9437 32.438 92.1829 32.5378 92.4022C32.6376 92.6215 32.7858 92.8152 32.9714 92.9686C33.3553 93.2802 33.8386 93.4425 34.3325 93.4255C34.6632 93.419 34.9862 93.3248 35.2687 93.1524C35.5511 92.98 35.7829 92.7357 35.9403 92.4443C36.3206 91.8532 36.5183 91.1627 36.5086 90.4595C36.5336 90.2176 36.5086 89.973 36.4353 89.7411C36.362 89.5092 36.2418 89.2949 36.0823 89.1114C35.6781 88.8246 35.1848 88.6917 34.6914 88.7369Z" stroke="#FFDA08" stroke-miterlimit="10"/>
<path d="M40.8985 94.2493C40.1956 94.2688 39.5106 94.0258 38.9766 93.5678C38.7072 93.3394 38.4927 93.0531 38.3489 92.7302C38.2052 92.4073 38.1361 92.0562 38.1465 91.7028C38.139 90.7919 38.4277 89.9033 38.9691 89.1713C39.2162 88.7878 39.5548 88.4719 39.9543 88.2522C40.3538 88.0326 40.8017 87.916 41.2574 87.913C41.9641 87.8549 42.6665 88.0662 43.2242 88.5047C43.4674 88.7648 43.6531 89.0733 43.7691 89.4102C43.885 89.747 43.9287 90.1046 43.8972 90.4595C43.9091 91.3527 43.6482 92.2281 43.1494 92.9686C42.9173 93.3592 42.5877 93.6826 42.1931 93.9072C41.7985 94.1317 41.3524 94.2496 40.8985 94.2493ZM41.2574 88.7369C40.9204 88.7461 40.5912 88.841 40.3008 89.0126C40.0104 89.1843 39.7683 89.427 39.5973 89.7181C39.1799 90.295 38.9573 90.9903 38.9617 91.7028C38.9554 91.9437 39.004 92.1829 39.1038 92.4022C39.2036 92.6215 39.3519 92.8152 39.5375 92.9686C39.9213 93.2802 40.4047 93.4425 40.8985 93.4255C41.2292 93.419 41.5523 93.3248 41.8347 93.1524C42.1172 92.98 42.3489 92.7357 42.5063 92.4443C42.8866 91.8532 43.0844 91.1627 43.0746 90.4595C43.0996 90.2176 43.0746 89.973 43.0013 89.7411C42.928 89.5092 42.8079 89.2949 42.6484 89.1114C42.2441 88.8246 41.7508 88.6917 41.2574 88.7369Z" stroke="#FFDA08" stroke-miterlimit="10"/>
<path d="M48.5631 93.9795C48.0232 94.297 47.4008 94.4457 46.7759 94.4064C46.5507 94.4034 46.3269 94.3707 46.1103 94.309C45.8648 94.2636 45.6309 94.1694 45.4223 94.0319H45.3849C45.3303 94.033 45.2761 94.0228 45.2256 94.0019C45.1751 93.9811 45.1294 93.95 45.0915 93.9106C45.0536 93.8712 45.0242 93.8244 45.0052 93.7731C44.9862 93.7218 44.978 93.6671 44.9811 93.6125C44.9811 93.3354 44.9811 92.9159 45.0185 92.3542C45.0559 91.7925 45.0559 91.3656 45.0559 91.0885C45.0559 90.8113 45.0559 90.302 45.0559 89.6804C45.0559 89.0588 45.0559 88.5869 45.0559 88.2723C45.0675 88.1398 45.129 88.0166 45.2279 87.9278C45.2684 87.876 45.3192 87.8333 45.3772 87.8023C45.4351 87.7714 45.4989 87.7529 45.5644 87.748C45.7885 87.8125 46.0044 87.903 46.2075 88.0177C46.6188 88.2199 46.8581 88.3248 46.9179 88.3472C47.6508 88.5888 48.3167 88.9992 48.8623 89.5456C49.1528 89.8135 49.3866 90.1373 49.5498 90.4975C49.713 90.8578 49.8021 91.2472 49.812 91.6427C49.8105 92.1023 49.6976 92.5546 49.483 92.9609C49.2707 93.3752 48.9535 93.7265 48.5631 93.9795ZM47.7256 89.7178C47.1132 89.3745 46.4815 89.0669 45.8336 88.7966V89.9575V91.1109L45.7663 93.3054C45.7991 93.3175 45.8294 93.3353 45.8561 93.3578C46.1219 93.5255 46.432 93.609 46.746 93.5975C47.2077 93.6315 47.6695 93.5328 48.0771 93.3129C48.342 93.1335 48.5558 92.8884 48.6977 92.6014C48.8504 92.313 48.93 91.9915 48.9296 91.6652C48.9134 91.2642 48.794 90.8742 48.5831 90.533C48.3721 90.1919 48.0768 89.9111 47.7256 89.7178Z" stroke="#FFDA08" stroke-miterlimit="10"/>
<path d="M37.9529 73.3146C49.7239 73.3146 59.2662 64.7633 59.2662 54.2147C59.2662 43.6661 49.7239 35.1147 37.9529 35.1147C26.1819 35.1147 16.6396 43.6661 16.6396 54.2147C16.6396 64.7633 26.1819 73.3146 37.9529 73.3146Z" fill="#FCDD00" stroke="black" stroke-miterlimit="10"/>
<path d="M37.951 69.4947C47.3678 69.4947 55.0016 62.6536 55.0016 54.2147C55.0016 45.7759 47.3678 38.9348 37.951 38.9348C28.5342 38.9348 20.9004 45.7759 20.9004 54.2147C20.9004 62.6536 28.5342 69.4947 37.951 69.4947Z" fill="#DB431D" stroke="black" stroke-miterlimit="10"/>
<path d="M37.9506 66.4386C45.4839 66.4386 51.5907 60.9658 51.5907 54.2147C51.5907 47.4636 45.4839 41.9907 37.9506 41.9907C30.4174 41.9907 24.3105 47.4636 24.3105 54.2147C24.3105 60.9658 30.4174 66.4386 37.9506 66.4386Z" fill="#FFFDFF" stroke="black" stroke-miterlimit="10"/>
<path d="M22.8967 60.8445H21.604L25.3427 50.6627H26.6154L30.354 60.8445H29.0614L26.0188 52.2735H25.9393L22.8967 60.8445ZM23.3739 56.8672H28.5842V57.961H23.3739V56.8672Z" fill="white"/>
<path d="M33.7495 48.769V50.9035C33.978 50.6502 34.2456 50.4353 34.5422 50.2669C34.8595 50.115 35.2074 50.0381 35.5592 50.0422C35.9886 50.0329 36.4117 50.1473 36.7781 50.3718C37.1387 50.6 37.4227 50.9313 37.5932 51.323C37.8029 51.7938 37.9051 52.3055 37.8924 52.8209C37.8985 53.2155 37.8482 53.609 37.7428 53.9893C37.6426 54.3209 37.4857 54.6326 37.2791 54.9105C37.0809 55.1687 36.8247 55.3766 36.5313 55.5172C36.2295 55.6594 35.9002 55.7335 35.5666 55.7344C35.3623 55.7372 35.1585 55.712 34.9609 55.6595C34.7905 55.6146 34.6269 55.5465 34.4748 55.4573C34.3531 55.3859 34.2401 55.3005 34.1383 55.2026C34.0051 55.0787 33.8802 54.9461 33.7644 54.8057V54.963C33.7815 55.1771 33.7144 55.3894 33.5775 55.5546C33.5184 55.6232 33.4447 55.6775 33.3619 55.7138C33.2791 55.7501 33.1892 55.7674 33.0989 55.7644C33.0101 55.7694 32.9213 55.7537 32.8396 55.7186C32.7579 55.6836 32.6854 55.63 32.6278 55.5621C32.4969 55.3939 32.4329 55.1831 32.4483 54.9705L32.4034 48.8664C32.3892 48.6386 32.4496 48.4125 32.5754 48.2222C32.6322 48.1506 32.7053 48.0935 32.7885 48.0558C32.8717 48.018 32.9628 48.0006 33.054 48.005C33.1462 47.9988 33.2386 48.0138 33.3242 48.0488C33.4097 48.0839 33.4861 48.1381 33.5475 48.2073C33.6796 48.3644 33.7512 48.5636 33.7495 48.769ZM33.8392 52.9183C33.8037 53.3812 33.9365 53.8414 34.2131 54.214C34.3357 54.359 34.4896 54.4742 34.6632 54.5508C34.8368 54.6273 35.0256 54.6633 35.2152 54.6559C35.3915 54.6536 35.565 54.6104 35.7219 54.5299C35.8789 54.4493 36.0151 54.3335 36.12 54.1915C36.3946 53.8094 36.5269 53.343 36.4939 52.8733C36.4987 52.5488 36.4429 52.2262 36.3294 51.9221C36.2359 51.6797 36.0782 51.4674 35.8733 51.308C35.6754 51.1654 35.4364 51.0918 35.1927 51.0983C34.9394 51.0964 34.6914 51.1722 34.4823 51.3155C34.2656 51.4795 34.0975 51.6996 33.9962 51.9521C33.8829 52.2612 33.8296 52.5891 33.8392 52.9183Z" fill="#2B5CB3" stroke="black" stroke-width="0.75" stroke-miterlimit="10"/>
<path d="M44.2498 52.8214C44.2589 53.2141 44.1955 53.6051 44.0628 53.9748C43.9489 54.314 43.7619 54.6241 43.5151 54.883C43.2683 55.1418 42.9676 55.3431 42.6345 55.4727C42.2672 55.6146 41.8765 55.6858 41.4829 55.6824C41.095 55.6905 40.7093 55.6244 40.3462 55.4877C40.0132 55.3594 39.7121 55.16 39.4638 54.9035C39.2134 54.6472 39.0198 54.341 38.8954 54.0047C38.7642 53.6369 38.6959 53.2495 38.6935 52.8588C38.6898 52.4634 38.7556 52.0705 38.8879 51.6979C39.0035 51.3604 39.1896 51.0514 39.4339 50.7917C39.6782 50.5338 39.9771 50.3341 40.3088 50.2075C40.6746 50.0698 41.0621 49.9987 41.4529 49.9978C41.846 49.9934 42.2364 50.062 42.6046 50.2C42.9401 50.3299 43.2435 50.5311 43.4939 50.7897C43.7443 51.0483 43.9359 51.3581 44.0553 51.6979C44.1851 52.0582 44.2509 52.4384 44.2498 52.8214ZM42.8513 52.8214C42.8819 52.3462 42.7471 51.8751 42.47 51.4882C42.3493 51.3352 42.1943 51.2127 42.0177 51.1308C41.841 51.0488 41.6475 51.0096 41.4529 51.0163C41.1874 51.0111 40.9266 51.0868 40.7051 51.2336C40.4879 51.3922 40.3216 51.6109 40.2265 51.8627C40.1128 52.1743 40.0595 52.5047 40.0695 52.8363C40.0631 53.1617 40.1216 53.4851 40.2415 53.7875C40.3342 54.0407 40.501 54.2599 40.7201 54.4167C40.941 54.5639 41.2028 54.6373 41.4679 54.6264C41.663 54.6333 41.8568 54.5926 42.0327 54.5077C42.2085 54.4229 42.3612 54.2966 42.4774 54.1395C42.7464 53.7604 42.8783 53.3007 42.8513 52.8363V52.8214Z" fill="#2B5CB3" stroke="black" stroke-width="0.75" stroke-miterlimit="10"/>
<path d="M48.9892 54.851V54.6712C48.8359 54.8682 48.6603 55.0467 48.4657 55.203C48.2841 55.3449 48.0791 55.4539 47.86 55.525C47.6189 55.6046 47.366 55.6426 47.1122 55.6374C46.7964 55.6432 46.4837 55.5739 46.1999 55.4352C45.9418 55.3068 45.7263 55.1066 45.5792 54.8585C45.3769 54.4633 45.2839 54.0211 45.31 53.5777V50.814C45.2901 50.5881 45.3569 50.3632 45.4969 50.1849C45.5598 50.1151 45.6373 50.06 45.7239 50.0238C45.8106 49.9875 45.9042 49.9709 45.998 49.9752C46.0923 49.9694 46.1869 49.9845 46.2748 50.0194C46.3627 50.0544 46.4418 50.1083 46.5065 50.1774C46.6513 50.3508 46.7236 50.5735 46.7084 50.7991V53.046C46.7043 53.3204 46.7319 53.5943 46.7906 53.8623C46.8378 54.0602 46.9418 54.2398 47.0898 54.3791C47.2524 54.5092 47.4579 54.5734 47.6656 54.5589C47.9037 54.5596 48.1363 54.4863 48.3311 54.3492C48.5334 54.2143 48.6899 54.021 48.7798 53.7949C48.8827 53.3712 48.9205 52.9343 48.892 52.4992V50.7991C48.8706 50.573 48.9376 50.3475 49.0789 50.1699C49.1433 50.0999 49.2221 50.0448 49.31 50.0086C49.3978 49.9724 49.4925 49.9559 49.5874 49.9602C49.6807 49.955 49.7739 49.9704 49.8605 50.0054C49.9471 50.0403 50.0249 50.0939 50.0885 50.1624C50.2279 50.3413 50.297 50.5651 50.2829 50.7916V54.836C50.2994 55.0511 50.2355 55.2647 50.1034 55.4352C50.0456 55.5007 49.9741 55.5528 49.894 55.5878C49.8139 55.6227 49.7271 55.6396 49.6398 55.6374C49.5502 55.6398 49.4612 55.623 49.3787 55.5882C49.2961 55.5533 49.2219 55.5011 49.1612 55.4352C49.03 55.2703 48.9684 55.0607 48.9892 54.851Z" fill="#2B5CB3" stroke="black" stroke-width="0.75" stroke-miterlimit="10"/>
<path d="M51.7338 50.057H51.8909V49.2181C51.8819 49.041 51.8819 48.8635 51.8909 48.6864C51.8973 48.5705 51.9306 48.4576 51.9881 48.3568C52.0435 48.2602 52.1235 48.1801 52.2199 48.1246C52.3245 48.0643 52.4432 48.0333 52.5639 48.0348C52.6528 48.0319 52.7414 48.0477 52.8238 48.0812C52.9063 48.1148 52.9808 48.1653 53.0425 48.2295C53.1366 48.3149 53.2019 48.4274 53.2294 48.5516C53.2567 48.7326 53.2717 48.9152 53.2743 49.0983V50.0495H53.7903C53.9515 50.0356 54.112 50.0838 54.239 50.1843C54.2906 50.2284 54.3316 50.2837 54.3588 50.346C54.386 50.4082 54.3987 50.4759 54.396 50.5438C54.4035 50.6241 54.3868 50.7048 54.3482 50.7755C54.3095 50.8462 54.2507 50.9038 54.1792 50.9408C53.9785 51.0258 53.7611 51.0642 53.5435 51.0531H53.2818V53.6221C53.2712 53.7892 53.2712 53.9568 53.2818 54.1239C53.2903 54.2291 53.3322 54.3289 53.4014 54.4085C53.4453 54.4493 53.4973 54.4804 53.554 54.4998C53.6107 54.5191 53.6708 54.5263 53.7305 54.5208C53.842 54.5179 53.9526 54.5003 54.0595 54.4684C54.1681 54.4463 54.278 54.4313 54.3885 54.4235C54.4461 54.424 54.5029 54.4363 54.5556 54.4595C54.6083 54.4826 54.6558 54.5162 54.6952 54.5583C54.7394 54.6023 54.7742 54.6549 54.7973 54.7128C54.8205 54.7708 54.8315 54.8329 54.8298 54.8953C54.8288 55.0086 54.7931 55.119 54.7276 55.2114C54.6621 55.3038 54.5699 55.3738 54.4633 55.4121C54.1301 55.552 53.7699 55.616 53.4089 55.5993C53.0642 55.6252 52.7194 55.5525 52.4143 55.3896C52.1961 55.2505 52.0384 55.0337 51.9731 54.783C51.8891 54.4426 51.8514 54.0924 51.8609 53.7419V51.0606H51.6815C51.5145 51.0732 51.349 51.0224 51.2178 50.9183C51.1674 50.8732 51.1273 50.8177 51.1002 50.7557C51.0731 50.6936 51.0597 50.6265 51.0608 50.5588C51.0584 50.4891 51.072 50.4198 51.1006 50.3562C51.1291 50.2926 51.1717 50.2363 51.2253 50.1918C51.3729 50.0867 51.5536 50.0388 51.7338 50.057Z" fill="#2B5CB3" stroke="black" stroke-width="0.75" stroke-miterlimit="10"/>
<path d="M29.6653 56.7974L29.1269 55.3893H24.5578L24.0193 56.8348C23.8876 57.2352 23.7067 57.6176 23.4809 57.9733C23.3898 58.0797 23.2739 58.162 23.1435 58.213C23.0131 58.2639 22.8721 58.2819 22.7331 58.2654C22.4524 58.2621 22.1841 58.1492 21.9853 57.9508C21.8842 57.8615 21.8027 57.7522 21.7461 57.6297C21.6895 57.5072 21.6589 57.3742 21.6563 57.2393C21.656 57.0766 21.6813 56.9148 21.731 56.7599C21.7834 56.5952 21.8656 56.3705 21.9853 56.0784L24.8644 48.7684L25.156 48.0195C25.2513 47.7575 25.3741 47.5064 25.5225 47.2705C25.666 47.06 25.8609 46.8896 26.0886 46.7756C26.3163 46.6615 26.5693 46.6076 26.8236 46.6189C27.0989 46.6092 27.3721 46.6711 27.6163 46.7987C27.8223 46.9108 27.999 47.0699 28.1323 47.263C28.2624 47.4534 28.3726 47.6567 28.4614 47.8697C28.5511 48.0869 28.6633 48.379 28.8053 48.746L31.7368 56.011C31.9227 56.3895 32.0416 56.7975 32.0882 57.2168C32.089 57.3578 32.0601 57.4974 32.0034 57.6264C31.9467 57.7554 31.8635 57.8711 31.7592 57.9658C31.6572 58.0703 31.5349 58.1527 31.3999 58.2081C31.2648 58.2635 31.1199 58.2906 30.974 58.2878C30.8139 58.2935 30.6547 58.2601 30.5104 58.1905C30.3863 58.1294 30.2767 58.0426 30.1888 57.9358C30.0787 57.7764 29.9859 57.6057 29.9121 57.4265C29.8224 57.2093 29.7252 56.9771 29.6653 56.7974ZM25.1785 53.6742H28.5361L26.8386 49.0306L25.1785 53.6742Z" fill="#2B5CB3" stroke="black" stroke-width="0.75" stroke-miterlimit="10"/>
<path d="M12.8994 12.6448H62.2565" stroke="black" stroke-miterlimit="10"/>
<path d="M28.2302 101.994L27.4824 100.092H27.7516L28.2452 101.477C28.2452 101.589 28.32 101.687 28.3499 101.784C28.3755 101.68 28.4079 101.577 28.4471 101.477L28.9631 100.092H29.2174L28.4695 101.994H28.2302Z" stroke="black" stroke-width="0.25" stroke-miterlimit="10"/>
<path d="M29.4648 101.994V100.092H30.8425V100.316H29.7269V100.9H30.7826V101.125H29.7269V101.769H30.8949V101.994H29.4648Z" stroke="black" stroke-width="0.25" stroke-miterlimit="10"/>
<path d="M31.2217 101.994V100.092H32.0667C32.1985 100.085 32.3304 100.102 32.4556 100.144C32.5457 100.175 32.6206 100.239 32.665 100.324C32.7191 100.409 32.7477 100.508 32.7472 100.608C32.7494 100.736 32.701 100.86 32.6126 100.953C32.5027 101.057 32.3596 101.118 32.2088 101.125C32.2624 101.152 32.3125 101.184 32.3583 101.223C32.4413 101.296 32.512 101.382 32.5677 101.477L32.9043 101.994H32.5827L32.3359 101.597C32.2787 101.506 32.2163 101.419 32.149 101.335C32.1146 101.285 32.0715 101.242 32.0218 101.208L31.9097 101.155H31.4759V102.001L31.2217 101.994ZM31.4759 100.93H32.0144C32.108 100.933 32.2014 100.92 32.291 100.893C32.3499 100.873 32.4001 100.833 32.4331 100.781C32.4683 100.73 32.4866 100.67 32.4855 100.608C32.4875 100.567 32.4798 100.526 32.4629 100.488C32.446 100.45 32.4204 100.417 32.3883 100.391C32.3002 100.325 32.1913 100.293 32.0817 100.301H31.4759V100.93Z" stroke="black" stroke-width="0.25" stroke-miterlimit="10"/>
<path d="M33.6443 101.994V101.185L32.8965 100.092H33.2031L33.577 100.661C33.6443 100.773 33.7116 100.878 33.7714 100.99C33.8337 100.873 33.9037 100.761 33.9808 100.653L34.3472 100.092H34.6389L33.8911 101.185V101.994H33.6443Z" stroke="black" stroke-width="0.25" stroke-miterlimit="10"/>
<path d="M35.5752 101.994V100.092H36.2341C36.3462 100.082 36.4589 100.082 36.571 100.092C36.6729 100.118 36.7676 100.166 36.848 100.234C36.9535 100.317 37.0318 100.429 37.0727 100.556C37.126 100.703 37.1514 100.858 37.1476 101.013C37.149 101.142 37.1339 101.27 37.1026 101.395C37.0714 101.494 37.026 101.587 36.9678 101.672C36.9222 101.74 36.8637 101.799 36.7956 101.844C36.7273 101.89 36.6511 101.923 36.571 101.942C36.469 101.954 36.366 101.954 36.264 101.942L35.5752 101.994ZM35.8298 101.77H36.2341C36.3309 101.784 36.4293 101.784 36.5261 101.77C36.5912 101.749 36.6503 101.713 36.6983 101.665C36.7635 101.597 36.8121 101.515 36.8406 101.425C36.8758 101.306 36.8935 101.182 36.893 101.058C36.9021 100.899 36.8658 100.74 36.7882 100.601C36.7393 100.503 36.6569 100.426 36.556 100.384C36.4487 100.355 36.3377 100.343 36.2266 100.347H35.8298V101.77Z" stroke="black" stroke-width="0.25" stroke-miterlimit="10"/>
<path d="M37.4951 101.994V100.092H38.8728V100.316H37.7497V100.9H38.8054V101.125H37.7497V101.769H38.9177V101.994H37.4951Z" stroke="black" stroke-width="0.25" stroke-miterlimit="10"/>
<path d="M39.252 101.994V100.092H39.5065V101.769H40.4424V101.994H39.252Z" stroke="black" stroke-width="0.25" stroke-miterlimit="10"/>
<path d="M42.1025 101.327L42.3568 101.395C42.3147 101.578 42.2151 101.744 42.0726 101.867C41.9259 101.976 41.7471 102.034 41.5641 102.031C41.3907 102.038 41.2193 101.993 41.0705 101.904C40.9338 101.817 40.8288 101.689 40.7714 101.537C40.7048 101.376 40.6718 101.202 40.6742 101.028C40.6697 100.849 40.7082 100.672 40.7863 100.511C40.855 100.367 40.9676 100.249 41.1079 100.174C41.249 100.093 41.4091 100.052 41.5715 100.054C41.7435 100.047 41.9126 100.1 42.0502 100.204C42.187 100.304 42.2827 100.45 42.3194 100.616L42.0726 100.668C42.0422 100.552 41.977 100.447 41.8856 100.369C41.7923 100.301 41.6791 100.267 41.5641 100.271C41.4341 100.268 41.3064 100.305 41.1976 100.376C41.1015 100.447 41.0307 100.547 40.9957 100.661C40.9535 100.778 40.9332 100.903 40.9359 101.028C40.9326 101.173 40.9554 101.317 41.0032 101.455C41.0429 101.566 41.1194 101.662 41.2201 101.724C41.3197 101.783 41.4334 101.814 41.5491 101.814C41.6803 101.817 41.8079 101.772 41.9081 101.687C42.0115 101.592 42.08 101.466 42.1025 101.327Z" stroke="black" stroke-width="0.25" stroke-miterlimit="10"/>
<path d="M42.709 101.994V100.092H42.9636V101.994H42.709Z" stroke="black" stroke-width="0.25" stroke-miterlimit="10"/>
<path d="M43.3295 101.066C43.3203 100.93 43.338 100.794 43.3817 100.666C43.4253 100.537 43.494 100.419 43.5838 100.317C43.6682 100.228 43.7705 100.158 43.884 100.111C43.9974 100.065 44.1194 100.043 44.2418 100.047C44.4076 100.046 44.5705 100.09 44.713 100.174C44.855 100.257 44.9695 100.379 45.042 100.526C45.1126 100.687 45.1483 100.86 45.1467 101.036C45.1493 101.217 45.111 101.396 45.0345 101.56C44.9588 101.706 44.8417 101.826 44.698 101.905C44.5582 101.982 44.4015 102.023 44.2418 102.024C44.0703 102.027 43.9016 101.98 43.7558 101.89C43.6176 101.805 43.5061 101.683 43.4342 101.538C43.3662 101.39 43.3305 101.229 43.3295 101.066ZM43.5913 101.066C43.578 101.262 43.6425 101.456 43.7707 101.605C43.8303 101.67 43.9032 101.722 43.9845 101.757C44.0657 101.792 44.1535 101.809 44.2418 101.807C44.3292 101.809 44.416 101.793 44.4961 101.758C44.5762 101.723 44.6476 101.671 44.7055 101.605C44.8369 101.445 44.9037 101.242 44.8924 101.036C44.8949 100.897 44.8668 100.758 44.8102 100.631C44.7608 100.521 44.6802 100.427 44.5783 100.362C44.4775 100.298 44.3609 100.265 44.2418 100.264C44.156 100.263 44.0707 100.279 43.9911 100.311C43.9115 100.343 43.8391 100.391 43.7782 100.452C43.7063 100.537 43.6525 100.636 43.6204 100.743C43.5882 100.85 43.5783 100.962 43.5913 101.073V101.066Z" stroke="black" stroke-width="0.25" stroke-miterlimit="10"/>
<path d="M46.7263 100.092H46.9734V101.193C46.9809 101.347 46.9606 101.502 46.9135 101.649C46.8669 101.764 46.7858 101.861 46.6814 101.927C46.5436 102.001 46.3885 102.037 46.2321 102.031C46.0793 102.034 45.9279 102.001 45.7904 101.934C45.6817 101.878 45.5966 101.785 45.5508 101.672C45.4938 101.519 45.4684 101.356 45.4759 101.193V100.092H45.7305V101.193C45.7251 101.317 45.7403 101.441 45.7754 101.56C45.8063 101.635 45.8617 101.699 45.9327 101.739C46.0192 101.78 46.114 101.801 46.2097 101.799C46.2811 101.807 46.3533 101.8 46.4217 101.778C46.4901 101.756 46.5531 101.72 46.6065 101.672C46.6995 101.53 46.7417 101.361 46.7263 101.193V100.092Z" stroke="black" stroke-width="0.25" stroke-miterlimit="10"/>
<path d="M47.3071 101.403H47.5467C47.5533 101.485 47.5789 101.565 47.6215 101.635C47.6713 101.702 47.7387 101.754 47.8162 101.785C47.9091 101.822 48.0084 101.84 48.1082 101.838C48.1923 101.854 48.2787 101.854 48.3628 101.838C48.4283 101.815 48.4856 101.773 48.5275 101.718C48.5626 101.67 48.581 101.612 48.5799 101.553C48.5824 101.496 48.5638 101.44 48.5275 101.396C48.4829 101.342 48.4228 101.302 48.3553 101.283C48.2449 101.246 48.1324 101.216 48.0184 101.193C47.8923 101.166 47.7694 101.126 47.6515 101.074C47.5683 101.034 47.4981 100.972 47.4493 100.894C47.4046 100.825 47.3811 100.744 47.3819 100.662C47.3802 100.563 47.409 100.466 47.4643 100.385C47.5233 100.299 47.6069 100.234 47.7039 100.197C47.8128 100.151 47.9301 100.128 48.0483 100.13C48.1764 100.127 48.3037 100.15 48.4227 100.197C48.5236 100.242 48.6113 100.311 48.6773 100.4C48.7329 100.49 48.7639 100.593 48.7671 100.699H48.5275C48.5187 100.593 48.4706 100.494 48.3927 100.422C48.296 100.356 48.1801 100.324 48.0633 100.332C47.9452 100.324 47.8274 100.353 47.7264 100.414C47.6952 100.438 47.6697 100.469 47.6516 100.504C47.6335 100.539 47.6232 100.577 47.6215 100.617C47.6229 100.682 47.6498 100.744 47.6964 100.789C47.8136 100.859 47.9434 100.904 48.0783 100.924C48.2208 100.953 48.361 100.993 48.4976 101.044C48.5956 101.086 48.6808 101.153 48.7447 101.238C48.7977 101.318 48.8263 101.412 48.827 101.508C48.8272 101.612 48.7959 101.714 48.7372 101.8C48.6748 101.891 48.5895 101.963 48.4901 102.01C48.3738 102.058 48.2492 102.084 48.1232 102.085C47.9751 102.087 47.8278 102.062 47.6889 102.01C47.5751 101.962 47.4785 101.881 47.4119 101.778C47.3388 101.667 47.3021 101.536 47.3071 101.403Z" stroke="black" stroke-width="0.25" stroke-miterlimit="10"/>
</svg>
