<svg width="123" height="182" viewBox="0 0 123 182" fill="none" xmlns="http://www.w3.org/2000/svg">
<path d="M17.34 175.388C17.34 175.388 18 181.388 20 181.388H85L87.09 175.388H17.34Z" fill="white" stroke="black" stroke-miterlimit="10"/>
<path d="M98.44 50.2877C97.38 45.2877 92.09 41.3477 92.09 41.3477V36.3477L52 35.5277V34.3877L8 35.3877V40.3877C8 40.3877 3 44.3877 2 49.3877C1 54.3877 1 168.388 1 168.388C1 168.388 5 174.388 11 175.388H88.91C95.26 174.388 99.5 168.438 99.5 168.438C99.5 168.438 99.5 55.2477 98.44 50.2877Z" fill="#306091" stroke="black" stroke-miterlimit="10"/>
<path d="M92.5 28.3877H8.5C6.567 28.3877 5 29.9547 5 31.8877V33.0877C5 35.0207 6.567 36.5877 8.5 36.5877H92.5C94.433 36.5877 96 35.0207 96 33.0877V31.8877C96 29.9547 94.433 28.3877 92.5 28.3877Z" fill="white" stroke="black" stroke-miterlimit="10"/>
<path d="M15 45.3877L87 44.3877" stroke="black" stroke-miterlimit="10"/>
<path d="M19.72 64.8877C19.72 64.8877 16.72 91.1877 12.72 104.328C8.67899 117.085 6.6546 130.396 6.72004 143.778C6.72004 158.238 11.72 174.018 11.72 174.018C11.72 174.018 21.72 176.648 21.72 174.018C21.72 171.388 16.22 153.638 17.22 145.748C18.22 137.858 17.22 120.748 19.22 111.558C21.22 102.368 23.22 70.8077 19.72 64.8877Z" fill="#F9FCF4" stroke="black" stroke-miterlimit="10"/>
<path d="M96.5001 71.8877C96.5001 71.8877 93.7701 95.7977 90.1301 107.758C86.4603 119.355 84.6216 131.454 84.6801 143.618C84.6801 156.778 89.2301 171.118 89.2301 171.118C89.2301 171.118 98.3201 173.508 98.3201 171.118C98.3201 168.728 93.3201 152.588 94.2301 145.418C95.1401 138.248 94.2301 122.698 96.0501 114.328C97.8701 105.958 99.7201 77.2677 96.5001 71.8877Z" fill="#F9FCF4" stroke="black" stroke-miterlimit="10"/>
<path d="M62.63 74.5874V68.1674H57.82C57.4894 68.1715 57.1648 68.079 56.886 67.9014C56.6071 67.7238 56.3861 67.4687 56.25 67.1674C55.9064 66.3787 55.7291 65.5277 55.7291 64.6674C55.7291 63.8072 55.9064 62.9561 56.25 62.1674C56.3816 61.8669 56.5988 61.6119 56.8744 61.434C57.1501 61.2562 57.472 61.1635 57.8 61.1674H70.89C71.2356 61.1531 71.577 61.2477 71.8659 61.4379C72.1548 61.6281 72.3766 61.9043 72.5 62.2274C72.889 63.3062 73.0557 64.4526 72.99 65.5974V74.5974C73.0228 76.6451 72.9226 78.6928 72.69 80.7274C72.5193 81.9894 72.183 83.2233 71.69 84.3974C71.3334 85.2973 70.7679 86.0994 70.04 86.7374C69.4312 87.2621 68.6537 87.5497 67.85 87.5474C66.1233 87.5474 64.8133 86.4608 63.92 84.2874C63.07 82.1074 62.63 78.8874 62.63 74.5874ZM70.41 72.8874V68.1674H65.22V72.8874C65.2108 74.2725 65.3044 75.6563 65.5 77.0274C65.5977 77.9193 65.8804 78.781 66.33 79.5574C66.4841 79.8244 66.7056 80.0462 66.9724 80.2006C67.2391 80.355 67.5418 80.4367 67.85 80.4374C68.2528 80.4131 68.6399 80.2727 68.9647 80.0331C69.2894 79.7936 69.5379 79.4651 69.68 79.0874C70.1667 78.0874 70.41 76.0208 70.41 72.8874Z" fill="white"/>
<path d="M63.28 102.798V100.338H57.82C57.4856 100.348 57.1555 100.259 56.8722 100.081C56.589 99.9024 56.3653 99.6437 56.2301 99.3376C55.872 98.5716 55.6973 97.7328 55.7201 96.8876C55.6738 95.9932 55.8562 95.1019 56.25 94.2976C56.3977 94.0112 56.6236 93.7727 56.9016 93.6098C57.1796 93.4469 57.4981 93.3664 57.82 93.3776H70.89C71.2279 93.3629 71.5623 93.4504 71.8495 93.6289C72.1368 93.8073 72.3635 94.0682 72.5 94.3776C72.8941 95.4239 73.0644 96.5413 73 97.6576V109.048C73 110.618 73.0001 111.968 72.9001 113.048C72.845 114.056 72.7112 115.06 72.5 116.048C72.2981 117.048 71.9617 118.017 71.5 118.928C71.1609 119.662 70.6621 120.311 70.0401 120.828C69.5487 121.239 68.9307 121.468 68.2901 121.478C67.6333 121.441 67.001 121.216 66.4689 120.829C65.9368 120.443 65.5275 119.911 65.2901 119.298C64.3738 117.201 63.829 114.961 63.68 112.678C63.3577 113.921 62.8771 115.117 62.25 116.238C61.6659 117.29 60.997 118.294 60.25 119.238C59.6682 119.985 59.0224 120.681 58.32 121.318C57.74 121.808 57.32 122.058 57.13 122.058C56.992 122.041 56.8596 121.993 56.7434 121.916C56.6271 121.84 56.5301 121.738 56.46 121.618C56.2096 121.259 56.0329 120.855 55.9401 120.428C55.8088 119.857 55.745 119.273 55.75 118.688C55.7308 118.011 55.8219 117.335 56.02 116.688C56.1848 116.198 56.417 115.733 56.71 115.308C56.99 114.918 57.4001 114.398 57.9401 113.738L60.24 110.928C60.9649 110.091 61.6078 109.187 62.1601 108.228C62.5844 107.476 62.8881 106.663 63.06 105.818C63.2309 104.82 63.3046 103.809 63.28 102.798ZM70.4101 106.798V100.338H65.75V106.618C65.7364 108.034 65.8065 109.45 65.96 110.858C66.0347 111.773 66.2824 112.665 66.6901 113.488C66.8156 113.759 67.016 113.988 67.2675 114.149C67.519 114.311 67.8113 114.397 68.1101 114.398C68.3606 114.386 68.6045 114.314 68.8206 114.186C69.0367 114.059 69.2184 113.881 69.35 113.668C69.7559 113.064 70.0317 112.383 70.1601 111.668C70.3786 110.054 70.4622 108.425 70.4101 106.798Z" fill="white"/>
<path d="M73.29 143.337C73.3452 146.448 72.9853 149.552 72.22 152.567C71.7307 154.737 70.6984 156.746 69.22 158.407C68.6243 159.04 67.9052 159.544 67.1072 159.888C66.3091 160.232 65.449 160.409 64.58 160.407C63.3029 160.422 62.0526 160.041 61 159.317C59.8188 158.478 58.8609 157.362 58.21 156.067C57.3396 154.393 56.7293 152.596 56.4 150.737C55.5467 145.938 55.5467 141.026 56.4 136.227C56.7223 134.368 57.3224 132.568 58.18 130.887C58.8419 129.597 59.806 128.485 60.99 127.647C62.0395 126.932 63.2799 126.549 64.55 126.547C65.8367 126.541 67.0927 126.94 68.14 127.687C69.3184 128.556 70.2717 129.695 70.92 131.007C71.7611 132.672 72.354 134.451 72.68 136.287C73.1047 138.613 73.3089 140.973 73.29 143.337ZM64.55 153.337C65.7444 153.356 66.9003 152.915 67.78 152.107C68.7783 151.153 69.4945 149.942 69.85 148.607C70.3427 146.912 70.5786 145.153 70.55 143.387C70.5584 142.084 70.431 140.784 70.17 139.507C69.9507 138.433 69.5697 137.398 69.04 136.437C68.5736 135.63 67.9225 134.945 67.14 134.437C66.3669 133.944 65.4669 133.687 64.55 133.697C63.6239 133.688 62.7146 133.945 61.93 134.437C61.1236 134.971 60.458 135.691 59.99 136.537C59.4517 137.51 59.064 138.559 58.84 139.647C58.5741 140.917 58.4467 142.211 58.46 143.507C58.4435 145.177 58.6657 146.841 59.12 148.447C59.4627 149.798 60.1521 151.035 61.12 152.037C61.5804 152.463 62.1207 152.792 62.7096 153.007C63.2984 153.221 63.924 153.317 64.55 153.287V153.337Z" fill="white"/>
<path d="M46.57 64.4375V71.2475C46.5875 72.7689 46.4939 74.2897 46.29 75.7975C46.1414 76.99 45.8038 78.1512 45.29 79.2375C43.99 81.9041 42.0167 83.2375 39.37 83.2375C38.5455 83.2699 37.7219 83.1513 36.94 82.8875C36.2093 82.6175 35.5445 82.1947 34.99 81.6475C34.3599 81.0101 33.8335 80.2779 33.43 79.4775C33.0681 78.7572 32.7864 77.9993 32.59 77.2175C32.372 76.3471 32.2215 75.4611 32.14 74.5675C32.05 73.6275 32.01 72.5675 32.01 71.3775V64.5775C31.9821 63.8528 32.063 63.1281 32.25 62.4275C32.3518 62.0376 32.5986 61.7014 32.94 61.4875C33.3025 61.3303 33.6952 61.2552 34.09 61.2675H44.76C45.0385 61.2502 45.3161 61.3124 45.5604 61.447C45.8048 61.5816 46.0058 61.7829 46.14 62.0275C46.4758 62.7843 46.6233 63.6112 46.57 64.4375ZM44.24 66.4375H34.36V70.4375C34.36 71.3075 34.36 71.9875 34.36 72.4375C34.3863 72.9514 34.4498 73.4627 34.55 73.9675C34.6425 74.4411 34.7936 74.9013 35 75.3375C35.3643 76.1625 35.9728 76.856 36.7435 77.3245C37.5142 77.793 38.4099 78.0139 39.31 77.9575C39.8988 78.0012 40.4903 77.9216 41.0465 77.7235C41.6027 77.5255 42.1114 77.2135 42.54 76.8075C43.2634 76.0156 43.7366 75.0275 43.9 73.9675C44.1169 72.6186 44.2173 71.2536 44.2 69.8875L44.24 66.4375Z" fill="white"/>
<path d="M38.03 87.8875H45.03C45.2968 87.8728 45.5625 87.9312 45.7986 88.0563C46.0347 88.1814 46.2322 88.3685 46.37 88.5975C46.694 89.1692 46.85 89.8209 46.82 90.4774C46.8532 91.147 46.6973 91.8124 46.37 92.3975C46.2339 92.6279 46.0367 92.8163 45.8002 92.9416C45.5637 93.0669 45.2971 93.1243 45.03 93.1075H37.87C37.1714 93.0887 36.4807 93.2579 35.87 93.5975C35.258 93.9996 34.808 94.6053 34.6 95.3075C34.2579 96.4241 34.1058 97.5904 34.15 98.7575C34.0192 100.257 34.3395 101.761 35.07 103.077C35.3919 103.503 35.8144 103.842 36.2997 104.063C36.7849 104.285 37.3176 104.383 37.85 104.347H45.07C45.3371 104.332 45.6034 104.389 45.841 104.512C46.0785 104.635 46.2785 104.82 46.42 105.047C46.7385 105.621 46.8909 106.272 46.86 106.927C46.8867 107.592 46.7347 108.252 46.42 108.837C46.2815 109.069 46.083 109.26 45.8454 109.388C45.6078 109.517 45.3399 109.579 45.07 109.567H38.07C37.0866 109.6 36.1097 109.397 35.22 108.977C34.3455 108.451 33.6489 107.674 33.22 106.747C32.7002 105.718 32.3395 104.615 32.15 103.477C31.9102 102.037 31.7964 100.578 31.81 99.1175C31.788 97.4067 31.9118 95.6972 32.18 94.0075C32.3496 92.7852 32.7285 91.6012 33.3 90.5075C33.7395 89.6671 34.4134 88.9723 35.24 88.5075C36.1065 88.0791 37.0636 87.8664 38.03 87.8875Z" fill="white"/>
<path d="M36.61 137.157C36.0583 137.125 35.5321 136.914 35.11 136.557C34.4573 136.028 33.911 135.38 33.5 134.647C32.9107 133.612 32.4825 132.492 32.23 131.327C31.8855 129.782 31.7211 128.201 31.74 126.617C31.7359 125.377 31.8094 124.138 31.96 122.907C32.0882 121.888 32.3159 120.883 32.64 119.907C32.9384 119.022 33.3484 118.179 33.86 117.397C34.2898 116.752 34.8044 116.166 35.39 115.657C35.9288 115.194 36.5448 114.828 37.21 114.577C37.85 114.34 38.5272 114.218 39.21 114.217C40.3256 114.201 41.4212 114.515 42.36 115.117C43.3456 115.786 44.1608 116.677 44.74 117.717C45.4468 118.964 45.953 120.314 46.24 121.717C46.5965 123.306 46.771 124.93 46.76 126.557C46.7847 128.438 46.5457 130.313 46.05 132.127C45.7159 133.474 45.1251 134.744 44.31 135.867C44.0962 136.221 43.8052 136.521 43.4589 136.746C43.1125 136.972 42.7198 137.115 42.31 137.167C42.1188 137.152 41.9353 137.085 41.7787 136.974C41.6221 136.863 41.4982 136.713 41.42 136.537C41.1485 136.074 41.0133 135.544 41.03 135.007C40.9994 134.493 41.092 133.979 41.3 133.507C41.5434 133.086 41.8542 132.708 42.22 132.387C42.9325 131.718 43.4861 130.898 43.84 129.987C44.2286 128.897 44.4117 127.744 44.38 126.587C44.4735 124.778 43.9903 122.985 43 121.467C42.2123 120.478 41.0823 119.819 39.8329 119.621C38.5835 119.423 37.3052 119.7 36.25 120.397C35.4635 121.01 34.8756 121.842 34.56 122.787C34.1704 123.957 33.9844 125.185 34.01 126.417C33.9753 127.713 34.1891 129.003 34.64 130.217C34.9967 131.174 35.6435 131.996 36.49 132.567C36.8552 132.775 37.1748 133.054 37.43 133.387C37.7079 133.869 37.8335 134.423 37.79 134.977C37.8066 135.534 37.6791 136.085 37.42 136.577C37.3428 136.733 37.2286 136.867 37.0874 136.968C36.9461 137.07 36.7822 137.134 36.61 137.157Z" fill="white"/>
<path d="M44.14 158.587V152.887H33.56C33.2905 152.903 33.022 152.844 32.7839 152.717C32.5458 152.59 32.3472 152.4 32.21 152.167C31.8893 151.598 31.7335 150.95 31.76 150.297C31.7324 149.638 31.8881 148.984 32.21 148.407C32.3484 148.175 32.5469 147.985 32.7845 147.857C33.0222 147.728 33.2901 147.666 33.56 147.677H44.14V141.987C44.0995 141.304 44.2123 140.621 44.47 139.987C44.5376 139.805 44.6569 139.647 44.8132 139.531C44.9695 139.416 45.156 139.349 45.35 139.337C45.5492 139.349 45.7405 139.42 45.8991 139.541C46.0577 139.662 46.1764 139.828 46.24 140.017C46.4976 140.651 46.6104 141.334 46.57 142.017V158.587C46.6096 159.271 46.4934 159.955 46.23 160.587C46.1725 160.776 46.0559 160.941 45.8975 161.058C45.739 161.176 45.5471 161.239 45.35 161.239C45.1528 161.239 44.9609 161.176 44.8025 161.058C44.644 160.941 44.5275 160.776 44.47 160.587C44.2173 159.952 44.1048 159.27 44.14 158.587Z" fill="white"/>
<path d="M115.613 42.288C119.484 33.7343 109.366 20.8008 93.0129 13.4002C76.6604 5.99951 60.2659 6.9342 56.3948 15.4878C52.5237 24.0415 62.6419 36.975 78.9944 44.3756C95.347 51.7763 111.742 50.8416 115.613 42.288Z" fill="#ECE01E" stroke="black" stroke-miterlimit="10"/>
<path d="M76.2001 27.3574L73.7301 26.2374C73.8559 26.7482 74.0511 27.2395 74.3101 27.6974C74.6067 28.2082 74.941 28.6962 75.3101 29.1574C74.8901 29.4274 74.5601 29.6474 74.3101 29.8374C74.0085 30.0698 73.7213 30.3203 73.4501 30.5874C73.2293 30.2743 73.0416 29.9392 72.8901 29.5874C72.7834 29.3474 72.6434 29.0141 72.4701 28.5874L70.8001 32.2774L68.9201 31.4274L70.4701 28.0074C69.9701 28.2574 69.4701 28.4774 69.0101 28.6774C68.5006 28.8895 67.9798 29.0731 67.4501 29.2274L67.2801 28.4374L67.1201 27.6874C67.0601 27.4174 67.0001 27.1674 66.9301 26.9474C67.7737 26.7911 68.596 26.536 69.3801 26.1874C70.0521 25.8864 70.7006 25.5354 71.3201 25.1374L68.8001 24.0074L69.6201 22.1974L72.5001 23.4874L73.0201 22.3274L70.0201 20.9874L70.8301 19.1774L72.5001 19.8874C72.5001 19.5574 72.6001 19.2374 72.6401 18.8874C72.6801 18.5374 72.6401 18.0174 72.6401 17.6274L73.8501 17.7174L71.9501 16.8874L72.7701 15.0774L75.5001 16.3274L76.2901 14.5874L77.7901 15.2674C78.2101 15.4574 78.3901 15.6374 78.3301 15.8174C78.2845 15.9104 78.2186 15.9919 78.1372 16.056C78.0559 16.12 77.9611 16.1649 77.8601 16.1874L77.4101 17.1874L80.1301 18.4174L79.3101 20.2274L77.4001 19.3674L78.0501 19.8974C78.3401 20.1274 78.4501 20.3174 78.3801 20.4374C78.3101 20.5574 78.1501 20.5974 77.8801 20.5674L77.1901 21.2974L76.6701 21.7974L78.6101 22.6774L77.7901 24.4874L74.8601 23.1574L74.3301 24.3174L77.0101 25.5274L76.2001 27.3574ZM84.5701 27.6174L83.3101 27.0474L79.3101 35.9874L77.4401 35.1374L81.4401 26.1974L79.9901 25.5374C79.1647 27.5455 78.0932 29.4434 76.8001 31.1874C75.8167 32.3512 74.5125 33.1999 73.0501 33.6274C72.8901 33.2174 72.7101 32.8174 72.5101 32.4074C72.3101 31.9974 72.1401 31.6574 71.9301 31.2874C72.6923 31.1263 73.4224 30.839 74.09 30.4374C74.704 30.0274 75.2477 29.5209 75.7001 28.9374C76.2162 28.2629 76.665 27.5394 77.0401 26.7774C77.3701 26.1574 77.8301 25.1874 78.4301 23.8774L81.0701 18.0474L82.3001 18.9074C82.9587 19.0455 83.6277 19.1291 84.3001 19.1574C84.9679 19.1676 85.6358 19.1376 86.3001 19.0674L86.8701 20.8274C87.0101 21.2374 86.9801 21.4674 86.7801 21.5074C86.6587 21.5142 86.5372 21.4954 86.4236 21.4523C86.3099 21.4093 86.2065 21.3429 86.1201 21.2574C85.4521 21.2728 84.7839 21.2427 84.1201 21.1674C83.4466 21.089 82.7786 20.9688 82.1201 20.8074L80.8001 23.7274L85.4001 25.8074L84.5701 27.6174ZM73.3501 20.3074L75.7701 21.4074L75.0701 20.8074C75.3501 20.5374 75.6001 20.2874 75.8301 20.0374C76.0601 19.7874 76.4201 19.3874 76.7001 19.0374L74.4301 18.0374C74.4301 18.5574 74.4301 18.9774 74.4301 19.2974C74.4301 19.6174 74.4301 20.0774 74.3601 20.4374L73.3501 20.3074Z" fill="#F44920"/>
<path d="M89.14 40.2376L87.22 39.3676L87.58 38.5676L85.24 37.5676L84.82 38.5076L82.91 37.6376L86.61 29.4776L92.77 32.2676L89.14 40.2376ZM87.69 32.1176L86.06 35.7076L88.37 36.7076L89.99 33.1276L87.69 32.1176ZM98.25 33.8876L96.25 32.9776L96.65 32.1076L91.12 29.6076L90.69 30.6076L88.69 29.7276L92.07 22.2676L101.55 26.5576L98.25 33.8876ZM96.16 43.4276L94.24 42.5476L94.6 41.7576L92.24 40.6876L91.82 41.6276L89.91 40.7676L93.6 32.6076L99.79 35.4076L96.16 43.4276ZM93.23 24.9576L91.96 27.7676L97.48 30.2676L98.75 27.4576L93.23 24.9576ZM94.68 35.2976L93.06 38.8876L95.38 39.8876L97.01 36.3076L94.68 35.2976Z" fill="#F44920"/>
</svg>
