<svg width="100" height="156" viewBox="0 0 100 156" fill="none" xmlns="http://www.w3.org/2000/svg">
<path d="M17.3401 149C17.3401 149 18.0001 155 20.0001 155H85.0001L87.0901 149H17.3401Z" fill="white" stroke="black" stroke-miterlimit="10"/>
<path d="M98.44 23.9C97.38 18.9 92.09 14.96 92.09 14.96V9.96L52 9.14V8L8 9V14C8 14 3 18 2 23C1 28 1 142 1 142C1 142 5 148 11 149H88.91C95.26 148 99.5 142.05 99.5 142.05C99.5 142.05 99.5 28.86 98.44 23.9Z" fill="#0B843B" stroke="black" stroke-miterlimit="10"/>
<path d="M92.5 1H8.5C6.567 1 5 2.567 5 4.5V6.7C5 8.633 6.567 10.2 8.5 10.2H92.5C94.433 10.2 96 8.633 96 6.7V4.5C96 2.567 94.433 1 92.5 1Z" fill="white" stroke="black" stroke-miterlimit="10"/>
<path d="M15 19L87 18" stroke="black" stroke-miterlimit="10"/>
<path d="M98 24C98 24 54 40 37 53C20 66 21 67 21 67C21 67 9 49.75 5 51.37L1 53L2 23C2.96679 19.4268 5.07348 16.2667 8 14V10H92.09L92 15C92 15 92.83 15.16 94.42 17.08C96.01 19 97 19 98 24Z" fill="#E6BE18" stroke="black" stroke-miterlimit="10"/>
<path d="M18.05 89.4999C19.4933 89.2221 20.9711 89.1714 22.43 89.3499C22.8551 89.43 23.2888 89.4536 23.72 89.4199C24.2064 89.2632 24.6678 89.0376 25.09 88.7499C25.3179 88.6267 25.5645 88.5422 25.82 88.4999C26.2021 88.4617 26.5878 88.5143 26.9458 88.6533C27.3038 88.7923 27.6238 89.0138 27.88 89.2999C29.0048 90.2669 29.7637 91.5906 30.03 93.0499C30.2286 93.9067 30.1188 94.806 29.72 95.5899C29.5383 95.929 29.2802 96.2212 28.966 96.4434C28.6519 96.6655 28.2904 96.8115 27.91 96.8699C27.1895 96.9816 26.4522 96.8552 25.81 96.5099C25.1958 96.0985 24.6141 95.6404 24.07 95.1399C23.4437 94.5301 22.6835 94.075 21.8501 93.8111C21.0168 93.5472 20.1332 93.4817 19.27 93.6199C18.5821 93.7178 17.9271 93.9773 17.3587 94.377C16.7904 94.7768 16.3248 95.3055 16 95.9199C15.3151 97.3446 15.1387 98.9609 15.5 100.5C15.8841 103.023 17.0773 105.353 18.9 107.14C19.5361 107.739 20.2882 108.202 21.11 108.5C21.8475 108.774 22.6431 108.853 23.42 108.73C23.6952 108.685 23.9584 108.584 24.1939 108.435C24.4293 108.285 24.6321 108.09 24.79 107.86C25.1024 107.374 25.2102 106.785 25.09 106.22C25.0706 105.995 24.9967 105.778 24.8748 105.588C24.7528 105.398 24.5864 105.241 24.39 105.13C24.2693 105.068 24.1359 105.033 24 105.03C23.89 105.03 23.56 105.09 23 105.19C22.7745 105.238 22.5415 105.241 22.3148 105.198C22.0881 105.155 21.8723 105.067 21.68 104.94C21.4892 104.816 21.3271 104.653 21.2046 104.462C21.0822 104.27 21.0022 104.055 20.97 103.83C20.79 102.88 21.3 102.08 22.49 101.44C23.9729 100.691 25.5611 100.172 27.2 99.8999C28.8433 99.5576 30.5276 99.4565 32.2 99.5999C33.52 99.7599 34.28 100.35 34.47 101.38C34.51 101.579 34.5103 101.784 34.4708 101.983C34.4313 102.182 34.3529 102.371 34.24 102.54C34.0077 102.902 33.6527 103.168 33.24 103.29C32.9591 103.353 32.7023 103.495 32.5 103.7C32.3556 104.013 32.2838 104.355 32.29 104.7C32.1507 106.582 31.4309 108.374 30.23 109.83C29.3374 110.918 28.2443 111.824 27.01 112.5C25.6725 113.237 24.2234 113.751 22.72 114.02C20.3084 114.465 17.8231 114.286 15.5 113.5C13.3752 112.81 11.4773 111.556 10.0087 109.873C8.53998 108.189 7.55548 106.139 7.16004 103.94C6.78138 101.838 6.98897 99.6718 7.76004 97.6799C8.58111 95.453 10.0294 93.5115 11.93 92.0899C13.7326 90.7479 15.8317 89.8595 18.05 89.4999Z" fill="white"/>
<path d="M44.5001 96.4202L46.5001 98.7802C46.62 98.9367 46.7653 99.0719 46.9301 99.1802C47.0529 99.2444 47.1927 99.2688 47.3301 99.2502C47.6601 99.2502 47.8601 99.3302 47.9301 99.6002C47.9683 99.7662 47.9496 99.9403 47.8771 100.094C47.8046 100.249 47.6823 100.374 47.5301 100.45C46.9541 100.782 46.3299 101.021 45.6801 101.16C44.9431 101.37 44.1908 101.52 43.4301 101.61C43.2268 101.635 43.0208 101.596 42.8401 101.5C42.7642 101.463 42.6972 101.41 42.6437 101.344C42.5902 101.278 42.5515 101.202 42.5301 101.12C42.4876 101.011 42.4876 100.89 42.5301 100.78C42.6086 100.654 42.719 100.551 42.8501 100.48C42.9317 100.443 42.9981 100.379 43.0382 100.299C43.0782 100.219 43.0895 100.128 43.0701 100.04C42.9901 99.7502 42.7701 99.6202 42.4001 99.6602C41.8468 99.7393 41.2991 99.8529 40.7601 100C40.4077 100.07 40.0696 100.198 39.7601 100.38C39.6927 100.463 39.651 100.564 39.6401 100.67C39.6145 100.785 39.6145 100.905 39.6401 101.02C39.6401 101.12 39.7001 101.18 39.7401 101.19C39.8762 101.208 40.0139 101.208 40.1501 101.19C40.2666 101.18 40.3832 101.211 40.4786 101.279C40.5739 101.347 40.6419 101.447 40.6701 101.56C40.8101 102.09 40.2501 102.56 38.9901 102.84C38.4676 103.001 37.9263 103.091 37.3801 103.11C37.2358 103.113 37.095 103.066 36.9819 102.977C36.8687 102.887 36.7903 102.761 36.7601 102.62C36.7139 102.508 36.7139 102.382 36.7601 102.27C36.8403 102.149 36.9461 102.046 37.0701 101.97C37.3025 101.829 37.4898 101.624 37.6101 101.38C37.7701 100.947 37.8808 100.498 37.9401 100.04L38.3401 97.7502C38.4593 97.1356 38.5428 96.5145 38.5901 95.8902C38.6137 95.5041 38.58 95.1165 38.4901 94.7402C38.4181 94.4786 38.3712 94.2107 38.3501 93.9402C38.3681 93.7846 38.4193 93.6345 38.5001 93.5002C38.6072 93.3118 38.7508 93.1467 38.9225 93.0145C39.0942 92.8823 39.2906 92.7857 39.5001 92.7302C39.9809 92.6225 40.4844 92.6899 40.9201 92.9202C42.2964 93.8837 43.5058 95.066 44.5001 96.4202ZM40.1201 98.4202L41.4101 98.0802C41.6501 98.0202 41.7601 97.9302 41.7301 97.8302C41.5306 97.4538 41.2666 97.1154 40.9501 96.8302C40.8092 96.7083 40.6587 96.5979 40.5001 96.5002C40.461 96.4693 40.4159 96.4471 40.3676 96.435C40.3193 96.4229 40.269 96.4213 40.2201 96.4302C40.0601 96.4302 39.9601 96.6602 39.9301 96.9802C39.9301 96.9802 39.9301 97.2002 39.8701 97.5002C39.8143 97.7901 39.7908 98.0852 39.8001 98.3802C39.8401 98.5002 39.9501 98.5002 40.1601 98.5002L40.1201 98.4202Z" fill="white"/>
<path d="M51.04 93.0599L51.83 96.0599C51.9087 96.5191 52.0861 96.9559 52.35 97.3399C52.4953 97.438 52.6622 97.4993 52.8364 97.5184C53.0107 97.5376 53.1869 97.5141 53.35 97.4499C53.7766 97.362 54.1628 97.1373 54.45 96.8099C54.6981 96.4647 54.8183 96.044 54.79 95.6199C54.79 95.3099 54.89 95.1299 55.13 95.0699C55.2439 95.0414 55.3632 95.0421 55.4768 95.0718C55.5903 95.1015 55.6946 95.1593 55.78 95.2399C56.0017 95.4416 56.1554 95.7072 56.22 95.9999C56.355 96.6385 56.2994 97.3027 56.06 97.9099C56.0139 98.0859 55.936 98.252 55.83 98.3999C55.7509 98.5029 55.6373 98.5739 55.51 98.5999L54 98.8099L49.37 100.01C49.1549 100.084 48.9249 100.105 48.7 100.07C48.6062 100.049 48.5202 100.002 48.4513 99.935C48.3825 99.8679 48.3336 99.7831 48.31 99.6899C48.2721 99.5935 48.2721 99.4863 48.31 99.3899C48.414 99.2486 48.5387 99.1239 48.68 99.0199C48.7791 98.9451 48.8614 98.8504 48.9216 98.7419C48.9819 98.6334 49.0188 98.5135 49.03 98.3899C48.9739 97.8468 48.8633 97.3108 48.7 96.7899C48.6 96.3799 48.43 95.7899 48.21 95.0499C47.99 94.3099 47.84 93.7699 47.74 93.3999C47.6932 93.1521 47.6017 92.9149 47.47 92.6999C47.4193 92.6381 47.3551 92.5888 47.2822 92.5558C47.2094 92.5228 47.1299 92.5071 47.05 92.5099C46.8402 92.5004 46.6322 92.4669 46.43 92.4099C46.3575 92.3835 46.2919 92.341 46.2382 92.2855C46.1845 92.2301 46.1441 92.1632 46.12 92.0899C46.04 91.7599 46.24 91.4499 46.73 91.0899C47.2894 90.811 47.8852 90.6124 48.5 90.4999C49.1534 90.3131 49.8231 90.1892 50.5 90.1299C51.08 90.1299 51.42 90.2699 51.5 90.6299C51.526 90.6863 51.5395 90.7477 51.5395 90.8099C51.5395 90.872 51.526 90.9334 51.5 90.9899C51.3715 91.1512 51.2198 91.2928 51.05 91.4099C50.9789 91.4631 50.9218 91.5327 50.8835 91.6129C50.8452 91.693 50.8268 91.7811 50.83 91.8699C50.8607 92.2725 50.931 92.6711 51.04 93.0599Z" fill="white"/>
<path d="M59.61 90.8198L60.41 93.8198C60.4829 94.2777 60.6609 94.7124 60.93 95.0898C61.0711 95.1965 61.2381 95.2639 61.4138 95.2849C61.5895 95.306 61.7676 95.2801 61.93 95.2098C62.3548 95.1173 62.7396 94.8934 63.03 94.5698C63.2812 94.2262 63.4018 93.8043 63.37 93.3798C63.37 93.0698 63.48 92.8898 63.71 92.8298C63.8247 92.8002 63.9449 92.7992 64.06 92.8271C64.1752 92.8551 64.2816 92.9109 64.37 92.9898C64.5865 93.1942 64.7364 93.459 64.8 93.7498C64.9341 94.3877 64.882 95.0507 64.65 95.6599C64.5948 95.8356 64.5175 96.0036 64.42 96.1599C64.3341 96.2599 64.2185 96.33 64.09 96.3598L62.58 96.5598L57.95 97.7698C57.7383 97.844 57.5116 97.8646 57.29 97.8298C57.1939 97.8103 57.1057 97.7628 57.0363 97.6935C56.967 97.6241 56.9196 97.5359 56.9 97.4398C56.8796 97.3925 56.8691 97.3414 56.8691 97.2898C56.8691 97.2383 56.8796 97.1872 56.9 97.1398C57.0107 97.0075 57.1347 96.8869 57.27 96.7798C57.369 96.705 57.4513 96.6104 57.5116 96.5019C57.5719 96.3934 57.6088 96.2735 57.62 96.1498C57.5645 95.6043 57.4574 95.0652 57.3 94.5398C57.19 94.1398 57.03 93.5399 56.81 92.7999C56.59 92.0599 56.44 91.5299 56.34 91.1599C56.2838 90.9102 56.1894 90.6706 56.06 90.4498C56.0075 90.3902 55.9429 90.3424 55.8704 90.3096C55.798 90.2769 55.7195 90.2599 55.64 90.2598C55.4293 90.2594 55.2201 90.2256 55.02 90.1599C54.9475 90.1334 54.8819 90.0909 54.8282 90.0355C54.7745 89.9801 54.7341 89.9132 54.71 89.8398C54.63 89.5198 54.83 89.2098 55.32 88.8998C55.8719 88.5821 56.4686 88.3495 57.09 88.2098C57.7422 88.0183 58.4124 87.8943 59.09 87.8398C59.66 87.8398 60 87.9798 60.09 88.3398C60.1361 88.452 60.1361 88.5777 60.09 88.6898C59.9569 88.8505 59.802 88.9919 59.63 89.1098C59.5587 89.1652 59.5016 89.2367 59.4634 89.3184C59.4251 89.4001 59.4068 89.4897 59.41 89.5798C59.4402 89.9982 59.5071 90.4132 59.61 90.8198Z" fill="white"/>
<path d="M64.55 86.5L67.95 85.61C68.64 85.43 69.14 85.29 69.44 85.18C69.747 85.0707 70.0419 84.9299 70.32 84.76C70.3854 84.7203 70.4561 84.69 70.53 84.67C70.655 84.6434 70.7846 84.6487 70.9069 84.6854C71.0293 84.7221 71.1404 84.789 71.23 84.88C71.6431 85.2246 71.9312 85.6955 72.05 86.22C72.1265 86.4574 72.1265 86.7127 72.05 86.95C72.016 87.0434 71.9587 87.1264 71.8834 87.1912C71.8081 87.256 71.7174 87.3003 71.62 87.32C71.5034 87.3604 71.3766 87.3604 71.26 87.32C71.0979 87.2406 70.9494 87.1359 70.82 87.01C70.5809 86.7743 70.2651 86.6323 69.93 86.61C69.4215 86.6129 68.9161 86.6904 68.43 86.84C67.92 86.97 67.64 87.14 67.57 87.35C67.5403 87.4885 67.5403 87.6316 67.57 87.77C67.57 87.94 67.71 88.35 67.88 89.02C67.95 89.29 68.04 89.44 68.14 89.48C68.383 89.5134 68.6304 89.4859 68.86 89.4C69.0074 89.3779 69.1402 89.2989 69.23 89.18C69.2861 89.0318 69.2861 88.8682 69.23 88.72C69.2152 88.537 69.2152 88.3531 69.23 88.17C69.2416 88.0639 69.2832 87.9633 69.35 87.88C69.4152 87.7745 69.5195 87.699 69.64 87.67C69.7331 87.6487 69.83 87.6504 69.9223 87.6747C70.0146 87.6991 70.0996 87.7456 70.17 87.81C70.352 87.985 70.495 88.1962 70.59 88.43C70.7421 88.7509 70.8627 89.0858 70.95 89.43C71.1238 90.0136 71.1648 90.6286 71.07 91.23C71.0536 91.3488 71.0019 91.4599 70.9217 91.549C70.8415 91.6382 70.7364 91.7012 70.62 91.73C70.5673 91.7564 70.5091 91.7702 70.45 91.7702C70.391 91.7702 70.3328 91.7564 70.28 91.73C70.1657 91.5979 70.0774 91.4451 70.02 91.28C69.9877 91.1731 69.9336 91.074 69.8611 90.989C69.7886 90.9039 69.6993 90.8348 69.5988 90.786C69.4983 90.7372 69.3888 90.7096 69.2771 90.7052C69.1655 90.7007 69.0541 90.7194 68.95 90.76C68.8712 90.773 68.7972 90.8066 68.7357 90.8576C68.6742 90.9086 68.6274 90.975 68.6 91.05C68.5654 91.2955 68.5894 91.5456 68.67 91.78C68.67 91.99 68.81 92.25 68.92 92.57C68.9926 92.7856 69.0794 92.9961 69.18 93.2C69.2215 93.2667 69.2813 93.32 69.3522 93.3537C69.4231 93.3874 69.5022 93.4 69.58 93.39C69.8984 93.3726 70.2138 93.319 70.52 93.23C71.0394 93.1232 71.5281 92.9011 71.95 92.58C72.2723 92.2515 72.4672 91.8191 72.5 91.36C72.5285 91.1474 72.5927 90.9412 72.69 90.75C72.7784 90.6325 72.9062 90.5508 73.05 90.52C73.1399 90.4952 73.2344 90.4932 73.3252 90.5141C73.4161 90.5351 73.5002 90.5783 73.57 90.64C73.743 90.7832 73.8628 90.9805 73.91 91.2C73.9642 91.5312 73.9642 91.8689 73.91 92.2C73.882 92.6037 73.8081 93.003 73.69 93.39C73.6468 93.5177 73.5863 93.6389 73.51 93.75C73.4544 93.8247 73.3719 93.8749 73.28 93.89C73.1589 93.9216 73.035 93.9417 72.91 93.95C72.5191 93.9834 72.1312 94.0469 71.75 94.14L66.14 95.61C65.9585 95.6718 65.7616 95.6718 65.58 95.61C65.5042 95.5767 65.4374 95.5258 65.3852 95.4614C65.333 95.397 65.2969 95.3211 65.28 95.24C65.2431 95.1434 65.2431 95.0366 65.28 94.94C65.3668 94.8214 65.4714 94.7168 65.59 94.63C65.695 94.5571 65.778 94.4568 65.83 94.34C65.8584 94.2048 65.8584 94.0652 65.83 93.93C65.8088 93.0148 65.6983 92.1038 65.5 91.21C65.2902 90.1063 64.8982 89.0451 64.34 88.07C64.2878 88.0099 64.2229 87.9621 64.15 87.93C64.0273 87.9135 63.9028 87.9135 63.78 87.93C63.6604 87.9324 63.5438 87.8926 63.4506 87.8176C63.3574 87.7427 63.2935 87.6373 63.27 87.52C63.2303 87.3863 63.2303 87.2438 63.27 87.11C63.3273 86.9816 63.4258 86.876 63.55 86.81C63.8716 86.672 64.2068 86.5681 64.55 86.5Z" fill="white"/>
<path d="M78.23 88.5002C78.06 88.5002 77.97 88.6302 77.95 88.7402C77.9492 88.9844 77.9863 89.2273 78.06 89.4602C78.1655 89.8934 78.3128 90.3154 78.5 90.7202C78.5397 90.7881 78.5904 90.8489 78.65 90.9002C78.7466 90.9456 78.8469 90.9824 78.95 91.0102C79.08 91.0279 79.2018 91.084 79.2997 91.1713C79.3977 91.2586 79.4674 91.3731 79.5 91.5002C79.5298 91.6522 79.5075 91.8099 79.4367 91.9478C79.366 92.0857 79.2509 92.1957 79.11 92.2602C78.5374 92.5669 77.9248 92.7924 77.29 92.9302C75.65 93.3602 74.76 93.2602 74.6 92.6402C74.5703 92.5526 74.5703 92.4577 74.6 92.3702C74.6726 92.2437 74.7599 92.1262 74.86 92.0202C75.0109 91.8683 75.109 91.672 75.14 91.4602C75.1498 91.1443 75.1196 90.8284 75.05 90.5202C74.99 90.2002 74.71 89.0802 74.2 87.1502C74.1096 86.7249 73.9686 86.312 73.78 85.9202C73.7282 85.8213 73.6543 85.7356 73.5642 85.6697C73.474 85.6039 73.37 85.5595 73.26 85.5402C73.0985 85.5199 72.9424 85.469 72.8 85.3902C72.7135 85.3186 72.6536 85.2199 72.63 85.1102C72.6065 85.0315 72.6006 84.9486 72.6127 84.8674C72.6248 84.7862 72.6546 84.7086 72.7 84.6402C72.8164 84.467 72.9746 84.326 73.16 84.2302C73.4017 84.1079 73.6567 84.014 73.92 83.9502C74.07 83.9502 74.44 83.8402 75.03 83.7402C75.2087 83.7057 75.3856 83.6623 75.56 83.6102C75.95 83.5102 76.48 83.3502 77.12 83.1202L77.99 82.8402C78.8114 82.5903 79.6915 82.6113 80.5 82.9002C80.8189 83.0222 81.1026 83.2212 81.3259 83.4794C81.5492 83.7376 81.7052 84.0471 81.78 84.3802C81.8849 84.7699 81.8849 85.1804 81.78 85.5702C81.681 85.9569 81.4686 86.3052 81.17 86.5702C81.05 86.6802 81 86.7802 81.03 86.8702C81.06 86.9602 81.19 87.0802 81.43 87.1002C81.8815 87.1241 82.3115 87.3004 82.65 87.6002C83.0233 88.0059 83.3122 88.4818 83.5 89.0002C83.5592 89.1986 83.6696 89.3779 83.82 89.5202C84.0022 89.6012 84.2008 89.6388 84.4 89.6302C84.4976 89.6321 84.5907 89.6715 84.66 89.7402C84.7394 89.812 84.7951 89.9061 84.82 90.0102C84.8727 90.1555 84.8727 90.3148 84.82 90.4602C84.7469 90.6312 84.6337 90.7821 84.49 90.9002C84.0582 91.2171 83.5639 91.4387 83.04 91.5502C82.7134 91.6711 82.3635 91.716 82.0169 91.6813C81.6703 91.6467 81.3362 91.5334 81.04 91.3502C80.7983 91.1666 80.5859 90.9475 80.41 90.7002C80.1222 90.2684 79.8585 89.821 79.62 89.3602C79.4779 89.0548 79.2654 88.7875 79 88.5802C78.8852 88.5117 78.7568 88.4691 78.6238 88.4552C78.4908 88.4414 78.3565 88.4568 78.23 88.5002ZM76.97 85.2002L77.3 86.7602C77.2966 86.78 77.2966 86.8003 77.3 86.8202C77.3147 86.9342 77.3676 87.0399 77.45 87.1202C77.4991 87.1408 77.5518 87.1514 77.605 87.1514C77.6582 87.1514 77.7109 87.1408 77.76 87.1202C77.9136 87.0921 78.0593 87.0311 78.1871 86.9414C78.3148 86.8516 78.4216 86.7352 78.5 86.6002C78.6169 86.2771 78.6169 85.9233 78.5 85.6002C78.28 84.7502 77.86 84.4002 77.26 84.6002C77.1272 84.6255 77.0092 84.7007 76.93 84.8102C76.9053 84.9413 76.9192 85.0768 76.97 85.2002Z" fill="white"/>
<path d="M84.97 80.98C85.6236 80.7922 86.2931 80.6649 86.97 80.6C87.1634 80.5815 87.358 80.6197 87.53 80.71C87.6013 80.7432 87.6643 80.7918 87.7144 80.8523C87.7646 80.9128 87.8006 80.9838 87.82 81.06C87.8619 81.1866 87.8619 81.3234 87.82 81.45C87.74 81.5823 87.7017 81.7356 87.71 81.89C87.8383 82.1592 88.0348 82.3902 88.28 82.56C88.3492 82.6352 88.4348 82.6933 88.5303 82.7297C88.6257 82.7661 88.7283 82.7799 88.83 82.77C88.9315 82.7463 89.0207 82.6857 89.08 82.6C89.1793 82.4559 89.2631 82.3017 89.33 82.14C89.4276 81.9632 89.4695 81.761 89.45 81.56C89.438 81.4975 89.4105 81.4391 89.37 81.39C89.282 81.3029 89.1848 81.2258 89.08 81.16C88.9583 81.0667 88.8762 80.931 88.85 80.78C88.71 80.29 89.32 79.86 90.67 79.51C91.164 79.3575 91.6741 79.2636 92.19 79.23C92.3454 79.2342 92.4957 79.2866 92.62 79.38C92.7382 79.4696 92.8227 79.5964 92.86 79.74C92.8871 79.8159 92.8958 79.8972 92.8853 79.9772C92.8749 80.0572 92.8457 80.1335 92.8 80.2C92.6595 80.3616 92.4807 80.4854 92.28 80.56C92.0526 80.6646 91.8536 80.8223 91.7 81.02C91.4234 81.427 91.1729 81.8512 90.95 82.29C90.6298 82.8336 90.3779 83.4147 90.2 84.02C90.1269 84.5148 90.161 85.0195 90.3 85.5C90.44 86.01 90.58 86.5 90.74 86.9C90.791 87.0939 90.8831 87.2747 91.01 87.43C91.1401 87.5425 91.2997 87.6154 91.47 87.64C91.6148 87.6524 91.753 87.7062 91.8682 87.7948C91.9834 87.8834 92.0708 88.0032 92.12 88.14C92.27 88.74 91.47 89.27 89.69 89.73C88.997 89.9148 88.2864 90.0254 87.57 90.06C87 90.06 86.66 89.92 86.57 89.56C86.5378 89.4181 86.5549 89.2694 86.6185 89.1385C86.6821 89.0076 86.7885 88.9023 86.92 88.84C87.0114 88.7934 87.0923 88.7285 87.1577 88.6494C87.2231 88.5703 87.2715 88.4786 87.3 88.38C87.3026 87.6293 87.1844 86.8831 86.95 86.17C86.8891 85.8903 86.7809 85.6231 86.63 85.38C86.4438 85.1315 86.2213 84.9124 85.97 84.73C85.3326 84.2381 84.6646 83.7871 83.97 83.38C83.7316 83.2348 83.4663 83.1395 83.19 83.1C82.9824 83.0927 82.777 83.0556 82.58 82.99C82.5055 82.9561 82.4403 82.9048 82.3898 82.8404C82.3393 82.776 82.3051 82.7004 82.29 82.62C82.21 82.32 82.38 82.05 82.79 81.81C83.4772 81.4392 84.2102 81.1601 84.97 80.98Z" fill="white"/>
<path d="M65.94 102.66C66.1774 102.616 66.4186 102.596 66.66 102.6H66.83C66.9213 102.562 67.0084 102.516 67.09 102.46C67.139 102.428 67.1931 102.404 67.25 102.39C67.3322 102.38 67.4156 102.39 67.4936 102.417C67.5717 102.445 67.6423 102.491 67.7 102.55C67.8383 102.665 67.9625 102.796 68.07 102.94C68.1575 103.057 68.222 103.189 68.26 103.33C68.275 103.384 68.2775 103.441 68.2671 103.497C68.2567 103.552 68.2337 103.605 68.2 103.65C68.1362 103.742 68.0396 103.806 67.93 103.83C67.8349 103.855 67.735 103.855 67.64 103.83C67.4825 103.765 67.3318 103.684 67.19 103.59C67.0473 103.471 66.8653 103.411 66.68 103.42C66.6129 103.426 66.5497 103.454 66.5 103.5C66.4837 103.536 66.4753 103.575 66.4753 103.615C66.4753 103.655 66.4837 103.694 66.5 103.73C66.5 103.87 66.69 103.97 66.99 104.04C67.435 104.119 67.8619 104.278 68.25 104.51C68.3789 104.591 68.4898 104.697 68.5759 104.823C68.6619 104.948 68.7211 105.09 68.75 105.24C68.7929 105.436 68.7871 105.64 68.733 105.833C68.679 106.027 68.5784 106.204 68.44 106.35C68.181 106.652 67.8293 106.859 67.44 106.94C67.2347 106.974 67.0278 106.998 66.82 107.01L66.34 107.07H66.22C66.1603 107.079 66.0997 107.079 66.04 107.07C65.9304 107.111 65.8095 107.111 65.7 107.07C65.5279 106.959 65.3813 106.812 65.27 106.64C65.1395 106.478 65.0442 106.291 64.99 106.09C64.93 105.82 64.99 105.67 65.21 105.62C65.2882 105.596 65.3718 105.596 65.45 105.62C65.6328 105.714 65.8068 105.825 65.97 105.95C66.0749 106.027 66.1891 106.091 66.31 106.14C66.3983 106.165 66.4917 106.165 66.58 106.14C66.6614 106.125 66.7354 106.082 66.79 106.02C66.8068 105.986 66.8155 105.948 66.8155 105.91C66.8155 105.872 66.8068 105.834 66.79 105.8C66.79 105.67 66.63 105.58 66.39 105.52C65.9774 105.436 65.5862 105.269 65.24 105.03C64.9882 104.846 64.8137 104.575 64.75 104.27C64.6595 103.934 64.7025 103.575 64.87 103.27C64.9963 103.1 65.1567 102.957 65.3409 102.852C65.5251 102.747 65.7291 102.682 65.94 102.66Z" fill="#DAB915"/>
<path d="M71.07 101.5C71.56 101.389 72.0719 101.428 72.54 101.61C72.8638 101.749 73.1512 101.962 73.38 102.23C73.6283 102.514 73.7973 102.859 73.87 103.23C73.9331 103.544 73.9197 103.869 73.8309 104.177C73.7421 104.485 73.5806 104.767 73.36 105C72.9079 105.518 72.2954 105.87 71.62 106C71.0191 106.154 70.3819 106.072 69.84 105.77C69.6026 105.637 69.3961 105.454 69.2341 105.236C69.0721 105.017 68.9582 104.766 68.9 104.5C68.8206 104.186 68.8154 103.859 68.8848 103.543C68.9542 103.227 69.0964 102.931 69.3 102.68C69.722 102.079 70.3534 101.659 71.07 101.5ZM70.94 102.57C70.8821 102.579 70.8273 102.602 70.7802 102.636C70.7332 102.671 70.6953 102.717 70.67 102.77C70.6234 102.899 70.6234 103.041 70.67 103.17C70.7309 103.404 70.8146 103.632 70.92 103.85C71.0346 104.106 71.1683 104.354 71.32 104.59C71.3645 104.683 71.4386 104.759 71.5309 104.807C71.6231 104.854 71.7282 104.869 71.83 104.85C72.09 104.79 72.18 104.6 72.11 104.28C71.9859 103.741 71.7583 103.232 71.44 102.78C71.3833 102.705 71.3053 102.648 71.2161 102.618C71.127 102.588 71.0308 102.585 70.94 102.61V102.57Z" fill="#DAB915"/>
<path d="M78.5 98.6501L79.35 102.57C79.3761 102.717 79.4163 102.861 79.47 103C79.5199 103.069 79.5897 103.122 79.67 103.15C79.7583 103.181 79.8399 103.228 79.91 103.29C79.9605 103.343 79.9951 103.409 80.01 103.48C80.01 103.71 79.87 103.93 79.43 104.15C79.0475 104.346 78.6406 104.491 78.22 104.58C78.1583 104.601 78.0917 104.601 78.03 104.58C77.986 104.524 77.9553 104.459 77.94 104.39C77.89 104.25 77.83 104.19 77.74 104.21C77.6579 104.246 77.5883 104.305 77.54 104.38C77.3192 104.673 76.9993 104.876 76.64 104.95C76.1901 105.048 75.7198 104.965 75.33 104.72C75.082 104.565 74.8622 104.369 74.68 104.14C74.4345 103.855 74.2689 103.51 74.2 103.14C74.1124 102.727 74.1401 102.298 74.28 101.9C74.4079 101.512 74.6396 101.166 74.95 100.9C75.1883 100.695 75.4732 100.55 75.78 100.48C76.1074 100.391 76.4526 100.391 76.78 100.48C76.8161 100.489 76.8539 100.489 76.89 100.48C76.98 100.48 77 100.33 76.89 100.08C76.88 99.9912 76.8372 99.9092 76.77 99.8501C76.677 99.8019 76.5746 99.7746 76.47 99.7701C76.27 99.7701 76.16 99.6701 76.13 99.5301C76.1 99.3901 76.26 99.1101 76.65 98.9001C77.0933 98.6443 77.5627 98.4365 78.05 98.2801C78.1053 98.2572 78.1658 98.2497 78.225 98.2585C78.2842 98.2672 78.3399 98.292 78.3861 98.33C78.4323 98.368 78.4673 98.4179 78.4874 98.4743C78.5075 98.5306 78.5118 98.5914 78.5 98.6501ZM76.64 101.32C76.5452 101.34 76.4585 101.388 76.3908 101.457C76.3232 101.527 76.2777 101.615 76.26 101.71C76.169 102.064 76.169 102.436 76.26 102.79C76.31 103.103 76.4489 103.394 76.66 103.63C76.7207 103.687 76.7941 103.728 76.8742 103.751C76.9542 103.774 77.0385 103.777 77.12 103.76C77.2135 103.736 77.2964 103.682 77.356 103.606C77.4157 103.53 77.4487 103.437 77.45 103.34C77.4813 102.98 77.4475 102.618 77.35 102.27C77.3132 101.962 77.1959 101.669 77.01 101.42C76.9592 101.365 76.8931 101.326 76.8202 101.308C76.7472 101.29 76.6706 101.294 76.6 101.32H76.64Z" fill="#DAB915"/>
<path d="M81.88 99.21C82.3288 99.0942 82.8032 99.1293 83.2301 99.31C83.4212 99.3914 83.587 99.5227 83.71 99.69C83.841 99.9018 83.9325 100.136 83.9801 100.38L84.11 101.02C84.15 101.318 84.2449 101.606 84.39 101.87C84.4184 101.912 84.456 101.946 84.5 101.97H84.7C84.79 101.97 84.85 101.97 84.87 102.12C84.8983 102.277 84.8737 102.439 84.8001 102.58C84.7176 102.759 84.5983 102.92 84.45 103.05C84.2728 103.214 84.0554 103.327 83.82 103.38C83.6874 103.418 83.5477 103.424 83.4122 103.398C83.2767 103.372 83.1492 103.314 83.04 103.23C82.96 103.17 82.9 103.14 82.85 103.15C82.7656 103.181 82.6925 103.237 82.64 103.31C82.4061 103.559 82.106 103.737 81.7748 103.822C81.4437 103.907 81.0951 103.896 80.77 103.79C80.5955 103.713 80.4414 103.597 80.32 103.45C80.1997 103.305 80.1142 103.134 80.07 102.95C80.0399 102.8 80.0413 102.645 80.074 102.495C80.1067 102.345 80.17 102.204 80.26 102.08C80.6448 101.584 81.2081 101.257 81.83 101.17C81.9389 101.157 82.0424 101.116 82.13 101.05C82.13 101.05 82.13 100.93 82.13 100.81C82.0921 100.583 82.0106 100.366 81.89 100.17C81.853 100.114 81.7996 100.07 81.737 100.045C81.6744 100.02 81.6057 100.015 81.54 100.03C81.4539 100.047 81.3762 100.093 81.32 100.16C81.2428 100.265 81.1789 100.379 81.13 100.5C81.0874 100.667 81.0025 100.82 80.8833 100.944C80.7642 101.069 80.6149 101.16 80.45 101.21C80.3916 101.235 80.3286 101.248 80.265 101.248C80.2014 101.248 80.1385 101.235 80.08 101.21C80.0285 101.178 79.9842 101.136 79.9498 101.086C79.9153 101.036 79.8916 100.98 79.88 100.92C79.854 100.765 79.8823 100.606 79.96 100.47C80.0498 100.292 80.1759 100.136 80.33 100.01C80.7684 99.6131 81.3026 99.3374 81.88 99.21ZM82.13 101.76C82.0678 101.771 82.009 101.797 81.9586 101.835C81.9082 101.873 81.8675 101.923 81.84 101.98C81.8016 102.038 81.7756 102.104 81.7635 102.173C81.7515 102.242 81.7537 102.312 81.77 102.38C81.7906 102.502 81.8545 102.612 81.95 102.69C81.9881 102.726 82.0349 102.751 82.0857 102.764C82.1366 102.776 82.1898 102.775 82.24 102.76C82.46 102.71 82.54 102.5 82.45 102.11C82.4368 102 82.3992 101.894 82.34 101.8C82.3118 101.775 82.2775 101.758 82.2405 101.751C82.2036 101.744 82.1654 101.747 82.13 101.76Z" fill="#DAB915"/>
<path d="M67 75C69.2091 75 71 73.2091 71 71C71 68.7909 69.2091 67 67 67C64.7909 67 63 68.7909 63 71C63 73.2091 64.7909 75 67 75Z" fill="#DAB915"/>
<path d="M72.5 116.5C72.6538 116.494 72.8052 116.54 72.93 116.63C72.9886 116.665 73.0342 116.717 73.06 116.78C73.0785 116.862 73.0785 116.948 73.06 117.03V117.25C73.0434 117.346 73.0434 117.444 73.06 117.54H73.12C73.12 117.54 73.17 117.54 73.17 117.6C73.1664 117.655 73.1454 117.708 73.11 117.75C73.0694 117.801 73.0182 117.842 72.96 117.87C72.8926 117.917 72.8121 117.942 72.73 117.94C72.6842 117.941 72.6388 117.932 72.5972 117.913C72.5556 117.894 72.5189 117.866 72.49 117.83C72.49 117.83 72.49 117.83 72.43 117.83C72.37 117.83 72.43 117.83 72.36 117.83C72.261 117.902 72.1421 117.94 72.02 117.94C71.9097 117.944 71.8011 117.912 71.71 117.85C71.6575 117.816 71.6159 117.767 71.59 117.71C71.5752 117.651 71.5752 117.589 71.59 117.53C71.5928 117.479 71.6057 117.429 71.628 117.382C71.6503 117.336 71.6816 117.294 71.72 117.26C71.8801 117.13 72.084 117.065 72.29 117.08C72.3261 117.089 72.3638 117.089 72.4 117.08C72.4084 117.054 72.4084 117.026 72.4 117C72.4143 116.928 72.4143 116.853 72.4 116.78C72.3915 116.758 72.3763 116.74 72.3565 116.727C72.3367 116.715 72.3134 116.709 72.29 116.71C72.2641 116.701 72.2359 116.701 72.21 116.71C72.179 116.74 72.1521 116.774 72.13 116.81C72.04 116.93 71.95 117 71.86 117C71.8149 117 71.7718 116.982 71.74 116.95C71.7325 116.933 71.7287 116.914 71.7287 116.895C71.7287 116.876 71.7325 116.858 71.74 116.84C71.7427 116.788 71.7639 116.738 71.8 116.7C71.8405 116.65 71.8917 116.609 71.95 116.58C72.1236 116.507 72.3128 116.48 72.5 116.5ZM72.4 117.35C72.3828 117.342 72.364 117.338 72.345 117.338C72.326 117.338 72.3072 117.342 72.29 117.35C72.2762 117.389 72.2762 117.431 72.29 117.47C72.2783 117.509 72.2783 117.551 72.29 117.59C72.3041 117.597 72.3195 117.6 72.335 117.6C72.3505 117.6 72.3658 117.597 72.38 117.59C72.46 117.59 72.5 117.52 72.5 117.39C72.5075 117.354 72.5075 117.316 72.5 117.28C72.4831 117.279 72.4662 117.283 72.4518 117.292C72.4374 117.301 72.4263 117.314 72.42 117.33L72.4 117.35Z" fill="white"/>
<path d="M74.18 116.03V116.6C74.18 116.6 74.18 116.6 74.24 116.6C74.3462 116.51 74.4808 116.46 74.62 116.46C74.7547 116.462 74.8834 116.516 74.98 116.61C75.0443 116.672 75.0946 116.746 75.1273 116.829C75.1601 116.912 75.1747 117.001 75.17 117.09C75.1759 117.22 75.1509 117.349 75.097 117.467C75.0431 117.585 74.9619 117.689 74.86 117.77C74.7082 117.895 74.5169 117.963 74.32 117.96C74.1264 117.963 73.937 117.903 73.78 117.79H73.69H73.6C73.54 117.79 73.51 117.79 73.51 117.79C73.5174 117.713 73.5174 117.636 73.51 117.56C73.51 117.46 73.51 117.31 73.51 117.11V116.71C73.51 116.61 73.51 116.54 73.51 116.52C73.5048 116.504 73.4956 116.491 73.4833 116.48C73.471 116.47 73.456 116.463 73.44 116.46C73.44 116.46 73.35 116.46 73.34 116.39C73.3345 116.377 73.3317 116.364 73.3317 116.35C73.3317 116.336 73.3345 116.322 73.34 116.31C73.34 116.25 73.41 116.19 73.55 116.12C73.6402 116.083 73.7341 116.056 73.83 116.04C73.9263 116.027 74.0238 116.027 74.12 116.04C74.15 115.94 74.18 115.97 74.18 116.03ZM74.3 116.92C74.2828 116.912 74.264 116.908 74.245 116.908C74.226 116.908 74.2072 116.912 74.19 116.92C74.1756 116.976 74.1756 117.034 74.19 117.09C74.1744 117.246 74.1744 117.404 74.19 117.56C74.19 117.575 74.1931 117.59 74.1992 117.604C74.2054 117.618 74.2144 117.631 74.2257 117.641C74.237 117.652 74.2503 117.66 74.2648 117.665C74.2794 117.669 74.2947 117.671 74.31 117.67C74.3425 117.672 74.3748 117.664 74.4032 117.648C74.4316 117.632 74.4548 117.609 74.47 117.58C74.5155 117.497 74.5364 117.404 74.53 117.31C74.5403 117.18 74.5087 117.05 74.44 116.94C74.3977 116.915 74.3475 116.908 74.3 116.92Z" fill="white"/>
<path d="M76.11 116.5C76.2731 116.494 76.434 116.54 76.57 116.63C76.627 116.659 76.6749 116.704 76.7084 116.758C76.7419 116.813 76.7597 116.876 76.76 116.94C76.76 116.979 76.752 117.018 76.7365 117.054C76.721 117.09 76.6984 117.123 76.67 117.15C76.6159 117.193 76.5492 117.218 76.48 117.22C76.4433 117.222 76.4067 117.215 76.3735 117.199C76.3403 117.184 76.3116 117.16 76.29 117.13C76.2696 117.085 76.2529 117.038 76.24 116.99C76.2313 116.957 76.212 116.927 76.185 116.905C76.1579 116.883 76.1246 116.871 76.09 116.87C76.0626 116.869 76.0353 116.875 76.0108 116.887C75.9863 116.899 75.9654 116.917 75.95 116.94C75.933 116.996 75.933 117.055 75.95 117.11C75.9489 117.225 75.9919 117.336 76.07 117.42C76.1037 117.455 76.1441 117.483 76.1887 117.502C76.2334 117.521 76.2815 117.53 76.33 117.53H76.45H76.58C76.6088 117.518 76.6411 117.518 76.67 117.53C76.6781 117.566 76.6781 117.604 76.67 117.64C76.6673 117.692 76.646 117.742 76.61 117.78C76.5708 117.831 76.5235 117.875 76.47 117.91C76.3343 117.992 76.1783 118.033 76.02 118.03C75.8308 118.033 75.6466 117.97 75.5 117.85C75.4141 117.782 75.345 117.696 75.2982 117.597C75.2514 117.498 75.228 117.389 75.23 117.28C75.2284 117.176 75.2511 117.073 75.2962 116.979C75.3414 116.886 75.4077 116.804 75.49 116.74C75.5715 116.66 75.6686 116.597 75.7752 116.556C75.8818 116.515 75.9957 116.496 76.11 116.5Z" fill="white"/>
<path d="M78.57 116.05V117.39C78.5624 117.44 78.5624 117.49 78.57 117.54C78.5653 117.56 78.5653 117.58 78.57 117.6C78.5983 117.618 78.6223 117.642 78.64 117.67C78.6444 117.679 78.6467 117.69 78.6467 117.7C78.6467 117.71 78.6444 117.721 78.64 117.73C78.64 117.81 78.56 117.87 78.41 117.91C78.2699 117.949 78.1253 117.969 77.98 117.97H77.92C77.92 117.97 77.92 117.97 77.92 117.91C77.92 117.85 77.92 117.83 77.92 117.83C77.92 117.83 77.92 117.83 77.84 117.83C77.7472 117.907 77.6306 117.949 77.51 117.95C77.3566 117.948 77.2099 117.887 77.1 117.78C77.0315 117.713 76.9742 117.635 76.93 117.55C76.8723 117.442 76.8414 117.322 76.84 117.2C76.8422 117.059 76.88 116.922 76.95 116.8C77.0182 116.684 77.119 116.59 77.24 116.53C77.3304 116.476 77.4344 116.448 77.54 116.45C77.6476 116.446 77.7545 116.47 77.85 116.52C77.85 116.52 77.85 116.52 77.85 116.39C77.8555 116.377 77.8583 116.364 77.8583 116.35C77.8583 116.336 77.8555 116.323 77.85 116.31C77.8209 116.299 77.789 116.299 77.76 116.31C77.736 116.306 77.7142 116.293 77.6979 116.275C77.6816 116.257 77.6718 116.234 77.67 116.21C77.67 116.13 77.74 116.08 77.88 116.04C78.0424 115.988 78.2101 115.955 78.38 115.94C78.5 115.94 78.57 115.98 78.57 116.05ZM77.77 116.79C77.7386 116.793 77.7085 116.804 77.6824 116.821C77.6562 116.838 77.6347 116.862 77.62 116.89C77.5668 117.002 77.5427 117.126 77.55 117.25C77.5418 117.355 77.5663 117.46 77.62 117.55C77.6346 117.573 77.6554 117.592 77.6801 117.605C77.7048 117.617 77.7325 117.622 77.76 117.62C77.7916 117.618 77.8218 117.606 77.8467 117.586C77.8716 117.567 77.8902 117.54 77.9 117.51C77.9217 117.391 77.9217 117.269 77.9 117.15C77.9237 117.051 77.9237 116.949 77.9 116.85C77.8866 116.828 77.8671 116.811 77.844 116.8C77.8209 116.79 77.7951 116.786 77.77 116.79Z" fill="white"/>
<path d="M80.16 117.28H79.5C79.5022 117.315 79.5124 117.35 79.5297 117.381C79.547 117.412 79.571 117.439 79.6 117.46C79.6606 117.513 79.7392 117.542 79.82 117.54C79.8729 117.549 79.927 117.549 79.98 117.54C80.0303 117.525 80.0776 117.501 80.12 117.47H80.2C80.2109 117.465 80.2228 117.462 80.235 117.462C80.2471 117.462 80.2591 117.465 80.27 117.47C80.2823 117.502 80.2823 117.538 80.27 117.57C80.2667 117.611 80.2531 117.651 80.2304 117.686C80.2077 117.721 80.1766 117.75 80.14 117.77C79.9849 117.888 79.7949 117.951 79.6 117.95C79.4133 117.956 79.2312 117.892 79.09 117.77C79.0198 117.712 78.962 117.641 78.92 117.56C78.8611 117.453 78.8302 117.332 78.83 117.21C78.8292 117.047 78.8819 116.889 78.98 116.76C79.069 116.652 79.182 116.566 79.31 116.51C79.4119 116.47 79.5205 116.45 79.63 116.45C79.8042 116.442 79.975 116.499 80.11 116.61C80.1734 116.66 80.2276 116.721 80.27 116.79C80.3064 116.865 80.3269 116.947 80.33 117.03C80.3475 117.082 80.3475 117.138 80.33 117.19C80.3296 117.209 80.3239 117.229 80.3137 117.245C80.3034 117.262 80.2888 117.276 80.2715 117.285C80.2541 117.294 80.2346 117.298 80.215 117.298C80.1954 117.297 80.1764 117.291 80.16 117.28ZM79.51 117.01H79.66C79.6722 117.012 79.6846 117.01 79.6963 117.006C79.7079 117.002 79.7185 116.996 79.7272 116.987C79.736 116.978 79.7425 116.968 79.7465 116.956C79.7504 116.945 79.7516 116.932 79.75 116.92C79.7644 116.878 79.7644 116.832 79.75 116.79C79.7182 116.758 79.675 116.74 79.63 116.74C79.6039 116.738 79.578 116.744 79.555 116.756C79.532 116.769 79.513 116.787 79.5 116.81C79.487 116.849 79.487 116.891 79.5 116.93C79.5 116.93 79.5 116.93 79.5 116.99L79.51 117.01Z" fill="white"/>
<path d="M72.5 121.5C72.6538 121.494 72.8052 121.54 72.93 121.63C72.9886 121.664 73.0342 121.717 73.06 121.78C73.0785 121.862 73.0785 121.948 73.06 122.03V122.25C73.0434 122.346 73.0434 122.444 73.06 122.54H73.12C73.12 122.54 73.17 122.54 73.17 122.6C73.1664 122.655 73.1454 122.708 73.11 122.75C73.0694 122.801 73.0182 122.842 72.96 122.87C72.8926 122.917 72.8121 122.941 72.73 122.94C72.6842 122.941 72.6388 122.932 72.5972 122.913C72.5556 122.894 72.5189 122.865 72.49 122.83C72.49 122.83 72.49 122.83 72.43 122.83C72.37 122.83 72.43 122.83 72.36 122.83C72.261 122.902 72.1421 122.94 72.02 122.94C71.9097 122.944 71.8011 122.912 71.71 122.85C71.6575 122.816 71.6159 122.767 71.59 122.71C71.5752 122.651 71.5752 122.589 71.59 122.53C71.5928 122.479 71.6057 122.428 71.628 122.382C71.6503 122.336 71.6816 122.294 71.72 122.26C71.8801 122.13 72.084 122.065 72.29 122.08C72.3261 122.089 72.3638 122.089 72.4 122.08C72.4084 122.054 72.4084 122.026 72.4 122C72.4143 121.927 72.4143 121.853 72.4 121.78C72.3915 121.758 72.3763 121.74 72.3565 121.727C72.3367 121.714 72.3134 121.708 72.29 121.71C72.2641 121.701 72.2359 121.701 72.21 121.71C72.179 121.74 72.1521 121.773 72.13 121.81C72.04 121.93 71.95 122 71.86 122C71.8213 122.015 71.7786 122.015 71.74 122C71.7325 121.983 71.7287 121.964 71.7287 121.945C71.7287 121.926 71.7325 121.907 71.74 121.89C71.7427 121.838 71.7639 121.788 71.8 121.75C71.8405 121.699 71.8917 121.658 71.95 121.63C72.119 121.54 72.3085 121.495 72.5 121.5ZM72.4 122.35C72.3828 122.342 72.364 122.338 72.345 122.338C72.326 122.338 72.3072 122.342 72.29 122.35C72.2762 122.389 72.2762 122.431 72.29 122.47C72.2783 122.509 72.2783 122.551 72.29 122.59C72.3041 122.596 72.3195 122.6 72.335 122.6C72.3505 122.6 72.3658 122.596 72.38 122.59C72.46 122.59 72.5 122.52 72.5 122.39C72.5075 122.354 72.5075 122.316 72.5 122.28L72.4 122.35Z" fill="white"/>
<path d="M74.18 121.03V121.6H74.24C74.3462 121.51 74.4808 121.461 74.62 121.46C74.7547 121.463 74.8834 121.516 74.98 121.61C75.0443 121.672 75.0946 121.747 75.1273 121.829C75.1601 121.912 75.1747 122.001 75.17 122.09C75.1759 122.22 75.1509 122.349 75.097 122.468C75.0431 122.586 74.9619 122.689 74.86 122.77C74.7082 122.896 74.5169 122.963 74.32 122.96C74.1264 122.963 73.937 122.903 73.78 122.79H73.69H73.6C73.54 122.79 73.51 122.79 73.51 122.74C73.5053 122.724 73.5053 122.707 73.51 122.69C73.5174 122.614 73.5174 122.537 73.51 122.46C73.51 122.36 73.51 122.21 73.51 122.01V121.61C73.51 121.51 73.51 121.44 73.51 121.42C73.5048 121.405 73.4956 121.391 73.4833 121.381C73.471 121.37 73.456 121.363 73.44 121.36C73.44 121.36 73.35 121.36 73.34 121.29C73.3345 121.278 73.3317 121.264 73.3317 121.25C73.3317 121.236 73.3345 121.223 73.34 121.21C73.34 121.15 73.41 121.09 73.55 121.02C73.6402 120.984 73.7341 120.957 73.83 120.94C73.9263 120.927 74.0238 120.927 74.12 120.94C74.15 120.94 74.18 120.97 74.18 121.03ZM74.3 121.92C74.279 121.919 74.258 121.923 74.2389 121.932C74.2197 121.94 74.2029 121.954 74.19 121.97C74.1756 122.026 74.1756 122.084 74.19 122.14C74.1744 122.296 74.1744 122.454 74.19 122.61C74.19 122.626 74.1931 122.641 74.1992 122.655C74.2054 122.669 74.2144 122.681 74.2257 122.692C74.237 122.702 74.2503 122.71 74.2648 122.715C74.2794 122.72 74.2947 122.722 74.31 122.72C74.3425 122.722 74.3748 122.715 74.4032 122.699C74.4316 122.683 74.4548 122.659 74.47 122.63C74.5155 122.548 74.5364 122.454 74.53 122.36C74.5403 122.23 74.5087 122.101 74.44 121.99C74.423 121.969 74.4017 121.952 74.3776 121.94C74.3534 121.928 74.327 121.921 74.3 121.92Z" fill="white"/>
<path d="M76.11 121.5C76.2732 121.494 76.4341 121.539 76.57 121.63C76.627 121.659 76.6749 121.704 76.7084 121.758C76.7419 121.813 76.7598 121.876 76.76 121.94C76.76 121.979 76.752 122.018 76.7366 122.054C76.7211 122.09 76.6985 122.123 76.67 122.15C76.6159 122.193 76.5493 122.218 76.48 122.22C76.4434 122.222 76.4068 122.215 76.3736 122.199C76.3404 122.183 76.3117 122.159 76.29 122.13C76.2696 122.085 76.2529 122.038 76.24 121.99C76.2314 121.956 76.2121 121.926 76.185 121.905C76.158 121.883 76.1246 121.871 76.09 121.87C76.0626 121.868 76.0354 121.874 76.0109 121.887C75.9864 121.899 75.9654 121.917 75.95 121.94C75.933 121.995 75.933 122.054 75.95 122.11C75.949 122.225 75.9919 122.336 76.07 122.42C76.1037 122.455 76.1441 122.482 76.1888 122.501C76.2335 122.52 76.2815 122.53 76.33 122.53H76.45L76.5 122.5C76.5289 122.488 76.5611 122.488 76.59 122.5C76.5982 122.536 76.5982 122.574 76.59 122.61C76.5873 122.662 76.566 122.712 76.53 122.75C76.4909 122.801 76.4435 122.845 76.39 122.88C76.2543 122.961 76.0983 123.003 75.94 123C75.7509 123.003 75.5666 122.939 75.42 122.82C75.3341 122.752 75.2651 122.665 75.2182 122.566C75.1714 122.468 75.1481 122.359 75.15 122.25C75.1485 122.146 75.1711 122.043 75.2163 121.949C75.2614 121.855 75.3277 121.773 75.41 121.71C75.5033 121.624 75.6148 121.561 75.736 121.525C75.8572 121.488 75.9851 121.48 76.11 121.5Z" fill="white"/>
<path d="M78.57 121.05V122.39C78.5624 122.44 78.5624 122.49 78.57 122.54C78.5653 122.56 78.5653 122.58 78.57 122.6L78.64 122.67C78.6444 122.679 78.6467 122.69 78.6467 122.7C78.6467 122.71 78.6444 122.721 78.64 122.73C78.64 122.81 78.56 122.87 78.41 122.91C78.2699 122.949 78.1253 122.969 77.98 122.97C77.9607 122.978 77.9392 122.978 77.92 122.97C77.92 122.97 77.92 122.97 77.92 122.91C77.92 122.85 77.92 122.83 77.92 122.83C77.92 122.83 77.92 122.83 77.84 122.88C77.7472 122.957 77.6306 122.999 77.51 123C77.3566 122.998 77.2099 122.937 77.1 122.83C77.0315 122.763 76.9742 122.685 76.93 122.6C76.8723 122.492 76.8414 122.372 76.84 122.25C76.8422 122.109 76.88 121.972 76.95 121.85C77.0182 121.734 77.119 121.64 77.24 121.58C77.3304 121.526 77.4344 121.498 77.54 121.5C77.6476 121.496 77.7545 121.52 77.85 121.57C77.85 121.57 77.85 121.57 77.85 121.44C77.8555 121.427 77.8583 121.414 77.8583 121.4C77.8583 121.386 77.8555 121.373 77.85 121.36C77.8392 121.346 77.8256 121.334 77.8101 121.326C77.7947 121.317 77.7776 121.312 77.76 121.31C77.736 121.306 77.7142 121.293 77.6979 121.275C77.6816 121.257 77.6718 121.234 77.67 121.21C77.67 121.13 77.74 121.08 77.88 121.04C78.0424 120.988 78.2101 120.955 78.38 120.94C78.5 120.94 78.57 120.98 78.57 121.05ZM77.77 121.79C77.7386 121.793 77.7085 121.804 77.6824 121.821C77.6562 121.838 77.6347 121.862 77.62 121.89C77.5668 122.002 77.5427 122.126 77.55 122.25C77.5418 122.355 77.5663 122.46 77.62 122.55C77.6346 122.573 77.6554 122.592 77.6801 122.605C77.7048 122.617 77.7325 122.622 77.76 122.62C77.7916 122.618 77.8218 122.606 77.8467 122.586C77.8716 122.567 77.8902 122.54 77.9 122.51C77.9217 122.391 77.9217 122.269 77.9 122.15C77.9237 122.051 77.9237 121.949 77.9 121.85C77.8866 121.828 77.8671 121.811 77.844 121.8C77.8209 121.79 77.7951 121.786 77.77 121.79Z" fill="white"/>
<path d="M80.16 122.28H79.5C79.5022 122.315 79.5124 122.35 79.5297 122.381C79.547 122.412 79.571 122.439 79.6 122.46C79.6606 122.513 79.7392 122.542 79.82 122.54C79.8729 122.549 79.927 122.549 79.98 122.54C80.0303 122.525 80.0776 122.501 80.12 122.47H80.2C80.2109 122.465 80.2228 122.462 80.235 122.462C80.2471 122.462 80.2591 122.465 80.27 122.47C80.2823 122.502 80.2823 122.538 80.27 122.57C80.2667 122.611 80.2531 122.651 80.2304 122.686C80.2077 122.721 80.1766 122.75 80.14 122.77C79.9849 122.888 79.7949 122.951 79.6 122.95C79.4133 122.956 79.2312 122.892 79.09 122.77C79.0198 122.712 78.962 122.641 78.92 122.56C78.8611 122.453 78.8302 122.332 78.83 122.21C78.8292 122.047 78.8819 121.889 78.98 121.76C79.069 121.652 79.182 121.566 79.31 121.51C79.4119 121.47 79.5205 121.45 79.63 121.45C79.8042 121.442 79.975 121.499 80.11 121.61C80.1734 121.66 80.2276 121.721 80.27 121.79C80.3064 121.865 80.3269 121.947 80.33 122.03C80.3475 122.082 80.3475 122.138 80.33 122.19C80.3296 122.209 80.3239 122.229 80.3137 122.245C80.3034 122.262 80.2888 122.276 80.2715 122.285C80.2541 122.294 80.2346 122.298 80.215 122.298C80.1954 122.297 80.1764 122.291 80.16 122.28ZM79.51 122.01H79.66C79.6722 122.012 79.6846 122.01 79.6963 122.006C79.7079 122.002 79.7185 121.996 79.7272 121.987C79.736 121.978 79.7425 121.968 79.7465 121.956C79.7504 121.944 79.7516 121.932 79.75 121.92C79.7644 121.878 79.7644 121.832 79.75 121.79C79.7113 121.775 79.6686 121.775 79.63 121.79C79.6039 121.788 79.578 121.794 79.555 121.806C79.532 121.819 79.513 121.837 79.5 121.86C79.487 121.899 79.487 121.941 79.5 121.98C79.5 121.98 79.5 121.98 79.5 122.04L79.51 122.01Z" fill="white"/>
<path d="M81.5 121.5C81.6538 121.494 81.8052 121.54 81.93 121.63C81.9886 121.664 82.0342 121.717 82.06 121.78C82.0785 121.862 82.0785 121.948 82.06 122.03V122.25C82.0434 122.346 82.0434 122.444 82.06 122.54H82.12C82.12 122.54 82.17 122.54 82.17 122.6C82.1664 122.655 82.1454 122.708 82.11 122.75C82.0694 122.801 82.0182 122.842 81.96 122.87C81.8926 122.917 81.8121 122.941 81.73 122.94C81.6842 122.941 81.6388 122.932 81.5972 122.913C81.5556 122.894 81.5189 122.865 81.49 122.83C81.49 122.83 81.49 122.83 81.43 122.83C81.37 122.83 81.43 122.83 81.36 122.83C81.261 122.902 81.1421 122.94 81.02 122.94C80.9097 122.944 80.8011 122.912 80.71 122.85C80.6575 122.816 80.6159 122.767 80.59 122.71C80.5752 122.651 80.5752 122.589 80.59 122.53C80.5928 122.479 80.6057 122.428 80.628 122.382C80.6503 122.336 80.6816 122.294 80.72 122.26C80.8801 122.13 81.084 122.065 81.29 122.08C81.3261 122.089 81.3638 122.089 81.4 122.08C81.4084 122.054 81.4084 122.026 81.4 122C81.4143 121.927 81.4143 121.853 81.4 121.78C81.3915 121.758 81.3763 121.74 81.3565 121.727C81.3367 121.714 81.3134 121.708 81.29 121.71C81.2641 121.701 81.2359 121.701 81.21 121.71C81.179 121.74 81.1521 121.773 81.13 121.81C81.04 121.93 80.95 122 80.86 122C80.8213 122.015 80.7786 122.015 80.74 122C80.7325 121.983 80.7287 121.964 80.7287 121.945C80.7287 121.926 80.7325 121.907 80.74 121.89C80.7427 121.838 80.7639 121.788 80.8 121.75C80.8405 121.699 80.8917 121.658 80.95 121.63C81.119 121.54 81.3085 121.495 81.5 121.5ZM81.4 122.35C81.3828 122.342 81.364 122.338 81.345 122.338C81.326 122.338 81.3072 122.342 81.29 122.35C81.2762 122.389 81.2762 122.431 81.29 122.47C81.2783 122.509 81.2783 122.551 81.29 122.59C81.3041 122.596 81.3195 122.6 81.335 122.6C81.3505 122.6 81.3658 122.596 81.38 122.59C81.46 122.59 81.5 122.52 81.5 122.39C81.5075 122.354 81.5075 122.316 81.5 122.28L81.4 122.35Z" fill="white"/>
<path d="M83.18 121.03V121.6H83.24C83.3462 121.51 83.4808 121.461 83.62 121.46C83.7547 121.463 83.8834 121.516 83.98 121.61C84.0443 121.672 84.0946 121.747 84.1273 121.829C84.1601 121.912 84.1747 122.001 84.17 122.09C84.1759 122.22 84.1509 122.349 84.097 122.468C84.0431 122.586 83.9619 122.689 83.86 122.77C83.7082 122.896 83.5169 122.963 83.32 122.96C83.1264 122.963 82.937 122.903 82.78 122.79H82.69H82.6C82.54 122.79 82.51 122.79 82.51 122.74C82.5053 122.724 82.5053 122.707 82.51 122.69C82.5174 122.614 82.5174 122.537 82.51 122.46C82.51 122.36 82.51 122.21 82.51 122.01V121.61C82.51 121.51 82.51 121.44 82.51 121.42C82.5048 121.405 82.4956 121.391 82.4833 121.381C82.471 121.37 82.456 121.363 82.44 121.36C82.44 121.36 82.35 121.36 82.34 121.29C82.3345 121.278 82.3317 121.264 82.3317 121.25C82.3317 121.236 82.3345 121.223 82.34 121.21C82.34 121.15 82.41 121.09 82.55 121.02C82.6402 120.984 82.7341 120.957 82.83 120.94C82.9263 120.927 83.0238 120.927 83.12 120.94C83.15 120.94 83.18 120.97 83.18 121.03ZM83.3 121.92C83.279 121.919 83.258 121.923 83.2389 121.932C83.2197 121.94 83.2029 121.954 83.19 121.97C83.1756 122.026 83.1756 122.084 83.19 122.14C83.1744 122.296 83.1744 122.454 83.19 122.61C83.19 122.626 83.1931 122.641 83.1992 122.655C83.2054 122.669 83.2144 122.681 83.2257 122.692C83.237 122.702 83.2503 122.71 83.2648 122.715C83.2794 122.72 83.2947 122.722 83.31 122.72C83.3425 122.722 83.3748 122.715 83.4032 122.699C83.4316 122.683 83.4548 122.659 83.47 122.63C83.5155 122.548 83.5364 122.454 83.53 122.36C83.5403 122.23 83.5087 122.101 83.44 121.99C83.423 121.969 83.4017 121.952 83.3776 121.94C83.3534 121.928 83.327 121.921 83.3 121.92Z" fill="white"/>
<path d="M85.11 121.5C85.2732 121.494 85.4341 121.539 85.57 121.63C85.627 121.659 85.6749 121.704 85.7084 121.758C85.7419 121.813 85.7598 121.876 85.76 121.94C85.76 121.979 85.752 122.018 85.7366 122.054C85.7211 122.09 85.6985 122.123 85.67 122.15C85.6159 122.193 85.5493 122.218 85.48 122.22C85.4434 122.222 85.4068 122.215 85.3736 122.199C85.3404 122.183 85.3117 122.159 85.29 122.13C85.2696 122.085 85.2529 122.038 85.24 121.99C85.2314 121.956 85.2121 121.926 85.185 121.905C85.158 121.883 85.1246 121.871 85.09 121.87C85.0626 121.868 85.0354 121.874 85.0109 121.887C84.9864 121.899 84.9654 121.917 84.95 121.94C84.933 121.995 84.933 122.054 84.95 122.11C84.949 122.225 84.9919 122.336 85.07 122.42C85.1037 122.455 85.1441 122.482 85.1888 122.501C85.2335 122.52 85.2815 122.53 85.33 122.53H85.45L85.5 122.5C85.5289 122.488 85.5611 122.488 85.59 122.5C85.5982 122.536 85.5982 122.574 85.59 122.61C85.5873 122.662 85.566 122.712 85.53 122.75C85.4909 122.801 85.4435 122.845 85.39 122.88C85.2543 122.961 85.0983 123.003 84.94 123C84.7509 123.003 84.5666 122.939 84.42 122.82C84.3341 122.752 84.2651 122.665 84.2182 122.566C84.1714 122.468 84.1481 122.359 84.15 122.25C84.1485 122.146 84.1711 122.043 84.2163 121.949C84.2614 121.855 84.3277 121.773 84.41 121.71C84.5033 121.624 84.6148 121.561 84.736 121.525C84.8572 121.488 84.9851 121.48 85.11 121.5Z" fill="white"/>
<path d="M87.57 121.05V122.39C87.5624 122.44 87.5624 122.49 87.57 122.54C87.5653 122.56 87.5653 122.58 87.57 122.6L87.64 122.67C87.6444 122.679 87.6467 122.69 87.6467 122.7C87.6467 122.71 87.6444 122.721 87.64 122.73C87.64 122.81 87.56 122.87 87.41 122.91C87.2699 122.949 87.1253 122.969 86.98 122.97C86.9607 122.978 86.9392 122.978 86.92 122.97C86.92 122.97 86.92 122.97 86.92 122.91C86.92 122.85 86.92 122.83 86.92 122.83C86.92 122.83 86.92 122.83 86.84 122.88C86.7472 122.957 86.6306 122.999 86.51 123C86.3566 122.998 86.2099 122.937 86.1 122.83C86.0315 122.763 85.9742 122.685 85.93 122.6C85.8723 122.492 85.8414 122.372 85.84 122.25C85.8422 122.109 85.88 121.972 85.95 121.85C86.0182 121.734 86.119 121.64 86.24 121.58C86.3304 121.526 86.4344 121.498 86.54 121.5C86.6476 121.496 86.7545 121.52 86.85 121.57C86.85 121.57 86.85 121.57 86.85 121.44C86.8555 121.427 86.8583 121.414 86.8583 121.4C86.8583 121.386 86.8555 121.373 86.85 121.36C86.8392 121.346 86.8256 121.334 86.8101 121.326C86.7947 121.317 86.7776 121.312 86.76 121.31C86.736 121.306 86.7142 121.293 86.6979 121.275C86.6816 121.257 86.6718 121.234 86.67 121.21C86.67 121.13 86.74 121.08 86.88 121.04C87.0424 120.988 87.2101 120.955 87.38 120.94C87.5 120.94 87.57 120.98 87.57 121.05ZM86.77 121.79C86.7386 121.793 86.7085 121.804 86.6824 121.821C86.6562 121.838 86.6347 121.862 86.62 121.89C86.5668 122.002 86.5427 122.126 86.55 122.25C86.5418 122.355 86.5663 122.46 86.62 122.55C86.6346 122.573 86.6554 122.592 86.6801 122.605C86.7048 122.617 86.7325 122.622 86.76 122.62C86.7916 122.618 86.8218 122.606 86.8467 122.586C86.8716 122.567 86.8902 122.54 86.9 122.51C86.9217 122.391 86.9217 122.269 86.9 122.15C86.9237 122.051 86.9237 121.949 86.9 121.85C86.8866 121.828 86.8671 121.811 86.844 121.8C86.8209 121.79 86.7951 121.786 86.77 121.79Z" fill="white"/>
<path d="M89.16 122.28H88.5C88.5022 122.315 88.5124 122.35 88.5297 122.381C88.547 122.412 88.571 122.439 88.6 122.46C88.6606 122.513 88.7392 122.542 88.82 122.54C88.8729 122.549 88.927 122.549 88.98 122.54C89.0303 122.525 89.0776 122.501 89.12 122.47H89.2C89.2109 122.465 89.2228 122.462 89.235 122.462C89.2471 122.462 89.2591 122.465 89.27 122.47C89.2823 122.502 89.2823 122.538 89.27 122.57C89.2667 122.611 89.2531 122.651 89.2304 122.686C89.2077 122.721 89.1766 122.75 89.14 122.77C88.9849 122.888 88.7949 122.951 88.6 122.95C88.4133 122.956 88.2312 122.892 88.09 122.77C88.0198 122.712 87.962 122.641 87.92 122.56C87.8611 122.453 87.8302 122.332 87.83 122.21C87.8292 122.047 87.8819 121.889 87.98 121.76C88.069 121.652 88.182 121.566 88.31 121.51C88.4119 121.47 88.5205 121.45 88.63 121.45C88.8042 121.442 88.975 121.499 89.11 121.61C89.1734 121.66 89.2276 121.721 89.27 121.79C89.3064 121.865 89.3269 121.947 89.33 122.03C89.3475 122.082 89.3475 122.138 89.33 122.19C89.3296 122.209 89.3239 122.229 89.3137 122.245C89.3034 122.262 89.2888 122.276 89.2715 122.285C89.2541 122.294 89.2346 122.298 89.215 122.298C89.1954 122.297 89.1764 122.291 89.16 122.28ZM88.51 122.01H88.66C88.6722 122.012 88.6846 122.01 88.6963 122.006C88.7079 122.002 88.7185 121.996 88.7272 121.987C88.736 121.978 88.7425 121.968 88.7465 121.956C88.7504 121.944 88.7516 121.932 88.75 121.92C88.7644 121.878 88.7644 121.832 88.75 121.79C88.7113 121.775 88.6686 121.775 88.63 121.79C88.6039 121.788 88.578 121.794 88.555 121.806C88.532 121.819 88.513 121.837 88.5 121.86C88.487 121.899 88.487 121.941 88.5 121.98C88.5 121.98 88.5 121.98 88.5 122.04L88.51 122.01Z" fill="white"/>
<path d="M71.5 126.5C71.6538 126.494 71.8052 126.54 71.93 126.63C71.9886 126.664 72.0342 126.717 72.06 126.78C72.0785 126.862 72.0785 126.948 72.06 127.03V127.25C72.0434 127.346 72.0434 127.444 72.06 127.54H72.12C72.12 127.54 72.17 127.54 72.17 127.6C72.1664 127.655 72.1454 127.708 72.11 127.75C72.0694 127.801 72.0182 127.842 71.96 127.87C71.8926 127.917 71.8121 127.941 71.73 127.94C71.6842 127.941 71.6388 127.932 71.5972 127.913C71.5556 127.894 71.5189 127.865 71.49 127.83C71.49 127.83 71.49 127.83 71.43 127.83C71.37 127.83 71.43 127.83 71.36 127.83C71.261 127.902 71.1421 127.94 71.02 127.94C70.9097 127.944 70.8011 127.912 70.71 127.85C70.6575 127.816 70.6159 127.767 70.59 127.71C70.5752 127.651 70.5752 127.589 70.59 127.53C70.5928 127.479 70.6057 127.428 70.628 127.382C70.6503 127.336 70.6816 127.294 70.72 127.26C70.8801 127.13 71.084 127.065 71.29 127.08C71.3261 127.089 71.3638 127.089 71.4 127.08C71.4084 127.054 71.4084 127.026 71.4 127C71.4143 126.927 71.4143 126.853 71.4 126.78C71.3915 126.758 71.3763 126.74 71.3565 126.727C71.3367 126.714 71.3134 126.708 71.29 126.71C71.2641 126.701 71.2359 126.701 71.21 126.71C71.179 126.74 71.1521 126.773 71.13 126.81C71.04 126.93 70.95 127 70.86 127C70.8213 127.015 70.7786 127.015 70.74 127C70.7325 126.983 70.7287 126.964 70.7287 126.945C70.7287 126.926 70.7325 126.907 70.74 126.89C70.7427 126.838 70.7639 126.788 70.8 126.75C70.8405 126.699 70.8917 126.658 70.95 126.63C71.119 126.54 71.3085 126.495 71.5 126.5ZM71.4 127.35C71.3828 127.342 71.364 127.338 71.345 127.338C71.326 127.338 71.3072 127.342 71.29 127.35C71.2762 127.389 71.2762 127.431 71.29 127.47C71.2783 127.509 71.2783 127.551 71.29 127.59C71.3041 127.596 71.3195 127.6 71.335 127.6C71.3505 127.6 71.3658 127.596 71.38 127.59C71.46 127.59 71.5 127.52 71.5 127.39C71.5075 127.354 71.5075 127.316 71.5 127.28L71.4 127.35Z" fill="white"/>
<path d="M73.18 126.03V126.6H73.24C73.3462 126.51 73.4808 126.461 73.62 126.46C73.7547 126.463 73.8834 126.516 73.98 126.61C74.0443 126.672 74.0946 126.747 74.1273 126.829C74.1601 126.912 74.1747 127.001 74.17 127.09C74.1759 127.22 74.1509 127.349 74.097 127.468C74.0431 127.586 73.9619 127.689 73.86 127.77C73.7082 127.896 73.5169 127.963 73.32 127.96C73.1264 127.963 72.937 127.903 72.78 127.79H72.69H72.6C72.54 127.79 72.51 127.79 72.51 127.74C72.5053 127.724 72.5053 127.707 72.51 127.69C72.5174 127.614 72.5174 127.537 72.51 127.46C72.51 127.36 72.51 127.21 72.51 127.01V126.61C72.51 126.51 72.51 126.44 72.51 126.42C72.5048 126.405 72.4956 126.391 72.4833 126.381C72.471 126.37 72.456 126.363 72.44 126.36C72.44 126.36 72.35 126.36 72.34 126.29C72.3345 126.278 72.3317 126.264 72.3317 126.25C72.3317 126.236 72.3345 126.223 72.34 126.21C72.34 126.15 72.41 126.09 72.55 126.02C72.6402 125.984 72.7341 125.957 72.83 125.94C72.9263 125.927 73.0238 125.927 73.12 125.94C73.15 125.94 73.18 125.97 73.18 126.03ZM73.3 126.92C73.279 126.919 73.258 126.923 73.2389 126.932C73.2197 126.94 73.2029 126.954 73.19 126.97C73.1756 127.026 73.1756 127.084 73.19 127.14C73.1744 127.296 73.1744 127.454 73.19 127.61C73.19 127.626 73.1931 127.641 73.1992 127.655C73.2054 127.669 73.2144 127.681 73.2257 127.692C73.237 127.702 73.2503 127.71 73.2648 127.715C73.2794 127.72 73.2947 127.722 73.31 127.72C73.3425 127.722 73.3748 127.715 73.4032 127.699C73.4316 127.683 73.4548 127.659 73.47 127.63C73.5155 127.548 73.5364 127.454 73.53 127.36C73.5403 127.23 73.5087 127.101 73.44 126.99C73.423 126.969 73.4017 126.952 73.3776 126.94C73.3534 126.928 73.327 126.921 73.3 126.92Z" fill="white"/>
<path d="M75.11 126.5C75.2732 126.494 75.4341 126.539 75.57 126.63C75.627 126.659 75.6749 126.704 75.7084 126.758C75.7419 126.813 75.7598 126.876 75.76 126.94C75.76 126.979 75.752 127.018 75.7366 127.054C75.7211 127.09 75.6985 127.123 75.67 127.15C75.6159 127.193 75.5493 127.218 75.48 127.22C75.4434 127.222 75.4068 127.215 75.3736 127.199C75.3404 127.183 75.3117 127.159 75.29 127.13C75.2696 127.085 75.2529 127.038 75.24 126.99C75.2314 126.956 75.2121 126.926 75.185 126.905C75.158 126.883 75.1246 126.871 75.09 126.87C75.0626 126.868 75.0354 126.874 75.0109 126.887C74.9864 126.899 74.9654 126.917 74.95 126.94C74.933 126.995 74.933 127.054 74.95 127.11C74.949 127.225 74.9919 127.336 75.07 127.42C75.1037 127.455 75.1441 127.482 75.1888 127.501C75.2335 127.52 75.2815 127.53 75.33 127.53H75.45L75.5 127.5C75.5289 127.488 75.5611 127.488 75.59 127.5C75.5982 127.536 75.5982 127.574 75.59 127.61C75.5873 127.662 75.566 127.712 75.53 127.75C75.4909 127.801 75.4435 127.845 75.39 127.88C75.2543 127.961 75.0983 128.003 74.94 128C74.7509 128.003 74.5666 127.939 74.42 127.82C74.3341 127.752 74.2651 127.665 74.2182 127.566C74.1714 127.468 74.1481 127.359 74.15 127.25C74.1485 127.146 74.1711 127.043 74.2163 126.949C74.2614 126.855 74.3277 126.773 74.41 126.71C74.5033 126.624 74.6148 126.561 74.736 126.525C74.8572 126.488 74.9851 126.48 75.11 126.5Z" fill="white"/>
<path d="M77.57 126.05V127.39C77.5624 127.44 77.5624 127.49 77.57 127.54C77.5653 127.56 77.5653 127.58 77.57 127.6L77.64 127.67C77.6444 127.679 77.6467 127.69 77.6467 127.7C77.6467 127.71 77.6444 127.721 77.64 127.73C77.64 127.81 77.56 127.87 77.41 127.91C77.2699 127.949 77.1253 127.969 76.98 127.97C76.9607 127.978 76.9392 127.978 76.92 127.97C76.92 127.97 76.92 127.97 76.92 127.91C76.92 127.85 76.92 127.83 76.92 127.83C76.92 127.83 76.92 127.83 76.84 127.88C76.7472 127.957 76.6306 127.999 76.51 128C76.3566 127.998 76.2099 127.937 76.1 127.83C76.0315 127.763 75.9742 127.685 75.93 127.6C75.8723 127.492 75.8414 127.372 75.84 127.25C75.8422 127.109 75.88 126.972 75.95 126.85C76.0182 126.734 76.119 126.64 76.24 126.58C76.3304 126.526 76.4344 126.498 76.54 126.5C76.6476 126.496 76.7545 126.52 76.85 126.57C76.85 126.57 76.85 126.57 76.85 126.44C76.8555 126.427 76.8583 126.414 76.8583 126.4C76.8583 126.386 76.8555 126.373 76.85 126.36C76.8392 126.346 76.8256 126.334 76.8101 126.326C76.7947 126.317 76.7776 126.312 76.76 126.31C76.736 126.306 76.7142 126.293 76.6979 126.275C76.6816 126.257 76.6718 126.234 76.67 126.21C76.67 126.13 76.74 126.08 76.88 126.04C77.0424 125.988 77.2101 125.955 77.38 125.94C77.5 125.94 77.57 125.98 77.57 126.05ZM76.77 126.79C76.7386 126.793 76.7085 126.804 76.6824 126.821C76.6562 126.838 76.6347 126.862 76.62 126.89C76.5668 127.002 76.5427 127.126 76.55 127.25C76.5418 127.355 76.5663 127.46 76.62 127.55C76.6346 127.573 76.6554 127.592 76.6801 127.605C76.7048 127.617 76.7325 127.622 76.76 127.62C76.7916 127.618 76.8218 127.606 76.8467 127.586C76.8716 127.567 76.8902 127.54 76.9 127.51C76.9217 127.391 76.9217 127.269 76.9 127.15C76.9237 127.051 76.9237 126.949 76.9 126.85C76.8866 126.828 76.8671 126.811 76.844 126.8C76.8209 126.79 76.7951 126.786 76.77 126.79Z" fill="white"/>
<path d="M79.16 127.28H78.5C78.5022 127.315 78.5124 127.35 78.5297 127.381C78.547 127.412 78.571 127.439 78.6 127.46C78.6606 127.513 78.7392 127.542 78.82 127.54C78.8729 127.549 78.927 127.549 78.98 127.54C79.0303 127.525 79.0776 127.501 79.12 127.47H79.2C79.2109 127.465 79.2228 127.462 79.235 127.462C79.2471 127.462 79.2591 127.465 79.27 127.47C79.2823 127.502 79.2823 127.538 79.27 127.57C79.2667 127.611 79.2531 127.651 79.2304 127.686C79.2077 127.721 79.1766 127.75 79.14 127.77C78.9849 127.888 78.7949 127.951 78.6 127.95C78.4133 127.956 78.2312 127.892 78.09 127.77C78.0198 127.712 77.962 127.641 77.92 127.56C77.8611 127.453 77.8302 127.332 77.83 127.21C77.8292 127.047 77.8819 126.889 77.98 126.76C78.069 126.652 78.182 126.566 78.31 126.51C78.4119 126.47 78.5205 126.45 78.63 126.45C78.8042 126.442 78.975 126.499 79.11 126.61C79.1734 126.66 79.2276 126.721 79.27 126.79C79.3064 126.865 79.3269 126.947 79.33 127.03C79.3475 127.082 79.3475 127.138 79.33 127.19C79.3296 127.209 79.3239 127.229 79.3137 127.245C79.3034 127.262 79.2888 127.276 79.2715 127.285C79.2541 127.294 79.2346 127.298 79.215 127.298C79.1954 127.297 79.1764 127.291 79.16 127.28ZM78.51 127.01H78.66C78.6722 127.012 78.6846 127.01 78.6963 127.006C78.7079 127.002 78.7185 126.996 78.7272 126.987C78.736 126.978 78.7425 126.968 78.7465 126.956C78.7504 126.944 78.7516 126.932 78.75 126.92C78.7644 126.878 78.7644 126.832 78.75 126.79C78.7113 126.775 78.6686 126.775 78.63 126.79C78.6039 126.788 78.578 126.794 78.555 126.806C78.532 126.819 78.513 126.837 78.5 126.86C78.487 126.899 78.487 126.941 78.5 126.98C78.5 126.98 78.5 126.98 78.5 127.04L78.51 127.01Z" fill="white"/>
<path d="M80.5 126.5C80.6538 126.494 80.8052 126.54 80.93 126.63C80.9886 126.664 81.0342 126.717 81.06 126.78C81.0785 126.862 81.0785 126.948 81.06 127.03V127.25C81.0434 127.346 81.0434 127.444 81.06 127.54H81.12C81.12 127.54 81.17 127.54 81.17 127.6C81.1664 127.655 81.1454 127.708 81.11 127.75C81.0694 127.801 81.0182 127.842 80.96 127.87C80.8926 127.917 80.8121 127.941 80.73 127.94C80.6842 127.941 80.6388 127.932 80.5972 127.913C80.5556 127.894 80.5189 127.865 80.49 127.83C80.49 127.83 80.49 127.83 80.43 127.83C80.37 127.83 80.43 127.83 80.36 127.83C80.261 127.902 80.1421 127.94 80.02 127.94C79.9097 127.944 79.8011 127.912 79.71 127.85C79.6575 127.816 79.6159 127.767 79.59 127.71C79.5752 127.651 79.5752 127.589 79.59 127.53C79.5928 127.479 79.6057 127.428 79.628 127.382C79.6503 127.336 79.6816 127.294 79.72 127.26C79.8801 127.13 80.084 127.065 80.29 127.08C80.3261 127.089 80.3638 127.089 80.4 127.08C80.4084 127.054 80.4084 127.026 80.4 127C80.4143 126.927 80.4143 126.853 80.4 126.78C80.3915 126.758 80.3763 126.74 80.3565 126.727C80.3367 126.714 80.3134 126.708 80.29 126.71C80.2641 126.701 80.2359 126.701 80.21 126.71C80.179 126.74 80.1521 126.773 80.13 126.81C80.04 126.93 79.95 127 79.86 127C79.8213 127.015 79.7786 127.015 79.74 127C79.7325 126.983 79.7287 126.964 79.7287 126.945C79.7287 126.926 79.7325 126.907 79.74 126.89C79.7427 126.838 79.7639 126.788 79.8 126.75C79.8405 126.699 79.8917 126.658 79.95 126.63C80.119 126.54 80.3085 126.495 80.5 126.5ZM80.4 127.35C80.3828 127.342 80.364 127.338 80.345 127.338C80.326 127.338 80.3072 127.342 80.29 127.35C80.2762 127.389 80.2762 127.431 80.29 127.47C80.2783 127.509 80.2783 127.551 80.29 127.59C80.3041 127.596 80.3195 127.6 80.335 127.6C80.3505 127.6 80.3658 127.596 80.38 127.59C80.46 127.59 80.5 127.52 80.5 127.39C80.5075 127.354 80.5075 127.316 80.5 127.28L80.4 127.35Z" fill="white"/>
<path d="M82.18 126.03V126.6H82.24C82.3462 126.51 82.4808 126.461 82.62 126.46C82.7547 126.463 82.8834 126.516 82.98 126.61C83.0443 126.672 83.0946 126.747 83.1273 126.829C83.1601 126.912 83.1747 127.001 83.17 127.09C83.1759 127.22 83.1509 127.349 83.097 127.468C83.0431 127.586 82.9619 127.689 82.86 127.77C82.7082 127.896 82.5169 127.963 82.32 127.96C82.1264 127.963 81.937 127.903 81.78 127.79H81.69H81.6C81.54 127.79 81.51 127.79 81.51 127.74C81.5053 127.724 81.5053 127.707 81.51 127.69C81.5174 127.614 81.5174 127.537 81.51 127.46C81.51 127.36 81.51 127.21 81.51 127.01V126.61C81.51 126.51 81.51 126.44 81.51 126.42C81.5048 126.405 81.4956 126.391 81.4833 126.381C81.471 126.37 81.456 126.363 81.44 126.36C81.44 126.36 81.35 126.36 81.34 126.29C81.3345 126.278 81.3317 126.264 81.3317 126.25C81.3317 126.236 81.3345 126.223 81.34 126.21C81.34 126.15 81.41 126.09 81.55 126.02C81.6402 125.984 81.7341 125.957 81.83 125.94C81.9263 125.927 82.0238 125.927 82.12 125.94C82.15 125.94 82.18 125.97 82.18 126.03ZM82.3 126.92C82.279 126.919 82.258 126.923 82.2389 126.932C82.2197 126.94 82.2029 126.954 82.19 126.97C82.1756 127.026 82.1756 127.084 82.19 127.14C82.1744 127.296 82.1744 127.454 82.19 127.61C82.19 127.626 82.1931 127.641 82.1992 127.655C82.2054 127.669 82.2144 127.681 82.2257 127.692C82.237 127.702 82.2503 127.71 82.2648 127.715C82.2794 127.72 82.2947 127.722 82.31 127.72C82.3425 127.722 82.3748 127.715 82.4032 127.699C82.4316 127.683 82.4548 127.659 82.47 127.63C82.5155 127.548 82.5364 127.454 82.53 127.36C82.5403 127.23 82.5087 127.101 82.44 126.99C82.423 126.969 82.4017 126.952 82.3776 126.94C82.3534 126.928 82.327 126.921 82.3 126.92Z" fill="white"/>
<path d="M84.11 126.5C84.2732 126.494 84.4341 126.539 84.57 126.63C84.627 126.659 84.6749 126.704 84.7084 126.758C84.7419 126.813 84.7598 126.876 84.76 126.94C84.76 126.979 84.752 127.018 84.7366 127.054C84.7211 127.09 84.6985 127.123 84.67 127.15C84.6159 127.193 84.5493 127.218 84.48 127.22C84.4434 127.222 84.4068 127.215 84.3736 127.199C84.3404 127.183 84.3117 127.159 84.29 127.13C84.2696 127.085 84.2529 127.038 84.24 126.99C84.2314 126.956 84.2121 126.926 84.185 126.905C84.158 126.883 84.1246 126.871 84.09 126.87C84.0626 126.868 84.0354 126.874 84.0109 126.887C83.9864 126.899 83.9654 126.917 83.95 126.94C83.933 126.995 83.933 127.054 83.95 127.11C83.949 127.225 83.9919 127.336 84.07 127.42C84.1037 127.455 84.1441 127.482 84.1888 127.501C84.2335 127.52 84.2815 127.53 84.33 127.53H84.45L84.5 127.5C84.5289 127.488 84.5611 127.488 84.59 127.5C84.5982 127.536 84.5982 127.574 84.59 127.61C84.5873 127.662 84.566 127.712 84.53 127.75C84.4909 127.801 84.4435 127.845 84.39 127.88C84.2543 127.961 84.0983 128.003 83.94 128C83.7509 128.003 83.5666 127.939 83.42 127.82C83.3341 127.752 83.2651 127.665 83.2182 127.566C83.1714 127.468 83.1481 127.359 83.15 127.25C83.1485 127.146 83.1711 127.043 83.2163 126.949C83.2614 126.855 83.3277 126.773 83.41 126.71C83.5033 126.624 83.6148 126.561 83.736 126.525C83.8572 126.488 83.9851 126.48 84.11 126.5Z" fill="white"/>
<path d="M86.57 126.05V127.39C86.5624 127.44 86.5624 127.49 86.57 127.54C86.5653 127.56 86.5653 127.58 86.57 127.6L86.64 127.67C86.6444 127.679 86.6467 127.69 86.6467 127.7C86.6467 127.71 86.6444 127.721 86.64 127.73C86.64 127.81 86.56 127.87 86.41 127.91C86.2699 127.949 86.1253 127.969 85.98 127.97C85.9607 127.978 85.9392 127.978 85.92 127.97C85.92 127.97 85.92 127.97 85.92 127.91C85.92 127.85 85.92 127.83 85.92 127.83C85.92 127.83 85.92 127.83 85.84 127.88C85.7472 127.957 85.6306 127.999 85.51 128C85.3566 127.998 85.2099 127.937 85.1 127.83C85.0315 127.763 84.9742 127.685 84.93 127.6C84.8723 127.492 84.8414 127.372 84.84 127.25C84.8422 127.109 84.88 126.972 84.95 126.85C85.0182 126.734 85.119 126.64 85.24 126.58C85.3304 126.526 85.4344 126.498 85.54 126.5C85.6476 126.496 85.7545 126.52 85.85 126.57C85.85 126.57 85.85 126.57 85.85 126.44C85.8555 126.427 85.8583 126.414 85.8583 126.4C85.8583 126.386 85.8555 126.373 85.85 126.36C85.8392 126.346 85.8256 126.334 85.8101 126.326C85.7947 126.317 85.7776 126.312 85.76 126.31C85.736 126.306 85.7142 126.293 85.6979 126.275C85.6816 126.257 85.6718 126.234 85.67 126.21C85.67 126.13 85.74 126.08 85.88 126.04C86.0424 125.988 86.2101 125.955 86.38 125.94C86.5 125.94 86.57 125.98 86.57 126.05ZM85.77 126.79C85.7386 126.793 85.7085 126.804 85.6824 126.821C85.6562 126.838 85.6347 126.862 85.62 126.89C85.5668 127.002 85.5427 127.126 85.55 127.25C85.5418 127.355 85.5663 127.46 85.62 127.55C85.6346 127.573 85.6554 127.592 85.6801 127.605C85.7048 127.617 85.7325 127.622 85.76 127.62C85.7916 127.618 85.8218 127.606 85.8467 127.586C85.8716 127.567 85.8902 127.54 85.9 127.51C85.9217 127.391 85.9217 127.269 85.9 127.15C85.9237 127.051 85.9237 126.949 85.9 126.85C85.8866 126.828 85.8671 126.811 85.844 126.8C85.8209 126.79 85.7951 126.786 85.77 126.79Z" fill="white"/>
<path d="M88.16 127.28H87.5C87.5022 127.315 87.5124 127.35 87.5297 127.381C87.547 127.412 87.571 127.439 87.6 127.46C87.6606 127.513 87.7392 127.542 87.82 127.54C87.8729 127.549 87.927 127.549 87.98 127.54C88.0303 127.525 88.0776 127.501 88.12 127.47H88.2C88.2109 127.465 88.2228 127.462 88.235 127.462C88.2471 127.462 88.2591 127.465 88.27 127.47C88.2823 127.502 88.2823 127.538 88.27 127.57C88.2667 127.611 88.2531 127.651 88.2304 127.686C88.2077 127.721 88.1766 127.75 88.14 127.77C87.9849 127.888 87.7949 127.951 87.6 127.95C87.4133 127.956 87.2312 127.892 87.09 127.77C87.0198 127.712 86.962 127.641 86.92 127.56C86.8611 127.453 86.8302 127.332 86.83 127.21C86.8292 127.047 86.8819 126.889 86.98 126.76C87.069 126.652 87.182 126.566 87.31 126.51C87.4119 126.47 87.5205 126.45 87.63 126.45C87.8042 126.442 87.975 126.499 88.11 126.61C88.1734 126.66 88.2276 126.721 88.27 126.79C88.3064 126.865 88.3269 126.947 88.33 127.03C88.3475 127.082 88.3475 127.138 88.33 127.19C88.3296 127.209 88.3239 127.229 88.3137 127.245C88.3034 127.262 88.2888 127.276 88.2715 127.285C88.2541 127.294 88.2346 127.298 88.215 127.298C88.1954 127.297 88.1764 127.291 88.16 127.28ZM87.51 127.01H87.66C87.6722 127.012 87.6846 127.01 87.6963 127.006C87.7079 127.002 87.7185 126.996 87.7272 126.987C87.736 126.978 87.7425 126.968 87.7465 126.956C87.7504 126.944 87.7516 126.932 87.75 126.92C87.7644 126.878 87.7644 126.832 87.75 126.79C87.7113 126.775 87.6686 126.775 87.63 126.79C87.6039 126.788 87.578 126.794 87.555 126.806C87.532 126.819 87.513 126.837 87.5 126.86C87.487 126.899 87.487 126.941 87.5 126.98C87.5 126.98 87.5 126.98 87.5 127.04L87.51 127.01Z" fill="white"/>
<path d="M23.16 17.0598C23.8737 17.0403 24.5749 17.2506 25.16 17.6598C25.4279 17.8453 25.639 18.1015 25.77 18.3998C25.9081 18.7499 25.976 19.1236 25.97 19.4998V20.4998C25.9377 20.9651 25.9885 21.4324 26.12 21.8798C26.1517 21.9557 26.2035 22.0214 26.27 22.0698C26.3581 22.1104 26.4531 22.1341 26.55 22.1398C26.5839 22.1435 26.6167 22.154 26.6463 22.1708C26.676 22.1875 26.702 22.2102 26.7226 22.2373C26.7432 22.2645 26.758 22.2956 26.7662 22.3287C26.7743 22.3618 26.7756 22.3962 26.77 22.4298C26.7585 22.6785 26.6673 22.917 26.51 23.1098C26.3274 23.3549 26.0958 23.5592 25.83 23.7098C25.5069 23.9046 25.1372 24.0082 24.76 24.0098C24.5451 24.0205 24.3307 23.9819 24.1332 23.897C23.9356 23.8121 23.76 23.6831 23.62 23.5198C23.52 23.3998 23.44 23.3398 23.35 23.3398C23.216 23.3605 23.091 23.4195 22.99 23.5098C22.5415 23.8408 21.9973 24.0164 21.44 24.0098C20.9294 24.0319 20.4241 23.8995 19.99 23.6298C19.7493 23.4593 19.5537 23.2328 19.42 22.9698C19.2752 22.71 19.1994 22.4173 19.2 22.1198C19.2026 21.8809 19.2557 21.6451 19.3556 21.428C19.4555 21.2109 19.6001 21.0173 19.78 20.8598C20.5241 20.2287 21.487 19.9161 22.46 19.9898C22.6307 20.0065 22.8029 19.979 22.96 19.9098C23.03 19.8598 23.06 19.7398 23.06 19.5498C23.0815 19.1933 23.0305 18.8361 22.91 18.4998C22.8739 18.3999 22.807 18.3141 22.7189 18.2547C22.6308 18.1954 22.5261 18.1657 22.42 18.1698C22.2868 18.1684 22.1569 18.2105 22.05 18.2898C21.8987 18.4266 21.7644 18.5811 21.65 18.7498C21.5251 18.9864 21.3439 19.1886 21.1224 19.3386C20.9009 19.4885 20.646 19.5817 20.38 19.6098C20.1793 19.6178 19.9829 19.55 19.83 19.4198C19.761 19.3523 19.7067 19.2713 19.6706 19.1818C19.6345 19.0923 19.6172 18.9963 19.62 18.8998C19.6258 18.6541 19.7219 18.4192 19.89 18.2398C20.0836 18.0018 20.3256 17.8075 20.6 17.6698C21.3901 17.2589 22.2694 17.0494 23.16 17.0598ZM22.71 21.0598C22.6095 21.0588 22.51 21.0798 22.4184 21.1213C22.3269 21.1627 22.2455 21.2237 22.18 21.2998C22.0338 21.4611 21.955 21.6723 21.96 21.8898C21.9485 22.0799 22.0052 22.2679 22.12 22.4198C22.1657 22.4853 22.2273 22.5379 22.2991 22.5729C22.3708 22.6079 22.4503 22.6241 22.53 22.6198C22.9 22.6198 23.08 22.3198 23.08 21.6998C23.0919 21.526 23.0646 21.3517 23 21.1898C22.9721 21.1374 22.9303 21.0937 22.8791 21.0637C22.8279 21.0337 22.7693 21.0185 22.71 21.0198V21.0598Z" fill="#0B843B"/>
<path d="M30.9201 14.95L30.8301 17.62V17.77C30.8301 17.86 30.8301 17.91 30.9201 17.91C31.0219 17.8654 31.1137 17.8008 31.1901 17.72C31.682 17.303 32.3052 17.0728 32.9501 17.07C33.5825 17.0673 34.1902 17.3155 34.6401 17.76C34.9432 18.0512 35.1817 18.4029 35.3402 18.7922C35.4987 19.1816 35.5736 19.5999 35.5601 20.02C35.5601 21.0809 35.1386 22.0983 34.3885 22.8484C33.6383 23.5986 32.6209 24.02 31.5601 24.02C31.1267 24.0255 30.6951 23.9648 30.2801 23.84C29.8381 23.6888 29.4179 23.4803 29.0301 23.22C28.9825 23.1871 28.9275 23.1665 28.8701 23.16C28.7221 23.1863 28.5778 23.2299 28.4401 23.29C28.3085 23.3368 28.1697 23.3605 28.0301 23.36C27.7401 23.36 27.6001 23.27 27.6001 23.08C27.5925 23.0135 27.5925 22.9464 27.6001 22.88C27.6997 22.5209 27.76 22.1521 27.7801 21.78C27.7801 21.34 27.8301 20.65 27.8301 19.7V17.85C27.8407 17.5558 27.8239 17.2612 27.7801 16.97C27.7522 16.9034 27.71 16.8437 27.6564 16.7953C27.6028 16.7469 27.5392 16.7109 27.4701 16.69C27.2875 16.6255 27.1205 16.5233 26.9801 16.39C26.9323 16.3414 26.8952 16.2835 26.8711 16.2198C26.847 16.1561 26.8364 16.088 26.8401 16.02C26.8401 15.71 27.1601 15.42 27.8401 15.13C28.2671 14.9452 28.7131 14.8078 29.1701 14.72C29.6237 14.5949 30.09 14.5211 30.5601 14.5C30.8001 14.5 30.9201 14.68 30.9201 14.95ZM31.5001 19.12C31.3967 19.113 31.2932 19.1333 31.2002 19.1789C31.1072 19.2246 31.0278 19.2939 30.9701 19.38C30.8568 19.6234 30.8119 19.893 30.8401 20.16C30.8207 20.8818 30.8575 21.6039 30.9501 22.32C30.9539 22.3923 30.972 22.4631 31.0032 22.5283C31.0344 22.5936 31.0783 22.6521 31.1321 22.7004C31.186 22.7487 31.2489 22.7859 31.3172 22.8098C31.3855 22.8338 31.4578 22.844 31.5301 22.84C31.683 22.8459 31.8346 22.8098 31.9685 22.7358C32.1025 22.6618 32.2137 22.5526 32.2901 22.42C32.4845 22.0404 32.5742 21.6158 32.5501 21.19C32.5859 20.5943 32.4319 20.0026 32.1101 19.5C32.0451 19.3935 31.9561 19.3036 31.8501 19.2376C31.7442 19.1717 31.6243 19.1314 31.5001 19.12Z" fill="#0B843B"/>
<path d="M39.95 17.07C40.7068 17.0552 41.4512 17.2639 42.09 17.67C42.3508 17.8135 42.5694 18.0229 42.7238 18.2774C42.8782 18.5318 42.9631 18.8224 42.97 19.12C42.9831 19.3069 42.9529 19.4944 42.8818 19.6678C42.8107 19.8413 42.7006 19.996 42.56 20.12C42.31 20.3509 41.9804 20.4763 41.64 20.47C41.4756 20.4769 41.3119 20.4431 41.1636 20.3715C41.0154 20.3 40.887 20.193 40.79 20.06C40.6791 19.8503 40.5919 19.6289 40.53 19.4C40.4975 19.2359 40.4088 19.0882 40.2793 18.9824C40.1497 18.8765 39.9873 18.8191 39.82 18.82C39.6962 18.8203 39.5743 18.8504 39.4647 18.9079C39.355 18.9653 39.2608 19.0484 39.19 19.15C39.0143 19.3828 38.9226 19.6683 38.93 19.96C38.9362 20.4849 39.1397 20.9882 39.5 21.37C39.6518 21.5368 39.8372 21.6694 40.0441 21.7591C40.251 21.8487 40.4746 21.8933 40.7 21.89C40.8951 21.8936 41.0899 21.8735 41.28 21.83C41.49 21.7681 41.6942 21.6878 41.89 21.59C41.9551 21.5569 42.0271 21.5397 42.1 21.54C42.1803 21.5444 42.2586 21.5665 42.3294 21.6045C42.4003 21.6425 42.4619 21.6956 42.51 21.76C42.6296 21.9066 42.6934 22.0908 42.69 22.28C42.6758 22.516 42.5844 22.7408 42.43 22.92C42.2517 23.1588 42.0273 23.3594 41.77 23.51C41.1368 23.8899 40.4082 24.0807 39.67 24.06C38.7973 24.085 37.945 23.7938 37.27 23.24C36.8669 22.9274 36.5421 22.5252 36.3217 22.0651C36.1012 21.6051 35.9911 21.1 36 20.59C35.9912 20.1034 36.0928 19.6211 36.2972 19.1795C36.5016 18.7378 36.8034 18.3482 37.18 18.04C37.9506 17.3834 38.9382 17.0375 39.95 17.07Z" fill="#0B843B"/>
<path d="M51.4099 15.09V21.33C51.3856 21.5594 51.3856 21.7906 51.4099 22.02C51.4623 22.1396 51.5494 22.2406 51.6599 22.31C51.7918 22.3869 51.9073 22.4888 51.9999 22.61C52.0533 22.7045 52.0809 22.8114 52.0799 22.92C52.0799 23.29 51.7099 23.57 50.9799 23.76C50.3267 23.9284 49.6546 24.0124 48.9799 24.01C48.8794 24.0211 48.7779 24.0001 48.6899 23.95C48.6347 23.8562 48.607 23.7488 48.6099 23.64C48.6099 23.4 48.4999 23.29 48.3599 23.29C48.2232 23.3207 48.0983 23.3902 47.9999 23.49C47.567 23.8574 47.0178 24.0593 46.4499 24.06C45.7341 24.0583 45.0479 23.7744 44.5399 23.27C44.2095 22.9596 43.9355 22.5941 43.7299 22.19C43.4681 21.6896 43.3277 21.1347 43.3199 20.57C43.3225 19.9117 43.5096 19.2673 43.8599 18.71C44.1758 18.1671 44.6409 17.7263 45.1999 17.44C45.6294 17.2042 46.1101 17.0772 46.5999 17.07C47.0959 17.0588 47.586 17.1796 48.0199 17.42C48.0675 17.4529 48.1225 17.4735 48.1799 17.48C48.3299 17.48 48.3999 17.28 48.3999 16.89C48.4094 16.7496 48.3667 16.6107 48.2799 16.5C48.1606 16.3905 48.0165 16.3115 47.8599 16.27C47.5699 16.18 47.4299 16.02 47.4299 15.79C47.4299 15.56 47.7599 15.2 48.4299 15.02C49.2041 14.7558 50.006 14.5813 50.8199 14.5C51.2099 14.5 51.4099 14.72 51.4099 15.09ZM47.6999 18.5C47.5494 18.5036 47.4028 18.5495 47.2772 18.6327C47.1516 18.7158 47.052 18.8328 46.9899 18.97C46.7365 19.4854 46.6162 20.0561 46.6399 20.63C46.6104 21.1202 46.7289 21.608 46.9799 22.03C47.0521 22.1356 47.1491 22.2219 47.2625 22.2812C47.3758 22.3405 47.502 22.371 47.6299 22.37C47.7801 22.3659 47.9249 22.3129 48.0422 22.2191C48.1595 22.1252 48.243 21.9956 48.2799 21.85C48.4382 21.3116 48.5058 20.7506 48.4799 20.19C48.5244 19.7104 48.4416 19.2275 48.2399 18.79C48.1807 18.701 48.1005 18.6279 48.0063 18.5774C47.9121 18.5268 47.8069 18.5002 47.6999 18.5Z" fill="#0B843B"/>
<path d="M58.84 20.8099H55.63C55.49 20.8099 55.42 20.8699 55.42 20.9999C55.4315 21.1657 55.4807 21.3267 55.5639 21.4705C55.6471 21.6144 55.762 21.7373 55.9 21.8299C56.1753 22.0777 56.5298 22.2195 56.9 22.2299C57.1488 22.2263 57.3953 22.1824 57.63 22.0999C57.8654 22.0331 58.0883 21.9284 58.29 21.7899C58.3959 21.7029 58.5241 21.6475 58.66 21.6299C58.7302 21.637 58.798 21.6596 58.8585 21.6959C58.919 21.7321 58.9707 21.7813 59.01 21.8399C59.1153 21.9706 59.175 22.1321 59.18 22.2999C59.1574 22.4955 59.0896 22.6831 58.982 22.848C58.8744 23.0129 58.7299 23.1505 58.56 23.2499C57.8361 23.7903 56.9533 24.0752 56.05 24.0599C55.1756 24.0849 54.3222 23.7897 53.65 23.2299C53.3284 22.9496 53.0636 22.6101 52.87 22.2299C52.6046 21.7314 52.4671 21.1747 52.47 20.6099C52.4621 19.845 52.7162 19.1004 53.19 18.4999C53.5844 17.9759 54.113 17.5682 54.72 17.3199C55.2015 17.1203 55.7189 17.0216 56.24 17.0299C57.0366 17.0055 57.8161 17.2641 58.44 17.7599C58.7443 17.9995 58.9962 18.299 59.18 18.6399C59.391 18.9899 59.5017 19.3912 59.5 19.7999C59.5109 20.0554 59.4485 20.3087 59.32 20.5299C59.2729 20.6157 59.2034 20.6871 59.1188 20.7364C59.0343 20.7857 58.9379 20.8111 58.84 20.8099ZM55.8 19.4999H56.5C56.79 19.4999 56.93 19.3699 56.93 19.0999C56.9413 18.8801 56.8659 18.6647 56.72 18.4999C56.6509 18.4234 56.5658 18.3632 56.4707 18.3234C56.3757 18.2837 56.273 18.2654 56.17 18.2699C56.0528 18.2647 55.9361 18.2896 55.8311 18.3421C55.7261 18.3946 55.6363 18.473 55.57 18.5699C55.4368 18.7302 55.3627 18.9315 55.36 19.1399C55.3426 19.207 55.3467 19.2779 55.3719 19.3425C55.397 19.4072 55.4418 19.4622 55.5 19.4999C55.5979 19.5294 55.7022 19.5294 55.8 19.4999Z" fill="#0B843B"/>
</svg>
