<svg width="65" height="17" viewBox="0 0 65 17" fill="none" xmlns="http://www.w3.org/2000/svg">
<path d="M32.5095 16.6294C50.0628 16.6294 64.2925 12.9348 64.2925 8.37721C64.2925 3.81964 50.0628 0.125 32.5095 0.125C14.9563 0.125 0.726562 3.81964 0.726562 8.37721C0.726562 12.9348 14.9563 16.6294 32.5095 16.6294Z" fill="#0B843B"/>
<path d="M14.0522 8.63876V9.68899C14.059 9.80224 14.0385 9.91547 13.9923 10.0191C13.9418 10.115 13.8636 10.1934 13.768 10.2441C13.6348 10.3221 13.4946 10.3874 13.3492 10.4391C12.8825 10.6097 12.4022 10.7402 11.9134 10.8292C11.4197 10.9162 10.9191 10.9588 10.4178 10.9567C9.83877 10.9613 9.26124 10.8958 8.69781 10.7617C8.2271 10.6536 7.77908 10.4631 7.37422 10.1991C7.02865 9.96973 6.73966 9.66445 6.52919 9.3064C6.33239 8.94561 6.23191 8.53989 6.23753 8.12866C6.23476 7.72345 6.33241 7.3239 6.5217 6.96593C6.72462 6.60264 7.01193 6.29383 7.35925 6.06573C7.77218 5.80163 8.22759 5.61127 8.7053 5.50312C9.29635 5.36752 9.90127 5.30205 10.5076 5.30807C11.0099 5.29855 11.5116 5.34636 12.0032 5.4506C12.3621 5.52959 12.7091 5.6557 13.0352 5.82568C13.2612 5.94605 13.4638 6.10612 13.6334 6.29828C13.7479 6.4192 13.8189 6.57495 13.8353 6.74089C13.8312 6.81496 13.8075 6.8866 13.7668 6.94853C13.7261 7.01046 13.6697 7.06044 13.6035 7.09344C13.4357 7.19871 13.2403 7.25099 13.0426 7.24348C12.9258 7.24493 12.8097 7.22719 12.6986 7.19096C12.5972 7.15667 12.5033 7.10322 12.422 7.03346C12.2624 6.85812 12.09 6.6951 11.906 6.54584C11.7312 6.421 11.5365 6.32712 11.3301 6.26829C11.0321 6.19254 10.7252 6.15721 10.4178 6.16326C10.0695 6.15562 9.7219 6.19856 9.38583 6.29077C9.11543 6.37158 8.86201 6.50124 8.63802 6.67336C8.42557 6.83764 8.25615 7.05135 8.14444 7.296C8.02871 7.54752 7.96999 7.82165 7.97246 8.09867C7.9537 8.38415 8.00448 8.66994 8.12043 8.93133C8.23639 9.19271 8.41405 9.42185 8.63802 9.59897C9.17615 9.97328 9.82393 10.1556 10.4776 10.1166C10.8414 10.12 11.2046 10.0873 11.5619 10.0191C11.9095 9.94757 12.2518 9.85232 12.5864 9.734V8.82629H11.3002C11.0645 8.83463 10.8292 8.80163 10.6048 8.72877C10.535 8.71164 10.4731 8.67105 10.4296 8.61371C10.386 8.55637 10.3634 8.48577 10.3655 8.41372C10.3674 8.35065 10.3866 8.28934 10.4209 8.23644C10.4552 8.18353 10.5032 8.14109 10.5599 8.11368C10.7251 8.02505 10.9113 7.98352 11.0983 7.99363H12.9828C13.1795 7.98023 13.3769 7.98023 13.5736 7.99363C13.7187 8.01646 13.854 8.08169 13.9624 8.18117C14.0101 8.24612 14.0428 8.32084 14.0583 8.39994C14.0738 8.47904 14.0717 8.56056 14.0522 8.63876Z" fill="white"/>
<path d="M20.4397 10.2448L20.0509 9.55471H16.7231L16.3267 10.2599C16.2267 10.4641 16.0956 10.6514 15.9379 10.815C15.7824 10.9221 15.595 10.9725 15.4069 10.9575C15.211 10.9608 15.0185 10.906 14.8536 10.7999C14.7874 10.768 14.7306 10.7194 14.6887 10.659C14.6468 10.5985 14.6211 10.5282 14.6143 10.4549C14.6173 10.374 14.6377 10.2946 14.6741 10.2224C14.7115 10.1473 14.7713 10.0348 14.8536 9.89228L16.9474 6.34403C17.0073 6.24651 17.082 6.12649 17.1643 5.97646C17.2381 5.8475 17.3286 5.72897 17.4335 5.62391C17.5405 5.52266 17.668 5.44589 17.8074 5.39887C18.182 5.27883 18.5845 5.27883 18.959 5.39887C19.0997 5.44301 19.2279 5.52015 19.333 5.62391C19.4247 5.71091 19.5051 5.80917 19.5723 5.91643C19.6396 6.02146 19.7218 6.16403 19.8191 6.33656L21.9578 9.86225C22.089 10.0335 22.1762 10.2344 22.212 10.4474C22.2057 10.5218 22.1803 10.5934 22.1384 10.6551C22.0965 10.7169 22.0394 10.7667 21.9727 10.7999C21.8035 10.9089 21.6054 10.9638 21.4044 10.9575C21.2906 10.9604 21.177 10.9452 21.0679 10.9125C20.9845 10.8823 20.9063 10.8393 20.8361 10.785C20.7557 10.712 20.6853 10.6288 20.6267 10.5374L20.4397 10.2448ZM17.1568 8.74453H19.6022L18.3683 6.49407L17.1568 8.74453Z" fill="white"/>
<path d="M25.0531 5.97622V9.95202H28.3958C28.6101 9.94163 28.8235 9.98552 29.0165 10.0796C29.0773 10.1112 29.1286 10.1584 29.1654 10.2163C29.2022 10.2743 29.223 10.341 29.2258 10.4096C29.2254 10.4789 29.2056 10.5465 29.1685 10.6049C29.1315 10.6633 29.0788 10.7101 29.0165 10.7397C28.8229 10.8315 28.6094 10.8728 28.3958 10.8597H24.3875C24.1288 10.8731 23.8712 10.8188 23.6397 10.7022C23.5585 10.6441 23.4938 10.5658 23.4519 10.4751C23.4099 10.3843 23.3922 10.2842 23.4004 10.1846V5.97622C23.3953 5.87984 23.4138 5.78369 23.4542 5.6961C23.4946 5.60851 23.5557 5.53213 23.6322 5.47363C23.8058 5.35511 24.0133 5.2971 24.223 5.30857C24.4374 5.29601 24.6501 5.35397 24.8287 5.47363C24.9054 5.53158 24.9661 5.60808 25.0054 5.69596C25.0446 5.78385 25.061 5.88025 25.0531 5.97622Z" fill="white"/>
<path d="M31.9638 5.97622V9.95202H35.3289C35.5433 9.94097 35.7568 9.98489 35.9496 10.0796C36.0104 10.1112 36.0617 10.1584 36.0985 10.2163C36.1353 10.2743 36.1561 10.341 36.159 10.4096C36.1586 10.4789 36.1387 10.5465 36.1017 10.6049C36.0647 10.6633 36.0119 10.7101 35.9496 10.7397C35.7564 10.8325 35.5427 10.8738 35.3289 10.8597H31.3281C31.0694 10.8731 30.8118 10.8188 30.5803 10.7022C30.5 10.6437 30.4363 10.5652 30.3956 10.4744C30.3549 10.3836 30.3387 10.2836 30.3485 10.1846V5.97622C30.3419 5.88041 30.3589 5.78444 30.398 5.69679C30.4372 5.60913 30.4972 5.5325 30.5728 5.47363C30.7468 5.35612 30.9541 5.2982 31.1636 5.30857C31.378 5.29601 31.5907 5.35397 31.7693 5.47363C31.8406 5.53481 31.8956 5.61271 31.9295 5.7004C31.9634 5.7881 31.9752 5.88285 31.9638 5.97622Z" fill="white"/>
<path d="M42.6496 6.25373H38.9105V7.62653H42.3505C42.5464 7.61416 42.7422 7.65295 42.9188 7.73907C42.9751 7.76612 43.0227 7.80868 43.0558 7.86182C43.0889 7.91495 43.1062 7.97644 43.1058 8.0391C43.1053 8.10157 43.0876 8.16272 43.0546 8.2157C43.0216 8.26867 42.9746 8.31142 42.9188 8.33918C42.745 8.43375 42.5475 8.47544 42.3505 8.45918H38.9105V10.012H42.7767C42.9808 9.99833 43.1848 10.0398 43.3675 10.1321C43.4255 10.1626 43.474 10.2084 43.5079 10.2646C43.5417 10.3208 43.5596 10.3852 43.5596 10.4509C43.5596 10.5165 43.5417 10.5809 43.5079 10.6371C43.474 10.6933 43.4255 10.7392 43.3675 10.7697C43.1848 10.8619 42.9808 10.9034 42.7767 10.8897H38.2898C38.0312 10.903 37.7735 10.8488 37.542 10.7322C37.4609 10.6741 37.3962 10.5958 37.3543 10.5051C37.3123 10.4143 37.2945 10.3142 37.3027 10.2146V6.1112C37.2966 5.97345 37.3332 5.83721 37.4074 5.72115C37.4933 5.61256 37.611 5.53379 37.744 5.49607C37.9318 5.4465 38.1256 5.4238 38.3198 5.42858H42.702C42.906 5.4149 43.11 5.45633 43.2927 5.54859C43.3493 5.57746 43.3968 5.6215 43.43 5.67578C43.4632 5.73006 43.4808 5.7925 43.4808 5.85617C43.4808 5.91985 43.4632 5.98229 43.43 6.03657C43.3968 6.09085 43.3493 6.13485 43.2927 6.16372C43.0915 6.2554 42.8681 6.28666 42.6496 6.25373Z" fill="white"/>
<path d="M47.093 8.52696H46.5097V10.2823C46.5174 10.3801 46.5002 10.4782 46.4597 10.5674C46.4191 10.6567 46.3565 10.7341 46.2779 10.7924C46.1024 10.9066 45.8963 10.9642 45.6872 10.9574C45.467 10.97 45.2488 10.9094 45.0665 10.7849C44.9936 10.724 44.9361 10.6468 44.8984 10.5595C44.8607 10.4722 44.844 10.3772 44.8496 10.2823V6.08145C44.8414 5.98177 44.8591 5.88167 44.9011 5.79094C44.943 5.70021 45.0078 5.62195 45.0889 5.56384C45.318 5.44011 45.577 5.38298 45.8367 5.39883H48.5887C48.9626 5.39883 49.2767 5.39882 49.5459 5.43633C49.7997 5.44539 50.0512 5.48826 50.2937 5.56384C50.5387 5.62674 50.7713 5.7307 50.9817 5.87138C51.1632 5.99182 51.3163 6.15059 51.4303 6.33652C51.5267 6.50842 51.5781 6.70195 51.5799 6.89914C51.5847 7.09246 51.5397 7.28375 51.4493 7.45456C51.359 7.62538 51.2262 7.76996 51.0639 7.87433C50.5895 8.16616 50.0549 8.34574 49.501 8.39944C49.8028 8.50606 50.0856 8.66054 50.3386 8.85703C50.6086 9.04936 50.8591 9.26796 51.0864 9.50966C51.2713 9.70006 51.4366 9.90867 51.5799 10.1323C51.6697 10.2434 51.7312 10.3746 51.7594 10.5148C51.7528 10.5958 51.7153 10.671 51.6547 10.7249C51.5764 10.8045 51.4783 10.8615 51.3705 10.8899C51.2386 10.9372 51.0993 10.9601 50.9592 10.9574C50.7975 10.9623 50.6367 10.9316 50.4881 10.8674C50.3674 10.8101 50.2563 10.7342 50.1591 10.6424C50.0693 10.5599 49.9497 10.4248 49.7926 10.2523L49.1271 9.50215C48.9327 9.27705 48.7174 9.07107 48.484 8.88702C48.3154 8.75318 48.1223 8.65378 47.9156 8.59445C47.646 8.53284 47.369 8.51013 47.093 8.52696ZM48.0428 6.23149H46.5472V7.7318H48.0428C48.3781 7.73622 48.7131 7.71362 49.0448 7.66426C49.269 7.63536 49.4838 7.55586 49.673 7.43172C49.7351 7.37955 49.7856 7.315 49.8214 7.24216C49.8573 7.16932 49.8776 7.08981 49.8811 7.00866C49.8847 6.92751 49.8713 6.84648 49.8419 6.7708C49.8125 6.69512 49.7677 6.62644 49.7104 6.56907C49.574 6.44609 49.4097 6.3585 49.2318 6.314C48.8472 6.24287 48.4559 6.2152 48.0652 6.23149H48.0428Z" fill="white"/>
<path d="M54.5032 10.2819V8.549L52.5066 6.47857C52.3721 6.34235 52.2472 6.19701 52.1327 6.04351C52.069 5.96688 52.0299 5.87277 52.0205 5.77347C52.0248 5.70328 52.0478 5.63552 52.0873 5.57741C52.1268 5.51931 52.1813 5.47302 52.2448 5.4434C52.411 5.34894 52.5999 5.30218 52.7907 5.30833C52.9716 5.29808 53.1513 5.34253 53.3067 5.43589C53.4983 5.58989 53.676 5.76059 53.8377 5.94599L55.3333 7.6038L56.8813 5.94599L57.1205 5.69092C57.1831 5.61847 57.2533 5.55307 57.33 5.49587C57.4068 5.43533 57.4926 5.38723 57.5842 5.35334C57.6933 5.32058 57.8069 5.30539 57.9207 5.30833C58.1045 5.30196 58.2863 5.34888 58.4442 5.4434C58.5038 5.47256 58.5546 5.5171 58.5914 5.57247C58.6282 5.62784 58.6497 5.69202 58.6536 5.75845C58.6494 5.86443 58.6129 5.96656 58.5489 6.05102C58.4346 6.19065 58.3123 6.32339 58.1825 6.44858L56.1335 8.549V10.2819C56.1406 10.3785 56.123 10.4754 56.0824 10.5633C56.0419 10.6512 55.9797 10.7274 55.9017 10.7845C55.7253 10.9038 55.5159 10.9641 55.3034 10.957C55.0918 10.9649 54.8829 10.9072 54.7051 10.792C54.6325 10.73 54.5761 10.6511 54.5409 10.5622C54.5057 10.4732 54.4927 10.377 54.5032 10.2819Z" fill="white"/>
</svg>
