<svg width="64" height="17" viewBox="0 0 64 17" fill="none" xmlns="http://www.w3.org/2000/svg">
<path d="M32.1658 16.6294C49.719 16.6294 63.9487 12.9348 63.9487 8.37721C63.9487 3.81964 49.719 0.125 32.1658 0.125C14.6125 0.125 0.382812 3.81964 0.382812 8.37721C0.382812 12.9348 14.6125 16.6294 32.1658 16.6294Z" fill="#306091"/>
<path d="M10.4544 8.96949H9.10088V10.3423C9.1071 10.429 9.09116 10.5158 9.05451 10.5946C9.01786 10.6734 8.96176 10.7414 8.89152 10.7924C8.73855 10.8994 8.55432 10.9523 8.36804 10.9424C8.17686 10.9545 7.98721 10.9016 7.82964 10.7924C7.76189 10.7413 7.70789 10.6741 7.67263 10.5968C7.63736 10.5195 7.62194 10.4346 7.62771 10.3498V6.59903C7.62021 6.50951 7.63712 6.41962 7.67664 6.33901C7.71616 6.2584 7.77679 6.19013 7.85205 6.14144C8.08217 6.02193 8.34207 5.97239 8.59986 5.99891H10.4918C10.9224 5.98933 11.353 6.01946 11.7781 6.08893C12.0409 6.13524 12.2939 6.22658 12.5259 6.35897C12.726 6.47419 12.8954 6.63636 13.0195 6.83157C13.1313 7.01959 13.1883 7.23532 13.184 7.45421C13.1902 7.68752 13.1294 7.91769 13.0087 8.11724C12.888 8.31678 12.7126 8.47724 12.5035 8.57944C11.8622 8.87442 11.1589 9.00827 10.4544 8.96949ZM10.0955 6.71903H9.10088V8.21934H10.103C10.3936 8.22381 10.684 8.20123 10.9704 8.15185C11.1675 8.11969 11.353 8.037 11.5089 7.91179C11.5683 7.85658 11.6152 7.78911 11.6462 7.714C11.6771 7.63889 11.6915 7.55792 11.6883 7.47669C11.6908 7.37189 11.6659 7.26828 11.616 7.17616C11.5662 7.08403 11.4931 7.00658 11.4042 6.95158C10.9946 6.77425 10.5468 6.70458 10.103 6.74907L10.0955 6.71903Z" fill="white"/>
<path d="M16.3934 8.78176H15.8774V10.3421C15.8843 10.4292 15.8696 10.5167 15.8343 10.5966C15.799 10.6765 15.7445 10.7463 15.6755 10.7997C15.5175 10.9013 15.332 10.9511 15.1445 10.9422C14.9485 10.9565 14.7533 10.9036 14.5912 10.7922C14.527 10.7371 14.4767 10.6677 14.4442 10.5895C14.4117 10.5113 14.398 10.4266 14.4042 10.3421V6.59132C14.3967 6.50339 14.412 6.41503 14.4487 6.33483C14.4854 6.25462 14.5422 6.18533 14.6136 6.13374C14.8261 6.02529 15.0637 5.97606 15.3016 5.99121H17.702C18.0311 5.99121 18.3153 5.99121 18.5546 5.99121C18.7697 6.00718 18.9827 6.04485 19.1902 6.1037C19.4048 6.16548 19.6089 6.25907 19.796 6.3813C19.9571 6.48749 20.0925 6.62845 20.1923 6.79388C20.281 6.94638 20.3275 7.11989 20.3269 7.29647C20.3308 7.46844 20.2909 7.63857 20.2111 7.79082C20.1313 7.94306 20.0142 8.07238 19.8707 8.16663C19.4478 8.42318 18.9721 8.57971 18.4798 8.62425C18.7491 8.7216 19.0015 8.86082 19.2276 9.03683C19.4565 9.20971 19.6692 9.40305 19.8632 9.61446C20.0262 9.78624 20.1738 9.97198 20.3045 10.1696C20.3822 10.2683 20.436 10.3839 20.4615 10.5071C20.4596 10.5436 20.45 10.5791 20.4332 10.6115C20.4164 10.6438 20.3929 10.6722 20.3643 10.6947C20.296 10.7649 20.2111 10.8165 20.1175 10.8447C19.9991 10.8826 19.8753 10.9003 19.7511 10.8972C19.6078 10.9025 19.465 10.877 19.3323 10.8222C19.2259 10.7723 19.1275 10.7065 19.0407 10.6272L18.7116 10.2746L18.1208 9.61446C17.9493 9.41413 17.759 9.23072 17.5525 9.06682C17.402 8.94813 17.229 8.86138 17.044 8.81179C16.8293 8.77442 16.6106 8.76431 16.3934 8.78176ZM17.2384 6.74887H15.8774V8.07661H17.1935C17.4938 8.08327 17.7942 8.06322 18.0909 8.01663C18.289 7.99522 18.479 7.92568 18.6443 7.81407C18.7064 7.76517 18.7563 7.70241 18.7901 7.63079C18.8238 7.55918 18.8405 7.48069 18.8387 7.4015C18.8383 7.33503 18.8241 7.26934 18.7971 7.20865C18.7701 7.14796 18.7308 7.09356 18.6817 7.0489C18.5615 6.93649 18.4149 6.85649 18.2555 6.81636C17.9197 6.7586 17.5788 6.736 17.2384 6.74887Z" fill="white"/>
<path d="M24.9256 5.92392C25.5868 5.90954 26.2453 6.01372 26.87 6.2315C27.3567 6.3954 27.7853 6.69771 28.1038 7.10166C28.3825 7.48695 28.5271 7.95356 28.5151 8.42945C28.5212 8.78246 28.4443 9.13194 28.2908 9.44965C28.1303 9.7696 27.8941 10.0452 27.6028 10.2523C27.2666 10.4958 26.8852 10.6693 26.4811 10.7624C25.9924 10.8869 25.4897 10.9474 24.9855 10.9424C24.4813 10.9465 23.9787 10.886 23.4899 10.7624C23.0863 10.657 22.7042 10.4818 22.3607 10.2448C22.0762 10.0345 21.8453 9.75978 21.6868 9.44301C21.5282 9.12624 21.4465 8.77639 21.4483 8.42194C21.4457 8.06518 21.5278 7.71293 21.6876 7.39423C21.8561 7.07956 22.094 6.80761 22.3831 6.59907C22.7228 6.36824 23.0997 6.19821 23.4973 6.09648C23.9648 5.98197 24.4444 5.92402 24.9256 5.92392ZM27.027 8.42194C27.0341 8.09498 26.9429 7.77347 26.7653 7.49926C26.5825 7.22946 26.3214 7.02254 26.0175 6.90661C25.6685 6.76499 25.2945 6.69611 24.9182 6.7041C24.6425 6.70206 24.3679 6.73993 24.103 6.8166C23.8703 6.88258 23.6522 6.99201 23.4599 7.13916C23.278 7.2836 23.1321 7.46853 23.0337 7.67929C22.9254 7.91421 22.8717 8.1707 22.8766 8.42945C22.873 8.68807 22.9266 8.94429 23.0337 9.1796C23.1343 9.39738 23.2857 9.58774 23.4749 9.73471C23.6703 9.88286 23.8907 9.99465 24.1255 10.0648C24.3914 10.1357 24.6655 10.171 24.9406 10.1698C25.2959 10.1748 25.6488 10.1112 25.98 9.98227C26.2801 9.86319 26.5397 9.66006 26.7279 9.39713C26.9297 9.11286 27.0346 8.77084 27.027 8.42194Z" fill="white"/>
<path d="M30.6923 6.00634H32.6141C33.0446 6.00126 33.4747 6.03137 33.9003 6.09636C34.2449 6.15555 34.5765 6.27486 34.88 6.44891C35.2368 6.63536 35.5333 6.92001 35.7346 7.26943C35.9359 7.61886 36.0338 8.01859 36.0167 8.42182C36.0175 8.69144 35.9771 8.9596 35.897 9.21698C35.8222 9.45493 35.703 9.67641 35.5456 9.86961C35.3738 10.0777 35.166 10.253 34.9323 10.3872C34.7327 10.5076 34.5193 10.6033 34.2967 10.6723C34.0528 10.7448 33.8023 10.7926 33.5489 10.8148C33.2483 10.8465 32.9463 10.8615 32.644 10.8598H30.7221C30.5168 10.872 30.3111 10.844 30.1164 10.7773C30.0594 10.7606 30.0066 10.7319 29.9614 10.6931C29.9163 10.6543 29.8799 10.6063 29.8547 10.5523C29.8082 10.4304 29.7878 10.3 29.7948 10.1697V6.60646C29.7873 6.51853 29.8027 6.43013 29.8394 6.34992C29.8761 6.26971 29.9329 6.20046 30.0042 6.14887C30.2167 6.04042 30.4544 5.9912 30.6923 6.00634ZM31.2681 6.7565V10.0496H32.3823H32.9582C33.104 10.0403 33.2489 10.0203 33.3919 9.98966C33.5272 9.95593 33.6578 9.90552 33.7807 9.83962C34.03 9.69685 34.2331 9.48514 34.3657 9.22975C34.4983 8.97436 34.5548 8.68608 34.5285 8.39934C34.5613 8.01253 34.4434 7.62798 34.1995 7.32658C33.9874 7.09341 33.7074 6.93329 33.3993 6.86899C33.0197 6.79747 32.6339 6.76479 32.2477 6.77147L31.2681 6.7565Z" fill="white"/>
<path d="M37.3168 8.85707V6.5241C37.3105 6.43815 37.3256 6.35194 37.3608 6.27334C37.3961 6.19474 37.4504 6.12621 37.5188 6.07399C37.6754 5.96882 37.8613 5.91628 38.0497 5.92395C38.2428 5.91566 38.4336 5.96812 38.5956 6.07399C38.6616 6.12789 38.7137 6.19693 38.7476 6.27526C38.7814 6.35359 38.7959 6.43894 38.79 6.5241V8.90959C38.7815 9.14532 38.8303 9.37957 38.9321 9.59221C39.0347 9.78659 39.205 9.93618 39.4107 10.0123C39.7247 10.1244 40.0573 10.1754 40.3903 10.1623C40.82 10.2053 41.251 10.0965 41.6093 9.85474C41.735 9.73678 41.8326 9.59187 41.8947 9.43081C41.9569 9.26976 41.982 9.09671 41.9682 8.92456V6.5241C41.9623 6.43894 41.9769 6.35359 42.0108 6.27526C42.0446 6.19693 42.0967 6.12789 42.1627 6.07399C42.3239 5.976 42.5088 5.92422 42.6973 5.92422C42.8858 5.92422 43.0708 5.976 43.2321 6.07399C43.3028 6.12439 43.3593 6.19237 43.396 6.27128C43.4327 6.35018 43.4483 6.43731 43.4414 6.5241V8.85707C43.4529 9.1802 43.3968 9.50217 43.2769 9.80227C43.1394 10.0852 42.9207 10.3203 42.6488 10.4774C42.3605 10.644 42.0474 10.7631 41.7215 10.83C41.3176 10.9097 40.9066 10.9474 40.4951 10.9425C40.0087 10.9503 39.5227 10.9101 39.0442 10.8225C38.694 10.7633 38.3587 10.6358 38.0572 10.4474C37.8117 10.2915 37.6169 10.0674 37.4963 9.80227C37.3693 9.50387 37.308 9.18143 37.3168 8.85707Z" fill="white"/>
<path d="M51.234 9.32968C51.2268 9.50929 51.1698 9.68331 51.0695 9.83227C50.9225 10.038 50.7402 10.2158 50.5311 10.3574C50.2435 10.5525 49.9248 10.6971 49.5888 10.785C49.1541 10.8967 48.7064 10.9496 48.2577 10.9425C47.9076 10.9446 47.5577 10.9221 47.2108 10.875C46.9166 10.8288 46.6282 10.7508 46.3508 10.6424C46.097 10.5445 45.86 10.4079 45.6479 10.2373C45.4594 10.0923 45.2931 9.92047 45.1543 9.72723C45.0215 9.54446 44.918 9.34198 44.8476 9.12712C44.7805 8.90593 44.7477 8.6757 44.7504 8.4445C44.7431 8.07825 44.8308 7.71635 45.0047 7.39427C45.1851 7.07159 45.4419 6.79848 45.7526 6.59911C46.0921 6.36801 46.4691 6.19795 46.8668 6.09652C47.3137 5.98014 47.7736 5.92212 48.2353 5.92395C48.7677 5.91752 49.2978 5.99601 49.8056 6.1565C50.1969 6.27398 50.5589 6.47344 50.8676 6.74164C51.0708 6.90212 51.2025 7.13673 51.234 7.39427C51.2306 7.45515 51.2126 7.51427 51.1813 7.56656C51.15 7.61884 51.1065 7.66273 51.0545 7.69435C50.9265 7.78071 50.7751 7.82525 50.6208 7.82186C50.4733 7.83082 50.326 7.79973 50.1945 7.73184C50.0768 7.64365 49.9711 7.54021 49.8804 7.42426C49.7015 7.1937 49.471 7.00869 49.2074 6.88417C48.9024 6.7558 48.5734 6.69442 48.2427 6.70414C47.7191 6.67881 47.204 6.84396 46.792 7.16923C46.6099 7.33191 46.4667 7.53385 46.3735 7.75991C46.2802 7.98597 46.2392 8.23026 46.2535 8.47449C46.2435 8.80581 46.3265 9.13331 46.4929 9.41969C46.6593 9.66879 46.8963 9.86214 47.1733 9.9748C47.4958 10.1072 47.8421 10.171 48.1904 10.1623C48.5606 10.175 48.9288 10.1032 49.2672 9.95227C49.5471 9.82109 49.7796 9.60625 49.9328 9.33718C49.9889 9.21803 50.0676 9.11098 50.1646 9.02209C50.2946 8.92872 50.4542 8.88607 50.6133 8.90208C50.7714 8.89717 50.9274 8.93888 51.062 9.02209C51.1146 9.05425 51.158 9.09945 51.1881 9.15331C51.2182 9.20717 51.234 9.26792 51.234 9.32968Z" fill="white"/>
<path d="M57.2927 6.81604H55.7224V10.3418C55.7286 10.4288 55.7135 10.516 55.6783 10.5958C55.6431 10.6756 55.5889 10.7455 55.5204 10.7994C55.3629 10.9019 55.1771 10.9518 54.9895 10.9419C54.8008 10.9529 54.6139 10.9 54.4586 10.7918C54.3894 10.74 54.334 10.6718 54.2975 10.5932C54.2609 10.5147 54.2443 10.4283 54.2492 10.3418V6.81604H52.6414C52.4488 6.82575 52.2566 6.78981 52.0805 6.71106C52.0252 6.68263 51.9787 6.63972 51.9458 6.58689C51.9129 6.53406 51.8948 6.47326 51.8936 6.41098C51.8952 6.34879 51.9143 6.28834 51.9487 6.23658C51.9831 6.18482 52.0314 6.14384 52.088 6.11841C52.2598 6.03386 52.4503 5.99514 52.6414 6.00591H57.3302C57.5261 5.99355 57.7219 6.03229 57.8985 6.11841C57.9537 6.1456 58.0003 6.18777 58.0328 6.24015C58.0653 6.29253 58.0825 6.35302 58.0825 6.41473C58.0825 6.47645 58.0653 6.53694 58.0328 6.58931C58.0003 6.64169 57.9537 6.68387 57.8985 6.71106C57.7086 6.79645 57.5002 6.83253 57.2927 6.81604Z" fill="white"/>
</svg>
