<svg width="64" height="17" viewBox="0 0 64 17" fill="none" xmlns="http://www.w3.org/2000/svg">
<path d="M32.1961 16.948C49.7493 16.948 63.979 13.2534 63.979 8.69582C63.979 4.13825 49.7493 0.443604 32.1961 0.443604C14.6428 0.443604 0.413086 4.13825 0.413086 8.69582C0.413086 13.2534 14.6428 16.948 32.1961 16.948Z" fill="#FFDA08"/>
<path d="M18.2317 10.5707L17.8354 9.88056H14.5076L14.1187 10.5857C14.0161 10.7884 13.8852 10.9753 13.7299 11.1408C13.5739 11.2469 13.3869 11.2971 13.1989 11.2834C13.0029 11.2876 12.8101 11.2327 12.6455 11.1258C12.5785 11.0951 12.5209 11.0469 12.4788 10.9861C12.4367 10.9254 12.4116 10.8545 12.4062 10.7808C12.4065 10.7003 12.4243 10.6209 12.4586 10.5482C12.496 10.4732 12.5558 10.3607 12.6455 10.2181L14.7394 6.6699L14.9563 6.30233C15.0301 6.17533 15.1178 6.05706 15.218 5.94976C15.3278 5.84853 15.4578 5.77184 15.5994 5.72472C15.9714 5.60478 16.3715 5.60478 16.7436 5.72472C16.8851 5.76688 17.0138 5.84429 17.1175 5.94976C17.2118 6.0363 17.2948 6.13463 17.3643 6.24233L17.611 6.66242L19.7498 10.1881C19.8777 10.3612 19.9647 10.5614 20.004 10.7732C19.9957 10.8471 19.9695 10.9178 19.9278 10.9792C19.8861 11.0406 19.8302 11.091 19.7647 11.1258C19.5928 11.2349 19.3922 11.2898 19.1889 11.2834C19.0751 11.2852 18.9617 11.2701 18.8524 11.2384C18.7697 11.2066 18.6917 11.1636 18.6206 11.1108C18.5428 11.0375 18.4749 10.9543 18.4186 10.8633L18.2317 10.5707ZM14.9488 9.0704H17.3941L16.1603 6.81994L14.9488 9.0704Z" fill="#FF3204"/>
<path d="M24.7181 11.1781H22.213C21.9541 11.1947 21.6955 11.1403 21.4652 11.0206C21.3864 10.9607 21.324 10.8819 21.2835 10.7915C21.243 10.701 21.2257 10.6018 21.2333 10.503V6.39967C21.2253 6.29893 21.2431 6.19781 21.2849 6.1059C21.3268 6.014 21.3914 5.93435 21.4726 5.87455C21.7028 5.75416 21.9615 5.69966 22.2205 5.71702H24.8752C25.215 5.71277 25.5547 5.73031 25.8922 5.76954C26.1494 5.79425 26.4015 5.85746 26.64 5.95708C26.826 6.02736 27.0001 6.12603 27.156 6.24963C27.2958 6.355 27.4128 6.48771 27.5 6.63972C27.5738 6.77819 27.6123 6.93278 27.6122 7.08979C27.6122 7.63741 27.2009 8.03499 26.3858 8.29004C27.4626 8.51509 28.0011 8.96518 28.0011 9.62532C27.9962 9.93595 27.87 10.2323 27.6496 10.4505C27.3822 10.7062 27.0559 10.8918 26.6998 10.9906C26.4178 11.0645 26.1302 11.1147 25.8399 11.1406C25.5258 11.1631 25.1519 11.1781 24.7181 11.1781ZM22.871 6.54971V7.95998H24.3667C24.6875 7.96939 25.0084 7.94425 25.3239 7.88498C25.5252 7.84747 25.7074 7.74148 25.8399 7.5849C25.8855 7.53843 25.9216 7.48335 25.946 7.42284C25.9704 7.36233 25.9826 7.29759 25.982 7.23233C25.9843 7.10358 25.9414 6.97812 25.8607 6.87797C25.78 6.77782 25.6667 6.7094 25.5407 6.68473C25.1003 6.57805 24.6474 6.53262 24.1947 6.54971H22.871ZM24.5985 8.75514H22.871V10.353H24.6508C25.7726 10.353 26.3334 10.0829 26.3334 9.54281C26.336 9.40908 26.295 9.27813 26.2168 9.16984C26.1385 9.06155 26.0272 8.9818 25.8997 8.94267C25.4821 8.79628 25.0402 8.73259 24.5985 8.75514Z" fill="#FF3204"/>
<path d="M33.0557 5.62689C33.7984 5.60844 34.5382 5.72535 35.2393 5.97195C35.7859 6.15365 36.2671 6.49285 36.6228 6.94717C36.9402 7.38157 37.1058 7.90897 37.0939 8.44747C37.0973 8.84689 37.0104 9.24186 36.8396 9.60269C36.6657 9.95639 36.4092 10.2627 36.0918 10.4954C35.7136 10.7683 35.2873 10.9668 34.8355 11.0805C34.2734 11.2228 33.6952 11.2909 33.1155 11.2831C32.5356 11.2877 31.9574 11.2171 31.3955 11.073C30.9403 10.9624 30.511 10.7636 30.1317 10.4879C29.8119 10.2546 29.555 9.94529 29.3839 9.5877C29.2097 9.23046 29.1201 8.83766 29.1222 8.43996C29.1182 8.03879 29.2105 7.64253 29.3914 7.28472C29.579 6.92903 29.8481 6.62308 30.1766 6.39204C30.5571 6.12816 30.9831 5.93739 31.4329 5.82942C31.9635 5.69518 32.5085 5.62716 33.0557 5.62689ZM35.4113 8.43245C35.4246 8.06674 35.3236 7.70602 35.1225 7.4007C34.9214 7.09538 34.6302 6.86074 34.2896 6.72961C33.6004 6.4675 32.8458 6.43332 32.1359 6.63209C31.8654 6.70164 31.6113 6.82401 31.3881 6.99217C31.1812 7.15412 31.0148 7.36215 30.902 7.5998C30.7854 7.86166 30.7268 8.1457 30.73 8.43245C30.727 8.72403 30.7856 9.01294 30.902 9.28013C31.0171 9.5248 31.1889 9.73828 31.403 9.90275C31.6272 10.071 31.8809 10.1957 32.1508 10.2703C32.4475 10.3546 32.7549 10.3951 33.0632 10.3904C33.4619 10.3966 33.858 10.3252 34.2297 10.1803C34.5714 10.051 34.8677 9.82406 35.0822 9.52767C35.3043 9.20655 35.4195 8.8232 35.4113 8.43245Z" fill="#FF3204"/>
<path d="M38.5229 8.92034V6.2948C38.5163 6.19899 38.5333 6.10303 38.5724 6.01537C38.6115 5.92772 38.6716 5.85108 38.7472 5.79221C38.924 5.67462 39.1336 5.61679 39.3455 5.62718C39.5622 5.6146 39.7773 5.67248 39.9587 5.79221C40.0343 5.85108 40.0943 5.92772 40.1335 6.01537C40.1726 6.10303 40.1896 6.19899 40.183 6.2948V8.98036C40.1759 9.23931 40.2298 9.4963 40.3401 9.73052C40.4546 9.95153 40.6463 10.1224 40.8785 10.2106C41.2307 10.3367 41.6041 10.3928 41.9778 10.3756C42.4611 10.4196 42.9452 10.3009 43.3537 10.0381C43.4923 9.90271 43.5996 9.7385 43.668 9.55706C43.7365 9.37561 43.7645 9.18134 43.7501 8.98787V6.2948C43.7435 6.19899 43.7605 6.10303 43.7996 6.01537C43.8387 5.92772 43.8988 5.85108 43.9744 5.79221C44.1567 5.68396 44.3646 5.62683 44.5764 5.62683C44.7882 5.62683 44.9961 5.68396 45.1784 5.79221C45.2564 5.84932 45.3187 5.92544 45.3592 6.01338C45.3998 6.10132 45.4173 6.19817 45.4102 6.2948V8.92034C45.4229 9.28706 45.3592 9.65242 45.2233 9.99308C45.0713 10.3096 44.8259 10.5715 44.5203 10.7432C44.2007 10.9394 43.8487 11.0765 43.4809 11.1483C43.0252 11.2376 42.5617 11.2804 42.0974 11.2758C41.5509 11.2833 41.005 11.2381 40.4672 11.1408C40.0722 11.0699 39.6942 10.9249 39.353 10.7132C39.0742 10.531 38.8556 10.2699 38.7248 9.96306C38.5851 9.63362 38.5163 9.27829 38.5229 8.92034Z" fill="#FF3204"/>
<path d="M52.5208 6.63208H50.7111V10.5704C50.7176 10.6673 50.7006 10.7643 50.6615 10.8532C50.6225 10.942 50.5625 11.02 50.4867 11.0805C50.3108 11.1938 50.1049 11.2514 49.8959 11.2455C49.6809 11.2537 49.4688 11.1933 49.2902 11.073C49.2137 11.0145 49.1526 10.9381 49.1122 10.8505C49.0718 10.7629 49.0533 10.6668 49.0584 10.5704V6.60207H47.2487C47.0318 6.6158 46.815 6.57182 46.6205 6.47455C46.5576 6.44564 46.5044 6.3991 46.4672 6.34054C46.4301 6.28198 46.4106 6.21389 46.4111 6.14448C46.4131 6.07467 46.4344 6.00677 46.4727 5.94845C46.511 5.89014 46.5648 5.84372 46.628 5.81442C46.8207 5.71973 47.0344 5.67583 47.2487 5.68688H52.4834C52.7051 5.67363 52.9265 5.71754 53.1265 5.81442C53.1888 5.84408 53.2416 5.89079 53.2786 5.94919C53.3157 6.00758 53.3355 6.07527 53.3359 6.14448C53.3347 6.2135 53.3144 6.28084 53.2775 6.33907C53.2405 6.39731 53.1883 6.44419 53.1265 6.47455C52.9401 6.57515 52.7324 6.62918 52.5208 6.63208Z" fill="#FF3204"/>
</svg>
