<svg width="76" height="116" viewBox="0 0 76 116" fill="none" xmlns="http://www.w3.org/2000/svg">
<path d="M13.2197 110.517C13.2197 110.517 13.7133 115.01 15.209 115.01H63.8182L65.3812 110.517H13.2197Z" fill="white" stroke="black" stroke-miterlimit="10"/>
<path d="M74.2046 16.8393C73.4082 13.0864 69.434 10.1291 69.434 10.1291V6.37618L39.3157 5.73818V4.90503L6.25986 5.65561V9.40852C6.25986 9.40852 2.50351 12.4109 1.75225 16.1638C1.00098 19.9167 1.00098 105.483 1.00098 105.483C1.00098 105.483 4.00605 109.987 8.51367 110.737H67.0451C71.8156 109.987 75.001 105.521 75.001 105.521C75.001 105.521 75.0009 20.5622 74.2046 16.8393Z" fill="#E82826" stroke="black" stroke-miterlimit="10"/>
<path d="M74.2888 88.0464H1.00098V100.03H74.2888V88.0464Z" fill="#E1BE1D" stroke="black" stroke-miterlimit="10"/>
<path d="M69.4277 1.0105H6.60961C5.16405 1.0105 3.99219 2.18413 3.99219 3.63188V3.93896C3.99219 5.3867 5.16405 6.56033 6.60961 6.56033H69.4277C70.8733 6.56033 72.0451 5.3867 72.0451 3.93896V3.63188C72.0451 2.18413 70.8733 1.0105 69.4277 1.0105Z" fill="white" stroke="black" stroke-miterlimit="10"/>
<path d="M1.74902 21.2415L22.6878 21.3838L20.4443 28.8734H2.10047L1.74902 21.2415Z" fill="#E1BE1D" stroke="black" stroke-miterlimit="10"/>
<path d="M11.4717 13.1431L65.3158 12.3955" stroke="black" stroke-miterlimit="10"/>
<path d="M37.2986 60.8723C54.2495 57.7042 66.9462 49.5286 65.6575 42.6115C64.3688 35.6944 49.5826 32.6552 32.6318 35.8233C15.6809 38.9913 2.98417 47.167 4.27289 54.0841C5.56161 61.0012 20.3477 64.0404 37.2986 60.8723Z" fill="white" stroke="black" stroke-miterlimit="10"/>
<path d="M36.8309 58.3687C50.3916 55.8342 60.5487 49.293 59.5176 43.7585C58.4865 38.224 46.6575 35.792 33.0968 38.3265C19.5361 40.8609 9.37886 47.4021 10.41 52.9366C11.4411 58.4711 23.2702 60.9031 36.8309 58.3687Z" fill="white" stroke="black" stroke-miterlimit="10"/>
<path d="M16.8916 53.7033L14.7977 49.2769L15.7999 54.3249C15.8648 54.5467 15.8434 54.7849 15.74 54.9915C15.69 55.0715 15.6244 55.1405 15.547 55.1943C15.4696 55.2481 15.3821 55.2856 15.2898 55.3045C15.1975 55.3235 15.1023 55.3234 15.01 55.3043C14.9177 55.2853 14.8302 55.2476 14.7529 55.1937C14.5816 55.0399 14.4703 54.8303 14.4388 54.602L13.2872 48.8125C13.2484 48.6955 13.239 48.5707 13.2598 48.4492C13.2807 48.3277 13.3312 48.2133 13.4068 48.116C13.5864 47.9525 13.8101 47.8457 14.0499 47.8089L14.5062 47.719C14.7068 47.6712 14.9139 47.656 15.1193 47.6741C15.2555 47.6997 15.3762 47.7777 15.4558 47.8913C15.5792 48.0806 15.6892 48.2783 15.7849 48.483L17.6469 52.2802L17.9087 48.0561C17.9166 47.8298 17.9416 47.6045 17.9834 47.382C18.0144 47.2499 18.0947 47.1347 18.2078 47.0599C18.3886 46.9595 18.5864 46.8935 18.7911 46.8652L19.2548 46.7753C19.4839 46.7057 19.7285 46.7057 19.9577 46.7753C20.0658 46.8358 20.1573 46.9222 20.2239 47.0267C20.2904 47.1313 20.33 47.2508 20.3391 47.3745L21.4907 53.164C21.5497 53.387 21.5258 53.6239 21.4234 53.8306C21.3756 53.9131 21.3097 53.9835 21.2306 54.0367C21.1516 54.0899 21.0615 54.1245 20.9672 54.1377C20.877 54.1577 20.7836 54.158 20.6932 54.1386C20.6029 54.1192 20.5178 54.0806 20.4438 54.0253C20.2674 53.8755 20.155 53.6638 20.1296 53.4336L19.1201 48.3856L18.8809 53.2763C18.8809 53.5984 18.8434 53.8306 18.8285 53.9804C18.8005 54.1413 18.7338 54.293 18.634 54.4223C18.5085 54.5767 18.3298 54.6783 18.133 54.7069C17.9814 54.749 17.8211 54.749 17.6694 54.7069C17.5379 54.6623 17.4213 54.5819 17.3328 54.4747C17.2394 54.3689 17.1614 54.2504 17.1011 54.1227L16.8916 53.7033Z" fill="#E82826" stroke="black" stroke-width="0.75" stroke-miterlimit="10"/>
<path d="M26.7328 46.4751L23.405 47.1417L23.7566 48.9392L26.8301 48.325C27.0098 48.2746 27.2018 48.2933 27.3685 48.3775C27.4329 48.418 27.4881 48.4716 27.5306 48.5348C27.5731 48.598 27.6019 48.6694 27.6152 48.7445C27.6311 48.8204 27.6314 48.8987 27.6159 48.9747C27.6005 49.0507 27.5697 49.1227 27.5255 49.1863C27.4052 49.3266 27.2374 49.4173 27.0544 49.441L23.9809 50.0552L24.3922 52.1373L27.8471 51.4482C28.0324 51.3962 28.2306 51.4176 28.4005 51.5081C28.4713 51.5482 28.5318 51.6043 28.5773 51.6719C28.6227 51.7395 28.6518 51.8168 28.6622 51.8976C28.6823 51.9768 28.6848 52.0596 28.6693 52.1399C28.6538 52.2201 28.6207 52.296 28.5724 52.362C28.4479 52.5099 28.271 52.6039 28.0789 52.6241L24.0556 53.4255C23.9327 53.4664 23.8026 53.4809 23.6738 53.468C23.5449 53.4551 23.4202 53.4151 23.3078 53.3506C23.2084 53.2713 23.126 53.1728 23.0656 53.0608C23.0052 52.9488 22.968 52.8257 22.9564 52.699L21.8571 47.2016C21.8198 47.0238 21.8198 46.8401 21.8571 46.6623C21.892 46.518 21.9767 46.3906 22.0964 46.3028C22.2474 46.2079 22.4148 46.1419 22.5899 46.1081L26.501 45.3591C26.6853 45.3048 26.8835 45.3235 27.0544 45.4116C27.1233 45.4513 27.182 45.5065 27.2262 45.5727C27.2703 45.639 27.2985 45.7146 27.3087 45.7935C27.3281 45.87 27.3308 45.9497 27.3166 46.0272C27.3024 46.1048 27.2716 46.1784 27.2263 46.2429C27.0969 46.3798 26.9207 46.4627 26.7328 46.4751Z" fill="#E82826" stroke="black" stroke-width="0.75" stroke-miterlimit="10"/>
<path d="M32.209 50.6477L30.1077 46.2213L31.1173 51.2693C31.177 51.4923 31.1531 51.7294 31.05 51.9359C30.9993 52.0141 30.9336 52.0814 30.8567 52.1339C30.7799 52.1864 30.6934 52.2232 30.6023 52.242C30.5112 52.2608 30.4172 52.2613 30.3259 52.2435C30.2346 52.2256 30.1477 52.1898 30.0703 52.1381C29.894 51.9883 29.7816 51.7766 29.7562 51.5464L28.6046 45.7569C28.5658 45.6399 28.5564 45.5152 28.5772 45.3937C28.5981 45.2721 28.6486 45.1577 28.7242 45.0604C28.8999 44.8956 29.1217 44.7884 29.3599 44.7533L29.8161 44.6635C30.0193 44.6155 30.2288 44.6003 30.4367 44.6185C30.5032 44.631 30.5666 44.6566 30.6231 44.6939C30.6796 44.7312 30.7281 44.7794 30.7658 44.8357C30.8908 45.024 31.0008 45.2218 31.0948 45.4274L32.9568 49.2246L33.2186 45.0005C33.2265 44.7742 33.2516 44.5489 33.2934 44.3264C33.3244 44.1943 33.4046 44.0791 33.5177 44.0044C33.7018 43.9055 33.9018 43.8396 34.1085 43.8096L34.5647 43.7198C34.7938 43.6497 35.0385 43.6497 35.2676 43.7198C35.3757 43.7802 35.4672 43.8666 35.5337 43.9712C35.6003 44.0757 35.6399 44.1952 35.649 44.3189L36.8006 50.1084C36.8613 50.3306 36.8401 50.5672 36.7408 50.775C36.6902 50.8566 36.6226 50.9263 36.5425 50.9793C36.4625 51.0323 36.372 51.0674 36.2772 51.0821C36.187 51.1016 36.0936 51.1017 36.0033 51.0823C35.9131 51.063 35.828 51.0246 35.7537 50.9697C35.5797 50.8181 35.4679 50.6073 35.4396 50.3781L34.4375 45.3225L34.1908 50.2208C34.1908 50.5428 34.1908 50.775 34.1384 50.9248C34.1133 51.0852 34.0491 51.237 33.9515 51.3667C33.821 51.5189 33.6408 51.6198 33.4429 51.6513C33.2939 51.694 33.1359 51.694 32.9868 51.6513C32.8526 51.6079 32.7333 51.5275 32.6428 51.4191C32.552 51.3113 32.4741 51.1932 32.411 51.0671L32.209 50.6477Z" fill="#E82826" stroke="black" stroke-width="0.75" stroke-miterlimit="10"/>
<path d="M41.5795 49.9205L39.3361 50.3698C39.2155 50.4182 39.0847 50.4359 38.9556 50.4212C38.8265 50.4065 38.703 50.3599 38.5963 50.2857C38.4896 50.2115 38.4029 50.1119 38.3441 49.9958C38.2852 49.8798 38.2561 49.751 38.2592 49.6209L37.1599 44.1235C37.0877 43.8735 37.1144 43.6052 37.2347 43.3745C37.3958 43.1798 37.6268 43.0561 37.8779 43.03L40.2484 42.5581C40.5506 42.4898 40.8585 42.4497 41.1682 42.4383C41.4224 42.4268 41.6764 42.4649 41.916 42.5506C42.1105 42.6206 42.2924 42.7218 42.4545 42.8502C42.6147 42.9828 42.7534 43.1394 42.8657 43.3146C42.9711 43.4961 43.0469 43.6933 43.0901 43.8988C43.1676 44.2434 43.1374 44.6036 43.0037 44.9305C42.8699 45.2574 42.639 45.5352 42.3423 45.7262C42.7696 45.7248 43.1836 45.8741 43.5119 46.1481C43.8401 46.422 44.0615 46.803 44.1371 47.2242C44.2212 47.6141 44.19 48.0201 44.0473 48.3926C43.9079 48.7558 43.6631 49.0688 43.3443 49.2913C43.1106 49.4392 42.8594 49.5575 42.5965 49.6433C42.2647 49.7605 41.9248 49.8531 41.5795 49.9205ZM38.7005 44.0486L39.0744 45.936L40.4279 45.6663C40.7197 45.6221 41.0025 45.5311 41.2654 45.3967C41.4508 45.2867 41.5873 45.1098 41.6468 44.9024C41.6918 44.7407 41.6918 44.5698 41.6468 44.4081C41.6345 44.2564 41.5764 44.1122 41.4802 43.9944C41.384 43.8767 41.2544 43.7911 41.1084 43.749C40.6949 43.683 40.2722 43.7034 39.867 43.8089L38.7005 44.0486ZM40.8242 46.6924L39.2837 46.9995L39.71 49.1415L41.3028 48.8195C42.3049 48.6247 42.7311 48.1604 42.5891 47.4414C42.574 47.2778 42.5144 47.1215 42.4169 46.9895C42.3193 46.8574 42.1874 46.7547 42.0357 46.6924C41.6395 46.5811 41.2204 46.5811 40.8242 46.6924Z" fill="#E82826" stroke="black" stroke-width="0.75" stroke-miterlimit="10"/>
<path d="M49.3858 41.9814L46.0506 42.648L46.4096 44.4455L49.4831 43.8313C49.6628 43.7809 49.8549 43.7996 50.0216 43.8837C50.086 43.9243 50.1411 43.9779 50.1836 44.0411C50.2261 44.1043 50.255 44.1757 50.2683 44.2507C50.2842 44.3266 50.2844 44.405 50.2689 44.481C50.2535 44.557 50.2228 44.629 50.1786 44.6926C50.0583 44.8328 49.8905 44.9235 49.7074 44.9473L46.6339 45.5614L47.0452 47.6436L50.5001 46.9545C50.6854 46.9024 50.8837 46.9239 51.0535 47.0144C51.1882 47.1058 51.2816 47.2464 51.3138 47.4061C51.346 47.5658 51.3143 47.7317 51.2255 47.8682C51.101 48.0162 50.9241 48.1102 50.7319 48.1304L46.7087 48.9393C46.5876 48.9873 46.4566 49.0046 46.3272 48.9899C46.1979 48.9751 46.0741 48.9287 45.9669 48.8546C45.8597 48.7806 45.7724 48.6813 45.7127 48.5654C45.6529 48.4495 45.6226 48.3207 45.6244 48.1903L44.5251 42.6854C44.4877 42.5076 44.4877 42.324 44.5251 42.1462C44.5604 42.004 44.6453 41.8791 44.7644 41.7941C44.9117 41.6919 45.0807 41.6252 45.258 41.5994L49.169 40.813C49.3534 40.7586 49.5515 40.7774 49.7224 40.8654C49.7902 40.9064 49.8482 40.9619 49.8921 41.028C49.9361 41.094 49.9649 41.1689 49.9766 41.2474C49.9966 41.3242 49.9989 41.4046 49.9834 41.4824C49.9679 41.5603 49.9349 41.6336 49.8869 41.6968C49.8263 41.775 49.7508 41.8405 49.6648 41.8893C49.5788 41.9382 49.484 41.9695 49.3858 41.9814Z" fill="#E82826" stroke="black" stroke-width="0.75" stroke-miterlimit="10"/>
<path d="M53.9774 44.2282L53.4615 44.333L53.9251 46.6848C53.9981 46.934 53.9741 47.2016 53.8578 47.4337C53.8049 47.521 53.733 47.5953 53.6476 47.651C53.5622 47.7068 53.4653 47.7426 53.3642 47.7558C53.2632 47.7832 53.1572 47.7866 53.0547 47.7658C52.9521 47.745 52.8558 47.7006 52.7734 47.636C52.5945 47.4706 52.4783 47.2483 52.4444 47.0068L51.3227 41.3746C51.2481 41.1249 51.2749 40.8557 51.3975 40.6257C51.5608 40.4273 51.7935 40.2988 52.0481 40.2662L54.471 39.7344C54.7552 39.6769 55.0423 39.6344 55.331 39.6071C55.5563 39.5905 55.7829 39.6057 56.004 39.652C56.2525 39.7035 56.4886 39.8027 56.6994 39.9441C56.9068 40.0917 57.0844 40.2772 57.223 40.4908C57.3617 40.7214 57.458 40.9751 57.5071 41.2398C57.6288 41.7116 57.5589 42.2125 57.3127 42.6329C56.9976 43.0762 56.5575 43.4152 56.0489 43.6065C56.3663 43.7102 56.6626 43.8701 56.9238 44.0784C57.2167 44.304 57.4894 44.5546 57.7389 44.8274C57.9586 45.0621 58.1611 45.3124 58.3447 45.5763C58.4565 45.7201 58.5425 45.8823 58.5989 46.0557C58.6278 46.156 58.6278 46.2624 58.5989 46.3627C58.554 46.4695 58.4818 46.5625 58.3895 46.6324C58.2881 46.7146 58.1669 46.7688 58.0381 46.7896C57.8943 46.8341 57.7406 46.8341 57.5969 46.7896C57.4666 46.731 57.3476 46.6499 57.2453 46.55C57.1406 46.4451 56.9911 46.2878 56.8116 46.0856L56.0189 45.2168C55.7931 44.9447 55.5428 44.694 55.2711 44.4679C55.0962 44.3326 54.895 44.2356 54.6804 44.1832C54.4455 44.1499 54.2062 44.1652 53.9774 44.2282ZM54.2093 40.9852L52.8482 41.2623L53.2446 43.2695L54.5682 43.0074C54.872 42.953 55.1683 42.8625 55.4507 42.7377C55.655 42.6495 55.8273 42.5005 55.9441 42.3108C56.0278 42.1206 56.054 41.9099 56.0195 41.7049C55.9849 41.5 55.8911 41.3096 55.7497 41.1574C55.6169 41.0201 55.4442 40.9283 55.2562 40.8953C54.9067 40.8565 54.5532 40.8742 54.2093 40.9477V40.9852Z" fill="#E82826" stroke="black" stroke-width="0.75" stroke-miterlimit="10"/>
<path d="M21.737 37.7547L7.31445 40.408L8.27282 45.6339L22.6954 42.9807L21.737 37.7547Z" fill="#E82826" stroke="black" stroke-width="0.996394" stroke-miterlimit="10"/>
<path d="M49.6096 85.0496L51.1053 93.2882L48.114 91.7902L47.3662 85.7985L49.6096 85.0496Z" fill="#C2996C" stroke="black" stroke-miterlimit="10"/>
<path d="M47.3656 85.7983L39.1396 91.7901C39.1396 91.7901 39.8875 96.2839 40.6353 96.2839C41.3831 96.2839 48.1134 91.7901 48.1134 91.7901L47.3656 85.7983Z" fill="#7C3525" stroke="black" stroke-miterlimit="10"/>
<path d="M40.6357 96.2846L44.3748 100.029L51.1051 93.2887L48.1139 91.7908L40.6357 96.2846Z" fill="#7C3525" stroke="black" stroke-miterlimit="10"/>
<path d="M57.8355 85.7983L56.3398 94.037L59.3311 92.539L60.0789 86.5473L57.8355 85.7983Z" fill="#C2996C" stroke="black" stroke-miterlimit="10"/>
<path d="M60.0779 86.5471L68.3038 92.5388C68.3038 92.5388 67.556 97.0326 66.8082 97.0326C66.0604 97.0326 59.3301 92.5388 59.3301 92.5388L60.0779 86.5471Z" fill="#7C3525" stroke="black" stroke-miterlimit="10"/>
<path d="M66.8092 97.0338L63.0702 100.779L56.3398 94.038L59.3311 92.54L66.8092 97.0338Z" fill="#7C3525" stroke="black" stroke-miterlimit="10"/>
<path d="M72.0438 13.092C72.0438 13.092 48.1138 22.8816 72.0438 37.1129H74.3844L74.2872 16.8895L72.0438 13.092Z" fill="#F9FCF4" stroke="black" stroke-miterlimit="10"/>
</svg>
