<svg width="786" height="308" viewBox="0 0 786 308" fill="none" xmlns="http://www.w3.org/2000/svg">
<rect x="156.36" y="72.9497" width="19.2547" height="19.7543" transform="rotate(176.944 156.36 72.9497)" fill="#A33A3A"/>
<rect x="137.134" y="73.9766" width="19.2547" height="19.7543" transform="rotate(176.944 137.134 73.9766)" fill="#E8E8E8"/>
<rect x="117.908" y="75.064" width="19.2547" height="19.7543" transform="rotate(176.944 117.908 75.064)" fill="#A33A3A"/>
<rect x="98.6816" y="76.0908" width="19.2547" height="19.7543" transform="rotate(176.944 98.6816 76.0908)" fill="#E8E8E8"/>
<rect x="136.084" y="54.3115" width="19.2547" height="19.7543" transform="rotate(176.944 136.084 54.3115)" fill="#A33A3A"/>
<rect x="155.311" y="53.2847" width="19.2547" height="19.7543" transform="rotate(176.944 155.311 53.2847)" fill="#E8E8E8"/>
<rect x="97.6289" y="56.3647" width="19.2547" height="19.7543" transform="rotate(176.944 97.6289 56.3647)" fill="#A33A3A"/>
<rect x="116.855" y="55.3379" width="19.2547" height="19.7543" transform="rotate(176.944 116.855 55.3379)" fill="#E8E8E8"/>
<rect x="79.4707" y="77.0547" width="19.2547" height="19.7543" transform="rotate(176.944 79.4707 77.0547)" fill="#A33A3A"/>
<rect x="60.2441" y="78.0811" width="19.2547" height="19.7543" transform="rotate(176.944 60.2441 78.0811)" fill="#E8E8E8"/>
<rect x="41.0186" y="79.1689" width="19.2547" height="19.7543" transform="rotate(176.944 41.0186 79.1689)" fill="#A33A3A"/>
<rect x="21.792" y="80.1958" width="19.2547" height="19.7543" transform="rotate(176.944 21.792 80.1958)" fill="#E8E8E8"/>
<rect x="59.1943" y="58.4165" width="19.2547" height="19.7543" transform="rotate(176.944 59.1943 58.4165)" fill="#A33A3A"/>
<rect x="78.4209" y="57.3896" width="19.2547" height="19.7543" transform="rotate(176.944 78.4209 57.3896)" fill="#E8E8E8"/>
<rect x="20.7393" y="60.4697" width="19.2547" height="19.7543" transform="rotate(176.944 20.7393 60.4697)" fill="#A33A3A"/>
<rect x="39.9658" y="59.4429" width="19.2547" height="19.7543" transform="rotate(176.944 39.9658 59.4429)" fill="#E8E8E8"/>
<rect x="233.251" y="68.8433" width="19.2547" height="19.7543" transform="rotate(176.944 233.251 68.8433)" fill="#A33A3A"/>
<rect x="214.022" y="69.8696" width="19.2547" height="19.7543" transform="rotate(176.944 214.022 69.8696)" fill="#E8E8E8"/>
<rect x="194.799" y="70.958" width="19.2547" height="19.7543" transform="rotate(176.944 194.799 70.958)" fill="#A33A3A"/>
<rect x="175.572" y="71.9844" width="19.2547" height="19.7543" transform="rotate(176.944 175.572 71.9844)" fill="#E8E8E8"/>
<rect x="212.972" y="50.2046" width="19.2547" height="19.7543" transform="rotate(176.944 212.972 50.2046)" fill="#A33A3A"/>
<rect x="232.2" y="49.1782" width="19.2547" height="19.7543" transform="rotate(176.944 232.2 49.1782)" fill="#E8E8E8"/>
<rect x="174.52" y="52.2578" width="19.2547" height="19.7543" transform="rotate(176.944 174.52 52.2578)" fill="#A33A3A"/>
<rect x="193.746" y="51.2314" width="19.2547" height="19.7543" transform="rotate(176.944 193.746 51.2314)" fill="#E8E8E8"/>
<rect x="310.142" y="64.7393" width="19.2547" height="19.7543" transform="rotate(176.944 310.142 64.7393)" fill="#A33A3A"/>
<rect x="290.915" y="65.7661" width="19.2547" height="19.7543" transform="rotate(176.944 290.915 65.7661)" fill="#E8E8E8"/>
<rect x="271.689" y="66.8535" width="19.2547" height="19.7543" transform="rotate(176.944 271.689 66.8535)" fill="#A33A3A"/>
<rect x="252.463" y="67.8804" width="19.2547" height="19.7543" transform="rotate(176.944 252.463 67.8804)" fill="#E8E8E8"/>
<rect x="289.865" y="46.1011" width="19.2547" height="19.7543" transform="rotate(176.944 289.865 46.1011)" fill="#A33A3A"/>
<rect x="309.092" y="45.0742" width="19.2547" height="19.7543" transform="rotate(176.944 309.092 45.0742)" fill="#E8E8E8"/>
<rect x="251.41" y="48.1543" width="19.2547" height="19.7543" transform="rotate(176.944 251.41 48.1543)" fill="#A33A3A"/>
<rect x="270.637" y="47.1274" width="19.2547" height="19.7543" transform="rotate(176.944 270.637 47.1274)" fill="#E8E8E8"/>
<rect x="387.032" y="60.6343" width="19.2547" height="19.7543" transform="rotate(176.944 387.032 60.6343)" fill="#A33A3A"/>
<rect x="367.806" y="61.6606" width="19.2547" height="19.7543" transform="rotate(176.944 367.806 61.6606)" fill="#E8E8E8"/>
<rect x="348.58" y="62.7485" width="19.2547" height="19.7543" transform="rotate(176.944 348.58 62.7485)" fill="#A33A3A"/>
<rect x="329.354" y="63.7749" width="19.2547" height="19.7543" transform="rotate(176.944 329.354 63.7749)" fill="#E8E8E8"/>
<rect x="366.756" y="41.9956" width="19.2547" height="19.7543" transform="rotate(176.944 366.756 41.9956)" fill="#A33A3A"/>
<rect x="385.982" y="40.9692" width="19.2547" height="19.7543" transform="rotate(176.944 385.982 40.9692)" fill="#E8E8E8"/>
<rect x="328.301" y="44.0483" width="19.2547" height="19.7543" transform="rotate(176.944 328.301 44.0483)" fill="#A33A3A"/>
<rect x="347.527" y="43.022" width="19.2547" height="19.7543" transform="rotate(176.944 347.527 43.022)" fill="#E8E8E8"/>
<rect x="540.812" y="52.4233" width="19.2547" height="19.7543" transform="rotate(176.944 540.812 52.4233)" fill="#A33A3A"/>
<rect x="521.586" y="53.4502" width="19.2547" height="19.7543" transform="rotate(176.944 521.586 53.4502)" fill="#E8E8E8"/>
<rect x="502.36" y="54.5376" width="19.2547" height="19.7543" transform="rotate(176.944 502.36 54.5376)" fill="#A33A3A"/>
<rect x="483.134" y="55.5645" width="19.2547" height="19.7543" transform="rotate(176.944 483.134 55.5645)" fill="#E8E8E8"/>
<rect x="520.536" y="33.7852" width="19.2547" height="19.7543" transform="rotate(176.944 520.536 33.7852)" fill="#A33A3A"/>
<rect x="539.763" y="32.7583" width="19.2547" height="19.7543" transform="rotate(176.944 539.763 32.7583)" fill="#E8E8E8"/>
<rect x="482.081" y="35.8384" width="19.2547" height="19.7543" transform="rotate(176.944 482.081 35.8384)" fill="#A33A3A"/>
<rect x="501.308" y="34.8115" width="19.2547" height="19.7543" transform="rotate(176.944 501.308 34.8115)" fill="#E8E8E8"/>
<rect x="463.923" y="56.5283" width="19.2547" height="19.7543" transform="rotate(176.944 463.923 56.5283)" fill="#A33A3A"/>
<rect x="444.696" y="57.5547" width="19.2547" height="19.7543" transform="rotate(176.944 444.696 57.5547)" fill="#E8E8E8"/>
<rect x="425.471" y="58.6426" width="19.2547" height="19.7543" transform="rotate(176.944 425.471 58.6426)" fill="#A33A3A"/>
<rect x="406.244" y="59.6694" width="19.2547" height="19.7543" transform="rotate(176.944 406.244 59.6694)" fill="#E8E8E8"/>
<rect x="443.646" y="37.8901" width="19.2547" height="19.7543" transform="rotate(176.944 443.646 37.8901)" fill="#A33A3A"/>
<rect x="462.873" y="36.8633" width="19.2547" height="19.7543" transform="rotate(176.944 462.873 36.8633)" fill="#E8E8E8"/>
<rect x="405.191" y="39.9434" width="19.2547" height="19.7543" transform="rotate(176.944 405.191 39.9434)" fill="#A33A3A"/>
<rect x="424.418" y="38.9165" width="19.2547" height="19.7543" transform="rotate(176.944 424.418 38.9165)" fill="#E8E8E8"/>
<rect x="617.703" y="48.3169" width="19.2547" height="19.7543" transform="rotate(176.944 617.703 48.3169)" fill="#A33A3A"/>
<rect x="598.475" y="49.3433" width="19.2547" height="19.7543" transform="rotate(176.944 598.475 49.3433)" fill="#E8E8E8"/>
<rect x="579.251" y="50.4316" width="19.2547" height="19.7543" transform="rotate(176.944 579.251 50.4316)" fill="#A33A3A"/>
<rect x="560.024" y="51.458" width="19.2547" height="19.7543" transform="rotate(176.944 560.024 51.458)" fill="#E8E8E8"/>
<rect x="597.424" y="29.6782" width="19.2547" height="19.7543" transform="rotate(176.944 597.424 29.6782)" fill="#A33A3A"/>
<rect x="616.652" y="28.6519" width="19.2547" height="19.7543" transform="rotate(176.944 616.652 28.6519)" fill="#E8E8E8"/>
<rect x="558.972" y="31.7314" width="19.2547" height="19.7543" transform="rotate(176.944 558.972 31.7314)" fill="#A33A3A"/>
<rect x="578.198" y="30.7051" width="19.2547" height="19.7543" transform="rotate(176.944 578.198 30.7051)" fill="#E8E8E8"/>
<rect x="694.594" y="44.2129" width="19.2547" height="19.7543" transform="rotate(176.944 694.594 44.2129)" fill="#A33A3A"/>
<rect x="675.367" y="45.2397" width="19.2547" height="19.7543" transform="rotate(176.944 675.367 45.2397)" fill="#E8E8E8"/>
<rect x="656.142" y="46.3271" width="19.2547" height="19.7543" transform="rotate(176.944 656.142 46.3271)" fill="#A33A3A"/>
<rect x="636.915" y="47.354" width="19.2547" height="19.7543" transform="rotate(176.944 636.915 47.354)" fill="#E8E8E8"/>
<rect x="674.317" y="25.5747" width="19.2547" height="19.7543" transform="rotate(176.944 674.317 25.5747)" fill="#A33A3A"/>
<rect x="693.544" y="24.5479" width="19.2547" height="19.7543" transform="rotate(176.944 693.544 24.5479)" fill="#E8E8E8"/>
<rect x="635.862" y="27.6279" width="19.2547" height="19.7543" transform="rotate(176.944 635.862 27.6279)" fill="#A33A3A"/>
<rect x="655.089" y="26.6011" width="19.2547" height="19.7543" transform="rotate(176.944 655.089 26.6011)" fill="#E8E8E8"/>
<rect x="771.484" y="40.1079" width="19.2547" height="19.7543" transform="rotate(176.944 771.484 40.1079)" fill="#A33A3A"/>
<rect x="752.258" y="41.1343" width="19.2547" height="19.7543" transform="rotate(176.944 752.258 41.1343)" fill="#E8E8E8"/>
<rect x="733.032" y="42.2222" width="19.2547" height="19.7543" transform="rotate(176.944 733.032 42.2222)" fill="#A33A3A"/>
<rect x="713.806" y="43.2485" width="19.2547" height="19.7543" transform="rotate(176.944 713.806 43.2485)" fill="#E8E8E8"/>
<rect x="751.208" y="21.4692" width="19.2547" height="19.7543" transform="rotate(176.944 751.208 21.4692)" fill="#A33A3A"/>
<rect x="770.435" y="20.4429" width="19.2547" height="19.7543" transform="rotate(176.944 770.435 20.4429)" fill="#E8E8E8"/>
<rect x="712.753" y="23.522" width="19.2547" height="19.7543" transform="rotate(176.944 712.753 23.522)" fill="#A33A3A"/>
<rect x="731.979" y="22.4956" width="19.2547" height="19.7543" transform="rotate(176.944 731.979 22.4956)" fill="#E8E8E8"/>
<line x1="2.51085" y1="80.214" x2="773.413" y2="39.0543" stroke="#0741FF" stroke-width="3"/>
<rect x="168.41" y="298.628" width="19.2547" height="19.7543" transform="rotate(176.944 168.41 298.628)" fill="#A33A3A"/>
<rect x="149.184" y="299.655" width="19.2547" height="19.7543" transform="rotate(176.944 149.184 299.655)" fill="#E8E8E8"/>
<rect x="129.958" y="300.743" width="19.2547" height="19.7543" transform="rotate(176.944 129.958 300.743)" fill="#A33A3A"/>
<rect x="110.731" y="301.77" width="19.2547" height="19.7543" transform="rotate(176.944 110.731 301.77)" fill="#E8E8E8"/>
<rect x="148.134" y="279.99" width="19.2547" height="19.7543" transform="rotate(176.944 148.134 279.99)" fill="#A33A3A"/>
<rect x="167.36" y="278.963" width="19.2547" height="19.7543" transform="rotate(176.944 167.36 278.963)" fill="#E8E8E8"/>
<rect x="109.679" y="282.043" width="19.2547" height="19.7543" transform="rotate(176.944 109.679 282.043)" fill="#A33A3A"/>
<rect x="128.905" y="281.017" width="19.2547" height="19.7543" transform="rotate(176.944 128.905 281.017)" fill="#E8E8E8"/>
<rect x="91.5205" y="302.733" width="19.2547" height="19.7543" transform="rotate(176.944 91.5205 302.733)" fill="#A33A3A"/>
<rect x="72.2939" y="303.76" width="19.2547" height="19.7543" transform="rotate(176.944 72.2939 303.76)" fill="#E8E8E8"/>
<rect x="53.0684" y="304.848" width="19.2547" height="19.7543" transform="rotate(176.944 53.0684 304.848)" fill="#A33A3A"/>
<rect x="33.8418" y="305.875" width="19.2547" height="19.7543" transform="rotate(176.944 33.8418 305.875)" fill="#E8E8E8"/>
<rect x="71.2441" y="284.095" width="19.2547" height="19.7543" transform="rotate(176.944 71.2441 284.095)" fill="#A33A3A"/>
<rect x="90.4707" y="283.068" width="19.2547" height="19.7543" transform="rotate(176.944 90.4707 283.068)" fill="#E8E8E8"/>
<rect x="32.7891" y="286.148" width="19.2547" height="19.7543" transform="rotate(176.944 32.7891 286.148)" fill="#A33A3A"/>
<rect x="52.0156" y="285.122" width="19.2547" height="19.7543" transform="rotate(176.944 52.0156 285.122)" fill="#E8E8E8"/>
<rect x="245.301" y="294.522" width="19.2547" height="19.7543" transform="rotate(176.944 245.301 294.522)" fill="#A33A3A"/>
<rect x="226.072" y="295.548" width="19.2547" height="19.7543" transform="rotate(176.944 226.072 295.548)" fill="#E8E8E8"/>
<rect x="206.849" y="296.637" width="19.2547" height="19.7543" transform="rotate(176.944 206.849 296.637)" fill="#A33A3A"/>
<rect x="187.622" y="297.663" width="19.2547" height="19.7543" transform="rotate(176.944 187.622 297.663)" fill="#E8E8E8"/>
<rect x="225.021" y="275.883" width="19.2547" height="19.7543" transform="rotate(176.944 225.021 275.883)" fill="#A33A3A"/>
<rect x="244.25" y="274.857" width="19.2547" height="19.7543" transform="rotate(176.944 244.25 274.857)" fill="#E8E8E8"/>
<rect x="186.569" y="277.937" width="19.2547" height="19.7543" transform="rotate(176.944 186.569 277.937)" fill="#A33A3A"/>
<rect x="205.796" y="276.91" width="19.2547" height="19.7543" transform="rotate(176.944 205.796 276.91)" fill="#E8E8E8"/>
<rect x="322.191" y="290.418" width="19.2547" height="19.7543" transform="rotate(176.944 322.191 290.418)" fill="#A33A3A"/>
<rect x="302.965" y="291.445" width="19.2547" height="19.7543" transform="rotate(176.944 302.965 291.445)" fill="#E8E8E8"/>
<rect x="283.739" y="292.532" width="19.2547" height="19.7543" transform="rotate(176.944 283.739 292.532)" fill="#A33A3A"/>
<rect x="264.513" y="293.559" width="19.2547" height="19.7543" transform="rotate(176.944 264.513 293.559)" fill="#E8E8E8"/>
<rect x="301.915" y="271.78" width="19.2547" height="19.7543" transform="rotate(176.944 301.915 271.78)" fill="#A33A3A"/>
<rect x="321.142" y="270.753" width="19.2547" height="19.7543" transform="rotate(176.944 321.142 270.753)" fill="#E8E8E8"/>
<rect x="263.46" y="273.833" width="19.2547" height="19.7543" transform="rotate(176.944 263.46 273.833)" fill="#A33A3A"/>
<rect x="282.687" y="272.806" width="19.2547" height="19.7543" transform="rotate(176.944 282.687 272.806)" fill="#E8E8E8"/>
<rect x="399.082" y="286.313" width="19.2547" height="19.7543" transform="rotate(176.944 399.082 286.313)" fill="#A33A3A"/>
<rect x="379.855" y="287.339" width="19.2547" height="19.7543" transform="rotate(176.944 379.855 287.339)" fill="#E8E8E8"/>
<rect x="360.63" y="288.427" width="19.2547" height="19.7543" transform="rotate(176.944 360.63 288.427)" fill="#A33A3A"/>
<rect x="341.403" y="289.454" width="19.2547" height="19.7543" transform="rotate(176.944 341.403 289.454)" fill="#E8E8E8"/>
<rect x="378.806" y="267.674" width="19.2547" height="19.7543" transform="rotate(176.944 378.806 267.674)" fill="#A33A3A"/>
<rect x="398.032" y="266.648" width="19.2547" height="19.7543" transform="rotate(176.944 398.032 266.648)" fill="#E8E8E8"/>
<rect x="340.351" y="269.727" width="19.2547" height="19.7543" transform="rotate(176.944 340.351 269.727)" fill="#A33A3A"/>
<rect x="359.577" y="268.701" width="19.2547" height="19.7543" transform="rotate(176.944 359.577 268.701)" fill="#E8E8E8"/>
<rect x="552.862" y="278.102" width="19.2547" height="19.7543" transform="rotate(176.944 552.862 278.102)" fill="#A33A3A"/>
<rect x="533.636" y="279.129" width="19.2547" height="19.7543" transform="rotate(176.944 533.636 279.129)" fill="#E8E8E8"/>
<rect x="514.41" y="280.216" width="19.2547" height="19.7543" transform="rotate(176.944 514.41 280.216)" fill="#A33A3A"/>
<rect x="495.184" y="281.243" width="19.2547" height="19.7543" transform="rotate(176.944 495.184 281.243)" fill="#E8E8E8"/>
<rect x="532.586" y="259.464" width="19.2547" height="19.7543" transform="rotate(176.944 532.586 259.464)" fill="#A33A3A"/>
<rect x="551.812" y="258.437" width="19.2547" height="19.7543" transform="rotate(176.944 551.812 258.437)" fill="#E8E8E8"/>
<rect x="494.131" y="261.517" width="19.2547" height="19.7543" transform="rotate(176.944 494.131 261.517)" fill="#A33A3A"/>
<rect x="513.357" y="260.49" width="19.2547" height="19.7543" transform="rotate(176.944 513.357 260.49)" fill="#E8E8E8"/>
<rect x="475.973" y="282.207" width="19.2547" height="19.7543" transform="rotate(176.944 475.973 282.207)" fill="#A33A3A"/>
<rect x="456.746" y="283.233" width="19.2547" height="19.7543" transform="rotate(176.944 456.746 283.233)" fill="#E8E8E8"/>
<rect x="437.521" y="284.321" width="19.2547" height="19.7543" transform="rotate(176.944 437.521 284.321)" fill="#A33A3A"/>
<rect x="418.294" y="285.348" width="19.2547" height="19.7543" transform="rotate(176.944 418.294 285.348)" fill="#E8E8E8"/>
<rect x="455.696" y="263.569" width="19.2547" height="19.7543" transform="rotate(176.944 455.696 263.569)" fill="#A33A3A"/>
<rect x="474.923" y="262.542" width="19.2547" height="19.7543" transform="rotate(176.944 474.923 262.542)" fill="#E8E8E8"/>
<rect x="417.241" y="265.622" width="19.2547" height="19.7543" transform="rotate(176.944 417.241 265.622)" fill="#A33A3A"/>
<rect x="436.468" y="264.595" width="19.2547" height="19.7543" transform="rotate(176.944 436.468 264.595)" fill="#E8E8E8"/>
<rect x="629.753" y="273.996" width="19.2547" height="19.7543" transform="rotate(176.944 629.753 273.996)" fill="#A33A3A"/>
<rect x="610.524" y="275.022" width="19.2547" height="19.7543" transform="rotate(176.944 610.524 275.022)" fill="#E8E8E8"/>
<rect x="591.301" y="276.11" width="19.2547" height="19.7543" transform="rotate(176.944 591.301 276.11)" fill="#A33A3A"/>
<rect x="572.074" y="277.137" width="19.2547" height="19.7543" transform="rotate(176.944 572.074 277.137)" fill="#E8E8E8"/>
<rect x="609.474" y="255.357" width="19.2547" height="19.7543" transform="rotate(176.944 609.474 255.357)" fill="#A33A3A"/>
<rect x="628.702" y="254.331" width="19.2547" height="19.7543" transform="rotate(176.944 628.702 254.331)" fill="#E8E8E8"/>
<rect x="571.021" y="257.41" width="19.2547" height="19.7543" transform="rotate(176.944 571.021 257.41)" fill="#A33A3A"/>
<rect x="590.248" y="256.384" width="19.2547" height="19.7543" transform="rotate(176.944 590.248 256.384)" fill="#E8E8E8"/>
<rect x="706.644" y="269.892" width="19.2547" height="19.7543" transform="rotate(176.944 706.644 269.892)" fill="#A33A3A"/>
<rect x="687.417" y="270.918" width="19.2547" height="19.7543" transform="rotate(176.944 687.417 270.918)" fill="#E8E8E8"/>
<rect x="668.191" y="272.006" width="19.2547" height="19.7543" transform="rotate(176.944 668.191 272.006)" fill="#A33A3A"/>
<rect x="648.965" y="273.033" width="19.2547" height="19.7543" transform="rotate(176.944 648.965 273.033)" fill="#E8E8E8"/>
<rect x="686.367" y="251.253" width="19.2547" height="19.7543" transform="rotate(176.944 686.367 251.253)" fill="#A33A3A"/>
<rect x="705.594" y="250.227" width="19.2547" height="19.7543" transform="rotate(176.944 705.594 250.227)" fill="#E8E8E8"/>
<rect x="647.912" y="253.307" width="19.2547" height="19.7543" transform="rotate(176.944 647.912 253.307)" fill="#A33A3A"/>
<rect x="667.139" y="252.28" width="19.2547" height="19.7543" transform="rotate(176.944 667.139 252.28)" fill="#E8E8E8"/>
<rect x="783.534" y="265.787" width="19.2547" height="19.7543" transform="rotate(176.944 783.534 265.787)" fill="#A33A3A"/>
<rect x="764.308" y="266.813" width="19.2547" height="19.7543" transform="rotate(176.944 764.308 266.813)" fill="#E8E8E8"/>
<rect x="745.082" y="267.901" width="19.2547" height="19.7543" transform="rotate(176.944 745.082 267.901)" fill="#A33A3A"/>
<rect x="725.855" y="268.927" width="19.2547" height="19.7543" transform="rotate(176.944 725.855 268.927)" fill="#E8E8E8"/>
<rect x="763.258" y="247.148" width="19.2547" height="19.7543" transform="rotate(176.944 763.258 247.148)" fill="#A33A3A"/>
<rect x="782.484" y="246.122" width="19.2547" height="19.7543" transform="rotate(176.944 782.484 246.122)" fill="#E8E8E8"/>
<rect x="724.803" y="249.201" width="19.2547" height="19.7543" transform="rotate(176.944 724.803 249.201)" fill="#A33A3A"/>
<rect x="744.029" y="248.174" width="19.2547" height="19.7543" transform="rotate(176.944 744.029 248.174)" fill="#E8E8E8"/>
<line x1="14.5607" y1="305.893" x2="785.463" y2="264.733" stroke="#0741FF" stroke-width="3"/>
<path d="M139.565 142.058L127.581 119.227L165.589 117.197L215.98 207.577L175.225 209.753L167.567 195.265L130.994 197.218L124.984 212.435L109.194 213.278L139.565 142.058ZM160.251 181.323L147.158 156.486L136.846 182.573L160.251 181.323ZM223.756 114.092L272.812 111.473C279.718 111.104 285.783 111.364 291.004 112.254C296.267 113.141 300.683 114.574 304.252 116.554C307.86 118.489 310.619 120.929 312.529 123.873C314.437 126.775 315.489 130.078 315.687 133.781C315.885 137.484 315.031 141.035 313.126 144.433C311.261 147.787 308.415 150.755 304.589 153.338C311.18 154.864 316.173 157.351 319.57 160.8C322.968 164.249 324.806 168.594 325.086 173.837C325.277 177.415 324.588 180.915 323.018 184.337C321.49 187.757 319.068 190.849 315.752 193.613C312.478 196.374 308.303 198.684 303.229 200.54C298.151 202.355 292.159 203.447 285.253 203.816L228.708 206.835L223.756 114.092ZM265.712 149.655C269.124 149.473 271.978 149.008 274.275 148.259C276.569 147.469 278.373 146.476 279.686 145.279C281.041 144.08 281.971 142.737 282.475 141.25C283.022 139.76 283.253 138.225 283.168 136.644C283.084 135.063 282.691 133.561 281.989 132.138C281.329 130.713 280.262 129.497 278.79 128.491C277.357 127.44 275.458 126.645 273.092 126.103C270.726 125.562 267.838 125.383 264.426 125.565L260.619 125.768L261.843 149.862L265.712 149.655ZM267.925 191.096C271.628 190.899 274.727 190.337 277.223 189.411C279.719 188.485 281.721 187.293 283.229 185.835C284.736 184.378 285.795 182.715 286.405 180.847C287.012 178.936 287.259 176.92 287.146 174.798C287.046 172.926 286.574 171.115 285.729 169.366C284.885 167.617 283.677 166.096 282.106 164.803C280.574 163.466 278.704 162.439 276.496 161.723C274.286 160.964 271.766 160.661 268.937 160.812L262.446 161.158L264.055 191.303L267.925 191.096ZM335.879 154.421C335.503 147.39 336.283 140.901 338.219 134.956C340.153 128.97 343.233 123.756 347.461 119.316C351.689 114.876 357.069 111.313 363.602 108.628C370.134 105.943 377.811 104.364 386.632 103.893C395.453 103.422 403.254 104.174 410.035 106.149C416.817 108.123 422.546 111.093 427.222 115.058C431.899 119.022 435.517 123.878 438.077 129.625C440.635 135.33 442.101 141.698 442.477 148.73C442.857 155.845 442.081 162.416 440.15 168.444C438.218 174.473 435.139 179.707 430.911 184.147C426.683 188.587 421.303 192.15 414.77 194.835C408.238 197.52 400.561 199.099 391.74 199.57C382.919 200.041 375.118 199.289 368.337 197.314C361.555 195.34 355.826 192.37 351.15 188.405C346.473 184.441 342.854 179.564 340.292 173.776C337.73 167.988 336.258 161.536 335.879 154.421ZM391.05 186.651C393.547 186.517 395.729 185.963 397.596 184.987C399.463 184.011 400.974 182.219 402.128 179.612C403.283 177.005 404.071 173.396 404.492 168.784C404.913 164.171 404.926 158.162 404.531 150.756C404.14 143.433 403.49 137.522 402.583 133.022C401.675 128.522 400.509 125.059 399.086 122.631C397.663 120.203 395.971 118.604 394.011 117.832C392.05 117.061 389.821 116.742 387.325 116.875C384.829 117.008 382.626 117.564 380.717 118.542C378.85 119.518 377.338 121.289 376.181 123.854C375.025 126.419 374.235 129.987 373.811 134.558C373.387 139.129 373.371 145.076 373.762 152.399C374.158 159.805 374.81 165.778 375.72 170.32C376.63 174.861 377.798 178.366 379.224 180.835C380.649 183.305 382.342 184.925 384.302 185.696C386.305 186.466 388.554 186.784 391.05 186.651ZM457.923 101.589L493.997 99.6632L497.142 158.579C497.32 161.908 497.911 164.776 498.916 167.184C499.96 169.549 501.316 171.5 502.984 173.038C504.691 174.533 506.647 175.618 508.853 176.293C511.059 176.968 513.41 177.238 515.907 177.105C518.653 176.959 521.086 176.432 523.208 175.526C525.371 174.618 527.179 173.311 528.631 171.606C530.084 169.902 531.161 167.799 531.862 165.3C532.563 162.801 532.825 159.887 532.647 156.558L529.508 97.7672L543.239 97.0341L546.265 153.703C546.571 159.445 545.912 164.675 544.286 169.394C542.702 174.11 540.291 178.202 537.055 181.672C533.817 185.099 529.831 187.816 525.098 189.821C520.364 191.826 515.023 192.987 509.073 193.305C500.96 193.738 493.945 193.257 488.029 191.863C482.11 190.426 477.193 188.206 473.278 185.202C469.36 182.157 466.405 178.392 464.413 173.909C462.421 169.425 461.272 164.312 460.965 158.571L457.923 101.589ZM579.323 109.378L552.861 110.791L552.098 96.4985L641.096 91.7467L641.859 106.039L615.397 107.452L619.589 185.965L583.515 187.891L579.323 109.378Z" fill="#A33A3A"/>
</svg>
