<svg width="76" height="116" viewBox="0 0 76 116" fill="none" xmlns="http://www.w3.org/2000/svg">
<path d="M13.7031 110.766C13.7031 110.766 14.1967 115.26 15.6923 115.26H64.3016L65.8646 110.766H13.7031Z" fill="white" stroke="black" stroke-miterlimit="10"/>
<path d="M74.688 16.9772C73.8917 13.2597 69.9175 10.3303 69.9175 10.3303V6.61279L39.7991 5.98081V5.15552L6.74326 5.89902V9.61654C6.74326 9.61654 2.98691 12.5905 2.23564 16.3081C1.48438 20.0256 1.48438 104.785 1.48438 104.785C1.48438 104.785 4.48945 109.246 8.99707 109.989H67.5284C72.299 109.246 75.4844 104.822 75.4844 104.822C75.4844 104.822 75.4844 20.665 74.688 16.9772Z" fill="#FCEFDB" stroke="black" stroke-miterlimit="10"/>
<path d="M69.9111 1.26001H7.09301C5.64745 1.26001 4.47559 2.43364 4.47559 3.88139V4.18847C4.47559 5.63622 5.64745 6.80986 7.09301 6.80986H69.9111C71.3567 6.80986 72.5285 5.63622 72.5285 4.18847V3.88139C72.5285 2.43364 71.3567 1.26001 69.9111 1.26001Z" fill="#8A0F1A" stroke="black" stroke-miterlimit="10"/>
<path d="M13.0752 16.3904H62.4323" stroke="black" stroke-miterlimit="10"/>
<path d="M2.2334 25.3784H74.7733" stroke="#DDB1B6" stroke-miterlimit="10"/>
<path d="M1.85742 38.8608H74.3974" stroke="#DDB1B6" stroke-miterlimit="10"/>
<path d="M41.1045 35.0703V29.116H43.834L46.1223 32.5462V29.116H48.3658V35.0703H45.7858L43.2881 31.5875V35.0703H41.1045Z" fill="#B50619"/>
<path d="M49.6523 35.0703V29.116H55.949V30.5764H51.9631V31.288H55.2011V32.7859H51.9631V33.5349H56.1508V35.0703H49.6523Z" fill="#B50619"/>
<path d="M57.7743 35.0703L55.7402 29.116H58.223L59.2475 33.2727L60.3468 29.116H62.2462L63.3604 33.2727L64.3252 29.116H66.8153L64.7738 35.0703H62.2687L61.2666 31.2206L60.2496 35.0703H57.7743Z" fill="#B50619"/>
<path d="M66.6055 33.2429H69.3873C69.4018 33.3256 69.4378 33.403 69.4916 33.4674C69.5454 33.5318 69.6152 33.581 69.6939 33.6099C69.9293 33.7126 70.1854 33.7588 70.4418 33.7447C70.6789 33.757 70.916 33.7187 71.1372 33.6323C71.2043 33.6115 71.263 33.5698 71.3047 33.5132C71.3464 33.4566 71.369 33.3881 71.369 33.3178C71.3678 33.2527 71.3481 33.1893 71.3124 33.135C71.2767 33.0806 71.2263 33.0376 71.1671 33.0107C70.9716 32.9193 70.7614 32.8635 70.5464 32.8459L68.8339 32.6287C68.2532 32.5929 67.6939 32.3958 67.2187 32.0595C67.0439 31.9139 66.9045 31.7303 66.8112 31.5226C66.7179 31.315 66.6731 31.0888 66.6802 30.8612C66.6629 30.5662 66.7305 30.2725 66.875 30.0149C67.0195 29.7574 67.2349 29.5468 67.4954 29.4082C68.3153 29.045 69.2106 28.8857 70.1052 28.9438C71.0481 28.8911 71.9908 29.0498 72.8647 29.4082C73.1426 29.5316 73.3808 29.7301 73.5525 29.9814C73.7242 30.2327 73.8226 30.527 73.8368 30.8312H71.1671C71.1519 30.7371 71.1121 30.6487 71.0516 30.575C70.9912 30.5013 70.9123 30.445 70.8231 30.4118C70.5631 30.3028 70.2819 30.2542 70.0005 30.2695C69.7933 30.2582 69.5862 30.2941 69.3948 30.3743C69.3335 30.3931 69.2796 30.4306 69.2407 30.4817C69.2018 30.5328 69.1798 30.5947 69.1779 30.6589C69.1772 30.7139 69.1923 30.7679 69.2215 30.8144C69.2507 30.8609 69.2927 30.8979 69.3424 30.9211C69.5709 31.0074 69.8098 31.0628 70.0529 31.0858L72.1542 31.3779C72.6987 31.4182 73.219 31.6188 73.6499 31.9546C73.8126 32.0993 73.9408 32.2787 74.0249 32.4796C74.1091 32.6806 74.147 32.8979 74.1359 33.1155C74.1502 33.45 74.0655 33.7812 73.8926 34.0677C73.7196 34.3541 73.4661 34.5831 73.1638 34.7258C72.1931 35.1248 71.145 35.2989 70.0977 35.2351C69.2175 35.2848 68.3394 35.1069 67.5477 34.7183C67.2675 34.5867 67.0303 34.3782 66.8635 34.1171C66.6967 33.856 66.6073 33.5528 66.6055 33.2429Z" fill="#B50619"/>
<path d="M2.98047 35.0703V29.116H9.26955V30.5764H5.27626V31.288H8.5143V32.7859H5.27626V33.5349H9.46399V35.0703H2.98047Z" fill="#B50619"/>
<path d="M11.0936 35.0703L9.05957 29.116H11.5797L12.6042 33.2727L13.7035 29.116H15.6029L16.7172 33.2727L17.6893 29.116H20.1721L18.1305 35.0703H15.6328L14.5709 31.2206L13.5539 35.0703H11.0936Z" fill="#B50619"/>
<path d="M19.9268 33.2429H22.7086C22.7232 33.3256 22.7591 33.403 22.8129 33.4674C22.8667 33.5318 22.9365 33.581 23.0152 33.6099C23.2506 33.7126 23.5067 33.7588 23.763 33.7447C24.0002 33.757 24.2373 33.7187 24.4585 33.6323C24.5256 33.6115 24.5843 33.5698 24.6261 33.5132C24.6678 33.4566 24.6903 33.3881 24.6904 33.3178C24.6891 33.2527 24.6695 33.1893 24.6337 33.135C24.598 33.0806 24.5476 33.0376 24.4884 33.0107C24.293 32.9193 24.0828 32.8635 23.8677 32.8459L22.1553 32.6287C21.5745 32.5929 21.0152 32.3958 20.54 32.0595C20.3652 31.9139 20.2259 31.7303 20.1326 31.5226C20.0393 31.315 19.9945 31.0888 20.0016 30.8612C19.9843 30.5662 20.0519 30.2725 20.1964 30.0149C20.3409 29.7574 20.5561 29.5468 20.8167 29.4082C21.6366 29.045 22.532 28.8857 23.4266 28.9438C24.3694 28.8911 25.3121 29.0498 26.186 29.4082C26.464 29.5316 26.7021 29.7301 26.8738 29.9814C27.0455 30.2327 27.144 30.527 27.1581 30.8312H24.4884C24.4732 30.7371 24.4334 30.6487 24.373 30.575C24.3125 30.5013 24.2337 30.445 24.1444 30.4118C23.8844 30.3028 23.6033 30.2542 23.3219 30.2695C23.1146 30.2582 22.9076 30.2941 22.7161 30.3743C22.6548 30.3931 22.6009 30.4306 22.562 30.4817C22.5231 30.5328 22.5011 30.5947 22.4992 30.6589C22.4985 30.7139 22.5136 30.7679 22.5428 30.8144C22.572 30.8609 22.614 30.8979 22.6638 30.9211C22.9041 31.0107 23.1559 31.0662 23.4116 31.0858L25.5129 31.3779C26.0574 31.4182 26.5777 31.6188 27.0086 31.9546C27.1713 32.0993 27.2995 32.2787 27.3837 32.4796C27.4678 32.6806 27.5057 32.8979 27.4947 33.1155C27.5089 33.45 27.4242 33.7812 27.2513 34.0677C27.0784 34.3541 26.8248 34.5831 26.5225 34.7258C25.5518 35.1248 24.5037 35.2989 23.4565 35.2351C22.5763 35.2848 21.6981 35.1069 20.9064 34.7183C20.6192 34.5922 20.3742 34.386 20.2006 34.1245C20.0269 33.8629 19.9318 33.5569 19.9268 33.2429Z" fill="#B50619"/>
<path d="M75.1452 66.2H1.85742V72.9407H75.1452V66.2Z" fill="#B50619"/>
<path d="M39.2499 99.9058C56.5966 99.9058 70.6589 95.2109 70.6589 89.4196C70.6589 83.6282 56.5966 78.9333 39.2499 78.9333C21.9031 78.9333 7.84082 83.6282 7.84082 89.4196C7.84082 95.2109 21.9031 99.9058 39.2499 99.9058Z" fill="#B50619"/>
<path d="M39.2503 97.8082C53.1277 97.8082 64.3775 94.0523 64.3775 89.4192C64.3775 84.7861 53.1277 81.0303 39.2503 81.0303C25.3729 81.0303 14.123 84.7861 14.123 89.4192C14.123 94.0523 25.3729 97.8082 39.2503 97.8082Z" fill="#F8F0DF"/>
<path d="M25.917 91.2839V86.2358H28.2278L30.172 89.1493V86.2358H32.064V91.2839H29.873L27.7566 88.3329V91.2839H25.917Z" fill="#B50619"/>
<path d="M33.1699 91.2839V86.2358H38.5018V87.4791H35.1142V88.0783H37.8587V89.3216H35.1142V89.9882H38.6663V91.2839H33.1699Z" fill="#B50619"/>
<path d="M40.0575 91.2839L38.3301 86.2358H40.4314L41.3064 89.7635L42.2411 86.2358H43.8489L44.7986 89.7635L45.6138 86.2358H47.7301L45.9802 91.2839H43.8564L42.9889 88.0259L42.1215 91.2839H40.0575Z" fill="#B50619"/>
<path d="M47.5436 89.7486H49.9142C49.926 89.8185 49.9556 89.8842 50.0001 89.9393C50.0446 89.9945 50.1026 90.0371 50.1684 90.0632C50.3642 90.147 50.5764 90.1854 50.7891 90.1755C50.9901 90.1857 51.191 90.1551 51.3799 90.0857C51.4337 90.0651 51.4799 90.0287 51.5126 89.9812C51.5452 89.9337 51.5627 89.8774 51.5627 89.8198C51.5627 89.7621 51.5452 89.7058 51.5126 89.6584C51.4799 89.6109 51.4337 89.5745 51.3799 89.5539C51.216 89.4736 51.0384 89.4253 50.8564 89.4116L49.3982 89.2318C48.9061 89.1982 48.4327 89.0298 48.0297 88.745C47.8801 88.6222 47.761 88.4663 47.6819 88.2895C47.6027 88.1127 47.5656 87.92 47.5735 87.7264C47.56 87.4764 47.6174 87.2276 47.7391 87.0089C47.8609 86.7902 48.042 86.6105 48.2615 86.4906C48.9675 86.1831 49.7368 86.0495 50.505 86.1012C51.3042 86.0578 52.1033 86.1907 52.8456 86.4906C53.0807 86.5986 53.2821 86.7686 53.4283 86.9823C53.5745 87.196 53.66 87.4454 53.6757 87.7039H51.4322C51.4193 87.6248 51.3864 87.5502 51.3367 87.4873C51.287 87.4244 51.222 87.3752 51.1481 87.3445C50.9281 87.2529 50.6905 87.212 50.4526 87.2246C50.2761 87.2163 50.0999 87.247 49.9366 87.3145C49.8838 87.3314 49.8376 87.3642 49.8041 87.4084C49.7706 87.4527 49.7516 87.5062 49.7497 87.5616C49.75 87.6077 49.7636 87.6527 49.7888 87.6912C49.814 87.7297 49.8497 87.7601 49.8917 87.7788C50.0866 87.851 50.2904 87.8964 50.4975 87.9136L52.2698 88.1683C52.705 88.2215 53.1168 88.3953 53.4588 88.6701C53.5958 88.7945 53.7037 88.9475 53.7748 89.1184C53.8459 89.2893 53.8784 89.4738 53.8701 89.6588C53.8833 89.942 53.8122 90.2229 53.6658 90.4656C53.5193 90.7083 53.3041 90.9019 53.0475 91.0219C52.2237 91.3608 51.3342 91.5093 50.4451 91.4563C49.6988 91.4969 48.9546 91.3448 48.284 91.0144C48.0541 90.8946 47.8626 90.7123 47.7316 90.4884C47.6007 90.2644 47.5355 90.008 47.5436 89.7486Z" fill="#B50619"/>
<path d="M1.48438 101.404V107.224C3.92508 109.33 6.97026 110.607 10.1817 110.871C15.6932 111.388 65.8655 110.871 65.8655 110.871C65.8655 110.871 72.5287 110.347 74.7722 107.224L75.1461 103.321V101.868L1.48438 101.404Z" fill="#B50619" stroke="black" stroke-miterlimit="10"/>
</svg>
