<svg width="49" height="49" viewBox="0 0 49 49" fill="none" xmlns="http://www.w3.org/2000/svg">
<path fill-rule="evenodd" clip-rule="evenodd" d="M23.8554 22.3348C22.4996 23.3344 20.6115 26.5763 23.9063 31.5474C22.592 34.5304 21.2354 41.257 26.3228 44.2993C31.4102 47.3415 36.4713 41.7974 38.3659 38.6451L23.8554 22.3348ZM23.8701 22.351C24.9673 21.0607 28.2934 19.4352 32.8204 23.256C35.8418 22.1918 42.506 21.4311 44.992 26.9017C47.478 32.3722 41.6203 37.0208 38.3806 38.6613L23.8701 22.351Z" fill="#9B9B9B"/>
<path d="M20.8236 16.4149C18.4597 12.7536 19.2064 8.76797 19.8751 7.2328C26.6426 7.25942 28.3983 16.1799 28.168 17.13C27.9377 18.0801 23.7785 20.9914 20.8236 16.4149Z" fill="#9B9B9B"/>
<path d="M34.969 18.7716C31.7272 15.8827 32.2074 11.3341 32.8527 9.42088C38.323 10.3494 40.7344 15.444 41.003 18.098C40.7129 18.8017 39.0212 22.3828 34.969 18.7716Z" fill="#9B9B9B"/>
<path d="M11.8658 37.7508C8.30606 34.9024 8.72091 31.5475 9.3733 30.226C17.1298 29.263 19.2112 35.3754 19.2823 38.552C18.2934 39.4718 15.4256 40.5993 11.8658 37.7508Z" fill="#9B9B9B"/>
<path d="M18.425 25.1038C13.5553 28.0421 9.16159 19.6483 8.47568 19.3547C9.49711 13.2237 15.7653 16.6795 16.1259 17.1098C16.4864 17.5401 23.2946 22.1654 18.425 25.1038Z" fill="#9B9B9B"/>
</svg>
