<svg width="156" height="181" viewBox="0 0 156 181" fill="none" xmlns="http://www.w3.org/2000/svg">
<g filter="url(#filter0_d_545_1336)">
<path d="M57.7375 62.6927C57.7375 62.6927 39.2227 53.9187 44.9878 50.8553C50.7529 47.7919 52.4038 52.9838 52.4038 52.9838C52.4038 52.9838 36.3522 30.7626 43.7935 29.4384C51.2349 28.1142 55.2225 37.1222 55.8829 39.199C56.5433 41.2758 56.7204 17.1071 67.0829 32.0337L70.0546 41.3792C70.0546 41.3792 72.8733 25.5176 76.2005 32.4488C79.5277 39.3801 80.9146 46.9559 76.6074 52.9792C72.3002 59.0026 57.7375 62.6927 57.7375 62.6927Z" fill="#859549" stroke="black" stroke-miterlimit="10"/>
<path d="M57.7363 62.6927C57.7363 62.6927 55.654 70.273 56.289 75.8025C56.9241 81.3319 58.6004 83.0712 58.6004 83.0712C58.6004 83.0712 94.9961 141.013 125.651 152.642C125.651 152.642 131.061 151.993 131.136 141.635C131.212 131.277 106.118 52.3593 87.2222 49.4523C87.2222 49.4523 67.9204 55.8649 57.7363 62.6927Z" fill="#F57A3B" stroke="black" stroke-miterlimit="10"/>
<path d="M87.8845 97.4534L100.101 89.9491" stroke="black" stroke-miterlimit="10"/>
<path d="M56.9598 79.4614L62.0305 76.1917" stroke="black" stroke-miterlimit="10"/>
<path d="M96.214 67.1311L101.714 63.7991" stroke="black" stroke-miterlimit="10"/>
<path d="M112.138 106.616L119.943 102.231" stroke="black" stroke-miterlimit="10"/>
<path d="M99.1106 132.758L105.892 129.356" stroke="black" stroke-miterlimit="10"/>
<path d="M124.076 137.092L130.109 135.087" stroke="black" stroke-miterlimit="10"/>
<path d="M50.9717 72.3017C51.3278 77.0331 53.2152 88.1336 57.9149 94.6848C62.6147 101.236 68.7748 108.697 71.2673 111.609M100.109 48.8266C105.806 57.7435 117.307 76.6691 117.734 81.0365M94.2335 142.727L117.734 156.921M43.4943 44.4592L38.1533 28.0813M50.9717 25.3516L54.1762 30.8109L56.8467 24.2598M78.7447 30.8109L81.9493 37.908L83.0175 45.551" stroke="#E8E8E8"/>
<path d="M124.677 95.2305L134.291 131.262" stroke="#E8E8E8"/>
</g>
<defs>
<filter id="filter0_d_545_1336" x="33.6797" y="24.0691" width="105.092" height="141.282" filterUnits="userSpaceOnUse" color-interpolation-filters="sRGB">
<feFlood flood-opacity="0" result="BackgroundImageFix"/>
<feColorMatrix in="SourceAlpha" type="matrix" values="0 0 0 0 0 0 0 0 0 0 0 0 0 0 0 0 0 0 127 0" result="hardAlpha"/>
<feOffset dy="4"/>
<feGaussianBlur stdDeviation="2"/>
<feComposite in2="hardAlpha" operator="out"/>
<feColorMatrix type="matrix" values="0 0 0 0 0 0 0 0 0 0 0 0 0 0 0 0 0 0 0.25 0"/>
<feBlend mode="normal" in2="BackgroundImageFix" result="effect1_dropShadow_545_1336"/>
<feBlend mode="normal" in="SourceGraphic" in2="effect1_dropShadow_545_1336" result="shape"/>
</filter>
</defs>
</svg>
