<svg width="206" height="280" viewBox="0 0 206 280" fill="none" xmlns="http://www.w3.org/2000/svg">
<rect x="0.5" y="0.5" width="205" height="279" fill="#FCF4E7" stroke="black"/>
<rect y="32.8962" width="205.234" height="2.29508" fill="#2D2E26"/>
<ellipse cx="140.907" cy="19.8907" rx="5.36059" ry="4.59016" fill="#2C3228"/>
<ellipse cx="140.907" cy="19.8907" rx="5.36059" ry="4.59016" fill="#2C3228"/>
<ellipse cx="159.286" cy="19.8909" rx="5.36059" ry="4.59016" fill="#2C3228"/>
<path d="M162.616 18.3607C162.616 20.5496 160.515 22.4508 157.755 22.4508C154.995 22.4508 152.895 20.5496 152.895 18.3607C152.895 16.1717 154.995 14.2705 157.755 14.2705C160.515 14.2705 162.616 16.1717 162.616 18.3607Z" fill="#F5F5EB" stroke="#31322A"/>
<ellipse cx="177.665" cy="19.8909" rx="5.36059" ry="4.59016" fill="#2C3228"/>
<path d="M180.995 18.3607C180.995 20.5496 178.894 22.4508 176.134 22.4508C173.374 22.4508 171.273 20.5496 171.273 18.3607C171.273 16.1717 173.374 14.2705 176.134 14.2705C178.894 14.2705 180.995 16.1717 180.995 18.3607Z" fill="#F5F5EB" stroke="#31322A"/>
<rect x="67.3906" y="214.973" width="78.8773" height="25.2459" rx="10" fill="#2D2E26"/>
<rect x="63.7959" y="210.617" width="76.8773" height="23.2459" rx="9" fill="#FDF4E5" stroke="#252424" stroke-width="2"/>
<path d="M84.0236 217.13C84.769 217.13 85.4225 217.237 85.9841 217.451C86.5558 217.655 86.8417 217.936 86.8417 218.293C86.8417 218.65 86.7039 219.093 86.4282 219.624C86.1627 220.144 85.9381 220.404 85.7543 220.404C85.7033 220.404 85.642 220.379 85.5705 220.328C85.5093 220.266 85.3561 220.205 85.111 220.144C84.8762 220.073 84.672 220.037 84.4984 220.037C83.9062 220.037 83.4263 220.246 83.0587 220.664C82.7013 221.083 82.5226 221.725 82.5226 222.592C82.5226 223.449 82.7064 224.087 83.074 224.505C83.4518 224.923 83.9266 225.132 84.4984 225.132C84.7332 225.132 84.9936 225.101 85.2795 225.04C85.5756 224.969 85.7849 224.872 85.9075 224.75C85.9279 224.729 85.9687 224.719 86.03 224.719C86.0913 224.719 86.2036 224.836 86.367 225.071C86.5405 225.295 86.6988 225.596 86.8417 225.974C86.9847 226.341 87.0562 226.626 87.0562 226.83C87.0562 227.228 86.7499 227.544 86.1372 227.779C85.5246 228.014 84.7996 228.131 83.9623 228.131C82.6145 228.131 81.5067 227.657 80.6388 226.708C79.7709 225.759 79.3369 224.423 79.3369 222.699C79.3369 220.965 79.7811 219.603 80.6694 218.614C81.5679 217.625 82.686 217.13 84.0236 217.13Z" fill="#2E2F29"/>
<path d="M97.7857 227.718C97.7857 227.891 97.2701 227.978 96.2388 227.978C95.2075 227.978 94.6919 227.891 94.6919 227.718V224.199H92.5477V227.718C92.5477 227.891 92.032 227.978 91.0008 227.978C89.9695 227.978 89.4538 227.891 89.4538 227.718V217.574C89.4538 217.359 89.9695 217.252 91.0008 217.252C92.032 217.252 92.5477 217.359 92.5477 217.574V221.169H94.6919V217.604C94.6919 217.461 94.9472 217.359 95.4577 217.298C95.7232 217.278 95.9836 217.268 96.2388 217.268L97.0199 217.298C97.5305 217.359 97.7857 217.461 97.7857 217.604V227.718Z" fill="#2E2F29"/>
<path d="M105.513 221.521C105.707 221.521 105.804 221.878 105.804 222.592C105.804 222.806 105.779 223.061 105.728 223.357C105.687 223.643 105.605 223.786 105.483 223.786H103.538V225.316H106.356C106.529 225.316 106.647 225.54 106.708 225.989C106.739 226.183 106.754 226.392 106.754 226.616C106.754 226.83 106.723 227.111 106.662 227.458C106.601 227.805 106.499 227.978 106.356 227.978H101.118C100.73 227.978 100.536 227.82 100.536 227.504V217.665C100.536 217.4 100.653 217.268 100.888 217.268H106.371C106.586 217.268 106.693 217.722 106.693 218.629C106.693 219.527 106.586 219.976 106.371 219.976H103.538V221.521H105.513Z" fill="#2E2F29"/>
<path d="M113.695 217.13C114.44 217.13 115.094 217.237 115.655 217.451C116.227 217.655 116.513 217.936 116.513 218.293C116.513 218.65 116.375 219.093 116.099 219.624C115.834 220.144 115.609 220.404 115.425 220.404C115.374 220.404 115.313 220.379 115.242 220.328C115.18 220.266 115.027 220.205 114.782 220.144C114.547 220.073 114.343 220.037 114.17 220.037C113.577 220.037 113.097 220.246 112.73 220.664C112.372 221.083 112.194 221.725 112.194 222.592C112.194 223.449 112.378 224.087 112.745 224.505C113.123 224.923 113.598 225.132 114.17 225.132C114.404 225.132 114.665 225.101 114.951 225.04C115.247 224.969 115.456 224.872 115.579 224.75C115.599 224.729 115.64 224.719 115.701 224.719C115.762 224.719 115.875 224.836 116.038 225.071C116.212 225.295 116.37 225.596 116.513 225.974C116.656 226.341 116.727 226.626 116.727 226.83C116.727 227.228 116.421 227.544 115.808 227.779C115.196 228.014 114.471 228.131 113.633 228.131C112.286 228.131 111.178 227.657 110.31 226.708C109.442 225.759 109.008 224.423 109.008 222.699C109.008 220.965 109.452 219.603 110.341 218.614C111.239 217.625 112.357 217.13 113.695 217.13Z" fill="#2E2F29"/>
<path d="M122.188 227.764C122.188 227.917 121.708 227.993 120.748 227.993L119.891 227.947C119.38 227.907 119.125 227.835 119.125 227.733V217.466C119.125 217.293 119.636 217.206 120.657 217.206C121.678 217.206 122.188 217.293 122.188 217.466V221.383L124.057 217.466C124.128 217.324 124.537 217.252 125.282 217.252C126.64 217.252 127.355 217.37 127.426 217.604C127.426 217.625 127.421 217.645 127.411 217.665L124.746 222.47L127.84 226.739C127.84 226.759 127.743 226.846 127.549 226.999C127.079 227.407 126.528 227.728 125.895 227.963C125.701 228.034 125.507 228.07 125.313 228.07L124.945 228.039C124.618 227.958 124.363 227.748 124.179 227.412L122.433 224.076H122.188V227.764Z" fill="#2E2F29"/>
<path d="M34.4464 69.0012C34.7875 69.0012 34.9581 69.8952 34.9581 71.6832C34.9581 73.451 34.7875 74.335 34.4464 74.335H28.9389V77.7703H32.6106C32.9517 77.7703 33.1222 78.5538 33.1222 80.1208C33.1222 81.6677 32.9617 82.4412 32.6407 82.4412H28.9389V89.7036C28.9389 89.9848 28.5576 90.1656 27.7952 90.246C27.0528 90.3464 26.4309 90.3966 25.9293 90.3966L24.5147 90.3364C23.5316 90.2158 23.04 90.0149 23.04 89.7337V69.7847C23.04 69.4633 23.1002 69.2523 23.2206 69.1519C23.3611 69.0514 23.5617 69.0012 23.8225 69.0012H34.4464Z" fill="black"/>
<path d="M52.587 90.1556C50.8415 90.1556 49.8985 89.8743 49.758 89.3118L48.7649 85.4245H43.9796L43.1068 89.1611C42.9864 89.7839 42.0233 90.0953 40.2176 90.0953C39.2545 90.0953 38.5422 90.0451 38.0808 89.9446C37.6193 89.8241 37.3886 89.7337 37.3886 89.6734L42.7156 69.2724C42.7156 69.1117 44.0899 69.0313 46.8387 69.0313C49.5875 69.0313 50.9619 69.1117 50.9619 69.2724L56.1685 89.7036C56.1685 89.8442 55.707 89.9547 54.7841 90.035C53.8611 90.1154 53.1288 90.1556 52.587 90.1556ZM44.732 81.5974H47.8921L46.5377 75.3596H46.3572L44.732 81.5974Z" fill="black"/>
<path d="M58.192 69.3929C58.192 69.2925 58.6233 69.2021 59.4861 69.1217C60.3689 69.0213 61.0912 68.9711 61.653 68.9711C63.8801 68.9711 65.0438 69.2624 65.1441 69.845L67.7324 83.1041L70.1702 69.845C70.2906 69.2624 71.5345 68.9711 73.9021 68.9711C74.4839 68.9711 75.2163 69.0112 76.0991 69.0916C76.9819 69.172 77.4233 69.2624 77.4233 69.3628L72.0963 89.3118C72.0161 89.6332 71.4242 89.8442 70.3207 89.9446C68.6152 90.1254 67.0603 90.1656 65.6558 90.0652C64.2714 89.9446 63.539 89.7437 63.4588 89.4625L58.192 69.3929Z" fill="black"/>
<path d="M90.6094 90.3966C87.8004 90.3966 85.5031 89.4725 83.7174 87.6243C81.9518 85.776 81.0689 83.084 81.0689 79.5482C81.0689 75.9924 81.9618 73.3004 83.7475 71.4722C85.5532 69.6441 87.8706 68.73 90.6997 68.73C93.5488 68.73 95.8461 69.634 97.5917 71.4421C99.3372 73.2301 100.21 75.9522 100.21 79.6085C100.21 83.2447 99.3172 85.9568 97.5315 87.7448C95.7458 89.5127 93.4384 90.3966 90.6094 90.3966ZM90.6395 74.5158C89.6764 74.5158 88.8638 74.9578 88.2017 75.8417C87.5596 76.7257 87.2386 77.9712 87.2386 79.5784C87.2386 81.1655 87.5496 82.3909 88.1716 83.2548C88.7936 84.0985 89.6062 84.5204 90.6094 84.5204C91.6326 84.5204 92.4553 84.0885 93.0772 83.2246C93.7193 82.3608 94.0403 81.1253 94.0403 79.5181C94.0403 77.9109 93.7093 76.6754 93.0472 75.8116C92.4051 74.9477 91.6025 74.5158 90.6395 74.5158Z" fill="black"/>
<path d="M114.875 69.6039C114.875 69.2021 115.959 69.0012 118.126 69.0012C120.313 69.0012 121.406 69.2021 121.406 69.6039V83.4356C121.406 85.4847 120.674 87.1622 119.209 88.468C117.745 89.7538 115.718 90.3966 113.13 90.3966C110.562 90.3966 108.465 89.7337 106.84 88.4078C105.235 87.0618 104.432 85.2537 104.432 82.9836V69.634C104.432 69.2322 105.516 69.0313 107.683 69.0313C109.869 69.0313 110.963 69.2322 110.963 69.634V83.2246C110.963 83.6264 111.174 83.9479 111.595 84.189C112.036 84.43 112.498 84.5506 112.979 84.5506C113.461 84.5506 113.892 84.4401 114.274 84.2191C114.675 83.9981 114.875 83.6666 114.875 83.2246V69.6039Z" fill="black"/>
<path d="M132.088 89.6734C132.088 89.9949 131.135 90.1556 129.229 90.1556C127.303 90.1556 126.34 90.0049 126.34 89.7036V70.0559C126.34 69.3528 126.711 69.0012 127.453 69.0012H133.202C138.479 69.0012 141.117 71.0604 141.117 75.1788C141.117 76.4243 140.876 77.5594 140.395 78.5839C139.913 79.5884 139.231 80.392 138.348 80.9947L142.14 87.3229C141.98 87.8051 141.458 88.3575 140.575 88.9803C139.372 89.8442 138.378 90.2761 137.596 90.2761C136.813 90.2761 136.232 89.9949 135.85 89.4323L133.021 82.8329H132.088V89.6734ZM132.088 74.335V78.8552H132.239C134.145 78.8552 135.098 78.0616 135.098 76.4745C135.098 75.7513 134.907 75.2189 134.526 74.8774C134.165 74.5158 133.563 74.335 132.72 74.335H132.088Z" fill="black"/>
<path d="M148.486 84.9122V74.1843H146.349C146.008 74.1843 145.767 73.7524 145.627 72.8885C145.567 72.4667 145.536 72.0347 145.536 71.5928C145.536 71.1508 145.567 70.7189 145.627 70.297C145.767 69.4331 146.008 69.0012 146.349 69.0012H156.461C156.802 69.0012 157.033 69.4331 157.154 70.297C157.234 70.7189 157.274 71.1508 157.274 71.5928C157.274 72.0347 157.234 72.4667 157.154 72.8885C157.033 73.7524 156.802 74.1843 156.461 74.1843H154.445V84.9122H156.552C156.893 84.9122 157.134 85.3441 157.274 86.208C157.354 86.6298 157.394 87.0618 157.394 87.5037C157.394 87.9457 157.354 88.3776 157.274 88.7995C157.134 89.6634 156.893 90.0953 156.552 90.0953H146.409C146.068 90.0953 145.837 89.6634 145.717 88.7995C145.637 88.3776 145.597 87.9457 145.597 87.5037C145.597 87.0618 145.637 86.6298 145.717 86.208C145.837 85.3441 146.068 84.9122 146.409 84.9122H148.486Z" fill="black"/>
<path d="M170.869 89.6132C170.869 90.0149 169.876 90.2158 167.889 90.2158C165.903 90.2158 164.91 90.0149 164.91 89.6132V74.4857H161.298C160.957 74.4857 160.716 74.0236 160.576 73.0995C160.516 72.6575 160.486 72.2055 160.486 71.7434C160.486 71.2814 160.516 70.8293 160.576 70.3874C160.716 69.4633 160.957 69.0012 161.298 69.0012H174.39C174.731 69.0012 174.972 69.4633 175.112 70.3874C175.172 70.8293 175.202 71.2814 175.202 71.7434C175.202 72.2055 175.172 72.6575 175.112 73.0995C174.972 74.0236 174.731 74.4857 174.39 74.4857H170.869V89.6132Z" fill="black"/>
<path d="M189.105 77.3786C189.487 77.3786 189.677 78.0817 189.677 79.488C189.677 79.9099 189.627 80.4121 189.527 80.9947C189.447 81.5572 189.286 81.8385 189.045 81.8385H185.223V84.8519H190.761C191.102 84.8519 191.333 85.2939 191.453 86.1778C191.513 86.5595 191.543 86.9714 191.543 87.4133C191.543 87.8352 191.483 88.3877 191.363 89.0707C191.242 89.7538 191.042 90.0953 190.761 90.0953H180.468C179.705 90.0953 179.324 89.7839 179.324 89.1611V69.7847C179.324 69.2624 179.555 69.0012 180.016 69.0012H190.791C191.212 69.0012 191.423 69.8952 191.423 71.6832C191.423 73.451 191.212 74.335 190.791 74.335H185.223V77.3786H189.105Z" fill="black"/>
<path d="M60.5735 134.234C55.4307 134.766 50.9603 136.646 47.5791 139.697C44.5727 142.414 42.9209 145.682 42.7117 149.324L42.6456 150.475L41.9081 151.007C40.6419 151.922 39.6286 153.211 39.3205 154.294C38.9021 155.751 39.6401 156.774 41.3798 157.168C41.8753 157.286 41.8753 157.286 42.0184 157.838C42.1725 158.487 42.5362 159.176 42.9656 159.619L43.2518 159.924L42.7892 160.377C41.6879 161.45 41.5115 162.907 42.3375 164.078C42.5685 164.403 42.6679 164.698 42.7231 165.219C43.0426 168.054 45.0577 170.613 47.998 171.883C49.9803 172.73 48.8349 172.671 62.9414 172.671C77.037 172.671 75.9025 172.73 77.8733 171.883C80.8137 170.613 82.8621 168.024 83.1592 165.19C83.2035 164.698 83.3024 164.402 83.5006 164.137C84.2605 163.133 84.2495 161.833 83.4678 160.78L83.1707 160.377L83.5339 159.028L83.9086 157.67L84.5253 157.315C85.9018 156.518 86.1552 155.406 85.3403 153.851C85.0317 153.27 83.8758 151.922 83.4792 151.695C83.2482 151.557 83.2367 151.469 83.1711 149.805C83.1269 148.653 83.0389 147.768 82.8958 147.177C81.3429 140.73 74.9891 135.7 66.7961 134.43C65.2318 134.195 62.0161 134.086 60.5735 134.234ZM65.1547 135.809C73.6891 136.587 80.1861 141.508 81.2654 148.034C81.3643 148.604 81.4418 149.432 81.4418 149.874V150.672H62.9414H44.441V149.875C44.441 147.454 45.3658 144.786 46.9187 142.709C50.5195 137.876 57.7435 135.14 65.1547 135.809ZM82.146 152.729C83.3242 153.546 84.0841 154.52 84.0841 155.22C84.0841 155.692 83.6323 156.184 83.2139 156.184C83.0489 156.184 82.8174 156.253 82.6966 156.332C82.3994 156.529 81.5184 156.519 80.5161 156.283C79.2384 155.997 76.9481 154.914 76.0784 154.206C75.5278 153.753 75.2858 153.733 74.4157 154.058C72.4225 154.806 68.8877 154.767 67.1256 153.979C66.1785 153.556 65.7049 153.654 65.3635 154.353C65.0772 154.963 64.5595 155.436 63.9428 155.672C63.2048 155.958 61.9495 156.115 60.8811 156.056C59.7471 155.997 58.7667 155.613 58.0511 154.963C57.3241 154.294 57.1039 154.245 56.278 154.599C55.0118 155.121 54.252 155.249 52.3135 155.249C50.8157 155.249 50.4192 155.209 49.6708 155.022C49.1863 154.894 48.5805 154.687 48.3271 154.55C48.0736 154.422 47.7546 154.313 47.6224 154.313C47.4902 154.313 46.7856 154.579 46.0476 154.904C44.5403 155.564 43.6041 155.81 42.569 155.82C41.0822 155.82 40.5649 155.17 41.1373 154.028C41.2586 153.792 41.7212 153.29 42.1615 152.897L42.9546 152.198L62.2367 152.247L81.5188 152.296L82.146 152.729ZM67.9739 155.869L69.2073 156.144L66.8617 159.137C65.5622 160.79 64.4501 162.129 64.3731 162.109C64.1087 162.05 54.9243 156.725 54.9904 156.666C55.0346 156.637 55.4749 156.509 55.9704 156.391L56.8733 156.164L57.2917 156.46C58.5142 157.316 60.0006 157.71 61.7294 157.631C63.7778 157.532 65.1652 157.06 66.09 156.145C66.3872 155.86 66.6516 155.614 66.6848 155.603C66.7181 155.603 67.2911 155.722 67.9739 155.869ZM75.5611 155.879C76.2548 156.332 78.259 157.247 79.1291 157.513C79.5694 157.651 80.3843 157.808 80.935 157.867C81.4856 157.936 81.9477 157.995 81.9701 158.005C81.9919 158.015 81.9263 158.32 81.827 158.665L81.6396 159.304L80.1419 159.413C77.9722 159.58 69.0527 160.042 68.6785 160.003C68.3595 159.974 68.3704 159.964 69.8458 158.074C71.1562 156.401 71.3655 156.184 71.6298 156.184C72.0925 156.184 73.9311 155.889 74.3829 155.741C74.9553 155.544 75.0766 155.564 75.5611 155.879ZM50.8281 156.784L51.9845 156.912L54.5725 158.389C57.0502 159.816 57.1382 159.875 56.7421 159.905C56.5219 159.924 53.923 159.816 50.9717 159.678C45.2127 159.403 45.0363 159.383 44.4414 158.832C44.1661 158.566 43.8357 157.966 43.7368 157.513L43.6598 157.218L44.3754 157.09C45.08 156.971 46.3904 156.548 47.1617 156.194C47.5473 156.026 47.5582 156.026 48.6152 156.341C49.2424 156.538 50.1453 156.716 50.8281 156.784ZM53.0196 161.351L60.3315 161.706L62.3689 162.887L64.4173 164.058L54.5173 164.039L44.6064 164.009L44.2541 163.783C43.5713 163.35 43.3512 162.129 43.8576 161.519C44.188 161.115 44.7605 160.889 45.2669 160.948C45.5094 160.977 48.9999 161.164 53.0196 161.351ZM81.6838 161.214C82.6419 161.824 82.4769 163.428 81.4195 163.862C80.9678 164.049 80.6378 164.058 72.9621 164.049C68.5682 164.049 65.0444 164.019 65.1215 163.989C65.1985 163.96 65.6611 163.438 66.1456 162.818C66.9934 161.745 67.0486 161.696 67.4342 161.686C67.6543 161.686 70.4953 161.539 73.7329 161.362C81.1551 160.948 81.254 160.948 81.6838 161.214ZM81.331 165.682C81.331 165.938 80.9896 166.883 80.6925 167.434C79.9769 168.792 78.7653 169.855 77.2015 170.515C75.6376 171.165 75.9904 171.145 62.9409 171.145C49.8914 171.145 50.2442 171.164 48.6803 170.515C47.0946 169.846 45.9164 168.812 45.1894 167.434C44.8922 166.883 44.5508 165.938 44.5508 165.682C44.5508 165.613 50.7506 165.584 62.9409 165.584C75.1317 165.584 81.331 165.613 81.331 165.682Z" fill="black"/>
<path d="M59.6926 138.319C59.1421 138.801 59.5277 139.648 60.2983 139.648C60.7499 139.648 61.1792 139.264 61.1792 138.86C61.1792 138.457 60.7499 138.073 60.2983 138.073C60.0891 138.073 59.8581 138.161 59.6926 138.319Z" fill="black"/>
<path d="M63.2167 138.319C63.0403 138.466 62.9414 138.673 62.9414 138.86C62.9414 139.047 63.0403 139.254 63.2167 139.402C63.3816 139.56 63.6131 139.648 63.8223 139.648C64.0315 139.648 64.2625 139.56 64.4279 139.402C64.6038 139.254 64.7032 139.047 64.7032 138.86C64.7032 138.673 64.6043 138.467 64.4279 138.319C64.263 138.161 64.0315 138.073 63.8223 138.073C63.6127 138.073 63.3816 138.161 63.2167 138.319Z" fill="black"/>
<path d="M56.1682 139.107C55.6177 139.589 56.0033 140.436 56.7739 140.436C57.2255 140.436 57.6547 140.052 57.6547 139.648C57.6547 139.244 57.2255 138.86 56.7739 138.86C56.5647 138.86 56.3337 138.949 56.1682 139.107Z" fill="black"/>
<path d="M66.7401 139.107C66.5637 139.254 66.4648 139.461 66.4648 139.648C66.4648 139.835 66.5637 140.042 66.7401 140.189C66.905 140.347 67.1366 140.436 67.3457 140.436C67.5549 140.436 67.7859 140.347 67.9514 140.189C68.1273 140.042 68.2266 139.835 68.2266 139.648C68.2266 139.461 68.1277 139.254 67.9514 139.107C67.7864 138.949 67.5549 138.86 67.3457 138.86C67.1361 138.86 66.905 138.949 66.7401 139.107Z" fill="black"/>
<path d="M52.6448 139.894C52.0943 140.377 52.4798 141.223 53.2504 141.223C53.702 141.223 54.1313 140.839 54.1313 140.436C54.1313 140.032 53.702 139.648 53.2504 139.648C53.0413 139.648 52.8102 139.736 52.6448 139.894Z" fill="black"/>
<path d="M70.2645 139.894C70.0886 140.042 69.9893 140.249 69.9893 140.436C69.9893 140.623 70.0881 140.829 70.2645 140.977C70.4295 141.135 70.661 141.223 70.8701 141.223C71.0793 141.223 71.3104 141.135 71.4758 140.977C71.6517 140.83 71.751 140.623 71.751 140.436C71.751 140.249 71.6522 140.042 71.4758 139.894C71.3108 139.736 71.0793 139.648 70.8701 139.648C70.661 139.648 70.4295 139.736 70.2645 139.894Z" fill="black"/>
<path d="M73.7879 140.681C73.6116 140.829 73.5127 141.036 73.5127 141.223C73.5127 141.41 73.6116 141.616 73.7879 141.764C73.9529 141.922 74.1844 142.01 74.3936 142.01C74.6028 142.01 74.8338 141.922 74.9992 141.764C75.1751 141.617 75.2745 141.41 75.2745 141.223C75.2745 141.036 75.1756 140.829 74.9992 140.681C74.8343 140.524 74.6028 140.435 74.3936 140.435C74.1844 140.435 73.9534 140.524 73.7879 140.681Z" fill="black"/>
<path d="M58.8118 141.469C58.2613 141.951 58.6468 142.798 59.4174 142.798C59.869 142.798 60.2983 142.414 60.2983 142.01C60.2983 141.606 59.869 141.223 59.4174 141.223C59.2078 141.223 58.9767 141.311 58.8118 141.469Z" fill="black"/>
<path d="M63.2167 141.469C63.0403 141.616 62.9414 141.823 62.9414 142.01C62.9414 142.197 63.0403 142.404 63.2167 142.552C63.3816 142.709 63.6131 142.798 63.8223 142.798C64.0315 142.798 64.2625 142.709 64.4279 142.552C64.6038 142.404 64.7032 142.197 64.7032 142.01C64.7032 141.823 64.6043 141.617 64.4279 141.469C64.263 141.311 64.0315 141.223 63.8223 141.223C63.6127 141.223 63.3816 141.311 63.2167 141.469Z" fill="black"/>
<path d="M49.1213 142.256C48.5709 142.739 48.9564 143.585 49.727 143.585C50.1786 143.585 50.6079 143.201 50.6079 142.798C50.6079 142.394 50.1786 142.01 49.727 142.01C49.5178 142.01 49.2863 142.099 49.1213 142.256Z" fill="black"/>
<path d="M55.2883 142.256C54.7378 142.739 55.1234 143.585 55.894 143.585C56.3456 143.585 56.7749 143.201 56.7749 142.798C56.7749 142.394 56.3456 142.01 55.894 142.01C55.6843 142.01 55.4533 142.099 55.2883 142.256Z" fill="black"/>
<path d="M66.7401 142.256C66.5637 142.404 66.4648 142.611 66.4648 142.798C66.4648 142.985 66.5637 143.191 66.7401 143.339C66.905 143.497 67.1366 143.585 67.3457 143.585C67.5549 143.585 67.7859 143.497 67.9514 143.339C68.1273 143.192 68.2266 142.985 68.2266 142.798C68.2266 142.611 68.1277 142.404 67.9514 142.256C67.7864 142.099 67.5549 142.01 67.3457 142.01C67.1361 142.01 66.905 142.099 66.7401 142.256Z" fill="black"/>
<path d="M70.2645 143.044C70.0886 143.191 69.9893 143.398 69.9893 143.585C69.9893 143.772 70.0881 143.979 70.2645 144.127C70.4295 144.284 70.661 144.373 70.8701 144.373C71.0793 144.373 71.3104 144.284 71.4758 144.127C71.6517 143.979 71.751 143.772 71.751 143.585C71.751 143.398 71.6522 143.192 71.4758 143.044C71.3108 142.886 71.0793 142.798 70.8701 142.798C70.661 142.798 70.4295 142.886 70.2645 143.044Z" fill="black"/>
<path d="M52.6448 143.831C52.0943 144.313 52.4798 145.16 53.2504 145.16C53.702 145.16 54.1313 144.776 54.1313 144.372C54.1313 143.969 53.702 143.585 53.2504 143.585C53.0413 143.585 52.8102 143.674 52.6448 143.831Z" fill="black"/>
<path d="M77.3114 143.831C77.135 143.978 77.0361 144.185 77.0361 144.372C77.0361 144.559 77.135 144.766 77.3114 144.914C77.4763 145.072 77.7079 145.16 77.917 145.16C78.1262 145.16 78.3572 145.072 78.5227 144.914C78.699 144.766 78.7979 144.559 78.7979 144.372C78.7979 144.185 78.699 143.979 78.5227 143.831C78.3577 143.673 78.1262 143.585 77.917 143.585C77.7079 143.585 77.4768 143.674 77.3114 143.831Z" fill="black"/>
<path d="M57.9309 144.618C57.3804 145.101 57.766 145.947 58.5366 145.947C58.9882 145.947 59.4174 145.563 59.4174 145.16C59.4174 144.756 58.9882 144.372 58.5366 144.372C58.3274 144.372 58.0959 144.461 57.9309 144.618Z" fill="black"/>
<path d="M61.4544 144.618C60.9039 145.101 61.2894 145.947 62.06 145.947C62.2692 145.947 62.5002 145.859 62.6656 145.701C62.842 145.554 62.9409 145.347 62.9409 145.16C62.9409 144.973 62.8415 144.766 62.6656 144.618C62.5007 144.461 62.2692 144.372 62.06 144.372C61.8508 144.372 61.6193 144.461 61.4544 144.618Z" fill="black"/>
<path d="M64.9784 144.618C64.802 144.766 64.7031 144.973 64.7031 145.16C64.7031 145.347 64.802 145.553 64.9784 145.701C65.1433 145.859 65.3748 145.947 65.584 145.947C65.7932 145.947 66.0242 145.859 66.1897 145.701C66.366 145.554 66.4649 145.347 66.4649 145.16C66.4649 144.973 66.3655 144.766 66.1897 144.618C66.0247 144.461 65.7932 144.372 65.584 144.372C65.3748 144.372 65.1438 144.461 64.9784 144.618Z" fill="black"/>
<path d="M73.7879 144.618C73.6116 144.766 73.5127 144.973 73.5127 145.16C73.5127 145.347 73.6116 145.553 73.7879 145.701C73.9529 145.859 74.1844 145.947 74.3936 145.947C74.6028 145.947 74.8338 145.859 74.9992 145.701C75.1751 145.554 75.2745 145.347 75.2745 145.16C75.2745 144.973 75.1756 144.766 74.9992 144.618C74.8343 144.461 74.6028 144.372 74.3936 144.372C74.1844 144.372 73.9534 144.461 73.7879 144.618Z" fill="black"/>
<path d="M48.2405 145.406C47.69 145.888 48.0755 146.735 48.8461 146.735C49.2977 146.735 49.727 146.351 49.727 145.947C49.727 145.544 49.2977 145.16 48.8461 145.16C48.637 145.16 48.4059 145.248 48.2405 145.406Z" fill="black"/>
<path d="M55.2883 146.193C54.7378 146.676 55.1234 147.522 55.894 147.522C56.3456 147.522 56.7749 147.139 56.7749 146.735C56.7749 146.331 56.3456 145.947 55.894 145.947C55.6843 145.947 55.4533 146.036 55.2883 146.193Z" fill="black"/>
<path d="M69.3827 146.193C69.2063 146.341 69.1074 146.548 69.1074 146.735C69.1074 146.922 69.2063 147.128 69.3827 147.276C69.5476 147.434 69.7791 147.522 69.9883 147.522C70.1975 147.522 70.4285 147.434 70.594 147.276C70.7698 147.129 70.8692 146.922 70.8692 146.735C70.8692 146.548 70.7698 146.341 70.594 146.193C70.429 146.036 70.1975 145.947 69.9883 145.947C69.7791 145.947 69.5481 146.036 69.3827 146.193Z" fill="black"/>
<path d="M165.457 164.583L150.662 144.601L150.623 144.549L150.579 144.5C149.386 143.103 147.573 142.299 145.613 142.299C144.401 142.299 143.238 142.611 142.241 143.186C142.221 142.25 141.952 141.284 141.615 140.238C141.209 138.972 140.437 137.807 139.44 136.959C138.374 136.05 137.245 135.667 136.336 135.9C135.613 136.089 135.046 136.81 134.674 137.671C132.92 136.784 131.092 136.762 129.987 137.706C128.877 138.66 128.799 140.268 129.699 141.886C128.79 142.167 127.978 142.619 127.734 143.265C127.113 144.896 129.327 147.304 132.294 148.222C133.364 148.552 134.415 148.842 135.451 148.926C134.498 149.967 133.985 151.294 134.029 152.661C134.078 154.256 134.885 155.759 136.234 156.792L136.287 156.831L136.341 156.867L157.813 171.131C158.761 171.834 159.959 172.221 161.19 172.221C162.559 172.221 163.864 171.755 164.856 170.903C166.816 169.224 167.065 166.521 165.457 164.583ZM129.664 143.92C129.879 143.78 130.49 143.503 131.453 143.389L133.218 143.182L132.128 141.916C131.087 140.708 130.906 139.447 131.395 139.034C131.888 138.612 133.296 138.845 134.601 139.864L135.979 140.941L136.278 139.324C136.444 138.431 136.791 137.869 136.967 137.676C137.504 137.764 139.029 138.801 139.655 140.752C140.427 143.156 140.466 144.232 139.122 145.502C138.99 145.63 138.902 145.779 138.868 145.937L138.536 146.219C138.36 146.245 138.194 146.315 138.052 146.425C136.893 147.317 135.701 147.33 132.954 146.482C130.803 145.814 129.723 144.377 129.664 143.92ZM163.453 169.567C162.823 170.107 162.011 170.38 161.195 170.38C160.443 170.38 159.69 170.147 159.079 169.681L150.696 164.113C151.557 163.3 153.331 161.683 154.577 160.971C155.051 160.699 155.193 160.132 154.89 159.705C154.587 159.279 153.956 159.152 153.482 159.424C151.948 160.303 149.875 162.223 149.044 163.014L141.688 158.128C142.534 157.328 144.342 155.676 145.608 154.951C146.082 154.678 146.224 154.111 145.921 153.685C145.618 153.259 144.987 153.131 144.513 153.404C142.954 154.296 140.843 156.26 140.036 157.029L137.553 155.381C135.642 153.922 135.559 151.299 137.372 149.743L142.71 145.177C143.531 144.474 144.577 144.131 145.613 144.131C146.874 144.131 148.125 144.637 148.961 145.612L153.702 152.019C151.865 153.272 149.665 155.443 149.558 155.544C149.176 155.917 149.21 156.497 149.626 156.84C149.821 156.998 150.066 157.077 150.31 157.077C150.589 157.077 150.867 156.976 151.068 156.779C151.092 156.757 153.179 154.696 154.831 153.549L163.786 165.642C164.812 166.838 164.666 168.53 163.453 169.567Z" fill="black"/>
</svg>
