<svg width="206" height="280" viewBox="0 0 206 280" fill="none" xmlns="http://www.w3.org/2000/svg">
<rect x="0.5" y="0.5" width="205" height="279" fill="#FCF4E7" stroke="black"/>
<rect y="32.8962" width="205.234" height="2.29508" fill="#2D2E26"/>
<ellipse cx="140.907" cy="19.8907" rx="5.36059" ry="4.59016" fill="#2C3228"/>
<ellipse cx="140.907" cy="19.8907" rx="5.36059" ry="4.59016" fill="#2C3228"/>
<ellipse cx="159.286" cy="19.8909" rx="5.36059" ry="4.59016" fill="#2C3228"/>
<path d="M162.616 18.3607C162.616 20.5496 160.515 22.4508 157.755 22.4508C154.995 22.4508 152.895 20.5496 152.895 18.3607C152.895 16.1717 154.995 14.2705 157.755 14.2705C160.515 14.2705 162.616 16.1717 162.616 18.3607Z" fill="#F5F5EB" stroke="#31322A"/>
<ellipse cx="177.665" cy="19.8909" rx="5.36059" ry="4.59016" fill="#2C3228"/>
<path d="M180.995 18.3607C180.995 20.5496 178.894 22.4508 176.134 22.4508C173.374 22.4508 171.273 20.5496 171.273 18.3607C171.273 16.1717 173.374 14.2705 176.134 14.2705C178.894 14.2705 180.995 16.1717 180.995 18.3607Z" fill="#F5F5EB" stroke="#31322A"/>
<rect x="67.3906" y="214.973" width="78.8773" height="25.2459" rx="10" fill="#2D2E26"/>
<rect x="63.7959" y="210.617" width="76.8773" height="23.2459" rx="9" fill="#FDF4E5" stroke="#252424" stroke-width="2"/>
<path d="M84.0236 217.13C84.769 217.13 85.4225 217.237 85.9841 217.451C86.5558 217.655 86.8417 217.936 86.8417 218.293C86.8417 218.65 86.7039 219.093 86.4282 219.624C86.1627 220.144 85.9381 220.404 85.7543 220.404C85.7033 220.404 85.642 220.379 85.5705 220.328C85.5093 220.266 85.3561 220.205 85.111 220.144C84.8762 220.073 84.672 220.037 84.4984 220.037C83.9062 220.037 83.4263 220.246 83.0587 220.664C82.7013 221.083 82.5226 221.725 82.5226 222.592C82.5226 223.449 82.7064 224.087 83.074 224.505C83.4518 224.923 83.9266 225.132 84.4984 225.132C84.7332 225.132 84.9936 225.101 85.2795 225.04C85.5756 224.969 85.7849 224.872 85.9075 224.75C85.9279 224.729 85.9687 224.719 86.03 224.719C86.0913 224.719 86.2036 224.836 86.367 225.071C86.5405 225.295 86.6988 225.596 86.8417 225.974C86.9847 226.341 87.0562 226.626 87.0562 226.83C87.0562 227.228 86.7499 227.544 86.1372 227.779C85.5246 228.014 84.7996 228.131 83.9623 228.131C82.6145 228.131 81.5067 227.657 80.6388 226.708C79.7709 225.759 79.3369 224.423 79.3369 222.699C79.3369 220.965 79.7811 219.603 80.6694 218.614C81.5679 217.625 82.686 217.13 84.0236 217.13Z" fill="#2E2F29"/>
<path d="M97.7857 227.718C97.7857 227.891 97.2701 227.978 96.2388 227.978C95.2075 227.978 94.6919 227.891 94.6919 227.718V224.199H92.5477V227.718C92.5477 227.891 92.032 227.978 91.0008 227.978C89.9695 227.978 89.4538 227.891 89.4538 227.718V217.574C89.4538 217.359 89.9695 217.252 91.0008 217.252C92.032 217.252 92.5477 217.359 92.5477 217.574V221.169H94.6919V217.604C94.6919 217.461 94.9472 217.359 95.4577 217.298C95.7232 217.278 95.9836 217.268 96.2388 217.268L97.0199 217.298C97.5305 217.359 97.7857 217.461 97.7857 217.604V227.718Z" fill="#2E2F29"/>
<path d="M105.513 221.521C105.707 221.521 105.804 221.878 105.804 222.592C105.804 222.806 105.779 223.061 105.728 223.357C105.687 223.643 105.605 223.786 105.483 223.786H103.538V225.316H106.356C106.529 225.316 106.647 225.54 106.708 225.989C106.739 226.183 106.754 226.392 106.754 226.616C106.754 226.83 106.723 227.111 106.662 227.458C106.601 227.805 106.499 227.978 106.356 227.978H101.118C100.73 227.978 100.536 227.82 100.536 227.504V217.665C100.536 217.4 100.653 217.268 100.888 217.268H106.371C106.586 217.268 106.693 217.722 106.693 218.629C106.693 219.527 106.586 219.976 106.371 219.976H103.538V221.521H105.513Z" fill="#2E2F29"/>
<path d="M113.695 217.13C114.44 217.13 115.094 217.237 115.655 217.451C116.227 217.655 116.513 217.936 116.513 218.293C116.513 218.65 116.375 219.093 116.099 219.624C115.834 220.144 115.609 220.404 115.425 220.404C115.374 220.404 115.313 220.379 115.242 220.328C115.18 220.266 115.027 220.205 114.782 220.144C114.547 220.073 114.343 220.037 114.17 220.037C113.577 220.037 113.097 220.246 112.73 220.664C112.372 221.083 112.194 221.725 112.194 222.592C112.194 223.449 112.378 224.087 112.745 224.505C113.123 224.923 113.598 225.132 114.17 225.132C114.404 225.132 114.665 225.101 114.951 225.04C115.247 224.969 115.456 224.872 115.579 224.75C115.599 224.729 115.64 224.719 115.701 224.719C115.762 224.719 115.875 224.836 116.038 225.071C116.212 225.295 116.37 225.596 116.513 225.974C116.656 226.341 116.727 226.626 116.727 226.83C116.727 227.228 116.421 227.544 115.808 227.779C115.196 228.014 114.471 228.131 113.633 228.131C112.286 228.131 111.178 227.657 110.31 226.708C109.442 225.759 109.008 224.423 109.008 222.699C109.008 220.965 109.452 219.603 110.341 218.614C111.239 217.625 112.357 217.13 113.695 217.13Z" fill="#2E2F29"/>
<path d="M122.188 227.764C122.188 227.917 121.708 227.993 120.748 227.993L119.891 227.947C119.38 227.907 119.125 227.835 119.125 227.733V217.466C119.125 217.293 119.636 217.206 120.657 217.206C121.678 217.206 122.188 217.293 122.188 217.466V221.383L124.057 217.466C124.128 217.324 124.537 217.252 125.282 217.252C126.64 217.252 127.355 217.37 127.426 217.604C127.426 217.625 127.421 217.645 127.411 217.665L124.746 222.47L127.84 226.739C127.84 226.759 127.743 226.846 127.549 226.999C127.079 227.407 126.528 227.728 125.895 227.963C125.701 228.034 125.507 228.07 125.313 228.07L124.945 228.039C124.618 227.958 124.363 227.748 124.179 227.412L122.433 224.076H122.188V227.764Z" fill="#2E2F29"/>
<path d="M64.8652 175.523C64.8652 176.064 64.7643 176.529 64.5625 176.92C64.3672 177.311 64.1035 177.643 63.7715 177.916C63.4395 178.189 63.0553 178.414 62.6191 178.59C62.1895 178.759 61.7402 178.893 61.2715 178.99C60.8027 179.088 60.3307 179.153 59.8555 179.186C59.3867 179.218 58.9473 179.234 58.5371 179.234C58.1335 179.234 57.7135 179.218 57.2773 179.186C56.8477 179.16 56.418 179.111 55.9883 179.039C55.5586 178.967 55.1354 178.873 54.7188 178.756C54.3021 178.632 53.9082 178.479 53.5371 178.297L53.5176 165.719C53.8822 165.569 54.2695 165.436 54.6797 165.318C55.0898 165.195 55.5065 165.094 55.9297 165.016C56.3594 164.931 56.7858 164.869 57.209 164.83C57.6322 164.785 58.0423 164.762 58.4395 164.762C58.9017 164.762 59.3672 164.791 59.8359 164.85C60.3112 164.908 60.7669 165.006 61.2031 165.143C61.6393 165.279 62.0462 165.458 62.4238 165.68C62.8014 165.895 63.1302 166.161 63.4102 166.48C63.6966 166.799 63.918 167.171 64.0742 167.594C64.237 168.017 64.3184 168.505 64.3184 169.059C64.3184 169.423 64.2663 169.765 64.1621 170.084C64.0579 170.403 63.9082 170.689 63.7129 170.943C63.5176 171.197 63.2799 171.415 63 171.598C62.7201 171.773 62.4043 171.904 62.0527 171.988C62.4759 172.099 62.86 172.262 63.2051 172.477C63.5566 172.691 63.8529 172.952 64.0938 173.258C64.3411 173.564 64.5299 173.909 64.6602 174.293C64.7969 174.677 64.8652 175.087 64.8652 175.523ZM59.9043 169.957C59.9043 169.768 59.8652 169.609 59.7871 169.479C59.709 169.342 59.6113 169.231 59.4941 169.146C59.3835 169.062 59.2598 169 59.123 168.961C58.9928 168.922 58.8757 168.902 58.7715 168.902C58.6413 168.902 58.5143 168.922 58.3906 168.961C58.2669 169 58.1465 169.046 58.0293 169.098L57.9707 171.266C58.1204 171.266 58.306 171.253 58.5273 171.227C58.7487 171.201 58.9603 171.145 59.1621 171.061C59.3704 170.969 59.5462 170.839 59.6895 170.67C59.8327 170.494 59.9043 170.257 59.9043 169.957ZM58.5176 173.141C58.3288 173.141 58.1465 173.16 57.9707 173.199L57.9316 175.426C58.0293 175.445 58.1237 175.465 58.2148 175.484C58.3125 175.497 58.4069 175.504 58.498 175.504C58.6348 175.504 58.7845 175.491 58.9473 175.465C59.11 175.432 59.263 175.374 59.4062 175.289C59.5495 175.198 59.6667 175.077 59.7578 174.928C59.8555 174.778 59.9043 174.579 59.9043 174.332C59.9043 174.085 59.8555 173.883 59.7578 173.727C59.6667 173.57 59.5527 173.45 59.416 173.365C59.2793 173.274 59.1296 173.215 58.9668 173.189C58.804 173.157 58.6543 173.141 58.5176 173.141ZM72.666 165.25L71.5918 178.551L67.4707 178.766V165.523L72.666 165.25ZM86.7949 169.586C86.7949 170.094 86.7493 170.556 86.6582 170.973C86.5736 171.383 86.4368 171.76 86.248 172.105C86.0592 172.451 85.8151 172.77 85.5156 173.062C85.2161 173.355 84.8548 173.635 84.4316 173.902L86.7559 178.043L82.3613 178.902L80.8574 174.742L79.6465 174.781L79.4707 178.844H75.2715C75.304 177.359 75.3333 175.882 75.3594 174.41C75.3919 172.939 75.4277 171.461 75.4668 169.977C75.4798 169.228 75.4928 168.486 75.5059 167.75C75.5189 167.014 75.5449 166.272 75.584 165.523C76.0397 165.354 76.4889 165.214 76.9316 165.104C77.3743 164.993 77.8171 164.908 78.2598 164.85C78.709 164.785 79.1615 164.742 79.6172 164.723C80.0794 164.697 80.5514 164.684 81.0332 164.684C81.7754 164.684 82.4915 164.788 83.1816 164.996C83.8783 165.198 84.4935 165.504 85.0273 165.914C85.5612 166.324 85.9876 166.835 86.3066 167.447C86.6322 168.059 86.7949 168.772 86.7949 169.586ZM82.4199 169.898C82.4199 169.625 82.3809 169.374 82.3027 169.146C82.2311 168.919 82.1204 168.723 81.9707 168.561C81.8275 168.391 81.6452 168.261 81.4238 168.17C81.209 168.072 80.9551 168.023 80.6621 168.023C80.5319 168.023 80.4049 168.033 80.2812 168.053C80.1576 168.066 80.0371 168.089 79.9199 168.121L79.7637 171.754H79.998C80.278 171.754 80.5612 171.718 80.8477 171.646C81.1406 171.575 81.401 171.464 81.6289 171.314C81.8633 171.165 82.0521 170.973 82.1953 170.738C82.3451 170.504 82.4199 170.224 82.4199 169.898ZM93.5117 176.988C93.5117 177.275 93.4564 177.542 93.3457 177.789C93.235 178.036 93.0853 178.255 92.8965 178.443C92.7142 178.626 92.4993 178.772 92.252 178.883C92.0046 178.987 91.7409 179.039 91.4609 179.039C91.1745 179.039 90.9076 178.987 90.6602 178.883C90.4128 178.772 90.1947 178.626 90.0059 178.443C89.8236 178.255 89.6771 178.036 89.5664 177.789C89.4622 177.542 89.4102 177.275 89.4102 176.988C89.4102 176.708 89.4622 176.441 89.5664 176.188C89.6771 175.934 89.8236 175.715 90.0059 175.533C90.1947 175.344 90.4128 175.195 90.6602 175.084C90.9076 174.973 91.1745 174.918 91.4609 174.918C91.7409 174.918 92.0046 174.973 92.252 175.084C92.4993 175.195 92.7142 175.344 92.8965 175.533C93.0853 175.715 93.235 175.934 93.3457 176.188C93.4564 176.441 93.5117 176.708 93.5117 176.988ZM93.5117 170.738C93.5117 171.025 93.4564 171.292 93.3457 171.539C93.235 171.786 93.0853 172.005 92.8965 172.193C92.7142 172.376 92.4993 172.522 92.252 172.633C92.0046 172.737 91.7409 172.789 91.4609 172.789C91.1745 172.789 90.9076 172.737 90.6602 172.633C90.4128 172.522 90.1947 172.376 90.0059 172.193C89.8236 172.005 89.6771 171.786 89.5664 171.539C89.4622 171.292 89.4102 171.025 89.4102 170.738C89.4102 170.458 89.4622 170.191 89.5664 169.938C89.6771 169.684 89.8236 169.465 90.0059 169.283C90.1947 169.094 90.4128 168.945 90.6602 168.834C90.9076 168.723 91.1745 168.668 91.4609 168.668C91.7409 168.668 92.0046 168.723 92.252 168.834C92.4993 168.945 92.7142 169.094 92.8965 169.283C93.0853 169.465 93.235 169.684 93.3457 169.938C93.4564 170.191 93.5117 170.458 93.5117 170.738ZM111.711 168.258C111.053 170.1 110.458 171.77 109.924 173.268C109.696 173.906 109.471 174.537 109.25 175.162C109.029 175.781 108.824 176.347 108.635 176.861C108.452 177.369 108.299 177.799 108.176 178.15C108.052 178.502 107.974 178.72 107.941 178.805L102.824 178.512L107.336 168.805L102.023 169.098V164.879L111.711 164.703V168.258ZM122.1 165.719C121.051 167.991 120.081 170.302 119.189 172.652C118.304 174.996 117.477 177.366 116.709 179.762L112.803 178.238C113.278 177.06 113.753 175.885 114.229 174.713C114.704 173.535 115.189 172.366 115.684 171.207C116.185 170.042 116.706 168.886 117.246 167.74C117.786 166.594 118.363 165.465 118.975 164.352L122.1 165.719ZM134.07 169.801C134.07 170.322 133.976 170.82 133.787 171.295C133.598 171.764 133.348 172.206 133.035 172.623C132.729 173.033 132.378 173.414 131.98 173.766C131.59 174.111 131.193 174.423 130.789 174.703H133.875L133.641 178.766L124.5 178.453V174.898C124.845 174.781 125.206 174.641 125.584 174.479C125.968 174.309 126.342 174.117 126.707 173.902C127.078 173.688 127.426 173.447 127.752 173.18C128.084 172.913 128.374 172.623 128.621 172.311C128.875 171.992 129.074 171.646 129.217 171.275C129.367 170.904 129.441 170.504 129.441 170.074C129.441 169.827 129.396 169.609 129.305 169.42C129.22 169.231 129.1 169.075 128.943 168.951C128.787 168.821 128.605 168.727 128.396 168.668C128.195 168.603 127.977 168.57 127.742 168.57C127.547 168.57 127.348 168.593 127.146 168.639C126.945 168.678 126.746 168.736 126.551 168.814C126.355 168.893 126.17 168.99 125.994 169.107C125.825 169.218 125.672 169.345 125.535 169.488L124.676 165.66C124.917 165.419 125.193 165.217 125.506 165.055C125.818 164.892 126.147 164.762 126.492 164.664C126.837 164.56 127.189 164.485 127.547 164.439C127.905 164.394 128.257 164.371 128.602 164.371C129.37 164.371 130.086 164.511 130.75 164.791C131.414 165.064 131.99 165.445 132.479 165.934C132.973 166.415 133.361 166.988 133.641 167.652C133.927 168.316 134.07 169.033 134.07 169.801ZM146.266 169.801C146.266 170.322 146.171 170.82 145.982 171.295C145.794 171.764 145.543 172.206 145.23 172.623C144.924 173.033 144.573 173.414 144.176 173.766C143.785 174.111 143.388 174.423 142.984 174.703H146.07L145.836 178.766L136.695 178.453V174.898C137.04 174.781 137.402 174.641 137.779 174.479C138.163 174.309 138.538 174.117 138.902 173.902C139.273 173.688 139.622 173.447 139.947 173.18C140.279 172.913 140.569 172.623 140.816 172.311C141.07 171.992 141.269 171.646 141.412 171.275C141.562 170.904 141.637 170.504 141.637 170.074C141.637 169.827 141.591 169.609 141.5 169.42C141.415 169.231 141.295 169.075 141.139 168.951C140.982 168.821 140.8 168.727 140.592 168.668C140.39 168.603 140.172 168.57 139.938 168.57C139.742 168.57 139.544 168.593 139.342 168.639C139.14 168.678 138.941 168.736 138.746 168.814C138.551 168.893 138.365 168.99 138.189 169.107C138.02 169.218 137.867 169.345 137.73 169.488L136.871 165.66C137.112 165.419 137.389 165.217 137.701 165.055C138.014 164.892 138.342 164.762 138.688 164.664C139.033 164.56 139.384 164.485 139.742 164.439C140.1 164.394 140.452 164.371 140.797 164.371C141.565 164.371 142.281 164.511 142.945 164.791C143.609 165.064 144.186 165.445 144.674 165.934C145.169 166.415 145.556 166.988 145.836 167.652C146.122 168.316 146.266 169.033 146.266 169.801Z" fill="black"/>
<path d="M57.7793 125.996L57.0762 139.238L51.959 139.707L49.2246 132.617L48.7949 139.844H44.4004L44.752 125.996L49.6348 125.762L53.0137 132.793L53.1699 126.152L57.7793 125.996ZM72.7188 139.16L67.875 139.785L67.2891 137.578H65.0625L64.5742 139.785L59.5938 139.297L63.4805 126.289L68.9102 126.016L72.7188 139.16ZM66.9375 134.59L66.1953 131.191L65.4727 134.59H66.9375ZM90.0215 125.762L89.123 140.098L84.6699 140.293L84.709 132.734L82.6973 138.828H80.9785L79.4355 133.379L79.416 139.707L74.9043 139.844L75.0996 126.348L80.1191 126.152L82.1113 132.617L84.7676 125.762H90.0215ZM101.992 125.918C101.953 126.53 101.917 127.135 101.885 127.734C101.852 128.333 101.81 128.939 101.758 129.551L97.6172 129.766L97.5195 130.996H100.43L100.215 134.023L97.2852 134.121L97.1875 135.547H99.6094H101.328C101.289 136.263 101.247 136.976 101.201 137.686C101.162 138.389 101.126 139.095 101.094 139.805L92.6758 140L92.9883 125.918H101.992ZM108.367 137.988C108.367 138.275 108.312 138.542 108.201 138.789C108.09 139.036 107.941 139.255 107.752 139.443C107.57 139.626 107.355 139.772 107.107 139.883C106.86 139.987 106.596 140.039 106.316 140.039C106.03 140.039 105.763 139.987 105.516 139.883C105.268 139.772 105.05 139.626 104.861 139.443C104.679 139.255 104.533 139.036 104.422 138.789C104.318 138.542 104.266 138.275 104.266 137.988C104.266 137.708 104.318 137.441 104.422 137.188C104.533 136.934 104.679 136.715 104.861 136.533C105.05 136.344 105.268 136.195 105.516 136.084C105.763 135.973 106.03 135.918 106.316 135.918C106.596 135.918 106.86 135.973 107.107 136.084C107.355 136.195 107.57 136.344 107.752 136.533C107.941 136.715 108.09 136.934 108.201 137.188C108.312 137.441 108.367 137.708 108.367 137.988ZM108.367 131.738C108.367 132.025 108.312 132.292 108.201 132.539C108.09 132.786 107.941 133.005 107.752 133.193C107.57 133.376 107.355 133.522 107.107 133.633C106.86 133.737 106.596 133.789 106.316 133.789C106.03 133.789 105.763 133.737 105.516 133.633C105.268 133.522 105.05 133.376 104.861 133.193C104.679 133.005 104.533 132.786 104.422 132.539C104.318 132.292 104.266 132.025 104.266 131.738C104.266 131.458 104.318 131.191 104.422 130.938C104.533 130.684 104.679 130.465 104.861 130.283C105.05 130.094 105.268 129.945 105.516 129.834C105.763 129.723 106.03 129.668 106.316 129.668C106.596 129.668 106.86 129.723 107.107 129.834C107.355 129.945 107.57 130.094 107.752 130.283C107.941 130.465 108.09 130.684 108.201 130.938C108.312 131.191 108.367 131.458 108.367 131.738ZM128.646 130.586C128.646 131.094 128.601 131.556 128.51 131.973C128.425 132.383 128.288 132.76 128.1 133.105C127.911 133.451 127.667 133.77 127.367 134.062C127.068 134.355 126.706 134.635 126.283 134.902L128.607 139.043L124.213 139.902L122.709 135.742L121.498 135.781L121.322 139.844H117.123C117.156 138.359 117.185 136.882 117.211 135.41C117.243 133.939 117.279 132.461 117.318 130.977C117.331 130.228 117.344 129.486 117.357 128.75C117.37 128.014 117.396 127.272 117.436 126.523C117.891 126.354 118.34 126.214 118.783 126.104C119.226 125.993 119.669 125.908 120.111 125.85C120.561 125.785 121.013 125.742 121.469 125.723C121.931 125.697 122.403 125.684 122.885 125.684C123.627 125.684 124.343 125.788 125.033 125.996C125.73 126.198 126.345 126.504 126.879 126.914C127.413 127.324 127.839 127.835 128.158 128.447C128.484 129.059 128.646 129.772 128.646 130.586ZM124.271 130.898C124.271 130.625 124.232 130.374 124.154 130.146C124.083 129.919 123.972 129.723 123.822 129.561C123.679 129.391 123.497 129.261 123.275 129.17C123.061 129.072 122.807 129.023 122.514 129.023C122.383 129.023 122.257 129.033 122.133 129.053C122.009 129.066 121.889 129.089 121.771 129.121L121.615 132.754H121.85C122.13 132.754 122.413 132.718 122.699 132.646C122.992 132.575 123.253 132.464 123.48 132.314C123.715 132.165 123.904 131.973 124.047 131.738C124.197 131.504 124.271 131.224 124.271 130.898ZM140.578 125.918C140.539 126.53 140.503 127.135 140.471 127.734C140.438 128.333 140.396 128.939 140.344 129.551L136.203 129.766L136.105 130.996H139.016L138.801 134.023L135.871 134.121L135.773 135.547H138.195H139.914C139.875 136.263 139.833 136.976 139.787 137.686C139.748 138.389 139.712 139.095 139.68 139.805L131.262 140L131.574 125.918H140.578ZM156.201 125.996L155.498 139.238L150.381 139.707L147.646 132.617L147.217 139.844H142.822L143.174 125.996L148.057 125.762L151.436 132.793L151.592 126.152L156.201 125.996Z" fill="black"/>
<path d="M49.375 74.0898C49.375 75.2266 49.2051 76.2344 48.8652 77.1133C48.5254 77.9922 48.0566 78.7598 47.459 79.416C46.873 80.0723 46.1816 80.6289 45.3848 81.0859C44.5879 81.543 43.7324 81.918 42.8184 82.2109C41.916 82.4922 40.9785 82.7031 40.0059 82.8438C39.0332 82.9727 38.0781 83.043 37.1406 83.0547V91.2461H28.9492C28.9492 88.5625 28.9551 85.8906 28.9668 83.2305C28.9785 80.5703 28.9961 77.8867 29.0195 75.1797C29.043 73.75 29.0488 72.3203 29.0371 70.8906C29.0254 69.4609 29.0547 68.0195 29.125 66.5664C30.625 66.1211 32.125 65.7871 33.625 65.5645C35.125 65.3418 36.6719 65.2305 38.2656 65.2305C39.168 65.2305 40.0703 65.3066 40.9727 65.459C41.875 65.5996 42.7363 65.8281 43.5566 66.1445C44.3887 66.4609 45.1562 66.8594 45.8594 67.3398C46.5742 67.8086 47.1895 68.3711 47.7051 69.0273C48.2207 69.6836 48.625 70.4336 48.918 71.2773C49.2227 72.1094 49.375 73.0469 49.375 74.0898ZM41.5703 74.6875C41.5703 73.9258 41.3359 73.334 40.8672 72.9121C40.4102 72.4785 39.8125 72.2617 39.0742 72.2617C38.8281 72.2617 38.5703 72.2852 38.3008 72.332C38.043 72.3672 37.7969 72.4141 37.5625 72.4727L37.3516 77.6055C37.5156 77.6289 37.6738 77.6406 37.8262 77.6406C37.9785 77.6406 38.1367 77.6406 38.3008 77.6406C38.7227 77.6406 39.127 77.5703 39.5137 77.4297C39.9121 77.2891 40.2637 77.0898 40.5684 76.832C40.873 76.5625 41.1133 76.252 41.2891 75.9004C41.4766 75.5371 41.5703 75.1328 41.5703 74.6875ZM74.5434 74.0547C74.5434 74.9688 74.4613 75.8008 74.2973 76.5508C74.1449 77.2891 73.8988 77.9688 73.559 78.5898C73.2191 79.2109 72.7797 79.7852 72.2406 80.3125C71.7016 80.8398 71.0512 81.3438 70.2895 81.8242L74.473 89.2773L66.5629 90.8242L63.8559 83.3359L61.6762 83.4062L61.3598 90.7188H53.8012C53.8598 88.0469 53.9125 85.3867 53.9594 82.7383C54.018 80.0898 54.0824 77.4297 54.1527 74.7578C54.1762 73.4102 54.1996 72.0742 54.223 70.75C54.2465 69.4258 54.2934 68.0898 54.3637 66.7422C55.184 66.4375 55.9926 66.1855 56.7895 65.9863C57.5863 65.7871 58.3832 65.6348 59.1801 65.5293C59.9887 65.4121 60.8031 65.3359 61.6234 65.3008C62.4555 65.2539 63.3051 65.2305 64.1723 65.2305C65.5082 65.2305 66.7973 65.418 68.0395 65.793C69.2934 66.1562 70.4008 66.707 71.3617 67.4453C72.3227 68.1836 73.0902 69.1035 73.6645 70.2051C74.2504 71.3066 74.5434 72.5898 74.5434 74.0547ZM66.6684 74.6172C66.6684 74.125 66.598 73.6738 66.4574 73.2637C66.3285 72.8535 66.1293 72.502 65.8598 72.209C65.602 71.9043 65.2738 71.6699 64.8754 71.5059C64.4887 71.3301 64.0316 71.2422 63.5043 71.2422C63.2699 71.2422 63.0414 71.2598 62.8188 71.2949C62.5961 71.3184 62.3793 71.3594 62.1684 71.418L61.8871 77.957H62.309C62.8129 77.957 63.3227 77.8926 63.8383 77.7637C64.3656 77.6348 64.8344 77.4355 65.2445 77.166C65.6664 76.8965 66.0063 76.5508 66.2641 76.1289C66.5336 75.707 66.6684 75.2031 66.6684 74.6172ZM100.854 78.5898C100.854 79.6562 100.731 80.6875 100.485 81.6836C100.239 82.668 99.8816 83.5938 99.4129 84.4609C98.9559 85.3281 98.3934 86.125 97.7254 86.8516C97.0691 87.5664 96.325 88.1816 95.493 88.6973C94.6727 89.2129 93.7762 89.6172 92.8035 89.9102C91.8309 90.1914 90.7996 90.332 89.7098 90.332C88.6551 90.332 87.6473 90.1973 86.6863 89.9277C85.7371 89.6582 84.8465 89.2832 84.0145 88.8027C83.1824 88.3105 82.4266 87.7246 81.7469 87.0449C81.0789 86.3535 80.5047 85.5918 80.0242 84.7598C79.5555 83.916 79.1863 83.0137 78.9168 82.0527C78.659 81.0918 78.5301 80.0898 78.5301 79.0469C78.5301 78.0273 78.6531 77.0312 78.8992 76.0586C79.1453 75.0742 79.4969 74.1484 79.9539 73.2812C80.4227 72.4141 80.9852 71.6172 81.6414 70.8906C82.2977 70.1641 83.0301 69.5371 83.8387 69.0098C84.659 68.4824 85.5438 68.0723 86.493 67.7793C87.4422 67.4863 88.4441 67.3398 89.4988 67.3398C91.198 67.3398 92.7449 67.6035 94.1395 68.1309C95.5457 68.6582 96.741 69.4141 97.7254 70.3984C98.7215 71.3711 99.4891 72.5547 100.028 73.9492C100.579 75.332 100.854 76.8789 100.854 78.5898ZM93.0496 79.0469C93.0496 78.543 92.9734 78.0566 92.8211 77.5879C92.6805 77.1074 92.4695 76.6855 92.1883 76.3223C91.907 75.9473 91.5555 75.6484 91.1336 75.4258C90.7234 75.1914 90.2488 75.0742 89.7098 75.0742C89.159 75.0742 88.6668 75.1738 88.2332 75.373C87.7996 75.5723 87.4246 75.8477 87.1082 76.1992C86.8035 76.5391 86.5691 76.9434 86.4051 77.4121C86.241 77.8691 86.159 78.3555 86.159 78.8711C86.159 79.3633 86.2293 79.8555 86.3699 80.3477C86.5105 80.8398 86.7215 81.2852 87.0027 81.6836C87.284 82.082 87.6297 82.4043 88.0398 82.6504C88.4617 82.8965 88.948 83.0195 89.4988 83.0195C90.0496 83.0195 90.5418 82.9141 90.9754 82.7031C91.4207 82.4805 91.7957 82.1875 92.1004 81.8242C92.4051 81.4492 92.6395 81.0215 92.8035 80.541C92.9676 80.0605 93.0496 79.5625 93.0496 79.0469ZM122.331 65.6523C122.261 66.7539 122.196 67.8438 122.138 68.9219C122.079 70 122.003 71.0898 121.909 72.1914L114.456 72.5781V74.793H120.925L120.573 80.2422L114.421 80.418L114.456 90.8242L105.562 91L106.124 65.6523H122.331ZM136.32 66.25L134.386 90.1914L126.968 90.5781V66.7422L136.32 66.25ZM156.602 80.9805L155.863 88.7852L141.062 89.9453C141.133 85.8555 141.209 81.7891 141.291 77.7461C141.385 73.7031 141.496 69.6367 141.625 65.5469H150.766C150.496 68.1133 150.238 70.6797 149.992 73.2461C149.746 75.8008 149.57 78.3789 149.465 80.9805C150.016 81.0039 150.561 81.0156 151.1 81.0156C151.639 81.0156 152.184 81.0156 152.734 81.0156C153.391 81.0156 154.035 81.0098 154.668 80.998C155.301 80.9863 155.945 80.9805 156.602 80.9805ZM177.674 65.6523C177.604 66.7539 177.539 67.8438 177.481 68.9219C177.422 70 177.346 71.0898 177.252 72.1914L169.799 72.5781L169.623 74.793H174.862L174.475 80.2422L169.202 80.418L169.026 82.9844H173.385H176.479C176.409 84.2734 176.332 85.5566 176.25 86.834C176.18 88.0996 176.116 89.3711 176.057 90.6484L160.905 91L161.467 65.6523H177.674Z" fill="#282923"/>
</svg>
