<svg width="153" height="131" viewBox="0 0 153 131" fill="none" xmlns="http://www.w3.org/2000/svg">
<g filter="url(#filter0_d_545_1295)">
<g clip-path="url(#clip0_545_1295)">
<path d="M74.362 29.9145L42.8873 34.5844L100.264 60.3841L127.673 53.6505L74.362 29.9145Z" fill="#D99020"/>
<path d="M29.8388 60.4664C29.8388 60.4664 32.198 71.43 32.9774 72.0573C33.7567 72.6847 80.2028 94.7429 80.9354 95.1563C81.6679 95.5698 88.471 98.4521 88.471 98.4521C88.471 98.4521 93.0187 92.5879 93.5009 91.9144C93.9831 91.2409 96.8073 86.3962 96.8073 86.3962L28.9824 56.8091L29.8388 60.4664Z" fill="#755A3C"/>
<path d="M33.9875 42.846C33.9875 42.846 24.2016 44.3732 23.8413 44.9278C23.2235 45.9531 23.0477 47.1844 23.3512 48.3592C23.7637 49.8981 24.0034 50.5711 24.8591 50.7157C25.6051 50.8747 26.3401 51.0849 27.0585 51.3447L36.5604 44.4323L33.9875 42.846Z" fill="#4F2D21" stroke="black" stroke-miterlimit="10"/>
<path d="M97.0796 83.92C97.0796 83.92 101.63 80.8182 102.811 80.5376C103.992 80.257 123.954 76.3481 125.464 75.8535C126.974 75.3588 135.79 72.0849 136.397 72.0014C137.004 71.9179 135.302 74.4973 134.559 75.1036C133.815 75.7099 125.23 81.9605 122.185 84.4666C119.139 86.9726 117.502 88.3485 117.502 88.3485L88.6973 98.4876L93.6204 90.9239L97.0796 83.92Z" fill="#E6C19A"/>
<path d="M100.052 60.3243L98.1276 83.4516L132.304 74.1112C132.304 74.1112 130.917 68.5195 130.533 66.6267C130.149 64.7338 128.647 55.6399 128.276 54.6724C127.905 53.7048 127.275 53.7485 127.275 53.7485L100.052 60.3243Z" fill="#E0B78C"/>
<path d="M42.8827 34.5833C42.8827 34.5833 27.5106 49.4107 26.9742 50.521C26.4378 51.6314 27.0647 52.3819 27.0647 52.3819L26.3321 52.743C26.3321 52.743 24.7623 50.8338 23.5316 51.4435C22.3008 52.0531 21.9896 52.4682 22.1698 53.8579C22.3499 55.2475 22.4963 56.163 22.4963 56.163L24.0797 57.0295L29.0432 59.2687L29.5314 60.1461C29.5314 60.1461 48.0898 69.0446 49.1044 69.381C50.119 69.7174 49.8743 69.6501 50.3864 68.9264C50.8984 68.2028 51.3199 66.6412 54.1994 67.5029C57.0789 68.3646 64.0612 71.3512 64.7806 72.9813C65.4999 74.6114 64.3727 75.4668 64.7042 76.5798C65.0357 77.6928 92.3151 90.9403 92.3151 90.9403C92.3151 90.9403 95.1858 91.036 96.9974 90.3734C98.809 89.7108 99.6008 89.1182 99.2181 88.1947C98.8355 87.2712 96.9359 86.5053 96.498 86.0768C96.0601 85.6484 98.28 84.7435 98.28 84.7435C98.28 84.7435 99.2492 70.0258 99.5957 66.9871C99.9422 63.9484 99.8265 62.0662 100.045 61.2252C100.264 60.3842 42.8827 34.5833 42.8827 34.5833Z" fill="#907451"/>
<path d="M100.051 60.3243L99.6 65.7537L128.889 57.5119C128.889 57.5119 128.342 54.6989 128.01 54.1754C127.677 53.6518 127.274 53.7484 127.274 53.7484L100.051 60.3243Z" fill="#D99020" stroke="black" stroke-miterlimit="10"/>
<path d="M34.6306 42.6287L29.2002 48.0608L98.5112 81.2834L99.2251 71.2868L34.6306 42.6287Z" fill="#A99674" stroke="black" stroke-miterlimit="10"/>
<path d="M39.2705 38.0897L34.6315 42.6287L98.9877 72.1698L99.8144 64.3753L39.9543 37.4256L39.2705 38.0897Z" fill="#B61C27" stroke="black" stroke-miterlimit="10"/>
<path d="M39.4841 37.8831L99.5986 65.7534L100.05 60.324L42.8871 34.5846L39.4841 37.8831Z" fill="#C07C21" stroke="black" stroke-miterlimit="10"/>
<path d="M98.9875 72.1698L130.056 64.0373L128.89 57.512L99.712 65.3346L98.9875 72.1698Z" fill="#CE1C24" stroke="black" stroke-miterlimit="10"/>
<path d="M98.3628 80.6314L98.1274 83.4516L132.3 74.1099L131.586 71.1932L98.3628 80.6314Z" fill="#7B4A30"/>
<path d="M98.987 72.1699L98.5113 81.2836L131.586 71.1933L130.056 64.0374L98.987 72.1699Z" fill="#C2AC80" stroke="black" stroke-miterlimit="10"/>
<path d="M31.8975 69.0642L32.9772 72.0573L88.698 98.4876L90.0505 96.4104L31.8975 69.0642Z" fill="#C37D1E" stroke="black" stroke-miterlimit="10"/>
<path d="M90.0507 96.4104L88.6983 98.4876L117.503 88.3485L119.614 86.5907L90.0507 96.4104Z" fill="#D99020" stroke="black" stroke-miterlimit="10"/>
<path d="M30.7425 64.4692L31.8977 69.0644L90.0507 96.4106L93.6213 90.924L29.8389 60.4666L30.7425 64.4692Z" fill="#603826" stroke="black" stroke-miterlimit="10"/>
<path d="M29.563 59.2903L30.9344 65.2806C30.9344 65.2806 39.1148 72.3464 44.074 71.3706C49.0331 70.3948 51.2533 71.3886 51.2533 71.3886C51.2533 71.3886 52.4524 76.6742 58.3357 79.631C64.2191 82.5878 70.1055 82.8833 72.8391 82.7065C75.5727 82.5297 79.4917 84.8398 79.4917 84.8398C79.4917 84.8398 78.6428 87.1078 82.5857 90.0554C86.5285 93.003 91.9096 93.5435 91.9096 93.5435L96.4918 86.0751L58.7192 70.0724L51.8813 67.3795L29.1582 57.5654L30.9344 65.2806" fill="#BEA22E"/>
<path d="M29.563 59.2903L30.9344 65.2806M30.9344 65.2806C30.9344 65.2806 39.1148 72.3464 44.074 71.3706C49.0331 70.3948 51.2533 71.3886 51.2533 71.3886C51.2533 71.3886 52.4524 76.6742 58.3357 79.631C64.2191 82.5878 70.1055 82.8833 72.8391 82.7065C75.5727 82.5297 79.4917 84.8398 79.4917 84.8398C79.4917 84.8398 78.6428 87.1078 82.5857 90.0554C86.5285 93.003 91.9096 93.5435 91.9096 93.5435L96.4918 86.0751L58.7192 70.0724L51.8813 67.3795L29.1582 57.5654L30.9344 65.2806Z" stroke="black" stroke-miterlimit="10"/>
<path d="M29.2003 48.061C29.2003 48.061 27.4644 49.5322 27.1269 50.2986C26.7894 51.0651 26.6763 51.6719 26.8696 52.0267L27.0643 52.3819L26.3317 52.743C26.3317 52.743 25.2637 51.685 24.6404 51.4414C24.0171 51.1979 23.8121 51.05 23.0796 51.683C22.3471 52.3161 22.0043 52.4124 22.1307 53.4566C22.2571 54.5007 22.4948 56.1611 22.4948 56.1611L24.0782 57.0277L29.0417 59.2669L29.513 60.1158L43.3668 66.7358C43.3668 66.7358 47.7709 68.8395 48.5476 69.1437C49.3244 69.4479 49.8157 69.6843 49.9497 69.5387C50.0837 69.3931 51.0605 67.4978 51.883 67.3722C52.7056 67.2467 54.1714 67.1269 57.882 68.8661C61.5925 70.6053 64.1712 71.7349 64.7124 72.8816C65.2535 74.0284 64.771 75.3326 64.6372 76.0221C64.5033 76.7115 65.0788 77.0475 66.7184 77.9599C68.3581 78.8724 85.8658 87.78 85.8658 87.78L92.3147 90.9404C92.3147 90.9404 94.49 90.9509 95.9844 90.6526C97.4789 90.3543 99.177 89.6708 99.2333 89.0385C99.2896 88.4062 99.5157 87.9435 97.9137 86.9706C96.3116 85.9976 96.0985 86.0008 96.6581 85.6273C97.182 85.3041 97.7239 85.0087 98.2815 84.7425L98.5135 81.2811L29.2003 48.061Z" fill="#683E2B" stroke="black" stroke-miterlimit="10"/>
<path d="M93.6213 90.9239L90.0507 96.4105L119.614 86.5908L127.668 80.2492L104.368 87.0653L99.3291 89.933L93.6213 90.9239Z" fill="#7B4A30" stroke="black" stroke-miterlimit="10"/>
<path d="M91.916 93.5453C91.916 93.5453 97.9129 94.3146 101.111 91.0849C104.309 87.8552 106.423 86.7687 107.678 86.3588C108.934 85.9488 108.952 87.3499 112.212 87.4194C115.472 87.4888 120.199 85.6018 121.921 83.3347C123.643 81.0676 125.041 80.8481 125.041 80.8481L126.487 81.1275L134.556 75.1029C134.556 75.1029 136.153 73.5279 136.561 72.0317L136.394 72.0006L132.134 73.4706L98.3901 83.0656L98.2802 84.7435C98.2802 84.7435 96.3513 85.6229 96.3777 85.9244C96.4041 86.2258 97.8677 86.9132 98.2177 87.1651C98.5677 87.417 99.1652 87.7925 99.2609 88.3695C99.3567 88.9466 99.1868 89.6607 97.8705 90.0914C96.5542 90.522 95.6599 90.7443 94.9012 90.8088C94.1425 90.8733 93.6153 90.9209 93.6153 90.9209L91.916 93.5453Z" fill="#D6B732" stroke="black" stroke-miterlimit="10"/>
<path d="M80.527 38.5206C81.4858 38.7907 82.3662 38.6273 82.4935 38.1557C82.6207 37.6841 81.9467 37.0828 80.9879 36.8128C80.0292 36.5427 79.1488 36.706 79.0215 37.1777C78.8942 37.6493 79.5683 38.2505 80.527 38.5206Z" fill="white" stroke="black" stroke-miterlimit="10"/>
<path d="M88.3906 44.4064C89.4449 44.7034 90.3916 44.6033 90.5051 44.1828C90.6185 43.7623 89.8558 43.1807 88.8015 42.8837C87.7473 42.5867 86.8006 42.6868 86.6871 43.1073C86.5736 43.5278 87.3363 44.1094 88.3906 44.4064Z" fill="white" stroke="black" stroke-miterlimit="10"/>
<path d="M96.3232 50.1378C96.8755 50.2934 97.4415 49.9813 97.5874 49.4407C97.7333 48.9001 97.4039 48.3357 96.8516 48.1801C96.2993 48.0246 95.7333 48.3367 95.5874 48.8773C95.4415 49.4179 95.771 49.9823 96.3232 50.1378Z" fill="white" stroke="black" stroke-miterlimit="10"/>
<path d="M79.5094 45.2005C80.293 45.4213 81.0179 45.2679 81.1286 44.858C81.2392 44.4481 80.6936 43.9368 79.91 43.7161C79.1264 43.4954 78.4015 43.6487 78.2909 44.0586C78.1803 44.4686 78.7258 44.9798 79.5094 45.2005Z" fill="white" stroke="black" stroke-miterlimit="10"/>
<path d="M100.529 46.1646C101.705 46.4958 102.771 46.3458 102.91 45.8296C103.049 45.3133 102.209 44.6263 101.033 44.2951C99.8575 43.9638 98.7914 44.1138 98.652 44.6301C98.5127 45.1463 99.353 45.8333 100.529 46.1646Z" fill="white" stroke="black" stroke-miterlimit="10"/>
<path d="M69.5605 40.7971C69.94 40.9041 70.2842 40.8556 70.3292 40.689C70.3741 40.5223 70.1029 40.3005 69.7234 40.1936C69.3438 40.0867 68.9997 40.1351 68.9547 40.3018C68.9097 40.4684 69.1809 40.6902 69.5605 40.7971Z" fill="white" stroke="black" stroke-miterlimit="10"/>
<path d="M104.704 49.3203C105.084 49.4272 105.428 49.3788 105.473 49.2122C105.518 49.0455 105.246 48.8237 104.867 48.7168C104.487 48.6099 104.143 48.6583 104.098 48.825C104.053 48.9916 104.324 49.2134 104.704 49.3203Z" fill="white" stroke="black" stroke-miterlimit="10"/>
<path d="M79.7343 41.4451C80.1139 41.552 80.458 41.5036 80.503 41.3369C80.548 41.1702 80.2768 40.9485 79.8972 40.8415C79.5176 40.7346 79.1735 40.7831 79.1285 40.9497C79.0835 41.1164 79.3548 41.3382 79.7343 41.4451Z" fill="white" stroke="black" stroke-miterlimit="10"/>
<path d="M92.9248 42.3313C93.3043 42.4382 93.6485 42.3898 93.6934 42.2231C93.7384 42.0565 93.4672 41.8347 93.0876 41.7278C92.7081 41.6209 92.3639 41.6693 92.319 41.8359C92.274 42.0026 92.5452 42.2244 92.9248 42.3313Z" fill="white" stroke="black" stroke-miterlimit="10"/>
<path d="M89.6995 50.6752C90.1865 50.8123 90.7321 50.3642 90.9183 49.6742C91.1045 48.9843 90.8608 48.3137 90.3738 48.1766C89.8869 48.0394 89.3412 48.4875 89.155 49.1775C88.9688 49.8675 89.2126 50.538 89.6995 50.6752Z" fill="white" stroke="black" stroke-miterlimit="10"/>
<path d="M75.501 38.1082C75.8253 38.1996 76.1447 38.0644 76.2144 37.8063C76.2841 37.5482 76.0776 37.2649 75.7533 37.1735C75.4289 37.0821 75.1095 37.2173 75.0399 37.4754C74.9702 37.7336 75.1767 38.0169 75.501 38.1082Z" fill="white" stroke="black" stroke-miterlimit="10"/>
<path d="M101.329 53.1469C101.667 53.242 101.971 53.2063 102.008 53.0671C102.046 52.928 101.803 52.7381 101.465 52.6429C101.127 52.5478 100.823 52.5835 100.786 52.7227C100.748 52.8618 100.991 53.0517 101.329 53.1469Z" fill="white" stroke="black" stroke-miterlimit="10"/>
<path d="M95.0112 52.5801C95.3456 52.6743 95.6681 52.5599 95.7317 52.3245C95.7952 52.0891 95.5756 51.8219 95.2412 51.7277C94.9068 51.6335 94.5842 51.748 94.5207 51.9834C94.4572 52.2188 94.6768 52.4859 95.0112 52.5801Z" fill="white" stroke="black" stroke-miterlimit="10"/>
<path d="M28.9902 35.0883L67.6223 25.4875" stroke="#E8E8E8"/>
<path d="M83.2842 27.6211L122.96 45.7559" stroke="#E8E8E8"/>
<path d="M15.417 48.9561L22.7258 70.2912" stroke="#E8E8E8"/>
<path d="M33.167 82.0256L79.1078 106.561" stroke="#E8E8E8"/>
<path d="M99.9902 107.628L139.666 87.3594" stroke="#E8E8E8"/>
</g>
</g>
<defs>
<filter id="filter0_d_545_1295" x="0.34668" y="0" width="152.653" height="130.466" filterUnits="userSpaceOnUse" color-interpolation-filters="sRGB">
<feFlood flood-opacity="0" result="BackgroundImageFix"/>
<feColorMatrix in="SourceAlpha" type="matrix" values="0 0 0 0 0 0 0 0 0 0 0 0 0 0 0 0 0 0 127 0" result="hardAlpha"/>
<feOffset dy="4"/>
<feGaussianBlur stdDeviation="2"/>
<feComposite in2="hardAlpha" operator="out"/>
<feColorMatrix type="matrix" values="0 0 0 0 0 0 0 0 0 0 0 0 0 0 0 0 0 0 0.25 0"/>
<feBlend mode="normal" in2="BackgroundImageFix" result="effect1_dropShadow_545_1295"/>
<feBlend mode="normal" in="SourceGraphic" in2="effect1_dropShadow_545_1295" result="shape"/>
</filter>
<clipPath id="clip0_545_1295">
<rect width="125.487" height="91.6048" fill="white" transform="matrix(0.962538 0.271148 -0.260547 0.965461 28.2139 0)"/>
</clipPath>
</defs>
</svg>
