<svg width="206" height="280" viewBox="0 0 206 280" fill="none" xmlns="http://www.w3.org/2000/svg">
<rect x="0.5" y="0.5" width="205" height="279" fill="#FCF4E7" stroke="black"/>
<rect y="32.8962" width="205.234" height="2.29508" fill="#2D2E26"/>
<ellipse cx="140.907" cy="19.8907" rx="5.36059" ry="4.59016" fill="#2C3228"/>
<ellipse cx="140.907" cy="19.8907" rx="5.36059" ry="4.59016" fill="#2C3228"/>
<ellipse cx="159.286" cy="19.8909" rx="5.36059" ry="4.59016" fill="#2C3228"/>
<path d="M162.616 18.3607C162.616 20.5496 160.515 22.4508 157.755 22.4508C154.995 22.4508 152.895 20.5496 152.895 18.3607C152.895 16.1717 154.995 14.2705 157.755 14.2705C160.515 14.2705 162.616 16.1717 162.616 18.3607Z" fill="#F5F5EB" stroke="#31322A"/>
<ellipse cx="177.665" cy="19.8909" rx="5.36059" ry="4.59016" fill="#2C3228"/>
<path d="M180.995 18.3607C180.995 20.5496 178.894 22.4508 176.134 22.4508C173.374 22.4508 171.273 20.5496 171.273 18.3607C171.273 16.1717 173.374 14.2705 176.134 14.2705C178.894 14.2705 180.995 16.1717 180.995 18.3607Z" fill="#F5F5EB" stroke="#31322A"/>
<rect x="67.3906" y="214.973" width="78.8773" height="25.2459" rx="10" fill="#2D2E26"/>
<rect x="63.7949" y="210.617" width="76.8773" height="23.2459" rx="9" fill="#FDF4E5" stroke="#252424" stroke-width="2"/>
<path d="M84.0226 217.13C84.768 217.13 85.4215 217.237 85.9831 217.451C86.5549 217.655 86.8408 217.936 86.8408 218.293C86.8408 218.65 86.7029 219.093 86.4272 219.624C86.1618 220.144 85.9371 220.404 85.7533 220.404C85.7023 220.404 85.641 220.379 85.5695 220.328C85.5083 220.266 85.3551 220.205 85.1101 220.144C84.8752 220.073 84.671 220.037 84.4974 220.037C83.9052 220.037 83.4253 220.246 83.0577 220.664C82.7003 221.083 82.5217 221.725 82.5217 222.592C82.5217 223.449 82.7055 224.087 83.073 224.505C83.4508 224.923 83.9256 225.132 84.4974 225.132C84.7323 225.132 84.9926 225.101 85.2785 225.04C85.5746 224.969 85.784 224.872 85.9065 224.75C85.9269 224.729 85.9678 224.719 86.029 224.719C86.0903 224.719 86.2026 224.836 86.366 225.071C86.5396 225.295 86.6978 225.596 86.8408 225.974C86.9837 226.341 87.0552 226.626 87.0552 226.83C87.0552 227.228 86.7489 227.544 86.1362 227.779C85.5236 228.014 84.7986 228.131 83.9614 228.131C82.6136 228.131 81.5057 227.657 80.6378 226.708C79.7699 225.759 79.3359 224.423 79.3359 222.699C79.3359 220.965 79.7801 219.603 80.6684 218.614C81.567 217.625 82.685 217.13 84.0226 217.13Z" fill="#2E2F29"/>
<path d="M97.7848 227.718C97.7848 227.891 97.2691 227.978 96.2378 227.978C95.2066 227.978 94.6909 227.891 94.6909 227.718V224.199H92.5467V227.718C92.5467 227.891 92.0311 227.978 90.9998 227.978C89.9685 227.978 89.4529 227.891 89.4529 227.718V217.574C89.4529 217.359 89.9685 217.252 90.9998 217.252C92.0311 217.252 92.5467 217.359 92.5467 217.574V221.169H94.6909V217.604C94.6909 217.461 94.9462 217.359 95.4567 217.298C95.7222 217.278 95.9826 217.268 96.2378 217.268L97.019 217.298C97.5295 217.359 97.7848 217.461 97.7848 217.604V227.718Z" fill="#2E2F29"/>
<path d="M105.513 221.521C105.707 221.521 105.804 221.878 105.804 222.592C105.804 222.806 105.778 223.061 105.727 223.357C105.686 223.643 105.604 223.786 105.482 223.786H103.537V225.316H106.355C106.528 225.316 106.646 225.54 106.707 225.989C106.738 226.183 106.753 226.392 106.753 226.616C106.753 226.83 106.722 227.111 106.661 227.458C106.6 227.805 106.498 227.978 106.355 227.978H101.117C100.729 227.978 100.535 227.82 100.535 227.504V217.665C100.535 217.4 100.652 217.268 100.887 217.268H106.37C106.585 217.268 106.692 217.722 106.692 218.629C106.692 219.527 106.585 219.976 106.37 219.976H103.537V221.521H105.513Z" fill="#2E2F29"/>
<path d="M113.694 217.13C114.439 217.13 115.093 217.237 115.654 217.451C116.226 217.655 116.512 217.936 116.512 218.293C116.512 218.65 116.374 219.093 116.098 219.624C115.833 220.144 115.608 220.404 115.424 220.404C115.373 220.404 115.312 220.379 115.241 220.328C115.179 220.266 115.026 220.205 114.781 220.144C114.546 220.073 114.342 220.037 114.169 220.037C113.576 220.037 113.096 220.246 112.729 220.664C112.371 221.083 112.193 221.725 112.193 222.592C112.193 223.449 112.377 224.087 112.744 224.505C113.122 224.923 113.597 225.132 114.169 225.132C114.403 225.132 114.664 225.101 114.95 225.04C115.246 224.969 115.455 224.872 115.578 224.75C115.598 224.729 115.639 224.719 115.7 224.719C115.761 224.719 115.874 224.836 116.037 225.071C116.211 225.295 116.369 225.596 116.512 225.974C116.655 226.341 116.726 226.626 116.726 226.83C116.726 227.228 116.42 227.544 115.807 227.779C115.195 228.014 114.47 228.131 113.632 228.131C112.285 228.131 111.177 227.657 110.309 226.708C109.441 225.759 109.007 224.423 109.007 222.699C109.007 220.965 109.451 219.603 110.34 218.614C111.238 217.625 112.356 217.13 113.694 217.13Z" fill="#2E2F29"/>
<path d="M122.187 227.764C122.187 227.917 121.707 227.993 120.747 227.993L119.89 227.947C119.379 227.907 119.124 227.835 119.124 227.733V217.466C119.124 217.293 119.635 217.206 120.656 217.206C121.677 217.206 122.187 217.293 122.187 217.466V221.383L124.056 217.466C124.127 217.324 124.536 217.252 125.281 217.252C126.639 217.252 127.354 217.37 127.425 217.604C127.425 217.625 127.42 217.645 127.41 217.665L124.745 222.47L127.839 226.739C127.839 226.759 127.742 226.846 127.548 226.999C127.078 227.407 126.527 227.728 125.894 227.963C125.7 228.034 125.506 228.07 125.312 228.07L124.944 228.039C124.617 227.958 124.362 227.748 124.178 227.412L122.432 224.076H122.187V227.764Z" fill="#2E2F29"/>
<path d="M34.4455 69.0012C34.7865 69.0012 34.9571 69.8952 34.9571 71.6832C34.9571 73.451 34.7865 74.335 34.4455 74.335H28.9379V77.7703H32.6096C32.9507 77.7703 33.1212 78.5538 33.1212 80.1208C33.1212 81.6677 32.9607 82.4412 32.6397 82.4412H28.9379V89.7036C28.9379 89.9848 28.5567 90.1656 27.7942 90.246C27.0519 90.3464 26.4299 90.3966 25.9283 90.3966L24.5138 90.3364C23.5306 90.2158 23.0391 90.0149 23.0391 89.7337V69.7847C23.0391 69.4633 23.0993 69.2523 23.2196 69.1519C23.3601 69.0514 23.5607 69.0012 23.8216 69.0012H34.4455Z" fill="black"/>
<path d="M52.5861 90.1556C50.8405 90.1556 49.8975 89.8743 49.757 89.3118L48.7639 85.4245H43.9786L43.1058 89.1611C42.9854 89.7839 42.0224 90.0953 40.2166 90.0953C39.2535 90.0953 38.5413 90.0451 38.0798 89.9446C37.6183 89.8241 37.3876 89.7337 37.3876 89.6734L42.7146 69.2724C42.7146 69.1117 44.089 69.0313 46.8377 69.0313C49.5865 69.0313 50.9609 69.1117 50.9609 69.2724L56.1675 89.7036C56.1675 89.8442 55.706 89.9547 54.7831 90.035C53.8601 90.1154 53.1278 90.1556 52.5861 90.1556ZM44.731 81.5974H47.8911L46.5368 75.3596H46.3562L44.731 81.5974Z" fill="black"/>
<path d="M58.191 69.3929C58.191 69.2925 58.6224 69.2021 59.4851 69.1217C60.3679 69.0213 61.0902 68.9711 61.652 68.9711C63.8791 68.9711 65.0428 69.2624 65.1432 69.845L67.7314 83.1041L70.1692 69.845C70.2896 69.2624 71.5336 68.9711 73.9011 68.9711C74.483 68.9711 75.2153 69.0112 76.0981 69.0916C76.9809 69.172 77.4223 69.2624 77.4223 69.3628L72.0953 89.3118C72.0151 89.6332 71.4232 89.8442 70.3197 89.9446C68.6142 90.1254 67.0593 90.1656 65.6548 90.0652C64.2704 89.9446 63.538 89.7437 63.4578 89.4625L58.191 69.3929Z" fill="black"/>
<path d="M90.6084 90.3966C87.7994 90.3966 85.5021 89.4725 83.7164 87.6243C81.9508 85.776 81.068 83.084 81.068 79.5482C81.068 75.9924 81.9608 73.3004 83.7465 71.4722C85.5523 69.6441 87.8697 68.73 90.6987 68.73C93.5478 68.73 95.8451 69.634 97.5907 71.4421C99.3362 73.2301 100.209 75.9522 100.209 79.6085C100.209 83.2447 99.3162 85.9568 97.5305 87.7448C95.7448 89.5127 93.4374 90.3966 90.6084 90.3966ZM90.6385 74.5158C89.6754 74.5158 88.8628 74.9578 88.2007 75.8417C87.5587 76.7257 87.2376 77.9712 87.2376 79.5784C87.2376 81.1655 87.5486 82.3909 88.1706 83.2548C88.7926 84.0985 89.6052 84.5204 90.6084 84.5204C91.6317 84.5204 92.4543 84.0885 93.0763 83.2246C93.7183 82.3608 94.0393 81.1253 94.0393 79.5181C94.0393 77.9109 93.7083 76.6754 93.0462 75.8116C92.4041 74.9477 91.6016 74.5158 90.6385 74.5158Z" fill="black"/>
<path d="M114.874 69.6039C114.874 69.2021 115.958 69.0012 118.125 69.0012C120.312 69.0012 121.405 69.2021 121.405 69.6039V83.4356C121.405 85.4847 120.673 87.1622 119.208 88.468C117.744 89.7538 115.717 90.3966 113.129 90.3966C110.561 90.3966 108.464 89.7337 106.839 88.4078C105.234 87.0618 104.431 85.2537 104.431 82.9836V69.634C104.431 69.2322 105.515 69.0313 107.682 69.0313C109.869 69.0313 110.962 69.2322 110.962 69.634V83.2246C110.962 83.6264 111.173 83.9479 111.594 84.189C112.035 84.43 112.497 84.5506 112.978 84.5506C113.46 84.5506 113.891 84.4401 114.273 84.2191C114.674 83.9981 114.874 83.6666 114.874 83.2246V69.6039Z" fill="black"/>
<path d="M132.087 89.6734C132.087 89.9949 131.134 90.1556 129.228 90.1556C127.302 90.1556 126.339 90.0049 126.339 89.7036V70.0559C126.339 69.3528 126.71 69.0012 127.453 69.0012H133.201C138.478 69.0012 141.116 71.0604 141.116 75.1788C141.116 76.4243 140.875 77.5594 140.394 78.5839C139.912 79.5884 139.23 80.392 138.347 80.9947L142.139 87.3229C141.979 87.8051 141.457 88.3575 140.574 88.9803C139.371 89.8442 138.377 90.2761 137.595 90.2761C136.812 90.2761 136.231 89.9949 135.849 89.4323L133.02 82.8329H132.087V89.6734ZM132.087 74.335V78.8552H132.238C134.144 78.8552 135.097 78.0616 135.097 76.4745C135.097 75.7513 134.906 75.2189 134.525 74.8774C134.164 74.5158 133.562 74.335 132.719 74.335H132.087Z" fill="black"/>
<path d="M148.485 84.9122V74.1843H146.348C146.007 74.1843 145.766 73.7524 145.626 72.8885C145.566 72.4667 145.536 72.0347 145.536 71.5928C145.536 71.1508 145.566 70.7189 145.626 70.297C145.766 69.4331 146.007 69.0012 146.348 69.0012H156.46C156.801 69.0012 157.032 69.4331 157.153 70.297C157.233 70.7189 157.273 71.1508 157.273 71.5928C157.273 72.0347 157.233 72.4667 157.153 72.8885C157.032 73.7524 156.801 74.1843 156.46 74.1843H154.444V84.9122H156.551C156.892 84.9122 157.133 85.3441 157.273 86.208C157.353 86.6298 157.393 87.0618 157.393 87.5037C157.393 87.9457 157.353 88.3776 157.273 88.7995C157.133 89.6634 156.892 90.0953 156.551 90.0953H146.408C146.067 90.0953 145.836 89.6634 145.716 88.7995C145.636 88.3776 145.596 87.9457 145.596 87.5037C145.596 87.0618 145.636 86.6298 145.716 86.208C145.836 85.3441 146.067 84.9122 146.408 84.9122H148.485Z" fill="black"/>
<path d="M170.868 89.6132C170.868 90.0149 169.875 90.2158 167.888 90.2158C165.902 90.2158 164.909 90.0149 164.909 89.6132V74.4857H161.297C160.956 74.4857 160.715 74.0236 160.575 73.0995C160.515 72.6575 160.485 72.2055 160.485 71.7434C160.485 71.2814 160.515 70.8293 160.575 70.3874C160.715 69.4633 160.956 69.0012 161.297 69.0012H174.389C174.73 69.0012 174.971 69.4633 175.111 70.3874C175.171 70.8293 175.202 71.2814 175.202 71.7434C175.202 72.2055 175.171 72.6575 175.111 73.0995C174.971 74.0236 174.73 74.4857 174.389 74.4857H170.868V89.6132Z" fill="black"/>
<path d="M189.104 77.3786C189.486 77.3786 189.676 78.0817 189.676 79.488C189.676 79.9099 189.626 80.4121 189.526 80.9947C189.446 81.5572 189.285 81.8385 189.044 81.8385H185.222V84.8519H190.76C191.101 84.8519 191.332 85.2939 191.452 86.1778C191.512 86.5595 191.542 86.9714 191.542 87.4133C191.542 87.8352 191.482 88.3877 191.362 89.0707C191.241 89.7538 191.041 90.0953 190.76 90.0953H180.467C179.704 90.0953 179.323 89.7839 179.323 89.1611V69.7847C179.323 69.2624 179.554 69.0012 180.015 69.0012H190.79C191.211 69.0012 191.422 69.8952 191.422 71.6832C191.422 73.451 191.211 74.335 190.79 74.335H185.222V77.3786H189.104Z" fill="black"/>
<path d="M165.457 164.583L150.662 144.601L150.623 144.548L150.579 144.5C149.386 143.103 147.573 142.298 145.613 142.298C144.401 142.298 143.238 142.61 142.241 143.186C142.221 142.25 141.952 141.283 141.615 140.237C141.209 138.972 140.437 137.807 139.44 136.959C138.374 136.049 137.245 135.667 136.336 135.9C135.613 136.089 135.046 136.81 134.674 137.671C132.92 136.783 131.092 136.761 129.987 137.706C128.877 138.66 128.799 140.268 129.699 141.885C128.79 142.167 127.978 142.619 127.734 143.265C127.113 144.896 129.327 147.304 132.294 148.222C133.364 148.552 134.415 148.842 135.452 148.925C134.498 149.967 133.985 151.294 134.029 152.661C134.078 154.256 134.885 155.759 136.234 156.792L136.287 156.831L136.341 156.866L157.813 171.131C158.761 171.834 159.959 172.221 161.19 172.221C162.559 172.221 163.864 171.755 164.856 170.902C166.816 169.224 167.065 166.521 165.457 164.583ZM129.664 143.92C129.879 143.779 130.49 143.503 131.453 143.388L133.218 143.182L132.128 141.916C131.087 140.708 130.906 139.446 131.395 139.033C131.888 138.611 133.296 138.844 134.601 139.864L135.979 140.941L136.278 139.323C136.444 138.431 136.791 137.869 136.967 137.675C137.504 137.763 139.029 138.8 139.655 140.752C140.427 143.155 140.466 144.232 139.122 145.502C138.99 145.629 138.902 145.779 138.868 145.937L138.536 146.218C138.36 146.245 138.194 146.315 138.052 146.425C136.893 147.317 135.701 147.33 132.954 146.482C130.803 145.814 129.723 144.377 129.664 143.92ZM163.453 169.566C162.823 170.107 162.011 170.379 161.195 170.379C160.443 170.379 159.69 170.147 159.079 169.681L150.696 164.113C151.557 163.3 153.331 161.683 154.577 160.971C155.051 160.698 155.193 160.131 154.89 159.705C154.587 159.279 153.956 159.151 153.482 159.424C151.948 160.303 149.875 162.223 149.044 163.014L141.688 158.128C142.534 157.328 144.342 155.675 145.608 154.95C146.082 154.678 146.224 154.111 145.921 153.685C145.618 153.258 144.987 153.131 144.513 153.403C142.954 154.295 140.843 156.26 140.036 157.029L137.553 155.381C135.642 153.922 135.559 151.298 137.372 149.743L142.71 145.177C143.531 144.474 144.577 144.131 145.613 144.131C146.874 144.131 148.125 144.636 148.961 145.612L153.702 152.019C151.865 153.272 149.665 155.442 149.558 155.544C149.176 155.917 149.21 156.497 149.626 156.84C149.821 156.998 150.066 157.077 150.31 157.077C150.589 157.077 150.867 156.976 151.068 156.778C151.092 156.756 153.179 154.695 154.831 153.548L163.786 165.642C164.812 166.837 164.666 168.529 163.453 169.566Z" fill="black"/>
<path d="M63.1062 140.192C63.1062 139.439 62.4925 138.827 61.7377 138.827C60.9829 138.827 60.3691 139.439 60.3691 140.192V145.654H63.1062V140.192Z" fill="black"/>
<path d="M79.5281 134.731C79.5281 133.978 78.9143 133.365 78.1596 133.365C77.4048 133.365 76.791 133.978 76.791 134.731V138.827V145.654H79.5281V134.731Z" fill="black"/>
<path d="M75.4227 138.827C75.4227 138.074 74.8089 137.462 74.0541 137.462C73.2993 137.462 72.6855 138.074 72.6855 138.827V145.654H75.4227V138.827Z" fill="black"/>
<path d="M71.3172 138.827V136.096C71.3172 135.343 70.7034 134.731 69.9486 134.731C69.1939 134.731 68.5801 135.343 68.5801 136.096V145.654H71.3172V138.827Z" fill="black"/>
<path d="M67.2117 136.096V133.365C67.2117 132.612 66.5979 132 65.8432 132C65.0884 132 64.4746 132.612 64.4746 133.365V140.192V145.654H67.2117V136.096Z" fill="black"/>
<path d="M77.1914 149.75L79.9285 147.019H59.9668L62.7039 149.75H77.1914Z" fill="black"/>
<path d="M78.159 156.577H61.7363V166.135H78.159V156.577ZM68.5791 164.769H63.1049V163.404H68.5791V164.769ZM76.7904 164.769H69.9477V163.404H76.7904V164.769ZM76.7904 162.038H63.1049V160.673H76.7904V162.038ZM76.7904 159.308H63.1049V157.942H76.7904V159.308Z" fill="black"/>
<path d="M77.7588 151.115H62.1381L59 147.985V170.913C59 171.29 59.3066 171.596 59.6843 171.596H80.2126C80.5903 171.596 80.8969 171.29 80.8969 170.913V147.985L77.7588 151.115ZM79.5283 167.5H60.3686V155.212H79.5283V167.5Z" fill="black"/>
</svg>
