<svg width="206" height="280" viewBox="0 0 206 280" fill="none" xmlns="http://www.w3.org/2000/svg">
<rect x="0.5" y="0.5" width="205" height="279" fill="#FCF4E7" stroke="black"/>
<rect y="32.8962" width="205.234" height="2.29508" fill="#2D2E26"/>
<ellipse cx="140.907" cy="19.8907" rx="5.36059" ry="4.59016" fill="#2C3228"/>
<ellipse cx="140.907" cy="19.8907" rx="5.36059" ry="4.59016" fill="#2C3228"/>
<ellipse cx="159.286" cy="19.8909" rx="5.36059" ry="4.59016" fill="#2C3228"/>
<path d="M162.616 18.3607C162.616 20.5496 160.515 22.4508 157.755 22.4508C154.995 22.4508 152.895 20.5496 152.895 18.3607C152.895 16.1717 154.995 14.2705 157.755 14.2705C160.515 14.2705 162.616 16.1717 162.616 18.3607Z" fill="#F5F5EB" stroke="#31322A"/>
<ellipse cx="177.665" cy="19.8909" rx="5.36059" ry="4.59016" fill="#2C3228"/>
<path d="M180.995 18.3607C180.995 20.5496 178.894 22.4508 176.134 22.4508C173.374 22.4508 171.273 20.5496 171.273 18.3607C171.273 16.1717 173.374 14.2705 176.134 14.2705C178.894 14.2705 180.995 16.1717 180.995 18.3607Z" fill="#F5F5EB" stroke="#31322A"/>
<path d="M128.91 138.415C128.91 152.411 115.848 163.872 99.5831 163.872C83.3186 163.872 70.2559 152.411 70.2559 138.415C70.2559 124.419 83.3186 112.959 99.5831 112.959C115.848 112.959 128.91 124.419 128.91 138.415Z" fill="#FEFEFE" stroke="black"/>
<path d="M103.622 164.696C103.622 175.649 93.4589 184.637 80.7786 184.637C68.0983 184.637 57.9355 175.649 57.9355 164.696C57.9355 153.744 68.0983 144.756 80.7786 144.756C93.4589 144.756 103.622 153.744 103.622 164.696Z" fill="#FDFDAE" stroke="black"/>
<path d="M145.768 164.372C145.768 175.138 135.613 183.988 122.925 183.988C110.237 183.988 100.082 175.138 100.082 164.372C100.082 153.605 110.237 144.756 122.925 144.756C135.613 144.756 145.768 153.605 145.768 164.372Z" fill="#414040" stroke="black"/>
<path d="M56.002 64.2375C57.7909 64.2375 59.3592 64.4946 60.707 65.0087C62.0794 65.4983 62.7655 66.1715 62.7655 67.0284C62.7655 67.8852 62.4347 68.9501 61.773 70.2231C61.1359 71.4716 60.5968 72.0959 60.1557 72.0959C60.0331 72.0959 59.8861 72.0347 59.7146 71.9123C59.5675 71.7654 59.1999 71.6185 58.6118 71.4716C58.0482 71.3003 57.5581 71.2146 57.1415 71.2146C55.7202 71.2146 54.5684 71.7165 53.6862 72.7202C52.8285 73.7239 52.3996 75.2662 52.3996 77.3471C52.3996 79.4035 52.8407 80.9335 53.7229 81.9372C54.6297 82.9409 55.7692 83.4428 57.1415 83.4428C57.7051 83.4428 58.33 83.3694 59.0162 83.2225C59.7268 83.0511 60.2292 82.8185 60.5232 82.5248C60.5723 82.4758 60.6703 82.4513 60.8173 82.4513C60.9643 82.4513 61.2339 82.7329 61.626 83.2959C62.0426 83.8345 62.4224 84.5567 62.7655 85.4625C63.1086 86.3438 63.2801 87.0292 63.2801 87.5189C63.2801 88.4736 62.545 89.2325 61.0746 89.7956C59.6043 90.3586 57.8644 90.6402 55.8549 90.6402C52.6202 90.6402 49.9613 89.5018 47.8784 87.2251C45.7954 84.9484 44.7539 81.7414 44.7539 77.6041C44.7539 73.4424 45.8199 70.1742 47.9519 67.7995C50.1084 65.4249 52.7917 64.2375 56.002 64.2375Z" fill="#282923"/>
<path d="M79.9518 90.6402C76.521 90.6402 73.7151 89.5141 71.5341 87.2618C69.3776 85.0096 68.2994 81.7291 68.2994 77.4205C68.2994 73.0874 69.3899 69.8069 71.5709 67.5792C73.7764 65.3514 76.6068 64.2375 80.062 64.2375C83.5418 64.2375 86.3477 65.3392 88.4797 67.5425C90.6117 69.7213 91.6777 73.0384 91.6777 77.4939C91.6777 81.925 90.5872 85.2299 88.4062 87.4087C86.2252 89.563 83.4071 90.6402 79.9518 90.6402ZM79.9885 71.288C78.8123 71.288 77.8198 71.8266 77.0111 72.9038C76.2269 73.9809 75.8348 75.4988 75.8348 77.4572C75.8348 79.3912 76.2147 80.8845 76.9743 81.9372C77.734 82.9654 78.7265 83.4795 79.9518 83.4795C81.2016 83.4795 82.2063 82.9532 82.966 81.9005C83.7501 80.8478 84.1422 79.3422 84.1422 77.3838C84.1422 75.4253 83.7379 73.9197 82.9292 72.8671C82.145 71.8144 81.1648 71.288 79.9885 71.288Z" fill="#282923"/>
<path d="M97.2021 88.1064V65.2657C97.2021 64.7516 98.4396 64.4946 100.915 64.4946C103.414 64.4946 104.664 64.7516 104.664 65.2657V83.2592H110.325C110.766 83.2592 111.072 83.8345 111.244 84.9851C111.317 85.5482 111.354 86.1235 111.354 86.711C111.354 87.2985 111.317 87.8983 111.244 88.5103C111.048 89.6854 110.729 90.273 110.288 90.273H98.9665C98.4273 90.273 97.9985 90.0526 97.6799 89.612C97.3613 89.1713 97.2021 88.6695 97.2021 88.1064Z" fill="#282923"/>
<path d="M127.402 90.6402C123.971 90.6402 121.165 89.5141 118.984 87.2618C116.827 85.0096 115.749 81.7291 115.749 77.4205C115.749 73.0874 116.84 69.8069 119.021 67.5792C121.226 65.3514 124.057 64.2375 127.512 64.2375C130.992 64.2375 133.798 65.3392 135.93 67.5425C138.062 69.7213 139.128 73.0384 139.128 77.4939C139.128 81.925 138.037 85.2299 135.856 87.4087C133.675 89.563 130.857 90.6402 127.402 90.6402ZM127.438 71.288C126.262 71.288 125.27 71.8266 124.461 72.9038C123.677 73.9809 123.285 75.4988 123.285 77.4572C123.285 79.3912 123.665 80.8845 124.424 81.9372C125.184 82.9654 126.176 83.4795 127.402 83.4795C128.651 83.4795 129.656 82.9532 130.416 81.9005C131.2 80.8478 131.592 79.3422 131.592 77.3838C131.592 75.4253 131.188 73.9197 130.379 72.8671C129.595 71.8144 128.615 71.288 127.438 71.288Z" fill="#282923"/>
<path d="M152.04 89.7589C152.04 90.1506 150.876 90.3464 148.548 90.3464C146.196 90.3464 145.02 90.1628 145.02 89.7956V65.8533C145.02 64.9965 145.473 64.568 146.38 64.568H153.4C159.845 64.568 163.068 67.0773 163.068 72.0959C163.068 73.6137 162.774 74.9969 162.186 76.2454C161.598 77.4695 160.764 78.4487 159.686 79.1831L164.318 86.8946C164.122 87.4821 163.484 88.1554 162.406 88.9143C160.936 89.9669 159.723 90.4933 158.767 90.4933C157.811 90.4933 157.101 90.1506 156.635 89.4651L153.18 81.4231H152.04V89.7589ZM152.04 71.0677V76.5759H152.224C154.552 76.5759 155.716 75.6089 155.716 73.6749C155.716 72.7936 155.483 72.1449 155.018 71.7287C154.577 71.288 153.842 71.0677 152.812 71.0677H152.04Z" fill="#282923"/>
<rect x="67.3906" y="214.973" width="78.8773" height="25.2459" rx="10" fill="#2D2E26"/>
<rect x="63.7949" y="210.617" width="76.8773" height="23.2459" rx="9" fill="#FDF4E5" stroke="#252424" stroke-width="2"/>
<path d="M84.0226 217.13C84.768 217.13 85.4215 217.237 85.9831 217.451C86.5549 217.655 86.8408 217.936 86.8408 218.293C86.8408 218.65 86.7029 219.093 86.4272 219.624C86.1618 220.144 85.9371 220.404 85.7533 220.404C85.7023 220.404 85.641 220.379 85.5695 220.328C85.5083 220.266 85.3551 220.205 85.1101 220.144C84.8752 220.073 84.671 220.037 84.4974 220.037C83.9052 220.037 83.4253 220.246 83.0577 220.664C82.7003 221.083 82.5217 221.725 82.5217 222.592C82.5217 223.449 82.7055 224.087 83.073 224.505C83.4508 224.923 83.9256 225.132 84.4974 225.132C84.7323 225.132 84.9926 225.101 85.2785 225.04C85.5746 224.969 85.784 224.872 85.9065 224.75C85.9269 224.729 85.9678 224.719 86.029 224.719C86.0903 224.719 86.2026 224.836 86.366 225.071C86.5396 225.295 86.6978 225.596 86.8408 225.974C86.9837 226.341 87.0552 226.626 87.0552 226.83C87.0552 227.228 86.7489 227.544 86.1362 227.779C85.5236 228.014 84.7986 228.131 83.9614 228.131C82.6136 228.131 81.5057 227.657 80.6378 226.708C79.7699 225.759 79.3359 224.423 79.3359 222.699C79.3359 220.965 79.7801 219.603 80.6684 218.614C81.567 217.625 82.685 217.13 84.0226 217.13Z" fill="#2E2F29"/>
<path d="M97.7848 227.718C97.7848 227.891 97.2691 227.978 96.2378 227.978C95.2066 227.978 94.6909 227.891 94.6909 227.718V224.199H92.5467V227.718C92.5467 227.891 92.0311 227.978 90.9998 227.978C89.9685 227.978 89.4529 227.891 89.4529 227.718V217.574C89.4529 217.359 89.9685 217.252 90.9998 217.252C92.0311 217.252 92.5467 217.359 92.5467 217.574V221.169H94.6909V217.604C94.6909 217.461 94.9462 217.359 95.4567 217.298C95.7222 217.278 95.9826 217.268 96.2378 217.268L97.019 217.298C97.5295 217.359 97.7848 217.461 97.7848 217.604V227.718Z" fill="#2E2F29"/>
<path d="M105.513 221.521C105.707 221.521 105.804 221.878 105.804 222.592C105.804 222.806 105.778 223.061 105.727 223.357C105.686 223.643 105.604 223.786 105.482 223.786H103.537V225.316H106.355C106.528 225.316 106.646 225.54 106.707 225.989C106.738 226.183 106.753 226.392 106.753 226.616C106.753 226.83 106.722 227.111 106.661 227.458C106.6 227.805 106.498 227.978 106.355 227.978H101.117C100.729 227.978 100.535 227.82 100.535 227.504V217.665C100.535 217.4 100.652 217.268 100.887 217.268H106.37C106.585 217.268 106.692 217.722 106.692 218.629C106.692 219.527 106.585 219.976 106.37 219.976H103.537V221.521H105.513Z" fill="#2E2F29"/>
<path d="M113.694 217.13C114.439 217.13 115.093 217.237 115.654 217.451C116.226 217.655 116.512 217.936 116.512 218.293C116.512 218.65 116.374 219.093 116.098 219.624C115.833 220.144 115.608 220.404 115.424 220.404C115.373 220.404 115.312 220.379 115.241 220.328C115.179 220.266 115.026 220.205 114.781 220.144C114.546 220.073 114.342 220.037 114.169 220.037C113.576 220.037 113.096 220.246 112.729 220.664C112.371 221.083 112.193 221.725 112.193 222.592C112.193 223.449 112.377 224.087 112.744 224.505C113.122 224.923 113.597 225.132 114.169 225.132C114.403 225.132 114.664 225.101 114.95 225.04C115.246 224.969 115.455 224.872 115.578 224.75C115.598 224.729 115.639 224.719 115.7 224.719C115.761 224.719 115.874 224.836 116.037 225.071C116.211 225.295 116.369 225.596 116.512 225.974C116.655 226.341 116.726 226.626 116.726 226.83C116.726 227.228 116.42 227.544 115.807 227.779C115.195 228.014 114.47 228.131 113.632 228.131C112.285 228.131 111.177 227.657 110.309 226.708C109.441 225.759 109.007 224.423 109.007 222.699C109.007 220.965 109.451 219.603 110.34 218.614C111.238 217.625 112.356 217.13 113.694 217.13Z" fill="#2E2F29"/>
<path d="M122.187 227.764C122.187 227.917 121.707 227.993 120.747 227.993L119.89 227.947C119.379 227.907 119.124 227.835 119.124 227.733V217.466C119.124 217.293 119.635 217.206 120.656 217.206C121.677 217.206 122.187 217.293 122.187 217.466V221.383L124.056 217.466C124.127 217.324 124.536 217.252 125.281 217.252C126.639 217.252 127.354 217.37 127.425 217.604C127.425 217.625 127.42 217.645 127.41 217.665L124.745 222.47L127.839 226.739C127.839 226.759 127.742 226.846 127.548 226.999C127.078 227.407 126.527 227.728 125.894 227.963C125.7 228.034 125.506 228.07 125.312 228.07L124.944 228.039C124.617 227.958 124.362 227.748 124.178 227.412L122.432 224.076H122.187V227.764Z" fill="#2E2F29"/>
</svg>
