<svg width="206" height="280" viewBox="0 0 206 280" fill="none" xmlns="http://www.w3.org/2000/svg">
<rect x="0.5" y="0.5" width="205" height="279" fill="#FCF4E7" stroke="black"/>
<rect y="32.8962" width="205.234" height="2.29508" fill="#2D2E26"/>
<ellipse cx="140.907" cy="19.8907" rx="5.36059" ry="4.59016" fill="#2C3228"/>
<ellipse cx="140.907" cy="19.8907" rx="5.36059" ry="4.59016" fill="#2C3228"/>
<ellipse cx="159.286" cy="19.8909" rx="5.36059" ry="4.59016" fill="#2C3228"/>
<path d="M162.616 18.3607C162.616 20.5496 160.515 22.4508 157.755 22.4508C154.995 22.4508 152.895 20.5496 152.895 18.3607C152.895 16.1717 154.995 14.2705 157.755 14.2705C160.515 14.2705 162.616 16.1717 162.616 18.3607Z" fill="#F5F5EB" stroke="#31322A"/>
<ellipse cx="177.665" cy="19.8909" rx="5.36059" ry="4.59016" fill="#2C3228"/>
<path d="M180.995 18.3607C180.995 20.5496 178.894 22.4508 176.134 22.4508C173.374 22.4508 171.273 20.5496 171.273 18.3607C171.273 16.1717 173.374 14.2705 176.134 14.2705C178.894 14.2705 180.995 16.1717 180.995 18.3607Z" fill="#F5F5EB" stroke="#31322A"/>
<rect x="67.3906" y="214.973" width="78.8773" height="25.2459" rx="10" fill="#2D2E26"/>
<rect x="63.7949" y="210.617" width="76.8773" height="23.2459" rx="9" fill="#FDF4E5" stroke="#252424" stroke-width="2"/>
<path d="M84.0226 217.13C84.768 217.13 85.4215 217.237 85.9831 217.451C86.5549 217.655 86.8408 217.936 86.8408 218.293C86.8408 218.65 86.7029 219.093 86.4272 219.624C86.1618 220.144 85.9371 220.404 85.7533 220.404C85.7023 220.404 85.641 220.379 85.5695 220.328C85.5083 220.266 85.3551 220.205 85.1101 220.144C84.8752 220.073 84.671 220.037 84.4974 220.037C83.9052 220.037 83.4253 220.246 83.0577 220.664C82.7003 221.083 82.5217 221.725 82.5217 222.592C82.5217 223.449 82.7055 224.087 83.073 224.505C83.4508 224.923 83.9256 225.132 84.4974 225.132C84.7323 225.132 84.9926 225.101 85.2785 225.04C85.5746 224.969 85.784 224.872 85.9065 224.75C85.9269 224.729 85.9678 224.719 86.029 224.719C86.0903 224.719 86.2026 224.836 86.366 225.071C86.5396 225.295 86.6978 225.596 86.8408 225.974C86.9837 226.341 87.0552 226.626 87.0552 226.83C87.0552 227.228 86.7489 227.544 86.1362 227.779C85.5236 228.014 84.7986 228.131 83.9614 228.131C82.6136 228.131 81.5057 227.657 80.6378 226.708C79.7699 225.759 79.3359 224.423 79.3359 222.699C79.3359 220.965 79.7801 219.603 80.6684 218.614C81.567 217.625 82.685 217.13 84.0226 217.13Z" fill="#2E2F29"/>
<path d="M97.7848 227.718C97.7848 227.891 97.2691 227.978 96.2378 227.978C95.2066 227.978 94.6909 227.891 94.6909 227.718V224.199H92.5467V227.718C92.5467 227.891 92.0311 227.978 90.9998 227.978C89.9685 227.978 89.4529 227.891 89.4529 227.718V217.574C89.4529 217.359 89.9685 217.252 90.9998 217.252C92.0311 217.252 92.5467 217.359 92.5467 217.574V221.169H94.6909V217.604C94.6909 217.461 94.9462 217.359 95.4567 217.298C95.7222 217.278 95.9826 217.268 96.2378 217.268L97.019 217.298C97.5295 217.359 97.7848 217.461 97.7848 217.604V227.718Z" fill="#2E2F29"/>
<path d="M105.513 221.521C105.707 221.521 105.804 221.878 105.804 222.592C105.804 222.806 105.778 223.061 105.727 223.357C105.686 223.643 105.604 223.786 105.482 223.786H103.537V225.316H106.355C106.528 225.316 106.646 225.54 106.707 225.989C106.738 226.183 106.753 226.392 106.753 226.616C106.753 226.83 106.722 227.111 106.661 227.458C106.6 227.805 106.498 227.978 106.355 227.978H101.117C100.729 227.978 100.535 227.82 100.535 227.504V217.665C100.535 217.4 100.652 217.268 100.887 217.268H106.37C106.585 217.268 106.692 217.722 106.692 218.629C106.692 219.527 106.585 219.976 106.37 219.976H103.537V221.521H105.513Z" fill="#2E2F29"/>
<path d="M113.694 217.13C114.439 217.13 115.093 217.237 115.654 217.451C116.226 217.655 116.512 217.936 116.512 218.293C116.512 218.65 116.374 219.093 116.098 219.624C115.833 220.144 115.608 220.404 115.424 220.404C115.373 220.404 115.312 220.379 115.241 220.328C115.179 220.266 115.026 220.205 114.781 220.144C114.546 220.073 114.342 220.037 114.169 220.037C113.576 220.037 113.096 220.246 112.729 220.664C112.371 221.083 112.193 221.725 112.193 222.592C112.193 223.449 112.377 224.087 112.744 224.505C113.122 224.923 113.597 225.132 114.169 225.132C114.403 225.132 114.664 225.101 114.95 225.04C115.246 224.969 115.455 224.872 115.578 224.75C115.598 224.729 115.639 224.719 115.7 224.719C115.761 224.719 115.874 224.836 116.037 225.071C116.211 225.295 116.369 225.596 116.512 225.974C116.655 226.341 116.726 226.626 116.726 226.83C116.726 227.228 116.42 227.544 115.807 227.779C115.195 228.014 114.47 228.131 113.632 228.131C112.285 228.131 111.177 227.657 110.309 226.708C109.441 225.759 109.007 224.423 109.007 222.699C109.007 220.965 109.451 219.603 110.34 218.614C111.238 217.625 112.356 217.13 113.694 217.13Z" fill="#2E2F29"/>
<path d="M122.187 227.764C122.187 227.917 121.707 227.993 120.747 227.993L119.89 227.947C119.379 227.907 119.124 227.835 119.124 227.733V217.466C119.124 217.293 119.635 217.206 120.656 217.206C121.677 217.206 122.187 217.293 122.187 217.466V221.383L124.056 217.466C124.127 217.324 124.536 217.252 125.281 217.252C126.639 217.252 127.354 217.37 127.425 217.604C127.425 217.625 127.42 217.645 127.41 217.665L124.745 222.47L127.839 226.739C127.839 226.759 127.742 226.846 127.548 226.999C127.078 227.407 126.527 227.728 125.894 227.963C125.7 228.034 125.506 228.07 125.312 228.07L124.944 228.039C124.617 227.958 124.362 227.748 124.178 227.412L122.432 224.076H122.187V227.764Z" fill="#2E2F29"/>
<path d="M67.7793 129.996L67.0762 143.238L61.959 143.707L59.2246 136.617L58.7949 143.844H54.4004L54.752 129.996L59.6348 129.762L63.0137 136.793L63.1699 130.152L67.7793 129.996ZM82.7188 143.16L77.875 143.785L77.2891 141.578H75.0625L74.5742 143.785L69.5938 143.297L73.4805 130.289L78.9102 130.016L82.7188 143.16ZM76.9375 138.59L76.1953 135.191L75.4727 138.59H76.9375ZM100.021 129.762L99.123 144.098L94.6699 144.293L94.709 136.734L92.6973 142.828H90.9785L89.4355 137.379L89.416 143.707L84.9043 143.844L85.0996 130.348L90.1191 130.152L92.1113 136.617L94.7676 129.762H100.021ZM111.992 129.918C111.953 130.53 111.917 131.135 111.885 131.734C111.852 132.333 111.81 132.939 111.758 133.551L107.617 133.766L107.52 134.996H110.43L110.215 138.023L107.285 138.121L107.188 139.547H109.609H111.328C111.289 140.263 111.247 140.976 111.201 141.686C111.162 142.389 111.126 143.095 111.094 143.805L102.676 144L102.988 129.918H111.992ZM118.367 141.988C118.367 142.275 118.312 142.542 118.201 142.789C118.09 143.036 117.941 143.255 117.752 143.443C117.57 143.626 117.355 143.772 117.107 143.883C116.86 143.987 116.596 144.039 116.316 144.039C116.03 144.039 115.763 143.987 115.516 143.883C115.268 143.772 115.05 143.626 114.861 143.443C114.679 143.255 114.533 143.036 114.422 142.789C114.318 142.542 114.266 142.275 114.266 141.988C114.266 141.708 114.318 141.441 114.422 141.188C114.533 140.934 114.679 140.715 114.861 140.533C115.05 140.344 115.268 140.195 115.516 140.084C115.763 139.973 116.03 139.918 116.316 139.918C116.596 139.918 116.86 139.973 117.107 140.084C117.355 140.195 117.57 140.344 117.752 140.533C117.941 140.715 118.09 140.934 118.201 141.188C118.312 141.441 118.367 141.708 118.367 141.988ZM118.367 135.738C118.367 136.025 118.312 136.292 118.201 136.539C118.09 136.786 117.941 137.005 117.752 137.193C117.57 137.376 117.355 137.522 117.107 137.633C116.86 137.737 116.596 137.789 116.316 137.789C116.03 137.789 115.763 137.737 115.516 137.633C115.268 137.522 115.05 137.376 114.861 137.193C114.679 137.005 114.533 136.786 114.422 136.539C114.318 136.292 114.266 136.025 114.266 135.738C114.266 135.458 114.318 135.191 114.422 134.938C114.533 134.684 114.679 134.465 114.861 134.283C115.05 134.094 115.268 133.945 115.516 133.834C115.763 133.723 116.03 133.668 116.316 133.668C116.596 133.668 116.86 133.723 117.107 133.834C117.355 133.945 117.57 134.094 117.752 134.283C117.941 134.465 118.09 134.684 118.201 134.938C118.312 135.191 118.367 135.458 118.367 135.738ZM138.266 136.246C138.266 137.158 138.148 137.981 137.914 138.717C137.68 139.446 137.351 140.097 136.928 140.67C136.511 141.236 136.013 141.725 135.434 142.135C134.854 142.545 134.219 142.883 133.529 143.15C132.839 143.411 132.104 143.606 131.322 143.736C130.548 143.86 129.75 143.922 128.93 143.922C128.624 143.922 128.324 143.915 128.031 143.902C127.738 143.883 127.439 143.857 127.133 143.824L127.406 130.719C128.122 130.491 128.858 130.331 129.613 130.24C130.375 130.143 131.13 130.094 131.879 130.094C132.81 130.094 133.666 130.234 134.447 130.514C135.229 130.794 135.902 131.197 136.469 131.725C137.035 132.252 137.475 132.896 137.787 133.658C138.106 134.42 138.266 135.283 138.266 136.246ZM134.262 136.871C134.268 136.52 134.229 136.181 134.145 135.855C134.066 135.53 133.933 135.243 133.744 134.996C133.562 134.742 133.327 134.54 133.041 134.391C132.755 134.234 132.413 134.15 132.016 134.137L131.625 140.191C132.016 140.133 132.37 140.006 132.689 139.811C133.008 139.609 133.282 139.365 133.51 139.078C133.744 138.785 133.923 138.463 134.047 138.111C134.177 137.753 134.249 137.385 134.262 137.008V136.871ZM146.135 130.25L145.061 143.551L140.939 143.766V130.523L146.135 130.25Z" fill="black"/>
<path d="M66.8652 179.523C66.8652 180.064 66.7643 180.529 66.5625 180.92C66.3672 181.311 66.1035 181.643 65.7715 181.916C65.4395 182.189 65.0553 182.414 64.6191 182.59C64.1895 182.759 63.7402 182.893 63.2715 182.99C62.8027 183.088 62.3307 183.153 61.8555 183.186C61.3867 183.218 60.9473 183.234 60.5371 183.234C60.1335 183.234 59.7135 183.218 59.2773 183.186C58.8477 183.16 58.418 183.111 57.9883 183.039C57.5586 182.967 57.1354 182.873 56.7188 182.756C56.3021 182.632 55.9082 182.479 55.5371 182.297L55.5176 169.719C55.8822 169.569 56.2695 169.436 56.6797 169.318C57.0898 169.195 57.5065 169.094 57.9297 169.016C58.3594 168.931 58.7858 168.869 59.209 168.83C59.6322 168.785 60.0423 168.762 60.4395 168.762C60.9017 168.762 61.3672 168.791 61.8359 168.85C62.3112 168.908 62.7669 169.006 63.2031 169.143C63.6393 169.279 64.0462 169.458 64.4238 169.68C64.8014 169.895 65.1302 170.161 65.4102 170.48C65.6966 170.799 65.918 171.171 66.0742 171.594C66.237 172.017 66.3184 172.505 66.3184 173.059C66.3184 173.423 66.2663 173.765 66.1621 174.084C66.0579 174.403 65.9082 174.689 65.7129 174.943C65.5176 175.197 65.2799 175.415 65 175.598C64.7201 175.773 64.4043 175.904 64.0527 175.988C64.4759 176.099 64.86 176.262 65.2051 176.477C65.5566 176.691 65.8529 176.952 66.0938 177.258C66.3411 177.564 66.5299 177.909 66.6602 178.293C66.7969 178.677 66.8652 179.087 66.8652 179.523ZM61.9043 173.957C61.9043 173.768 61.8652 173.609 61.7871 173.479C61.709 173.342 61.6113 173.231 61.4941 173.146C61.3835 173.062 61.2598 173 61.123 172.961C60.9928 172.922 60.8757 172.902 60.7715 172.902C60.6413 172.902 60.5143 172.922 60.3906 172.961C60.2669 173 60.1465 173.046 60.0293 173.098L59.9707 175.266C60.1204 175.266 60.306 175.253 60.5273 175.227C60.7487 175.201 60.9603 175.145 61.1621 175.061C61.3704 174.969 61.5462 174.839 61.6895 174.67C61.8327 174.494 61.9043 174.257 61.9043 173.957ZM60.5176 177.141C60.3288 177.141 60.1465 177.16 59.9707 177.199L59.9316 179.426C60.0293 179.445 60.1237 179.465 60.2148 179.484C60.3125 179.497 60.4069 179.504 60.498 179.504C60.6348 179.504 60.7845 179.491 60.9473 179.465C61.11 179.432 61.263 179.374 61.4062 179.289C61.5495 179.198 61.6667 179.077 61.7578 178.928C61.8555 178.778 61.9043 178.579 61.9043 178.332C61.9043 178.085 61.8555 177.883 61.7578 177.727C61.6667 177.57 61.5527 177.45 61.416 177.365C61.2793 177.274 61.1296 177.215 60.9668 177.189C60.804 177.157 60.6543 177.141 60.5176 177.141ZM74.666 169.25L73.5918 182.551L69.4707 182.766V169.523L74.666 169.25ZM88.7949 173.586C88.7949 174.094 88.7493 174.556 88.6582 174.973C88.5736 175.383 88.4368 175.76 88.248 176.105C88.0592 176.451 87.8151 176.77 87.5156 177.062C87.2161 177.355 86.8548 177.635 86.4316 177.902L88.7559 182.043L84.3613 182.902L82.8574 178.742L81.6465 178.781L81.4707 182.844H77.2715C77.304 181.359 77.3333 179.882 77.3594 178.41C77.3919 176.939 77.4277 175.461 77.4668 173.977C77.4798 173.228 77.4928 172.486 77.5059 171.75C77.5189 171.014 77.5449 170.272 77.584 169.523C78.0397 169.354 78.4889 169.214 78.9316 169.104C79.3743 168.993 79.8171 168.908 80.2598 168.85C80.709 168.785 81.1615 168.742 81.6172 168.723C82.0794 168.697 82.5514 168.684 83.0332 168.684C83.7754 168.684 84.4915 168.788 85.1816 168.996C85.8783 169.198 86.4935 169.504 87.0273 169.914C87.5612 170.324 87.9876 170.835 88.3066 171.447C88.6322 172.059 88.7949 172.772 88.7949 173.586ZM84.4199 173.898C84.4199 173.625 84.3809 173.374 84.3027 173.146C84.2311 172.919 84.1204 172.723 83.9707 172.561C83.8275 172.391 83.6452 172.261 83.4238 172.17C83.209 172.072 82.9551 172.023 82.6621 172.023C82.5319 172.023 82.4049 172.033 82.2812 172.053C82.1576 172.066 82.0371 172.089 81.9199 172.121L81.7637 175.754H81.998C82.278 175.754 82.5612 175.718 82.8477 175.646C83.1406 175.575 83.401 175.464 83.6289 175.314C83.8633 175.165 84.0521 174.973 84.1953 174.738C84.3451 174.504 84.4199 174.224 84.4199 173.898ZM95.5117 180.988C95.5117 181.275 95.4564 181.542 95.3457 181.789C95.235 182.036 95.0853 182.255 94.8965 182.443C94.7142 182.626 94.4993 182.772 94.252 182.883C94.0046 182.987 93.7409 183.039 93.4609 183.039C93.1745 183.039 92.9076 182.987 92.6602 182.883C92.4128 182.772 92.1947 182.626 92.0059 182.443C91.8236 182.255 91.6771 182.036 91.5664 181.789C91.4622 181.542 91.4102 181.275 91.4102 180.988C91.4102 180.708 91.4622 180.441 91.5664 180.188C91.6771 179.934 91.8236 179.715 92.0059 179.533C92.1947 179.344 92.4128 179.195 92.6602 179.084C92.9076 178.973 93.1745 178.918 93.4609 178.918C93.7409 178.918 94.0046 178.973 94.252 179.084C94.4993 179.195 94.7142 179.344 94.8965 179.533C95.0853 179.715 95.235 179.934 95.3457 180.188C95.4564 180.441 95.5117 180.708 95.5117 180.988ZM95.5117 174.738C95.5117 175.025 95.4564 175.292 95.3457 175.539C95.235 175.786 95.0853 176.005 94.8965 176.193C94.7142 176.376 94.4993 176.522 94.252 176.633C94.0046 176.737 93.7409 176.789 93.4609 176.789C93.1745 176.789 92.9076 176.737 92.6602 176.633C92.4128 176.522 92.1947 176.376 92.0059 176.193C91.8236 176.005 91.6771 175.786 91.5664 175.539C91.4622 175.292 91.4102 175.025 91.4102 174.738C91.4102 174.458 91.4622 174.191 91.5664 173.938C91.6771 173.684 91.8236 173.465 92.0059 173.283C92.1947 173.094 92.4128 172.945 92.6602 172.834C92.9076 172.723 93.1745 172.668 93.4609 172.668C93.7409 172.668 94.0046 172.723 94.252 172.834C94.4993 172.945 94.7142 173.094 94.8965 173.283C95.0853 173.465 95.235 173.684 95.3457 173.938C95.4564 174.191 95.5117 174.458 95.5117 174.738ZM113.711 172.258C113.053 174.1 112.458 175.77 111.924 177.268C111.696 177.906 111.471 178.537 111.25 179.162C111.029 179.781 110.824 180.347 110.635 180.861C110.452 181.369 110.299 181.799 110.176 182.15C110.052 182.502 109.974 182.72 109.941 182.805L104.824 182.512L109.336 172.805L104.023 173.098V168.879L113.711 168.703V172.258ZM124.1 169.719C123.051 171.991 122.081 174.302 121.189 176.652C120.304 178.996 119.477 181.366 118.709 183.762L114.803 182.238C115.278 181.06 115.753 179.885 116.229 178.713C116.704 177.535 117.189 176.366 117.684 175.207C118.185 174.042 118.706 172.886 119.246 171.74C119.786 170.594 120.363 169.465 120.975 168.352L124.1 169.719ZM136.07 173.801C136.07 174.322 135.976 174.82 135.787 175.295C135.598 175.764 135.348 176.206 135.035 176.623C134.729 177.033 134.378 177.414 133.98 177.766C133.59 178.111 133.193 178.423 132.789 178.703H135.875L135.641 182.766L126.5 182.453V178.898C126.845 178.781 127.206 178.641 127.584 178.479C127.968 178.309 128.342 178.117 128.707 177.902C129.078 177.688 129.426 177.447 129.752 177.18C130.084 176.913 130.374 176.623 130.621 176.311C130.875 175.992 131.074 175.646 131.217 175.275C131.367 174.904 131.441 174.504 131.441 174.074C131.441 173.827 131.396 173.609 131.305 173.42C131.22 173.231 131.1 173.075 130.943 172.951C130.787 172.821 130.605 172.727 130.396 172.668C130.195 172.603 129.977 172.57 129.742 172.57C129.547 172.57 129.348 172.593 129.146 172.639C128.945 172.678 128.746 172.736 128.551 172.814C128.355 172.893 128.17 172.99 127.994 173.107C127.825 173.218 127.672 173.345 127.535 173.488L126.676 169.66C126.917 169.419 127.193 169.217 127.506 169.055C127.818 168.892 128.147 168.762 128.492 168.664C128.837 168.56 129.189 168.485 129.547 168.439C129.905 168.394 130.257 168.371 130.602 168.371C131.37 168.371 132.086 168.511 132.75 168.791C133.414 169.064 133.99 169.445 134.479 169.934C134.973 170.415 135.361 170.988 135.641 171.652C135.927 172.316 136.07 173.033 136.07 173.801ZM148.637 178.078C148.637 178.944 148.497 179.696 148.217 180.334C147.943 180.965 147.559 181.493 147.064 181.916C146.57 182.333 145.977 182.645 145.287 182.854C144.604 183.055 143.852 183.156 143.031 183.156C142.66 183.156 142.279 183.12 141.889 183.049C141.498 182.977 141.111 182.88 140.727 182.756C140.342 182.632 139.968 182.486 139.604 182.316C139.245 182.147 138.91 181.965 138.598 181.77L138.969 177.844C139.216 178.013 139.493 178.176 139.799 178.332C140.105 178.482 140.421 178.618 140.746 178.742C141.078 178.859 141.41 178.954 141.742 179.025C142.081 179.097 142.406 179.133 142.719 179.133C142.901 179.133 143.087 179.12 143.275 179.094C143.471 179.061 143.646 179.006 143.803 178.928C143.959 178.85 144.086 178.739 144.184 178.596C144.288 178.452 144.34 178.267 144.34 178.039C144.34 177.896 144.275 177.762 144.145 177.639C144.014 177.515 143.858 177.411 143.676 177.326C143.493 177.235 143.305 177.167 143.109 177.121C142.914 177.069 142.751 177.043 142.621 177.043C142.53 177.043 142.419 177.049 142.289 177.062C142.165 177.069 142.038 177.082 141.908 177.102C141.778 177.121 141.651 177.15 141.527 177.189C141.41 177.222 141.319 177.264 141.254 177.316L141.312 174.523C141.423 174.536 141.527 174.546 141.625 174.553C141.723 174.559 141.827 174.562 141.938 174.562C142.165 174.562 142.413 174.543 142.68 174.504C142.947 174.458 143.194 174.383 143.422 174.279C143.65 174.169 143.839 174.019 143.988 173.83C144.145 173.641 144.223 173.397 144.223 173.098C144.223 172.883 144.164 172.71 144.047 172.58C143.93 172.443 143.783 172.339 143.607 172.268C143.438 172.196 143.253 172.147 143.051 172.121C142.849 172.095 142.667 172.082 142.504 172.082C141.977 172.082 141.456 172.173 140.941 172.355C140.434 172.538 139.984 172.805 139.594 173.156L138.773 169.602C139.372 169.113 140.053 168.742 140.814 168.488C141.583 168.228 142.354 168.098 143.129 168.098C143.839 168.098 144.516 168.202 145.16 168.41C145.811 168.612 146.384 168.915 146.879 169.318C147.374 169.715 147.768 170.207 148.061 170.793C148.354 171.379 148.5 172.056 148.5 172.824C148.5 173.046 148.467 173.27 148.402 173.498C148.337 173.726 148.249 173.947 148.139 174.162C148.028 174.377 147.898 174.579 147.748 174.768C147.598 174.95 147.439 175.109 147.27 175.246C147.543 175.37 147.768 175.536 147.943 175.744C148.119 175.952 148.259 176.184 148.363 176.438C148.467 176.691 148.539 176.962 148.578 177.248C148.617 177.528 148.637 177.805 148.637 178.078Z" fill="black"/>
<path d="M49.375 74.0898C49.375 75.2266 49.2051 76.2344 48.8652 77.1133C48.5254 77.9922 48.0566 78.7598 47.459 79.416C46.873 80.0723 46.1816 80.6289 45.3848 81.0859C44.5879 81.543 43.7324 81.918 42.8184 82.2109C41.916 82.4922 40.9785 82.7031 40.0059 82.8438C39.0332 82.9727 38.0781 83.043 37.1406 83.0547V91.2461H28.9492C28.9492 88.5625 28.9551 85.8906 28.9668 83.2305C28.9785 80.5703 28.9961 77.8867 29.0195 75.1797C29.043 73.75 29.0488 72.3203 29.0371 70.8906C29.0254 69.4609 29.0547 68.0195 29.125 66.5664C30.625 66.1211 32.125 65.7871 33.625 65.5645C35.125 65.3418 36.6719 65.2305 38.2656 65.2305C39.168 65.2305 40.0703 65.3066 40.9727 65.459C41.875 65.5996 42.7363 65.8281 43.5566 66.1445C44.3887 66.4609 45.1562 66.8594 45.8594 67.3398C46.5742 67.8086 47.1895 68.3711 47.7051 69.0273C48.2207 69.6836 48.625 70.4336 48.918 71.2773C49.2227 72.1094 49.375 73.0469 49.375 74.0898ZM41.5703 74.6875C41.5703 73.9258 41.3359 73.334 40.8672 72.9121C40.4102 72.4785 39.8125 72.2617 39.0742 72.2617C38.8281 72.2617 38.5703 72.2852 38.3008 72.332C38.043 72.3672 37.7969 72.4141 37.5625 72.4727L37.3516 77.6055C37.5156 77.6289 37.6738 77.6406 37.8262 77.6406C37.9785 77.6406 38.1367 77.6406 38.3008 77.6406C38.7227 77.6406 39.127 77.5703 39.5137 77.4297C39.9121 77.2891 40.2637 77.0898 40.5684 76.832C40.873 76.5625 41.1133 76.252 41.2891 75.9004C41.4766 75.5371 41.5703 75.1328 41.5703 74.6875ZM74.5434 74.0547C74.5434 74.9688 74.4613 75.8008 74.2973 76.5508C74.1449 77.2891 73.8988 77.9688 73.559 78.5898C73.2191 79.2109 72.7797 79.7852 72.2406 80.3125C71.7016 80.8398 71.0512 81.3438 70.2895 81.8242L74.473 89.2773L66.5629 90.8242L63.8559 83.3359L61.6762 83.4062L61.3598 90.7188H53.8012C53.8598 88.0469 53.9125 85.3867 53.9594 82.7383C54.018 80.0898 54.0824 77.4297 54.1527 74.7578C54.1762 73.4102 54.1996 72.0742 54.223 70.75C54.2465 69.4258 54.2934 68.0898 54.3637 66.7422C55.184 66.4375 55.9926 66.1855 56.7895 65.9863C57.5863 65.7871 58.3832 65.6348 59.1801 65.5293C59.9887 65.4121 60.8031 65.3359 61.6234 65.3008C62.4555 65.2539 63.3051 65.2305 64.1723 65.2305C65.5082 65.2305 66.7973 65.418 68.0395 65.793C69.2934 66.1562 70.4008 66.707 71.3617 67.4453C72.3227 68.1836 73.0902 69.1035 73.6645 70.2051C74.2504 71.3066 74.5434 72.5898 74.5434 74.0547ZM66.6684 74.6172C66.6684 74.125 66.598 73.6738 66.4574 73.2637C66.3285 72.8535 66.1293 72.502 65.8598 72.209C65.602 71.9043 65.2738 71.6699 64.8754 71.5059C64.4887 71.3301 64.0316 71.2422 63.5043 71.2422C63.2699 71.2422 63.0414 71.2598 62.8188 71.2949C62.5961 71.3184 62.3793 71.3594 62.1684 71.418L61.8871 77.957H62.309C62.8129 77.957 63.3227 77.8926 63.8383 77.7637C64.3656 77.6348 64.8344 77.4355 65.2445 77.166C65.6664 76.8965 66.0063 76.5508 66.2641 76.1289C66.5336 75.707 66.6684 75.2031 66.6684 74.6172ZM100.854 78.5898C100.854 79.6562 100.731 80.6875 100.485 81.6836C100.239 82.668 99.8816 83.5938 99.4129 84.4609C98.9559 85.3281 98.3934 86.125 97.7254 86.8516C97.0691 87.5664 96.325 88.1816 95.493 88.6973C94.6727 89.2129 93.7762 89.6172 92.8035 89.9102C91.8309 90.1914 90.7996 90.332 89.7098 90.332C88.6551 90.332 87.6473 90.1973 86.6863 89.9277C85.7371 89.6582 84.8465 89.2832 84.0145 88.8027C83.1824 88.3105 82.4266 87.7246 81.7469 87.0449C81.0789 86.3535 80.5047 85.5918 80.0242 84.7598C79.5555 83.916 79.1863 83.0137 78.9168 82.0527C78.659 81.0918 78.5301 80.0898 78.5301 79.0469C78.5301 78.0273 78.6531 77.0312 78.8992 76.0586C79.1453 75.0742 79.4969 74.1484 79.9539 73.2812C80.4227 72.4141 80.9852 71.6172 81.6414 70.8906C82.2977 70.1641 83.0301 69.5371 83.8387 69.0098C84.659 68.4824 85.5438 68.0723 86.493 67.7793C87.4422 67.4863 88.4441 67.3398 89.4988 67.3398C91.198 67.3398 92.7449 67.6035 94.1395 68.1309C95.5457 68.6582 96.741 69.4141 97.7254 70.3984C98.7215 71.3711 99.4891 72.5547 100.028 73.9492C100.579 75.332 100.854 76.8789 100.854 78.5898ZM93.0496 79.0469C93.0496 78.543 92.9734 78.0566 92.8211 77.5879C92.6805 77.1074 92.4695 76.6855 92.1883 76.3223C91.907 75.9473 91.5555 75.6484 91.1336 75.4258C90.7234 75.1914 90.2488 75.0742 89.7098 75.0742C89.159 75.0742 88.6668 75.1738 88.2332 75.373C87.7996 75.5723 87.4246 75.8477 87.1082 76.1992C86.8035 76.5391 86.5691 76.9434 86.4051 77.4121C86.241 77.8691 86.159 78.3555 86.159 78.8711C86.159 79.3633 86.2293 79.8555 86.3699 80.3477C86.5105 80.8398 86.7215 81.2852 87.0027 81.6836C87.284 82.082 87.6297 82.4043 88.0398 82.6504C88.4617 82.8965 88.948 83.0195 89.4988 83.0195C90.0496 83.0195 90.5418 82.9141 90.9754 82.7031C91.4207 82.4805 91.7957 82.1875 92.1004 81.8242C92.4051 81.4492 92.6395 81.0215 92.8035 80.541C92.9676 80.0605 93.0496 79.5625 93.0496 79.0469ZM122.331 65.6523C122.261 66.7539 122.196 67.8438 122.138 68.9219C122.079 70 122.003 71.0898 121.909 72.1914L114.456 72.5781V74.793H120.925L120.573 80.2422L114.421 80.418L114.456 90.8242L105.562 91L106.124 65.6523H122.331ZM136.32 66.25L134.386 90.1914L126.968 90.5781V66.7422L136.32 66.25ZM156.602 80.9805L155.863 88.7852L141.062 89.9453C141.133 85.8555 141.209 81.7891 141.291 77.7461C141.385 73.7031 141.496 69.6367 141.625 65.5469H150.766C150.496 68.1133 150.238 70.6797 149.992 73.2461C149.746 75.8008 149.57 78.3789 149.465 80.9805C150.016 81.0039 150.561 81.0156 151.1 81.0156C151.639 81.0156 152.184 81.0156 152.734 81.0156C153.391 81.0156 154.035 81.0098 154.668 80.998C155.301 80.9863 155.945 80.9805 156.602 80.9805ZM177.674 65.6523C177.604 66.7539 177.539 67.8438 177.481 68.9219C177.422 70 177.346 71.0898 177.252 72.1914L169.799 72.5781L169.623 74.793H174.862L174.475 80.2422L169.202 80.418L169.026 82.9844H173.385H176.479C176.409 84.2734 176.332 85.5566 176.25 86.834C176.18 88.0996 176.116 89.3711 176.057 90.6484L160.905 91L161.467 65.6523H177.674Z" fill="#282923"/>
</svg>
