<svg width="206" height="280" viewBox="0 0 206 280" fill="none" xmlns="http://www.w3.org/2000/svg">
<rect x="0.5" y="0.5" width="205" height="279" fill="#FCF4E7" stroke="black"/>
<rect y="32.8962" width="205.234" height="2.29508" fill="#2D2E26"/>
<ellipse cx="140.907" cy="19.8907" rx="5.36059" ry="4.59016" fill="#2C3228"/>
<ellipse cx="140.907" cy="19.8907" rx="5.36059" ry="4.59016" fill="#2C3228"/>
<ellipse cx="159.286" cy="19.8909" rx="5.36059" ry="4.59016" fill="#2C3228"/>
<path d="M162.616 18.3607C162.616 20.5496 160.515 22.4508 157.755 22.4508C154.995 22.4508 152.895 20.5496 152.895 18.3607C152.895 16.1717 154.995 14.2705 157.755 14.2705C160.515 14.2705 162.616 16.1717 162.616 18.3607Z" fill="#F5F5EB" stroke="#31322A"/>
<ellipse cx="177.665" cy="19.8909" rx="5.36059" ry="4.59016" fill="#2C3228"/>
<path d="M180.995 18.3607C180.995 20.5496 178.894 22.4508 176.134 22.4508C173.374 22.4508 171.273 20.5496 171.273 18.3607C171.273 16.1717 173.374 14.2705 176.134 14.2705C178.894 14.2705 180.995 16.1717 180.995 18.3607Z" fill="#F5F5EB" stroke="#31322A"/>
<path d="M128.909 138.415C128.909 152.411 115.847 163.872 99.5821 163.872C83.3176 163.872 70.2549 152.411 70.2549 138.415C70.2549 124.419 83.3176 112.959 99.5821 112.959C115.847 112.959 128.909 124.419 128.909 138.415Z" fill="#FEFEFE" stroke="black"/>
<path d="M103.621 164.696C103.621 175.649 93.4579 184.637 80.7776 184.637C68.0973 184.637 57.9346 175.649 57.9346 164.696C57.9346 153.744 68.0973 144.756 80.7776 144.756C93.4579 144.756 103.621 153.744 103.621 164.696Z" fill="#DA5971" stroke="black"/>
<path d="M145.767 164.372C145.767 175.138 135.612 183.988 122.924 183.988C110.236 183.988 100.081 175.138 100.081 164.372C100.081 153.605 110.236 144.756 122.924 144.756C135.612 144.756 145.767 153.605 145.767 164.372Z" fill="#414040" stroke="black"/>
<path d="M56.001 64.2375C57.7899 64.2375 59.3583 64.4946 60.7061 65.0087C62.0784 65.4983 62.7645 66.1715 62.7645 67.0284C62.7645 67.8852 62.4337 68.9501 61.7721 70.2231C61.1349 71.4716 60.5958 72.0959 60.1547 72.0959C60.0322 72.0959 59.8851 72.0347 59.7136 71.9123C59.5666 71.7654 59.199 71.6185 58.6108 71.4716C58.0472 71.3003 57.5571 71.2146 57.1405 71.2146C55.7192 71.2146 54.5674 71.7165 53.6852 72.7202C52.8275 73.7239 52.3987 75.2662 52.3987 77.3471C52.3987 79.4035 52.8398 80.9335 53.722 81.9372C54.6287 82.9409 55.7682 83.4428 57.1405 83.4428C57.7041 83.4428 58.329 83.3694 59.0152 83.2225C59.7258 83.0511 60.2282 82.8185 60.5223 82.5248C60.5713 82.4758 60.6693 82.4513 60.8163 82.4513C60.9634 82.4513 61.2329 82.7329 61.625 83.2959C62.0416 83.8345 62.4215 84.5567 62.7645 85.4625C63.1076 86.3438 63.2791 87.0292 63.2791 87.5189C63.2791 88.4736 62.544 89.2325 61.0736 89.7956C59.6033 90.3586 57.8634 90.6402 55.854 90.6402C52.6192 90.6402 49.9604 89.5018 47.8774 87.2251C45.7944 84.9484 44.7529 81.7414 44.7529 77.6041C44.7529 73.4424 45.8189 70.1742 47.9509 67.7995C50.1074 65.4249 52.7908 64.2375 56.001 64.2375Z" fill="#282923"/>
<path d="M79.9508 90.6402C76.52 90.6402 73.7141 89.5141 71.5331 87.2618C69.3766 85.0096 68.2984 81.7291 68.2984 77.4205C68.2984 73.0874 69.3889 69.8069 71.5699 67.5792C73.7754 65.3514 76.6058 64.2375 80.0611 64.2375C83.5409 64.2375 86.3467 65.3392 88.4787 67.5425C90.6107 69.7213 91.6767 73.0384 91.6767 77.4939C91.6767 81.925 90.5862 85.2299 88.4052 87.4087C86.2242 89.563 83.4061 90.6402 79.9508 90.6402ZM79.9875 71.288C78.8113 71.288 77.8188 71.8266 77.0101 72.9038C76.2259 73.9809 75.8339 75.4988 75.8339 77.4572C75.8339 79.3912 76.2137 80.8845 76.9734 81.9372C77.733 82.9654 78.7255 83.4795 79.9508 83.4795C81.2006 83.4795 82.2053 82.9532 82.965 81.9005C83.7492 80.8478 84.1412 79.3422 84.1412 77.3838C84.1412 75.4253 83.7369 73.9197 82.9282 72.8671C82.144 71.8144 81.1638 71.288 79.9875 71.288Z" fill="#282923"/>
<path d="M97.2011 88.1064V65.2657C97.2011 64.7516 98.4386 64.4946 100.914 64.4946C103.413 64.4946 104.663 64.7516 104.663 65.2657V83.2592H110.324C110.765 83.2592 111.071 83.8345 111.243 84.9851C111.316 85.5482 111.353 86.1235 111.353 86.711C111.353 87.2985 111.316 87.8983 111.243 88.5103C111.047 89.6854 110.728 90.273 110.287 90.273H98.9655C98.4264 90.273 97.9975 90.0526 97.6789 89.612C97.3604 89.1713 97.2011 88.6695 97.2011 88.1064Z" fill="#282923"/>
<path d="M127.401 90.6402C123.97 90.6402 121.164 89.5141 118.983 87.2618C116.827 85.0096 115.748 81.7291 115.748 77.4205C115.748 73.0874 116.839 69.8069 119.02 67.5792C121.225 65.3514 124.056 64.2375 127.511 64.2375C130.991 64.2375 133.797 65.3392 135.929 67.5425C138.061 69.7213 139.127 73.0384 139.127 77.4939C139.127 81.925 138.036 85.2299 135.855 87.4087C133.674 89.563 130.856 90.6402 127.401 90.6402ZM127.437 71.288C126.261 71.288 125.269 71.8266 124.46 72.9038C123.676 73.9809 123.284 75.4988 123.284 77.4572C123.284 79.3912 123.664 80.8845 124.423 81.9372C125.183 82.9654 126.175 83.4795 127.401 83.4795C128.65 83.4795 129.655 82.9532 130.415 81.9005C131.199 80.8478 131.591 79.3422 131.591 77.3838C131.591 75.4253 131.187 73.9197 130.378 72.8671C129.594 71.8144 128.614 71.288 127.437 71.288Z" fill="#282923"/>
<path d="M152.039 89.7589C152.039 90.1506 150.875 90.3464 148.547 90.3464C146.195 90.3464 145.019 90.1628 145.019 89.7956V65.8533C145.019 64.9965 145.472 64.568 146.379 64.568H153.399C159.844 64.568 163.067 67.0773 163.067 72.0959C163.067 73.6137 162.773 74.9969 162.185 76.2454C161.597 77.4695 160.763 78.4487 159.685 79.1831L164.317 86.8946C164.121 87.4821 163.484 88.1554 162.405 88.9143C160.935 89.9669 159.722 90.4933 158.766 90.4933C157.81 90.4933 157.1 90.1506 156.634 89.4651L153.179 81.4231H152.039V89.7589ZM152.039 71.0677V76.5759H152.223C154.551 76.5759 155.715 75.6089 155.715 73.6749C155.715 72.7936 155.482 72.1449 155.017 71.7287C154.576 71.288 153.841 71.0677 152.811 71.0677H152.039Z" fill="#282923"/>
<rect x="67.3906" y="214.973" width="78.8773" height="25.2459" rx="10" fill="#2D2E26"/>
<rect x="63.7959" y="210.617" width="76.8773" height="23.2459" rx="9" fill="#FDF4E5" stroke="#252424" stroke-width="2"/>
<path d="M84.0236 217.13C84.769 217.13 85.4225 217.237 85.9841 217.451C86.5558 217.655 86.8417 217.936 86.8417 218.293C86.8417 218.65 86.7039 219.093 86.4282 219.624C86.1627 220.144 85.9381 220.404 85.7543 220.404C85.7033 220.404 85.642 220.379 85.5705 220.328C85.5093 220.266 85.3561 220.205 85.111 220.144C84.8762 220.073 84.672 220.037 84.4984 220.037C83.9062 220.037 83.4263 220.246 83.0587 220.664C82.7013 221.083 82.5226 221.725 82.5226 222.592C82.5226 223.449 82.7064 224.087 83.074 224.505C83.4518 224.923 83.9266 225.132 84.4984 225.132C84.7332 225.132 84.9936 225.101 85.2795 225.04C85.5756 224.969 85.7849 224.872 85.9075 224.75C85.9279 224.729 85.9687 224.719 86.03 224.719C86.0913 224.719 86.2036 224.836 86.367 225.071C86.5405 225.295 86.6988 225.596 86.8417 225.974C86.9847 226.341 87.0562 226.626 87.0562 226.83C87.0562 227.228 86.7499 227.544 86.1372 227.779C85.5246 228.014 84.7996 228.131 83.9623 228.131C82.6145 228.131 81.5067 227.657 80.6388 226.708C79.7709 225.759 79.3369 224.423 79.3369 222.699C79.3369 220.965 79.7811 219.603 80.6694 218.614C81.5679 217.625 82.686 217.13 84.0236 217.13Z" fill="#2E2F29"/>
<path d="M97.7857 227.718C97.7857 227.891 97.2701 227.978 96.2388 227.978C95.2075 227.978 94.6919 227.891 94.6919 227.718V224.199H92.5477V227.718C92.5477 227.891 92.032 227.978 91.0008 227.978C89.9695 227.978 89.4538 227.891 89.4538 227.718V217.574C89.4538 217.359 89.9695 217.252 91.0008 217.252C92.032 217.252 92.5477 217.359 92.5477 217.574V221.169H94.6919V217.604C94.6919 217.461 94.9472 217.359 95.4577 217.298C95.7232 217.278 95.9836 217.268 96.2388 217.268L97.0199 217.298C97.5305 217.359 97.7857 217.461 97.7857 217.604V227.718Z" fill="#2E2F29"/>
<path d="M105.513 221.521C105.707 221.521 105.804 221.878 105.804 222.592C105.804 222.806 105.779 223.061 105.728 223.357C105.687 223.643 105.605 223.786 105.483 223.786H103.538V225.316H106.356C106.529 225.316 106.647 225.54 106.708 225.989C106.739 226.183 106.754 226.392 106.754 226.616C106.754 226.83 106.723 227.111 106.662 227.458C106.601 227.805 106.499 227.978 106.356 227.978H101.118C100.73 227.978 100.536 227.82 100.536 227.504V217.665C100.536 217.4 100.653 217.268 100.888 217.268H106.371C106.586 217.268 106.693 217.722 106.693 218.629C106.693 219.527 106.586 219.976 106.371 219.976H103.538V221.521H105.513Z" fill="#2E2F29"/>
<path d="M113.695 217.13C114.44 217.13 115.094 217.237 115.655 217.451C116.227 217.655 116.513 217.936 116.513 218.293C116.513 218.65 116.375 219.093 116.099 219.624C115.834 220.144 115.609 220.404 115.425 220.404C115.374 220.404 115.313 220.379 115.242 220.328C115.18 220.266 115.027 220.205 114.782 220.144C114.547 220.073 114.343 220.037 114.17 220.037C113.577 220.037 113.097 220.246 112.73 220.664C112.372 221.083 112.194 221.725 112.194 222.592C112.194 223.449 112.378 224.087 112.745 224.505C113.123 224.923 113.598 225.132 114.17 225.132C114.404 225.132 114.665 225.101 114.951 225.04C115.247 224.969 115.456 224.872 115.579 224.75C115.599 224.729 115.64 224.719 115.701 224.719C115.762 224.719 115.875 224.836 116.038 225.071C116.212 225.295 116.37 225.596 116.513 225.974C116.656 226.341 116.727 226.626 116.727 226.83C116.727 227.228 116.421 227.544 115.808 227.779C115.196 228.014 114.471 228.131 113.633 228.131C112.286 228.131 111.178 227.657 110.31 226.708C109.442 225.759 109.008 224.423 109.008 222.699C109.008 220.965 109.452 219.603 110.341 218.614C111.239 217.625 112.357 217.13 113.695 217.13Z" fill="#2E2F29"/>
<path d="M122.188 227.764C122.188 227.917 121.708 227.993 120.748 227.993L119.891 227.947C119.38 227.907 119.125 227.835 119.125 227.733V217.466C119.125 217.293 119.636 217.206 120.657 217.206C121.678 217.206 122.188 217.293 122.188 217.466V221.383L124.057 217.466C124.128 217.324 124.537 217.252 125.282 217.252C126.64 217.252 127.355 217.37 127.426 217.604C127.426 217.625 127.421 217.645 127.411 217.665L124.746 222.47L127.84 226.739C127.84 226.759 127.743 226.846 127.549 226.999C127.079 227.407 126.528 227.728 125.895 227.963C125.701 228.034 125.507 228.07 125.313 228.07L124.945 228.039C124.618 227.958 124.363 227.748 124.179 227.412L122.433 224.076H122.188V227.764Z" fill="#2E2F29"/>
</svg>
