<svg width="358" height="106" viewBox="0 0 358 106" fill="none" xmlns="http://www.w3.org/2000/svg">
<rect x="59" y="1" width="239" height="68" rx="14" fill="#0C0C0C" stroke="white" stroke-width="2"/>
<path d="M114.956 23.984H124.684L131.052 46H123.532L122.7 41.776H117.004L116.076 46H108.876L114.956 23.984ZM121.932 37.84L119.852 28.208L117.676 37.84H121.932ZM147.891 46.384C146.568 46.384 145.341 46.3627 144.211 46.32C143.08 46.2773 141.533 46.1813 139.571 46.032V23.984H150.579C152.136 23.984 153.533 24.208 154.771 24.656C156.029 25.0827 157.011 25.7013 157.715 26.512C158.419 27.3227 158.771 28.2613 158.771 29.328C158.771 30.6507 158.483 31.696 157.907 32.464C157.331 33.2107 156.456 33.7333 155.283 34.032C158.269 34.5013 159.763 36.2613 159.763 39.312C159.763 41.424 158.792 43.1307 156.851 44.432C154.931 45.7333 151.944 46.384 147.891 46.384ZM149.235 32.688C150.067 32.688 150.749 32.4853 151.283 32.08C151.837 31.6747 152.115 31.152 152.115 30.512C152.115 28.9973 151.176 28.24 149.299 28.24H146.707V32.688H149.235ZM149.107 41.36C150.28 41.36 151.176 41.1467 151.795 40.72C152.435 40.272 152.755 39.6533 152.755 38.864C152.755 38.0107 152.467 37.36 151.891 36.912C151.315 36.4427 150.493 36.208 149.427 36.208H146.675V41.264C147.635 41.328 148.445 41.36 149.107 41.36ZM179.721 46.512C177.417 46.512 175.369 46.0213 173.577 45.04C171.806 44.0587 170.42 42.704 169.417 40.976C168.436 39.2267 167.945 37.2427 167.945 35.024C167.945 32.784 168.436 30.7893 169.417 29.04C170.42 27.2907 171.806 25.936 173.577 24.976C175.369 23.9947 177.417 23.504 179.721 23.504C182.025 23.504 184.062 23.9947 185.833 24.976C187.625 25.936 189.012 27.2907 189.993 29.04C190.996 30.768 191.497 32.7627 191.497 35.024C191.497 37.2427 190.996 39.2267 189.993 40.976C189.012 42.704 187.625 44.0587 185.833 45.04C184.041 46.0213 182.004 46.512 179.721 46.512ZM179.721 40.688C181.065 40.688 182.164 40.1653 183.017 39.12C183.892 38.0747 184.329 36.6987 184.329 34.992C184.329 33.8613 184.126 32.8587 183.721 31.984C183.337 31.088 182.793 30.3947 182.089 29.904C181.385 29.392 180.585 29.136 179.689 29.136C178.814 29.136 178.025 29.392 177.321 29.904C176.617 30.3947 176.073 31.088 175.689 31.984C175.305 32.8587 175.113 33.8613 175.113 34.992C175.113 36.6987 175.54 38.0747 176.393 39.12C177.246 40.1653 178.356 40.688 179.721 40.688ZM211.652 46.512C209.54 46.512 207.652 46.1067 205.988 45.296C204.346 44.4853 203.066 43.3547 202.148 41.904C201.231 40.432 200.772 38.7573 200.772 36.88V23.984H208.004V36.88C208.004 38.16 208.314 39.12 208.932 39.76C209.551 40.4 210.458 40.72 211.652 40.72C212.847 40.72 213.754 40.4 214.372 39.76C214.991 39.0987 215.3 38.1387 215.3 36.88V23.984H222.532V36.88C222.532 38.7573 222.074 40.432 221.156 41.904C220.239 43.3547 218.948 44.4853 217.284 45.296C215.642 46.1067 213.764 46.512 211.652 46.512ZM236.32 28.848H231.744V23.984H248.352V28.848H243.776V46H236.32V28.848Z" fill="#F2E8D9"/>
</svg>
