<svg width="1246" height="123" viewBox="0 0 1246 123" fill="none" xmlns="http://www.w3.org/2000/svg">
<path d="M498.528 55.3966H472.516C471.698 54.0493 470.853 52.6193 469.98 51.1066C469.108 49.5939 468.263 48.022 467.445 46.3911C466.627 44.7602 465.863 43.0702 465.154 41.3211C464.445 39.5721 463.846 37.7757 463.355 35.9321H461.923V55.3966H430.513V40.0093L435.748 39.123V17.2121L430.513 16.3257V0.938477H466.136C470.853 0.938477 474.929 1.12757 478.365 1.50575C481.8 1.88393 484.718 2.42757 487.117 3.13666C489.517 3.82211 491.453 4.67302 492.925 5.68938C494.425 6.6821 495.583 7.81665 496.401 9.09301C497.247 10.3457 497.806 11.7285 498.078 13.2412C498.378 14.7303 498.528 16.3139 498.528 17.9921C498.528 19.6939 498.337 21.2421 497.956 22.6366C497.601 24.0075 496.96 25.2721 496.033 26.4303C495.106 27.5884 493.838 28.6521 492.23 29.6212C490.621 30.5666 488.576 31.4648 486.095 32.3157C486.613 33.2612 487.39 34.3721 488.426 35.6484C489.462 36.9011 490.58 38.1893 491.78 39.513C492.98 40.813 494.179 42.0893 495.379 43.342C496.606 44.5711 497.656 45.623 498.528 46.4975V55.3966ZM461.923 25.473C463.505 25.473 464.936 25.4139 466.218 25.2957C467.527 25.1775 468.631 24.9057 469.531 24.4803C470.458 24.0548 471.167 23.4284 471.657 22.6012C472.148 21.7739 472.394 20.663 472.394 19.2684C472.394 17.8975 472.148 16.8103 471.657 16.0066C471.167 15.1794 470.458 14.5412 469.531 14.0921C468.631 13.643 467.527 13.3475 466.218 13.2057C464.936 13.0639 463.505 12.993 461.923 12.993V25.473Z" fill="black"/>
<path d="M557.047 55.3966L554.838 46.2493H537.742L535.575 55.3966H512.303V37.5275L517.334 36.6411L529.399 0.938477H563.182L575.288 36.6411L580.319 37.5275V55.3966H557.047ZM541.26 34.0884H551.321L546.29 13.5603L541.26 34.0884Z" fill="black"/>
<path d="M616.179 28.8412V39.123L621.414 39.9739V55.3966H595.239V40.0093L600.474 39.123V17.2121L595.239 16.3257V0.938477H626.649L647.59 28.8412V17.283L642.355 16.3257V0.938477H668.53V16.3257L663.295 17.2121V39.123L668.53 40.0093V55.3966H637.079L616.179 28.8412Z" fill="black"/>
<path d="M732.775 0.938477C736.728 1.6712 740.286 2.73484 743.449 4.12938C746.612 5.50029 749.298 7.26119 751.507 9.4121C753.742 11.563 755.446 14.1394 756.619 17.1412C757.819 20.1194 758.418 23.5821 758.418 27.5293C758.418 32.753 757.41 37.1493 755.392 40.7184C753.374 44.2639 750.525 47.1239 746.844 49.2984C743.19 51.4729 738.787 53.0329 733.634 53.9784C728.48 54.9238 722.782 55.3966 716.538 55.3966H685.127V40.0093L690.362 39.123V15.9003L685.127 15.0139V0.938477H732.775ZM720.546 39.123C723.463 39.123 725.713 38.8511 727.294 38.3075C728.876 37.7402 730.021 36.9484 730.73 35.9321C731.466 34.9157 731.888 33.6984 731.998 32.2802C732.134 30.8621 732.202 29.2784 732.202 27.5293C732.202 25.7803 732.134 24.1966 731.998 22.7784C731.888 21.3366 731.466 20.1075 730.73 19.0912C730.021 18.0748 728.876 17.2948 727.294 16.7512C725.713 16.1839 723.463 15.9003 720.546 15.9003H716.538V39.123H720.546Z" fill="black"/>
<path d="M773.134 0.938477H809.78V16.3257L804.545 17.2121V39.123L809.78 40.0093V55.3966H773.134V40.0093L778.369 39.123V17.2121L773.134 16.3257V0.938477Z" fill="black"/>
<path fill-rule="evenodd" clip-rule="evenodd" d="M499.262 55.8665H471.775L471.513 55.437C470.692 54.0893 469.845 52.6595 468.97 51.1479C468.09 49.6272 467.239 48.0481 466.415 46.4107C465.588 44.7673 464.817 43.0654 464.102 41.3052C463.566 39.9889 463.093 38.6466 462.68 37.2784V55.8665H429.429V39.0697L434.661 38.1866V17.6799L429.429 16.7968V0H465.96C470.7 0 474.815 0.189328 478.298 0.571599C481.771 0.952711 484.751 1.50345 487.224 2.23185C489.687 2.9337 491.725 3.81809 493.304 4.9034C494.886 5.94847 496.13 7.15632 497.015 8.53038C497.917 9.86599 498.511 11.3351 498.8 12.9303C499.109 14.4622 499.262 16.0843 499.262 17.795C499.262 19.5399 499.066 21.1443 498.666 22.6033C498.285 24.0689 497.597 25.4231 496.603 26.6606C495.602 27.9076 494.249 29.0323 492.568 30.0417L492.564 30.0443L492.56 30.0469C491.095 30.9052 489.304 31.7146 487.198 32.4792C487.656 33.1964 488.253 34.0098 488.995 34.9214C490.02 36.1573 491.127 37.4293 492.317 38.7376C493.509 40.026 494.702 41.291 495.894 42.5325C497.118 43.7544 498.165 44.8004 499.036 45.6703L499.262 45.8968V55.8665ZM495.185 43.0522C493.986 41.8041 492.787 40.5324 491.588 39.2372C490.389 37.9184 489.272 36.6349 488.236 35.3868C487.453 34.4254 486.819 33.5582 486.332 32.7852C486.175 32.5358 486.033 32.2961 485.906 32.0662C486.2 31.9658 486.488 31.8647 486.77 31.7629C488.864 31.0057 490.62 30.2119 492.038 29.3816C493.645 28.416 494.912 27.3563 495.839 26.2023C496.765 25.0484 497.406 23.7885 497.76 22.4226C498.141 21.0331 498.332 19.4906 498.332 17.795C498.332 16.123 498.182 14.5452 497.883 13.0615C497.61 11.5543 497.051 10.1767 496.207 8.92853C495.389 7.65684 494.231 6.52645 492.732 5.53735C491.261 4.52471 489.326 3.67691 486.928 2.99397C484.53 2.28747 481.615 1.74583 478.181 1.36903C474.748 0.992233 470.674 0.803834 465.96 0.803834H430.359V16.1348L435.591 17.0179V38.8486L430.359 39.7317V55.0627H461.75V35.6694H463.181C463.671 37.5063 464.271 39.296 464.979 41.0387C465.688 42.7814 466.451 44.4652 467.268 46.0902C468.085 47.7151 468.93 49.2812 469.802 50.7884C470.674 52.2956 471.519 53.7203 472.336 55.0627H498.332V46.1961C497.46 45.3248 496.411 44.2768 495.185 43.0522ZM465.943 24.2726L465.945 24.2724C467.164 24.1627 468.142 23.9145 468.907 23.5538L468.912 23.5514L468.917 23.5491C469.672 23.204 470.245 22.7013 470.651 22.0196C471.048 21.3517 471.284 20.3869 471.284 19.0667C471.284 17.7709 471.048 16.8337 470.656 16.193L470.653 16.1887L470.651 16.1845C470.243 15.4994 469.664 14.9804 468.899 14.611L468.894 14.6085L468.888 14.6059C468.121 14.2242 467.143 13.9553 465.926 13.8238L465.924 13.8236C464.942 13.7152 463.861 13.6492 462.68 13.6268V24.4375C463.867 24.4188 464.955 24.3635 465.943 24.2726ZM462.68 25.2415C462.376 25.2462 462.066 25.2486 461.75 25.2486V12.8143C462.066 12.8143 462.376 12.8171 462.68 12.8227C463.897 12.8453 465.017 12.9132 466.042 13.0262C467.35 13.1675 468.453 13.4619 469.353 13.9093C470.279 14.3568 470.988 14.9926 471.478 15.8169C471.968 16.6176 472.214 17.7008 472.214 19.0667C472.214 20.4562 471.968 21.563 471.478 22.3873C470.988 23.2115 470.279 23.8356 469.353 24.2595C468.453 24.6834 467.35 24.9542 466.042 25.0719C465.017 25.1661 463.897 25.2227 462.68 25.2415ZM556.059 55.8665L553.852 46.7527H538.281L536.114 55.8665H511.168V36.6021L516.391 35.6847L528.487 0H563.642L575.779 35.6846L581.002 36.6021V55.8665H556.059ZM575.044 36.3759L562.946 0.803834H529.184L517.126 36.3759L512.099 37.259V55.0627H535.356L537.522 45.9489H554.607L556.815 55.0627H580.072V37.259L575.044 36.3759ZM551.092 33.8325L546.065 13.3794L541.037 33.8325H551.092ZM542.186 33.0286H549.944L546.065 17.2478L542.186 33.0286ZM622.072 39.0293V55.8665H594.053V39.0697L599.284 38.1866V17.6799L594.053 16.7968V0H626.878L646.371 25.8948V17.7405L641.139 16.7867V0H669.159V16.7968L663.927 17.6799V38.1866L669.159 39.0697V55.8665H636.305L616.84 31.209V38.1815L622.072 39.0293ZM615.91 38.8486V28.6044L636.797 55.0627H668.229V39.7317L662.997 38.8486V17.0179L668.229 16.1348V0.803834H642.069V16.1348L647.301 17.0885V28.6044L626.374 0.803834H594.983V16.1348L600.215 17.0179V38.8486L594.983 39.7317V55.0627H621.142V39.6964L615.91 38.8486ZM732.532 0L732.628 0.0177636C736.646 0.760154 740.279 1.84077 743.52 3.26515C746.778 4.67309 749.557 6.48718 751.846 8.70971C754.171 10.9402 755.934 13.6031 757.142 16.6853C758.382 19.7555 758.992 23.2974 758.992 27.2974C758.992 32.5876 757.967 37.0968 755.872 40.792L755.871 40.7939C753.786 44.4466 750.834 47.4031 747.021 49.6495C743.251 51.886 738.732 53.4763 733.484 54.4361C728.261 55.3916 722.5 55.8665 716.207 55.8665H683.885V39.0697L689.117 38.1866V16.3729L683.885 15.4898V0H732.532ZM690.047 15.7109V38.8486L684.815 39.7317V55.0627H716.207C722.447 55.0627 728.142 54.5917 733.292 53.6497C738.442 52.7077 742.843 51.1534 746.494 48.9868C750.173 46.8202 753.02 43.9707 755.037 40.4382C757.053 36.8822 758.062 32.5019 758.062 27.2974C758.062 23.3646 757.462 19.9145 756.263 16.9472C755.091 13.9564 753.388 11.3895 751.154 9.24645C748.947 7.10342 746.263 5.34895 743.102 3.98306C739.941 2.59362 736.385 1.53388 732.434 0.803834H684.815V14.8278L690.047 15.7109ZM729.598 35.2477L729.602 35.2419C730.242 34.3611 730.628 33.2821 730.729 31.9774L730.729 31.9708L730.73 31.9642C730.864 30.5777 730.931 29.0226 730.931 27.2974C730.931 25.5722 730.864 24.0171 730.73 22.6306L730.729 22.6236L730.729 22.6165C730.628 21.286 730.241 20.1964 729.602 19.3176L729.598 19.3118L729.594 19.306C729.014 18.4768 728.052 17.7988 726.614 17.3059L726.607 17.3037L726.601 17.3014C725.186 16.7954 723.08 16.5147 720.212 16.5147H717.137V38.0448H720.212C723.078 38.0448 725.187 37.7764 726.607 37.2911C728.047 36.7752 729.012 36.085 729.594 35.2535L729.598 35.2477ZM726.956 38.0361C725.376 38.5778 723.128 38.8486 720.212 38.8486H716.207V15.7109H720.212C723.128 15.7109 725.376 15.9935 726.956 16.5587C728.537 17.1003 729.681 17.8775 730.39 18.8901C731.126 19.9028 731.548 21.1273 731.657 22.5639C731.793 23.9769 731.861 25.5547 731.861 27.2974C731.861 29.0401 731.793 30.6179 731.657 32.0309C731.548 33.4439 731.126 34.6567 730.39 35.6694C729.681 36.682 728.537 37.4709 726.956 38.0361ZM771.838 0H810.321V16.7968L805.089 17.6799V38.1866L810.321 39.0697V55.8665H771.838V39.0697L777.07 38.1866V17.6799L771.838 16.7968V0ZM778 17.0179V38.8486L772.768 39.7317V55.0627H809.391V39.7317L804.159 38.8486V17.0179L809.391 16.1348V0.803834H772.768V16.1348L778 17.0179Z" fill="black"/>
<path fill-rule="evenodd" clip-rule="evenodd" d="M507.39 55.8665H479.902L479.641 55.437C478.82 54.0893 477.972 52.6595 477.098 51.1478C476.218 49.6272 475.366 48.0481 474.542 46.4107C473.716 44.7673 472.945 43.0654 472.229 41.3052C471.694 39.9889 471.22 38.6466 470.808 37.2783V55.8665H437.556V39.0697L442.788 38.1866V17.6799L437.556 16.7968V0H474.087C478.828 0 482.943 0.189328 486.426 0.571599C489.899 0.95271 492.878 1.50345 495.352 2.23185C497.815 2.9337 499.852 3.81808 501.432 4.9034C503.014 5.94847 504.257 7.15632 505.142 8.53038C506.045 9.86599 506.638 11.3351 506.928 12.9303C507.237 14.4622 507.39 16.0843 507.39 17.795C507.39 19.5399 507.194 21.1443 506.794 22.6033C506.413 24.0689 505.724 25.4231 504.73 26.6606C503.729 27.9076 502.376 29.0323 500.696 30.0417L500.691 30.0443L500.687 30.0469C499.222 30.9052 497.431 31.7146 495.326 32.4792C495.783 33.1964 496.38 34.0098 497.122 34.9214C498.148 36.1572 499.255 37.4293 500.444 38.7376C501.637 40.026 502.829 41.291 504.022 42.5324C505.245 43.7544 506.293 44.8004 507.163 45.6703L507.39 45.8968V55.8665ZM503.312 43.0522C502.113 41.8041 500.914 40.5324 499.715 39.2372C498.516 37.9184 497.399 36.6349 496.364 35.3868C495.581 34.4254 494.946 33.5582 494.459 32.7852C494.302 32.5358 494.16 32.2961 494.034 32.0662C494.328 31.9658 494.615 31.8647 494.897 31.7629C496.992 31.0057 498.748 30.2119 500.165 29.3816C501.773 28.416 503.04 27.3563 503.966 26.2023C504.893 25.0484 505.533 23.7885 505.887 22.4226C506.269 21.0331 506.46 19.4906 506.46 17.795C506.46 16.123 506.31 14.5452 506.01 13.0615C505.738 11.5543 505.179 10.1767 504.334 8.92853C503.517 7.65684 502.359 6.52644 500.86 5.53735C499.388 4.52471 497.454 3.67691 495.056 2.99397C492.658 2.28747 489.742 1.74583 486.309 1.36903C482.875 0.992233 478.802 0.803834 474.087 0.803834H438.486V16.1348L443.718 17.0179V38.8486L438.486 39.7317V55.0627H469.877V35.6694H471.308C471.799 37.5063 472.398 39.296 473.106 41.0387C473.815 42.7814 474.578 44.4652 475.395 46.0902C476.213 47.7151 477.058 49.2812 477.93 50.7884C478.802 52.2955 479.646 53.7203 480.464 55.0627H506.46V46.1961C505.588 45.3248 504.539 44.2768 503.312 43.0522ZM474.071 24.2726L474.073 24.2724C475.292 24.1627 476.269 23.9145 477.035 23.5538L477.04 23.5514L477.045 23.5491C477.799 23.204 478.373 22.7013 478.778 22.0196C479.176 21.3517 479.411 20.3869 479.411 19.0667C479.411 17.7709 479.176 16.8337 478.783 16.193L478.781 16.1887L478.778 16.1845C478.371 15.4994 477.791 14.9804 477.026 14.611L477.021 14.6085L477.016 14.6059C476.249 14.2242 475.271 13.9553 474.054 13.8238L474.051 13.8236C473.07 13.7152 471.989 13.6492 470.808 13.6268V24.4375C471.995 24.4188 473.082 24.3635 474.071 24.2726ZM470.808 25.2415C470.504 25.2462 470.193 25.2486 469.877 25.2486V12.8143C470.193 12.8143 470.504 12.8171 470.808 12.8227C472.024 12.8453 473.145 12.9132 474.169 13.0262C475.477 13.1675 476.581 13.4619 477.48 13.9093C478.406 14.3568 479.115 14.9926 479.605 15.8169C480.096 16.6175 480.341 17.7008 480.341 19.0667C480.341 20.4562 480.096 21.563 479.605 22.3873C479.115 23.2115 478.406 23.8356 477.48 24.2595C476.581 24.6834 475.477 24.9542 474.169 25.0719C473.145 25.1661 472.024 25.2227 470.808 25.2415ZM564.186 55.8665L561.979 46.7527H546.408L544.242 55.8665H519.296V36.6021L524.519 35.6847L536.615 0H571.769L583.906 35.6846L589.129 36.6021V55.8665H564.186ZM583.172 36.3759L571.073 0.803834H537.311L525.253 36.3759L520.226 37.259V55.0627H543.483L545.65 45.9489H562.735L564.942 55.0627H588.199V37.259L583.172 36.3759ZM559.22 33.8325L554.192 13.3794L549.165 33.8325H559.22ZM550.313 33.0286H558.071L554.192 17.2478L550.313 33.0286ZM630.2 39.0293V55.8665H602.18V39.0697L607.412 38.1866V17.6799L602.18 16.7968V0H635.006L654.499 25.8948V17.7405L649.267 16.7867V0H677.286V16.7968L672.054 17.6799V38.1866L677.286 39.0697V55.8665H644.433L624.968 31.2089V38.1815L630.2 39.0293ZM624.038 38.8486V28.6044L644.924 55.0627H676.356V39.7317L671.124 38.8486V17.0179L676.356 16.1348V0.803834H650.197V16.1348L655.429 17.0885V28.6044L634.501 0.803834H603.11V16.1348L608.342 17.0179V38.8486L603.11 39.7317V55.0627H629.269V39.6964L624.038 38.8486ZM740.659 0L740.755 0.0177636C744.773 0.760154 748.406 1.84077 751.647 3.26515C754.905 4.67308 757.684 6.48718 759.974 8.7097C762.299 10.9402 764.062 13.6031 765.27 16.6853C766.51 19.7554 767.119 23.2974 767.119 27.2974C767.119 32.5876 766.095 37.0968 763.999 40.7919L763.998 40.7938C761.913 44.4466 758.961 47.4031 755.148 49.6495C751.379 51.886 746.86 53.4763 741.612 54.4361C736.388 55.3916 730.627 55.8665 724.334 55.8665H692.013V39.0697L697.245 38.1866V16.3729L692.013 15.4898V0H740.659ZM698.175 15.7109V38.8486L692.943 39.7317V55.0627H724.334C730.574 55.0627 736.269 54.5917 741.419 53.6497C746.569 52.7077 750.97 51.1534 754.622 48.9868C758.3 46.8202 761.148 43.9707 763.164 40.4382C765.181 36.8822 766.189 32.5019 766.189 27.2974C766.189 23.3646 765.589 19.9145 764.39 16.9472C763.219 13.9564 761.516 11.3895 759.281 9.24645C757.074 7.10342 754.39 5.34895 751.229 3.98306C748.068 2.59362 744.512 1.53388 740.561 0.803834H692.943V14.8278L698.175 15.7109ZM737.725 35.2477L737.73 35.2419C738.37 34.361 738.756 33.2821 738.856 31.9774L738.857 31.9708L738.857 31.9642C738.991 30.5777 739.059 29.0226 739.059 27.2974C739.059 25.5722 738.991 24.0171 738.857 22.6306L738.857 22.6236L738.856 22.6165C738.755 21.286 738.368 20.1964 737.73 19.3176L737.725 19.3118L737.721 19.306C737.141 18.4768 736.179 17.7988 734.741 17.3059L734.735 17.3037L734.728 17.3014C733.313 16.7954 731.207 16.5147 728.34 16.5147H725.264V38.0448H728.34C731.205 38.0448 733.314 37.7764 734.735 37.2911C736.174 36.7752 737.14 36.085 737.721 35.2534L737.725 35.2477ZM735.084 38.0361C733.503 38.5778 731.255 38.8486 728.34 38.8486H724.334V15.7109H728.34C731.255 15.7109 733.503 15.9935 735.084 16.5587C736.664 17.1003 737.809 17.8775 738.517 18.8901C739.253 19.9028 739.675 21.1273 739.784 22.5639C739.921 23.9769 739.989 25.5547 739.989 27.2974C739.989 29.0401 739.921 30.6179 739.784 32.0309C739.675 33.4439 739.253 34.6567 738.517 35.6694C737.809 36.682 736.664 37.4709 735.084 38.0361ZM779.965 0H818.449V16.7968L813.217 17.6799V38.1866L818.449 39.0697V55.8665H779.965V39.0697L785.197 38.1866V17.6799L779.965 16.7968V0ZM786.127 17.0179V38.8486L780.895 39.7317V55.0627H817.518V39.7317L812.287 38.8486V17.0179L817.518 16.1348V0.803834H780.895V16.1348L786.127 17.0179Z" fill="black"/>
<path d="M484.675 66.1953C488.605 67.0142 491.527 68.3611 493.443 70.2359C495.383 72.1108 496.353 74.6321 496.353 77.8C496.353 79.9119 496.092 81.6897 495.569 83.1336C495.047 84.5559 494.388 85.7411 493.592 86.6893C492.796 87.616 491.925 88.3379 490.98 88.8551C490.06 89.3507 489.202 89.7171 488.406 89.9541C487.61 90.1912 486.926 90.3312 486.354 90.3743C485.807 90.4174 485.521 90.439 485.496 90.439C486.466 90.4821 487.498 90.5791 488.592 90.7299C489.712 90.8808 490.819 91.1178 491.913 91.4411C493.007 91.7643 494.052 92.1845 495.047 92.7017C496.042 93.2189 496.913 93.8654 497.659 94.6412C498.43 95.3955 499.039 96.3006 499.487 97.3565C499.935 98.4125 500.158 99.63 500.158 101.009C500.158 103.121 499.848 105.082 499.226 106.892C498.629 108.703 497.559 110.276 496.017 111.612C494.5 112.926 492.423 113.961 489.786 114.715C487.15 115.469 483.817 115.846 479.787 115.846H436.471V101.817L441.246 101.009V79.8364L436.471 79.0283V66.1953H484.675ZM476.28 82.0992C476.28 81.0001 476.056 80.1597 475.609 79.5778C475.186 78.9744 474.614 78.5327 473.892 78.2525C473.171 77.9724 472.35 77.8107 471.43 77.7676C470.51 77.7245 469.577 77.703 468.632 77.703H465.125V86.9802H468.632C469.577 86.9802 470.51 86.9587 471.43 86.9156C472.35 86.8509 473.171 86.6678 473.892 86.3661C474.614 86.0644 475.186 85.5903 475.609 84.9438C476.056 84.2757 476.28 83.3275 476.28 82.0992ZM476.28 98.2293C476.28 97.1303 476.056 96.2898 475.609 95.708C475.186 95.1261 474.614 94.6951 473.892 94.415C473.171 94.1348 472.35 93.9732 471.43 93.9301C470.51 93.887 469.577 93.8654 468.632 93.8654H465.125V103.143H468.632C469.577 103.143 470.51 103.121 471.43 103.078C472.35 103.013 473.171 102.83 473.892 102.529C474.614 102.227 475.186 101.742 475.609 101.074C476.056 100.406 476.28 99.4576 476.28 98.2293Z" fill="black"/>
<path d="M566.57 81.0324C566.545 81.722 566.533 82.4009 566.533 83.0689C566.533 83.7154 566.533 84.3511 566.533 84.9761V90.439C566.533 95.0076 565.811 98.9512 564.369 102.27C562.951 105.567 560.998 108.293 558.511 110.448C556.048 112.582 553.163 114.112 549.855 115.038C546.547 115.965 543.027 116.428 539.296 116.428C536.386 116.428 533.588 116.256 530.902 115.911C528.24 115.588 525.753 114.974 523.44 114.069C521.127 113.142 519.025 111.978 517.134 110.577C515.244 109.155 513.615 107.474 512.247 105.535C510.904 103.574 509.859 101.343 509.113 98.8435C508.391 96.3437 508.031 93.5422 508.031 90.439V81.0324L503.255 80.2243V66.1953H534.26V80.2243L529.484 81.0324V85.2024C529.484 85.7411 529.484 86.2906 529.484 86.8509C529.484 87.3897 529.484 87.8961 529.484 88.3702C529.509 88.8443 529.521 89.2645 529.521 89.6309C529.521 89.9972 529.521 90.2666 529.521 90.439C529.521 90.9777 529.534 91.6027 529.559 92.3138C529.583 93.025 529.683 93.7685 529.857 94.5443C530.056 95.2985 530.342 96.0528 530.715 96.807C531.088 97.5613 531.623 98.2401 532.319 98.8435C533.041 99.4253 533.936 99.8994 535.006 100.266C536.1 100.632 537.443 100.815 539.035 100.815C540.627 100.815 541.958 100.632 543.027 100.266C544.122 99.8994 545.03 99.4253 545.751 98.8435C546.472 98.2401 547.02 97.5613 547.393 96.807C547.791 96.0528 548.077 95.2985 548.251 94.5443C548.425 93.7685 548.524 93.025 548.549 92.3138C548.599 91.6027 548.624 90.9777 548.624 90.439C548.624 90.2666 548.624 89.9972 548.624 89.6309C548.624 89.2645 548.611 88.8443 548.587 88.3702C548.587 87.8961 548.587 87.3897 548.587 86.8509C548.587 86.2906 548.587 85.7411 548.587 85.2024V81.0324L543.811 80.2243V66.1953H571.345V80.2243L566.57 81.0324Z" fill="black"/>
<path d="M596.642 91.635V101.009L601.417 101.785V115.846H577.539V101.817L582.315 101.009V81.0324L577.539 80.2243V66.1953H606.193L625.295 91.635V81.0971L620.52 80.2243V66.1953H644.398V80.2243L639.622 81.0324V101.009L644.398 101.817V115.846H615.707L596.642 91.635Z" fill="black"/>
<path d="M671.112 91.635V101.009L675.887 101.785V115.846H652.009V101.817L656.785 101.009V81.0324L652.009 80.2243V66.1953H680.663L699.766 91.635V81.0971L694.99 80.2243V66.1953H718.868V80.2243L714.093 81.0324V101.009L718.868 101.817V115.846H690.177L671.112 91.635Z" fill="black"/>
<path d="M740.881 115.846V101.882L745.657 100.848L729.278 81.0001L723.234 80.2243V66.1953H755.096V80.2243L751.365 81.0001L758.939 91.1501L766.513 81.0001L762.782 80.2243V66.1953H794.607V80.2243L788.6 81.0001L772.221 100.848L776.997 101.882V115.846H740.881Z" fill="black"/>
<mask id="path-5-outside-1_816_1211" maskUnits="userSpaceOnUse" x="446.933" y="59.9702" width="363" height="55" fill="black">
<rect fill="white" x="446.933" y="59.9702" width="363" height="55"/>
<path d="M505.905 66.0108C503.99 64.136 501.067 62.7891 497.137 61.9702H448.933V74.8032L453.709 75.6113V96.7841L448.933 97.5923V111.621H492.25C496.279 111.621 499.612 111.244 502.249 110.49C504.885 109.736 506.962 108.701 508.479 107.387C510.022 106.051 511.091 104.477 511.688 102.667C512.31 100.857 512.621 98.896 512.621 96.7841C512.621 95.4049 512.397 94.1874 511.949 93.1314C511.502 92.0755 510.892 91.1704 510.121 90.4161C509.375 89.6403 508.504 88.9938 507.509 88.4766C506.515 87.9594 505.47 87.5392 504.375 87.216C503.281 86.8927 502.174 86.6557 501.055 86.5048C499.96 86.354 498.928 86.257 497.958 86.2139C497.983 86.2139 498.269 86.1924 498.816 86.1493C499.388 86.1062 500.072 85.9661 500.868 85.729C501.664 85.492 502.522 85.1256 503.443 84.63C504.388 84.1128 505.258 83.3909 506.054 82.4642C506.85 81.516 507.509 80.3308 508.032 78.9085C508.554 77.4646 508.815 75.6868 508.815 73.5749C508.815 70.407 507.845 67.8857 505.905 66.0108Z"/>
<path d="M578.995 78.8438C578.995 78.1758 579.007 77.4969 579.032 76.8074L583.808 75.9992V61.9702H556.273V75.9992L561.049 76.8074V80.9773V82.6258V84.1451C561.074 84.6192 561.086 85.0394 561.086 85.4058V86.2139C561.086 86.7526 561.061 87.3776 561.012 88.0887C560.987 88.7999 560.887 89.5434 560.713 90.3192C560.539 91.0734 560.253 91.8277 559.855 92.5819C559.482 93.3362 558.935 94.015 558.213 94.6184C557.492 95.2002 556.584 95.6743 555.49 96.0407C554.42 96.407 553.09 96.5902 551.498 96.5902C549.906 96.5902 548.563 96.407 547.468 96.0407C546.399 95.6743 545.503 95.2002 544.782 94.6184C544.085 94.015 543.551 93.3362 543.178 92.5819C542.804 91.8277 542.518 91.0734 542.319 90.3192C542.145 89.5434 542.046 88.7999 542.021 88.0887C541.996 87.3776 541.984 86.7526 541.984 86.2139V85.4058C541.984 85.0394 541.971 84.6192 541.946 84.1451V82.6258V80.9773V76.8074L546.722 75.9992V61.9702H515.718V75.9992L520.493 76.8074V86.2139C520.493 89.3171 520.854 92.1186 521.575 94.6184C522.321 97.1182 523.366 99.3486 524.709 101.31C526.077 103.249 527.706 104.93 529.597 106.352C531.487 107.753 533.589 108.917 535.902 109.843C538.215 110.749 540.703 111.363 543.364 111.686C546.05 112.031 548.849 112.203 551.759 112.203C555.49 112.203 559.009 111.74 562.317 110.813C565.626 109.887 568.511 108.356 570.973 106.223C573.461 104.068 575.413 101.342 576.831 98.0448C578.274 94.7261 578.995 90.7825 578.995 86.2139V80.751V78.8438Z"/>
<path d="M609.104 96.7841V87.4099L628.169 111.621H656.86V97.5923L652.085 96.7841V76.8074L656.86 75.9992V61.9702H632.982V75.9992L637.758 76.872V87.4099L618.655 61.9702H590.001V75.9992L594.777 76.8074V96.7841L590.001 97.5923V111.621H613.88V97.5599L609.104 96.7841Z"/>
<path d="M683.574 96.7841V87.4099L702.64 111.621H731.331V97.5923L726.555 96.7841V76.8074L731.331 75.9992V61.9702H707.452V75.9992L712.228 76.872V87.4099L693.126 61.9702H664.472V75.9992L669.247 76.8074V96.7841L664.472 97.5923V111.621H688.35V97.5599L683.574 96.7841Z"/>
<path d="M753.343 97.6569V111.621H789.459V97.6569L784.684 96.6225L801.063 76.775L807.07 75.9992V61.9702H775.244V75.9992L778.975 76.775L771.401 86.925L763.828 76.775L767.558 75.9992V61.9702H735.696V75.9992L741.74 76.775L758.119 96.6225L753.343 97.6569Z"/>
</mask>
<path d="M505.905 66.0108C503.99 64.136 501.067 62.7891 497.137 61.9702H448.933V74.8032L453.709 75.6113V96.7841L448.933 97.5923V111.621H492.25C496.279 111.621 499.612 111.244 502.249 110.49C504.885 109.736 506.962 108.701 508.479 107.387C510.022 106.051 511.091 104.477 511.688 102.667C512.31 100.857 512.621 98.896 512.621 96.7841C512.621 95.4049 512.397 94.1874 511.949 93.1314C511.502 92.0755 510.892 91.1704 510.121 90.4161C509.375 89.6403 508.504 88.9938 507.509 88.4766C506.515 87.9594 505.47 87.5392 504.375 87.216C503.281 86.8927 502.174 86.6557 501.055 86.5048C499.96 86.354 498.928 86.257 497.958 86.2139C497.983 86.2139 498.269 86.1924 498.816 86.1493C499.388 86.1062 500.072 85.9661 500.868 85.729C501.664 85.492 502.522 85.1256 503.443 84.63C504.388 84.1128 505.258 83.3909 506.054 82.4642C506.85 81.516 507.509 80.3308 508.032 78.9085C508.554 77.4646 508.815 75.6868 508.815 73.5749C508.815 70.407 507.845 67.8857 505.905 66.0108Z" stroke="black" stroke-width="4" mask="url(#path-5-outside-1_816_1211)"/>
<path d="M578.995 78.8438C578.995 78.1758 579.007 77.4969 579.032 76.8074L583.808 75.9992V61.9702H556.273V75.9992L561.049 76.8074V80.9773V82.6258V84.1451C561.074 84.6192 561.086 85.0394 561.086 85.4058V86.2139C561.086 86.7526 561.061 87.3776 561.012 88.0887C560.987 88.7999 560.887 89.5434 560.713 90.3192C560.539 91.0734 560.253 91.8277 559.855 92.5819C559.482 93.3362 558.935 94.015 558.213 94.6184C557.492 95.2002 556.584 95.6743 555.49 96.0407C554.42 96.407 553.09 96.5902 551.498 96.5902C549.906 96.5902 548.563 96.407 547.468 96.0407C546.399 95.6743 545.503 95.2002 544.782 94.6184C544.085 94.015 543.551 93.3362 543.178 92.5819C542.804 91.8277 542.518 91.0734 542.319 90.3192C542.145 89.5434 542.046 88.7999 542.021 88.0887C541.996 87.3776 541.984 86.7526 541.984 86.2139V85.4058C541.984 85.0394 541.971 84.6192 541.946 84.1451V82.6258V80.9773V76.8074L546.722 75.9992V61.9702H515.718V75.9992L520.493 76.8074V86.2139C520.493 89.3171 520.854 92.1186 521.575 94.6184C522.321 97.1182 523.366 99.3486 524.709 101.31C526.077 103.249 527.706 104.93 529.597 106.352C531.487 107.753 533.589 108.917 535.902 109.843C538.215 110.749 540.703 111.363 543.364 111.686C546.05 112.031 548.849 112.203 551.759 112.203C555.49 112.203 559.009 111.74 562.317 110.813C565.626 109.887 568.511 108.356 570.973 106.223C573.461 104.068 575.413 101.342 576.831 98.0448C578.274 94.7261 578.995 90.7825 578.995 86.2139V80.751V78.8438Z" stroke="black" stroke-width="4" mask="url(#path-5-outside-1_816_1211)"/>
<path d="M609.104 96.7841V87.4099L628.169 111.621H656.86V97.5923L652.085 96.7841V76.8074L656.86 75.9992V61.9702H632.982V75.9992L637.758 76.872V87.4099L618.655 61.9702H590.001V75.9992L594.777 76.8074V96.7841L590.001 97.5923V111.621H613.88V97.5599L609.104 96.7841Z" stroke="black" stroke-width="4" mask="url(#path-5-outside-1_816_1211)"/>
<path d="M683.574 96.7841V87.4099L702.64 111.621H731.331V97.5923L726.555 96.7841V76.8074L731.331 75.9992V61.9702H707.452V75.9992L712.228 76.872V87.4099L693.126 61.9702H664.472V75.9992L669.247 76.8074V96.7841L664.472 97.5923V111.621H688.35V97.5599L683.574 96.7841Z" stroke="black" stroke-width="4" mask="url(#path-5-outside-1_816_1211)"/>
<path d="M753.343 97.6569V111.621H789.459V97.6569L784.684 96.6225L801.063 76.775L807.07 75.9992V61.9702H775.244V75.9992L778.975 76.775L771.401 86.925L763.828 76.775L767.558 75.9992V61.9702H735.696V75.9992L741.74 76.775L758.119 96.6225L753.343 97.6569Z" stroke="black" stroke-width="4" mask="url(#path-5-outside-1_816_1211)"/>
<path d="M405.86 70.8892C405.86 84.6412 397.205 96.9445 385 96.9445C397.205 96.9445 405.86 109.249 405.86 123C405.86 109.249 414.514 96.9445 426.719 96.9445C414.514 96.9445 405.86 84.6412 405.86 70.8892Z" fill="black"/>
<path fill-rule="evenodd" clip-rule="evenodd" d="M385 91.546C386.332 91.546 387.621 91.6938 388.862 91.9752C397.415 93.9154 403.644 102.205 405.375 112.181C405.693 114.018 405.86 115.913 405.86 117.836C405.86 115.913 406.026 114.018 406.345 112.181C408.076 102.205 414.304 93.9154 422.857 91.9752C424.098 91.6938 425.388 91.546 426.719 91.546C425.388 91.546 424.098 91.3982 422.857 91.1168C414.304 89.1767 408.076 80.8872 406.345 70.9113C406.026 69.0737 405.86 67.1788 405.86 65.2559C405.86 67.1788 405.693 69.0737 405.375 70.9113C403.644 80.8872 397.415 89.1767 388.862 91.1168C387.621 91.3982 386.332 91.546 385 91.546ZM390.503 91.546C394.619 92.829 398.127 95.5149 400.807 99.0295C403.138 102.086 404.868 105.796 405.86 109.838C406.851 105.796 408.581 102.086 410.912 99.0295C413.592 95.5149 417.1 92.829 421.216 91.546C417.1 90.2631 413.592 87.5773 410.912 84.0627C408.581 81.0062 406.851 77.2959 405.86 73.2542C404.868 77.2959 403.138 81.0062 400.807 84.0627C398.127 87.5773 394.619 90.2631 390.503 91.546Z" fill="black"/>
<path d="M837.14 61.0308C837.14 74.9067 828.486 87.3209 816.281 87.3209C828.486 87.3209 837.14 99.736 837.14 113.611C837.14 99.736 845.795 87.3209 858 87.3209C845.795 87.3209 837.14 74.9067 837.14 61.0308Z" fill="black"/>
<path fill-rule="evenodd" clip-rule="evenodd" d="M816.281 82.1578C817.613 82.1578 818.902 82.3056 820.143 82.587C828.696 84.5272 834.925 92.8172 836.655 102.793C836.974 104.63 837.14 106.525 837.14 108.448C837.14 106.525 837.307 104.63 837.625 102.793C839.356 92.8172 845.585 84.5272 854.138 82.587C855.379 82.3056 856.668 82.1578 858 82.1578C856.668 82.1578 855.379 82.01 854.138 81.7286C845.585 79.7885 839.356 71.499 837.625 61.5231C837.307 59.6855 837.14 57.7906 837.14 55.8677C837.14 57.7906 836.974 59.6855 836.655 61.5231C834.925 71.499 828.696 79.7885 820.143 81.7286C818.902 82.01 817.613 82.1578 816.281 82.1578ZM821.784 82.1578C825.9 83.4408 829.408 86.1268 832.088 89.6414C834.419 92.698 836.149 96.4083 837.14 100.45C838.132 96.4083 839.862 92.698 842.193 89.6414C844.873 86.1268 848.381 83.4408 852.497 82.1578C848.381 80.8749 844.873 78.1891 842.193 74.6746C839.862 71.618 838.132 67.9077 837.14 63.866C836.149 67.9077 834.419 71.618 832.088 74.6746C829.408 78.1891 825.9 80.8749 821.784 82.1578Z" fill="black"/>
<rect x="190" y="23" width="47.6" height="45.2393" fill="#252424"/>
<rect x="237.601" y="23" width="47.6" height="45.2393" fill="#E4D7CA"/>
<rect x="285.199" y="24.1899" width="47.6" height="45.2393" fill="#252424"/>
<rect x="332.8" y="24.1899" width="47.6" height="45.2393" fill="#E4D7CA"/>
<rect x="237.601" y="69.4297" width="47.6" height="45.2393" fill="#252424"/>
<rect x="190" y="69.4297" width="47.6" height="45.2393" fill="#E4D7CA"/>
<rect x="332.8" y="69.4297" width="47.6" height="45.2393" fill="#252424"/>
<rect x="285.199" y="69.4297" width="47.6" height="45.2393" fill="#E4D7CA"/>
<rect x="1054.4" y="113.669" width="47.6" height="45.2393" transform="rotate(-180 1054.4 113.669)" fill="#252424"/>
<rect x="1006.8" y="113.669" width="47.6" height="45.2393" transform="rotate(-180 1006.8 113.669)" fill="#E4D7CA"/>
<rect x="959.201" y="112.479" width="47.6" height="45.2393" transform="rotate(-180 959.201 112.479)" fill="#252424"/>
<rect x="911.6" y="112.479" width="47.6" height="45.2393" transform="rotate(-180 911.6 112.479)" fill="#E4D7CA"/>
<rect x="1006.8" y="67.2393" width="47.6" height="45.2393" transform="rotate(-180 1006.8 67.2393)" fill="#252424"/>
<rect x="1054.4" y="67.2393" width="47.6" height="45.2393" transform="rotate(-180 1054.4 67.2393)" fill="#E4D7CA"/>
<rect x="911.6" y="67.2393" width="47.6" height="45.2393" transform="rotate(-180 911.6 67.2393)" fill="#252424"/>
<rect x="959.201" y="67.2393" width="47.6" height="45.2393" transform="rotate(-180 959.201 67.2393)" fill="#E4D7CA"/>
<rect y="22" width="47.6" height="45.2393" fill="#252424"/>
<rect x="47.6006" y="22" width="47.6" height="45.2393" fill="#E4D7CA"/>
<rect x="95.1992" y="23.1899" width="47.6" height="45.2393" fill="#252424"/>
<rect x="142.8" y="23.1899" width="47.6" height="45.2393" fill="#E4D7CA"/>
<rect x="142.8" y="68.4297" width="47.6" height="45.2393" fill="#252424"/>
<rect x="95.1992" y="68.4297" width="47.6" height="45.2393" fill="#E4D7CA"/>
<rect x="47.6006" y="68" width="47.6" height="45.2393" fill="#252424"/>
<rect y="68" width="47.6" height="45.2393" fill="#E4D7CA"/>
<rect x="1244.4" y="114.669" width="47.6" height="45.2393" transform="rotate(-180 1244.4 114.669)" fill="#252424"/>
<rect x="1196.8" y="114.669" width="47.6" height="45.2393" transform="rotate(-180 1196.8 114.669)" fill="#E4D7CA"/>
<rect x="1149.2" y="113.479" width="47.6" height="45.2393" transform="rotate(-180 1149.2 113.479)" fill="#252424"/>
<rect x="1101.6" y="113.479" width="47.6" height="45.2393" transform="rotate(-180 1101.6 113.479)" fill="#E4D7CA"/>
<rect x="1101.6" y="68.2393" width="47.6" height="45.2393" transform="rotate(-180 1101.6 68.2393)" fill="#252424"/>
<rect x="1197.6" y="69.2393" width="47.6" height="45.2393" transform="rotate(-180 1197.6 69.2393)" fill="#252424"/>
<rect x="1149.2" y="68.2393" width="47.6" height="45.2393" transform="rotate(-180 1149.2 68.2393)" fill="#E4D7CA"/>
<rect x="1245.2" y="69.2393" width="47.6" height="45.2393" transform="rotate(-180 1245.2 69.2393)" fill="#E4D7CA"/>
</svg>
