<svg width="358" height="106" viewBox="0 0 358 106" fill="none" xmlns="http://www.w3.org/2000/svg">
<rect x="34" y="10" width="241" height="70" rx="15" fill="#0E0D0D"/>
<rect x="59" y="1" width="239" height="68" rx="14" fill="#0C0C0C" stroke="white" stroke-width="2"/>
<path d="M124.105 23.984H130.537L139.305 35.856V23.984H145.033V46H138.633L129.801 34.544V46H124.105V23.984ZM155.599 23.984H171.055V28.848H163.375V32.848H170.383V36.88H163.375V41.136H171.055V46H155.599V23.984ZM179.622 23.984H186.822L188.902 38.032L191.046 27.728H198.502L200.678 38.032L202.758 23.984H209.958L204.966 46H197.51L194.79 34.16L192.07 46H184.614L179.622 23.984ZM225.934 46.512C222.926 46.512 220.387 45.9573 218.318 44.848L219.918 39.888C222.115 40.6773 224.078 41.072 225.806 41.072C226.744 41.072 227.427 40.9653 227.854 40.752C228.302 40.5173 228.526 40.176 228.526 39.728C228.526 39.4293 228.408 39.1733 228.174 38.96C227.939 38.7253 227.47 38.4693 226.766 38.192C226.062 37.9147 225.006 37.5733 223.598 37.168C221.87 36.656 220.526 35.824 219.566 34.672C218.606 33.4987 218.126 32.1547 218.126 30.64C218.126 28.2933 218.894 26.5227 220.43 25.328C221.987 24.112 224.078 23.504 226.702 23.504C228.067 23.504 229.411 23.6533 230.734 23.952C232.056 24.2293 233.23 24.6453 234.254 25.2L232.526 30.032C231.331 29.6267 230.286 29.3387 229.39 29.168C228.515 28.976 227.662 28.88 226.83 28.88C225.422 28.88 224.718 29.264 224.718 30.032C224.718 30.416 224.942 30.7467 225.39 31.024C225.859 31.28 226.808 31.6107 228.238 32.016C230.478 32.6133 232.174 33.5307 233.326 34.768C234.478 35.984 235.054 37.4453 235.054 39.152C235.054 41.52 234.286 43.344 232.75 44.624C231.214 45.8827 228.942 46.512 225.934 46.512Z" fill="#F2E8D9"/>
</svg>
