<svg width="358" height="106" viewBox="0 0 358 106" fill="none" xmlns="http://www.w3.org/2000/svg">
<rect x="34" y="10" width="241" height="70" rx="15" fill="#0E0D0D"/>
<rect x="59" y="1" width="239" height="68" rx="14" fill="#0C0C0C" stroke="white" stroke-width="2"/>
<path d="M83.755 23.984H91.691C94.9763 23.984 97.515 24.624 99.307 25.904C101.12 27.184 102.027 28.976 102.027 31.28C102.027 32.7307 101.579 34 100.683 35.088C99.8083 36.176 98.603 37.0187 97.067 37.616C95.5523 38.192 93.867 38.48 92.011 38.48H90.667V46H83.755V23.984ZM92.043 34.032C93.1737 34.032 94.0483 33.7973 94.667 33.328C95.2857 32.8587 95.595 32.176 95.595 31.28C95.595 30.384 95.2857 29.712 94.667 29.264C94.0697 28.816 93.195 28.592 92.043 28.592H90.667V33.968C91.0937 34.0107 91.5523 34.032 92.043 34.032ZM127.608 46.512C123.598 46.512 121.144 44.656 120.248 40.944L119.448 37.648H117.944V46H110.936V23.984H120.632C122.467 23.984 124.078 24.2613 125.464 24.816C126.872 25.3493 127.96 26.1067 128.728 27.088C129.496 28.0693 129.88 29.2 129.88 30.48C129.88 31.9093 129.528 33.1147 128.824 34.096C128.142 35.056 127.075 35.8453 125.624 36.464C125.774 37.2747 125.944 38.0107 126.136 38.672C126.392 39.4827 126.744 40.048 127.192 40.368C127.64 40.688 128.291 40.848 129.144 40.848C129.443 40.848 129.912 40.8053 130.552 40.72V45.936C129.55 46.32 128.568 46.512 127.608 46.512ZM119.16 33.168C120.739 33.168 121.848 32.9973 122.488 32.656C123.15 32.2933 123.48 31.6853 123.48 30.832C123.48 30.1067 123.214 29.584 122.68 29.264C122.147 28.9227 121.304 28.752 120.152 28.752H117.944V33.168H119.16ZM150.212 46.512C147.908 46.512 145.86 46.0213 144.068 45.04C142.297 44.0587 140.91 42.704 139.908 40.976C138.926 39.2267 138.436 37.2427 138.436 35.024C138.436 32.784 138.926 30.7893 139.908 29.04C140.91 27.2907 142.297 25.936 144.068 24.976C145.86 23.9947 147.908 23.504 150.212 23.504C152.516 23.504 154.553 23.9947 156.324 24.976C158.116 25.936 159.502 27.2907 160.484 29.04C161.486 30.768 161.988 32.7627 161.988 35.024C161.988 37.2427 161.486 39.2267 160.484 40.976C159.502 42.704 158.116 44.0587 156.324 45.04C154.532 46.0213 152.494 46.512 150.212 46.512ZM150.212 40.688C151.556 40.688 152.654 40.1653 153.508 39.12C154.382 38.0747 154.82 36.6987 154.82 34.992C154.82 33.8613 154.617 32.8587 154.212 31.984C153.828 31.088 153.284 30.3947 152.58 29.904C151.876 29.392 151.076 29.136 150.18 29.136C149.305 29.136 148.516 29.392 147.812 29.904C147.108 30.3947 146.564 31.088 146.18 31.984C145.796 32.8587 145.604 33.8613 145.604 34.992C145.604 36.6987 146.03 38.0747 146.884 39.12C147.737 40.1653 148.846 40.688 150.212 40.688ZM171.455 23.984H181.023C183.327 23.984 185.364 24.4427 187.135 25.36C188.927 26.2773 190.314 27.5573 191.295 29.2C192.298 30.8427 192.799 32.72 192.799 34.832C192.799 37.0507 192.308 39.0027 191.327 40.688C190.367 42.3733 188.991 43.6853 187.199 44.624C185.428 45.5413 183.37 46 181.023 46H171.455V23.984ZM180.703 40.24C182.303 40.24 183.519 39.7387 184.351 38.736C185.204 37.712 185.631 36.3893 185.631 34.768C185.631 33.232 185.215 32.016 184.383 31.12C183.572 30.2027 182.346 29.744 180.703 29.744H178.527V40.24H180.703ZM212.98 46.512C210.868 46.512 208.98 46.1067 207.316 45.296C205.674 44.4853 204.394 43.3547 203.476 41.904C202.559 40.432 202.1 38.7573 202.1 36.88V23.984H209.332V36.88C209.332 38.16 209.642 39.12 210.26 39.76C210.879 40.4 211.786 40.72 212.98 40.72C214.175 40.72 215.082 40.4 215.7 39.76C216.319 39.0987 216.628 38.1387 216.628 36.88V23.984H223.86V36.88C223.86 38.7573 223.402 40.432 222.484 41.904C221.567 43.3547 220.276 44.4853 218.612 45.296C216.97 46.1067 215.092 46.512 212.98 46.512ZM244.592 46.512C242.458 46.512 240.517 46.0107 238.768 45.008C237.04 43.984 235.664 42.5973 234.64 40.848C233.637 39.0773 233.136 37.1253 233.136 34.992C233.136 32.816 233.626 30.8533 234.608 29.104C235.589 27.3547 236.933 25.9893 238.64 25.008C240.346 24.0053 242.266 23.504 244.4 23.504C245.552 23.504 246.682 23.6427 247.792 23.92C248.901 24.1973 249.85 24.592 250.64 25.104L249.776 30.064C248.24 29.488 246.853 29.2 245.616 29.2C243.909 29.2 242.597 29.7013 241.68 30.704C240.762 31.6853 240.304 33.104 240.304 34.96C240.304 36.7733 240.784 38.192 241.744 39.216C242.725 40.2187 244.08 40.72 245.808 40.72C246.469 40.72 247.088 40.656 247.664 40.528C248.24 40.4 248.944 40.1653 249.776 39.824L250.672 44.88C248.816 45.968 246.789 46.512 244.592 46.512ZM263.36 28.848H258.784V23.984H275.392V28.848H270.816V46H263.36V28.848Z" fill="#F2E8D9"/>
</svg>
