<svg width="426" height="99" viewBox="0 0 426 99" fill="none" xmlns="http://www.w3.org/2000/svg">
<path d="M102.248 44.5876H78.8203C78.0836 43.5032 77.3223 42.3522 76.5365 41.1346C75.7507 39.9171 74.9894 38.652 74.2527 37.3393C73.516 36.0266 72.8284 34.6663 72.1899 33.2585C71.5515 31.8507 71.0112 30.4049 70.5692 28.921H69.28V44.5876H40.9905V32.2027L45.7054 31.4893V13.8537L40.9905 13.1402V0.755371H73.074C77.3223 0.755371 80.9936 0.907566 84.0877 1.21196C87.1819 1.51635 89.8095 1.95391 91.9705 2.52464C94.1315 3.07635 95.875 3.76122 97.2011 4.57927C98.5517 5.3783 99.5954 6.29147 100.332 7.31879C101.093 8.32708 101.597 9.44001 101.842 10.6576C102.112 11.8561 102.248 13.1307 102.248 14.4815C102.248 15.8512 102.076 17.0973 101.732 18.2198C101.413 19.3232 100.835 20.341 100.001 21.2732C99.1656 22.2054 98.0237 23.0615 96.5749 23.8415C95.126 24.6024 93.2843 25.3254 91.0496 26.0102C91.5162 26.7712 92.216 27.6654 93.1492 28.6927C94.0824 29.701 95.0892 30.7378 96.1697 31.8032C97.2502 32.8495 98.3307 33.8768 99.4112 34.8851C100.516 35.8744 101.462 36.721 102.248 37.4249V44.5876ZM69.28 20.5027C70.7043 20.5027 71.9935 20.4551 73.1477 20.36C74.3264 20.2649 75.3209 20.0461 76.1313 19.7037C76.9662 19.3612 77.6047 18.8571 78.0467 18.1912C78.4888 17.5254 78.7098 16.6312 78.7098 15.5088C78.7098 14.4054 78.4888 13.5302 78.0467 12.8834C77.6047 12.2176 76.9662 11.7039 76.1313 11.3424C75.3209 10.981 74.3264 10.7432 73.1477 10.629C71.9935 10.5149 70.7043 10.4578 69.28 10.4578V20.5027Z" fill="black"/>
<path d="M154.951 44.5876L152.962 37.2251H137.565L135.613 44.5876H114.654V30.2051L119.184 29.4917L130.051 0.755371H160.477L171.38 29.4917L175.911 30.2051V44.5876H154.951ZM140.733 27.4371H149.794L145.264 10.9144L140.733 27.4371Z" fill="black"/>
<path d="M208.208 23.2137V31.4893L212.923 32.1742V44.5876H189.348V32.2027L194.063 31.4893V13.8537L189.348 13.1402V0.755371H217.638L236.497 23.2137V13.9107L231.782 13.1402V0.755371H255.357V13.1402L250.642 13.8537V31.4893L255.357 32.2027V44.5876H227.031L208.208 23.2137Z" fill="black"/>
<path d="M313.218 0.755371C316.778 1.34513 319.983 2.20122 322.832 3.32366C325.68 4.42708 328.099 5.8444 330.088 7.57561C332.102 9.30683 333.637 11.3805 334.693 13.7966C335.773 16.1937 336.313 18.9807 336.313 22.1578C336.313 26.3622 335.405 29.9007 333.588 32.7734C331.77 35.6271 329.204 37.929 325.889 39.6793C322.598 41.4295 318.633 42.6851 313.991 43.4461C309.35 44.2071 304.218 44.5876 298.594 44.5876H270.305V32.2027L275.02 31.4893V12.7978L270.305 12.0844V0.755371H313.218ZM302.204 31.4893C304.832 31.4893 306.858 31.2705 308.282 30.8329C309.706 30.3763 310.738 29.739 311.376 28.921C312.039 28.1029 312.42 27.1232 312.518 25.9817C312.641 24.8402 312.702 23.5656 312.702 22.1578C312.702 20.75 312.641 19.4754 312.518 18.3339C312.42 17.1734 312.039 16.1842 311.376 15.3661C310.738 14.5481 309.706 13.9202 308.282 13.4827C306.858 13.0261 304.832 12.7978 302.204 12.7978H298.594V31.4893H302.204Z" fill="black"/>
<path d="M349.567 0.755371H382.571V13.1402L377.856 13.8537V31.4893L382.571 32.2027V44.5876H349.567V32.2027L354.282 31.4893V13.8537L349.567 13.1402V0.755371Z" fill="black"/>
<path fill-rule="evenodd" clip-rule="evenodd" d="M102.908 44.9658H78.152L77.9164 44.6201C77.1772 43.5353 76.4138 42.3845 75.6261 41.1678C74.8338 39.9439 74.0667 38.6729 73.3248 37.355C72.5801 36.0322 71.8857 34.6624 71.2412 33.2457C70.7592 32.1862 70.3325 31.1058 69.961 30.0046V44.9658H40.0137V31.4464L44.7257 30.7356V14.2302L40.0137 13.5194V0H72.915C77.1843 0 80.8903 0.152386 84.0274 0.460068C87.1551 0.766817 89.8384 1.2101 92.0661 1.79637C94.2844 2.36127 96.1198 3.0731 97.5422 3.94665C98.9668 4.7878 100.087 5.75998 100.884 6.86593C101.697 7.94093 102.231 9.12336 102.492 10.4073C102.77 11.6403 102.908 12.9459 102.908 14.3229C102.908 15.7273 102.732 17.0186 102.371 18.1929C102.028 19.3726 101.408 20.4625 100.513 21.4586C99.6114 22.4622 98.393 23.3675 96.8794 24.1799L96.8754 24.182L96.8714 24.1841C95.552 24.875 93.9392 25.5264 92.0429 26.1418C92.4549 26.7191 92.9924 27.3738 93.6608 28.1075C94.5843 29.1022 95.5815 30.1261 96.6527 31.1791C97.7269 32.2161 98.801 33.2343 99.8749 34.2335C100.977 35.217 101.92 36.0589 102.704 36.7591L102.908 36.9414V44.9658ZM99.2359 34.6519C98.1561 33.6473 97.0762 32.6237 95.9964 31.5812C94.9166 30.5197 93.9104 29.4867 92.9778 28.4821C92.2727 27.7083 91.701 27.0103 91.2624 26.3882C91.1209 26.1874 90.9932 25.9945 90.8795 25.8095C91.1441 25.7286 91.4032 25.6472 91.6568 25.5653C93.5434 24.9559 95.1249 24.317 96.4013 23.6486C97.8493 22.8715 98.9905 22.0185 99.8249 21.0897C100.659 20.1609 101.236 19.1469 101.555 18.0475C101.899 16.9291 102.07 15.6876 102.07 14.3229C102.07 12.9771 101.935 11.7071 101.666 10.513C101.42 9.29985 100.917 8.19099 100.156 7.18639C99.4199 6.16283 98.3769 5.253 97.0271 4.4569C95.7019 3.64184 93.9594 2.95947 91.7998 2.40978C89.6401 1.84114 87.0142 1.40518 83.9219 1.1019C80.8297 0.798628 77.1607 0.64699 72.915 0.64699H40.8514V12.9865L45.5634 13.6974V31.2684L40.8514 31.9792V44.3188H69.1233V28.7095H70.4117C70.8535 30.188 71.3934 31.6286 72.0315 33.0312C72.6696 34.4339 73.3567 35.7891 74.093 37.097C74.8292 38.4049 75.59 39.6654 76.3754 40.8785C77.1607 42.0916 77.9215 43.2384 78.6577 44.3188H102.07V37.1823C101.285 36.481 100.34 35.6375 99.2359 34.6519ZM72.9 19.5365L72.9018 19.5364C73.9996 19.4481 74.8801 19.2483 75.5693 18.958L75.5739 18.956L75.5785 18.9541C76.2578 18.6764 76.7744 18.2718 77.1397 17.7231C77.4977 17.1856 77.7096 16.409 77.7096 15.3464C77.7096 14.3034 77.4978 13.5491 77.1443 13.0334L77.142 13.03L77.1397 13.0266C76.7725 12.4751 76.2507 12.0574 75.5618 11.7601L75.5571 11.7581L75.5524 11.756C74.8615 11.4488 73.9808 11.2323 72.8847 11.1265L72.8825 11.1263C71.9982 11.0391 71.0248 10.986 69.961 10.9679V19.6693C71.0301 19.6542 72.0094 19.6097 72.9 19.5365ZM69.961 20.3164C69.6872 20.3202 69.4079 20.322 69.1233 20.322V10.3139C69.4079 10.3139 69.6872 10.3162 69.961 10.3207C71.0566 10.3389 72.0658 10.3935 72.9886 10.4845C74.1666 10.5982 75.1605 10.8352 75.9704 11.1953C76.8048 11.5555 77.4429 12.0672 77.8847 12.7307C78.3264 13.3751 78.5473 14.247 78.5473 15.3464C78.5473 16.4648 78.3264 17.3556 77.8847 18.019C77.4429 18.6825 76.8048 19.1848 75.9704 19.5259C75.1605 19.8671 74.1666 20.0851 72.9886 20.1799C72.0658 20.2557 71.0566 20.3012 69.961 20.3164ZM154.061 44.9658L152.073 37.6303H138.049L136.098 44.9658H113.631V29.4603L118.335 28.7219L129.229 0H160.89L171.821 28.7218L176.526 29.4603V44.9658H154.061ZM171.16 29.2782L160.264 0.64699H129.856L118.997 29.2782L114.469 29.989V44.3188H135.415L137.366 36.9833H152.754L154.742 44.3188H175.688V29.989L171.16 29.2782ZM149.588 27.2311L145.06 10.7688L140.532 27.2311H149.588ZM141.566 26.5841H148.554L145.06 13.8824L141.566 26.5841ZM213.515 31.4138V44.9658H188.279V31.4464L192.991 30.7356V14.2302L188.279 13.5194V0H217.843L235.399 20.8422V14.279L230.687 13.5113V0H255.923V13.5194L251.211 14.2302V30.7356L255.923 31.4464V44.9658H226.334L208.803 25.1194V30.7315L213.515 31.4138ZM207.965 31.2684V23.0231L226.776 44.3188H255.085V31.9792L250.373 31.2684V13.6974L255.085 12.9865V0.64699H231.525V12.9865L236.237 13.7542V23.0231L217.389 0.64699H189.117V12.9865L193.829 13.6974V31.2684L189.117 31.9792V44.3188H212.677V31.9508L207.965 31.2684ZM312.999 0L313.085 0.0142975C316.704 0.611832 319.976 1.48159 322.895 2.62805C325.829 3.76127 328.332 5.2214 330.394 7.01026C332.488 8.80552 334.076 10.9488 335.164 13.4297C336.28 15.9008 336.829 18.7516 336.829 21.9711C336.829 26.2291 335.907 29.8585 334.019 32.8326L334.019 32.8341C332.141 35.7742 329.482 38.1538 326.048 39.9618C322.653 41.762 318.583 43.0419 313.857 43.8145C309.152 44.5835 303.963 44.9658 298.295 44.9658H269.186V31.4464L273.898 30.7356V13.1782L269.186 12.4674V0H312.999ZM274.735 12.6454V31.2684L270.023 31.9792V44.3188H298.295C303.915 44.3188 309.045 43.9397 313.683 43.1815C318.321 42.4233 322.285 41.1723 325.573 39.4285C328.887 37.6846 331.451 35.3911 333.267 32.5479C335.083 29.6857 335.991 26.1601 335.991 21.9711C335.991 18.8057 335.451 16.0288 334.372 13.6405C333.316 11.2332 331.782 9.16716 329.77 7.44228C327.782 5.71739 325.365 4.30526 322.518 3.20588C319.671 2.08755 316.469 1.23459 312.91 0.64699H270.023V11.9346L274.735 12.6454ZM310.356 28.3701L310.36 28.3655C310.936 27.6565 311.284 26.7881 311.375 25.738L311.375 25.7326L311.376 25.7273C311.496 24.6114 311.557 23.3597 311.557 21.9711C311.557 20.5825 311.496 19.3309 311.376 18.2149L311.375 18.2092L311.375 18.2035C311.284 17.1327 310.935 16.2556 310.36 15.5483L310.356 15.5437L310.353 15.539C309.83 14.8716 308.964 14.3259 307.668 13.9292L307.663 13.9274L307.657 13.9256C306.382 13.5182 304.486 13.2924 301.903 13.2924H299.133V30.6214H301.903C304.484 30.6214 306.384 30.4055 307.662 30.0149C308.959 29.5996 309.829 29.044 310.353 28.3748L310.356 28.3701ZM307.977 30.6145C306.554 31.0505 304.529 31.2684 301.903 31.2684H298.295V12.6454H301.903C304.529 12.6454 306.554 12.8728 307.977 13.3277C309.401 13.7637 310.431 14.3892 311.069 15.2043C311.732 16.0193 312.112 17.005 312.211 18.1612C312.333 19.2985 312.395 20.5685 312.395 21.9711C312.395 23.3738 312.333 24.6437 312.211 25.781C312.112 26.9183 311.732 27.8945 311.069 28.7095C310.431 29.5246 309.401 30.1596 307.977 30.6145ZM348.399 0H383.058V13.5194L378.346 14.2302V30.7356L383.058 31.4464V44.9658H348.399V31.4464L353.111 30.7356V14.2302L348.399 13.5194V0ZM353.948 13.6974V31.2684L349.236 31.9792V44.3188H382.22V31.9792L377.508 31.2684V13.6974L382.22 12.9865V0.64699H349.236V12.9865L353.948 13.6974Z" fill="black"/>
<path fill-rule="evenodd" clip-rule="evenodd" d="M110.228 44.9658H85.4721L85.2365 44.6201C84.4973 43.5353 83.7338 42.3845 82.9462 41.1678C82.1538 39.9439 81.3867 38.6729 80.6448 37.355C79.9002 36.0322 79.2057 34.6624 78.5612 33.2457C78.0793 32.1862 77.6526 31.1058 77.2811 30.0046V44.9658H47.3337V31.4464L52.0457 30.7356V14.2302L47.3337 13.5194V0H80.2351C84.5044 0 88.2103 0.152386 91.3475 0.460068C94.4751 0.766817 97.1584 1.2101 99.3862 1.79637C101.604 2.36127 103.44 3.0731 104.862 3.94665C106.287 4.7878 107.407 5.75998 108.204 6.86593C109.017 7.94093 109.551 9.12336 109.812 10.4073C110.09 11.6403 110.228 12.9459 110.228 14.3229C110.228 15.7273 110.052 17.0186 109.691 18.1929C109.348 19.3726 108.728 20.4625 107.833 21.4586C106.931 22.4622 105.713 23.3675 104.199 24.1799L104.195 24.182L104.191 24.1841C102.872 24.875 101.259 25.5264 99.3629 26.1418C99.775 26.7191 100.312 27.3738 100.981 28.1075C101.904 29.1022 102.902 30.1261 103.973 31.1791C105.047 32.2161 106.121 33.2343 107.195 34.2335C108.297 35.217 109.24 36.0589 110.024 36.7591L110.228 36.9414V44.9658ZM106.556 34.6519C105.476 33.6473 104.396 32.6237 103.316 31.5812C102.237 30.5197 101.23 29.4867 100.298 28.4821C99.5928 27.7083 99.021 27.0103 98.5825 26.3882C98.441 26.1874 98.3133 25.9945 98.1995 25.8095C98.4641 25.7286 98.7233 25.6472 98.9769 25.5653C100.863 24.9559 102.445 24.317 103.721 23.6486C105.169 22.8715 106.311 22.0185 107.145 21.0897C107.979 20.1609 108.556 19.1469 108.875 18.0475C109.219 16.9291 109.391 15.6876 109.391 14.3229C109.391 12.9771 109.256 11.7071 108.986 10.513C108.74 9.29985 108.237 8.19099 107.476 7.18639C106.74 6.16283 105.697 5.253 104.347 4.4569C103.022 3.64184 101.279 2.95947 99.1198 2.40978C96.9602 1.84114 94.3342 1.40518 91.242 1.1019C88.1497 0.798628 84.4808 0.64699 80.2351 0.64699H48.1714V12.9865L52.8834 13.6974V31.2684L48.1714 31.9792V44.3188H76.4434V28.7095H77.7318C78.1736 30.188 78.7135 31.6286 79.3516 33.0312C79.9896 34.4339 80.6768 35.7891 81.4131 37.097C82.1493 38.4049 82.9101 39.6654 83.6954 40.8785C84.4808 42.0916 85.2415 43.2384 85.9778 44.3188H109.391V37.1823C108.605 36.481 107.66 35.6375 106.556 34.6519ZM80.2201 19.5365L80.2219 19.5364C81.3196 19.4481 82.2001 19.2483 82.8894 18.958L82.8939 18.956L82.8985 18.9541C83.5778 18.6764 84.0945 18.2718 84.4598 17.7231C84.8177 17.1856 85.0297 16.409 85.0297 15.3464C85.0297 14.3034 84.8179 13.5491 84.4644 13.0334L84.4621 13.03L84.4598 13.0266C84.0926 12.4751 83.5707 12.0574 82.8818 11.7601L82.8772 11.7581L82.8725 11.756C82.1816 11.4488 81.3009 11.2323 80.2048 11.1265L80.2026 11.1263C79.3183 11.0391 78.3448 10.986 77.2811 10.9679V19.6693C78.3502 19.6542 79.3295 19.6097 80.2201 19.5365ZM77.2811 20.3164C77.0072 20.3202 76.728 20.322 76.4434 20.322V10.3139C76.728 10.3139 77.0072 10.3162 77.2811 10.3207C78.3767 10.3389 79.3859 10.3935 80.3087 10.4845C81.4867 10.5982 82.4806 10.8352 83.2905 11.1953C84.1249 11.5555 84.763 12.0672 85.2047 12.7307C85.6465 13.3751 85.8674 14.247 85.8674 15.3464C85.8674 16.4648 85.6465 17.3556 85.2047 18.019C84.763 18.6825 84.1249 19.1848 83.2905 19.5259C82.4806 19.8671 81.4867 20.0851 80.3087 20.1799C79.3859 20.2557 78.3767 20.3012 77.2811 20.3164ZM161.381 44.9658L159.393 37.6303H145.369L143.418 44.9658H120.951V29.4603L125.655 28.7219L136.549 0H168.211L179.141 28.7218L183.846 29.4603V44.9658H161.381ZM178.48 29.2782L167.584 0.64699H137.177L126.317 29.2782L121.789 29.989V44.3188H142.735L144.686 36.9833H160.074L162.062 44.3188H183.008V29.989L178.48 29.2782ZM156.908 27.2311L152.38 10.7688L147.852 27.2311H156.908ZM148.886 26.5841H155.874L152.38 13.8824L148.886 26.5841ZM220.835 31.4138V44.9658H195.599V31.4464L200.311 30.7356V14.2302L195.599 13.5194V0H225.164L242.719 20.8422V14.279L238.007 13.5113V0H263.243V13.5194L258.531 14.2302V30.7356L263.243 31.4464V44.9658H233.654L216.123 25.1194V30.7315L220.835 31.4138ZM215.285 31.2684V23.0231L234.096 44.3188H262.405V31.9792L257.693 31.2684V13.6974L262.405 12.9865V0.64699H238.845V12.9865L243.557 13.7542V23.0231L224.709 0.64699H196.437V12.9865L201.149 13.6974V31.2684L196.437 31.9792V44.3188H219.997V31.9508L215.285 31.2684ZM320.319 0L320.405 0.0142975C324.024 0.611832 327.296 1.48159 330.215 2.62805C333.149 3.76127 335.652 5.2214 337.714 7.01026C339.808 8.80552 341.396 10.9488 342.484 13.4297C343.6 15.9008 344.149 18.7516 344.149 21.9711C344.149 26.2291 343.227 29.8585 341.34 32.8326L341.339 32.8341C339.461 35.7742 336.802 38.1538 333.368 39.9618C329.973 41.762 325.903 43.0419 321.177 43.8145C316.472 44.5835 311.283 44.9658 305.616 44.9658H276.506V31.4464L281.218 30.7356V13.1782L276.506 12.4674V0H320.319ZM282.056 12.6454V31.2684L277.344 31.9792V44.3188H305.616C311.236 44.3188 316.365 43.9397 321.003 43.1815C325.641 42.4233 329.605 41.1723 332.894 39.4285C336.207 37.6846 338.771 35.3911 340.587 32.5479C342.403 29.6857 343.311 26.1601 343.311 21.9711C343.311 18.8057 342.772 16.0288 341.692 13.6405C340.636 11.2332 339.103 9.16716 337.09 7.44228C335.102 5.71739 332.685 4.30526 329.838 3.20588C326.991 2.08755 323.789 1.23459 320.23 0.64699H277.344V11.9346L282.056 12.6454ZM317.676 28.3701L317.68 28.3655C318.256 27.6565 318.604 26.7881 318.695 25.738L318.695 25.7326L318.696 25.7273C318.816 24.6114 318.877 23.3597 318.877 21.9711C318.877 20.5825 318.816 19.3309 318.696 18.2149L318.695 18.2092L318.695 18.2035C318.604 17.1327 318.255 16.2556 317.68 15.5483L317.676 15.5437L317.673 15.539C317.15 14.8716 316.284 14.3259 314.988 13.9292L314.983 13.9274L314.977 13.9256C313.702 13.5182 311.806 13.2924 309.223 13.2924H306.453V30.6214H309.223C311.804 30.6214 313.704 30.4055 314.983 30.0149C316.279 29.5996 317.149 29.044 317.673 28.3748L317.676 28.3701ZM315.297 30.6145C313.874 31.0504 311.849 31.2684 309.223 31.2684H305.616V12.6454H309.223C311.849 12.6454 313.874 12.8728 315.297 13.3277C316.721 13.7637 317.751 14.3892 318.389 15.2043C319.052 16.0193 319.432 17.005 319.531 18.1612C319.653 19.2985 319.715 20.5685 319.715 21.9711C319.715 23.3738 319.653 24.6437 319.531 25.781C319.432 26.9183 319.052 27.8945 318.389 28.7095C317.751 29.5246 316.721 30.1596 315.297 30.6145ZM355.719 0H390.378V13.5194L385.666 14.2302V30.7356L390.378 31.4464V44.9658H355.719V31.4464L360.431 30.7356V14.2302L355.719 13.5194V0ZM361.269 13.6974V31.2684L356.557 31.9792V44.3188H389.54V31.9792L384.829 31.2684V13.6974L389.54 12.9865V0.64699H356.557V12.9865L361.269 13.6974Z" fill="black"/>
<path d="M89.7708 53.2793C93.3102 53.9384 95.9424 55.0225 97.6674 56.5315C99.4147 58.0405 100.288 60.0699 100.288 62.6196C100.288 64.3195 100.053 65.7504 99.5827 66.9125C99.1123 68.0573 98.5186 69.0113 97.8018 69.7745C97.0849 70.5203 96.3009 71.1014 95.4496 71.5177C94.6207 71.9166 93.8479 72.2115 93.131 72.4023C92.4142 72.5931 91.7981 72.7058 91.2829 72.7405C90.7901 72.7752 90.5324 72.7925 90.51 72.7925C91.3837 72.8272 92.3134 72.9053 93.299 73.0267C94.3071 73.1481 95.304 73.3389 96.2897 73.5991C97.2753 73.8593 98.2162 74.1975 99.1123 74.6138C100.008 75.0301 100.792 75.5504 101.464 76.1748C102.159 76.7819 102.708 77.5104 103.111 78.3603C103.514 79.2102 103.716 80.1902 103.716 81.3003C103.716 83.0001 103.436 84.5785 102.876 86.0355C102.338 87.4925 101.375 88.7587 99.9859 89.8341C98.6194 90.8921 96.7489 91.7247 94.3743 92.3318C91.9997 92.9389 88.9979 93.2424 85.3689 93.2424H46.3564V81.9507L50.6576 81.3003V64.2587L46.3564 63.6083V53.2793H89.7708ZM82.2102 66.08C82.2102 65.1954 82.0086 64.5189 81.6054 64.0506C81.2246 63.5649 80.7093 63.2094 80.0597 62.9839C79.41 62.7584 78.6708 62.6283 77.8419 62.5936C77.0131 62.5589 76.173 62.5416 75.3217 62.5416H72.1631V70.0086H75.3217C76.173 70.0086 77.0131 69.9913 77.8419 69.9566C78.6708 69.9046 79.41 69.7571 80.0597 69.5143C80.7093 69.2715 81.2246 68.8899 81.6054 68.3695C82.0086 67.8318 82.2102 67.0687 82.2102 66.08ZM82.2102 79.0628C82.2102 78.1782 82.0086 77.5017 81.6054 77.0334C81.2246 76.5651 80.7093 76.2182 80.0597 75.9927C79.41 75.7672 78.6708 75.6371 77.8419 75.6024C77.0131 75.5678 76.173 75.5504 75.3217 75.5504H72.1631V83.0175H75.3217C76.173 83.0175 77.0131 83.0001 77.8419 82.9654C78.6708 82.9134 79.41 82.766 80.0597 82.5231C80.7093 82.2803 81.2246 81.89 81.6054 81.3523C82.0086 80.8146 82.2102 80.0515 82.2102 79.0628Z" fill="black"/>
<path d="M163.528 65.2214C163.506 65.7764 163.495 66.3228 163.495 66.8605C163.495 67.3809 163.495 67.8925 163.495 68.3956V72.7925C163.495 76.4697 162.845 79.6438 161.546 82.315C160.269 84.9688 158.51 87.163 156.27 88.8975C154.052 90.6146 151.454 91.8461 148.474 92.592C145.495 93.3378 142.325 93.7107 138.965 93.7107C136.344 93.7107 133.824 93.572 131.404 93.2944C129.007 93.0343 126.767 92.5399 124.684 91.8114C122.6 91.0656 120.707 90.129 119.005 89.0015C117.302 87.8568 115.835 86.5038 114.603 84.9428C113.393 83.3644 112.452 81.5692 111.78 79.5571C111.131 77.5451 110.806 75.2902 110.806 72.7925V65.2214L106.505 64.571V53.2793H134.428V64.571L130.127 65.2214V68.5777C130.127 69.0113 130.127 69.4536 130.127 69.9046C130.127 70.3382 130.127 70.7458 130.127 71.1274C130.15 71.509 130.161 71.8472 130.161 72.1421C130.161 72.437 130.161 72.6538 130.161 72.7925C130.161 73.2262 130.172 73.7292 130.195 74.3016C130.217 74.8739 130.307 75.4724 130.463 76.0968C130.643 76.7039 130.9 77.3109 131.236 77.918C131.572 78.5251 132.054 79.0715 132.681 79.5571C133.331 80.0254 134.137 80.407 135.1 80.7019C136.086 80.9968 137.296 81.1442 138.73 81.1442C140.163 81.1442 141.362 80.9968 142.325 80.7019C143.311 80.407 144.128 80.0254 144.778 79.5571C145.428 79.0715 145.92 78.5251 146.256 77.918C146.615 77.3109 146.873 76.7039 147.029 76.0968C147.186 75.4724 147.276 74.8739 147.298 74.3016C147.343 73.7292 147.365 73.2262 147.365 72.7925C147.365 72.6538 147.365 72.437 147.365 72.1421C147.365 71.8472 147.354 71.509 147.332 71.1274C147.332 70.7458 147.332 70.3382 147.332 69.9046C147.332 69.4536 147.332 69.0113 147.332 68.5777V65.2214L143.031 64.571V53.2793H167.829V64.571L163.528 65.2214Z" fill="black"/>
<path d="M190.612 73.7552V81.3003L194.913 81.9247V93.2424H173.407V81.9507L177.708 81.3003V65.2214L173.407 64.571V53.2793H199.214L216.418 73.7552V65.2734L212.117 64.571V53.2793H233.623V64.571L229.322 65.2214V81.3003L233.623 81.9507V93.2424H207.783L190.612 73.7552Z" fill="black"/>
<path d="M257.682 73.7552V81.3003L261.983 81.9247V93.2424H240.478V81.9507L244.779 81.3003V65.2214L240.478 64.571V53.2793H266.284L283.489 73.7552V65.2734L279.188 64.571V53.2793H300.693V64.571L296.392 65.2214V81.3003L300.693 81.9507V93.2424H274.853L257.682 73.7552Z" fill="black"/>
<path d="M320.519 93.2424V82.0028L324.82 81.1702L310.068 65.1954L304.625 64.571V53.2793H333.321V64.571L329.961 65.1954L336.782 73.3649L343.604 65.1954L340.243 64.571V53.2793H368.906V64.571L363.496 65.1954L348.745 81.1702L353.046 82.0028V93.2424H320.519Z" fill="black"/>
<mask id="path-5-outside-1_91_432" maskUnits="userSpaceOnUse" x="55.5803" y="47.8784" width="327" height="45" fill="black">
<rect fill="white" x="55.5803" y="47.8784" width="327" height="45"/>
<path d="M108.891 53.1306C107.166 51.6216 104.534 50.5375 100.995 49.8784H57.5803V60.2074L61.8814 60.8579V77.8994L57.5803 78.5499V89.8415H96.5927C100.222 89.8415 103.224 89.538 105.598 88.9309C107.973 88.3238 109.843 87.4913 111.21 86.4332C112.599 85.3578 113.562 84.0916 114.1 82.6346C114.66 81.1777 114.94 79.5993 114.94 77.8994C114.94 76.7893 114.738 75.8093 114.335 74.9594C113.932 74.1095 113.383 73.381 112.688 72.774C112.016 72.1495 111.232 71.6292 110.336 71.2129C109.44 70.7966 108.499 70.4584 107.514 70.1982C106.528 69.938 105.531 69.7472 104.523 69.6258C103.537 69.5044 102.608 69.4263 101.734 69.3917C101.756 69.3917 102.014 69.3743 102.507 69.3396C103.022 69.3049 103.638 69.1922 104.355 69.0014C105.072 68.8106 105.845 68.5157 106.673 68.1168C107.525 67.7005 108.309 67.1194 109.026 66.3736C109.742 65.6104 110.336 64.6564 110.807 63.5117C111.277 62.3495 111.512 60.9186 111.512 59.2188C111.512 56.669 110.639 54.6396 108.891 53.1306Z"/>
<path d="M174.718 63.4596C174.718 62.9219 174.73 62.3756 174.752 61.8205L179.053 61.1701V49.8784H154.255V61.1701L158.556 61.8205V65.1768V66.5037V67.7265C158.578 68.1081 158.589 68.4464 158.589 68.7412V69.3917C158.589 69.8253 158.567 70.3283 158.522 70.9007C158.5 71.4731 158.41 72.0715 158.253 72.6959C158.096 73.303 157.839 73.9101 157.48 74.5171C157.144 75.1242 156.651 75.6706 156.002 76.1562C155.352 76.6246 154.535 77.0062 153.549 77.301C152.586 77.5959 151.387 77.7433 149.953 77.7433C148.52 77.7433 147.31 77.5959 146.324 77.301C145.361 77.0062 144.555 76.6246 143.905 76.1562C143.278 75.6706 142.796 75.1242 142.46 74.5171C142.124 73.9101 141.866 73.303 141.687 72.6959C141.53 72.0715 141.441 71.4731 141.418 70.9007C141.396 70.3283 141.385 69.8253 141.385 69.3917V68.7412C141.385 68.4464 141.374 68.1081 141.351 67.7265V66.5037V65.1768V61.8205L145.652 61.1701V49.8784H117.729V61.1701L122.03 61.8205V69.3917C122.03 71.8894 122.355 74.1442 123.004 76.1562C123.676 78.1683 124.617 79.9635 125.827 81.5419C127.059 83.103 128.526 84.4559 130.229 85.6007C131.931 86.7281 133.824 87.6647 135.908 88.4106C137.991 89.1391 140.231 89.6334 142.628 89.8936C145.047 90.1711 147.568 90.3098 150.189 90.3098C153.549 90.3098 156.719 89.9369 159.698 89.1911C162.678 88.4453 165.276 87.2137 167.494 85.4966C169.734 83.7621 171.493 81.5679 172.769 78.9141C174.069 76.243 174.718 73.0688 174.718 69.3917V64.9947V63.4596Z"/>
<path d="M201.836 77.8994V70.3543L219.006 89.8415H244.847V78.5499L240.546 77.8994V61.8205L244.847 61.1701V49.8784H223.341V61.1701L227.642 61.8726V70.3543L210.438 49.8784H184.631V61.1701L188.932 61.8205V77.8994L184.631 78.5499V89.8415H206.137V78.5239L201.836 77.8994Z"/>
<path d="M268.906 77.8994V70.3543L286.077 89.8415H311.917V78.5499L307.616 77.8994V61.8205L311.917 61.1701V49.8784H290.412V61.1701L294.713 61.8726V70.3543L277.508 49.8784H251.702V61.1701L256.003 61.8205V77.8994L251.702 78.5499V89.8415H273.207V78.5239L268.906 77.8994Z"/>
<path d="M331.743 78.6019V89.8415H364.27V78.6019L359.969 77.7693L374.72 61.7945L380.13 61.1701V49.8784H351.467V61.1701L354.827 61.7945L348.006 69.964L341.185 61.7945L344.545 61.1701V49.8784H315.849V61.1701L321.292 61.7945L336.044 77.7693L331.743 78.6019Z"/>
</mask>
<path d="M108.891 53.1306C107.166 51.6216 104.534 50.5375 100.995 49.8784H57.5803V60.2074L61.8814 60.8579V77.8994L57.5803 78.5499V89.8415H96.5927C100.222 89.8415 103.224 89.538 105.598 88.9309C107.973 88.3238 109.843 87.4913 111.21 86.4332C112.599 85.3578 113.562 84.0916 114.1 82.6346C114.66 81.1777 114.94 79.5993 114.94 77.8994C114.94 76.7893 114.738 75.8093 114.335 74.9594C113.932 74.1095 113.383 73.381 112.688 72.774C112.016 72.1495 111.232 71.6292 110.336 71.2129C109.44 70.7966 108.499 70.4584 107.514 70.1982C106.528 69.938 105.531 69.7472 104.523 69.6258C103.537 69.5044 102.608 69.4263 101.734 69.3917C101.756 69.3917 102.014 69.3743 102.507 69.3396C103.022 69.3049 103.638 69.1922 104.355 69.0014C105.072 68.8106 105.845 68.5157 106.673 68.1168C107.525 67.7005 108.309 67.1194 109.026 66.3736C109.742 65.6104 110.336 64.6564 110.807 63.5117C111.277 62.3495 111.512 60.9186 111.512 59.2188C111.512 56.669 110.639 54.6396 108.891 53.1306Z" stroke="black" stroke-width="4" mask="url(#path-5-outside-1_91_432)"/>
<path d="M174.718 63.4596C174.718 62.9219 174.73 62.3756 174.752 61.8205L179.053 61.1701V49.8784H154.255V61.1701L158.556 61.8205V65.1768V66.5037V67.7265C158.578 68.1081 158.589 68.4464 158.589 68.7412V69.3917C158.589 69.8253 158.567 70.3283 158.522 70.9007C158.5 71.4731 158.41 72.0715 158.253 72.6959C158.096 73.303 157.839 73.9101 157.48 74.5171C157.144 75.1242 156.651 75.6706 156.002 76.1562C155.352 76.6246 154.535 77.0062 153.549 77.301C152.586 77.5959 151.387 77.7433 149.953 77.7433C148.52 77.7433 147.31 77.5959 146.324 77.301C145.361 77.0062 144.555 76.6246 143.905 76.1562C143.278 75.6706 142.796 75.1242 142.46 74.5171C142.124 73.9101 141.866 73.303 141.687 72.6959C141.53 72.0715 141.441 71.4731 141.418 70.9007C141.396 70.3283 141.385 69.8253 141.385 69.3917V68.7412C141.385 68.4464 141.374 68.1081 141.351 67.7265V66.5037V65.1768V61.8205L145.652 61.1701V49.8784H117.729V61.1701L122.03 61.8205V69.3917C122.03 71.8894 122.355 74.1442 123.004 76.1562C123.676 78.1683 124.617 79.9635 125.827 81.5419C127.059 83.103 128.526 84.4559 130.229 85.6007C131.931 86.7281 133.824 87.6647 135.908 88.4106C137.991 89.1391 140.231 89.6334 142.628 89.8936C145.047 90.1711 147.568 90.3098 150.189 90.3098C153.549 90.3098 156.719 89.9369 159.698 89.1911C162.678 88.4453 165.276 87.2137 167.494 85.4966C169.734 83.7621 171.493 81.5679 172.769 78.9141C174.069 76.243 174.718 73.0688 174.718 69.3917V64.9947V63.4596Z" stroke="black" stroke-width="4" mask="url(#path-5-outside-1_91_432)"/>
<path d="M201.836 77.8994V70.3543L219.006 89.8415H244.847V78.5499L240.546 77.8994V61.8205L244.847 61.1701V49.8784H223.341V61.1701L227.642 61.8726V70.3543L210.438 49.8784H184.631V61.1701L188.932 61.8205V77.8994L184.631 78.5499V89.8415H206.137V78.5239L201.836 77.8994Z" stroke="black" stroke-width="4" mask="url(#path-5-outside-1_91_432)"/>
<path d="M268.906 77.8994V70.3543L286.077 89.8415H311.917V78.5499L307.616 77.8994V61.8205L311.917 61.1701V49.8784H290.412V61.1701L294.713 61.8726V70.3543L277.508 49.8784H251.702V61.1701L256.003 61.8205V77.8994L251.702 78.5499V89.8415H273.207V78.5239L268.906 77.8994Z" stroke="black" stroke-width="4" mask="url(#path-5-outside-1_91_432)"/>
<path d="M331.743 78.6019V89.8415H364.27V78.6019L359.969 77.7693L374.72 61.7945L380.13 61.1701V49.8784H351.467V61.1701L354.827 61.7945L348.006 69.964L341.185 61.7945L344.545 61.1701V49.8784H315.849V61.1701L321.292 61.7945L336.044 77.7693L331.743 78.6019Z" stroke="black" stroke-width="4" mask="url(#path-5-outside-1_91_432)"/>
<path d="M18.7869 57.0571C18.7869 68.1259 10.9925 78.0286 0 78.0286C10.9925 78.0286 18.7869 87.932 18.7869 99C18.7869 87.932 26.5813 78.0286 37.5739 78.0286C26.5813 78.0286 18.7869 68.1259 18.7869 57.0571Z" fill="black"/>
<path fill-rule="evenodd" clip-rule="evenodd" d="M0 73.6833C1.19949 73.6833 2.3609 73.8023 3.47826 74.0288C11.1817 75.5904 16.7913 82.2629 18.3501 90.2919C18.6372 91.771 18.7869 93.2961 18.7869 94.8437C18.7869 93.2961 18.9366 91.771 19.2238 90.2919C20.7826 82.2629 26.3922 75.5904 34.0956 74.0288C35.213 73.8023 36.3744 73.6833 37.5739 73.6833C36.3744 73.6833 35.213 73.5643 34.0956 73.3379C26.3922 71.7763 20.7826 65.1043 19.2238 57.0749C18.9366 55.5958 18.7869 54.0707 18.7869 52.5229C18.7869 54.0707 18.6372 55.5958 18.3501 57.0749C16.7913 65.1043 11.1817 71.7763 3.47827 73.3379C2.36091 73.5643 1.19949 73.6833 0 73.6833ZM4.95659 73.6833C8.66323 74.716 11.823 76.8779 14.2367 79.7067C16.3359 82.1669 17.8941 85.1532 18.7869 88.4063C19.6798 85.1532 21.238 82.1669 23.3371 79.7067C25.7509 76.8779 28.9106 74.716 32.6173 73.6833C28.9106 72.6508 25.7509 70.489 23.3372 67.6602C21.238 65.2001 19.6798 62.2137 18.7869 58.9606C17.8941 62.2137 16.3359 65.2001 14.2367 67.6602C11.823 70.489 8.66322 72.6508 4.95659 73.6833Z" fill="black"/>
<path d="M407.213 49.1226C407.213 60.291 399.418 70.2829 388.426 70.2829C399.418 70.2829 407.213 80.2756 407.213 91.4433C407.213 80.2756 415.007 70.2829 426 70.2829C415.007 70.2829 407.213 60.291 407.213 49.1226Z" fill="black"/>
<path fill-rule="evenodd" clip-rule="evenodd" d="M388.426 66.1267C389.625 66.1267 390.787 66.2457 391.904 66.4722C399.607 68.0338 405.217 74.7062 406.776 82.7353C407.063 84.2143 407.213 85.7394 407.213 87.2871C407.213 85.7394 407.362 84.2143 407.65 82.7353C409.208 74.7062 414.818 68.0338 422.521 66.4722C423.639 66.2457 424.8 66.1267 426 66.1267C424.8 66.1267 423.639 66.0077 422.521 65.7812C414.818 64.2197 409.208 57.5476 407.65 49.5183C407.362 48.0392 407.213 46.514 407.213 44.9663C407.213 46.514 407.063 48.0392 406.776 49.5183C405.217 57.5476 399.607 64.2197 391.904 65.7812C390.787 66.0077 389.625 66.1267 388.426 66.1267ZM393.382 66.1267C397.089 67.1593 400.249 69.3212 402.662 72.15C404.762 74.6102 406.32 77.5966 407.213 80.8497C408.106 77.5966 409.664 74.6102 411.763 72.15C414.177 69.3212 417.336 67.1593 421.043 66.1267C417.336 65.0941 414.177 62.9324 411.763 60.1036C409.664 57.6434 408.106 54.6571 407.213 51.404C406.32 54.6571 404.762 57.6434 402.662 60.1036C400.249 62.9324 397.089 65.0941 393.382 66.1267Z" fill="black"/>
</svg>
