<svg width="358" height="106" viewBox="0 0 358 106" fill="none" xmlns="http://www.w3.org/2000/svg">
<rect x="34" y="10" width="241" height="70" rx="15" fill="#0E0D0D"/>
<rect x="59" y="1" width="239" height="68" rx="14" fill="#0C0C0C" stroke="white" stroke-width="2"/>
<path d="M102.901 46.512C100.747 46.512 98.8053 46 97.0773 44.976C95.3493 43.9307 93.9946 42.512 93.0133 40.72C92.0319 38.928 91.5413 36.9547 91.5413 34.8C91.5413 32.7307 92.0319 30.832 93.0133 29.104C94.0159 27.376 95.4026 26.0107 97.1733 25.008C98.9439 24.0053 100.96 23.504 103.221 23.504C104.459 23.504 105.653 23.6427 106.805 23.92C107.979 24.1973 109.035 24.592 109.973 25.104L107.861 30.064C106.411 29.4667 105.056 29.168 103.797 29.168C102.155 29.168 100.885 29.7013 99.9893 30.768C99.0933 31.8133 98.6453 33.1893 98.6453 34.896C98.6453 36.0053 98.8479 37.008 99.2533 37.904C99.6586 38.7787 100.224 39.472 100.949 39.984C101.696 40.496 102.539 40.752 103.477 40.752C103.989 40.752 104.416 40.7093 104.757 40.624V35.472L110.293 34.832V44.848C107.883 45.9573 105.419 46.512 102.901 46.512ZM124.315 23.984H134.043L140.411 46H132.891L132.059 41.776H126.363L125.435 46H118.235L124.315 23.984ZM131.291 37.84L129.211 28.208L127.035 37.84H131.291ZM148.93 23.984H155.842V41.136H163.49V46H148.93V23.984ZM172.549 23.984H179.461V41.136H187.109V46H172.549V23.984ZM196.167 23.984H211.623V28.848H203.943V32.848H210.951V36.88H203.943V41.136H211.623V46H196.167V23.984ZM238.271 46.512C234.26 46.512 231.807 44.656 230.911 40.944L230.111 37.648H228.607V46H221.599V23.984H231.295C233.129 23.984 234.74 24.2613 236.127 24.816C237.535 25.3493 238.623 26.1067 239.391 27.088C240.159 28.0693 240.543 29.2 240.543 30.48C240.543 31.9093 240.191 33.1147 239.487 34.096C238.804 35.056 237.737 35.8453 236.287 36.464C236.436 37.2747 236.607 38.0107 236.799 38.672C237.055 39.4827 237.407 40.048 237.855 40.368C238.303 40.688 238.953 40.848 239.807 40.848C240.105 40.848 240.575 40.8053 241.215 40.72V45.936C240.212 46.32 239.231 46.512 238.271 46.512ZM229.823 33.168C231.401 33.168 232.511 32.9973 233.151 32.656C233.812 32.2933 234.143 31.6853 234.143 30.832C234.143 30.1067 233.876 29.584 233.343 29.264C232.809 28.9227 231.967 28.752 230.815 28.752H228.607V33.168H229.823ZM254.065 39.888L247.729 23.984H254.417L257.521 33.872L260.561 23.984H267.601L260.945 39.888V46H254.065V39.888Z" fill="#F2E8D9"/>
</svg>
