<svg width="358" height="106" viewBox="0 0 358 106" fill="none" xmlns="http://www.w3.org/2000/svg">
<rect x="34" y="10" width="241" height="70" rx="15" fill="#0E0D0D"/>
<rect x="59" y="1" width="239" height="68" rx="14" fill="#0C0C0C" stroke="white" stroke-width="2"/>
<path d="M94.9706 23.984H101.627L107.131 34.672L112.507 23.984H119.163V46H112.507V34.256L108.443 41.936H105.723L101.627 34.256V46H94.9706V23.984ZM129.746 23.984H145.202V28.848H137.522V32.848H144.53V36.88H137.522V41.136H145.202V46H129.746V23.984ZM155.177 23.984H161.833L167.337 34.672L172.713 23.984H179.369V46H172.713V34.256L168.649 41.936H165.929L161.833 34.256V46H155.177V23.984ZM198.272 46.384C196.949 46.384 195.723 46.3627 194.592 46.32C193.461 46.2773 191.915 46.1813 189.952 46.032V23.984H200.96C202.517 23.984 203.915 24.208 205.152 24.656C206.411 25.0827 207.392 25.7013 208.096 26.512C208.8 27.3227 209.152 28.2613 209.152 29.328C209.152 30.6507 208.864 31.696 208.288 32.464C207.712 33.2107 206.837 33.7333 205.664 34.032C208.651 34.5013 210.144 36.2613 210.144 39.312C210.144 41.424 209.173 43.1307 207.232 44.432C205.312 45.7333 202.325 46.384 198.272 46.384ZM199.616 32.688C200.448 32.688 201.131 32.4853 201.664 32.08C202.219 31.6747 202.496 31.152 202.496 30.512C202.496 28.9973 201.557 28.24 199.68 28.24H197.088V32.688H199.616ZM199.488 41.36C200.661 41.36 201.557 41.1467 202.176 40.72C202.816 40.272 203.136 39.6533 203.136 38.864C203.136 38.0107 202.848 37.36 202.272 36.912C201.696 36.4427 200.875 36.208 199.808 36.208H197.056V41.264C198.016 41.328 198.827 41.36 199.488 41.36ZM219.414 23.984H234.87V28.848H227.19V32.848H234.198V36.88H227.19V41.136H234.87V46H219.414V23.984ZM261.518 46.512C257.507 46.512 255.054 44.656 254.158 40.944L253.358 37.648H251.854V46H244.846V23.984H254.542C256.376 23.984 257.987 24.2613 259.374 24.816C260.782 25.3493 261.87 26.1067 262.638 27.088C263.406 28.0693 263.79 29.2 263.79 30.48C263.79 31.9093 263.438 33.1147 262.734 34.096C262.051 35.056 260.984 35.8453 259.534 36.464C259.683 37.2747 259.854 38.0107 260.046 38.672C260.302 39.4827 260.654 40.048 261.102 40.368C261.55 40.688 262.2 40.848 263.054 40.848C263.352 40.848 263.822 40.8053 264.462 40.72V45.936C263.459 46.32 262.478 46.512 261.518 46.512ZM253.07 33.168C254.648 33.168 255.758 32.9973 256.398 32.656C257.059 32.2933 257.39 31.6853 257.39 30.832C257.39 30.1067 257.123 29.584 256.59 29.264C256.056 28.9227 255.214 28.752 254.062 28.752H251.854V33.168H253.07Z" fill="#F2E8D9"/>
</svg>
