<svg width="138" height="71" viewBox="0 0 138 71" fill="none" xmlns="http://www.w3.org/2000/svg">
<rect y="12" width="130" height="59" rx="10" fill="#060505"/>
<rect x="9" y="1" width="128" height="57" rx="9" fill="#060505" stroke="white" stroke-width="2"/>
<path d="M47.2028 35C45.8615 35 44.6409 34.6949 43.5411 34.0848C42.4546 33.4618 41.5895 32.618 40.9456 31.5535C40.3152 30.4761 40 29.2884 40 27.9903C40 26.6662 40.3085 25.472 40.9255 24.4075C41.5425 23.3431 42.3875 22.5123 43.4606 21.9152C44.5336 21.3051 45.7408 21 47.0821 21C47.8064 21 48.5173 21.0844 49.2148 21.2531C49.9123 21.4219 50.5092 21.662 51.0055 21.9736L50.4622 24.9917C49.4965 24.6412 48.6246 24.4659 47.8467 24.4659C46.7736 24.4659 45.9487 24.771 45.3719 25.3811C44.7952 25.9782 44.5068 26.8414 44.5068 27.9708C44.5068 29.0742 44.8086 29.9374 45.4122 30.5605C46.0292 31.1706 46.8809 31.4757 47.9674 31.4757C48.3832 31.4757 48.7722 31.4367 49.1343 31.3588C49.4965 31.2809 49.9391 31.1382 50.4622 30.9305L51.0256 34.007C49.8586 34.669 48.5844 35 47.2028 35Z" fill="white"/>
<path d="M53.8326 21.2921H58.1784V31.7288H62.987V34.6885H53.8326V21.2921Z" fill="white"/>
<path d="M72.031 35C70.5823 35 69.2947 34.7014 68.168 34.1043C67.0547 33.5072 66.1828 32.6829 65.5524 31.6314C64.9354 30.567 64.6269 29.3598 64.6269 28.0097C64.6269 26.6467 64.9354 25.433 65.5524 24.3686C66.1828 23.3041 67.0547 22.4798 68.168 21.8957C69.2947 21.2986 70.5823 21 72.031 21C73.4796 21 74.7605 21.2986 75.8738 21.8957C77.0005 22.4798 77.8724 23.3041 78.4894 24.3686C79.1198 25.42 79.435 26.6337 79.435 28.0097C79.435 29.3598 79.1198 30.567 78.4894 31.6314C77.8724 32.6829 77.0005 33.5072 75.8738 34.1043C74.7471 34.7014 73.4662 35 72.031 35ZM72.031 31.4562C72.876 31.4562 73.5668 31.1382 74.1033 30.5021C74.6532 29.866 74.9282 29.0287 74.9282 27.9903C74.9282 27.3023 74.8008 26.6922 74.5459 26.1599C74.3045 25.6147 73.9624 25.1929 73.5198 24.8943C73.0772 24.5828 72.5742 24.427 72.0108 24.427C71.4609 24.427 70.9646 24.5828 70.522 24.8943C70.0794 25.1929 69.7373 25.6147 69.4959 26.1599C69.2544 26.6922 69.1337 27.3023 69.1337 27.9903C69.1337 29.0287 69.402 29.866 69.9385 30.5021C70.475 31.1382 71.1725 31.4562 72.031 31.4562Z" fill="white"/>
<path d="M86.655 35C84.7637 35 83.1676 34.6625 81.8665 33.9875L82.8725 30.9694C84.254 31.4497 85.488 31.6898 86.5745 31.6898C87.1647 31.6898 87.5939 31.6249 87.8621 31.4951C88.1438 31.3523 88.2847 31.1446 88.2847 30.872C88.2847 30.6903 88.2109 30.5345 88.0633 30.4047C87.9158 30.2619 87.6207 30.1062 87.1781 29.9374C86.7354 29.7687 86.0715 29.561 85.1862 29.3143C84.0998 29.0028 83.2547 28.4965 82.6512 27.7955C82.0476 27.0816 81.7458 26.2638 81.7458 25.3421C81.7458 23.9142 82.2286 22.8368 83.1944 22.1099C84.1735 21.37 85.488 21 87.1378 21C87.9963 21 88.8413 21.0909 89.6729 21.2726C90.5045 21.4414 91.2422 21.6945 91.8861 22.032L90.7996 24.9722C90.0485 24.7255 89.3912 24.5503 88.8279 24.4465C88.278 24.3296 87.7414 24.2712 87.2183 24.2712C86.333 24.2712 85.8904 24.5049 85.8904 24.9722C85.8904 25.2058 86.0313 25.407 86.3129 25.5758C86.608 25.7316 87.2049 25.9328 88.1036 26.1794C89.512 26.5429 90.5783 27.1011 91.3026 27.854C92.0269 28.5939 92.3891 29.4831 92.3891 30.5216C92.3891 31.9624 91.9062 33.0723 90.9405 33.8512C89.9747 34.6171 88.5462 35 86.655 35Z" fill="white"/>
<path d="M95.2822 21.2921H105V24.2517H100.171V26.6857H104.577V29.1391H100.171V31.7288H105V34.6885H95.2822V21.2921Z" fill="white"/>
</svg>
