<svg width="386" height="88" viewBox="0 0 386 88" fill="none" xmlns="http://www.w3.org/2000/svg">
<path d="M369.417 49C369.417 58.7595 362.606 67.491 353 67.491C362.606 67.491 369.417 76.2231 369.417 85.982C369.417 76.2231 376.228 67.491 385.834 67.491C376.228 67.491 369.417 58.7595 369.417 49Z" fill="#030731"/>
<path d="M20.417 50C20.417 59.6724 13.6058 68.3259 4 68.3259C13.6058 68.3259 20.417 76.98 20.417 86.6518C20.417 76.98 27.2281 68.3259 36.8339 68.3259C27.2281 68.3259 20.417 59.6724 20.417 50Z" fill="#030731"/>
<path d="M96.9376 48C100.031 48.576 102.331 49.5233 103.838 50.8419C105.365 52.1606 106.128 53.934 106.128 56.1621C106.128 57.6474 105.923 58.8979 105.512 59.9134C105.101 60.9138 104.582 61.7474 103.955 62.4143C103.329 63.0661 102.644 63.5738 101.9 63.9376C101.176 64.2862 100.5 64.5439 99.874 64.7106C99.2476 64.8773 98.7092 64.9759 98.259 65.0062C97.8283 65.0365 97.6032 65.0516 97.5836 65.0516C98.3471 65.082 99.1595 65.1502 100.021 65.2563C100.902 65.3624 101.773 65.5291 102.634 65.7564C103.495 65.9838 104.318 66.2794 105.101 66.6431C105.884 67.0069 106.569 67.4616 107.156 68.0073C107.763 68.5378 108.243 69.1744 108.595 69.917C108.947 70.6597 109.123 71.5161 109.123 72.4862C109.123 73.9715 108.879 75.3508 108.389 76.624C107.92 77.8972 107.078 79.0037 105.864 79.9434C104.67 80.868 103.035 81.5955 100.96 82.126C98.8854 82.6565 96.2623 82.9218 93.091 82.9218H59V73.0545L62.7585 72.4862V57.5944L59 57.026V48H96.9376ZM90.3308 59.1859C90.3308 58.4129 90.1547 57.8217 89.8023 57.4125C89.4695 56.9881 89.0193 56.6774 88.4516 56.4804C87.8839 56.2833 87.2379 56.1696 86.5136 56.1393C85.7893 56.109 85.0552 56.0938 84.3113 56.0938H81.5512V62.6189H84.3113C85.0552 62.6189 85.7893 62.6038 86.5136 62.5735C87.2379 62.528 87.8839 62.3992 88.4516 62.187C89.0193 61.9748 89.4695 61.6413 89.8023 61.1866C90.1547 60.7167 90.3308 60.0498 90.3308 59.1859ZM90.3308 70.5309C90.3308 69.7579 90.1547 69.1668 89.8023 68.7575C89.4695 68.3483 89.0193 68.0452 88.4516 67.8481C87.8839 67.6511 87.2379 67.5374 86.5136 67.5071C85.7893 67.4768 85.0552 67.4616 84.3113 67.4616H81.5512V73.9867H84.3113C85.0552 73.9867 85.7893 73.9715 86.5136 73.9412C87.2379 73.8958 87.8839 73.7669 88.4516 73.5547C89.0193 73.3425 89.4695 73.0015 89.8023 72.5316C90.1547 72.0618 90.3308 71.3949 90.3308 70.5309Z" fill="#030731"/>
<path d="M161.39 58.4356C161.371 58.9206 161.361 59.3981 161.361 59.8679C161.361 60.3227 161.361 60.7698 161.361 61.2093V65.0516C161.361 68.2649 160.793 71.0387 159.658 73.3728C158.542 75.6919 157.006 77.6092 155.048 79.1249C153.11 80.6255 150.839 81.7016 148.236 82.3534C145.632 83.0051 142.862 83.331 139.926 83.331C137.635 83.331 135.433 83.2098 133.319 82.9672C131.224 82.7399 129.267 82.3079 127.446 81.6713C125.626 81.0196 123.972 80.2011 122.484 79.2159C120.996 78.2155 119.714 77.0333 118.637 75.6691C117.58 74.2898 116.758 72.7211 116.171 70.9629C115.603 69.2047 115.319 67.2343 115.319 65.0516V58.4356L111.561 57.8672V48H135.962V57.8672L132.203 58.4356V61.3685C132.203 61.7474 132.203 62.1339 132.203 62.528C132.203 62.9069 132.203 63.2631 132.203 63.5966C132.223 63.93 132.233 64.2256 132.233 64.4833C132.233 64.7409 132.233 64.9304 132.233 65.0516C132.233 65.4306 132.242 65.8701 132.262 66.3703C132.281 66.8705 132.36 67.3934 132.497 67.9391C132.653 68.4696 132.879 69 133.172 69.5305C133.466 70.061 133.887 70.5385 134.435 70.9629C135.002 71.3721 135.707 71.7056 136.549 71.9632C137.41 72.2209 138.467 72.3497 139.72 72.3497C140.973 72.3497 142.02 72.2209 142.862 71.9632C143.723 71.7056 144.438 71.3721 145.006 70.9629C145.573 70.5385 146.004 70.061 146.298 69.5305C146.611 69 146.836 68.4696 146.973 67.9391C147.11 67.3934 147.188 66.8705 147.208 66.3703C147.247 65.8701 147.267 65.4306 147.267 65.0516C147.267 64.9304 147.267 64.7409 147.267 64.4833C147.267 64.2256 147.257 63.93 147.237 63.5966C147.237 63.2631 147.237 62.9069 147.237 62.528C147.237 62.1339 147.237 61.7474 147.237 61.3685V58.4356L143.479 57.8672V48H165.149V57.8672L161.39 58.4356Z" fill="#030731"/>
<path d="M185.057 65.8929V72.4862L188.816 73.0318V82.9218H170.023V73.0545L173.782 72.4862V58.4356L170.023 57.8672V48H192.574L207.609 65.8929V58.4811L203.85 57.8672V48H222.643V57.8672L218.884 58.4356V72.4862L222.643 73.0545V82.9218H200.062L185.057 65.8929Z" fill="#030731"/>
<path d="M243.667 65.8929V72.4862L247.425 73.0318V82.9218H228.633V73.0545L232.391 72.4862V58.4356L228.633 57.8672V48H251.184L266.218 65.8929V58.4811L262.46 57.8672V48H281.252V57.8672L277.494 58.4356V72.4862L281.252 73.0545V82.9218H258.672L243.667 65.8929Z" fill="#030731"/>
<path d="M298.577 82.9218V73.1L302.335 72.3725L289.445 58.4129L284.688 57.8672V48H309.764V57.8672L306.828 58.4129L312.789 65.5518L318.749 58.4129L315.813 57.8672V48H340.86V57.8672L336.133 58.4129L323.242 72.3725L327.001 73.1V82.9218H298.577Z" fill="#030731"/>
<path d="M101.529 40.3028H81.0576C80.4138 39.3552 79.7486 38.3494 79.0619 37.2854C78.3752 36.2215 77.71 35.1159 77.0662 33.9689C76.4224 32.8218 75.8216 31.6331 75.2637 30.4029C74.7057 29.1727 74.2336 27.9092 73.8474 26.6125H72.7208V40.3028H48V29.4802L52.1201 28.8568V13.4459L48 12.8225V2H76.0362C79.7486 2 82.9567 2.133 85.6605 2.39899C88.3644 2.66498 90.6605 3.04734 92.5489 3.54608C94.4373 4.02819 95.9609 4.62667 97.1196 5.34152C98.2999 6.03975 99.2119 6.83772 99.8557 7.73544C100.521 8.61654 100.961 9.58907 101.175 10.653C101.411 11.7004 101.529 12.8142 101.529 13.9946C101.529 15.1915 101.379 16.2804 101.079 17.2613C100.8 18.2255 100.296 19.1149 99.566 19.9295C98.8364 20.7441 97.8385 21.4922 96.5724 22.1738C95.3064 22.8388 93.6969 23.4705 91.7442 24.069C92.1519 24.734 92.7635 25.5153 93.5789 26.413C94.3943 27.2941 95.2742 28.2002 96.2184 29.1311C97.1626 30.0455 98.1068 30.9432 99.0509 31.8243C100.017 32.6888 100.843 33.4286 101.529 34.0437V40.3028ZM72.7208 19.2562C73.9654 19.2562 75.092 19.2146 76.1006 19.1315C77.1306 19.0484 77.9997 18.8572 78.7078 18.558C79.4374 18.2587 79.9954 17.8182 80.3816 17.2363C80.7679 16.6545 80.961 15.8731 80.961 14.8923C80.961 13.9281 80.7679 13.1633 80.3816 12.5981C79.9954 12.0162 79.4374 11.5674 78.7078 11.2515C77.9997 10.9357 77.1306 10.7278 76.1006 10.6281C75.092 10.5284 73.9654 10.4785 72.7208 10.4785V19.2562Z" fill="#030731"/>
<path d="M147.585 40.3028L145.847 33.8691H132.392L130.686 40.3028H112.371V27.7347L116.33 27.1113L125.825 2H152.413L161.941 27.1113L165.9 27.7347V40.3028H147.585ZM135.16 25.3158H143.078L139.119 10.8775L135.16 25.3158Z" fill="#030731"/>
<path d="M194.123 21.6252V28.8568L198.243 29.4553V40.3028H177.642V29.4802L181.762 28.8568V13.4459L177.642 12.8225V2H202.363L218.844 21.6252V13.4958L214.724 12.8225V2H235.324V12.8225L231.204 13.4459V28.8568L235.324 29.4802V40.3028H210.571L194.123 21.6252Z" fill="#030731"/>
<path d="M285.886 2C288.997 2.51536 291.798 3.26346 294.287 4.2443C296.776 5.20852 298.89 6.44705 300.628 7.95987C302.388 9.4727 303.729 11.2848 304.652 13.3961C305.596 15.4908 306.068 17.9262 306.068 20.7025C306.068 24.3765 305.274 27.4687 303.686 29.979C302.098 32.4726 299.856 34.4842 296.959 36.0137C294.083 37.5431 290.618 38.6403 286.562 39.3053C282.506 39.9703 278.021 40.3028 273.107 40.3028H248.386V29.4802L252.506 28.8568V12.5233L248.386 11.8999V2H285.886ZM276.261 28.8568C278.558 28.8568 280.328 28.6656 281.573 28.2833C282.817 27.8843 283.718 27.3274 284.276 26.6125C284.856 25.8977 285.188 25.0415 285.274 24.044C285.382 23.0466 285.435 21.9327 285.435 20.7025C285.435 19.4723 285.382 18.3585 285.274 17.361C285.188 16.3469 284.856 15.4824 284.276 14.7676C283.718 14.0527 282.817 13.5041 281.573 13.1218C280.328 12.7228 278.558 12.5233 276.261 12.5233H273.107V28.8568H276.261Z" fill="#030731"/>
<path d="M317.649 2H346.49V12.8225L342.37 13.4459V28.8568L346.49 29.4802V40.3028H317.649V29.4802L321.77 28.8568V13.4459L317.649 12.8225V2Z" fill="#030731"/>
<mask id="path-5-outside-1_616_404" maskUnits="userSpaceOnUse" x="37" y="0" width="303" height="43" fill="black">
<rect fill="white" x="37" width="303" height="43"/>
<path d="M92.5295 40.3028H72.0576C71.4138 39.3552 70.7486 38.3494 70.0619 37.2854C69.3752 36.2215 68.71 35.1159 68.0662 33.9689C67.4224 32.8218 66.8216 31.6331 66.2637 30.4029C65.7057 29.1727 65.2336 27.9092 64.8474 26.6125H63.7208V40.3028H39V29.4802L43.1201 28.8568V13.4459L39 12.8225V2H67.0362C70.7486 2 73.9567 2.133 76.6605 2.39899C79.3644 2.66498 81.6605 3.04734 83.5489 3.54608C85.4373 4.02819 86.9609 4.62667 88.1196 5.34152C89.2999 6.03975 90.2119 6.83772 90.8557 7.73544C91.5209 8.61654 91.9608 9.58907 92.1754 10.653C92.4114 11.7004 92.5295 12.8142 92.5295 13.9946C92.5295 15.1915 92.3792 16.2804 92.0788 17.2613C91.7999 18.2255 91.2956 19.1149 90.566 19.9295C89.8364 20.7441 88.8385 21.4922 87.5724 22.1738C86.3064 22.8388 84.6969 23.4705 82.7442 24.069C83.1519 24.734 83.7635 25.5153 84.5789 26.413C85.3943 27.2941 86.2742 28.2002 87.2184 29.1311C88.1626 30.0455 89.1068 30.9432 90.0509 31.8243C91.0166 32.6888 91.8428 33.4286 92.5295 34.0437V40.3028ZM63.7208 19.2562C64.9654 19.2562 66.092 19.2146 67.1006 19.1315C68.1306 19.0484 68.9997 18.8572 69.7078 18.558C70.4374 18.2587 70.9954 17.8182 71.3816 17.2363C71.7679 16.6545 71.961 15.8731 71.961 14.8923C71.961 13.9281 71.7679 13.1633 71.3816 12.5981C70.9954 12.0162 70.4374 11.5674 69.7078 11.2515C68.9997 10.9357 68.1306 10.7278 67.1006 10.6281C66.092 10.5284 64.9654 10.4785 63.7208 10.4785V19.2562Z"/>
<path d="M138.585 40.3028L136.847 33.8691H123.392L121.686 40.3028H103.371V27.7347L107.33 27.1113L116.825 2H143.413L152.941 27.1113L156.9 27.7347V40.3028H138.585ZM126.16 25.3158H134.078L130.119 10.8775L126.16 25.3158Z"/>
<path d="M185.123 21.6252V28.8568L189.243 29.4553V40.3028H168.642V29.4802L172.762 28.8568V13.4459L168.642 12.8225V2H193.363L209.844 21.6252V13.4958L205.724 12.8225V2H226.324V12.8225L222.204 13.4459V28.8568L226.324 29.4802V40.3028H201.571L185.123 21.6252Z"/>
<path d="M276.886 2C279.997 2.51536 282.798 3.26346 285.287 4.2443C287.776 5.20852 289.89 6.44705 291.628 7.95987C293.388 9.4727 294.729 11.2848 295.652 13.3961C296.596 15.4908 297.068 17.9262 297.068 20.7025C297.068 24.3765 296.274 27.4687 294.686 29.979C293.098 32.4726 290.856 34.4842 287.959 36.0137C285.083 37.5431 281.618 38.6403 277.562 39.3053C273.506 39.9703 269.021 40.3028 264.107 40.3028H239.386V29.4802L243.506 28.8568V12.5233L239.386 11.8999V2H276.886ZM267.261 28.8568C269.558 28.8568 271.328 28.6656 272.573 28.2833C273.817 27.8843 274.718 27.3274 275.276 26.6125C275.856 25.8977 276.188 25.0415 276.274 24.044C276.382 23.0466 276.435 21.9327 276.435 20.7025C276.435 19.4723 276.382 18.3585 276.274 17.361C276.188 16.3469 275.856 15.4824 275.276 14.7676C274.718 14.0527 273.817 13.5041 272.573 13.1218C271.328 12.7228 269.558 12.5233 267.261 12.5233H264.107V28.8568H267.261Z"/>
<path d="M308.649 2H337.49V12.8225L333.37 13.4459V28.8568L337.49 29.4802V40.3028H308.649V29.4802L312.77 28.8568V13.4459L308.649 12.8225V2Z"/>
</mask>
<path d="M92.5295 40.3028H72.0576C71.4138 39.3552 70.7486 38.3494 70.0619 37.2854C69.3752 36.2215 68.71 35.1159 68.0662 33.9689C67.4224 32.8218 66.8216 31.6331 66.2637 30.4029C65.7057 29.1727 65.2336 27.9092 64.8474 26.6125H63.7208V40.3028H39V29.4802L43.1201 28.8568V13.4459L39 12.8225V2H67.0362C70.7486 2 73.9567 2.133 76.6605 2.39899C79.3644 2.66498 81.6605 3.04734 83.5489 3.54608C85.4373 4.02819 86.9609 4.62667 88.1196 5.34152C89.2999 6.03975 90.2119 6.83772 90.8557 7.73544C91.5209 8.61654 91.9608 9.58907 92.1754 10.653C92.4114 11.7004 92.5295 12.8142 92.5295 13.9946C92.5295 15.1915 92.3792 16.2804 92.0788 17.2613C91.7999 18.2255 91.2956 19.1149 90.566 19.9295C89.8364 20.7441 88.8385 21.4922 87.5724 22.1738C86.3064 22.8388 84.6969 23.4705 82.7442 24.069C83.1519 24.734 83.7635 25.5153 84.5789 26.413C85.3943 27.2941 86.2742 28.2002 87.2184 29.1311C88.1626 30.0455 89.1068 30.9432 90.0509 31.8243C91.0166 32.6888 91.8428 33.4286 92.5295 34.0437V40.3028ZM63.7208 19.2562C64.9654 19.2562 66.092 19.2146 67.1006 19.1315C68.1306 19.0484 68.9997 18.8572 69.7078 18.558C70.4374 18.2587 70.9954 17.8182 71.3816 17.2363C71.7679 16.6545 71.961 15.8731 71.961 14.8923C71.961 13.9281 71.7679 13.1633 71.3816 12.5981C70.9954 12.0162 70.4374 11.5674 69.7078 11.2515C68.9997 10.9357 68.1306 10.7278 67.1006 10.6281C66.092 10.5284 64.9654 10.4785 63.7208 10.4785V19.2562Z" fill="#E4D7CA"/>
<path d="M138.585 40.3028L136.847 33.8691H123.392L121.686 40.3028H103.371V27.7347L107.33 27.1113L116.825 2H143.413L152.941 27.1113L156.9 27.7347V40.3028H138.585ZM126.16 25.3158H134.078L130.119 10.8775L126.16 25.3158Z" fill="#E4D7CA"/>
<path d="M185.123 21.6252V28.8568L189.243 29.4553V40.3028H168.642V29.4802L172.762 28.8568V13.4459L168.642 12.8225V2H193.363L209.844 21.6252V13.4958L205.724 12.8225V2H226.324V12.8225L222.204 13.4459V28.8568L226.324 29.4802V40.3028H201.571L185.123 21.6252Z" fill="#E4D7CA"/>
<path d="M276.886 2C279.997 2.51536 282.798 3.26346 285.287 4.2443C287.776 5.20852 289.89 6.44705 291.628 7.95987C293.388 9.4727 294.729 11.2848 295.652 13.3961C296.596 15.4908 297.068 17.9262 297.068 20.7025C297.068 24.3765 296.274 27.4687 294.686 29.979C293.098 32.4726 290.856 34.4842 287.959 36.0137C285.083 37.5431 281.618 38.6403 277.562 39.3053C273.506 39.9703 269.021 40.3028 264.107 40.3028H239.386V29.4802L243.506 28.8568V12.5233L239.386 11.8999V2H276.886ZM267.261 28.8568C269.558 28.8568 271.328 28.6656 272.573 28.2833C273.817 27.8843 274.718 27.3274 275.276 26.6125C275.856 25.8977 276.188 25.0415 276.274 24.044C276.382 23.0466 276.435 21.9327 276.435 20.7025C276.435 19.4723 276.382 18.3585 276.274 17.361C276.188 16.3469 275.856 15.4824 275.276 14.7676C274.718 14.0527 273.817 13.5041 272.573 13.1218C271.328 12.7228 269.558 12.5233 267.261 12.5233H264.107V28.8568H267.261Z" fill="#E4D7CA"/>
<path d="M308.649 2H337.49V12.8225L333.37 13.4459V28.8568L337.49 29.4802V40.3028H308.649V29.4802L312.77 28.8568V13.4459L308.649 12.8225V2Z" fill="#E4D7CA"/>
<path d="M92.5295 40.3028H72.0576C71.4138 39.3552 70.7486 38.3494 70.0619 37.2854C69.3752 36.2215 68.71 35.1159 68.0662 33.9689C67.4224 32.8218 66.8216 31.6331 66.2637 30.4029C65.7057 29.1727 65.2336 27.9092 64.8474 26.6125H63.7208V40.3028H39V29.4802L43.1201 28.8568V13.4459L39 12.8225V2H67.0362C70.7486 2 73.9567 2.133 76.6605 2.39899C79.3644 2.66498 81.6605 3.04734 83.5489 3.54608C85.4373 4.02819 86.9609 4.62667 88.1196 5.34152C89.2999 6.03975 90.2119 6.83772 90.8557 7.73544C91.5209 8.61654 91.9608 9.58907 92.1754 10.653C92.4114 11.7004 92.5295 12.8142 92.5295 13.9946C92.5295 15.1915 92.3792 16.2804 92.0788 17.2613C91.7999 18.2255 91.2956 19.1149 90.566 19.9295C89.8364 20.7441 88.8385 21.4922 87.5724 22.1738C86.3064 22.8388 84.6969 23.4705 82.7442 24.069C83.1519 24.734 83.7635 25.5153 84.5789 26.413C85.3943 27.2941 86.2742 28.2002 87.2184 29.1311C88.1626 30.0455 89.1068 30.9432 90.0509 31.8243C91.0166 32.6888 91.8428 33.4286 92.5295 34.0437V40.3028ZM63.7208 19.2562C64.9654 19.2562 66.092 19.2146 67.1006 19.1315C68.1306 19.0484 68.9997 18.8572 69.7078 18.558C70.4374 18.2587 70.9954 17.8182 71.3816 17.2363C71.7679 16.6545 71.961 15.8731 71.961 14.8923C71.961 13.9281 71.7679 13.1633 71.3816 12.5981C70.9954 12.0162 70.4374 11.5674 69.7078 11.2515C68.9997 10.9357 68.1306 10.7278 67.1006 10.6281C66.092 10.5284 64.9654 10.4785 63.7208 10.4785V19.2562Z" stroke="#6A1C1C" stroke-width="4" mask="url(#path-5-outside-1_616_404)"/>
<path d="M138.585 40.3028L136.847 33.8691H123.392L121.686 40.3028H103.371V27.7347L107.33 27.1113L116.825 2H143.413L152.941 27.1113L156.9 27.7347V40.3028H138.585ZM126.16 25.3158H134.078L130.119 10.8775L126.16 25.3158Z" stroke="#6A1C1C" stroke-width="4" mask="url(#path-5-outside-1_616_404)"/>
<path d="M185.123 21.6252V28.8568L189.243 29.4553V40.3028H168.642V29.4802L172.762 28.8568V13.4459L168.642 12.8225V2H193.363L209.844 21.6252V13.4958L205.724 12.8225V2H226.324V12.8225L222.204 13.4459V28.8568L226.324 29.4802V40.3028H201.571L185.123 21.6252Z" stroke="#6A1C1C" stroke-width="4" mask="url(#path-5-outside-1_616_404)"/>
<path d="M276.886 2C279.997 2.51536 282.798 3.26346 285.287 4.2443C287.776 5.20852 289.89 6.44705 291.628 7.95987C293.388 9.4727 294.729 11.2848 295.652 13.3961C296.596 15.4908 297.068 17.9262 297.068 20.7025C297.068 24.3765 296.274 27.4687 294.686 29.979C293.098 32.4726 290.856 34.4842 287.959 36.0137C285.083 37.5431 281.618 38.6403 277.562 39.3053C273.506 39.9703 269.021 40.3028 264.107 40.3028H239.386V29.4802L243.506 28.8568V12.5233L239.386 11.8999V2H276.886ZM267.261 28.8568C269.558 28.8568 271.328 28.6656 272.573 28.2833C273.817 27.8843 274.718 27.3274 275.276 26.6125C275.856 25.8977 276.188 25.0415 276.274 24.044C276.382 23.0466 276.435 21.9327 276.435 20.7025C276.435 19.4723 276.382 18.3585 276.274 17.361C276.188 16.3469 275.856 15.4824 275.276 14.7676C274.718 14.0527 273.817 13.5041 272.573 13.1218C271.328 12.7228 269.558 12.5233 267.261 12.5233H264.107V28.8568H267.261Z" stroke="#6A1C1C" stroke-width="4" mask="url(#path-5-outside-1_616_404)"/>
<path d="M308.649 2H337.49V12.8225L333.37 13.4459V28.8568L337.49 29.4802V40.3028H308.649V29.4802L312.77 28.8568V13.4459L308.649 12.8225V2Z" stroke="#6A1C1C" stroke-width="4" mask="url(#path-5-outside-1_616_404)"/>
<mask id="path-6-outside-2_616_404" maskUnits="userSpaceOnUse" x="47.5088" y="45.5581" width="286" height="40" fill="black">
<rect fill="white" x="47.5088" y="45.5581" width="286" height="40"/>
<path d="M87.4464 47.5581C90.5394 48.1341 92.8395 49.0814 94.3468 50.4C95.8737 51.7187 96.6372 53.4921 96.6372 55.7202C96.6372 57.2055 96.4316 58.456 96.0206 59.4715C95.6095 60.4719 95.0907 61.3055 94.4643 61.9724C93.8379 62.6242 93.1527 63.1319 92.4088 63.4957C91.6845 63.8443 91.0092 64.102 90.3828 64.2687C89.7563 64.4354 89.218 64.534 88.7678 64.5643C88.3371 64.5946 88.112 64.6097 88.0924 64.6097C88.8559 64.6401 89.6682 64.7083 90.5296 64.8144C91.4105 64.9205 92.2816 65.0872 93.1429 65.3146C94.0043 65.5419 94.8264 65.8375 95.6095 66.2012C96.3925 66.565 97.0776 67.0197 97.6649 67.5654C98.2718 68.0959 98.7514 68.7325 99.1037 69.4752C99.4561 70.2178 99.6323 71.0742 99.6323 72.0443C99.6323 73.5297 99.3876 74.9089 98.8982 76.1821C98.4284 77.4553 97.5866 78.5618 96.3729 79.5015C95.1788 80.4261 93.5442 81.1536 91.4692 81.6841C89.3942 82.2146 86.7711 82.4799 83.5998 82.4799H49.5088V72.6127L53.2673 72.0443V57.1525L49.5088 56.5841V47.5581H87.4464ZM80.8396 58.744C80.8396 57.971 80.6634 57.3799 80.3111 56.9706C79.9783 56.5462 79.5281 56.2355 78.9604 56.0385C78.3927 55.8414 77.7467 55.7277 77.0224 55.6974C76.2981 55.6671 75.564 55.652 74.8201 55.652H72.0599V62.177H74.8201C75.564 62.177 76.2981 62.1619 77.0224 62.1316C77.7467 62.0861 78.3927 61.9573 78.9604 61.7451C79.5281 61.5329 79.9783 61.1994 80.3111 60.7447C80.6634 60.2748 80.8396 59.6079 80.8396 58.744ZM80.8396 70.089C80.8396 69.316 80.6634 68.7249 80.3111 68.3156C79.9783 67.9064 79.5281 67.6033 78.9604 67.4062C78.3927 67.2092 77.7467 67.0955 77.0224 67.0652C76.2981 67.0349 75.564 67.0197 74.8201 67.0197H72.0599V73.5448H74.8201C75.564 73.5448 76.2981 73.5297 77.0224 73.4993C77.7467 73.4539 78.3927 73.325 78.9604 73.1128C79.5281 72.9006 79.9783 72.5596 80.3111 72.0897C80.6634 71.6199 80.8396 70.953 80.8396 70.089Z"/>
<path d="M151.899 57.9937C151.88 58.4787 151.87 58.9562 151.87 59.426C151.87 59.8808 151.87 60.3279 151.87 60.7674V64.6097C151.87 67.823 151.302 70.5968 150.167 72.931C149.051 75.25 147.514 77.1673 145.557 78.683C143.619 80.1836 141.348 81.2597 138.744 81.9115C136.141 82.5632 133.371 82.8891 130.435 82.8891C128.144 82.8891 125.942 82.7679 123.828 82.5253C121.733 82.298 119.776 81.866 117.955 81.2294C116.135 80.5777 114.48 79.7592 112.993 78.774C111.505 77.7736 110.223 76.5914 109.146 75.2272C108.089 73.848 107.267 72.2792 106.679 70.521C106.112 68.7628 105.828 66.7924 105.828 64.6097V57.9937L102.069 57.4253V47.5581H126.47V57.4253L122.712 57.9937V60.9266C122.712 61.3055 122.712 61.692 122.712 62.0861C122.712 62.465 122.712 62.8212 122.712 63.1547C122.732 63.4881 122.741 63.7837 122.741 64.0414C122.741 64.299 122.741 64.4885 122.741 64.6097C122.741 64.9887 122.751 65.4282 122.771 65.9284C122.79 66.4286 122.869 66.9515 123.006 67.4972C123.162 68.0277 123.387 68.5582 123.681 69.0886C123.975 69.6191 124.395 70.0966 124.944 70.521C125.511 70.9302 126.216 71.2637 127.058 71.5213C127.919 71.779 128.976 71.9079 130.229 71.9079C131.482 71.9079 132.529 71.779 133.371 71.5213C134.232 71.2637 134.947 70.9302 135.514 70.521C136.082 70.0966 136.513 69.6191 136.806 69.0886C137.12 68.5582 137.345 68.0277 137.482 67.4972C137.619 66.9515 137.697 66.4286 137.717 65.9284C137.756 65.4282 137.775 64.9887 137.775 64.6097C137.775 64.4885 137.775 64.299 137.775 64.0414C137.775 63.7837 137.766 63.4881 137.746 63.1547C137.746 62.8212 137.746 62.465 137.746 62.0861C137.746 61.692 137.746 61.3055 137.746 60.9266V57.9937L133.988 57.4253V47.5581H155.658V57.4253L151.899 57.9937Z"/>
<path d="M175.566 65.451V72.0443L179.325 72.5899V82.4799H160.532V72.6127L164.291 72.0443V57.9937L160.532 57.4253V47.5581H183.083L198.117 65.451V58.0392L194.359 57.4253V47.5581H213.151V57.4253L209.393 57.9937V72.0443L213.151 72.6127V82.4799H190.571L175.566 65.451Z"/>
<path d="M234.176 65.451V72.0443L237.934 72.5899V82.4799H219.142V72.6127L222.9 72.0443V57.9937L219.142 57.4253V47.5581H241.693L256.727 65.451V58.0392L252.968 57.4253V47.5581H271.761V57.4253L268.002 57.9937V72.0443L271.761 72.6127V82.4799H249.18L234.176 65.451Z"/>
<path d="M289.085 82.4799V72.6581L292.844 71.9306L279.953 57.971L275.197 57.4253V47.5581H300.273V57.4253L297.337 57.971L303.297 65.1099L309.258 57.971L306.322 57.4253V47.5581H331.369V57.4253L326.641 57.971L313.751 71.9306L317.509 72.6581V82.4799H289.085Z"/>
</mask>
<path d="M87.4464 47.5581C90.5394 48.1341 92.8395 49.0814 94.3468 50.4C95.8737 51.7187 96.6372 53.4921 96.6372 55.7202C96.6372 57.2055 96.4316 58.456 96.0206 59.4715C95.6095 60.4719 95.0907 61.3055 94.4643 61.9724C93.8379 62.6242 93.1527 63.1319 92.4088 63.4957C91.6845 63.8443 91.0092 64.102 90.3828 64.2687C89.7563 64.4354 89.218 64.534 88.7678 64.5643C88.3371 64.5946 88.112 64.6097 88.0924 64.6097C88.8559 64.6401 89.6682 64.7083 90.5296 64.8144C91.4105 64.9205 92.2816 65.0872 93.1429 65.3146C94.0043 65.5419 94.8264 65.8375 95.6095 66.2012C96.3925 66.565 97.0776 67.0197 97.6649 67.5654C98.2718 68.0959 98.7514 68.7325 99.1037 69.4752C99.4561 70.2178 99.6323 71.0742 99.6323 72.0443C99.6323 73.5297 99.3876 74.9089 98.8982 76.1821C98.4284 77.4553 97.5866 78.5618 96.3729 79.5015C95.1788 80.4261 93.5442 81.1536 91.4692 81.6841C89.3942 82.2146 86.7711 82.4799 83.5998 82.4799H49.5088V72.6127L53.2673 72.0443V57.1525L49.5088 56.5841V47.5581H87.4464ZM80.8396 58.744C80.8396 57.971 80.6634 57.3799 80.3111 56.9706C79.9783 56.5462 79.5281 56.2355 78.9604 56.0385C78.3927 55.8414 77.7467 55.7277 77.0224 55.6974C76.2981 55.6671 75.564 55.652 74.8201 55.652H72.0599V62.177H74.8201C75.564 62.177 76.2981 62.1619 77.0224 62.1316C77.7467 62.0861 78.3927 61.9573 78.9604 61.7451C79.5281 61.5329 79.9783 61.1994 80.3111 60.7447C80.6634 60.2748 80.8396 59.6079 80.8396 58.744ZM80.8396 70.089C80.8396 69.316 80.6634 68.7249 80.3111 68.3156C79.9783 67.9064 79.5281 67.6033 78.9604 67.4062C78.3927 67.2092 77.7467 67.0955 77.0224 67.0652C76.2981 67.0349 75.564 67.0197 74.8201 67.0197H72.0599V73.5448H74.8201C75.564 73.5448 76.2981 73.5297 77.0224 73.4993C77.7467 73.4539 78.3927 73.325 78.9604 73.1128C79.5281 72.9006 79.9783 72.5596 80.3111 72.0897C80.6634 71.6199 80.8396 70.953 80.8396 70.089Z" fill="#E4D7CA"/>
<path d="M151.899 57.9937C151.88 58.4787 151.87 58.9562 151.87 59.426C151.87 59.8808 151.87 60.3279 151.87 60.7674V64.6097C151.87 67.823 151.302 70.5968 150.167 72.931C149.051 75.25 147.514 77.1673 145.557 78.683C143.619 80.1836 141.348 81.2597 138.744 81.9115C136.141 82.5632 133.371 82.8891 130.435 82.8891C128.144 82.8891 125.942 82.7679 123.828 82.5253C121.733 82.298 119.776 81.866 117.955 81.2294C116.135 80.5777 114.48 79.7592 112.993 78.774C111.505 77.7736 110.223 76.5914 109.146 75.2272C108.089 73.848 107.267 72.2792 106.679 70.521C106.112 68.7628 105.828 66.7924 105.828 64.6097V57.9937L102.069 57.4253V47.5581H126.47V57.4253L122.712 57.9937V60.9266C122.712 61.3055 122.712 61.692 122.712 62.0861C122.712 62.465 122.712 62.8212 122.712 63.1547C122.732 63.4881 122.741 63.7837 122.741 64.0414C122.741 64.299 122.741 64.4885 122.741 64.6097C122.741 64.9887 122.751 65.4282 122.771 65.9284C122.79 66.4286 122.869 66.9515 123.006 67.4972C123.162 68.0277 123.387 68.5582 123.681 69.0886C123.975 69.6191 124.395 70.0966 124.944 70.521C125.511 70.9302 126.216 71.2637 127.058 71.5213C127.919 71.779 128.976 71.9079 130.229 71.9079C131.482 71.9079 132.529 71.779 133.371 71.5213C134.232 71.2637 134.947 70.9302 135.514 70.521C136.082 70.0966 136.513 69.6191 136.806 69.0886C137.12 68.5582 137.345 68.0277 137.482 67.4972C137.619 66.9515 137.697 66.4286 137.717 65.9284C137.756 65.4282 137.775 64.9887 137.775 64.6097C137.775 64.4885 137.775 64.299 137.775 64.0414C137.775 63.7837 137.766 63.4881 137.746 63.1547C137.746 62.8212 137.746 62.465 137.746 62.0861C137.746 61.692 137.746 61.3055 137.746 60.9266V57.9937L133.988 57.4253V47.5581H155.658V57.4253L151.899 57.9937Z" fill="#E4D7CA"/>
<path d="M175.566 65.451V72.0443L179.325 72.5899V82.4799H160.532V72.6127L164.291 72.0443V57.9937L160.532 57.4253V47.5581H183.083L198.117 65.451V58.0392L194.359 57.4253V47.5581H213.151V57.4253L209.393 57.9937V72.0443L213.151 72.6127V82.4799H190.571L175.566 65.451Z" fill="#E4D7CA"/>
<path d="M234.176 65.451V72.0443L237.934 72.5899V82.4799H219.142V72.6127L222.9 72.0443V57.9937L219.142 57.4253V47.5581H241.693L256.727 65.451V58.0392L252.968 57.4253V47.5581H271.761V57.4253L268.002 57.9937V72.0443L271.761 72.6127V82.4799H249.18L234.176 65.451Z" fill="#E4D7CA"/>
<path d="M289.085 82.4799V72.6581L292.844 71.9306L279.953 57.971L275.197 57.4253V47.5581H300.273V57.4253L297.337 57.971L303.297 65.1099L309.258 57.971L306.322 57.4253V47.5581H331.369V57.4253L326.641 57.971L313.751 71.9306L317.509 72.6581V82.4799H289.085Z" fill="#E4D7CA"/>
<path d="M87.4464 47.5581C90.5394 48.1341 92.8395 49.0814 94.3468 50.4C95.8737 51.7187 96.6372 53.4921 96.6372 55.7202C96.6372 57.2055 96.4316 58.456 96.0206 59.4715C95.6095 60.4719 95.0907 61.3055 94.4643 61.9724C93.8379 62.6242 93.1527 63.1319 92.4088 63.4957C91.6845 63.8443 91.0092 64.102 90.3828 64.2687C89.7563 64.4354 89.218 64.534 88.7678 64.5643C88.3371 64.5946 88.112 64.6097 88.0924 64.6097C88.8559 64.6401 89.6682 64.7083 90.5296 64.8144C91.4105 64.9205 92.2816 65.0872 93.1429 65.3146C94.0043 65.5419 94.8264 65.8375 95.6095 66.2012C96.3925 66.565 97.0776 67.0197 97.6649 67.5654C98.2718 68.0959 98.7514 68.7325 99.1037 69.4752C99.4561 70.2178 99.6323 71.0742 99.6323 72.0443C99.6323 73.5297 99.3876 74.9089 98.8982 76.1821C98.4284 77.4553 97.5866 78.5618 96.3729 79.5015C95.1788 80.4261 93.5442 81.1536 91.4692 81.6841C89.3942 82.2146 86.7711 82.4799 83.5998 82.4799H49.5088V72.6127L53.2673 72.0443V57.1525L49.5088 56.5841V47.5581H87.4464ZM80.8396 58.744C80.8396 57.971 80.6634 57.3799 80.3111 56.9706C79.9783 56.5462 79.5281 56.2355 78.9604 56.0385C78.3927 55.8414 77.7467 55.7277 77.0224 55.6974C76.2981 55.6671 75.564 55.652 74.8201 55.652H72.0599V62.177H74.8201C75.564 62.177 76.2981 62.1619 77.0224 62.1316C77.7467 62.0861 78.3927 61.9573 78.9604 61.7451C79.5281 61.5329 79.9783 61.1994 80.3111 60.7447C80.6634 60.2748 80.8396 59.6079 80.8396 58.744ZM80.8396 70.089C80.8396 69.316 80.6634 68.7249 80.3111 68.3156C79.9783 67.9064 79.5281 67.6033 78.9604 67.4062C78.3927 67.2092 77.7467 67.0955 77.0224 67.0652C76.2981 67.0349 75.564 67.0197 74.8201 67.0197H72.0599V73.5448H74.8201C75.564 73.5448 76.2981 73.5297 77.0224 73.4993C77.7467 73.4539 78.3927 73.325 78.9604 73.1128C79.5281 72.9006 79.9783 72.5596 80.3111 72.0897C80.6634 71.6199 80.8396 70.953 80.8396 70.089Z" stroke="#6A1A1C" stroke-width="4" mask="url(#path-6-outside-2_616_404)"/>
<path d="M151.899 57.9937C151.88 58.4787 151.87 58.9562 151.87 59.426C151.87 59.8808 151.87 60.3279 151.87 60.7674V64.6097C151.87 67.823 151.302 70.5968 150.167 72.931C149.051 75.25 147.514 77.1673 145.557 78.683C143.619 80.1836 141.348 81.2597 138.744 81.9115C136.141 82.5632 133.371 82.8891 130.435 82.8891C128.144 82.8891 125.942 82.7679 123.828 82.5253C121.733 82.298 119.776 81.866 117.955 81.2294C116.135 80.5777 114.48 79.7592 112.993 78.774C111.505 77.7736 110.223 76.5914 109.146 75.2272C108.089 73.848 107.267 72.2792 106.679 70.521C106.112 68.7628 105.828 66.7924 105.828 64.6097V57.9937L102.069 57.4253V47.5581H126.47V57.4253L122.712 57.9937V60.9266C122.712 61.3055 122.712 61.692 122.712 62.0861C122.712 62.465 122.712 62.8212 122.712 63.1547C122.732 63.4881 122.741 63.7837 122.741 64.0414C122.741 64.299 122.741 64.4885 122.741 64.6097C122.741 64.9887 122.751 65.4282 122.771 65.9284C122.79 66.4286 122.869 66.9515 123.006 67.4972C123.162 68.0277 123.387 68.5582 123.681 69.0886C123.975 69.6191 124.395 70.0966 124.944 70.521C125.511 70.9302 126.216 71.2637 127.058 71.5213C127.919 71.779 128.976 71.9079 130.229 71.9079C131.482 71.9079 132.529 71.779 133.371 71.5213C134.232 71.2637 134.947 70.9302 135.514 70.521C136.082 70.0966 136.513 69.6191 136.806 69.0886C137.12 68.5582 137.345 68.0277 137.482 67.4972C137.619 66.9515 137.697 66.4286 137.717 65.9284C137.756 65.4282 137.775 64.9887 137.775 64.6097C137.775 64.4885 137.775 64.299 137.775 64.0414C137.775 63.7837 137.766 63.4881 137.746 63.1547C137.746 62.8212 137.746 62.465 137.746 62.0861C137.746 61.692 137.746 61.3055 137.746 60.9266V57.9937L133.988 57.4253V47.5581H155.658V57.4253L151.899 57.9937Z" stroke="#6A1A1C" stroke-width="4" mask="url(#path-6-outside-2_616_404)"/>
<path d="M175.566 65.451V72.0443L179.325 72.5899V82.4799H160.532V72.6127L164.291 72.0443V57.9937L160.532 57.4253V47.5581H183.083L198.117 65.451V58.0392L194.359 57.4253V47.5581H213.151V57.4253L209.393 57.9937V72.0443L213.151 72.6127V82.4799H190.571L175.566 65.451Z" stroke="#6A1A1C" stroke-width="4" mask="url(#path-6-outside-2_616_404)"/>
<path d="M234.176 65.451V72.0443L237.934 72.5899V82.4799H219.142V72.6127L222.9 72.0443V57.9937L219.142 57.4253V47.5581H241.693L256.727 65.451V58.0392L252.968 57.4253V47.5581H271.761V57.4253L268.002 57.9937V72.0443L271.761 72.6127V82.4799H249.18L234.176 65.451Z" stroke="#6A1A1C" stroke-width="4" mask="url(#path-6-outside-2_616_404)"/>
<path d="M289.085 82.4799V72.6581L292.844 71.9306L279.953 57.971L275.197 57.4253V47.5581H300.273V57.4253L297.337 57.971L303.297 65.1099L309.258 57.971L306.322 57.4253V47.5581H331.369V57.4253L326.641 57.971L313.751 71.9306L317.509 72.6581V82.4799H289.085Z" stroke="#6A1A1C" stroke-width="4" mask="url(#path-6-outside-2_616_404)"/>
<path d="M5.65105 69.1853C10.8434 67.2614 14.6937 62.7513 16.417 57.3255C18.1402 62.7513 21.9905 67.2614 27.1829 69.1853C21.9905 71.1093 18.1402 75.6196 16.417 81.0453C14.6937 75.6196 10.8434 71.1093 5.65105 69.1853Z" fill="#E4D7CA" stroke="#6A1A1C" stroke-width="2"/>
<path d="M354.055 67.4173C359.26 65.4813 363.118 60.9257 364.843 55.4473C366.568 60.9257 370.425 65.4813 375.631 67.4173C370.425 69.3534 366.568 73.9092 364.843 79.3875C363.118 73.9092 359.26 69.3534 354.055 67.4173Z" fill="#E4D7CA" stroke="#6A1A1C" stroke-width="2"/>
</svg>
