<svg width="294" height="113" viewBox="0 0 294 113" fill="none" xmlns="http://www.w3.org/2000/svg">
<path d="M7.45605 26.3377V78.1323H202.747V97.6615C202.747 95.1142 280.864 52.6596 280.864 52.6596L201.049 7.65771L201.898 26.3377H7.45605Z" fill="#AB310D"/>
<path d="M0.663086 22.0925H197.652V0.865234L292.751 52.6599L200.2 104.454H196.803L197.652 82.3781L0.663086 84.0763V22.0925Z" fill="#FFB94C" stroke="black" stroke-miterlimit="10"/>
<path d="M196.84 90.3688H1.16309V84.5718L197.132 82.8824L196.84 90.3688Z" fill="#8D3A06" stroke="black"/>
<path d="M291.989 53.6442L290.619 59.1252L290.54 59.1703L289.773 59.6107L286.86 61.2829C284.349 62.7241 280.76 64.7838 276.449 67.2581C267.825 72.2067 256.309 78.8136 244.74 85.4471C222.167 98.3904 199.429 111.413 197.533 112.443C197.498 112.341 197.459 112.174 197.433 111.925C197.359 111.222 197.407 110.177 197.513 109.066C197.618 107.965 197.776 106.834 197.908 105.977C197.973 105.549 198.033 105.19 198.075 104.938C198.086 104.879 198.095 104.826 198.103 104.779L291.989 53.6442Z" fill="#8D3A06" stroke="black"/>
<path d="M10.8525 30.5835L206.144 32.2817V16.998L274.071 52.6599L206.993 90.8691V74.7363L12.5507 73.8872L10.8525 30.5835Z" fill="#9D2C16"/>
<path d="M15.9473 34.8292L18.4945 68.7928H211.238C211.238 68.7928 210.389 83.2274 211.238 82.3783C212.088 81.5292 263.033 52.6601 263.033 52.6601L211.238 22.0928V37.3764L15.9473 34.8292Z" fill="#E75620" stroke="black" stroke-miterlimit="10"/>
<path d="M33.3535 62.849C37.8084 62.849 41.4199 58.8574 41.4199 53.9335C41.4199 49.0097 37.8084 45.0181 33.3535 45.0181C28.8985 45.0181 25.2871 49.0097 25.2871 53.9335C25.2871 58.8574 28.8985 62.849 33.3535 62.849Z" fill="#494949"/>
<path d="M34.3715 61.9148C38.4981 61.9148 41.8435 58.4174 41.8435 54.1031C41.8435 49.7889 38.4981 46.2915 34.3715 46.2915C30.2448 46.2915 26.8994 49.7889 26.8994 54.1031C26.8994 58.4174 30.2448 61.9148 34.3715 61.9148Z" fill="#F5F3D9"/>
<path d="M67.3174 62.849C71.7723 62.849 75.3837 58.8574 75.3837 53.9335C75.3837 49.0097 71.7723 45.0181 67.3174 45.0181C62.8624 45.0181 59.251 49.0097 59.251 53.9335C59.251 58.8574 62.8624 62.849 67.3174 62.849Z" fill="#494949"/>
<path d="M68.3373 61.9148C72.464 61.9148 75.8093 58.4174 75.8093 54.1031C75.8093 49.7889 72.464 46.2915 68.3373 46.2915C64.2106 46.2915 60.8652 49.7889 60.8652 54.1031C60.8652 58.4174 64.2106 61.9148 68.3373 61.9148Z" fill="#F5F3D9"/>
<path d="M100.432 61.9999C104.887 61.9999 108.498 58.0083 108.498 53.0844C108.498 48.1605 104.887 44.1689 100.432 44.1689C95.9767 44.1689 92.3652 48.1605 92.3652 53.0844C92.3652 58.0083 95.9767 61.9999 100.432 61.9999Z" fill="#494949"/>
<path d="M101.452 61.0657C105.578 61.0657 108.924 57.5682 108.924 53.254C108.924 48.9397 105.578 45.4424 101.452 45.4424C97.3249 45.4424 93.9795 48.9397 93.9795 53.254C93.9795 57.5682 97.3249 61.0657 101.452 61.0657Z" fill="#F5F3D9"/>
<path d="M134.395 61.9999C138.85 61.9999 142.462 58.0083 142.462 53.0844C142.462 48.1605 138.85 44.1689 134.395 44.1689C129.941 44.1689 126.329 48.1605 126.329 53.0844C126.329 58.0083 129.941 61.9999 134.395 61.9999Z" fill="#494949"/>
<path d="M135.414 61.0657C139.541 61.0657 142.886 57.5682 142.886 53.254C142.886 48.9397 139.541 45.4424 135.414 45.4424C131.288 45.4424 127.942 48.9397 127.942 53.254C127.942 57.5682 131.288 61.0657 135.414 61.0657Z" fill="#F5F3D9"/>
<path d="M168.358 62.849C172.813 62.849 176.425 58.8574 176.425 53.9335C176.425 49.0097 172.813 45.0181 168.358 45.0181C163.903 45.0181 160.292 49.0097 160.292 53.9335C160.292 58.8574 163.903 62.849 168.358 62.849Z" fill="#494949"/>
<path d="M169.377 61.9148C173.504 61.9148 176.849 58.4174 176.849 54.1031C176.849 49.7889 173.504 46.2915 169.377 46.2915C165.251 46.2915 161.905 49.7889 161.905 54.1031C161.905 58.4174 165.251 61.9148 169.377 61.9148Z" fill="#F5F3D9"/>
<path d="M203.172 62.849C207.627 62.849 211.238 58.8574 211.238 53.9335C211.238 49.0097 207.627 45.0181 203.172 45.0181C198.717 45.0181 195.105 49.0097 195.105 53.9335C195.105 58.8574 198.717 62.849 203.172 62.849Z" fill="#494949"/>
<path d="M204.191 61.9148C208.317 61.9148 211.663 58.4174 211.663 54.1031C211.663 49.7889 208.317 46.2915 204.191 46.2915C200.064 46.2915 196.719 49.7889 196.719 54.1031C196.719 58.4174 200.064 61.9148 204.191 61.9148Z" fill="#F5F3D9"/>
<path d="M233.738 61.9999C238.193 61.9999 241.805 58.0083 241.805 53.0844C241.805 48.1605 238.193 44.1689 233.738 44.1689C229.283 44.1689 225.672 48.1605 225.672 53.0844C225.672 58.0083 229.283 61.9999 233.738 61.9999Z" fill="#494949"/>
<path d="M234.758 61.0657C238.885 61.0657 242.23 57.5682 242.23 53.254C242.23 48.9397 238.885 45.4424 234.758 45.4424C230.632 45.4424 227.286 48.9397 227.286 53.254C227.286 57.5682 230.632 61.0657 234.758 61.0657Z" fill="#F5F3D9"/>
</svg>
