<svg width="391" height="103" viewBox="0 0 391 103" fill="none" xmlns="http://www.w3.org/2000/svg">
<path d="M56.5297 98.6055L56.2737 96.622L56.2696 96.6225L56.5297 98.6055ZM37.3297 98.7015L38.0912 96.8522L38.0912 96.8522L37.3297 98.7015ZM41.1697 33.2295L40.4888 31.349L40.4783 31.3528L41.1697 33.2295ZM57.4897 31.4055L57.1855 33.3823L57.1987 33.3843L57.4897 31.4055ZM62.0977 35.5335L60.221 36.2249L60.2232 36.231L62.0977 35.5335ZM71.3137 60.3015L69.4392 60.999L69.9239 62.3015H71.3137V60.3015ZM71.6977 60.3015V62.3015H73.6977V60.3015H71.6977ZM77.1697 33.2295L77.8611 35.1062L77.8611 35.1062L77.1697 33.2295ZM97.3297 33.5175L98.9636 32.3642L98.9617 32.3615L97.3297 33.5175ZM92.5297 98.6055L92.2737 96.622L92.2696 96.6225L92.5297 98.6055ZM71.8897 97.5495L73.7664 96.8581L73.7634 96.8502L73.7604 96.8423L71.8897 97.5495ZM62.9617 73.9335L64.8324 73.2263L64.3437 71.9335H62.9617V73.9335ZM62.4817 73.9335V71.9335H60.4817V73.9335H62.4817ZM60.4817 96.5895C60.4817 96.2732 60.5816 96.0114 60.6936 95.8325C60.7952 95.6703 60.8927 95.5964 60.9015 95.5897C60.9025 95.5889 60.7634 95.6839 60.3521 95.8232C59.5519 96.0943 58.2221 96.3706 56.2737 96.622L56.7856 100.589C58.8053 100.328 60.4514 100.013 61.6353 99.6118C62.2159 99.4151 62.8208 99.1542 63.3179 98.7773C63.8084 98.4055 64.4817 97.687 64.4817 96.5895H60.4817ZM56.2696 96.6225C52.4511 97.1233 48.634 97.3735 44.8177 97.3735V101.374C48.8094 101.374 52.8002 101.112 56.7897 100.589L56.2696 96.6225ZM44.8177 97.3735C42.8964 97.3735 41.3619 97.3181 40.1964 97.2135C38.9754 97.104 38.3374 96.9536 38.0912 96.8522L36.5682 100.551C37.4099 100.897 38.564 101.083 39.8389 101.198C41.1695 101.317 42.8349 101.374 44.8177 101.374V97.3735ZM38.0912 96.8522C37.9337 96.7873 37.8315 96.7277 37.769 96.6836C37.7081 96.6406 37.6885 96.615 37.6882 96.6146C37.6878 96.6141 37.6901 96.6171 37.6934 96.6232C37.6967 96.6294 37.6992 96.6355 37.7007 96.6401C37.7043 96.6511 37.6977 96.6388 37.6977 96.5895H33.6977C33.6977 97.4749 33.9585 98.3298 34.5231 99.0604C35.0675 99.7649 35.8016 100.235 36.5682 100.551L38.0912 96.8522ZM37.6977 96.5895V37.6455H33.6977V96.5895H37.6977ZM37.6977 37.6455C37.6977 37.6455 37.6929 37.6025 37.7594 37.4906C37.8346 37.364 37.9962 37.1606 38.3217 36.8979C38.9892 36.3593 40.1254 35.7457 41.8611 35.1062L40.4783 31.3528C38.5659 32.0574 36.9662 32.8518 35.8096 33.7851C34.6531 34.7185 33.6977 36.0005 33.6977 37.6455H37.6977ZM41.8505 35.1101C45.3083 33.8581 49.2643 33.2135 53.7457 33.2135V29.2135C48.8831 29.2135 44.455 29.9129 40.4888 31.349L41.8505 35.1101ZM53.7457 33.2135C55.3859 33.2135 56.5096 33.2783 57.1855 33.3823L57.7938 29.4288C56.8057 29.2768 55.4334 29.2135 53.7457 29.2135V33.2135ZM57.1987 33.3843C58.5074 33.5767 59.5239 34.3328 60.221 36.2249L63.9744 34.8421C62.8795 31.8703 60.824 29.8744 57.7807 29.4268L57.1987 33.3843ZM60.2232 36.231L69.4392 60.999L73.1881 59.6041L63.9721 34.8361L60.2232 36.231ZM71.3137 62.3015H71.6977V58.3015H71.3137V62.3015ZM73.6977 60.3015V37.6455H69.6977V60.3015H73.6977ZM73.6977 37.6455C73.6977 37.6455 73.6929 37.6025 73.7594 37.4906C73.8346 37.364 73.9962 37.1606 74.3217 36.8979C74.9892 36.3593 76.1255 35.7457 77.8611 35.1062L76.4783 31.3528C74.5659 32.0574 72.9662 32.8518 71.8096 33.7851C70.6531 34.7185 69.6977 36.0005 69.6977 37.6455H73.6977ZM77.8611 35.1062C81.2481 33.8584 85.1673 33.2135 89.6497 33.2135V29.2135C84.788 29.2135 80.3873 29.9127 76.4783 31.3528L77.8611 35.1062ZM89.6497 33.2135C91.5593 33.2135 92.9944 33.3978 94.019 33.7052C95.0467 34.0135 95.5003 34.3949 95.6976 34.6736L98.9617 32.3615C98.0711 31.1041 96.7006 30.3336 95.1684 29.8739C93.6329 29.4132 91.772 29.2135 89.6497 29.2135V33.2135ZM95.6957 34.6709C96.3353 35.5769 96.4817 36.167 96.4817 36.4935H100.482C100.482 35.0281 99.8601 33.6341 98.9636 32.3642L95.6957 34.6709ZM96.4817 36.4935V96.5895H100.482V36.4935H96.4817ZM96.4817 96.5895C96.4817 96.2732 96.5816 96.0114 96.6936 95.8325C96.7952 95.6703 96.8927 95.5964 96.9015 95.5897C96.9025 95.5889 96.7634 95.6839 96.3521 95.8232C95.5519 96.0943 94.2221 96.3706 92.2737 96.622L92.7856 100.589C94.8053 100.328 96.4514 100.013 97.6353 99.6118C98.2159 99.4151 98.8208 99.1542 99.3179 98.7773C99.8084 98.4055 100.482 97.687 100.482 96.5895H96.4817ZM92.2696 96.6225C88.467 97.1212 84.2355 97.3735 79.5697 97.3735V101.374C84.3758 101.374 88.7843 101.114 92.7897 100.589L92.2696 96.6225ZM79.5697 97.3735C77.2892 97.3735 75.6629 97.2222 74.6078 96.9717C74.0804 96.8464 73.7916 96.718 73.6587 96.6374C73.5323 96.5608 73.6741 96.6076 73.7664 96.8581L70.013 98.2409C70.3293 99.0994 70.959 99.6783 71.5847 100.058C72.2038 100.433 72.931 100.685 73.6835 100.863C75.1885 101.221 77.1781 101.374 79.5697 101.374V97.3735ZM73.7604 96.8423L64.8324 73.2263L61.0909 74.6408L70.0189 98.2568L73.7604 96.8423ZM62.9617 71.9335H62.4817V75.9335H62.9617V71.9335ZM60.4817 73.9335V96.5895H64.4817V73.9335H60.4817ZM117.43 98.7015L118.191 96.8522L118.191 96.8522L117.43 98.7015ZM118.006 32.2695L117.172 30.4514L117.157 30.4582L117.143 30.4653L118.006 32.2695ZM165.91 48.1095L167.85 48.5946L167.853 48.5822L165.91 48.1095ZM142.582 50.3175L142.75 48.3246L140.582 48.1416V50.3175H142.582ZM142.582 56.7495H140.582V58.8323L142.663 58.7479L142.582 56.7495ZM162.646 71.4375L160.748 70.8051L160.742 70.823L160.737 70.841L162.646 71.4375ZM159.958 74.5095L159.913 76.509L159.936 76.5095H159.958V74.5095ZM142.582 74.1255L142.626 72.126L140.582 72.0808V74.1255H142.582ZM142.582 80.2695H140.582V82.4245L142.731 82.264L142.582 80.2695ZM164.47 97.3735H123.766V101.374H164.47V97.3735ZM123.766 97.3735C122.238 97.3735 121.002 97.3187 120.041 97.2167C119.048 97.1114 118.471 96.9676 118.191 96.8522L116.668 100.551C117.476 100.883 118.5 101.076 119.619 101.194C120.769 101.316 122.157 101.374 123.766 101.374V97.3735ZM118.191 96.8522C118.034 96.7873 117.932 96.7277 117.869 96.6836C117.808 96.6406 117.789 96.615 117.788 96.6146C117.788 96.6141 117.79 96.6171 117.793 96.6232C117.797 96.6294 117.799 96.6355 117.801 96.6401C117.804 96.6511 117.798 96.6388 117.798 96.5895H113.798C113.798 97.4749 114.059 98.3298 114.623 99.0604C115.167 99.7649 115.902 100.235 116.668 100.551L118.191 96.8522ZM117.798 96.5895V35.8215H113.798V96.5895H117.798ZM117.798 35.8215C117.798 35.2898 117.913 34.9598 118.048 34.7414C118.182 34.5255 118.417 34.2897 118.869 34.0738L117.143 30.4653C116.122 30.9533 115.253 31.6616 114.651 32.6297C114.051 33.5953 113.798 34.6893 113.798 35.8215H117.798ZM118.839 34.0877C119.942 33.582 122.268 33.2135 126.166 33.2135V29.2135C122.255 29.2135 119.141 29.549 117.172 30.4514L118.839 34.0877ZM126.166 33.2135H164.758V29.2135H126.166V33.2135ZM164.758 33.2135C164.455 33.2135 164.229 33.0561 164.153 32.9715C164.128 32.944 164.229 33.0506 164.354 33.4682C164.604 34.3016 164.774 35.7446 164.774 37.9335H168.774C168.774 35.6425 168.607 33.7255 168.185 32.3188C167.975 31.6164 167.655 30.883 167.126 30.2956C166.546 29.6509 165.733 29.2135 164.758 29.2135V33.2135ZM164.774 37.9335C164.774 42.2966 164.486 45.5008 163.966 47.6368L167.853 48.5822C168.485 45.9822 168.774 42.4025 168.774 37.9335H164.774ZM163.969 47.6245C163.703 48.6895 163.435 49.296 163.238 49.5921C163.048 49.8764 163.152 49.5655 163.606 49.5655V53.5655C165.02 53.5655 165.987 52.6787 166.566 51.8109C167.136 50.9551 167.54 49.8336 167.85 48.5946L163.969 47.6245ZM163.606 49.5655C159.538 49.5655 152.605 49.1565 142.75 48.3246L142.413 52.3104C152.27 53.1425 159.353 53.5655 163.606 53.5655V49.5655ZM140.582 50.3175V56.7495H144.582V50.3175H140.582ZM142.663 58.7479C152.144 58.3635 158.278 58.1735 161.11 58.1735V54.1735C158.182 54.1735 151.963 54.3676 142.501 54.7512L142.663 58.7479ZM161.11 58.1735C161.122 58.1735 161.062 58.1663 161.016 58.1302C160.998 58.1163 161.09 58.1798 161.215 58.4734C161.485 59.1033 161.702 60.2874 161.702 62.2215H165.702C165.702 60.1237 165.486 58.2837 164.892 56.8977C164.586 56.1832 164.137 55.4907 163.472 54.9728C162.777 54.4328 161.961 54.1735 161.11 54.1735V58.1735ZM161.702 62.2215C161.702 66.1831 161.35 68.9996 160.748 70.8051L164.543 72.07C165.349 69.6515 165.702 66.3239 165.702 62.2215H161.702ZM160.737 70.841C160.457 71.7359 160.178 72.2079 159.989 72.4245C159.845 72.5889 159.851 72.5095 159.958 72.5095V76.5095C161.216 76.5095 162.247 75.9181 162.999 75.0585C163.705 74.2511 164.194 73.1872 164.555 72.0341L160.737 70.841ZM160.002 72.51L142.626 72.126L142.537 76.125L159.913 76.509L160.002 72.51ZM140.582 74.1255V80.2695H144.582V74.1255H140.582ZM142.731 82.264C153.872 81.4316 161.482 81.0215 165.622 81.0215V77.0215C161.313 77.0215 153.563 77.4435 142.433 78.2751L142.731 82.264ZM165.622 81.0215C165.319 81.0215 165.093 80.8641 165.017 80.7795C164.992 80.752 165.093 80.8586 165.218 81.2762C165.468 82.1096 165.638 83.5526 165.638 85.7415H169.638C169.638 83.4505 169.471 81.5335 169.049 80.1268C168.839 79.4245 168.519 78.691 167.99 78.1036C167.41 77.4589 166.597 77.0215 165.622 77.0215V81.0215ZM165.638 85.7415C165.638 90.1751 165.349 93.3705 164.833 95.4325L168.714 96.4026C169.35 93.8566 169.638 90.268 169.638 85.7415H165.638ZM164.833 95.4325C164.567 96.4975 164.299 97.104 164.102 97.4001C163.912 97.6844 164.016 97.3735 164.47 97.3735V101.374C165.884 101.374 166.851 100.487 167.43 99.6189C168 98.7631 168.404 97.6416 168.714 96.4026L164.833 95.4325ZM204.343 98.7015L203.498 100.514L203.498 100.514L204.343 98.7015ZM202.327 96.3975L204.213 95.7319L204.211 95.7241L204.208 95.7163L202.327 96.3975ZM181.111 37.8375H179.111V38.1887L179.231 38.5188L181.111 37.8375ZM187.927 33.6135L187.271 31.7242L187.263 31.7271L187.927 33.6135ZM211.447 36.8775L209.458 37.0799L209.459 37.0908L211.447 36.8775ZM214.711 67.3095L212.723 67.5228L212.914 69.3095H214.711V67.3095ZM216.055 67.3095V69.3095H217.887L218.048 67.4855L216.055 67.3095ZM218.743 36.8775L220.736 37.0535L220.736 37.0464L218.743 36.8775ZM238.135 32.5575L236.864 34.1014L236.892 34.1243L236.921 34.1462L238.135 32.5575ZM239.959 35.9175L237.968 36.0986L237.969 36.1085L237.97 36.1183L239.959 35.9175ZM243.127 67.3095L241.138 67.5103L241.319 69.3095H243.127V67.3095ZM244.471 67.3095V69.3095H246.314L246.465 67.473L244.471 67.3095ZM246.967 36.8775L244.978 36.6717L244.976 36.6929L244.974 36.714L246.967 36.8775ZM253.495 32.6535L253.052 30.7033L253.046 30.7047L253.495 32.6535ZM274.423 33.0375L273.15 34.5795L273.166 34.5927L273.182 34.6056L274.423 33.0375ZM276.727 36.8775L278.618 37.5301L278.727 37.213V36.8775H276.727ZM256.183 96.3975L258.068 97.0664L258.071 97.0582L258.074 97.0501L256.183 96.3975ZM234.871 96.3975L236.79 95.8332L236.788 95.8249L234.871 96.3975ZM229.879 79.6935L231.796 79.1209L231.369 77.6935H229.879V79.6935ZM228.727 79.6935V77.6935H227.246L226.814 79.1108L228.727 79.6935ZM223.639 96.3975L221.726 95.8148L221.722 95.8273L221.719 95.8399L223.639 96.3975ZM210.391 97.3735C208.896 97.3735 207.704 97.3186 206.796 97.2178C205.845 97.112 205.365 96.9714 205.189 96.8892L203.498 100.514C204.281 100.88 205.29 101.075 206.355 101.193C207.463 101.316 208.815 101.374 210.391 101.374V97.3735ZM205.189 96.8892C204.762 96.6897 204.436 96.3634 204.213 95.7319L200.441 97.0632C200.987 98.6077 202.005 99.8174 203.498 100.514L205.189 96.8892ZM204.208 95.7163L182.992 37.1563L179.231 38.5188L200.447 97.0788L204.208 95.7163ZM183.111 37.8375C183.111 38.1843 182.947 38.3164 183.049 38.1987C183.15 38.0824 183.39 37.8661 183.869 37.5696C184.822 36.9792 186.366 36.2837 188.592 35.5L187.263 31.7271C184.945 32.5434 183.081 33.3519 181.762 34.1695C181.104 34.577 180.493 35.0407 180.025 35.5804C179.559 36.1187 179.111 36.8827 179.111 37.8375H183.111ZM188.583 35.5029C192.99 33.9729 197.408 33.2135 201.847 33.2135V29.2135C196.942 29.2135 192.081 30.0542 187.271 31.7242L188.583 35.5029ZM201.847 33.2135C204.697 33.2135 206.586 33.6695 207.743 34.3521C208.782 34.9648 209.328 35.8084 209.458 37.0799L213.437 36.6752C213.182 34.1706 211.937 32.1823 209.776 30.907C207.733 29.7016 205.014 29.2135 201.847 29.2135V33.2135ZM209.459 37.0908L212.723 67.5228L216.7 67.0962L213.436 36.6642L209.459 37.0908ZM214.711 69.3095H216.055V65.3095H214.711V69.3095ZM218.048 67.4855L220.736 37.0535L216.751 36.7016L214.063 67.1336L218.048 67.4855ZM220.736 37.0464C220.818 36.0787 221.343 35.197 223.024 34.4622C224.808 33.6828 227.64 33.2135 231.703 33.2135V29.2135C227.447 29.2135 223.959 29.6883 221.422 30.7969C218.784 31.9501 216.989 33.9003 216.751 36.7086L220.736 37.0464ZM231.703 33.2135C233.223 33.2135 234.411 33.321 235.302 33.5072C236.217 33.6983 236.671 33.9421 236.864 34.1014L239.407 31.0137C238.512 30.277 237.35 29.8488 236.12 29.5918C234.868 29.3301 233.384 29.2135 231.703 29.2135V33.2135ZM236.921 34.1462C237.548 34.6261 237.888 35.2275 237.968 36.0986L241.951 35.7365C241.774 33.7916 240.899 32.1529 239.35 30.9688L236.921 34.1462ZM237.97 36.1183L241.138 67.5103L245.117 67.1087L241.949 35.7167L237.97 36.1183ZM243.127 69.3095H244.471V65.3095H243.127V69.3095ZM246.465 67.473L248.961 37.041L244.974 36.714L242.478 67.146L246.465 67.473ZM248.957 37.0833C248.969 36.9679 249.042 36.6187 249.83 36.1087C250.637 35.5862 251.965 35.0594 253.945 34.6023L253.046 30.7047C250.866 31.2077 249.025 31.8649 247.657 32.7504C246.269 33.6484 245.158 34.9311 244.978 36.6717L248.957 37.0833ZM253.939 34.6038C258.026 33.675 262.037 33.2135 265.975 33.2135V29.2135C261.722 29.2135 257.413 29.7121 253.052 30.7033L253.939 34.6038ZM265.975 33.2135C267.97 33.2135 269.562 33.3604 270.785 33.6245C272.026 33.8924 272.754 34.2528 273.15 34.5795L275.697 31.4956C274.621 30.6063 273.205 30.0547 271.63 29.7146C270.037 29.3707 268.141 29.2135 265.975 29.2135V33.2135ZM273.182 34.6056C274.467 35.6226 274.727 36.3858 274.727 36.8775H278.727C278.727 34.6813 277.452 32.8845 275.665 31.4694L273.182 34.6056ZM274.837 36.225L254.293 95.745L258.074 97.0501L278.618 37.5301L274.837 36.225ZM254.299 95.7287C254.35 95.5843 254.388 95.6997 253.94 95.9449C253.5 96.1853 252.78 96.4444 251.693 96.672C249.527 97.1257 246.313 97.3735 241.975 97.3735V101.374C246.405 101.374 249.943 101.125 252.513 100.587C253.795 100.319 254.939 99.9578 255.859 99.4541C256.771 98.9554 257.665 98.2027 258.068 97.0664L254.299 95.7287ZM241.975 97.3735C240.712 97.3735 239.707 97.3191 238.94 97.2215C238.139 97.1196 237.738 96.9867 237.59 96.9127L235.801 100.49C236.549 100.864 237.476 101.067 238.435 101.19C239.428 101.316 240.615 101.374 241.975 101.374V97.3735ZM237.59 96.9127C237.258 96.747 236.976 96.4661 236.79 95.8332L232.953 96.9619C233.407 98.505 234.34 99.7601 235.801 100.49L237.59 96.9127ZM236.788 95.8249L231.796 79.1209L227.963 80.2662L232.955 96.9702L236.788 95.8249ZM229.879 77.6935H228.727V81.6935H229.879V77.6935ZM226.814 79.1108L221.726 95.8148L225.553 96.9803L230.641 80.2763L226.814 79.1108ZM221.719 95.8399C221.765 95.6822 221.83 95.7632 221.463 95.9816C221.093 96.2025 220.456 96.4537 219.457 96.6782C217.465 97.1256 214.471 97.3735 210.391 97.3735V101.374C214.567 101.374 217.91 101.125 220.334 100.581C221.543 100.309 222.634 99.9406 223.512 99.4174C224.393 98.8918 225.226 98.1049 225.56 96.9552L221.719 95.8399ZM337.049 95.3415L335.866 93.7287L335.866 93.7287L337.049 95.3415ZM328.985 98.8935L329.496 100.827L329.508 100.824L329.52 100.821L328.985 98.8935ZM289.913 95.9175L288.997 97.6955L288.997 97.6955L289.913 95.9175ZM288.281 81.6135L290.214 82.1289L290.216 82.121L288.281 81.6135ZM299.897 78.3495L300.544 76.457L300.544 76.457L299.897 78.3495ZM316.313 80.1735L317.423 81.8376L317.469 81.8068L317.513 81.7735L316.313 80.1735ZM315.353 75.0855L314.336 76.8074L314.365 76.8249L314.395 76.8413L315.353 75.0855ZM310.073 72.9735L309.493 74.8876L309.52 74.8957L309.547 74.9031L310.073 72.9735ZM303.161 70.2855L302.305 72.093L302.314 72.0973L302.323 72.1015L303.161 70.2855ZM296.345 66.4455L297.455 64.7814L297.455 64.7814L296.345 66.4455ZM291.065 60.4935L289.303 61.4392L289.308 61.4483L289.313 61.4574L291.065 60.4935ZM330.809 31.5015L330.454 33.4697L330.467 33.4721L330.48 33.4743L330.809 31.5015ZM340.505 34.1895L339.539 35.9407L339.574 35.9603L339.611 35.9784L340.505 34.1895ZM340.985 47.8215L339.139 47.0523L339.134 47.0655L339.128 47.0788L340.985 47.8215ZM333.977 52.7175L333.173 54.5486L333.196 54.5589L333.22 54.5686L333.977 52.7175ZM317.753 50.7015L316.859 48.9127L316.835 48.9244L316.812 48.9368L317.753 50.7015ZM318.425 55.6935L317.531 57.4824L317.564 57.4989L317.598 57.5143L318.425 55.6935ZM323.609 57.5175L323.068 59.4428L323.103 59.4527L323.138 59.4612L323.609 57.5175ZM330.425 60.0135L329.569 61.821L329.597 61.8344L329.626 61.8469L330.425 60.0135ZM337.337 63.9495L336.161 65.567L336.177 65.5788L336.194 65.5903L337.337 63.9495ZM342.617 70.2855L344.398 69.3746L344.398 69.3746L342.617 70.2855ZM341.753 90.3495L343.443 91.4196L343.443 91.4188L341.753 90.3495ZM335.866 93.7287C334.214 94.9405 331.779 96.0417 328.45 96.9665L329.52 100.821C333.103 99.8253 336.044 98.5586 338.232 96.9543L335.866 93.7287ZM328.474 96.9599C325.314 97.7947 321.088 98.2375 315.737 98.2375V102.238C321.266 102.238 325.872 101.784 329.496 100.827L328.474 96.9599ZM315.737 98.2375C310.472 98.2375 305.474 97.7988 300.739 96.9266L300.015 100.86C305.008 101.78 310.25 102.238 315.737 102.238V98.2375ZM300.739 96.9266C295.907 96.0364 292.664 95.0851 290.829 94.1396L288.997 97.6955C291.386 98.926 295.12 99.9587 300.015 100.86L300.739 96.9266ZM290.829 94.1396C289.862 93.6413 289.273 93.2169 288.951 92.8953C288.627 92.5706 288.745 92.5295 288.745 92.7495H284.745C284.745 93.9935 285.392 94.9925 286.123 95.7237C286.857 96.4582 287.852 97.1057 288.997 97.6955L290.829 94.1396ZM288.745 92.7495C288.745 89.3572 289.23 85.8188 290.214 82.1289L286.349 81.0982C285.285 85.0883 284.745 88.9738 284.745 92.7495H288.745ZM290.216 82.121C290.709 80.2402 291.208 79.0027 291.659 78.279C292.141 77.5055 292.271 77.7575 291.929 77.7575V73.7575C290.179 73.7575 288.998 74.9855 288.264 76.164C287.498 77.3924 286.877 79.0829 286.347 81.1061L290.216 82.121ZM291.929 77.7575C291.813 77.7575 291.726 77.7465 291.696 77.7426C291.658 77.7375 291.632 77.7325 291.624 77.731C291.608 77.7279 291.613 77.7284 291.648 77.7372C291.716 77.7544 291.831 77.786 292.002 77.8369C292.341 77.9375 292.836 78.0932 293.494 78.3074C294.808 78.7348 296.725 79.3789 299.25 80.2421L300.544 76.457C298.013 75.5921 296.074 74.9403 294.732 74.5036C294.063 74.2859 293.529 74.1176 293.14 74.0022C292.947 73.945 292.773 73.8956 292.627 73.8588C292.555 73.8407 292.472 73.8209 292.387 73.8044C292.34 73.7952 292.152 73.7575 291.929 73.7575V77.7575ZM299.25 80.2421C304.339 81.9812 308.411 82.9415 311.321 82.9415V78.9415C309.111 78.9415 305.567 78.1739 300.544 76.457L299.25 80.2421ZM311.321 82.9415C312.656 82.9415 313.823 82.8755 314.793 82.7263C315.714 82.5846 316.671 82.3386 317.423 81.8376L315.204 78.5094C315.215 78.5017 315.154 78.5432 314.967 78.6024C314.786 78.6596 314.53 78.7197 314.185 78.7728C313.491 78.8796 312.546 78.9415 311.321 78.9415V82.9415ZM317.513 81.7735C318.823 80.7914 319.465 79.3782 319.465 77.7735H315.465C315.465 78.2169 315.34 78.4036 315.113 78.5735L317.513 81.7735ZM319.465 77.7735C319.465 75.6591 317.969 74.2342 316.311 73.3297L314.395 76.8413C314.951 77.1446 315.234 77.4026 315.365 77.5692C315.473 77.7069 315.465 77.7604 315.465 77.7735H319.465ZM316.371 73.3637C314.767 72.4161 312.829 71.6522 310.599 71.044L309.547 74.9031C311.541 75.4469 313.123 76.091 314.336 76.8074L316.371 73.3637ZM310.653 71.0595C308.648 70.4518 306.431 69.5919 303.999 68.4696L302.323 72.1015C304.883 73.2831 307.275 74.2153 309.493 74.8876L310.653 71.0595ZM304.017 68.4781C301.668 67.3652 299.481 66.1324 297.455 64.7814L295.236 68.1096C297.433 69.5746 299.79 70.9019 302.305 72.093L304.017 68.4781ZM297.455 64.7814C295.648 63.577 294.094 61.8508 292.818 59.5297L289.313 61.4574C290.852 64.2563 292.818 66.4981 295.236 68.1096L297.455 64.7814ZM292.827 59.5479C291.593 57.2475 290.953 54.603 290.953 51.5655H286.953C286.953 55.1841 287.721 58.4915 289.303 61.4392L292.827 59.5479ZM290.953 51.5655C290.953 44.872 292.934 40.1838 296.598 37.1147C300.329 33.9886 306.144 32.2535 314.393 32.2535V28.2535C305.683 28.2535 298.777 30.0704 294.029 34.0484C289.212 38.0832 286.953 44.0511 286.953 51.5655H290.953ZM314.393 32.2535C320.649 32.2535 325.996 32.6648 330.454 33.4697L331.165 29.5334C326.407 28.6743 320.81 28.2535 314.393 28.2535V32.2535ZM330.48 33.4743C335.068 34.239 338.005 35.0943 339.539 35.9407L341.471 32.4384C339.293 31.2368 335.766 30.3001 331.138 29.5287L330.48 33.4743ZM339.611 35.9784C340.477 36.4113 340.985 36.7776 341.251 37.0437C341.513 37.3058 341.385 37.307 341.385 37.0695H345.385C345.385 35.872 344.777 34.9133 344.079 34.2153C343.385 33.5214 342.454 32.9277 341.4 32.4007L339.611 35.9784ZM341.385 37.0695C341.385 40.0764 340.662 43.3972 339.139 47.0523L342.831 48.5908C344.508 44.5659 345.385 40.7186 345.385 37.0695H341.385ZM339.128 47.0788C338.389 48.9268 337.712 50.1656 337.131 50.9082C336.512 51.6977 336.284 51.5815 336.473 51.5815V55.5815C338.135 55.5815 339.394 54.5053 340.28 53.3749C341.202 52.1975 342.045 50.5563 342.842 48.5643L339.128 47.0788ZM336.473 51.5815C336.688 51.5815 336.804 51.6257 336.685 51.5941C336.616 51.5758 336.495 51.5393 336.311 51.4756C335.946 51.3491 335.425 51.1489 334.734 50.8664L333.22 54.5686C333.937 54.8621 334.536 55.0939 335.003 55.2555C335.235 55.3358 335.459 55.4073 335.661 55.4609C335.814 55.5014 336.13 55.5815 336.473 55.5815V51.5815ZM334.782 50.8865C330.446 48.9814 326.632 47.9335 323.417 47.9335V51.9335C325.835 51.9335 329.06 52.7416 333.173 54.5486L334.782 50.8865ZM323.417 47.9335C321.987 47.9335 320.731 47.9996 319.668 48.1437C318.631 48.2843 317.655 48.5147 316.859 48.9127L318.648 52.4904C318.876 52.3764 319.355 52.2228 320.206 52.1074C321.031 51.9955 322.095 51.9335 323.417 51.9335V47.9335ZM316.812 48.9368C316.066 49.3347 315.414 49.8972 314.958 50.6565C314.503 51.4158 314.313 52.2561 314.313 53.1015H318.313C318.313 52.859 318.364 52.7552 318.388 52.7145C318.413 52.6738 318.48 52.5804 318.694 52.4662L316.812 48.9368ZM314.313 53.1015C314.313 55.247 315.847 56.6407 317.531 57.4824L319.32 53.9047C318.772 53.6308 318.507 53.3955 318.392 53.2542C318.303 53.1453 318.313 53.1115 318.313 53.1015H314.313ZM317.598 57.5143C319.125 58.2087 320.955 58.8487 323.068 59.4428L324.151 55.5922C322.167 55.0343 320.541 54.4584 319.253 53.8728L317.598 57.5143ZM323.138 59.4612C325.09 59.9345 327.232 60.7142 329.569 61.821L331.281 58.2061C328.754 57.0088 326.352 56.1245 324.08 55.5738L323.138 59.4612ZM329.626 61.8469C331.994 62.8793 334.171 64.12 336.161 65.567L338.514 62.3321C336.279 60.707 333.848 59.3237 331.224 58.1801L329.626 61.8469ZM336.194 65.5903C337.988 66.8408 339.548 68.678 340.837 71.1965L344.398 69.3746C342.87 66.389 340.911 64.0023 338.481 62.3087L336.194 65.5903ZM340.837 71.1965C342.077 73.6199 342.729 76.4974 342.729 79.8855H346.729C346.729 75.9776 345.974 72.4552 344.398 69.3746L340.837 71.1965ZM342.729 79.8855C342.729 83.3608 341.837 86.4757 340.063 89.2803L343.443 91.4188C345.637 87.9514 346.729 84.0902 346.729 79.8855H342.729ZM340.064 89.2794C338.987 90.9785 337.595 92.4613 335.866 93.7287L338.232 96.9543C340.344 95.4058 342.087 93.5606 343.443 91.4196L340.064 89.2794Z" fill="black"/>
<path d="M65.4817 93.216C65.4817 94.048 63.4977 94.72 59.5297 95.232C55.6257 95.744 51.7217 96 47.8177 96C43.9137 96 41.4177 95.776 40.3297 95.328C39.2417 94.88 38.6977 94.176 38.6977 93.216V34.272C38.6977 32.672 40.5217 31.2 44.1697 29.856C47.8817 28.512 52.0737 27.84 56.7457 27.84C58.4097 27.84 59.6577 27.904 60.4897 28.032C62.6657 28.352 64.2017 29.728 65.0977 32.16L74.3137 56.928H74.6977V34.272C74.6977 32.672 76.5217 31.2 80.1697 29.856C83.8177 28.512 87.9777 27.84 92.6497 27.84C96.6817 27.84 99.2417 28.608 100.33 30.144C101.098 31.232 101.482 32.224 101.482 33.12V93.216C101.482 94.048 99.4977 94.72 95.5297 95.232C91.6257 95.744 87.3057 96 82.5697 96C77.8977 96 75.3377 95.392 74.8897 94.176L65.9617 70.56H65.4817V93.216ZM167.47 96H126.766C123.63 96 121.518 95.776 120.43 95.328C119.342 94.88 118.798 94.176 118.798 93.216V32.448C118.798 30.784 119.534 29.6 121.006 28.896C122.542 28.192 125.262 27.84 129.166 27.84H167.758C169.102 27.84 169.774 30.08 169.774 34.56C169.774 38.976 169.486 42.368 168.91 44.736C168.334 47.04 167.566 48.192 166.606 48.192C162.446 48.192 155.438 47.776 145.582 46.944V53.376C155.054 52.992 161.23 52.8 164.11 52.8C165.838 52.8 166.702 54.816 166.702 58.848C166.702 62.88 166.35 65.952 165.646 68.064C165.006 70.112 164.11 71.136 162.958 71.136L145.582 70.752V76.896C156.718 76.064 164.398 75.648 168.622 75.648C169.966 75.648 170.638 77.888 170.638 82.368C170.638 86.848 170.35 90.24 169.774 92.544C169.198 94.848 168.43 96 167.47 96ZM213.391 96C210.319 96 208.303 95.776 207.343 95.328C206.383 94.88 205.711 94.112 205.327 93.024L184.111 34.464C184.111 33.248 186.383 31.84 190.927 30.24C195.535 28.64 200.175 27.84 204.847 27.84C210.863 27.84 214.063 29.728 214.447 33.504L217.711 63.936H219.055L221.743 33.504C222.063 29.728 226.383 27.84 234.703 27.84C237.903 27.84 240.047 28.288 241.135 29.184C242.223 30.016 242.831 31.136 242.959 32.544L246.127 63.936H247.471L249.967 33.504C250.159 31.648 252.335 30.24 256.495 29.28C260.719 28.32 264.879 27.84 268.975 27.84C273.135 27.84 275.951 28.448 277.423 29.664C278.959 30.88 279.727 32.16 279.727 33.504L259.183 93.024C258.479 95.008 253.743 96 244.975 96C242.351 96 240.591 95.776 239.695 95.328C238.799 94.88 238.191 94.112 237.871 93.024L232.879 76.32H231.727L226.639 93.024C226.063 95.008 221.647 96 213.391 96ZM340.049 91.968C338.129 93.376 335.441 94.56 331.985 95.52C328.593 96.416 324.177 96.864 318.737 96.864C313.361 96.864 308.241 96.416 303.377 95.52C298.513 94.624 295.025 93.632 292.913 92.544C290.801 91.456 289.745 90.4 289.745 89.376C289.745 85.792 290.257 82.08 291.281 78.24C292.305 74.336 293.521 72.384 294.929 72.384C295.185 72.384 297.841 73.248 302.897 74.976C307.953 76.704 311.761 77.568 314.321 77.568C316.881 77.568 318.545 77.312 319.313 76.8C320.081 76.224 320.465 75.424 320.465 74.4C320.465 73.376 319.761 72.48 318.353 71.712C316.945 70.88 315.185 70.176 313.073 69.6C310.961 68.96 308.657 68.064 306.161 66.912C303.729 65.76 301.457 64.48 299.345 63.072C297.233 61.664 295.473 59.68 294.065 57.12C292.657 54.496 291.953 51.52 291.953 48.192C291.953 33.984 300.433 26.88 317.393 26.88C323.729 26.88 329.201 27.296 333.809 28.128C338.417 28.896 341.649 29.792 343.505 30.816C345.425 31.776 346.385 32.736 346.385 33.696C346.385 37.024 345.585 40.608 343.985 44.448C342.449 48.288 340.945 50.208 339.473 50.208C339.217 50.208 338.385 49.92 336.977 49.344C332.753 47.488 329.233 46.56 326.417 46.56C323.665 46.56 321.777 46.816 320.753 47.328C319.793 47.84 319.313 48.64 319.313 49.728C319.313 50.752 320.017 51.616 321.425 52.32C322.833 52.96 324.561 53.568 326.609 54.144C328.721 54.656 330.993 55.488 333.425 56.64C335.921 57.728 338.225 59.04 340.337 60.576C342.449 62.048 344.209 64.16 345.617 66.912C347.025 69.664 347.729 72.864 347.729 76.512C347.729 80.352 346.737 83.84 344.753 86.976C343.537 88.896 341.969 90.56 340.049 91.968Z" fill="#030303"/>
<path d="M73.4817 90.216C73.4817 91.048 71.4977 91.72 67.5297 92.232C63.6257 92.744 59.7217 93 55.8177 93C51.9137 93 49.4177 92.776 48.3297 92.328C47.2417 91.88 46.6977 91.176 46.6977 90.216V31.272C46.6977 29.672 48.5217 28.2 52.1697 26.856C55.8817 25.512 60.0737 24.84 64.7457 24.84C66.4097 24.84 67.6577 24.904 68.4897 25.032C70.6657 25.352 72.2017 26.728 73.0977 29.16L82.3137 53.928H82.6977V31.272C82.6977 29.672 84.5217 28.2 88.1697 26.856C91.8177 25.512 95.9777 24.84 100.65 24.84C104.682 24.84 107.242 25.608 108.33 27.144C109.098 28.232 109.482 29.224 109.482 30.12V90.216C109.482 91.048 107.498 91.72 103.53 92.232C99.6257 92.744 95.3057 93 90.5697 93C85.8977 93 83.3377 92.392 82.8897 91.176L73.9617 67.56H73.4817V90.216ZM175.47 93H134.766C131.63 93 129.518 92.776 128.43 92.328C127.342 91.88 126.798 91.176 126.798 90.216V29.448C126.798 27.784 127.534 26.6 129.006 25.896C130.542 25.192 133.262 24.84 137.166 24.84H175.758C177.102 24.84 177.774 27.08 177.774 31.56C177.774 35.976 177.486 39.368 176.91 41.736C176.334 44.04 175.566 45.192 174.606 45.192C170.446 45.192 163.438 44.776 153.582 43.944V50.376C163.054 49.992 169.23 49.8 172.11 49.8C173.838 49.8 174.702 51.816 174.702 55.848C174.702 59.88 174.35 62.952 173.646 65.064C173.006 67.112 172.11 68.136 170.958 68.136L153.582 67.752V73.896C164.718 73.064 172.398 72.648 176.622 72.648C177.966 72.648 178.638 74.888 178.638 79.368C178.638 83.848 178.35 87.24 177.774 89.544C177.198 91.848 176.43 93 175.47 93ZM221.391 93C218.319 93 216.303 92.776 215.343 92.328C214.383 91.88 213.711 91.112 213.327 90.024L192.111 31.464C192.111 30.248 194.383 28.84 198.927 27.24C203.535 25.64 208.175 24.84 212.847 24.84C218.863 24.84 222.063 26.728 222.447 30.504L225.711 60.936H227.055L229.743 30.504C230.063 26.728 234.383 24.84 242.703 24.84C245.903 24.84 248.047 25.288 249.135 26.184C250.223 27.016 250.831 28.136 250.959 29.544L254.127 60.936H255.471L257.967 30.504C258.159 28.648 260.335 27.24 264.495 26.28C268.719 25.32 272.879 24.84 276.975 24.84C281.135 24.84 283.951 25.448 285.423 26.664C286.959 27.88 287.727 29.16 287.727 30.504L267.183 90.024C266.479 92.008 261.743 93 252.975 93C250.351 93 248.591 92.776 247.695 92.328C246.799 91.88 246.191 91.112 245.871 90.024L240.879 73.32H239.727L234.639 90.024C234.063 92.008 229.647 93 221.391 93ZM348.049 88.968C346.129 90.376 343.441 91.56 339.985 92.52C336.593 93.416 332.177 93.864 326.737 93.864C321.361 93.864 316.241 93.416 311.377 92.52C306.513 91.624 303.025 90.632 300.913 89.544C298.801 88.456 297.745 87.4 297.745 86.376C297.745 82.792 298.257 79.08 299.281 75.24C300.305 71.336 301.521 69.384 302.929 69.384C303.185 69.384 305.841 70.248 310.897 71.976C315.953 73.704 319.761 74.568 322.321 74.568C324.881 74.568 326.545 74.312 327.313 73.8C328.081 73.224 328.465 72.424 328.465 71.4C328.465 70.376 327.761 69.48 326.353 68.712C324.945 67.88 323.185 67.176 321.073 66.6C318.961 65.96 316.657 65.064 314.161 63.912C311.729 62.76 309.457 61.48 307.345 60.072C305.233 58.664 303.473 56.68 302.065 54.12C300.657 51.496 299.953 48.52 299.953 45.192C299.953 30.984 308.433 23.88 325.393 23.88C331.729 23.88 337.201 24.296 341.809 25.128C346.417 25.896 349.649 26.792 351.505 27.816C353.425 28.776 354.385 29.736 354.385 30.696C354.385 34.024 353.585 37.608 351.985 41.448C350.449 45.288 348.945 47.208 347.473 47.208C347.217 47.208 346.385 46.92 344.977 46.344C340.753 44.488 337.233 43.56 334.417 43.56C331.665 43.56 329.777 43.816 328.753 44.328C327.793 44.84 327.313 45.64 327.313 46.728C327.313 47.752 328.017 48.616 329.425 49.32C330.833 49.96 332.561 50.568 334.609 51.144C336.721 51.656 338.993 52.488 341.425 53.64C343.921 54.728 346.225 56.04 348.337 57.576C350.449 59.048 352.209 61.16 353.617 63.912C355.025 66.664 355.729 69.864 355.729 73.512C355.729 77.352 354.737 80.84 352.753 83.976C351.537 85.896 349.969 87.56 348.049 88.968Z" fill="#F2E8D9"/>
<path d="M67.5297 92.232L67.2737 90.2484L67.2696 90.249L67.5297 92.232ZM48.3297 92.328L49.0912 90.4786L49.0912 90.4786L48.3297 92.328ZM52.1697 26.856L51.4888 24.9754L51.4783 24.9793L52.1697 26.856ZM68.4897 25.032L68.1855 27.0088L68.1987 27.0107L68.4897 25.032ZM73.0977 29.16L71.221 29.8514L71.2232 29.8575L73.0977 29.16ZM82.3137 53.928L80.4392 54.6255L80.9239 55.928H82.3137V53.928ZM82.6977 53.928V55.928H84.6977V53.928H82.6977ZM88.1697 26.856L88.8611 28.7327L88.8611 28.7327L88.1697 26.856ZM108.33 27.144L109.964 25.9906L109.962 25.988L108.33 27.144ZM103.53 92.232L103.274 90.2484L103.27 90.249L103.53 92.232ZM82.8897 91.176L84.7664 90.4846L84.7634 90.4767L84.7604 90.4688L82.8897 91.176ZM73.9617 67.56L75.8324 66.8528L75.3437 65.56H73.9617V67.56ZM73.4817 67.56V65.56H71.4817V67.56H73.4817ZM71.4817 90.216C71.4817 89.8996 71.5816 89.6378 71.6936 89.459C71.7952 89.2968 71.8927 89.2229 71.9015 89.2162C71.9025 89.2154 71.7634 89.3104 71.3521 89.4497C70.5519 89.7207 69.2221 89.997 67.2737 90.2484L67.7856 94.2156C69.8053 93.955 71.4514 93.6393 72.6353 93.2383C73.2159 93.0416 73.8208 92.7806 74.3179 92.4038C74.8084 92.032 75.4817 91.3135 75.4817 90.216H71.4817ZM67.2696 90.249C63.4511 90.7498 59.634 91 55.8177 91V95C59.8094 95 63.8002 94.7382 67.7897 94.215L67.2696 90.249ZM55.8177 91C53.8964 91 52.3619 90.9446 51.1964 90.84C49.9754 90.7304 49.3374 90.58 49.0912 90.4786L47.5682 94.1774C48.4099 94.524 49.564 94.7096 50.8389 94.824C52.1695 94.9434 53.8349 95 55.8177 95V91ZM49.0912 90.4786C48.9337 90.4138 48.8315 90.3542 48.769 90.3101C48.7081 90.267 48.6885 90.2415 48.6882 90.2411C48.6878 90.2405 48.6901 90.2435 48.6934 90.2497C48.6967 90.2559 48.6992 90.262 48.7007 90.2665C48.7043 90.2776 48.6977 90.2652 48.6977 90.216H44.6977C44.6977 91.1013 44.9585 91.9563 45.5231 92.6869C46.0675 93.3914 46.8016 93.8617 47.5682 94.1774L49.0912 90.4786ZM48.6977 90.216V31.272H44.6977V90.216H48.6977ZM48.6977 31.272C48.6977 31.272 48.6929 31.229 48.7594 31.1171C48.8346 30.9904 48.9962 30.7871 49.3217 30.5244C49.9892 29.9857 51.1254 29.3721 52.8611 28.7327L51.4783 24.9793C49.5659 25.6839 47.9662 26.4783 46.8096 27.4116C45.6531 28.3449 44.6977 29.627 44.6977 31.272H48.6977ZM52.8505 28.7365C56.3083 27.4846 60.2643 26.84 64.7457 26.84V22.84C59.8831 22.84 55.455 23.5394 51.4888 24.9755L52.8505 28.7365ZM64.7457 26.84C66.3859 26.84 67.5096 26.9048 68.1855 27.0087L68.7938 23.0553C67.8057 22.9032 66.4334 22.84 64.7457 22.84V26.84ZM68.1987 27.0107C69.5074 27.2032 70.5239 27.9592 71.221 29.8514L74.9744 28.4686C73.8795 25.4968 71.824 23.5008 68.7807 23.0533L68.1987 27.0107ZM71.2232 29.8575L80.4392 54.6255L84.1881 53.2305L74.9721 28.4625L71.2232 29.8575ZM82.3137 55.928H82.6977V51.928H82.3137V55.928ZM84.6977 53.928V31.272H80.6977V53.928H84.6977ZM84.6977 31.272C84.6977 31.272 84.6929 31.229 84.7594 31.1171C84.8346 30.9904 84.9962 30.7871 85.3217 30.5244C85.9892 29.9857 87.1255 29.3721 88.8611 28.7327L87.4783 24.9793C85.5659 25.6839 83.9662 26.4783 82.8096 27.4116C81.6531 28.3449 80.6977 29.627 80.6977 31.272H84.6977ZM88.8611 28.7327C92.2481 27.4848 96.1673 26.84 100.65 26.84V22.84C95.788 22.84 91.3873 23.5391 87.4783 24.9793L88.8611 28.7327ZM100.65 26.84C102.559 26.84 103.994 27.0243 105.019 27.3316C106.047 27.64 106.5 28.0214 106.698 28.3L109.962 25.988C109.071 24.7306 107.701 23.96 106.168 23.5003C104.633 23.0397 102.772 22.84 100.65 22.84V26.84ZM106.696 28.2974C107.335 29.2034 107.482 29.7934 107.482 30.12H111.482C111.482 28.6545 110.86 27.2606 109.964 25.9906L106.696 28.2974ZM107.482 30.12V90.216H111.482V30.12H107.482ZM107.482 90.216C107.482 89.8996 107.582 89.6378 107.694 89.459C107.795 89.2968 107.893 89.2229 107.901 89.2162C107.903 89.2154 107.763 89.3104 107.352 89.4497C106.552 89.7207 105.222 89.997 103.274 90.2484L103.786 94.2156C105.805 93.955 107.451 93.6393 108.635 93.2383C109.216 93.0416 109.821 92.7806 110.318 92.4038C110.808 92.032 111.482 91.3135 111.482 90.216H107.482ZM103.27 90.249C99.467 90.7477 95.2355 91 90.5697 91V95C95.3758 95 99.7843 94.7403 103.79 94.215L103.27 90.249ZM90.5697 91C88.2892 91 86.6629 90.8487 85.6078 90.5981C85.0804 90.4729 84.7916 90.3444 84.6587 90.2638C84.5323 90.1872 84.6741 90.2341 84.7664 90.4846L81.013 91.8674C81.3293 92.7259 81.959 93.3048 82.5847 93.6842C83.2038 94.0596 83.931 94.3111 84.6835 94.4899C86.1885 94.8473 88.1781 95 90.5697 95V91ZM84.7604 90.4688L75.8324 66.8528L72.0909 68.2672L81.0189 91.8832L84.7604 90.4688ZM73.9617 65.56H73.4817V69.56H73.9617V65.56ZM71.4817 67.56V90.216H75.4817V67.56H71.4817ZM128.43 92.328L129.191 90.4786L129.191 90.4786L128.43 92.328ZM129.006 25.896L128.172 24.0779L128.157 24.0847L128.143 24.0917L129.006 25.896ZM176.91 41.736L178.85 42.2211L178.853 42.2087L176.91 41.736ZM153.582 43.944L153.75 41.9511L151.582 41.7681V43.944H153.582ZM153.582 50.376H151.582V52.4587L153.663 52.3744L153.582 50.376ZM173.646 65.064L171.748 64.4315L171.742 64.4494L171.737 64.4674L173.646 65.064ZM170.958 68.136L170.913 70.1355L170.936 70.136H170.958V68.136ZM153.582 67.752L153.626 65.7525L151.582 65.7073V67.752H153.582ZM153.582 73.896H151.582V76.051L153.731 75.8904L153.582 73.896ZM175.47 91H134.766V95H175.47V91ZM134.766 91C133.238 91 132.002 90.9451 131.041 90.8432C130.048 90.7379 129.471 90.5941 129.191 90.4786L127.668 94.1774C128.476 94.5099 129.5 94.7021 130.619 94.8208C131.769 94.9429 133.157 95 134.766 95V91ZM129.191 90.4786C129.034 90.4138 128.932 90.3542 128.869 90.3101C128.808 90.267 128.789 90.2415 128.788 90.2411C128.788 90.2405 128.79 90.2435 128.793 90.2497C128.797 90.2559 128.799 90.262 128.801 90.2665C128.804 90.2776 128.798 90.2652 128.798 90.216H124.798C124.798 91.1013 125.059 91.9563 125.623 92.6869C126.167 93.3914 126.902 93.8617 127.668 94.1774L129.191 90.4786ZM128.798 90.216V29.448H124.798V90.216H128.798ZM128.798 29.448C128.798 28.9163 128.913 28.5862 129.048 28.3679C129.182 28.1519 129.417 27.9162 129.869 27.7003L128.143 24.0917C127.122 24.5798 126.253 25.2881 125.651 26.2561C125.051 27.2218 124.798 28.3157 124.798 29.448H128.798ZM129.839 27.7141C130.942 27.2085 133.268 26.84 137.166 26.84V22.84C133.255 22.84 130.141 23.1755 128.172 24.0779L129.839 27.7141ZM137.166 26.84H175.758V22.84H137.166V26.84ZM175.758 26.84C175.455 26.84 175.229 26.6826 175.153 26.5979C175.128 26.5705 175.229 26.6771 175.354 27.0947C175.604 27.928 175.774 29.3711 175.774 31.56H179.774C179.774 29.2689 179.607 27.3519 179.185 25.9453C178.975 25.2429 178.655 24.5095 178.126 23.9221C177.546 23.2774 176.733 22.84 175.758 22.84V26.84ZM175.774 31.56C175.774 35.9231 175.486 39.1273 174.966 41.2633L178.853 42.2087C179.485 39.6087 179.774 36.0289 179.774 31.56H175.774ZM174.969 41.2509C174.703 42.316 174.435 42.9225 174.238 43.2186C174.048 43.5029 174.152 43.192 174.606 43.192V47.192C176.02 47.192 176.987 46.3051 177.566 45.4374C178.136 44.5815 178.54 43.46 178.85 42.2211L174.969 41.2509ZM174.606 43.192C170.538 43.192 163.605 42.783 153.75 41.9511L153.413 45.9369C163.27 46.769 170.353 47.192 174.606 47.192V43.192ZM151.582 43.944V50.376H155.582V43.944H151.582ZM153.663 52.3744C163.144 51.99 169.278 51.8 172.11 51.8V47.8C169.182 47.8 162.963 47.994 153.501 48.3776L153.663 52.3744ZM172.11 51.8C172.122 51.8 172.062 51.7927 172.016 51.7567C171.998 51.7428 172.09 51.8063 172.215 52.0998C172.485 52.7298 172.702 53.9138 172.702 55.848H176.702C176.702 53.7502 176.486 51.9102 175.892 50.5242C175.586 49.8097 175.137 49.1172 174.472 48.5993C173.777 48.0593 172.961 47.8 172.11 47.8V51.8ZM172.702 55.848C172.702 59.8096 172.35 62.6261 171.748 64.4315L175.543 65.6965C176.349 63.2779 176.702 59.9504 176.702 55.848H172.702ZM171.737 64.4674C171.457 65.3623 171.178 65.8344 170.989 66.051C170.845 66.2154 170.851 66.136 170.958 66.136V70.136C172.216 70.136 173.247 69.5446 173.999 68.685C174.705 67.8776 175.194 66.8137 175.555 65.6605L171.737 64.4674ZM171.002 66.1365L153.626 65.7525L153.537 69.7515L170.913 70.1355L171.002 66.1365ZM151.582 67.752V73.896H155.582V67.752H151.582ZM153.731 75.8904C164.872 75.058 172.482 74.648 176.622 74.648V70.648C172.313 70.648 164.563 71.07 153.433 71.9016L153.731 75.8904ZM176.622 74.648C176.319 74.648 176.093 74.4906 176.017 74.4059C175.992 74.3785 176.093 74.4851 176.218 74.9027C176.468 75.736 176.638 77.1791 176.638 79.368H180.638C180.638 77.0769 180.471 75.16 180.049 73.7533C179.839 73.0509 179.519 72.3175 178.99 71.7301C178.41 71.0854 177.597 70.648 176.622 70.648V74.648ZM176.638 79.368C176.638 83.8016 176.349 86.9969 175.833 89.0589L179.714 90.0291C180.35 87.4831 180.638 83.8944 180.638 79.368H176.638ZM175.833 89.0589C175.567 90.124 175.299 90.7305 175.102 91.0266C174.912 91.3109 175.016 91 175.47 91V95C176.884 95 177.851 94.1131 178.43 93.2454C179 92.3895 179.404 91.268 179.714 90.0291L175.833 89.0589ZM215.343 92.328L214.498 94.1404L214.498 94.1404L215.343 92.328ZM213.327 90.024L215.213 89.3584L215.211 89.3505L215.208 89.3427L213.327 90.024ZM192.111 31.464H190.111V31.8151L190.231 32.1453L192.111 31.464ZM198.927 27.24L198.271 25.3506L198.263 25.3535L198.927 27.24ZM222.447 30.504L220.458 30.7063L220.459 30.7173L222.447 30.504ZM225.711 60.936L223.723 61.1493L223.914 62.936H225.711V60.936ZM227.055 60.936V62.936H228.887L229.048 61.112L227.055 60.936ZM229.743 30.504L231.736 30.68L231.736 30.6729L229.743 30.504ZM249.135 26.184L247.864 27.7279L247.892 27.7508L247.921 27.7727L249.135 26.184ZM250.959 29.544L248.968 29.7251L248.969 29.7349L248.97 29.7448L250.959 29.544ZM254.127 60.936L252.138 61.1368L252.319 62.936H254.127V60.936ZM255.471 60.936V62.936H257.314L257.465 61.0995L255.471 60.936ZM257.967 30.504L255.978 30.2982L255.976 30.3193L255.974 30.3405L257.967 30.504ZM264.495 26.28L264.052 24.3297L264.046 24.3312L264.495 26.28ZM285.423 26.664L284.15 28.2059L284.166 28.2192L284.182 28.2321L285.423 26.664ZM287.727 30.504L289.618 31.1565L289.727 30.8394V30.504H287.727ZM267.183 90.024L269.068 90.6928L269.071 90.6847L269.074 90.6765L267.183 90.024ZM245.871 90.024L247.79 89.4597L247.788 89.4513L245.871 90.024ZM240.879 73.32L242.796 72.7473L242.369 71.32H240.879V73.32ZM239.727 73.32V71.32H238.246L237.814 72.7372L239.727 73.32ZM234.639 90.024L232.726 89.4412L232.722 89.4538L232.719 89.4664L234.639 90.024ZM221.391 91C219.896 91 218.704 90.9451 217.796 90.8442C216.845 90.7385 216.365 90.5979 216.189 90.5156L214.498 94.1404C215.281 94.5061 216.29 94.7015 217.355 94.8198C218.463 94.9429 219.815 95 221.391 95V91ZM216.189 90.5156C215.762 90.3162 215.436 89.9898 215.213 89.3584L211.441 90.6896C211.987 92.2342 213.005 93.4438 214.498 94.1404L216.189 90.5156ZM215.208 89.3427L193.992 30.7827L190.231 32.1453L211.447 90.7053L215.208 89.3427ZM194.111 31.464C194.111 31.8108 193.947 31.9429 194.049 31.8252C194.15 31.7089 194.39 31.4925 194.869 31.196C195.822 30.6056 197.366 29.9102 199.592 29.1265L198.263 25.3535C195.945 26.1698 194.081 26.9784 192.762 27.796C192.104 28.2035 191.493 28.6671 191.025 29.2068C190.559 29.7451 190.111 30.5092 190.111 31.464H194.111ZM199.583 29.1293C203.99 27.5993 208.408 26.84 212.847 26.84V22.84C207.942 22.84 203.081 23.6807 198.271 25.3506L199.583 29.1293ZM212.847 26.84C215.697 26.84 217.586 27.296 218.743 27.9785C219.782 28.5912 220.328 29.4349 220.458 30.7063L224.437 30.3017C224.182 27.7971 222.937 25.8087 220.776 24.5335C218.733 23.328 216.014 22.84 212.847 22.84V26.84ZM220.459 30.7173L223.723 61.1493L227.7 60.7227L224.436 30.2907L220.459 30.7173ZM225.711 62.936H227.055V58.936H225.711V62.936ZM229.048 61.112L231.736 30.68L227.751 30.328L225.063 60.76L229.048 61.112ZM231.736 30.6729C231.818 29.7052 232.343 28.8234 234.024 28.0886C235.808 27.3093 238.64 26.84 242.703 26.84V22.84C238.447 22.84 234.959 23.3147 232.422 24.4234C229.784 25.5766 227.989 27.5268 227.751 30.3351L231.736 30.6729ZM242.703 26.84C244.223 26.84 245.411 26.9474 246.302 27.1337C247.217 27.3248 247.671 27.5686 247.864 27.7279L250.407 24.6401C249.512 23.9034 248.35 23.4752 247.12 23.2183C245.868 22.9565 244.384 22.84 242.703 22.84V26.84ZM247.921 27.7727C248.548 28.2526 248.888 28.8539 248.968 29.7251L252.951 29.3629C252.774 27.4181 251.899 25.7794 250.35 24.5953L247.921 27.7727ZM248.97 29.7448L252.138 61.1368L256.117 60.7352L252.949 29.3432L248.97 29.7448ZM254.127 62.936H255.471V58.936H254.127V62.936ZM257.465 61.0995L259.961 30.6675L255.974 30.3405L253.478 60.7725L257.465 61.0995ZM259.957 30.7098C259.969 30.5944 260.042 30.2452 260.83 29.7351C261.637 29.2127 262.965 28.6858 264.945 28.2288L264.046 24.3312C261.866 24.8341 260.025 25.4913 258.657 26.3769C257.269 27.2748 256.158 28.5576 255.978 30.2982L259.957 30.7098ZM264.939 28.2303C269.026 27.3014 273.037 26.84 276.975 26.84V22.84C272.722 22.84 268.413 23.3386 264.052 24.3297L264.939 28.2303ZM276.975 26.84C278.97 26.84 280.562 26.9869 281.785 27.2509C283.026 27.5189 283.754 27.8793 284.15 28.2059L286.697 25.1221C285.621 24.2327 284.205 23.6811 282.63 23.341C281.037 22.9971 279.141 22.84 276.975 22.84V26.84ZM284.182 28.2321C285.467 29.249 285.727 30.0122 285.727 30.504H289.727C289.727 28.3078 288.452 26.5109 286.665 25.0959L284.182 28.2321ZM285.837 29.8515L265.293 89.3715L269.074 90.6765L289.618 31.1565L285.837 29.8515ZM265.299 89.3552C265.35 89.2108 265.388 89.3261 264.94 89.5714C264.5 89.8118 263.78 90.0709 262.693 90.2985C260.527 90.7522 257.313 91 252.975 91V95C257.405 95 260.943 94.7518 263.513 94.2135C264.795 93.9451 265.939 93.5842 266.859 93.0806C267.771 92.5819 268.665 91.8292 269.068 90.6928L265.299 89.3552ZM252.975 91C251.712 91 250.707 90.9456 249.94 90.848C249.139 90.746 248.738 90.6132 248.59 90.5391L246.801 94.1169C247.549 94.4908 248.476 94.694 249.435 94.816C250.428 94.9424 251.615 95 252.975 95V91ZM248.59 90.5391C248.258 90.3734 247.976 90.0926 247.79 89.4597L243.953 90.5883C244.407 92.1314 245.34 93.3866 246.801 94.1169L248.59 90.5391ZM247.788 89.4513L242.796 72.7473L238.963 73.8927L243.955 90.5967L247.788 89.4513ZM240.879 71.32H239.727V75.32H240.879V71.32ZM237.814 72.7372L232.726 89.4412L236.553 90.6068L241.641 73.9028L237.814 72.7372ZM232.719 89.4664C232.765 89.3087 232.83 89.3897 232.463 89.6081C232.093 89.8289 231.456 90.0802 230.457 90.3046C228.465 90.7521 225.471 91 221.391 91V95C225.567 95 228.91 94.7519 231.334 94.2074C232.543 93.9358 233.634 93.5671 234.512 93.0439C235.393 92.5183 236.226 91.7313 236.56 90.5816L232.719 89.4664ZM348.049 88.968L346.866 87.3552L346.866 87.3552L348.049 88.968ZM339.985 92.52L340.496 94.4537L340.508 94.4504L340.52 94.447L339.985 92.52ZM300.913 89.544L299.997 91.3219L299.997 91.3219L300.913 89.544ZM299.281 75.24L301.214 75.7553L301.216 75.7474L299.281 75.24ZM310.897 71.976L311.544 70.0835L311.544 70.0835L310.897 71.976ZM327.313 73.8L328.423 75.4641L328.469 75.4333L328.513 75.4L327.313 73.8ZM326.353 68.712L325.336 70.4339L325.365 70.4513L325.395 70.4678L326.353 68.712ZM321.073 66.6L320.493 68.514L320.52 68.5222L320.547 68.5295L321.073 66.6ZM314.161 63.912L313.305 65.7195L313.314 65.7237L313.323 65.7279L314.161 63.912ZM307.345 60.072L308.455 58.4079L308.455 58.4079L307.345 60.072ZM302.065 54.12L300.303 55.0656L300.308 55.0748L300.313 55.0838L302.065 54.12ZM341.809 25.128L341.454 27.0962L341.467 27.0986L341.48 27.1008L341.809 25.128ZM351.505 27.816L350.539 29.5672L350.574 29.5867L350.611 29.6049L351.505 27.816ZM351.985 41.448L350.139 40.6788L350.134 40.692L350.128 40.7052L351.985 41.448ZM344.977 46.344L344.173 48.175L344.196 48.1854L344.22 48.1951L344.977 46.344ZM328.753 44.328L327.859 42.5391L327.835 42.5509L327.812 42.5633L328.753 44.328ZM329.425 49.32L328.531 51.1089L328.564 51.1254L328.598 51.1407L329.425 49.32ZM334.609 51.144L334.068 53.0693L334.103 53.0791L334.138 53.0877L334.609 51.144ZM341.425 53.64L340.569 55.4475L340.597 55.4609L340.626 55.4734L341.425 53.64ZM348.337 57.576L347.161 59.1935L347.177 59.2053L347.194 59.2168L348.337 57.576ZM353.617 63.912L355.398 63.001L355.398 63.001L353.617 63.912ZM352.753 83.976L354.443 85.0461L354.443 85.0453L352.753 83.976ZM346.866 87.3552C345.214 88.5669 342.779 89.6682 339.45 90.593L340.52 94.447C344.103 93.4518 347.044 92.1851 349.232 90.5808L346.866 87.3552ZM339.474 90.5863C336.314 91.4211 332.088 91.864 326.737 91.864V95.864C332.266 95.864 336.872 95.4109 340.496 94.4537L339.474 90.5863ZM326.737 91.864C321.472 91.864 316.474 91.4253 311.739 90.5531L311.015 94.4869C316.008 95.4067 321.25 95.864 326.737 95.864V91.864ZM311.739 90.5531C306.907 89.6629 303.664 88.7115 301.829 87.7661L299.997 91.3219C302.386 92.5525 306.12 93.5851 311.015 94.4869L311.739 90.5531ZM301.829 87.7661C300.862 87.2678 300.273 86.8433 299.951 86.5218C299.627 86.1971 299.745 86.156 299.745 86.376H295.745C295.745 87.62 296.392 88.6189 297.123 89.3502C297.857 90.0847 298.852 90.7322 299.997 91.3219L301.829 87.7661ZM299.745 86.376C299.745 82.9837 300.23 79.4453 301.214 75.7553L297.349 74.7247C296.285 78.7147 295.745 82.6003 295.745 86.376H299.745ZM301.216 75.7474C301.709 73.8666 302.208 72.6291 302.659 71.9055C303.141 71.132 303.271 71.384 302.929 71.384V67.384C301.179 67.384 299.998 68.612 299.264 69.7905C298.498 71.0189 297.877 72.7094 297.347 74.7326L301.216 75.7474ZM302.929 71.384C302.813 71.384 302.726 71.373 302.696 71.3691C302.658 71.364 302.632 71.359 302.624 71.3574C302.608 71.3544 302.613 71.3549 302.648 71.3637C302.716 71.3809 302.831 71.4125 303.002 71.4634C303.341 71.5639 303.836 71.7196 304.494 71.9339C305.808 72.3612 307.725 73.0054 310.25 73.8685L311.544 70.0835C309.013 69.2186 307.074 68.5668 305.732 68.1301C305.063 67.9124 304.529 67.7441 304.14 67.6286C303.947 67.5715 303.773 67.5221 303.627 67.4853C303.555 67.4671 303.472 67.4473 303.387 67.4308C303.34 67.4217 303.152 67.384 302.929 67.384V71.384ZM310.25 73.8685C315.339 75.6076 319.411 76.568 322.321 76.568V72.568C320.111 72.568 316.567 71.8004 311.544 70.0835L310.25 73.8685ZM322.321 76.568C323.656 76.568 324.823 76.502 325.793 76.3527C326.714 76.2111 327.671 75.9651 328.423 75.4641L326.204 72.1359C326.215 72.1281 326.154 72.1696 325.967 72.2288C325.786 72.2861 325.53 72.3462 325.185 72.3993C324.491 72.506 323.546 72.568 322.321 72.568V76.568ZM328.513 75.4C329.823 74.4179 330.465 73.0047 330.465 71.4H326.465C326.465 71.8433 326.34 72.0301 326.113 72.2L328.513 75.4ZM330.465 71.4C330.465 69.2856 328.969 67.8606 327.311 66.9562L325.395 70.4678C325.951 70.7711 326.234 71.0291 326.365 71.1956C326.473 71.3333 326.465 71.3868 326.465 71.4H330.465ZM327.371 66.9901C325.767 66.0426 323.829 65.2787 321.599 64.6705L320.547 68.5295C322.541 69.0733 324.123 69.7174 325.336 70.4339L327.371 66.9901ZM321.653 64.686C319.648 64.0782 317.431 63.2184 314.999 62.0961L313.323 65.7279C315.883 66.9096 318.275 67.8418 320.493 68.514L321.653 64.686ZM315.017 62.1045C312.668 60.9916 310.481 59.7589 308.455 58.4079L306.236 61.7361C308.433 63.2011 310.79 64.5284 313.305 65.7195L315.017 62.1045ZM308.455 58.4079C306.648 57.2035 305.094 55.4772 303.818 53.1562L300.313 55.0838C301.852 57.8828 303.818 60.1245 306.236 61.7361L308.455 58.4079ZM303.827 53.1744C302.593 50.874 301.953 48.2294 301.953 45.192H297.953C297.953 48.8106 298.721 52.118 300.303 55.0656L303.827 53.1744ZM301.953 45.192C301.953 38.4984 303.934 33.8103 307.598 30.7411C311.329 27.6151 317.144 25.88 325.393 25.88V21.88C316.683 21.88 309.777 23.6969 305.029 27.6749C300.212 31.7097 297.953 37.6776 297.953 45.192H301.953ZM325.393 25.88C331.649 25.88 336.996 26.2913 341.454 27.0962L342.165 23.1598C337.407 22.3007 331.81 21.88 325.393 21.88V25.88ZM341.48 27.1008C346.068 27.8654 349.005 28.7207 350.539 29.5672L352.471 26.0648C350.293 24.8633 346.766 23.9266 342.138 23.1552L341.48 27.1008ZM350.611 29.6049C351.477 30.0378 351.985 30.4041 352.251 30.6702C352.513 30.9322 352.385 30.9335 352.385 30.696H356.385C356.385 29.4985 355.777 28.5398 355.079 27.8418C354.385 27.1479 353.454 26.5542 352.4 26.0271L350.611 29.6049ZM352.385 30.696C352.385 33.7029 351.662 37.0236 350.139 40.6788L353.831 42.2172C355.508 38.1924 356.385 34.3451 356.385 30.696H352.385ZM350.128 40.7052C349.389 42.5532 348.712 43.7921 348.131 44.5347C347.512 45.3242 347.284 45.208 347.473 45.208V49.208C349.135 49.208 350.394 48.1318 351.28 47.0013C352.202 45.8239 353.045 44.1827 353.842 42.1908L350.128 40.7052ZM347.473 45.208C347.688 45.208 347.804 45.2522 347.685 45.2206C347.616 45.2023 347.495 45.1657 347.311 45.102C346.946 44.9756 346.425 44.7754 345.734 44.4929L344.22 48.1951C344.937 48.4886 345.536 48.7204 346.003 48.882C346.235 48.9623 346.459 49.0337 346.661 49.0874C346.814 49.1278 347.13 49.208 347.473 49.208V45.208ZM345.782 44.513C341.446 42.6079 337.632 41.56 334.417 41.56V45.56C336.835 45.56 340.06 46.3681 344.173 48.175L345.782 44.513ZM334.417 41.56C332.987 41.56 331.731 41.626 330.668 41.7701C329.631 41.9108 328.655 42.1411 327.859 42.5391L329.648 46.1169C329.876 46.0029 330.355 45.8492 331.206 45.7339C332.031 45.6219 333.095 45.56 334.417 45.56V41.56ZM327.812 42.5633C327.066 42.9611 326.414 43.5237 325.958 44.283C325.503 45.0423 325.313 45.8826 325.313 46.728H329.313C329.313 46.4854 329.364 46.3817 329.388 46.341C329.413 46.3003 329.48 46.2068 329.694 46.0927L327.812 42.5633ZM325.313 46.728C325.313 48.8735 326.847 50.2672 328.531 51.1089L330.32 47.5311C329.772 47.2572 329.507 47.022 329.392 46.8807C329.303 46.7718 329.313 46.738 329.313 46.728H325.313ZM328.598 51.1407C330.125 51.8351 331.955 52.4752 334.068 53.0693L335.151 49.2187C333.167 48.6608 331.541 48.0849 330.253 47.4993L328.598 51.1407ZM334.138 53.0877C336.09 53.561 338.232 54.3407 340.569 55.4475L342.281 51.8325C339.754 50.6353 337.352 49.751 335.08 49.2003L334.138 53.0877ZM340.626 55.4734C342.994 56.5058 345.171 57.7465 347.161 59.1935L349.514 55.9585C347.279 54.3335 344.848 52.9502 342.224 51.8066L340.626 55.4734ZM347.194 59.2168C348.988 60.4672 350.548 62.3045 351.837 64.823L355.398 63.001C353.87 60.0155 351.911 57.6288 349.481 55.9352L347.194 59.2168ZM351.837 64.823C353.077 67.2464 353.729 70.1239 353.729 73.512H357.729C357.729 69.6041 356.974 66.0816 355.398 63.001L351.837 64.823ZM353.729 73.512C353.729 76.9873 352.837 80.1022 351.063 82.9067L354.443 85.0453C356.637 81.5778 357.729 77.7167 357.729 73.512H353.729ZM351.064 82.9059C349.987 84.605 348.595 86.0877 346.866 87.3552L349.232 90.5808C351.344 89.0323 353.087 87.187 354.443 85.0461L351.064 82.9059Z" fill="black"/>
</svg>
