<svg width="550" height="1197" viewBox="0 0 550 1197" fill="none" xmlns="http://www.w3.org/2000/svg">
<g clip-path="url(#clip0_20_4101)">
<path d="M396.62 277.472H167.758C167.758 277.472 136.113 282.719 132.465 299.211C132.465 299.211 76.5351 294.713 82.4225 357.68L83.1971 494.108L110.426 521.843L362.109 519.594L388.602 512.848L402.584 277.472H396.62Z" fill="#0A0A08"/>
<path d="M400.88 289.979L174.683 291.557C174.683 291.557 145.246 287.612 136.725 309.705L135.176 313.65C135.176 313.65 106.514 307.338 97.2181 330.221C97.2181 330.221 90.2462 341.267 91.7955 366.517V487.243H372.993L374.542 490.399H87.9223V346.791C87.9223 346.791 84.0491 307.338 132.852 307.338C132.852 307.338 139.824 283.666 175.457 287.612H400.88V289.979Z" fill="#EFEDD3"/>
<path d="M418.698 178.722L456.655 218.964L510.106 191.347L534.895 216.596L470.599 505.391C470.599 505.391 455.881 599.289 382.289 577.985L245.176 574.828L249.824 596.133H210.317L142.923 526.696L191.726 472.251L225.036 473.04L232.782 484.876L225.81 495.923L376.867 498.29L418.698 178.722Z" fill="#010000"/>
<path d="M424.12 190.557L455.88 223.698L506.233 199.237L440.388 485.665C440.388 485.665 433.416 570.883 372.219 550.367L215.74 549.578L222.711 569.305H197.923L152.993 527.485L198.697 481.719L220.388 482.508L215.74 503.024L381.514 503.813L397.007 399.657L424.12 190.557Z" fill="#D47035"/>
<path d="M455.88 223.698L462.852 230.799L504.04 208.753L506.232 199.237L455.88 223.698Z" fill="#794818"/>
<path d="M428.279 194.897L386.162 499.079L381.514 503.813L424.119 190.557L428.279 194.897Z" fill="#794818"/>
<path d="M381.514 503.813H215.739V508.547H381.514V503.813Z" fill="#794818"/>
<path d="M218.962 488.813L195.211 488.426L156.417 530.673L152.605 527.09L198.31 481.325L220 482.114L218.962 488.813Z" fill="#794818"/>
<path d="M195.986 522.514C199.066 522.514 201.563 519.97 201.563 516.833C201.563 513.695 199.066 511.151 195.986 511.151C192.905 511.151 190.408 513.695 190.408 516.833C190.408 519.97 192.905 522.514 195.986 522.514Z" fill="#230000"/>
<path d="M192.112 518.411C195.535 518.411 198.309 515.584 198.309 512.098C198.309 508.612 195.535 505.786 192.112 505.786C188.69 505.786 185.915 508.612 185.915 512.098C185.915 515.584 188.69 518.411 192.112 518.411Z" fill="#EFEDD3"/>
<path d="M208.38 501.998C211.461 501.998 213.958 499.455 213.958 496.317C213.958 493.179 211.461 490.636 208.38 490.636C205.3 490.636 202.803 493.179 202.803 496.317C202.803 499.455 205.3 501.998 208.38 501.998Z" fill="#230000"/>
<path d="M204.507 497.895C207.929 497.895 210.704 495.069 210.704 491.583C210.704 488.096 207.929 485.27 204.507 485.27C201.084 485.27 198.31 488.096 198.31 491.583C198.31 495.069 201.084 497.895 204.507 497.895Z" fill="#EFEDD3"/>
<path d="M171.198 536.717C174.278 536.717 176.775 534.173 176.775 531.036C176.775 527.898 174.278 525.354 171.198 525.354C168.117 525.354 165.62 527.898 165.62 531.036C165.62 534.173 168.117 536.717 171.198 536.717Z" fill="#230000"/>
<path d="M167.324 532.614C170.747 532.614 173.521 529.788 173.521 526.301C173.521 522.815 170.747 519.989 167.324 519.989C163.902 519.989 161.127 522.815 161.127 526.301C161.127 529.788 163.902 532.614 167.324 532.614Z" fill="#EFEDD3"/>
<path d="M197.535 550.131C200.616 550.131 203.113 547.587 203.113 544.45C203.113 541.312 200.616 538.768 197.535 538.768C194.455 538.768 191.958 541.312 191.958 544.45C191.958 547.587 194.455 550.131 197.535 550.131Z" fill="#230000"/>
<path d="M193.662 546.028C197.085 546.028 199.859 543.202 199.859 539.715C199.859 536.229 197.085 533.403 193.662 533.403C190.239 533.403 187.465 536.229 187.465 539.715C187.465 543.202 190.239 546.028 193.662 546.028Z" fill="#EFEDD3"/>
<path d="M210.704 569.857C213.785 569.857 216.282 567.313 216.282 564.176C216.282 561.038 213.785 558.495 210.704 558.495C207.624 558.495 205.127 561.038 205.127 564.176C205.127 567.313 207.624 569.857 210.704 569.857Z" fill="#230000"/>
<path d="M206.831 565.754C210.254 565.754 213.028 562.928 213.028 559.442C213.028 555.955 210.254 553.129 206.831 553.129C203.408 553.129 200.634 555.955 200.634 559.442C200.634 562.928 203.408 565.754 206.831 565.754Z" fill="#EFEDD3"/>
<path d="M229.296 523.303C232.377 523.303 234.874 520.759 234.874 517.622C234.874 514.484 232.377 511.94 229.296 511.94C226.216 511.94 223.719 514.484 223.719 517.622C223.719 520.759 226.216 523.303 229.296 523.303Z" fill="#230000"/>
<path d="M225.423 519.2C228.845 519.2 231.62 516.373 231.62 512.887C231.62 509.401 228.845 506.575 225.423 506.575C222 506.575 219.226 509.401 219.226 512.887C219.226 516.373 222 519.2 225.423 519.2Z" fill="#EFEDD3"/>
<path d="M264.155 522.514C267.235 522.514 269.732 519.97 269.732 516.833C269.732 513.695 267.235 511.151 264.155 511.151C261.074 511.151 258.577 513.695 258.577 516.833C258.577 519.97 261.074 522.514 264.155 522.514Z" fill="#230000"/>
<path d="M260.282 518.411C263.705 518.411 266.479 515.584 266.479 512.098C266.479 508.612 263.705 505.786 260.282 505.786C256.86 505.786 254.085 508.612 254.085 512.098C254.085 515.584 256.86 518.411 260.282 518.411Z" fill="#EFEDD3"/>
<path d="M231.619 549.342C234.7 549.342 237.197 546.798 237.197 543.66C237.197 540.523 234.7 537.979 231.619 537.979C228.539 537.979 226.042 540.523 226.042 543.66C226.042 546.798 228.539 549.342 231.619 549.342Z" fill="#230000"/>
<path d="M227.746 545.239C231.169 545.239 233.943 542.413 233.943 538.926C233.943 535.44 231.169 532.614 227.746 532.614C224.323 532.614 221.549 535.44 221.549 538.926C221.549 542.413 224.323 545.239 227.746 545.239Z" fill="#EFEDD3"/>
<path d="M300.564 550.131C303.644 550.131 306.141 547.587 306.141 544.45C306.141 541.312 303.644 538.768 300.564 538.768C297.483 538.768 294.986 541.312 294.986 544.45C294.986 547.587 297.483 550.131 300.564 550.131Z" fill="#230000"/>
<path d="M296.69 546.028C300.113 546.028 302.888 543.202 302.888 539.715C302.888 536.229 300.113 533.403 296.69 533.403C293.268 533.403 290.493 536.229 290.493 539.715C290.493 543.202 293.268 546.028 296.69 546.028Z" fill="#EFEDD3"/>
<path d="M266.479 549.342C269.559 549.342 272.056 546.798 272.056 543.66C272.056 540.523 269.559 537.979 266.479 537.979C263.398 537.979 260.901 540.523 260.901 543.66C260.901 546.798 263.398 549.342 266.479 549.342Z" fill="#230000"/>
<path d="M262.605 545.239C266.028 545.239 268.803 542.413 268.803 538.926C268.803 535.44 266.028 532.614 262.605 532.614C259.183 532.614 256.408 535.44 256.408 538.926C256.408 542.413 259.183 545.239 262.605 545.239Z" fill="#EFEDD3"/>
<path d="M300.564 523.303C303.644 523.303 306.141 520.759 306.141 517.622C306.141 514.484 303.644 511.94 300.564 511.94C297.483 511.94 294.986 514.484 294.986 517.622C294.986 520.759 297.483 523.303 300.564 523.303Z" fill="#230000"/>
<path d="M296.69 519.2C300.113 519.2 302.888 516.373 302.888 512.887C302.888 509.401 300.113 506.575 296.69 506.575C293.268 506.575 290.493 509.401 290.493 512.887C290.493 516.373 293.268 519.2 296.69 519.2Z" fill="#EFEDD3"/>
<path d="M333.099 523.303C336.179 523.303 338.676 520.759 338.676 517.622C338.676 514.484 336.179 511.94 333.099 511.94C330.019 511.94 327.521 514.484 327.521 517.622C327.521 520.759 330.019 523.303 333.099 523.303Z" fill="#230000"/>
<path d="M329.226 519.2C332.648 519.2 335.423 516.373 335.423 512.887C335.423 509.401 332.648 506.575 329.226 506.575C325.803 506.575 323.028 509.401 323.028 512.887C323.028 516.373 325.803 519.2 329.226 519.2Z" fill="#EFEDD3"/>
<path d="M335.422 549.342C338.503 549.342 341 546.798 341 543.66C341 540.523 338.503 537.979 335.422 537.979C332.342 537.979 329.845 540.523 329.845 543.66C329.845 546.798 332.342 549.342 335.422 549.342Z" fill="#230000"/>
<path d="M331.55 545.239C334.972 545.239 337.747 542.413 337.747 538.926C337.747 535.44 334.972 532.614 331.55 532.614C328.127 532.614 325.353 535.44 325.353 538.926C325.353 542.413 328.127 545.239 331.55 545.239Z" fill="#EFEDD3"/>
<path d="M368.733 549.342C371.813 549.342 374.31 546.798 374.31 543.66C374.31 540.523 371.813 537.979 368.733 537.979C365.652 537.979 363.155 540.523 363.155 543.66C363.155 546.798 365.652 549.342 368.733 549.342Z" fill="#230000"/>
<path d="M364.859 545.239C368.282 545.239 371.056 542.413 371.056 538.926C371.056 535.44 368.282 532.614 364.859 532.614C361.437 532.614 358.662 535.44 358.662 538.926C358.662 542.413 361.437 545.239 364.859 545.239Z" fill="#EFEDD3"/>
<path d="M367.183 522.514C370.263 522.514 372.76 519.97 372.76 516.833C372.76 513.695 370.263 511.151 367.183 511.151C364.103 511.151 361.605 513.695 361.605 516.833C361.605 519.97 364.103 522.514 367.183 522.514Z" fill="#230000"/>
<path d="M363.309 518.411C366.732 518.411 369.507 515.584 369.507 512.098C369.507 508.612 366.732 505.786 363.309 505.786C359.887 505.786 357.112 508.612 357.112 512.098C357.112 515.584 359.887 518.411 363.309 518.411Z" fill="#EFEDD3"/>
<path d="M403.591 549.342C406.671 549.342 409.169 546.798 409.169 543.66C409.169 540.523 406.671 537.979 403.591 537.979C400.511 537.979 398.014 540.523 398.014 543.66C398.014 546.798 400.511 549.342 403.591 549.342Z" fill="#230000"/>
<path d="M399.719 545.239C403.141 545.239 405.916 542.413 405.916 538.926C405.916 535.44 403.141 532.614 399.719 532.614C396.296 532.614 393.521 535.44 393.521 538.926C393.521 542.413 396.296 545.239 399.719 545.239Z" fill="#EFEDD3"/>
<path d="M422.957 520.147C426.038 520.147 428.535 517.603 428.535 514.465C428.535 511.328 426.038 508.784 422.957 508.784C419.877 508.784 417.38 511.328 417.38 514.465C417.38 517.603 419.877 520.147 422.957 520.147Z" fill="#230000"/>
<path d="M419.085 516.043C422.507 516.043 425.282 513.217 425.282 509.731C425.282 506.245 422.507 503.418 419.085 503.418C415.662 503.418 412.888 506.245 412.888 509.731C412.888 513.217 415.662 516.043 419.085 516.043Z" fill="#EFEDD3"/>
<path d="M395.845 508.311C398.925 508.311 401.423 505.767 401.423 502.629C401.423 499.492 398.925 496.948 395.845 496.948C392.765 496.948 390.268 499.492 390.268 502.629C390.268 505.767 392.765 508.311 395.845 508.311Z" fill="#230000"/>
<path d="M391.972 504.208C395.394 504.208 398.169 501.381 398.169 497.895C398.169 494.409 395.394 491.583 391.972 491.583C388.549 491.583 385.774 494.409 385.774 497.895C385.774 501.381 388.549 504.208 391.972 504.208Z" fill="#EFEDD3"/>
<path d="M402.042 475.17C405.123 475.17 407.62 472.627 407.62 469.489C407.62 466.351 405.123 463.808 402.042 463.808C398.962 463.808 396.465 466.351 396.465 469.489C396.465 472.627 398.962 475.17 402.042 475.17Z" fill="#230000"/>
<path d="M398.169 471.067C401.591 471.067 404.366 468.241 404.366 464.755C404.366 461.269 401.591 458.442 398.169 458.442C394.746 458.442 391.972 461.269 391.972 464.755C391.972 468.241 394.746 471.067 398.169 471.067Z" fill="#EFEDD3"/>
<path d="M429.155 485.428C432.235 485.428 434.732 482.885 434.732 479.747C434.732 476.609 432.235 474.066 429.155 474.066C426.074 474.066 423.577 476.609 423.577 479.747C423.577 482.885 426.074 485.428 429.155 485.428Z" fill="#230000"/>
<path d="M425.282 481.325C428.705 481.325 431.479 478.499 431.479 475.013C431.479 471.526 428.705 468.7 425.282 468.7C421.86 468.7 419.085 471.526 419.085 475.013C419.085 478.499 421.86 481.325 425.282 481.325Z" fill="#EFEDD3"/>
<path d="M436.902 449.921C439.982 449.921 442.479 447.377 442.479 444.239C442.479 441.102 439.982 438.558 436.902 438.558C433.821 438.558 431.324 441.102 431.324 444.239C431.324 447.377 433.821 449.921 436.902 449.921Z" fill="#230000"/>
<path d="M433.028 445.817C436.451 445.817 439.225 442.991 439.225 439.505C439.225 436.019 436.451 433.192 433.028 433.192C429.606 433.192 426.831 436.019 426.831 439.505C426.831 442.991 429.606 445.817 433.028 445.817Z" fill="#EFEDD3"/>
<path d="M408.24 442.03C411.32 442.03 413.817 439.486 413.817 436.349C413.817 433.211 411.32 430.667 408.24 430.667C405.159 430.667 402.662 433.211 402.662 436.349C402.662 439.486 405.159 442.03 408.24 442.03Z" fill="#230000"/>
<path d="M404.366 437.927C407.789 437.927 410.563 435.101 410.563 431.614C410.563 428.128 407.789 425.302 404.366 425.302C400.944 425.302 398.169 428.128 398.169 431.614C398.169 435.101 400.944 437.927 404.366 437.927Z" fill="#EFEDD3"/>
<path d="M444.648 416.78C447.728 416.78 450.225 414.237 450.225 411.099C450.225 407.961 447.728 405.418 444.648 405.418C441.567 405.418 439.07 407.961 439.07 411.099C439.07 414.237 441.567 416.78 444.648 416.78Z" fill="#230000"/>
<path d="M440.774 412.677C444.197 412.677 446.972 409.851 446.972 406.364C446.972 402.878 444.197 400.052 440.774 400.052C437.352 400.052 434.577 402.878 434.577 406.364C434.577 409.851 437.352 412.677 440.774 412.677Z" fill="#EFEDD3"/>
<path d="M452.394 381.273C455.474 381.273 457.971 378.729 457.971 375.591C457.971 372.454 455.474 369.91 452.394 369.91C449.314 369.91 446.816 372.454 446.816 375.591C446.816 378.729 449.314 381.273 452.394 381.273Z" fill="#230000"/>
<path d="M448.521 377.169C451.944 377.169 454.719 374.343 454.719 370.857C454.719 367.371 451.944 364.544 448.521 364.544C445.099 364.544 442.324 367.371 442.324 370.857C442.324 374.343 445.099 377.169 448.521 377.169Z" fill="#EFEDD3"/>
<path d="M418.31 372.593C421.39 372.593 423.887 370.049 423.887 366.912C423.887 363.774 421.39 361.23 418.31 361.23C415.23 361.23 412.732 363.774 412.732 366.912C412.732 370.049 415.23 372.593 418.31 372.593Z" fill="#230000"/>
<path d="M414.436 368.49C417.859 368.49 420.634 365.663 420.634 362.177C420.634 358.691 417.859 355.865 414.436 355.865C411.014 355.865 408.239 358.691 408.239 362.177C408.239 365.663 411.014 368.49 414.436 368.49Z" fill="#EFEDD3"/>
<path d="M422.957 337.085C426.038 337.085 428.535 334.542 428.535 331.404C428.535 328.266 426.038 325.723 422.957 325.723C419.877 325.723 417.38 328.266 417.38 331.404C417.38 334.542 419.877 337.085 422.957 337.085Z" fill="#230000"/>
<path d="M419.085 332.982C422.507 332.982 425.282 330.156 425.282 326.67C425.282 323.184 422.507 320.357 419.085 320.357C415.662 320.357 412.888 323.184 412.888 326.67C412.888 330.156 415.662 332.982 419.085 332.982Z" fill="#EFEDD3"/>
<path d="M443.099 326.828C446.179 326.828 448.676 324.284 448.676 321.147C448.676 318.009 446.179 315.465 443.099 315.465C440.019 315.465 437.521 318.009 437.521 321.147C437.521 324.284 440.019 326.828 443.099 326.828Z" fill="#230000"/>
<path d="M439.226 322.725C442.648 322.725 445.423 319.898 445.423 316.412C445.423 312.926 442.648 310.1 439.226 310.1C435.803 310.1 433.028 312.926 433.028 316.412C433.028 319.898 435.803 322.725 439.226 322.725Z" fill="#EFEDD3"/>
<path d="M462.465 348.132C465.546 348.132 468.043 345.588 468.043 342.451C468.043 339.313 465.546 336.77 462.465 336.77C459.385 336.77 456.888 339.313 456.888 342.451C456.888 345.588 459.385 348.132 462.465 348.132Z" fill="#230000"/>
<path d="M458.592 344.029C462.014 344.029 464.789 341.203 464.789 337.717C464.789 334.23 462.014 331.404 458.592 331.404C455.169 331.404 452.395 334.23 452.395 337.717C452.395 341.203 455.169 344.029 458.592 344.029Z" fill="#EFEDD3"/>
<path d="M468.662 313.414C471.743 313.414 474.24 310.87 474.24 307.732C474.24 304.595 471.743 302.051 468.662 302.051C465.582 302.051 463.085 304.595 463.085 307.732C463.085 310.87 465.582 313.414 468.662 313.414Z" fill="#230000"/>
<path d="M464.789 309.31C468.212 309.31 470.986 306.484 470.986 302.998C470.986 299.512 468.212 296.686 464.789 296.686C461.366 296.686 458.592 299.512 458.592 302.998C458.592 306.484 461.366 309.31 464.789 309.31Z" fill="#EFEDD3"/>
<path d="M427.606 304.734C430.686 304.734 433.183 302.19 433.183 299.053C433.183 295.915 430.686 293.372 427.606 293.372C424.525 293.372 422.028 295.915 422.028 299.053C422.028 302.19 424.525 304.734 427.606 304.734Z" fill="#230000"/>
<path d="M423.732 300.631C427.155 300.631 429.93 297.805 429.93 294.318C429.93 290.832 427.155 288.006 423.732 288.006C420.31 288.006 417.535 290.832 417.535 294.318C417.535 297.805 420.31 300.631 423.732 300.631Z" fill="#EFEDD3"/>
<path d="M452.394 292.898C455.474 292.898 457.971 290.355 457.971 287.217C457.971 284.079 455.474 281.536 452.394 281.536C449.314 281.536 446.816 284.079 446.816 287.217C446.816 290.355 449.314 292.898 452.394 292.898Z" fill="#230000"/>
<path d="M448.521 288.795C451.944 288.795 454.719 285.969 454.719 282.482C454.719 278.996 451.944 276.17 448.521 276.17C445.099 276.17 442.324 278.996 442.324 282.482C442.324 285.969 445.099 288.795 448.521 288.795Z" fill="#EFEDD3"/>
<path d="M433.803 270.804C436.883 270.804 439.381 268.261 439.381 265.123C439.381 261.985 436.883 259.442 433.803 259.442C430.723 259.442 428.226 261.985 428.226 265.123C428.226 268.261 430.723 270.804 433.803 270.804Z" fill="#230000"/>
<path d="M429.93 266.702C433.352 266.702 436.127 263.875 436.127 260.389C436.127 256.903 433.352 254.077 429.93 254.077C426.507 254.077 423.732 256.903 423.732 260.389C423.732 263.875 426.507 266.702 429.93 266.702Z" fill="#EFEDD3"/>
<path d="M478.733 279.484C481.813 279.484 484.31 276.94 484.31 273.803C484.31 270.665 481.813 268.122 478.733 268.122C475.652 268.122 473.155 270.665 473.155 273.803C473.155 276.94 475.652 279.484 478.733 279.484Z" fill="#230000"/>
<path d="M474.859 275.381C478.282 275.381 481.056 272.555 481.056 269.068C481.056 265.582 478.282 262.756 474.859 262.756C471.437 262.756 468.662 265.582 468.662 269.068C468.662 272.555 471.437 275.381 474.859 275.381Z" fill="#EFEDD3"/>
<path d="M460.915 255.813C463.996 255.813 466.493 253.269 466.493 250.131C466.493 246.994 463.996 244.45 460.915 244.45C457.835 244.45 455.338 246.994 455.338 250.131C455.338 253.269 457.835 255.813 460.915 255.813Z" fill="#230000"/>
<path d="M457.042 251.709C460.465 251.709 463.239 248.883 463.239 245.397C463.239 241.911 460.465 239.084 457.042 239.084C453.619 239.084 450.845 241.911 450.845 245.397C450.845 248.883 453.619 251.709 457.042 251.709Z" fill="#EFEDD3"/>
<path d="M440 236.875C443.081 236.875 445.578 234.332 445.578 231.194C445.578 228.056 443.081 225.513 440 225.513C436.92 225.513 434.423 228.056 434.423 231.194C434.423 234.332 436.92 236.875 440 236.875Z" fill="#230000"/>
<path d="M436.127 232.772C439.549 232.772 442.324 229.946 442.324 226.459C442.324 222.973 439.549 220.147 436.127 220.147C432.704 220.147 429.93 222.973 429.93 226.459C429.93 229.946 432.704 232.772 436.127 232.772Z" fill="#EFEDD3"/>
<path d="M484.929 245.555C488.009 245.555 490.507 243.011 490.507 239.874C490.507 236.736 488.009 234.192 484.929 234.192C481.849 234.192 479.352 236.736 479.352 239.874C479.352 243.011 481.849 245.555 484.929 245.555Z" fill="#230000"/>
<path d="M481.057 241.452C484.479 241.452 487.254 238.625 487.254 235.139C487.254 231.653 484.479 228.827 481.057 228.827C477.634 228.827 474.859 231.653 474.859 235.139C474.859 238.625 477.634 241.452 481.057 241.452Z" fill="#EFEDD3"/>
<path d="M412.887 407.311C415.967 407.311 418.465 404.768 418.465 401.63C418.465 398.493 415.967 395.949 412.887 395.949C409.807 395.949 407.31 398.493 407.31 401.63C407.31 404.768 409.807 407.311 412.887 407.311Z" fill="#230000"/>
<path d="M409.014 403.208C412.436 403.208 415.211 400.382 415.211 396.896C415.211 393.41 412.436 390.583 409.014 390.583C405.591 390.583 402.816 393.41 402.816 396.896C402.816 400.382 405.591 403.208 409.014 403.208Z" fill="#EFEDD3"/>
<path d="M84.4368 342.056H31.7607V352.314H84.4368V342.056Z" fill="black"/>
<path d="M125.493 508.153H36.4082V519.2H125.493V508.153Z" fill="#0A0A08"/>
<path d="M36.4085 0.789062H0V1200.95H36.4085V0.789062Z" fill="black"/>
<path d="M140.064 396.777C140.059 396.939 140.044 397.1 140.018 397.259C140.018 397.472 139.948 397.709 139.886 397.961C139.827 398.228 139.755 398.491 139.669 398.75C139.587 399.001 139.478 399.242 139.344 399.468C139.233 399.671 139.092 399.855 138.925 400.013C138.793 400.146 138.615 400.222 138.429 400.226C138.075 400.202 137.728 400.111 137.407 399.957C137.004 399.784 136.501 399.587 135.912 399.381C135.227 399.155 134.532 398.966 133.828 398.813C132.936 398.627 132.027 398.537 131.117 398.545C130.218 398.527 129.321 398.636 128.452 398.868C127.812 399.038 127.206 399.321 126.663 399.705C126.236 400.006 125.884 400.403 125.632 400.865C125.415 401.266 125.297 401.716 125.291 402.175C125.29 402.674 125.479 403.155 125.818 403.516C126.225 403.951 126.699 404.316 127.22 404.597C127.863 404.965 128.528 405.292 129.211 405.575C129.986 405.891 130.714 406.215 131.481 406.554C132.248 406.893 133.03 407.264 133.758 407.666C134.475 408.049 135.143 408.518 135.749 409.063C136.322 409.578 136.798 410.196 137.151 410.886C137.509 411.621 137.687 412.433 137.67 413.253C137.676 414.57 137.29 415.857 136.563 416.946C135.757 418.155 134.699 419.168 133.464 419.913C131.944 420.825 130.296 421.493 128.576 421.893C126.49 422.393 124.352 422.634 122.208 422.611C121.04 422.619 119.873 422.545 118.715 422.39C117.758 422.264 116.809 422.085 115.872 421.854C115.165 421.68 114.471 421.456 113.796 421.183C113.351 421.019 112.929 420.796 112.541 420.52C112.402 420.406 112.293 420.26 112.222 420.094C112.15 419.928 112.119 419.746 112.13 419.565C112.138 419.393 112.159 419.222 112.192 419.053C112.231 418.832 112.285 418.587 112.347 418.327C112.409 418.066 112.502 417.798 112.595 417.538C112.687 417.263 112.806 416.998 112.951 416.748C113.067 416.541 113.22 416.356 113.401 416.204C113.545 416.066 113.737 415.99 113.935 415.991C114.348 416.013 114.752 416.123 115.12 416.315C115.577 416.535 116.143 416.772 116.825 417.04C117.613 417.337 118.421 417.58 119.241 417.766C120.34 418.012 121.463 418.126 122.588 418.106C123.601 418.122 124.613 418.016 125.601 417.79C126.364 417.618 127.096 417.325 127.77 416.922C128.302 416.601 128.755 416.161 129.095 415.636C129.393 415.166 129.552 414.618 129.552 414.058C129.557 413.546 129.368 413.051 129.025 412.677C128.623 412.241 128.155 411.873 127.639 411.588C127.009 411.229 126.357 410.913 125.687 410.641C124.958 410.349 124.222 410.026 123.463 409.686C122.704 409.347 121.96 408.984 121.232 408.59C120.528 408.211 119.872 407.744 119.28 407.201C118.716 406.68 118.249 406.06 117.901 405.37C117.538 404.617 117.358 403.787 117.375 402.948C117.369 401.697 117.733 400.473 118.42 399.437C119.179 398.306 120.174 397.361 121.333 396.667C122.721 395.839 124.226 395.232 125.795 394.868C127.663 394.419 129.577 394.202 131.496 394.221C132.423 394.219 133.349 394.272 134.27 394.379C135.137 394.481 135.935 394.623 136.656 394.781C137.279 394.916 137.893 395.095 138.491 395.318C138.855 395.452 139.205 395.622 139.537 395.823C139.704 395.933 139.849 396.075 139.963 396.241C140.04 396.409 140.074 396.593 140.064 396.777Z" fill="#EFEDD3"/>
<path d="M170.872 421.357C170.823 421.513 170.722 421.648 170.585 421.735C170.372 421.871 170.135 421.965 169.888 422.011C169.485 422.096 169.075 422.148 168.664 422.169C168.153 422.209 167.533 422.224 166.797 422.224C166.061 422.224 165.449 422.225 164.961 422.169C164.583 422.152 164.207 422.099 163.838 422.011C163.638 421.972 163.453 421.876 163.304 421.735C163.257 421.686 163.226 421.623 163.215 421.556C163.204 421.488 163.213 421.419 163.242 421.357L166.27 410.254H152.18L149.151 421.357C149.099 421.514 148.995 421.648 148.856 421.735C148.638 421.872 148.396 421.966 148.144 422.011C147.74 422.095 147.331 422.148 146.92 422.169C146.424 422.209 145.804 422.224 145.068 422.224C144.332 422.224 143.697 422.225 143.217 422.169C142.841 422.151 142.468 422.098 142.101 422.011C141.894 421.973 141.702 421.877 141.544 421.735C141.497 421.686 141.467 421.622 141.458 421.555C141.448 421.487 141.459 421.418 141.489 421.357L148.624 395.42C148.639 395.341 148.67 395.265 148.716 395.199C148.761 395.132 148.82 395.076 148.887 395.034C149.101 394.898 149.337 394.804 149.585 394.757C149.989 394.677 150.397 394.624 150.809 394.6C151.312 394.6 151.932 394.552 152.675 394.552C153.419 394.552 154.023 394.552 154.504 394.6C154.887 394.621 155.267 394.674 155.642 394.757C155.846 394.794 156.034 394.89 156.185 395.034C156.226 395.088 156.254 395.151 156.266 395.218C156.278 395.286 156.274 395.355 156.254 395.42L153.489 405.504H167.611L170.353 395.42C170.403 395.262 170.504 395.126 170.639 395.034C170.855 394.897 171.094 394.803 171.344 394.757C171.746 394.677 172.152 394.624 172.561 394.6C173.072 394.6 173.692 394.552 174.428 394.552C175.163 394.552 175.775 394.552 176.263 394.6C176.646 394.622 177.027 394.675 177.402 394.757C177.604 394.792 177.79 394.888 177.937 395.034C177.98 395.087 178.009 395.15 178.021 395.218C178.033 395.285 178.028 395.355 178.006 395.42L170.872 421.357Z" fill="#EFEDD3"/>
<path d="M186.806 421.357C186.755 421.514 186.651 421.648 186.512 421.735C186.294 421.873 186.052 421.967 185.799 422.011C185.391 422.096 184.976 422.149 184.56 422.169C184.056 422.209 183.437 422.224 182.701 422.224C181.965 422.224 181.33 422.225 180.849 422.169C180.471 422.151 180.095 422.098 179.726 422.011C179.521 421.975 179.33 421.879 179.176 421.735C179.13 421.686 179.099 421.623 179.088 421.556C179.076 421.488 179.086 421.419 179.114 421.357L186.256 395.42C186.272 395.34 186.304 395.264 186.351 395.197C186.398 395.13 186.458 395.075 186.528 395.034C186.753 394.9 186.999 394.806 187.256 394.757C187.66 394.678 188.069 394.626 188.48 394.6C188.975 394.6 189.595 394.552 190.331 394.552C191.067 394.552 191.671 394.552 192.152 394.6C192.534 394.624 192.915 394.676 193.29 394.757C193.497 394.79 193.689 394.887 193.84 395.034C193.882 395.088 193.909 395.151 193.922 395.218C193.934 395.286 193.93 395.355 193.91 395.42L186.806 421.357Z" fill="#EFEDD3"/>
<path d="M226.243 420.149C226.165 420.471 226.011 420.769 225.794 421.017C225.573 421.271 225.311 421.484 225.019 421.649C224.711 421.827 224.376 421.952 224.028 422.019C223.659 422.1 223.282 422.14 222.905 422.138H219.643C219.066 422.15 218.49 422.1 217.924 421.988C217.507 421.903 217.115 421.722 216.777 421.459C216.431 421.171 216.139 420.821 215.917 420.426C215.62 419.885 215.362 419.323 215.143 418.745L209.573 406.499C209.147 405.552 208.759 404.597 208.395 403.642C208.031 402.688 207.69 401.725 207.365 400.778H207.303C207.109 401.891 206.885 402.995 206.637 404.076C206.389 405.157 206.102 406.238 205.793 407.327L201.919 421.333C201.875 421.487 201.779 421.621 201.648 421.712C201.45 421.85 201.226 421.944 200.99 421.988C200.616 422.065 200.239 422.118 199.859 422.146C199.402 422.185 198.836 422.209 198.155 422.209C197.473 422.209 196.923 422.209 196.481 422.146C196.144 422.117 195.81 422.059 195.482 421.972C195.302 421.938 195.141 421.84 195.025 421.696C194.994 421.638 194.979 421.573 194.979 421.507C194.979 421.441 194.994 421.375 195.025 421.317L201.811 396.651C201.893 396.33 202.042 396.031 202.248 395.773C202.454 395.516 202.712 395.307 203.004 395.16C203.654 394.823 204.374 394.652 205.103 394.663H209.093C209.647 394.651 210.2 394.704 210.743 394.821C211.159 394.908 211.554 395.08 211.905 395.326C212.237 395.571 212.523 395.876 212.749 396.225C213.021 396.654 213.252 397.109 213.438 397.582L219.055 409.939C219.426 410.728 219.759 411.517 220.062 412.306C220.364 413.095 220.674 413.884 221.007 414.673H221.069C221.278 413.663 221.518 412.614 221.781 411.517C222.045 410.42 222.308 409.387 222.556 408.361L226.197 395.42C226.239 395.271 226.329 395.141 226.452 395.049C226.643 394.921 226.856 394.833 227.08 394.789C227.44 394.716 227.805 394.668 228.172 394.647C228.621 394.647 229.179 394.592 229.861 394.592C230.543 394.592 231.108 394.592 231.55 394.647C231.894 394.663 232.236 394.711 232.572 394.789C232.75 394.824 232.913 394.915 233.037 395.049C233.076 395.101 233.102 395.162 233.113 395.227C233.124 395.292 233.119 395.358 233.099 395.42L226.243 420.149Z" fill="#EFEDD3"/>
<path d="M273.978 420.717C273.803 421.018 273.578 421.286 273.312 421.507C273.008 421.733 272.659 421.887 272.289 421.956C271.756 422.072 271.214 422.135 270.67 422.146C270.019 422.146 269.198 422.193 268.214 422.193C267.231 422.193 266.316 422.193 265.666 422.146C265.145 422.138 264.626 422.08 264.116 421.972C263.819 421.928 263.545 421.78 263.342 421.554C263.199 421.342 263.119 421.093 263.109 420.836L261.831 403.303H261.777L251.319 420.717C251.15 421.011 250.939 421.277 250.692 421.507C250.438 421.727 250.135 421.881 249.809 421.956C249.301 422.078 248.781 422.142 248.259 422.146C247.616 422.146 246.795 422.193 245.788 422.193C244.619 422.193 243.689 422.193 242.992 422.146C242.447 422.142 241.904 422.078 241.373 421.956C241.064 421.912 240.786 421.744 240.598 421.491C240.46 421.223 240.386 420.925 240.381 420.623L238.344 396.509C238.318 396.148 238.331 395.786 238.383 395.428C238.406 395.294 238.463 395.168 238.549 395.063C238.635 394.958 238.745 394.877 238.871 394.828C239.255 394.668 239.664 394.58 240.079 394.568C240.596 394.537 241.347 394.521 242.333 394.521C243.108 394.521 243.797 394.521 244.34 394.568C244.748 394.584 245.154 394.647 245.548 394.757C245.651 394.782 245.748 394.827 245.834 394.891C245.919 394.954 245.991 395.035 246.044 395.128C246.122 395.324 246.159 395.533 246.152 395.744L246.927 416.662H246.989L259.716 395.767C259.852 395.525 260.024 395.307 260.228 395.12C260.453 394.933 260.718 394.803 261.002 394.742C261.426 394.637 261.86 394.576 262.296 394.56C262.831 394.56 263.551 394.521 264.442 394.521C265.333 394.521 266.045 394.521 266.564 394.56C266.968 394.569 267.369 394.63 267.757 394.742C267.867 394.763 267.971 394.809 268.062 394.876C268.153 394.943 268.229 395.029 268.284 395.128C268.37 395.345 268.419 395.574 268.431 395.807L269.888 416.662H269.95L282.344 395.515C282.441 395.324 282.575 395.154 282.739 395.018C282.956 394.861 283.205 394.756 283.467 394.71C283.894 394.627 284.327 394.577 284.761 394.56C285.311 394.56 286.008 394.521 286.86 394.521C287.712 394.521 288.347 394.521 288.828 394.592C289.175 394.596 289.514 394.703 289.804 394.9C289.89 394.988 289.945 395.104 289.961 395.228C289.976 395.352 289.951 395.478 289.889 395.586C289.718 396.002 289.513 396.404 289.277 396.785L273.978 420.717Z" fill="#EFEDD3"/>
<path d="M321.571 411.99C321.12 413.665 320.346 415.232 319.294 416.598C318.224 417.947 316.909 419.072 315.421 419.913C313.77 420.849 311.988 421.525 310.138 421.917C307.967 422.377 305.755 422.599 303.538 422.58C301.319 422.617 299.103 422.387 296.938 421.893C295.354 421.555 293.865 420.856 292.584 419.849C291.538 418.986 290.809 417.787 290.516 416.449C290.218 414.871 290.319 413.241 290.81 411.714L295.295 395.436C295.343 395.281 295.442 395.147 295.574 395.057C295.785 394.916 296.022 394.822 296.271 394.781C296.675 394.698 297.084 394.643 297.495 394.615C297.991 394.568 298.619 394.552 299.37 394.552C300.121 394.552 300.726 394.552 301.206 394.615C301.589 394.639 301.97 394.694 302.345 394.781C302.546 394.815 302.733 394.912 302.879 395.057C302.924 395.108 302.954 395.17 302.968 395.236C302.981 395.303 302.978 395.371 302.957 395.436L298.471 411.714C298.176 412.621 298.085 413.584 298.208 414.531C298.316 415.274 298.659 415.961 299.184 416.488C299.769 417.048 300.487 417.442 301.268 417.632C302.295 417.901 303.353 418.026 304.413 418.003C305.574 418.014 306.733 417.876 307.86 417.593C308.855 417.345 309.804 416.938 310.672 416.385C311.474 415.869 312.179 415.212 312.756 414.444C313.336 413.666 313.765 412.783 314.019 411.84L318.535 395.436C318.583 395.281 318.681 395.147 318.814 395.057C319.016 394.922 319.242 394.828 319.48 394.781C319.878 394.697 320.282 394.641 320.688 394.615C321.2 394.568 321.819 394.552 322.555 394.552C323.291 394.552 323.895 394.552 324.36 394.615C324.733 394.64 325.104 394.696 325.468 394.781C325.671 394.817 325.86 394.913 326.01 395.057C326.052 395.109 326.08 395.171 326.092 395.238C326.105 395.304 326.1 395.372 326.08 395.436L321.571 411.99Z" fill="#EFEDD3"/>
<path d="M358.414 420.149C358.335 420.473 358.178 420.772 357.957 421.017C357.736 421.271 357.474 421.485 357.182 421.649C356.873 421.825 356.538 421.951 356.19 422.019C355.821 422.099 355.445 422.139 355.067 422.138H351.806C351.229 422.15 350.653 422.1 350.086 421.988C349.669 421.903 349.277 421.722 348.94 421.459C348.589 421.175 348.297 420.824 348.08 420.425C347.783 419.885 347.524 419.323 347.305 418.745L341.743 406.499C341.317 405.552 340.922 404.597 340.566 403.642C340.209 402.687 339.861 401.725 339.528 400.778H339.473C339.28 401.891 339.055 402.995 338.8 404.076C338.544 405.157 338.265 406.238 337.955 407.327L334.082 421.333C334.034 421.488 333.936 421.622 333.803 421.712C333.608 421.85 333.386 421.944 333.152 421.988C332.782 422.07 332.407 422.128 332.029 422.161C331.572 422.201 331.007 422.225 330.325 422.225C329.643 422.225 329.085 422.225 328.652 422.161C328.312 422.133 327.975 422.075 327.645 421.988C327.468 421.952 327.309 421.854 327.195 421.712C327.163 421.654 327.146 421.589 327.146 421.522C327.146 421.456 327.163 421.39 327.195 421.333L333.981 396.667C334.063 396.346 334.212 396.046 334.418 395.789C334.624 395.532 334.882 395.322 335.174 395.176C335.824 394.838 336.544 394.667 337.273 394.679H341.263C341.814 394.667 342.366 394.72 342.905 394.836C343.324 394.924 343.722 395.095 344.075 395.341C344.405 395.589 344.691 395.893 344.919 396.241C345.191 396.668 345.42 397.123 345.601 397.598L351.225 409.955C351.589 410.744 351.93 411.533 352.232 412.322C352.534 413.111 352.844 413.9 353.177 414.689H353.239C353.456 413.679 353.696 412.63 353.952 411.533C354.207 410.436 354.486 409.402 354.726 408.377L358.305 395.452C358.351 395.302 358.443 395.172 358.569 395.081C358.759 394.953 358.972 394.864 359.196 394.821C359.556 394.747 359.921 394.699 360.288 394.679C360.738 394.679 361.295 394.623 361.977 394.623C362.659 394.623 363.216 394.623 363.666 394.679C364.01 394.695 364.352 394.742 364.688 394.821C364.866 394.855 365.029 394.946 365.153 395.081C365.191 395.134 365.216 395.195 365.225 395.26C365.235 395.324 365.228 395.39 365.207 395.452L358.414 420.149Z" fill="#EFEDD3"/>
<path d="M192.833 345.126C192.818 345.48 192.755 345.83 192.648 346.167C192.558 346.54 192.403 346.892 192.19 347.209C192.128 347.323 192.039 347.42 191.93 347.49C191.822 347.56 191.699 347.602 191.571 347.611C191.358 347.591 191.154 347.512 190.982 347.383C190.697 347.192 190.396 347.025 190.083 346.885C189.629 346.679 189.157 346.515 188.674 346.396C187.976 346.227 187.26 346.15 186.543 346.167C184.878 346.147 183.249 346.67 181.895 347.659C181.294 348.109 180.754 348.64 180.292 349.237C179.848 349.796 179.469 350.405 179.161 351.052C178.872 351.651 178.649 352.281 178.495 352.93C178.355 353.5 178.283 354.086 178.278 354.673C178.263 355.26 178.377 355.842 178.611 356.378C178.825 356.861 179.155 357.282 179.571 357.601C180.037 357.943 180.563 358.189 181.121 358.327C181.795 358.495 182.487 358.577 183.181 358.571C183.961 358.584 184.74 358.513 185.505 358.358C186.063 358.245 186.611 358.092 187.148 357.901C187.597 357.735 187.969 357.585 188.271 357.443C188.513 357.323 188.776 357.253 189.045 357.238C189.109 357.228 189.173 357.236 189.233 357.259C189.293 357.283 189.346 357.322 189.386 357.372C189.448 357.482 189.478 357.608 189.471 357.735C189.479 357.832 189.479 357.93 189.471 358.027C189.471 358.161 189.41 358.303 189.371 358.461C189.332 358.619 189.293 358.8 189.239 358.99C189.194 359.17 189.137 359.346 189.069 359.518C189.009 359.672 188.936 359.819 188.852 359.96C188.764 360.099 188.651 360.219 188.519 360.315C188.26 360.477 187.985 360.609 187.698 360.71C187.214 360.898 186.716 361.048 186.21 361.16C185.556 361.314 184.894 361.432 184.227 361.515C183.444 361.619 182.654 361.669 181.864 361.665C180.604 361.678 179.345 361.543 178.115 361.262C177.106 361.036 176.148 360.622 175.288 360.039C174.533 359.515 173.916 358.811 173.49 357.988C173.055 357.091 172.84 356.1 172.863 355.1C172.871 354.193 172.993 353.291 173.227 352.417C173.475 351.464 173.844 350.549 174.327 349.695C174.837 348.777 175.459 347.928 176.179 347.17C176.965 346.347 177.862 345.643 178.843 345.079C179.941 344.455 181.112 343.978 182.329 343.658C183.746 343.29 185.205 343.112 186.667 343.13C187.513 343.127 188.358 343.196 189.193 343.335C189.899 343.444 190.594 343.621 191.269 343.863C191.706 344.01 192.123 344.214 192.508 344.471C192.61 344.545 192.693 344.643 192.75 344.758C192.807 344.872 192.835 344.998 192.833 345.126Z" fill="#EFEDD3"/>
<path d="M211.533 360.852C211.498 360.956 211.43 361.045 211.339 361.104C211.2 361.194 211.045 361.255 210.882 361.286C210.627 361.339 210.368 361.373 210.108 361.389C209.775 361.389 209.372 361.389 208.884 361.389C208.396 361.389 208.001 361.389 207.683 361.389C207.438 361.377 207.194 361.342 206.955 361.286C206.822 361.261 206.698 361.198 206.599 361.104C206.568 361.071 206.548 361.029 206.541 360.984C206.534 360.939 206.541 360.893 206.56 360.852L208.543 353.585H199.294L197.311 360.852C197.279 360.957 197.21 361.047 197.117 361.104C196.974 361.194 196.817 361.255 196.652 361.286C196.396 361.338 196.138 361.372 195.877 361.389C195.552 361.389 195.149 361.389 194.669 361.389C194.189 361.389 193.763 361.389 193.453 361.389C193.205 361.375 192.959 361.341 192.717 361.286C192.585 361.258 192.462 361.196 192.361 361.104C192.336 361.067 192.323 361.023 192.323 360.978C192.323 360.933 192.336 360.889 192.361 360.852L197.008 343.879C197.017 343.827 197.036 343.777 197.066 343.733C197.095 343.69 197.134 343.653 197.179 343.627C197.319 343.539 197.474 343.477 197.636 343.445C197.891 343.393 198.15 343.358 198.411 343.343C198.744 343.343 199.146 343.343 199.634 343.343C200.122 343.343 200.518 343.343 200.835 343.343C201.096 343.354 201.355 343.388 201.61 343.445C201.742 343.468 201.863 343.531 201.958 343.627C201.988 343.66 202.009 343.702 202.017 343.746C202.025 343.791 202.021 343.837 202.005 343.879L200.2 350.476H209.442L211.239 343.879C211.268 343.775 211.334 343.685 211.425 343.627C211.565 343.539 211.72 343.477 211.882 343.445C212.137 343.393 212.396 343.359 212.656 343.343C212.982 343.343 213.392 343.343 213.872 343.343C214.353 343.343 214.756 343.343 215.073 343.343C215.334 343.354 215.593 343.388 215.848 343.445C215.981 343.471 216.105 343.533 216.204 343.627C216.231 343.662 216.249 343.704 216.257 343.747C216.265 343.791 216.263 343.836 216.251 343.879L211.533 360.852Z" fill="#EFEDD3"/>
<path d="M236.012 343.918C236.019 344.016 236.019 344.113 236.012 344.21C235.991 344.367 235.963 344.522 235.927 344.676C235.887 344.856 235.835 345.032 235.772 345.205C235.713 345.384 235.635 345.556 235.539 345.717C235.446 345.864 235.328 345.992 235.191 346.096C235.069 346.194 234.919 346.247 234.765 346.246H225.926L224.71 350.633H232.177C232.246 350.626 232.316 350.635 232.381 350.658C232.447 350.681 232.507 350.718 232.557 350.767C232.641 350.88 232.682 351.02 232.673 351.162C232.681 351.259 232.681 351.357 232.673 351.454C232.653 351.608 232.625 351.761 232.588 351.911C232.553 352.089 232.504 352.263 232.441 352.432C232.376 352.603 232.296 352.767 232.2 352.921C232.114 353.062 232.001 353.182 231.867 353.277C231.746 353.368 231.6 353.417 231.449 353.419H223.997L222.579 358.484H231.503C231.567 358.479 231.631 358.489 231.691 358.513C231.75 358.538 231.802 358.577 231.844 358.626C231.93 358.75 231.971 358.901 231.96 359.052C231.96 359.116 231.96 359.218 231.96 359.352C231.941 359.509 231.913 359.665 231.875 359.818C231.829 359.991 231.774 360.165 231.712 360.339C231.645 360.51 231.565 360.676 231.472 360.836C231.384 360.976 231.271 361.099 231.139 361.199C231.011 361.294 230.856 361.344 230.698 361.341H218.303C218.116 361.341 217.928 361.32 217.746 361.278C217.593 361.244 217.451 361.171 217.335 361.065C217.229 360.971 217.153 360.848 217.118 360.709C217.073 360.539 217.073 360.359 217.118 360.189L221.425 344.542C221.47 344.353 221.554 344.177 221.671 344.024C221.789 343.872 221.937 343.747 222.107 343.658C222.463 343.48 222.856 343.388 223.253 343.39H235.493C235.849 343.39 236.012 343.563 236.012 343.918Z" fill="#EFEDD3"/>
<path d="M256.083 345.126C256.067 345.479 256.007 345.829 255.905 346.167C255.812 346.538 255.657 346.891 255.448 347.209C255.385 347.323 255.296 347.42 255.188 347.49C255.08 347.56 254.956 347.602 254.828 347.611C254.614 347.594 254.41 347.515 254.239 347.383C253.952 347.195 253.652 347.029 253.341 346.885C252.226 346.379 251.013 346.133 249.793 346.167C248.127 346.147 246.498 346.669 245.145 347.659C244.541 348.107 244.002 348.638 243.542 349.237C243.096 349.796 242.714 350.405 242.403 351.052C242.117 351.652 241.894 352.282 241.737 352.93C241.601 353.501 241.528 354.086 241.52 354.673C241.505 355.26 241.619 355.842 241.853 356.378C242.069 356.86 242.399 357.28 242.813 357.601C243.279 357.942 243.805 358.188 244.363 358.327C245.037 358.496 245.729 358.578 246.423 358.571C247.203 358.585 247.982 358.513 248.747 358.358C249.305 358.246 249.853 358.093 250.389 357.901C250.839 357.735 251.218 357.585 251.513 357.443C251.755 357.324 252.018 357.254 252.287 357.238C252.349 357.228 252.413 357.236 252.472 357.259C252.53 357.283 252.581 357.322 252.62 357.372C252.682 357.482 252.712 357.608 252.706 357.735C252.7 357.833 252.687 357.931 252.667 358.027C252.667 358.161 252.613 358.303 252.574 358.461C252.535 358.619 252.489 358.8 252.442 358.99C252.395 359.17 252.335 359.346 252.264 359.518C252.207 359.673 252.135 359.821 252.047 359.96C251.959 360.099 251.846 360.219 251.714 360.315C251.456 360.479 251.181 360.611 250.893 360.71C250.41 360.9 249.912 361.05 249.406 361.16C248.751 361.315 248.089 361.434 247.422 361.515C246.639 361.619 245.85 361.669 245.06 361.665C243.802 361.679 242.546 361.544 241.318 361.262C240.307 361.038 239.345 360.623 238.483 360.039C237.729 359.517 237.114 358.812 236.694 357.988C236.258 357.091 236.043 356.1 236.066 355.1C236.071 354.193 236.191 353.292 236.423 352.417C236.677 351.466 237.046 350.552 237.522 349.695C238.033 348.775 238.658 347.926 239.382 347.17C240.165 346.347 241.06 345.643 242.039 345.079C243.139 344.455 244.313 343.978 245.532 343.658C246.947 343.29 248.403 343.112 249.863 343.13C250.709 343.127 251.553 343.196 252.388 343.335C253.097 343.445 253.795 343.622 254.472 343.863C254.908 344.013 255.324 344.217 255.711 344.471C255.82 344.542 255.91 344.639 255.975 344.753C256.039 344.867 256.077 344.994 256.083 345.126Z" fill="#EFEDD3"/>
<path d="M277.82 343.887C277.807 344.089 277.718 344.278 277.572 344.416C277.332 344.676 277.073 344.919 276.798 345.142L268.029 351.864L273.219 359.865C273.302 360.022 273.377 360.182 273.443 360.347C273.493 360.464 273.519 360.59 273.521 360.717C273.523 360.777 273.513 360.837 273.491 360.892C273.47 360.948 273.438 360.998 273.397 361.041C273.275 361.148 273.128 361.221 272.971 361.254C272.699 361.322 272.422 361.365 272.142 361.38C271.786 361.38 271.367 361.42 270.81 361.42C270.252 361.42 269.849 361.42 269.516 361.42C269.256 361.406 268.997 361.372 268.741 361.317C268.588 361.287 268.445 361.219 268.323 361.12C268.236 361.036 268.165 360.937 268.114 360.828L262.893 352.33L260.569 360.867C260.539 360.976 260.469 361.069 260.375 361.128C260.231 361.213 260.074 361.275 259.91 361.309C259.655 361.364 259.396 361.401 259.136 361.42C258.81 361.42 258.407 361.42 257.919 361.42C257.431 361.42 257.021 361.42 256.711 361.42C256.463 361.405 256.217 361.368 255.975 361.309C255.843 361.281 255.72 361.219 255.619 361.128C255.586 361.094 255.564 361.051 255.557 361.004C255.55 360.957 255.558 360.909 255.58 360.867L260.228 343.911C260.236 343.857 260.256 343.807 260.285 343.762C260.315 343.717 260.353 343.679 260.398 343.65C260.544 343.564 260.704 343.505 260.871 343.477C261.126 343.424 261.385 343.39 261.646 343.374C261.971 343.374 262.42 343.374 262.877 343.374C263.334 343.374 263.753 343.374 264.07 343.374C264.315 343.387 264.559 343.421 264.798 343.477C264.933 343.501 265.058 343.561 265.162 343.65C265.194 343.685 265.215 343.727 265.225 343.773C265.234 343.819 265.231 343.866 265.217 343.911L263.125 351.58L272.274 343.966C272.399 343.853 272.537 343.755 272.684 343.674C272.859 343.578 273.047 343.512 273.242 343.477C273.521 343.425 273.803 343.39 274.086 343.374C274.412 343.374 274.861 343.374 275.326 343.374C275.791 343.374 276.248 343.374 276.573 343.374C276.834 343.387 277.093 343.424 277.348 343.484C277.485 343.512 277.613 343.575 277.719 343.666C277.778 343.725 277.813 343.803 277.82 343.887Z" fill="#EFEDD3"/>
<path d="M290.764 360.852C290.727 360.955 290.659 361.043 290.571 361.104C290.428 361.194 290.27 361.255 290.106 361.286C289.837 361.34 289.566 361.374 289.292 361.389C288.959 361.389 288.556 361.389 288.076 361.389C287.596 361.389 287.178 361.389 286.86 361.389C286.615 361.375 286.371 361.341 286.132 361.286C285.997 361.259 285.871 361.197 285.768 361.104C285.743 361.067 285.73 361.023 285.73 360.978C285.73 360.933 285.743 360.889 285.768 360.852L290.416 343.879C290.426 343.827 290.447 343.777 290.477 343.733C290.508 343.69 290.548 343.653 290.594 343.627C290.743 343.54 290.905 343.478 291.074 343.445C291.33 343.393 291.589 343.359 291.849 343.343C292.174 343.343 292.577 343.343 293.057 343.343C293.537 343.343 293.94 343.343 294.25 343.343C294.511 343.355 294.77 343.389 295.025 343.445C295.161 343.467 295.288 343.53 295.389 343.627C295.416 343.662 295.434 343.704 295.442 343.747C295.45 343.791 295.448 343.836 295.435 343.879L290.764 360.852Z" fill="#EFEDD3"/>
<path d="M317.11 343.974C317.11 344.037 317.11 344.139 317.11 344.289C317.11 344.439 317.056 344.589 317.017 344.763C316.97 344.951 316.91 345.135 316.839 345.315C316.775 345.496 316.695 345.67 316.599 345.836C316.504 345.983 316.386 346.113 316.25 346.223C316.129 346.32 315.979 346.373 315.824 346.372H309.627L305.661 360.836C305.617 360.939 305.544 361.027 305.452 361.088C305.309 361.178 305.152 361.239 304.987 361.27C304.732 361.325 304.473 361.362 304.212 361.38C303.895 361.38 303.484 361.42 302.989 361.42C302.493 361.42 302.105 361.42 301.788 361.38C301.54 361.366 301.293 361.33 301.052 361.27C300.923 361.245 300.804 361.182 300.711 361.088C300.682 361.054 300.662 361.013 300.652 360.969C300.643 360.925 300.644 360.879 300.657 360.836L304.561 346.396H298.426C298.353 346.405 298.279 346.396 298.21 346.37C298.142 346.344 298.08 346.302 298.031 346.246C297.957 346.12 297.922 345.975 297.93 345.828C297.922 345.72 297.922 345.612 297.93 345.505C297.95 345.339 297.981 345.176 298.023 345.015C298.07 344.828 298.127 344.644 298.193 344.463C298.26 344.28 298.346 344.106 298.449 343.942C298.54 343.794 298.659 343.666 298.798 343.563C298.915 343.465 299.064 343.411 299.216 343.414H316.599C316.666 343.411 316.732 343.422 316.794 343.448C316.855 343.474 316.91 343.514 316.955 343.563C317.048 343.68 317.103 343.824 317.11 343.974Z" fill="#EFEDD3"/>
<path d="M30.2109 108.89L165.666 264.792L168.098 277.748" stroke="#010000" stroke-width="4" stroke-miterlimit="10"/>
<path d="M36.4082 310.1L85.211 352.709" stroke="#010000" stroke-width="4" stroke-miterlimit="10"/>
<path d="M36.4082 416.78L83.6617 455.286" stroke="#010000" stroke-width="4" stroke-miterlimit="10"/>
<path d="M36.4082 469.489L85.211 490.794" stroke="#010000" stroke-width="4" stroke-miterlimit="10"/>
<path d="M36.4082 97.9458C60.4223 109.679 388.098 266.701 388.098 266.701V281.694" stroke="black" stroke-width="4" stroke-miterlimit="10"/>
</g>
<defs>
<clipPath id="clip0_20_4101">
<rect width="550" height="1197" fill="white"/>
</clipPath>
</defs>
</svg>
