<svg width="809" height="740" viewBox="0 0 809 740" fill="none" xmlns="http://www.w3.org/2000/svg">
<rect x="88.5" y="0.5" width="10" height="323.481" fill="#831C1C" stroke="black"/>
<rect x="692.5" y="0.5" width="10" height="334" fill="#831C1C" stroke="black"/>
<path d="M753.748 297.657H55.0983C25.2784 297.657 1.10449 321.831 1.10449 351.651V685.191C1.10449 715.011 25.2784 739.185 55.0983 739.185H753.748C783.568 739.185 807.742 715.011 807.742 685.191V351.651C807.742 321.831 783.568 297.657 753.748 297.657Z" fill="#8A2A00" stroke="black" stroke-miterlimit="10"/>
<path d="M745.682 302.072H63.1647C33.3448 302.072 9.1709 326.246 9.1709 356.066V680.776C9.1709 710.596 33.3448 734.77 63.1647 734.77H745.682C775.502 734.77 799.676 710.596 799.676 680.776V356.066C799.676 326.246 775.502 302.072 745.682 302.072Z" fill="#F7A859" stroke="black" stroke-miterlimit="10"/>
<path d="M737.778 306.403H71.0708C41.2508 306.403 17.0771 330.577 17.0771 360.397V676.455C17.0771 706.275 41.2508 730.448 71.0708 730.448H737.778C767.598 730.448 791.772 706.275 791.772 676.455V360.397C791.772 330.577 767.598 306.403 737.778 306.403Z" fill="#B54414" stroke="black" stroke-miterlimit="10"/>
<path d="M735.323 344.868H73.5241C53.9037 344.868 37.998 360.773 37.998 380.394V644.563C37.998 664.184 53.9037 680.089 73.5241 680.089H735.323C754.944 680.089 770.849 664.184 770.849 644.563V380.394C770.849 360.773 754.944 344.868 735.323 344.868Z" fill="#D64D0C" stroke="black" stroke-miterlimit="10"/>
<path d="M717.873 352.849H90.9714C71.3509 352.849 55.4453 368.754 55.4453 388.375V636.581C55.4453 656.202 71.3509 672.107 90.9714 672.107H717.873C737.493 672.107 753.399 656.202 753.399 636.581V388.375C753.399 368.754 737.493 352.849 717.873 352.849Z" fill="#D9D0A9" stroke="black" stroke-miterlimit="10"/>
<path d="M716.311 371.529H92.5339C81.6873 371.529 72.8945 380.322 72.8945 391.168V634.637C72.8945 645.484 81.6873 654.276 92.5339 654.276H716.311C727.158 654.276 735.95 645.484 735.95 634.637V391.168C735.95 380.322 727.158 371.529 716.311 371.529Z" fill="#F3E7D2"/>
<path d="M62.4175 340.044C66.9709 340.044 70.6622 336.353 70.6622 331.799C70.6622 327.246 66.9709 323.555 62.4175 323.555C57.8641 323.555 54.1729 327.246 54.1729 331.799C54.1729 336.353 57.8641 340.044 62.4175 340.044Z" fill="#494949"/>
<path d="M63.0884 338.838C67.0744 338.838 70.3057 335.607 70.3057 331.621C70.3057 327.635 67.0744 324.404 63.0884 324.404C59.1024 324.404 55.8711 327.635 55.8711 331.621C55.8711 335.607 59.1024 338.838 63.0884 338.838Z" fill="#F5F3D9"/>
<path d="M96.3814 340.044C100.935 340.044 104.626 336.353 104.626 331.799C104.626 327.246 100.935 323.555 96.3814 323.555C91.828 323.555 88.1367 327.246 88.1367 331.799C88.1367 336.353 91.828 340.044 96.3814 340.044Z" fill="#494949"/>
<path d="M97.0522 338.838C101.038 338.838 104.27 335.607 104.27 331.621C104.27 327.635 101.038 324.404 97.0522 324.404C93.0662 324.404 89.835 327.635 89.835 331.621C89.835 335.607 93.0662 338.838 97.0522 338.838Z" fill="#F5F3D9"/>
<path d="M132.043 340.044C136.597 340.044 140.288 336.353 140.288 331.799C140.288 327.246 136.597 323.555 132.043 323.555C127.49 323.555 123.799 327.246 123.799 331.799C123.799 336.353 127.49 340.044 132.043 340.044Z" fill="#494949"/>
<path d="M132.714 338.838C136.7 338.838 139.932 335.607 139.932 331.621C139.932 327.635 136.7 324.404 132.714 324.404C128.728 324.404 125.497 327.635 125.497 331.621C125.497 335.607 128.728 338.838 132.714 338.838Z" fill="#F5F3D9"/>
<path d="M162.61 339.195C167.163 339.195 170.855 335.504 170.855 330.95C170.855 326.397 167.163 322.706 162.61 322.706C158.056 322.706 154.365 326.397 154.365 330.95C154.365 335.504 158.056 339.195 162.61 339.195Z" fill="#494949"/>
<path d="M163.281 337.989C167.267 337.989 170.498 334.758 170.498 330.772C170.498 326.786 167.267 323.555 163.281 323.555C159.295 323.555 156.063 326.786 156.063 330.772C156.063 334.758 159.295 337.989 163.281 337.989Z" fill="#F5F3D9"/>
<path d="M196.574 339.195C201.127 339.195 204.818 335.504 204.818 330.95C204.818 326.397 201.127 322.706 196.574 322.706C192.02 322.706 188.329 326.397 188.329 330.95C188.329 335.504 192.02 339.195 196.574 339.195Z" fill="#494949"/>
<path d="M197.245 337.989C201.231 337.989 204.462 334.758 204.462 330.772C204.462 326.786 201.231 323.555 197.245 323.555C193.259 323.555 190.027 326.786 190.027 330.772C190.027 334.758 193.259 337.989 197.245 337.989Z" fill="#F5F3D9"/>
<path d="M265.351 339.195C269.905 339.195 273.596 335.504 273.596 330.95C273.596 326.397 269.905 322.706 265.351 322.706C260.798 322.706 257.106 326.397 257.106 330.95C257.106 335.504 260.798 339.195 265.351 339.195Z" fill="#494949"/>
<path d="M266.022 337.989C270.008 337.989 273.239 334.758 273.239 330.772C273.239 326.786 270.008 323.555 266.022 323.555C262.036 323.555 258.805 326.786 258.805 330.772C258.805 334.758 262.036 337.989 266.022 337.989Z" fill="#F5F3D9"/>
<path d="M299.314 340.044C303.867 340.044 307.559 336.353 307.559 331.799C307.559 327.246 303.867 323.555 299.314 323.555C294.761 323.555 291.069 327.246 291.069 331.799C291.069 336.353 294.761 340.044 299.314 340.044Z" fill="#494949"/>
<path d="M299.985 338.838C303.971 338.838 307.202 335.607 307.202 331.621C307.202 327.635 303.971 324.404 299.985 324.404C295.999 324.404 292.768 327.635 292.768 331.621C292.768 335.607 295.999 338.838 299.985 338.838Z" fill="#F5F3D9"/>
<path d="M366.393 339.195C370.947 339.195 374.638 335.504 374.638 330.95C374.638 326.397 370.947 322.706 366.393 322.706C361.84 322.706 358.148 326.397 358.148 330.95C358.148 335.504 361.84 339.195 366.393 339.195Z" fill="#494949"/>
<path d="M367.064 337.989C371.05 337.989 374.281 334.758 374.281 330.772C374.281 326.786 371.05 323.555 367.064 323.555C363.078 323.555 359.847 326.786 359.847 330.772C359.847 334.758 363.078 337.989 367.064 337.989Z" fill="#F5F3D9"/>
<path d="M399.507 339.195C404.061 339.195 407.752 335.504 407.752 330.95C407.752 326.397 404.061 322.706 399.507 322.706C394.954 322.706 391.263 326.397 391.263 330.95C391.263 335.504 394.954 339.195 399.507 339.195Z" fill="#494949"/>
<path d="M400.177 337.989C404.163 337.989 407.395 334.758 407.395 330.772C407.395 326.786 404.163 323.555 400.177 323.555C396.191 323.555 392.96 326.786 392.96 330.772C392.96 334.758 396.191 337.989 400.177 337.989Z" fill="#F5F3D9"/>
<path d="M435.169 339.195C439.723 339.195 443.414 335.504 443.414 330.95C443.414 326.397 439.723 322.706 435.169 322.706C430.616 322.706 426.925 326.397 426.925 330.95C426.925 335.504 430.616 339.195 435.169 339.195Z" fill="#494949"/>
<path d="M435.84 337.989C439.826 337.989 443.058 334.758 443.058 330.772C443.058 326.786 439.826 323.555 435.84 323.555C431.854 323.555 428.623 326.786 428.623 330.772C428.623 334.758 431.854 337.989 435.84 337.989Z" fill="#F5F3D9"/>
<path d="M466.585 338.346C471.139 338.346 474.83 334.655 474.83 330.101C474.83 325.548 471.139 321.856 466.585 321.856C462.032 321.856 458.341 325.548 458.341 330.101C458.341 334.655 462.032 338.346 466.585 338.346Z" fill="#494949"/>
<path d="M467.256 337.14C471.242 337.14 474.474 333.909 474.474 329.923C474.474 325.937 471.242 322.706 467.256 322.706C463.27 322.706 460.039 325.937 460.039 329.923C460.039 333.909 463.27 337.14 467.256 337.14Z" fill="#F5F3D9"/>
<path d="M502.247 340.044C506.8 340.044 510.491 336.353 510.491 331.799C510.491 327.246 506.8 323.555 502.247 323.555C497.693 323.555 494.002 327.246 494.002 331.799C494.002 336.353 497.693 340.044 502.247 340.044Z" fill="#494949"/>
<path d="M502.917 338.838C506.903 338.838 510.135 335.607 510.135 331.621C510.135 327.635 506.903 324.404 502.917 324.404C498.931 324.404 495.7 327.635 495.7 331.621C495.7 335.607 498.931 338.838 502.917 338.838Z" fill="#F5F3D9"/>
<path d="M534.513 340.044C539.067 340.044 542.758 336.353 542.758 331.799C542.758 327.246 539.067 323.555 534.513 323.555C529.96 323.555 526.269 327.246 526.269 331.799C526.269 336.353 529.96 340.044 534.513 340.044Z" fill="#494949"/>
<path d="M535.184 338.838C539.17 338.838 542.401 335.607 542.401 331.621C542.401 327.635 539.17 324.404 535.184 324.404C531.198 324.404 527.967 327.635 527.967 331.621C527.967 335.607 531.198 338.838 535.184 338.838Z" fill="#F5F3D9"/>
<path d="M568.477 340.044C573.03 340.044 576.722 336.353 576.722 331.799C576.722 327.246 573.03 323.555 568.477 323.555C563.924 323.555 560.232 327.246 560.232 331.799C560.232 336.353 563.924 340.044 568.477 340.044Z" fill="#494949"/>
<path d="M569.147 338.838C573.133 338.838 576.364 335.607 576.364 331.621C576.364 327.635 573.133 324.404 569.147 324.404C565.161 324.404 561.93 327.635 561.93 331.621C561.93 335.607 565.161 338.838 569.147 338.838Z" fill="#F5F3D9"/>
<path d="M600.741 340.893C605.294 340.893 608.985 337.202 608.985 332.649C608.985 328.095 605.294 324.404 600.741 324.404C596.187 324.404 592.496 328.095 592.496 332.649C592.496 337.202 596.187 340.893 600.741 340.893Z" fill="#494949"/>
<path d="M601.412 339.687C605.398 339.687 608.629 336.456 608.629 332.47C608.629 328.484 605.398 325.253 601.412 325.253C597.426 325.253 594.194 328.484 594.194 332.47C594.194 336.456 597.426 339.687 601.412 339.687Z" fill="#F5F3D9"/>
<path d="M634.707 340.044C639.26 340.044 642.951 336.353 642.951 331.799C642.951 327.246 639.26 323.555 634.707 323.555C630.153 323.555 626.462 327.246 626.462 331.799C626.462 336.353 630.153 340.044 634.707 340.044Z" fill="#494949"/>
<path d="M635.376 338.838C639.362 338.838 642.594 335.607 642.594 331.621C642.594 327.635 639.362 324.404 635.376 324.404C631.39 324.404 628.159 327.635 628.159 331.621C628.159 335.607 631.39 338.838 635.376 338.838Z" fill="#F5F3D9"/>
<path d="M667.82 340.044C672.373 340.044 676.064 336.353 676.064 331.799C676.064 327.246 672.373 323.555 667.82 323.555C663.266 323.555 659.575 327.246 659.575 331.799C659.575 336.353 663.266 340.044 667.82 340.044Z" fill="#494949"/>
<path d="M668.492 338.838C672.478 338.838 675.709 335.607 675.709 331.621C675.709 327.635 672.478 324.404 668.492 324.404C664.506 324.404 661.274 327.635 661.274 331.621C661.274 335.607 664.506 338.838 668.492 338.838Z" fill="#F5F3D9"/>
<path d="M704.331 340.044C708.884 340.044 712.575 336.353 712.575 331.799C712.575 327.246 708.884 323.555 704.331 323.555C699.777 323.555 696.086 327.246 696.086 331.799C696.086 336.353 699.777 340.044 704.331 340.044Z" fill="#494949"/>
<path d="M705.002 338.838C708.988 338.838 712.22 335.607 712.22 331.621C712.22 327.635 708.988 324.404 705.002 324.404C701.016 324.404 697.785 327.635 697.785 331.621C697.785 335.607 701.016 338.838 705.002 338.838Z" fill="#F5F3D9"/>
<path d="M769.711 345.987C774.265 345.987 777.956 342.296 777.956 337.743C777.956 333.189 774.265 329.498 769.711 329.498C765.158 329.498 761.467 333.189 761.467 337.743C761.467 342.296 765.158 345.987 769.711 345.987Z" fill="#494949"/>
<path d="M770.382 344.782C774.368 344.782 777.6 341.551 777.6 337.565C777.6 333.579 774.368 330.348 770.382 330.348C766.396 330.348 763.165 333.579 763.165 337.565C763.165 341.551 766.396 344.782 770.382 344.782Z" fill="#F5F3D9"/>
<path d="M779.05 376.555C783.604 376.555 787.295 372.864 787.295 368.311C787.295 363.757 783.604 360.066 779.05 360.066C774.497 360.066 770.806 363.757 770.806 368.311C770.806 372.864 774.497 376.555 779.05 376.555Z" fill="#494949"/>
<path d="M779.722 375.349C783.708 375.349 786.939 372.118 786.939 368.132C786.939 364.146 783.708 360.915 779.722 360.915C775.736 360.915 772.505 364.146 772.505 368.132C772.505 372.118 775.736 375.349 779.722 375.349Z" fill="#F5F3D9"/>
<path d="M779.05 412.217C783.604 412.217 787.295 408.526 787.295 403.973C787.295 399.419 783.604 395.728 779.05 395.728C774.497 395.728 770.806 399.419 770.806 403.973C770.806 408.526 774.497 412.217 779.05 412.217Z" fill="#494949"/>
<path d="M779.722 411.012C783.708 411.012 786.939 407.78 786.939 403.794C786.939 399.808 783.708 396.577 779.722 396.577C775.736 396.577 772.505 399.808 772.505 403.794C772.505 407.78 775.736 411.012 779.722 411.012Z" fill="#F5F3D9"/>
<path d="M779.9 477.598C784.453 477.598 788.145 473.906 788.145 469.353C788.145 464.799 784.453 461.108 779.9 461.108C775.347 461.108 771.655 464.799 771.655 469.353C771.655 473.906 775.347 477.598 779.9 477.598Z" fill="#494949"/>
<path d="M780.572 476.391C784.558 476.391 787.789 473.16 787.789 469.174C787.789 465.188 784.558 461.957 780.572 461.957C776.586 461.957 773.354 465.188 773.354 469.174C773.354 473.16 776.586 476.391 780.572 476.391Z" fill="#F5F3D9"/>
<path d="M779.05 444.483C783.604 444.483 787.295 440.792 787.295 436.239C787.295 431.685 783.604 427.994 779.05 427.994C774.497 427.994 770.806 431.685 770.806 436.239C770.806 440.792 774.497 444.483 779.05 444.483Z" fill="#494949"/>
<path d="M779.722 443.277C783.708 443.277 786.939 440.046 786.939 436.06C786.939 432.074 783.708 428.842 779.722 428.842C775.736 428.842 772.505 432.074 772.505 436.06C772.505 440.046 775.736 443.277 779.722 443.277Z" fill="#F5F3D9"/>
<path d="M779.05 513.259C783.604 513.259 787.295 509.568 787.295 505.014C787.295 500.461 783.604 496.77 779.05 496.77C774.497 496.77 770.806 500.461 770.806 505.014C770.806 509.568 774.497 513.259 779.05 513.259Z" fill="#494949"/>
<path d="M779.722 512.053C783.708 512.053 786.939 508.822 786.939 504.836C786.939 500.85 783.708 497.619 779.722 497.619C775.736 497.619 772.505 500.85 772.505 504.836C772.505 508.822 775.736 512.053 779.722 512.053Z" fill="#F5F3D9"/>
<path d="M779.05 546.374C783.604 546.374 787.295 542.682 787.295 538.129C787.295 533.576 783.604 529.884 779.05 529.884C774.497 529.884 770.806 533.576 770.806 538.129C770.806 542.682 774.497 546.374 779.05 546.374Z" fill="#494949"/>
<path d="M779.722 545.168C783.708 545.168 786.939 541.937 786.939 537.951C786.939 533.965 783.708 530.733 779.722 530.733C775.736 530.733 772.505 533.965 772.505 537.951C772.505 541.937 775.736 545.168 779.722 545.168Z" fill="#F5F3D9"/>
<path d="M779.9 581.186C784.453 581.186 788.145 577.495 788.145 572.941C788.145 568.388 784.453 564.697 779.9 564.697C775.347 564.697 771.655 568.388 771.655 572.941C771.655 577.495 775.347 581.186 779.9 581.186Z" fill="#494949"/>
<path d="M780.572 579.98C784.558 579.98 787.789 576.749 787.789 572.763C787.789 568.777 784.558 565.546 780.572 565.546C776.586 565.546 773.354 568.777 773.354 572.763C773.354 576.749 776.586 579.98 780.572 579.98Z" fill="#F5F3D9"/>
<path d="M780.75 647.416C785.303 647.416 788.994 643.724 788.994 639.171C788.994 634.618 785.303 630.926 780.75 630.926C776.196 630.926 772.505 634.618 772.505 639.171C772.505 643.724 776.196 647.416 780.75 647.416Z" fill="#494949"/>
<path d="M781.42 646.21C785.406 646.21 788.638 642.978 788.638 638.992C788.638 635.006 785.406 631.775 781.42 631.775C777.434 631.775 774.203 635.006 774.203 638.992C774.203 642.978 777.434 646.21 781.42 646.21Z" fill="#F5F3D9"/>
<path d="M779.9 613.452C784.453 613.452 788.145 609.761 788.145 605.208C788.145 600.654 784.453 596.963 779.9 596.963C775.347 596.963 771.655 600.654 771.655 605.208C771.655 609.761 775.347 613.452 779.9 613.452Z" fill="#494949"/>
<path d="M780.572 612.246C784.558 612.246 787.789 609.015 787.789 605.029C787.789 601.043 784.558 597.812 780.572 597.812C776.586 597.812 773.354 601.043 773.354 605.029C773.354 609.015 776.586 612.246 780.572 612.246Z" fill="#F5F3D9"/>
<path d="M779.9 680.53C784.453 680.53 788.145 676.839 788.145 672.285C788.145 667.732 784.453 664.041 779.9 664.041C775.347 664.041 771.655 667.732 771.655 672.285C771.655 676.839 775.347 680.53 779.9 680.53Z" fill="#494949"/>
<path d="M780.572 679.324C784.558 679.324 787.789 676.093 787.789 672.107C787.789 668.121 784.558 664.89 780.572 664.89C776.586 664.89 773.354 668.121 773.354 672.107C773.354 676.093 776.586 679.324 780.572 679.324Z" fill="#F5F3D9"/>
<path d="M762.07 704.305C766.623 704.305 770.314 700.613 770.314 696.06C770.314 691.507 766.623 687.815 762.07 687.815C757.516 687.815 753.825 691.507 753.825 696.06C753.825 700.613 757.516 704.305 762.07 704.305Z" fill="#494949"/>
<path d="M762.74 703.099C766.726 703.099 769.957 699.868 769.957 695.882C769.957 691.896 766.726 688.665 762.74 688.665C758.754 688.665 755.522 691.896 755.522 695.882C755.522 699.868 758.754 703.099 762.74 703.099Z" fill="#F5F3D9"/>
<path d="M725.559 707.701C730.113 707.701 733.804 704.01 733.804 699.457C733.804 694.903 730.113 691.212 725.559 691.212C721.006 691.212 717.314 694.903 717.314 699.457C717.314 704.01 721.006 707.701 725.559 707.701Z" fill="#494949"/>
<path d="M726.229 706.496C730.215 706.496 733.446 703.264 733.446 699.278C733.446 695.292 730.215 692.061 726.229 692.061C722.243 692.061 719.012 695.292 719.012 699.278C719.012 703.264 722.243 706.496 726.229 706.496Z" fill="#F5F3D9"/>
<path d="M692.444 707.701C696.997 707.701 700.689 704.01 700.689 699.457C700.689 694.903 696.997 691.212 692.444 691.212C687.89 691.212 684.199 694.903 684.199 699.457C684.199 704.01 687.89 707.701 692.444 707.701Z" fill="#494949"/>
<path d="M693.115 706.496C697.101 706.496 700.332 703.264 700.332 699.278C700.332 695.292 697.101 692.061 693.115 692.061C689.129 692.061 685.897 695.292 685.897 699.278C685.897 703.264 689.129 706.496 693.115 706.496Z" fill="#F5F3D9"/>
<path d="M657.63 707.701C662.184 707.701 665.875 704.01 665.875 699.457C665.875 694.903 662.184 691.212 657.63 691.212C653.077 691.212 649.386 694.903 649.386 699.457C649.386 704.01 653.077 707.701 657.63 707.701Z" fill="#494949"/>
<path d="M658.301 706.496C662.287 706.496 665.519 703.264 665.519 699.278C665.519 695.292 662.287 692.061 658.301 692.061C654.315 692.061 651.084 695.292 651.084 699.278C651.084 703.264 654.315 706.496 658.301 706.496Z" fill="#F5F3D9"/>
<path d="M589.704 707.701C594.257 707.701 597.948 704.01 597.948 699.457C597.948 694.903 594.257 691.212 589.704 691.212C585.15 691.212 581.459 694.903 581.459 699.457C581.459 704.01 585.15 707.701 589.704 707.701Z" fill="#494949"/>
<path d="M590.374 706.496C594.36 706.496 597.591 703.264 597.591 699.278C597.591 695.292 594.36 692.061 590.374 692.061C586.388 692.061 583.156 695.292 583.156 699.278C583.156 703.264 586.388 706.496 590.374 706.496Z" fill="#F5F3D9"/>
<path d="M624.516 707.701C629.07 707.701 632.761 704.01 632.761 699.457C632.761 694.903 629.07 691.212 624.516 691.212C619.963 691.212 616.271 694.903 616.271 699.457C616.271 704.01 619.963 707.701 624.516 707.701Z" fill="#494949"/>
<path d="M625.187 706.496C629.173 706.496 632.404 703.264 632.404 699.278C632.404 695.292 629.173 692.061 625.187 692.061C621.201 692.061 617.97 695.292 617.97 699.278C617.97 703.264 621.201 706.496 625.187 706.496Z" fill="#F5F3D9"/>
<path d="M556.589 707.701C561.143 707.701 564.834 704.01 564.834 699.457C564.834 694.903 561.143 691.212 556.589 691.212C552.036 691.212 548.345 694.903 548.345 699.457C548.345 704.01 552.036 707.701 556.589 707.701Z" fill="#494949"/>
<path d="M557.26 706.496C561.246 706.496 564.478 703.264 564.478 699.278C564.478 695.292 561.246 692.061 557.26 692.061C553.274 692.061 550.043 695.292 550.043 699.278C550.043 703.264 553.274 706.496 557.26 706.496Z" fill="#F5F3D9"/>
<path d="M522.626 707.701C527.179 707.701 530.87 704.01 530.87 699.457C530.87 694.903 527.179 691.212 522.626 691.212C518.072 691.212 514.381 694.903 514.381 699.457C514.381 704.01 518.072 707.701 522.626 707.701Z" fill="#494949"/>
<path d="M523.296 706.496C527.282 706.496 530.514 703.264 530.514 699.278C530.514 695.292 527.282 692.061 523.296 692.061C519.31 692.061 516.079 695.292 516.079 699.278C516.079 703.264 519.31 706.496 523.296 706.496Z" fill="#F5F3D9"/>
<path d="M489.51 707.701C494.064 707.701 497.755 704.01 497.755 699.457C497.755 694.903 494.064 691.212 489.51 691.212C484.957 691.212 481.266 694.903 481.266 699.457C481.266 704.01 484.957 707.701 489.51 707.701Z" fill="#494949"/>
<path d="M490.181 706.496C494.167 706.496 497.398 703.264 497.398 699.278C497.398 695.292 494.167 692.061 490.181 692.061C486.195 692.061 482.964 695.292 482.964 699.278C482.964 703.264 486.195 706.496 490.181 706.496Z" fill="#F5F3D9"/>
<path d="M455.547 707.701C460.101 707.701 463.792 704.01 463.792 699.457C463.792 694.903 460.101 691.212 455.547 691.212C450.994 691.212 447.303 694.903 447.303 699.457C447.303 704.01 450.994 707.701 455.547 707.701Z" fill="#494949"/>
<path d="M456.217 706.496C460.203 706.496 463.435 703.264 463.435 699.278C463.435 695.292 460.203 692.061 456.217 692.061C452.231 692.061 449 695.292 449 699.278C449 703.264 452.231 706.496 456.217 706.496Z" fill="#F5F3D9"/>
<path d="M388.469 707.701C393.023 707.701 396.714 704.01 396.714 699.457C396.714 694.903 393.023 691.212 388.469 691.212C383.916 691.212 380.225 694.903 380.225 699.457C380.225 704.01 383.916 707.701 388.469 707.701Z" fill="#494949"/>
<path d="M389.139 706.496C393.125 706.496 396.356 703.264 396.356 699.278C396.356 695.292 393.125 692.061 389.139 692.061C385.153 692.061 381.922 695.292 381.922 699.278C381.922 703.264 385.153 706.496 389.139 706.496Z" fill="#F5F3D9"/>
<path d="M355.354 707.701C359.907 707.701 363.599 704.01 363.599 699.457C363.599 694.903 359.907 691.212 355.354 691.212C350.801 691.212 347.109 694.903 347.109 699.457C347.109 704.01 350.801 707.701 355.354 707.701Z" fill="#494949"/>
<path d="M356.025 706.496C360.011 706.496 363.242 703.264 363.242 699.278C363.242 695.292 360.011 692.061 356.025 692.061C352.039 692.061 348.808 695.292 348.808 699.278C348.808 703.264 352.039 706.496 356.025 706.496Z" fill="#F5F3D9"/>
<path d="M321.39 707.701C325.944 707.701 329.635 704.01 329.635 699.457C329.635 694.903 325.944 691.212 321.39 691.212C316.837 691.212 313.146 694.903 313.146 699.457C313.146 704.01 316.837 707.701 321.39 707.701Z" fill="#494949"/>
<path d="M322.062 706.496C326.048 706.496 329.279 703.264 329.279 699.278C329.279 695.292 326.048 692.061 322.062 692.061C318.076 692.061 314.845 695.292 314.845 699.278C314.845 703.264 318.076 706.496 322.062 706.496Z" fill="#F5F3D9"/>
<path d="M288.276 707.701C292.829 707.701 296.521 704.01 296.521 699.457C296.521 694.903 292.829 691.212 288.276 691.212C283.722 691.212 280.031 694.903 280.031 699.457C280.031 704.01 283.722 707.701 288.276 707.701Z" fill="#494949"/>
<path d="M288.947 706.496C292.933 706.496 296.164 703.264 296.164 699.278C296.164 695.292 292.933 692.061 288.947 692.061C284.961 692.061 281.729 695.292 281.729 699.278C281.729 703.264 284.961 706.496 288.947 706.496Z" fill="#F5F3D9"/>
<path d="M253.462 707.701C258.016 707.701 261.707 704.01 261.707 699.457C261.707 694.903 258.016 691.212 253.462 691.212C248.909 691.212 245.218 694.903 245.218 699.457C245.218 704.01 248.909 707.701 253.462 707.701Z" fill="#494949"/>
<path d="M254.133 706.496C258.119 706.496 261.351 703.264 261.351 699.278C261.351 695.292 258.119 692.061 254.133 692.061C250.147 692.061 246.916 695.292 246.916 699.278C246.916 703.264 250.147 706.496 254.133 706.496Z" fill="#F5F3D9"/>
<path d="M219.5 707.701C224.053 707.701 227.744 704.01 227.744 699.457C227.744 694.903 224.053 691.212 219.5 691.212C214.946 691.212 211.255 694.903 211.255 699.457C211.255 704.01 214.946 707.701 219.5 707.701Z" fill="#494949"/>
<path d="M220.169 706.496C224.155 706.496 227.387 703.264 227.387 699.278C227.387 695.292 224.155 692.061 220.169 692.061C216.183 692.061 212.952 695.292 212.952 699.278C212.952 703.264 216.183 706.496 220.169 706.496Z" fill="#F5F3D9"/>
<path d="M187.234 708.55C191.787 708.55 195.479 704.859 195.479 700.306C195.479 695.752 191.787 692.061 187.234 692.061C182.68 692.061 178.989 695.752 178.989 700.306C178.989 704.859 182.68 708.55 187.234 708.55Z" fill="#494949"/>
<path d="M187.904 707.345C191.89 707.345 195.121 704.113 195.121 700.127C195.121 696.141 191.89 692.91 187.904 692.91C183.918 692.91 180.687 696.141 180.687 700.127C180.687 704.113 183.918 707.345 187.904 707.345Z" fill="#F5F3D9"/>
<path d="M153.27 708.55C157.823 708.55 161.515 704.859 161.515 700.306C161.515 695.752 157.823 692.061 153.27 692.061C148.717 692.061 145.025 695.752 145.025 700.306C145.025 704.859 148.717 708.55 153.27 708.55Z" fill="#494949"/>
<path d="M153.941 707.345C157.927 707.345 161.158 704.113 161.158 700.127C161.158 696.141 157.927 692.91 153.941 692.91C149.955 692.91 146.724 696.141 146.724 700.127C146.724 704.113 149.955 707.345 153.941 707.345Z" fill="#F5F3D9"/>
<path d="M117.608 708.55C122.161 708.55 125.853 704.859 125.853 700.306C125.853 695.752 122.161 692.061 117.608 692.061C113.055 692.061 109.363 695.752 109.363 700.306C109.363 704.859 113.055 708.55 117.608 708.55Z" fill="#494949"/>
<path d="M118.279 707.345C122.265 707.345 125.496 704.113 125.496 700.127C125.496 696.141 122.265 692.91 118.279 692.91C114.293 692.91 111.062 696.141 111.062 700.127C111.062 704.113 114.293 707.345 118.279 707.345Z" fill="#F5F3D9"/>
<path d="M82.7954 707.701C87.3488 707.701 91.0401 704.01 91.0401 699.457C91.0401 694.903 87.3488 691.212 82.7954 691.212C78.242 691.212 74.5508 694.903 74.5508 699.457C74.5508 704.01 78.242 707.701 82.7954 707.701Z" fill="#494949"/>
<path d="M83.4663 706.496C87.4523 706.496 90.6836 703.264 90.6836 699.278C90.6836 695.292 87.4523 692.061 83.4663 692.061C79.4803 692.061 76.249 695.292 76.249 699.278C76.249 703.264 79.4803 706.496 83.4663 706.496Z" fill="#F5F3D9"/>
<path d="M55.6236 707.701C60.177 707.701 63.8682 704.01 63.8682 699.457C63.8682 694.903 60.177 691.212 55.6236 691.212C51.0701 691.212 47.3789 694.903 47.3789 699.457C47.3789 704.01 51.0701 707.701 55.6236 707.701Z" fill="#494949"/>
<path d="M56.2954 706.496C60.2814 706.496 63.5127 703.264 63.5127 699.278C63.5127 695.292 60.2814 692.061 56.2954 692.061C52.3094 692.061 49.0781 695.292 49.0781 699.278C49.0781 703.264 52.3094 706.496 56.2954 706.496Z" fill="#F5F3D9"/>
<path d="M30.1519 688.173C34.7053 688.173 38.3965 684.481 38.3965 679.928C38.3965 675.374 34.7053 671.683 30.1519 671.683C25.5985 671.683 21.9072 675.374 21.9072 679.928C21.9072 684.481 25.5985 688.173 30.1519 688.173Z" fill="#494949"/>
<path d="M30.8237 686.967C34.8097 686.967 38.041 683.736 38.041 679.75C38.041 675.764 34.8097 672.532 30.8237 672.532C26.8377 672.532 23.6064 675.764 23.6064 679.75C23.6064 683.736 26.8377 686.967 30.8237 686.967Z" fill="#F5F3D9"/>
<path d="M30.1519 654.208C34.7053 654.208 38.3965 650.517 38.3965 645.964C38.3965 641.41 34.7053 637.719 30.1519 637.719C25.5985 637.719 21.9072 641.41 21.9072 645.964C21.9072 650.517 25.5985 654.208 30.1519 654.208Z" fill="#494949"/>
<path d="M30.8237 653.003C34.8097 653.003 38.041 649.772 38.041 645.786C38.041 641.8 34.8097 638.568 30.8237 638.568C26.8377 638.568 23.6064 641.8 23.6064 645.786C23.6064 649.772 26.8377 653.003 30.8237 653.003Z" fill="#F5F3D9"/>
<path d="M28.4546 621.943C33.008 621.943 36.6993 618.251 36.6993 613.698C36.6993 609.145 33.008 605.453 28.4546 605.453C23.9012 605.453 20.21 609.145 20.21 613.698C20.21 618.251 23.9012 621.943 28.4546 621.943Z" fill="#494949"/>
<path d="M29.1245 620.737C33.1105 620.737 36.3418 617.506 36.3418 613.52C36.3418 609.534 33.1105 606.302 29.1245 606.302C25.1385 606.302 21.9072 609.534 21.9072 613.52C21.9072 617.506 25.1385 620.737 29.1245 620.737Z" fill="#F5F3D9"/>
<path d="M28.4546 586.281C33.008 586.281 36.6993 582.59 36.6993 578.036C36.6993 573.483 33.008 569.792 28.4546 569.792C23.9012 569.792 20.21 573.483 20.21 578.036C20.21 582.59 23.9012 586.281 28.4546 586.281Z" fill="#494949"/>
<path d="M29.1245 585.075C33.1105 585.075 36.3418 581.844 36.3418 577.858C36.3418 573.872 33.1105 570.641 29.1245 570.641C25.1385 570.641 21.9072 573.872 21.9072 577.858C21.9072 581.844 25.1385 585.075 29.1245 585.075Z" fill="#F5F3D9"/>
<path d="M28.4546 553.167C33.008 553.167 36.6993 549.475 36.6993 544.922C36.6993 540.369 33.008 536.677 28.4546 536.677C23.9012 536.677 20.21 540.369 20.21 544.922C20.21 549.475 23.9012 553.167 28.4546 553.167Z" fill="#494949"/>
<path d="M29.1245 551.96C33.1105 551.96 36.3418 548.729 36.3418 544.743C36.3418 540.757 33.1105 537.526 29.1245 537.526C25.1385 537.526 21.9072 540.757 21.9072 544.743C21.9072 548.729 25.1385 551.96 29.1245 551.96Z" fill="#F5F3D9"/>
<path d="M28.4546 520.052C33.008 520.052 36.6993 516.361 36.6993 511.807C36.6993 507.254 33.008 503.562 28.4546 503.562C23.9012 503.562 20.21 507.254 20.21 511.807C20.21 516.361 23.9012 520.052 28.4546 520.052Z" fill="#494949"/>
<path d="M29.1245 518.846C33.1105 518.846 36.3418 515.615 36.3418 511.629C36.3418 507.643 33.1105 504.412 29.1245 504.412C25.1385 504.412 21.9072 507.643 21.9072 511.629C21.9072 515.615 25.1385 518.846 29.1245 518.846Z" fill="#F5F3D9"/>
<path d="M29.3023 482.692C33.8557 482.692 37.5469 479 37.5469 474.447C37.5469 469.893 33.8557 466.202 29.3023 466.202C24.7489 466.202 21.0576 469.893 21.0576 474.447C21.0576 479 24.7489 482.692 29.3023 482.692Z" fill="#494949"/>
<path d="M29.9741 481.486C33.9601 481.486 37.1914 478.255 37.1914 474.269C37.1914 470.283 33.9601 467.051 29.9741 467.051C25.9881 467.051 22.7568 470.283 22.7568 474.269C22.7568 478.255 25.9881 481.486 29.9741 481.486Z" fill="#F5F3D9"/>
<path d="M28.4546 450.426C33.008 450.426 36.6993 446.735 36.6993 442.182C36.6993 437.628 33.008 433.937 28.4546 433.937C23.9012 433.937 20.21 437.628 20.21 442.182C20.21 446.735 23.9012 450.426 28.4546 450.426Z" fill="#494949"/>
<path d="M29.1245 449.221C33.1105 449.221 36.3418 445.989 36.3418 442.003C36.3418 438.017 33.1105 434.786 29.1245 434.786C25.1385 434.786 21.9072 438.017 21.9072 442.003C21.9072 445.989 25.1385 449.221 29.1245 449.221Z" fill="#F5F3D9"/>
<path d="M26.7564 418.161C31.3098 418.161 35.001 414.47 35.001 409.916C35.001 405.363 31.3098 401.671 26.7564 401.671C22.203 401.671 18.5117 405.363 18.5117 409.916C18.5117 414.47 22.203 418.161 26.7564 418.161Z" fill="#494949"/>
<path d="M27.4272 416.955C31.4132 416.955 34.6445 413.723 34.6445 409.737C34.6445 405.751 31.4132 402.52 27.4272 402.52C23.4412 402.52 20.21 405.751 20.21 409.737C20.21 413.723 23.4412 416.955 27.4272 416.955Z" fill="#F5F3D9"/>
<path d="M26.7564 384.197C31.3098 384.197 35.001 380.506 35.001 375.953C35.001 371.399 31.3098 367.708 26.7564 367.708C22.203 367.708 18.5117 371.399 18.5117 375.953C18.5117 380.506 22.203 384.197 26.7564 384.197Z" fill="#494949"/>
<path d="M27.4272 382.992C31.4132 382.992 34.6445 379.76 34.6445 375.774C34.6445 371.788 31.4132 368.557 27.4272 368.557C23.4412 368.557 20.21 371.788 20.21 375.774C20.21 379.76 23.4412 382.992 27.4272 382.992Z" fill="#F5F3D9"/>
<path d="M32.6988 350.233C37.2522 350.233 40.9434 346.542 40.9434 341.989C40.9434 337.435 37.2522 333.744 32.6988 333.744C28.1453 333.744 24.4541 337.435 24.4541 341.989C24.4541 346.542 28.1453 350.233 32.6988 350.233Z" fill="#494949"/>
<path d="M33.3696 349.028C37.3556 349.028 40.5869 345.797 40.5869 341.811C40.5869 337.825 37.3556 334.593 33.3696 334.593C29.3836 334.593 26.1523 337.825 26.1523 341.811C26.1523 345.797 29.3836 349.028 33.3696 349.028Z" fill="#F5F3D9"/>
<path d="M422.432 707.701C426.986 707.701 430.677 704.01 430.677 699.457C430.677 694.903 426.986 691.212 422.432 691.212C417.879 691.212 414.188 694.903 414.188 699.457C414.188 704.01 417.879 707.701 422.432 707.701Z" fill="#494949"/>
<path d="M423.104 706.496C427.09 706.496 430.321 703.264 430.321 699.278C430.321 695.292 427.09 692.061 423.104 692.061C419.118 692.061 415.887 695.292 415.887 699.278C415.887 703.264 419.118 706.496 423.104 706.496Z" fill="#F5F3D9"/>
<path d="M735.747 338.346C740.3 338.346 743.991 334.655 743.991 330.101C743.991 325.548 740.3 321.856 735.747 321.856C731.193 321.856 727.502 325.548 727.502 330.101C727.502 334.655 731.193 338.346 735.747 338.346Z" fill="#494949"/>
<path d="M736.417 337.14C740.403 337.14 743.635 333.909 743.635 329.923C743.635 325.937 740.403 322.706 736.417 322.706C732.431 322.706 729.2 325.937 729.2 329.923C729.2 333.909 732.431 337.14 736.417 337.14Z" fill="#F5F3D9"/>
<path d="M332.428 339.195C336.982 339.195 340.673 335.504 340.673 330.95C340.673 326.397 336.982 322.706 332.428 322.706C327.875 322.706 324.184 326.397 324.184 330.95C324.184 335.504 327.875 339.195 332.428 339.195Z" fill="#494949"/>
<path d="M333.099 337.989C337.085 337.989 340.316 334.758 340.316 330.772C340.316 326.786 337.085 323.555 333.099 323.555C329.113 323.555 325.882 326.786 325.882 330.772C325.882 334.758 329.113 337.989 333.099 337.989Z" fill="#F5F3D9"/>
<path d="M230.537 339.195C235.09 339.195 238.781 335.504 238.781 330.95C238.781 326.397 235.09 322.706 230.537 322.706C225.983 322.706 222.292 326.397 222.292 330.95C222.292 335.504 225.983 339.195 230.537 339.195Z" fill="#494949"/>
<path d="M231.208 337.989C235.194 337.989 238.426 334.758 238.426 330.772C238.426 326.786 235.194 323.555 231.208 323.555C227.222 323.555 223.991 326.786 223.991 330.772C223.991 334.758 227.222 337.989 231.208 337.989Z" fill="#F5F3D9"/>
<path d="M48.5518 297.658C48.5518 297.403 48.5518 296.172 48.5518 294.261C48.6197 283.223 48.6197 249.259 48.6197 249.259C48.6197 249.259 47.7706 229.73 62.2052 228.032C76.6397 226.334 189.569 228.032 189.569 228.032L554.679 227.183L735.535 223.787C735.535 223.787 765.253 224.636 758.461 256.901L757.671 297.802L747.108 297.658L747.422 249.259C747.422 249.259 749.97 229.73 725.346 236.523L537.697 238.221L78.3379 236.523C78.3379 236.523 58.8088 235.674 59.6579 251.807L58.8088 297.658H49.0782" fill="#882310"/>
<path d="M48.5518 297.658C48.5518 297.403 48.5518 296.172 48.5518 294.261C48.6197 283.223 48.6197 249.259 48.6197 249.259C48.6197 249.259 47.7706 229.73 62.2052 228.032C76.6397 226.334 189.569 228.032 189.569 228.032L554.679 227.183L735.535 223.787C735.535 223.787 765.253 224.636 758.461 256.901L757.671 297.802L747.108 297.658L747.422 249.259C747.422 249.259 749.97 229.73 725.346 236.523L537.697 238.221L78.3379 236.523C78.3379 236.523 58.8088 235.674 59.6579 251.807L58.8088 297.658H49.0782" stroke="black" stroke-miterlimit="10"/>
</svg>
