<svg width="827" height="740" viewBox="0 0 827 740" fill="none" xmlns="http://www.w3.org/2000/svg">
<rect x="106.5" y="0.5" width="10" height="323.481" fill="#831C1C" stroke="black"/>
<rect x="710.5" y="0.5" width="10" height="334" fill="#831C1C" stroke="black"/>
<path d="M771.748 297.657H73.0983C43.2784 297.657 19.1045 321.831 19.1045 351.651V685.191C19.1045 715.011 43.2784 739.185 73.0983 739.185H771.748C801.568 739.185 825.742 715.011 825.742 685.191V351.651C825.742 321.831 801.568 297.657 771.748 297.657Z" fill="#8A2A00" stroke="black" stroke-miterlimit="10"/>
<path d="M763.682 302.072H81.1647C51.3448 302.072 27.1709 326.246 27.1709 356.066V680.776C27.1709 710.596 51.3448 734.77 81.1647 734.77H763.682C793.502 734.77 817.676 710.596 817.676 680.776V356.066C817.676 326.246 793.502 302.072 763.682 302.072Z" fill="#F7A859" stroke="black" stroke-miterlimit="10"/>
<path d="M755.778 306.403H89.0708C59.2508 306.403 35.0771 330.577 35.0771 360.397V676.455C35.0771 706.275 59.2508 730.448 89.0708 730.448H755.778C785.598 730.448 809.772 706.275 809.772 676.455V360.397C809.772 330.577 785.598 306.403 755.778 306.403Z" fill="#B54414" stroke="black" stroke-miterlimit="10"/>
<path d="M753.323 344.868H91.5241C71.9037 344.868 55.998 360.773 55.998 380.394V644.563C55.998 664.184 71.9037 680.089 91.5241 680.089H753.323C772.944 680.089 788.849 664.184 788.849 644.563V380.394C788.849 360.773 772.944 344.868 753.323 344.868Z" fill="#D64D0C" stroke="black" stroke-miterlimit="10"/>
<path d="M735.873 352.849H108.971C89.3509 352.849 73.4453 368.754 73.4453 388.375V636.581C73.4453 656.202 89.3509 672.107 108.971 672.107H735.873C755.493 672.107 771.399 656.202 771.399 636.581V388.375C771.399 368.754 755.493 352.849 735.873 352.849Z" fill="#D9D0A9" stroke="black" stroke-miterlimit="10"/>
<path d="M734.311 371.529H110.534C99.6873 371.529 90.8945 380.322 90.8945 391.168V634.637C90.8945 645.484 99.6873 654.276 110.534 654.276H734.311C745.158 654.276 753.95 645.484 753.95 634.637V391.168C753.95 380.322 745.158 371.529 734.311 371.529Z" fill="#F3E7D2"/>
<path opacity="0.6" d="M731.807 398.402H113.888C103.042 398.402 94.249 407.195 94.249 418.042V633.236C94.249 644.082 103.042 652.875 113.888 652.875H731.807C742.653 652.875 751.446 644.082 751.446 633.236V418.042C751.446 407.195 742.653 398.402 731.807 398.402Z" fill="#EEDAB2"/>
<path d="M92.7217 441.906L747.892 443.573" stroke="#DFD3B5" stroke-width="2" stroke-miterlimit="10"/>
<path d="M91 548L746.17 549.667" stroke="#DFD3B5" stroke-width="2" stroke-miterlimit="10"/>
<path d="M92.7217 494.39H751.391" stroke="#DFD3B5" stroke-width="2" stroke-miterlimit="10"/>
<path d="M91 600.484H749.669" stroke="#DFD3B5" stroke-width="2" stroke-miterlimit="10"/>
<path d="M80.4175 340.044C84.9709 340.044 88.6622 336.353 88.6622 331.799C88.6622 327.246 84.9709 323.555 80.4175 323.555C75.8641 323.555 72.1729 327.246 72.1729 331.799C72.1729 336.353 75.8641 340.044 80.4175 340.044Z" fill="#494949"/>
<path d="M81.0884 338.838C85.0744 338.838 88.3057 335.607 88.3057 331.621C88.3057 327.635 85.0744 324.404 81.0884 324.404C77.1024 324.404 73.8711 327.635 73.8711 331.621C73.8711 335.607 77.1024 338.838 81.0884 338.838Z" fill="#F5F3D9"/>
<path d="M114.381 340.044C118.935 340.044 122.626 336.353 122.626 331.799C122.626 327.246 118.935 323.555 114.381 323.555C109.828 323.555 106.137 327.246 106.137 331.799C106.137 336.353 109.828 340.044 114.381 340.044Z" fill="#494949"/>
<path d="M115.052 338.838C119.038 338.838 122.27 335.607 122.27 331.621C122.27 327.635 119.038 324.404 115.052 324.404C111.066 324.404 107.835 327.635 107.835 331.621C107.835 335.607 111.066 338.838 115.052 338.838Z" fill="#F5F3D9"/>
<path d="M150.043 340.044C154.597 340.044 158.288 336.353 158.288 331.799C158.288 327.246 154.597 323.555 150.043 323.555C145.49 323.555 141.799 327.246 141.799 331.799C141.799 336.353 145.49 340.044 150.043 340.044Z" fill="#494949"/>
<path d="M150.714 338.838C154.7 338.838 157.932 335.607 157.932 331.621C157.932 327.635 154.7 324.404 150.714 324.404C146.728 324.404 143.497 327.635 143.497 331.621C143.497 335.607 146.728 338.838 150.714 338.838Z" fill="#F5F3D9"/>
<path d="M180.61 339.195C185.163 339.195 188.855 335.504 188.855 330.95C188.855 326.397 185.163 322.706 180.61 322.706C176.056 322.706 172.365 326.397 172.365 330.95C172.365 335.504 176.056 339.195 180.61 339.195Z" fill="#494949"/>
<path d="M181.281 337.989C185.267 337.989 188.498 334.758 188.498 330.772C188.498 326.786 185.267 323.555 181.281 323.555C177.295 323.555 174.063 326.786 174.063 330.772C174.063 334.758 177.295 337.989 181.281 337.989Z" fill="#F5F3D9"/>
<path d="M214.574 339.195C219.127 339.195 222.818 335.504 222.818 330.95C222.818 326.397 219.127 322.706 214.574 322.706C210.02 322.706 206.329 326.397 206.329 330.95C206.329 335.504 210.02 339.195 214.574 339.195Z" fill="#494949"/>
<path d="M215.245 337.989C219.231 337.989 222.462 334.758 222.462 330.772C222.462 326.786 219.231 323.555 215.245 323.555C211.259 323.555 208.027 326.786 208.027 330.772C208.027 334.758 211.259 337.989 215.245 337.989Z" fill="#F5F3D9"/>
<path d="M283.351 339.195C287.905 339.195 291.596 335.504 291.596 330.95C291.596 326.397 287.905 322.706 283.351 322.706C278.798 322.706 275.106 326.397 275.106 330.95C275.106 335.504 278.798 339.195 283.351 339.195Z" fill="#494949"/>
<path d="M284.022 337.989C288.008 337.989 291.239 334.758 291.239 330.772C291.239 326.786 288.008 323.555 284.022 323.555C280.036 323.555 276.805 326.786 276.805 330.772C276.805 334.758 280.036 337.989 284.022 337.989Z" fill="#F5F3D9"/>
<path d="M317.314 340.044C321.867 340.044 325.559 336.353 325.559 331.799C325.559 327.246 321.867 323.555 317.314 323.555C312.761 323.555 309.069 327.246 309.069 331.799C309.069 336.353 312.761 340.044 317.314 340.044Z" fill="#494949"/>
<path d="M317.985 338.838C321.971 338.838 325.202 335.607 325.202 331.621C325.202 327.635 321.971 324.404 317.985 324.404C313.999 324.404 310.768 327.635 310.768 331.621C310.768 335.607 313.999 338.838 317.985 338.838Z" fill="#F5F3D9"/>
<path d="M384.393 339.195C388.947 339.195 392.638 335.504 392.638 330.95C392.638 326.397 388.947 322.706 384.393 322.706C379.84 322.706 376.148 326.397 376.148 330.95C376.148 335.504 379.84 339.195 384.393 339.195Z" fill="#494949"/>
<path d="M385.064 337.989C389.05 337.989 392.281 334.758 392.281 330.772C392.281 326.786 389.05 323.555 385.064 323.555C381.078 323.555 377.847 326.786 377.847 330.772C377.847 334.758 381.078 337.989 385.064 337.989Z" fill="#F5F3D9"/>
<path d="M417.507 339.195C422.061 339.195 425.752 335.504 425.752 330.95C425.752 326.397 422.061 322.706 417.507 322.706C412.954 322.706 409.263 326.397 409.263 330.95C409.263 335.504 412.954 339.195 417.507 339.195Z" fill="#494949"/>
<path d="M418.177 337.989C422.163 337.989 425.395 334.758 425.395 330.772C425.395 326.786 422.163 323.555 418.177 323.555C414.191 323.555 410.96 326.786 410.96 330.772C410.96 334.758 414.191 337.989 418.177 337.989Z" fill="#F5F3D9"/>
<path d="M453.169 339.195C457.723 339.195 461.414 335.504 461.414 330.95C461.414 326.397 457.723 322.706 453.169 322.706C448.616 322.706 444.925 326.397 444.925 330.95C444.925 335.504 448.616 339.195 453.169 339.195Z" fill="#494949"/>
<path d="M453.84 337.989C457.826 337.989 461.058 334.758 461.058 330.772C461.058 326.786 457.826 323.555 453.84 323.555C449.854 323.555 446.623 326.786 446.623 330.772C446.623 334.758 449.854 337.989 453.84 337.989Z" fill="#F5F3D9"/>
<path d="M484.585 338.346C489.139 338.346 492.83 334.655 492.83 330.101C492.83 325.548 489.139 321.856 484.585 321.856C480.032 321.856 476.341 325.548 476.341 330.101C476.341 334.655 480.032 338.346 484.585 338.346Z" fill="#494949"/>
<path d="M485.256 337.14C489.242 337.14 492.474 333.909 492.474 329.923C492.474 325.937 489.242 322.706 485.256 322.706C481.27 322.706 478.039 325.937 478.039 329.923C478.039 333.909 481.27 337.14 485.256 337.14Z" fill="#F5F3D9"/>
<path d="M520.247 340.044C524.8 340.044 528.491 336.353 528.491 331.799C528.491 327.246 524.8 323.555 520.247 323.555C515.693 323.555 512.002 327.246 512.002 331.799C512.002 336.353 515.693 340.044 520.247 340.044Z" fill="#494949"/>
<path d="M520.917 338.838C524.903 338.838 528.135 335.607 528.135 331.621C528.135 327.635 524.903 324.404 520.917 324.404C516.931 324.404 513.7 327.635 513.7 331.621C513.7 335.607 516.931 338.838 520.917 338.838Z" fill="#F5F3D9"/>
<path d="M552.513 340.044C557.067 340.044 560.758 336.353 560.758 331.799C560.758 327.246 557.067 323.555 552.513 323.555C547.96 323.555 544.269 327.246 544.269 331.799C544.269 336.353 547.96 340.044 552.513 340.044Z" fill="#494949"/>
<path d="M553.184 338.838C557.17 338.838 560.401 335.607 560.401 331.621C560.401 327.635 557.17 324.404 553.184 324.404C549.198 324.404 545.967 327.635 545.967 331.621C545.967 335.607 549.198 338.838 553.184 338.838Z" fill="#F5F3D9"/>
<path d="M586.477 340.044C591.03 340.044 594.722 336.353 594.722 331.799C594.722 327.246 591.03 323.555 586.477 323.555C581.924 323.555 578.232 327.246 578.232 331.799C578.232 336.353 581.924 340.044 586.477 340.044Z" fill="#494949"/>
<path d="M587.147 338.838C591.133 338.838 594.364 335.607 594.364 331.621C594.364 327.635 591.133 324.404 587.147 324.404C583.161 324.404 579.93 327.635 579.93 331.621C579.93 335.607 583.161 338.838 587.147 338.838Z" fill="#F5F3D9"/>
<path d="M618.741 340.893C623.294 340.893 626.985 337.202 626.985 332.649C626.985 328.095 623.294 324.404 618.741 324.404C614.187 324.404 610.496 328.095 610.496 332.649C610.496 337.202 614.187 340.893 618.741 340.893Z" fill="#494949"/>
<path d="M619.412 339.687C623.398 339.687 626.629 336.456 626.629 332.47C626.629 328.484 623.398 325.253 619.412 325.253C615.426 325.253 612.194 328.484 612.194 332.47C612.194 336.456 615.426 339.687 619.412 339.687Z" fill="#F5F3D9"/>
<path d="M652.707 340.044C657.26 340.044 660.951 336.353 660.951 331.799C660.951 327.246 657.26 323.555 652.707 323.555C648.153 323.555 644.462 327.246 644.462 331.799C644.462 336.353 648.153 340.044 652.707 340.044Z" fill="#494949"/>
<path d="M653.376 338.838C657.362 338.838 660.594 335.607 660.594 331.621C660.594 327.635 657.362 324.404 653.376 324.404C649.39 324.404 646.159 327.635 646.159 331.621C646.159 335.607 649.39 338.838 653.376 338.838Z" fill="#F5F3D9"/>
<path d="M685.82 340.044C690.373 340.044 694.064 336.353 694.064 331.799C694.064 327.246 690.373 323.555 685.82 323.555C681.266 323.555 677.575 327.246 677.575 331.799C677.575 336.353 681.266 340.044 685.82 340.044Z" fill="#494949"/>
<path d="M686.492 338.838C690.478 338.838 693.709 335.607 693.709 331.621C693.709 327.635 690.478 324.404 686.492 324.404C682.506 324.404 679.274 327.635 679.274 331.621C679.274 335.607 682.506 338.838 686.492 338.838Z" fill="#F5F3D9"/>
<path d="M722.331 340.044C726.884 340.044 730.575 336.353 730.575 331.799C730.575 327.246 726.884 323.555 722.331 323.555C717.777 323.555 714.086 327.246 714.086 331.799C714.086 336.353 717.777 340.044 722.331 340.044Z" fill="#494949"/>
<path d="M723.002 338.838C726.988 338.838 730.22 335.607 730.22 331.621C730.22 327.635 726.988 324.404 723.002 324.404C719.016 324.404 715.785 327.635 715.785 331.621C715.785 335.607 719.016 338.838 723.002 338.838Z" fill="#F5F3D9"/>
<path d="M787.711 345.987C792.265 345.987 795.956 342.296 795.956 337.743C795.956 333.189 792.265 329.498 787.711 329.498C783.158 329.498 779.467 333.189 779.467 337.743C779.467 342.296 783.158 345.987 787.711 345.987Z" fill="#494949"/>
<path d="M788.382 344.782C792.368 344.782 795.6 341.551 795.6 337.565C795.6 333.579 792.368 330.348 788.382 330.348C784.396 330.348 781.165 333.579 781.165 337.565C781.165 341.551 784.396 344.782 788.382 344.782Z" fill="#F5F3D9"/>
<path d="M797.05 376.555C801.604 376.555 805.295 372.864 805.295 368.311C805.295 363.757 801.604 360.066 797.05 360.066C792.497 360.066 788.806 363.757 788.806 368.311C788.806 372.864 792.497 376.555 797.05 376.555Z" fill="#494949"/>
<path d="M797.722 375.349C801.708 375.349 804.939 372.118 804.939 368.132C804.939 364.146 801.708 360.915 797.722 360.915C793.736 360.915 790.505 364.146 790.505 368.132C790.505 372.118 793.736 375.349 797.722 375.349Z" fill="#F5F3D9"/>
<path d="M797.05 412.217C801.604 412.217 805.295 408.526 805.295 403.973C805.295 399.419 801.604 395.728 797.05 395.728C792.497 395.728 788.806 399.419 788.806 403.973C788.806 408.526 792.497 412.217 797.05 412.217Z" fill="#494949"/>
<path d="M797.722 411.012C801.708 411.012 804.939 407.78 804.939 403.794C804.939 399.808 801.708 396.577 797.722 396.577C793.736 396.577 790.505 399.808 790.505 403.794C790.505 407.78 793.736 411.012 797.722 411.012Z" fill="#F5F3D9"/>
<path d="M797.9 477.598C802.453 477.598 806.145 473.906 806.145 469.353C806.145 464.799 802.453 461.108 797.9 461.108C793.347 461.108 789.655 464.799 789.655 469.353C789.655 473.906 793.347 477.598 797.9 477.598Z" fill="#494949"/>
<path d="M798.572 476.391C802.558 476.391 805.789 473.16 805.789 469.174C805.789 465.188 802.558 461.957 798.572 461.957C794.586 461.957 791.354 465.188 791.354 469.174C791.354 473.16 794.586 476.391 798.572 476.391Z" fill="#F5F3D9"/>
<path d="M797.05 444.483C801.604 444.483 805.295 440.792 805.295 436.239C805.295 431.685 801.604 427.994 797.05 427.994C792.497 427.994 788.806 431.685 788.806 436.239C788.806 440.792 792.497 444.483 797.05 444.483Z" fill="#494949"/>
<path d="M797.722 443.277C801.708 443.277 804.939 440.046 804.939 436.06C804.939 432.074 801.708 428.842 797.722 428.842C793.736 428.842 790.505 432.074 790.505 436.06C790.505 440.046 793.736 443.277 797.722 443.277Z" fill="#F5F3D9"/>
<path d="M797.05 513.259C801.604 513.259 805.295 509.568 805.295 505.014C805.295 500.461 801.604 496.77 797.05 496.77C792.497 496.77 788.806 500.461 788.806 505.014C788.806 509.568 792.497 513.259 797.05 513.259Z" fill="#494949"/>
<path d="M797.722 512.053C801.708 512.053 804.939 508.822 804.939 504.836C804.939 500.85 801.708 497.619 797.722 497.619C793.736 497.619 790.505 500.85 790.505 504.836C790.505 508.822 793.736 512.053 797.722 512.053Z" fill="#F5F3D9"/>
<path d="M797.05 546.374C801.604 546.374 805.295 542.682 805.295 538.129C805.295 533.576 801.604 529.884 797.05 529.884C792.497 529.884 788.806 533.576 788.806 538.129C788.806 542.682 792.497 546.374 797.05 546.374Z" fill="#494949"/>
<path d="M797.722 545.168C801.708 545.168 804.939 541.937 804.939 537.951C804.939 533.965 801.708 530.733 797.722 530.733C793.736 530.733 790.505 533.965 790.505 537.951C790.505 541.937 793.736 545.168 797.722 545.168Z" fill="#F5F3D9"/>
<path d="M797.9 581.186C802.453 581.186 806.145 577.495 806.145 572.941C806.145 568.388 802.453 564.697 797.9 564.697C793.347 564.697 789.655 568.388 789.655 572.941C789.655 577.495 793.347 581.186 797.9 581.186Z" fill="#494949"/>
<path d="M798.572 579.98C802.558 579.98 805.789 576.749 805.789 572.763C805.789 568.777 802.558 565.546 798.572 565.546C794.586 565.546 791.354 568.777 791.354 572.763C791.354 576.749 794.586 579.98 798.572 579.98Z" fill="#F5F3D9"/>
<path d="M798.75 647.416C803.303 647.416 806.994 643.724 806.994 639.171C806.994 634.618 803.303 630.926 798.75 630.926C794.196 630.926 790.505 634.618 790.505 639.171C790.505 643.724 794.196 647.416 798.75 647.416Z" fill="#494949"/>
<path d="M799.42 646.21C803.406 646.21 806.638 642.978 806.638 638.992C806.638 635.006 803.406 631.775 799.42 631.775C795.434 631.775 792.203 635.006 792.203 638.992C792.203 642.978 795.434 646.21 799.42 646.21Z" fill="#F5F3D9"/>
<path d="M797.9 613.452C802.453 613.452 806.145 609.761 806.145 605.208C806.145 600.654 802.453 596.963 797.9 596.963C793.347 596.963 789.655 600.654 789.655 605.208C789.655 609.761 793.347 613.452 797.9 613.452Z" fill="#494949"/>
<path d="M798.572 612.246C802.558 612.246 805.789 609.015 805.789 605.029C805.789 601.043 802.558 597.812 798.572 597.812C794.586 597.812 791.354 601.043 791.354 605.029C791.354 609.015 794.586 612.246 798.572 612.246Z" fill="#F5F3D9"/>
<path d="M797.9 680.53C802.453 680.53 806.145 676.839 806.145 672.285C806.145 667.732 802.453 664.041 797.9 664.041C793.347 664.041 789.655 667.732 789.655 672.285C789.655 676.839 793.347 680.53 797.9 680.53Z" fill="#494949"/>
<path d="M798.572 679.324C802.558 679.324 805.789 676.093 805.789 672.107C805.789 668.121 802.558 664.89 798.572 664.89C794.586 664.89 791.354 668.121 791.354 672.107C791.354 676.093 794.586 679.324 798.572 679.324Z" fill="#F5F3D9"/>
<path d="M780.07 704.305C784.623 704.305 788.314 700.613 788.314 696.06C788.314 691.507 784.623 687.815 780.07 687.815C775.516 687.815 771.825 691.507 771.825 696.06C771.825 700.613 775.516 704.305 780.07 704.305Z" fill="#494949"/>
<path d="M780.74 703.099C784.726 703.099 787.957 699.868 787.957 695.882C787.957 691.896 784.726 688.665 780.74 688.665C776.754 688.665 773.522 691.896 773.522 695.882C773.522 699.868 776.754 703.099 780.74 703.099Z" fill="#F5F3D9"/>
<path d="M743.559 707.701C748.113 707.701 751.804 704.01 751.804 699.457C751.804 694.903 748.113 691.212 743.559 691.212C739.006 691.212 735.314 694.903 735.314 699.457C735.314 704.01 739.006 707.701 743.559 707.701Z" fill="#494949"/>
<path d="M744.229 706.496C748.215 706.496 751.446 703.264 751.446 699.278C751.446 695.292 748.215 692.061 744.229 692.061C740.243 692.061 737.012 695.292 737.012 699.278C737.012 703.264 740.243 706.496 744.229 706.496Z" fill="#F5F3D9"/>
<path d="M710.444 707.701C714.997 707.701 718.689 704.01 718.689 699.457C718.689 694.903 714.997 691.212 710.444 691.212C705.89 691.212 702.199 694.903 702.199 699.457C702.199 704.01 705.89 707.701 710.444 707.701Z" fill="#494949"/>
<path d="M711.115 706.496C715.101 706.496 718.332 703.264 718.332 699.278C718.332 695.292 715.101 692.061 711.115 692.061C707.129 692.061 703.897 695.292 703.897 699.278C703.897 703.264 707.129 706.496 711.115 706.496Z" fill="#F5F3D9"/>
<path d="M675.63 707.701C680.184 707.701 683.875 704.01 683.875 699.457C683.875 694.903 680.184 691.212 675.63 691.212C671.077 691.212 667.386 694.903 667.386 699.457C667.386 704.01 671.077 707.701 675.63 707.701Z" fill="#494949"/>
<path d="M676.301 706.496C680.287 706.496 683.519 703.264 683.519 699.278C683.519 695.292 680.287 692.061 676.301 692.061C672.315 692.061 669.084 695.292 669.084 699.278C669.084 703.264 672.315 706.496 676.301 706.496Z" fill="#F5F3D9"/>
<path d="M607.704 707.701C612.257 707.701 615.948 704.01 615.948 699.457C615.948 694.903 612.257 691.212 607.704 691.212C603.15 691.212 599.459 694.903 599.459 699.457C599.459 704.01 603.15 707.701 607.704 707.701Z" fill="#494949"/>
<path d="M608.374 706.496C612.36 706.496 615.591 703.264 615.591 699.278C615.591 695.292 612.36 692.061 608.374 692.061C604.388 692.061 601.156 695.292 601.156 699.278C601.156 703.264 604.388 706.496 608.374 706.496Z" fill="#F5F3D9"/>
<path d="M642.516 707.701C647.07 707.701 650.761 704.01 650.761 699.457C650.761 694.903 647.07 691.212 642.516 691.212C637.963 691.212 634.271 694.903 634.271 699.457C634.271 704.01 637.963 707.701 642.516 707.701Z" fill="#494949"/>
<path d="M643.187 706.496C647.173 706.496 650.404 703.264 650.404 699.278C650.404 695.292 647.173 692.061 643.187 692.061C639.201 692.061 635.97 695.292 635.97 699.278C635.97 703.264 639.201 706.496 643.187 706.496Z" fill="#F5F3D9"/>
<path d="M574.589 707.701C579.143 707.701 582.834 704.01 582.834 699.457C582.834 694.903 579.143 691.212 574.589 691.212C570.036 691.212 566.345 694.903 566.345 699.457C566.345 704.01 570.036 707.701 574.589 707.701Z" fill="#494949"/>
<path d="M575.26 706.496C579.246 706.496 582.478 703.264 582.478 699.278C582.478 695.292 579.246 692.061 575.26 692.061C571.274 692.061 568.043 695.292 568.043 699.278C568.043 703.264 571.274 706.496 575.26 706.496Z" fill="#F5F3D9"/>
<path d="M540.626 707.701C545.179 707.701 548.87 704.01 548.87 699.457C548.87 694.903 545.179 691.212 540.626 691.212C536.072 691.212 532.381 694.903 532.381 699.457C532.381 704.01 536.072 707.701 540.626 707.701Z" fill="#494949"/>
<path d="M541.296 706.496C545.282 706.496 548.514 703.264 548.514 699.278C548.514 695.292 545.282 692.061 541.296 692.061C537.31 692.061 534.079 695.292 534.079 699.278C534.079 703.264 537.31 706.496 541.296 706.496Z" fill="#F5F3D9"/>
<path d="M507.51 707.701C512.064 707.701 515.755 704.01 515.755 699.457C515.755 694.903 512.064 691.212 507.51 691.212C502.957 691.212 499.266 694.903 499.266 699.457C499.266 704.01 502.957 707.701 507.51 707.701Z" fill="#494949"/>
<path d="M508.181 706.496C512.167 706.496 515.398 703.264 515.398 699.278C515.398 695.292 512.167 692.061 508.181 692.061C504.195 692.061 500.964 695.292 500.964 699.278C500.964 703.264 504.195 706.496 508.181 706.496Z" fill="#F5F3D9"/>
<path d="M473.547 707.701C478.101 707.701 481.792 704.01 481.792 699.457C481.792 694.903 478.101 691.212 473.547 691.212C468.994 691.212 465.303 694.903 465.303 699.457C465.303 704.01 468.994 707.701 473.547 707.701Z" fill="#494949"/>
<path d="M474.217 706.496C478.203 706.496 481.435 703.264 481.435 699.278C481.435 695.292 478.203 692.061 474.217 692.061C470.231 692.061 467 695.292 467 699.278C467 703.264 470.231 706.496 474.217 706.496Z" fill="#F5F3D9"/>
<path d="M406.469 707.701C411.023 707.701 414.714 704.01 414.714 699.457C414.714 694.903 411.023 691.212 406.469 691.212C401.916 691.212 398.225 694.903 398.225 699.457C398.225 704.01 401.916 707.701 406.469 707.701Z" fill="#494949"/>
<path d="M407.139 706.496C411.125 706.496 414.356 703.264 414.356 699.278C414.356 695.292 411.125 692.061 407.139 692.061C403.153 692.061 399.922 695.292 399.922 699.278C399.922 703.264 403.153 706.496 407.139 706.496Z" fill="#F5F3D9"/>
<path d="M373.354 707.701C377.907 707.701 381.599 704.01 381.599 699.457C381.599 694.903 377.907 691.212 373.354 691.212C368.801 691.212 365.109 694.903 365.109 699.457C365.109 704.01 368.801 707.701 373.354 707.701Z" fill="#494949"/>
<path d="M374.025 706.496C378.011 706.496 381.242 703.264 381.242 699.278C381.242 695.292 378.011 692.061 374.025 692.061C370.039 692.061 366.808 695.292 366.808 699.278C366.808 703.264 370.039 706.496 374.025 706.496Z" fill="#F5F3D9"/>
<path d="M339.39 707.701C343.944 707.701 347.635 704.01 347.635 699.457C347.635 694.903 343.944 691.212 339.39 691.212C334.837 691.212 331.146 694.903 331.146 699.457C331.146 704.01 334.837 707.701 339.39 707.701Z" fill="#494949"/>
<path d="M340.062 706.496C344.048 706.496 347.279 703.264 347.279 699.278C347.279 695.292 344.048 692.061 340.062 692.061C336.076 692.061 332.845 695.292 332.845 699.278C332.845 703.264 336.076 706.496 340.062 706.496Z" fill="#F5F3D9"/>
<path d="M306.276 707.701C310.829 707.701 314.521 704.01 314.521 699.457C314.521 694.903 310.829 691.212 306.276 691.212C301.722 691.212 298.031 694.903 298.031 699.457C298.031 704.01 301.722 707.701 306.276 707.701Z" fill="#494949"/>
<path d="M306.947 706.496C310.933 706.496 314.164 703.264 314.164 699.278C314.164 695.292 310.933 692.061 306.947 692.061C302.961 692.061 299.729 695.292 299.729 699.278C299.729 703.264 302.961 706.496 306.947 706.496Z" fill="#F5F3D9"/>
<path d="M271.462 707.701C276.016 707.701 279.707 704.01 279.707 699.457C279.707 694.903 276.016 691.212 271.462 691.212C266.909 691.212 263.218 694.903 263.218 699.457C263.218 704.01 266.909 707.701 271.462 707.701Z" fill="#494949"/>
<path d="M272.133 706.496C276.119 706.496 279.351 703.264 279.351 699.278C279.351 695.292 276.119 692.061 272.133 692.061C268.147 692.061 264.916 695.292 264.916 699.278C264.916 703.264 268.147 706.496 272.133 706.496Z" fill="#F5F3D9"/>
<path d="M237.5 707.701C242.053 707.701 245.744 704.01 245.744 699.457C245.744 694.903 242.053 691.212 237.5 691.212C232.946 691.212 229.255 694.903 229.255 699.457C229.255 704.01 232.946 707.701 237.5 707.701Z" fill="#494949"/>
<path d="M238.169 706.496C242.155 706.496 245.387 703.264 245.387 699.278C245.387 695.292 242.155 692.061 238.169 692.061C234.183 692.061 230.952 695.292 230.952 699.278C230.952 703.264 234.183 706.496 238.169 706.496Z" fill="#F5F3D9"/>
<path d="M205.234 708.55C209.787 708.55 213.479 704.859 213.479 700.306C213.479 695.752 209.787 692.061 205.234 692.061C200.68 692.061 196.989 695.752 196.989 700.306C196.989 704.859 200.68 708.55 205.234 708.55Z" fill="#494949"/>
<path d="M205.904 707.345C209.89 707.345 213.121 704.113 213.121 700.127C213.121 696.141 209.89 692.91 205.904 692.91C201.918 692.91 198.687 696.141 198.687 700.127C198.687 704.113 201.918 707.345 205.904 707.345Z" fill="#F5F3D9"/>
<path d="M171.27 708.55C175.823 708.55 179.515 704.859 179.515 700.306C179.515 695.752 175.823 692.061 171.27 692.061C166.717 692.061 163.025 695.752 163.025 700.306C163.025 704.859 166.717 708.55 171.27 708.55Z" fill="#494949"/>
<path d="M171.941 707.345C175.927 707.345 179.158 704.113 179.158 700.127C179.158 696.141 175.927 692.91 171.941 692.91C167.955 692.91 164.724 696.141 164.724 700.127C164.724 704.113 167.955 707.345 171.941 707.345Z" fill="#F5F3D9"/>
<path d="M135.608 708.55C140.161 708.55 143.853 704.859 143.853 700.306C143.853 695.752 140.161 692.061 135.608 692.061C131.055 692.061 127.363 695.752 127.363 700.306C127.363 704.859 131.055 708.55 135.608 708.55Z" fill="#494949"/>
<path d="M136.279 707.345C140.265 707.345 143.496 704.113 143.496 700.127C143.496 696.141 140.265 692.91 136.279 692.91C132.293 692.91 129.062 696.141 129.062 700.127C129.062 704.113 132.293 707.345 136.279 707.345Z" fill="#F5F3D9"/>
<path d="M100.795 707.701C105.349 707.701 109.04 704.01 109.04 699.457C109.04 694.903 105.349 691.212 100.795 691.212C96.242 691.212 92.5508 694.903 92.5508 699.457C92.5508 704.01 96.242 707.701 100.795 707.701Z" fill="#494949"/>
<path d="M101.466 706.496C105.452 706.496 108.684 703.264 108.684 699.278C108.684 695.292 105.452 692.061 101.466 692.061C97.4803 692.061 94.249 695.292 94.249 699.278C94.249 703.264 97.4803 706.496 101.466 706.496Z" fill="#F5F3D9"/>
<path d="M73.6236 707.701C78.177 707.701 81.8682 704.01 81.8682 699.457C81.8682 694.903 78.177 691.212 73.6236 691.212C69.0701 691.212 65.3789 694.903 65.3789 699.457C65.3789 704.01 69.0701 707.701 73.6236 707.701Z" fill="#494949"/>
<path d="M74.2954 706.496C78.2814 706.496 81.5127 703.264 81.5127 699.278C81.5127 695.292 78.2814 692.061 74.2954 692.061C70.3094 692.061 67.0781 695.292 67.0781 699.278C67.0781 703.264 70.3094 706.496 74.2954 706.496Z" fill="#F5F3D9"/>
<path d="M48.1519 688.173C52.7053 688.173 56.3965 684.481 56.3965 679.928C56.3965 675.374 52.7053 671.683 48.1519 671.683C43.5985 671.683 39.9072 675.374 39.9072 679.928C39.9072 684.481 43.5985 688.173 48.1519 688.173Z" fill="#494949"/>
<path d="M48.8237 686.967C52.8097 686.967 56.041 683.736 56.041 679.75C56.041 675.764 52.8097 672.532 48.8237 672.532C44.8377 672.532 41.6064 675.764 41.6064 679.75C41.6064 683.736 44.8377 686.967 48.8237 686.967Z" fill="#F5F3D9"/>
<path d="M48.1519 654.208C52.7053 654.208 56.3965 650.517 56.3965 645.964C56.3965 641.41 52.7053 637.719 48.1519 637.719C43.5985 637.719 39.9072 641.41 39.9072 645.964C39.9072 650.517 43.5985 654.208 48.1519 654.208Z" fill="#494949"/>
<path d="M48.8237 653.003C52.8097 653.003 56.041 649.772 56.041 645.786C56.041 641.8 52.8097 638.568 48.8237 638.568C44.8377 638.568 41.6064 641.8 41.6064 645.786C41.6064 649.772 44.8377 653.003 48.8237 653.003Z" fill="#F5F3D9"/>
<path d="M46.4546 621.943C51.008 621.943 54.6993 618.251 54.6993 613.698C54.6993 609.145 51.008 605.453 46.4546 605.453C41.9012 605.453 38.21 609.145 38.21 613.698C38.21 618.251 41.9012 621.943 46.4546 621.943Z" fill="#494949"/>
<path d="M47.1245 620.737C51.1105 620.737 54.3418 617.506 54.3418 613.52C54.3418 609.534 51.1105 606.302 47.1245 606.302C43.1385 606.302 39.9072 609.534 39.9072 613.52C39.9072 617.506 43.1385 620.737 47.1245 620.737Z" fill="#F5F3D9"/>
<path d="M46.4546 586.281C51.008 586.281 54.6993 582.59 54.6993 578.036C54.6993 573.483 51.008 569.792 46.4546 569.792C41.9012 569.792 38.21 573.483 38.21 578.036C38.21 582.59 41.9012 586.281 46.4546 586.281Z" fill="#494949"/>
<path d="M47.1245 585.075C51.1105 585.075 54.3418 581.844 54.3418 577.858C54.3418 573.872 51.1105 570.641 47.1245 570.641C43.1385 570.641 39.9072 573.872 39.9072 577.858C39.9072 581.844 43.1385 585.075 47.1245 585.075Z" fill="#F5F3D9"/>
<path d="M46.4546 553.167C51.008 553.167 54.6993 549.475 54.6993 544.922C54.6993 540.369 51.008 536.677 46.4546 536.677C41.9012 536.677 38.21 540.369 38.21 544.922C38.21 549.475 41.9012 553.167 46.4546 553.167Z" fill="#494949"/>
<path d="M47.1245 551.96C51.1105 551.96 54.3418 548.729 54.3418 544.743C54.3418 540.757 51.1105 537.526 47.1245 537.526C43.1385 537.526 39.9072 540.757 39.9072 544.743C39.9072 548.729 43.1385 551.96 47.1245 551.96Z" fill="#F5F3D9"/>
<path d="M46.4546 520.052C51.008 520.052 54.6993 516.361 54.6993 511.807C54.6993 507.254 51.008 503.562 46.4546 503.562C41.9012 503.562 38.21 507.254 38.21 511.807C38.21 516.361 41.9012 520.052 46.4546 520.052Z" fill="#494949"/>
<path d="M47.1245 518.846C51.1105 518.846 54.3418 515.615 54.3418 511.629C54.3418 507.643 51.1105 504.412 47.1245 504.412C43.1385 504.412 39.9072 507.643 39.9072 511.629C39.9072 515.615 43.1385 518.846 47.1245 518.846Z" fill="#F5F3D9"/>
<path d="M47.3023 482.692C51.8557 482.692 55.5469 479 55.5469 474.447C55.5469 469.893 51.8557 466.202 47.3023 466.202C42.7489 466.202 39.0576 469.893 39.0576 474.447C39.0576 479 42.7489 482.692 47.3023 482.692Z" fill="#494949"/>
<path d="M47.9741 481.486C51.9601 481.486 55.1914 478.255 55.1914 474.269C55.1914 470.283 51.9601 467.051 47.9741 467.051C43.9881 467.051 40.7568 470.283 40.7568 474.269C40.7568 478.255 43.9881 481.486 47.9741 481.486Z" fill="#F5F3D9"/>
<path d="M46.4546 450.426C51.008 450.426 54.6993 446.735 54.6993 442.182C54.6993 437.628 51.008 433.937 46.4546 433.937C41.9012 433.937 38.21 437.628 38.21 442.182C38.21 446.735 41.9012 450.426 46.4546 450.426Z" fill="#494949"/>
<path d="M47.1245 449.221C51.1105 449.221 54.3418 445.989 54.3418 442.003C54.3418 438.017 51.1105 434.786 47.1245 434.786C43.1385 434.786 39.9072 438.017 39.9072 442.003C39.9072 445.989 43.1385 449.221 47.1245 449.221Z" fill="#F5F3D9"/>
<path d="M44.7564 418.161C49.3098 418.161 53.001 414.47 53.001 409.916C53.001 405.363 49.3098 401.671 44.7564 401.671C40.203 401.671 36.5117 405.363 36.5117 409.916C36.5117 414.47 40.203 418.161 44.7564 418.161Z" fill="#494949"/>
<path d="M45.4272 416.955C49.4132 416.955 52.6445 413.723 52.6445 409.737C52.6445 405.751 49.4132 402.52 45.4272 402.52C41.4412 402.52 38.21 405.751 38.21 409.737C38.21 413.723 41.4412 416.955 45.4272 416.955Z" fill="#F5F3D9"/>
<path d="M44.7564 384.197C49.3098 384.197 53.001 380.506 53.001 375.953C53.001 371.399 49.3098 367.708 44.7564 367.708C40.203 367.708 36.5117 371.399 36.5117 375.953C36.5117 380.506 40.203 384.197 44.7564 384.197Z" fill="#494949"/>
<path d="M45.4272 382.992C49.4132 382.992 52.6445 379.76 52.6445 375.774C52.6445 371.788 49.4132 368.557 45.4272 368.557C41.4412 368.557 38.21 371.788 38.21 375.774C38.21 379.76 41.4412 382.992 45.4272 382.992Z" fill="#F5F3D9"/>
<path d="M50.6988 350.233C55.2522 350.233 58.9434 346.542 58.9434 341.989C58.9434 337.435 55.2522 333.744 50.6988 333.744C46.1453 333.744 42.4541 337.435 42.4541 341.989C42.4541 346.542 46.1453 350.233 50.6988 350.233Z" fill="#494949"/>
<path d="M51.3696 349.028C55.3556 349.028 58.5869 345.797 58.5869 341.811C58.5869 337.825 55.3556 334.593 51.3696 334.593C47.3836 334.593 44.1523 337.825 44.1523 341.811C44.1523 345.797 47.3836 349.028 51.3696 349.028Z" fill="#F5F3D9"/>
<path d="M440.432 707.701C444.986 707.701 448.677 704.01 448.677 699.457C448.677 694.903 444.986 691.212 440.432 691.212C435.879 691.212 432.188 694.903 432.188 699.457C432.188 704.01 435.879 707.701 440.432 707.701Z" fill="#494949"/>
<path d="M441.104 706.496C445.09 706.496 448.321 703.264 448.321 699.278C448.321 695.292 445.09 692.061 441.104 692.061C437.118 692.061 433.887 695.292 433.887 699.278C433.887 703.264 437.118 706.496 441.104 706.496Z" fill="#F5F3D9"/>
<path d="M753.747 338.346C758.3 338.346 761.991 334.655 761.991 330.101C761.991 325.548 758.3 321.856 753.747 321.856C749.193 321.856 745.502 325.548 745.502 330.101C745.502 334.655 749.193 338.346 753.747 338.346Z" fill="#494949"/>
<path d="M754.417 337.14C758.403 337.14 761.635 333.909 761.635 329.923C761.635 325.937 758.403 322.706 754.417 322.706C750.431 322.706 747.2 325.937 747.2 329.923C747.2 333.909 750.431 337.14 754.417 337.14Z" fill="#F5F3D9"/>
<path d="M350.428 339.195C354.982 339.195 358.673 335.504 358.673 330.95C358.673 326.397 354.982 322.706 350.428 322.706C345.875 322.706 342.184 326.397 342.184 330.95C342.184 335.504 345.875 339.195 350.428 339.195Z" fill="#494949"/>
<path d="M351.099 337.989C355.085 337.989 358.316 334.758 358.316 330.772C358.316 326.786 355.085 323.555 351.099 323.555C347.113 323.555 343.882 326.786 343.882 330.772C343.882 334.758 347.113 337.989 351.099 337.989Z" fill="#F5F3D9"/>
<path d="M248.537 339.195C253.09 339.195 256.781 335.504 256.781 330.95C256.781 326.397 253.09 322.706 248.537 322.706C243.983 322.706 240.292 326.397 240.292 330.95C240.292 335.504 243.983 339.195 248.537 339.195Z" fill="#494949"/>
<path d="M249.208 337.989C253.194 337.989 256.426 334.758 256.426 330.772C256.426 326.786 253.194 323.555 249.208 323.555C245.222 323.555 241.991 326.786 241.991 330.772C241.991 334.758 245.222 337.989 249.208 337.989Z" fill="#F5F3D9"/>
<path d="M66.5518 297.658C66.5518 297.403 66.5518 296.172 66.5518 294.261C66.6197 283.223 66.6197 249.259 66.6197 249.259C66.6197 249.259 65.7706 229.73 80.2052 228.032C94.6397 226.334 207.569 228.032 207.569 228.032L572.679 227.183L753.535 223.787C753.535 223.787 783.253 224.636 776.461 256.901L775.671 297.802L765.108 297.658L765.422 249.259C765.422 249.259 767.97 229.73 743.346 236.523L555.697 238.221L96.3379 236.523C96.3379 236.523 76.8088 235.674 77.6579 251.807L76.8088 297.658H67.0782" fill="#882310"/>
<path d="M66.5518 297.658C66.5518 297.403 66.5518 296.172 66.5518 294.261C66.6197 283.223 66.6197 249.259 66.6197 249.259C66.6197 249.259 65.7706 229.73 80.2052 228.032C94.6397 226.334 207.569 228.032 207.569 228.032L572.679 227.183L753.535 223.787C753.535 223.787 783.253 224.636 776.461 256.901L775.671 297.802L765.108 297.658L765.422 249.259C765.422 249.259 767.97 229.73 743.346 236.523L555.697 238.221L96.3379 236.523C96.3379 236.523 76.8088 235.674 77.6579 251.807L76.8088 297.658H67.0782" stroke="black" stroke-miterlimit="10"/>
</svg>
