<svg width="295" height="114" viewBox="0 0 295 114" fill="none" xmlns="http://www.w3.org/2000/svg">
<path d="M7.79297 26.4725V78.2671H203.084V97.7962C203.084 95.249 281.201 52.7944 281.201 52.7944L201.386 7.79248L202.235 26.4725H7.79297Z" fill="#AB310D"/>
<path d="M1 22.2273H197.989V1L293.088 52.7946L200.537 104.589H197.14L197.989 82.5128L1 84.211V22.2273Z" fill="#FFB94C" stroke="black" stroke-miterlimit="10"/>
<path d="M197.177 90.5036H1.5V84.7066L197.469 83.0172L197.177 90.5036Z" fill="#8D3A06" stroke="black"/>
<path d="M292.326 53.779L290.956 59.26L290.877 59.3051L290.11 59.7454L287.197 61.4177C284.686 62.8588 281.097 64.9185 276.785 67.3928C268.162 72.3414 256.646 78.9484 245.077 85.5819C222.504 98.5252 199.766 111.548 197.87 112.578C197.834 112.476 197.796 112.309 197.77 112.06C197.696 111.357 197.744 110.312 197.85 109.201C197.955 108.1 198.113 106.969 198.245 106.112C198.31 105.683 198.37 105.325 198.412 105.073C198.422 105.014 198.432 104.96 198.44 104.913L292.326 53.779Z" fill="#8D3A06" stroke="black"/>
<path d="M11.1895 30.7183L206.481 32.4165V17.1328L274.408 52.7947L207.33 91.0038V74.8711L12.8876 74.022L11.1895 30.7183Z" fill="#9D2C16"/>
<path d="M16.2842 34.9639L18.8315 68.9276H211.575C211.575 68.9276 210.726 83.3622 211.575 82.5131C212.424 81.664 263.37 52.7949 263.37 52.7949L211.575 22.2275V37.5112L16.2842 34.9639Z" fill="#E75620" stroke="black" stroke-miterlimit="10"/>
</svg>
