<svg width="1920" height="25" viewBox="0 0 1920 25" fill="none" xmlns="http://www.w3.org/2000/svg">
<rect x="218.797" y="12.4517" width="12.8813" height="12.5481" fill="#252424"/>
<rect x="205.917" y="12.4517" width="12.8813" height="12.5481" fill="#E8E8E8"/>
<rect x="205.917" width="12.8813" height="12.5481" fill="#252424"/>
<rect x="218.797" width="12.8813" height="12.5481" fill="#E8E8E8"/>
<rect x="322.756" y="12.4517" width="12.8813" height="12.5481" fill="#252424"/>
<rect x="309.875" y="12.4517" width="12.8813" height="12.5481" fill="#E8E8E8"/>
<rect x="309.875" width="12.8813" height="12.5481" fill="#252424"/>
<rect x="322.756" width="12.8813" height="12.5481" fill="#E8E8E8"/>
<rect x="270.776" y="12.4517" width="12.8813" height="12.5481" fill="#252424"/>
<rect x="257.896" y="12.4517" width="12.8813" height="12.5481" fill="#E8E8E8"/>
<rect x="257.896" width="12.8813" height="12.5481" fill="#252424"/>
<rect x="270.776" width="12.8813" height="12.5481" fill="#E8E8E8"/>
<rect x="244.787" y="12.4517" width="12.8813" height="12.5481" fill="#252424"/>
<rect x="231.906" y="12.4517" width="12.8813" height="12.5481" fill="#E8E8E8"/>
<rect x="231.906" width="12.8813" height="12.5481" fill="#252424"/>
<rect x="244.787" width="12.8813" height="12.5481" fill="#E8E8E8"/>
<rect x="296.766" y="12.4517" width="12.8813" height="12.5481" fill="#252424"/>
<rect x="283.885" y="12.4517" width="12.8813" height="12.5481" fill="#E8E8E8"/>
<rect x="283.885" width="12.8813" height="12.5481" fill="#252424"/>
<rect x="296.766" width="12.8813" height="12.5481" fill="#E8E8E8"/>
<rect x="10.881" y="12.4517" width="12.8813" height="12.5481" fill="#252424"/>
<rect x="-2" y="12.4517" width="12.8813" height="12.5481" fill="#E8E8E8"/>
<rect x="-2" width="12.8813" height="12.5481" fill="#252424"/>
<rect x="10.881" width="12.8813" height="12.5481" fill="#E8E8E8"/>
<rect x="426.714" y="12.4517" width="12.8813" height="12.5481" fill="#252424"/>
<rect x="413.833" y="12.4517" width="12.8813" height="12.5481" fill="#E8E8E8"/>
<rect x="413.833" width="12.8813" height="12.5481" fill="#252424"/>
<rect x="426.714" width="12.8813" height="12.5481" fill="#E8E8E8"/>
<rect x="634.63" y="12.4517" width="12.8813" height="12.5481" fill="#252424"/>
<rect x="621.75" y="12.4517" width="12.8813" height="12.5481" fill="#E8E8E8"/>
<rect x="621.75" width="12.8813" height="12.5481" fill="#252424"/>
<rect x="634.63" width="12.8813" height="12.5481" fill="#E8E8E8"/>
<rect x="842.547" y="12.4517" width="12.8813" height="12.5481" fill="#252424"/>
<rect x="829.666" y="12.4517" width="12.8813" height="12.5481" fill="#E8E8E8"/>
<rect x="829.666" width="12.8813" height="12.5481" fill="#252424"/>
<rect x="842.547" width="12.8813" height="12.5481" fill="#E8E8E8"/>
<rect x="1050.46" y="12.4517" width="12.8813" height="12.5481" fill="#252424"/>
<rect x="1037.58" y="12.4517" width="12.8813" height="12.5481" fill="#E8E8E8"/>
<rect x="1037.58" width="12.8813" height="12.5481" fill="#252424"/>
<rect x="1050.46" width="12.8813" height="12.5481" fill="#E8E8E8"/>
<rect x="1258.38" y="12.4517" width="12.8813" height="12.5481" fill="#252424"/>
<rect x="1245.5" y="12.4517" width="12.8813" height="12.5481" fill="#E8E8E8"/>
<rect x="1245.5" width="12.8813" height="12.5481" fill="#252424"/>
<rect x="1258.38" width="12.8813" height="12.5481" fill="#E8E8E8"/>
<rect x="1466.3" y="12.4517" width="12.8813" height="12.5481" fill="#252424"/>
<rect x="1453.42" y="12.4517" width="12.8813" height="12.5481" fill="#E8E8E8"/>
<rect x="1453.42" width="12.8813" height="12.5481" fill="#252424"/>
<rect x="1466.3" width="12.8813" height="12.5481" fill="#E8E8E8"/>
<rect x="1674.21" y="12.4517" width="12.8813" height="12.5481" fill="#252424"/>
<rect x="1661.33" y="12.4517" width="12.8813" height="12.5481" fill="#E8E8E8"/>
<rect x="1661.33" width="12.8813" height="12.5481" fill="#252424"/>
<rect x="1674.21" width="12.8813" height="12.5481" fill="#E8E8E8"/>
<rect x="114.839" y="12.4517" width="12.8813" height="12.5481" fill="#252424"/>
<rect x="101.958" y="12.4517" width="12.8813" height="12.5481" fill="#E8E8E8"/>
<rect x="101.958" width="12.8813" height="12.5481" fill="#252424"/>
<rect x="114.839" width="12.8813" height="12.5481" fill="#E8E8E8"/>
<rect x="530.672" y="12.4517" width="12.8813" height="12.5481" fill="#252424"/>
<rect x="517.791" y="12.4517" width="12.8813" height="12.5481" fill="#E8E8E8"/>
<rect x="517.791" width="12.8813" height="12.5481" fill="#252424"/>
<rect x="530.672" width="12.8813" height="12.5481" fill="#E8E8E8"/>
<rect x="738.589" y="12.4517" width="12.8813" height="12.5481" fill="#252424"/>
<rect x="725.708" y="12.4517" width="12.8813" height="12.5481" fill="#E8E8E8"/>
<rect x="725.708" width="12.8813" height="12.5481" fill="#252424"/>
<rect x="738.589" width="12.8813" height="12.5481" fill="#E8E8E8"/>
<rect x="946.505" y="12.4517" width="12.8813" height="12.5481" fill="#252424"/>
<rect x="933.624" y="12.4517" width="12.8813" height="12.5481" fill="#E8E8E8"/>
<rect x="933.624" width="12.8813" height="12.5481" fill="#252424"/>
<rect x="946.505" width="12.8813" height="12.5481" fill="#E8E8E8"/>
<rect x="1154.42" y="12.4517" width="12.8813" height="12.5481" fill="#252424"/>
<rect x="1141.54" y="12.4517" width="12.8813" height="12.5481" fill="#E8E8E8"/>
<rect x="1141.54" width="12.8813" height="12.5481" fill="#252424"/>
<rect x="1154.42" width="12.8813" height="12.5481" fill="#E8E8E8"/>
<rect x="1362.34" y="12.4517" width="12.8813" height="12.5481" fill="#252424"/>
<rect x="1349.46" y="12.4517" width="12.8813" height="12.5481" fill="#E8E8E8"/>
<rect x="1349.46" width="12.8813" height="12.5481" fill="#252424"/>
<rect x="1362.34" width="12.8813" height="12.5481" fill="#E8E8E8"/>
<rect x="1570.25" y="12.4517" width="12.8813" height="12.5481" fill="#252424"/>
<rect x="1557.37" y="12.4517" width="12.8813" height="12.5481" fill="#E8E8E8"/>
<rect x="1557.37" width="12.8813" height="12.5481" fill="#252424"/>
<rect x="1570.25" width="12.8813" height="12.5481" fill="#E8E8E8"/>
<rect x="1778.17" y="12.4517" width="12.8813" height="12.5481" fill="#252424"/>
<rect x="1765.29" y="12.4517" width="12.8813" height="12.5481" fill="#E8E8E8"/>
<rect x="1765.29" width="12.8813" height="12.5481" fill="#252424"/>
<rect x="1778.17" width="12.8813" height="12.5481" fill="#E8E8E8"/>
<rect x="62.8601" y="12.4517" width="12.8813" height="12.5481" fill="#252424"/>
<rect x="49.9791" y="12.4517" width="12.8813" height="12.5481" fill="#E8E8E8"/>
<rect x="49.9791" width="12.8813" height="12.5481" fill="#252424"/>
<rect x="62.8601" width="12.8813" height="12.5481" fill="#E8E8E8"/>
<rect x="478.693" y="12.4517" width="12.8813" height="12.5481" fill="#252424"/>
<rect x="465.812" y="12.4517" width="12.8813" height="12.5481" fill="#E8E8E8"/>
<rect x="465.812" width="12.8813" height="12.5481" fill="#252424"/>
<rect x="478.693" width="12.8813" height="12.5481" fill="#E8E8E8"/>
<rect x="686.61" y="12.4517" width="12.8813" height="12.5481" fill="#252424"/>
<rect x="673.729" y="12.4517" width="12.8813" height="12.5481" fill="#E8E8E8"/>
<rect x="673.729" width="12.8813" height="12.5481" fill="#252424"/>
<rect x="686.61" width="12.8813" height="12.5481" fill="#E8E8E8"/>
<rect x="894.526" y="12.4517" width="12.8813" height="12.5481" fill="#252424"/>
<rect x="881.645" y="12.4517" width="12.8813" height="12.5481" fill="#E8E8E8"/>
<rect x="881.645" width="12.8813" height="12.5481" fill="#252424"/>
<rect x="894.526" width="12.8813" height="12.5481" fill="#E8E8E8"/>
<rect x="1102.44" y="12.4517" width="12.8813" height="12.5481" fill="#252424"/>
<rect x="1089.56" y="12.4517" width="12.8813" height="12.5481" fill="#E8E8E8"/>
<rect x="1089.56" width="12.8813" height="12.5481" fill="#252424"/>
<rect x="1102.44" width="12.8813" height="12.5481" fill="#E8E8E8"/>
<rect x="1310.36" y="12.4517" width="12.8813" height="12.5481" fill="#252424"/>
<rect x="1297.48" y="12.4517" width="12.8813" height="12.5481" fill="#E8E8E8"/>
<rect x="1297.48" width="12.8813" height="12.5481" fill="#252424"/>
<rect x="1310.36" width="12.8813" height="12.5481" fill="#E8E8E8"/>
<rect x="1518.28" y="12.4517" width="12.8813" height="12.5481" fill="#252424"/>
<rect x="1505.39" y="12.4517" width="12.8813" height="12.5481" fill="#E8E8E8"/>
<rect x="1505.39" width="12.8813" height="12.5481" fill="#252424"/>
<rect x="1518.28" width="12.8813" height="12.5481" fill="#E8E8E8"/>
<rect x="1726.19" y="12.4517" width="12.8813" height="12.5481" fill="#252424"/>
<rect x="1713.31" y="12.4517" width="12.8813" height="12.5481" fill="#E8E8E8"/>
<rect x="1713.31" width="12.8813" height="12.5481" fill="#252424"/>
<rect x="1726.19" width="12.8813" height="12.5481" fill="#E8E8E8"/>
<rect x="166.818" y="12.4517" width="12.8813" height="12.5481" fill="#252424"/>
<rect x="153.937" y="12.4517" width="12.8813" height="12.5481" fill="#E8E8E8"/>
<rect x="153.937" width="12.8813" height="12.5481" fill="#252424"/>
<rect x="166.818" width="12.8813" height="12.5481" fill="#E8E8E8"/>
<rect x="374.735" y="12.4517" width="12.8813" height="12.5481" fill="#252424"/>
<rect x="361.854" y="12.4517" width="12.8813" height="12.5481" fill="#E8E8E8"/>
<rect x="361.854" width="12.8813" height="12.5481" fill="#252424"/>
<rect x="374.735" width="12.8813" height="12.5481" fill="#E8E8E8"/>
<rect x="582.651" y="12.4517" width="12.8813" height="12.5481" fill="#252424"/>
<rect x="569.77" y="12.4517" width="12.8813" height="12.5481" fill="#E8E8E8"/>
<rect x="569.77" width="12.8813" height="12.5481" fill="#252424"/>
<rect x="582.651" width="12.8813" height="12.5481" fill="#E8E8E8"/>
<rect x="790.568" y="12.4517" width="12.8813" height="12.5481" fill="#252424"/>
<rect x="777.687" y="12.4517" width="12.8813" height="12.5481" fill="#E8E8E8"/>
<rect x="777.687" width="12.8813" height="12.5481" fill="#252424"/>
<rect x="790.568" width="12.8813" height="12.5481" fill="#E8E8E8"/>
<rect x="998.484" y="12.4517" width="12.8813" height="12.5481" fill="#252424"/>
<rect x="985.603" y="12.4517" width="12.8813" height="12.5481" fill="#E8E8E8"/>
<rect x="985.603" width="12.8813" height="12.5481" fill="#252424"/>
<rect x="998.484" width="12.8813" height="12.5481" fill="#E8E8E8"/>
<rect x="1206.4" y="12.4517" width="12.8813" height="12.5481" fill="#252424"/>
<rect x="1193.52" y="12.4517" width="12.8813" height="12.5481" fill="#E8E8E8"/>
<rect x="1193.52" width="12.8813" height="12.5481" fill="#252424"/>
<rect x="1206.4" width="12.8813" height="12.5481" fill="#E8E8E8"/>
<rect x="1414.32" y="12.4517" width="12.8813" height="12.5481" fill="#252424"/>
<rect x="1401.44" y="12.4517" width="12.8813" height="12.5481" fill="#E8E8E8"/>
<rect x="1401.44" width="12.8813" height="12.5481" fill="#252424"/>
<rect x="1414.32" width="12.8813" height="12.5481" fill="#E8E8E8"/>
<rect x="1622.23" y="12.4517" width="12.8813" height="12.5481" fill="#252424"/>
<rect x="1609.35" y="12.4517" width="12.8813" height="12.5481" fill="#E8E8E8"/>
<rect x="1609.35" width="12.8813" height="12.5481" fill="#252424"/>
<rect x="1622.23" width="12.8813" height="12.5481" fill="#E8E8E8"/>
<rect x="1830.15" y="12.4517" width="12.8813" height="12.5481" fill="#252424"/>
<rect x="1817.27" y="12.4517" width="12.8813" height="12.5481" fill="#E8E8E8"/>
<rect x="1817.27" width="12.8813" height="12.5481" fill="#252424"/>
<rect x="1830.15" width="12.8813" height="12.5481" fill="#E8E8E8"/>
<rect x="36.8705" y="12.4517" width="12.8813" height="12.5481" fill="#252424"/>
<rect x="23.9895" y="12.4517" width="12.8813" height="12.5481" fill="#E8E8E8"/>
<rect x="23.9895" width="12.8813" height="12.5481" fill="#252424"/>
<rect x="36.8705" width="12.8813" height="12.5481" fill="#E8E8E8"/>
<rect x="452.704" y="12.4517" width="12.8813" height="12.5481" fill="#252424"/>
<rect x="439.823" y="12.4517" width="12.8813" height="12.5481" fill="#E8E8E8"/>
<rect x="439.823" width="12.8813" height="12.5481" fill="#252424"/>
<rect x="452.704" width="12.8813" height="12.5481" fill="#E8E8E8"/>
<rect x="660.62" y="12.4517" width="12.8813" height="12.5481" fill="#252424"/>
<rect x="647.739" y="12.4517" width="12.8813" height="12.5481" fill="#E8E8E8"/>
<rect x="647.739" width="12.8813" height="12.5481" fill="#252424"/>
<rect x="660.62" width="12.8813" height="12.5481" fill="#E8E8E8"/>
<rect x="868.536" y="12.4517" width="12.8813" height="12.5481" fill="#252424"/>
<rect x="855.656" y="12.4517" width="12.8813" height="12.5481" fill="#E8E8E8"/>
<rect x="855.656" width="12.8813" height="12.5481" fill="#252424"/>
<rect x="868.536" width="12.8813" height="12.5481" fill="#E8E8E8"/>
<rect x="1076.45" y="12.4517" width="12.8813" height="12.5481" fill="#252424"/>
<rect x="1063.57" y="12.4517" width="12.8813" height="12.5481" fill="#E8E8E8"/>
<rect x="1063.57" width="12.8813" height="12.5481" fill="#252424"/>
<rect x="1076.45" width="12.8813" height="12.5481" fill="#E8E8E8"/>
<rect x="1284.37" y="12.4517" width="12.8813" height="12.5481" fill="#252424"/>
<rect x="1271.49" y="12.4517" width="12.8813" height="12.5481" fill="#E8E8E8"/>
<rect x="1271.49" width="12.8813" height="12.5481" fill="#252424"/>
<rect x="1284.37" width="12.8813" height="12.5481" fill="#E8E8E8"/>
<rect x="1492.29" y="12.4517" width="12.8813" height="12.5481" fill="#252424"/>
<rect x="1479.4" y="12.4517" width="12.8813" height="12.5481" fill="#E8E8E8"/>
<rect x="1479.4" width="12.8813" height="12.5481" fill="#252424"/>
<rect x="1492.29" width="12.8813" height="12.5481" fill="#E8E8E8"/>
<rect x="1700.2" y="12.4517" width="12.8813" height="12.5481" fill="#252424"/>
<rect x="1687.32" y="12.4517" width="12.8813" height="12.5481" fill="#E8E8E8"/>
<rect x="1687.32" width="12.8813" height="12.5481" fill="#252424"/>
<rect x="1700.2" width="12.8813" height="12.5481" fill="#E8E8E8"/>
<rect x="140.829" y="12.4517" width="12.8813" height="12.5481" fill="#252424"/>
<rect x="127.948" y="12.4517" width="12.8813" height="12.5481" fill="#E8E8E8"/>
<rect x="127.948" width="12.8813" height="12.5481" fill="#252424"/>
<rect x="140.829" width="12.8813" height="12.5481" fill="#E8E8E8"/>
<rect x="348.745" y="12.4517" width="12.8813" height="12.5481" fill="#252424"/>
<rect x="335.864" y="12.4517" width="12.8813" height="12.5481" fill="#E8E8E8"/>
<rect x="335.864" width="12.8813" height="12.5481" fill="#252424"/>
<rect x="348.745" width="12.8813" height="12.5481" fill="#E8E8E8"/>
<rect x="556.662" y="12.4517" width="12.8813" height="12.5481" fill="#252424"/>
<rect x="543.781" y="12.4517" width="12.8813" height="12.5481" fill="#E8E8E8"/>
<rect x="543.781" width="12.8813" height="12.5481" fill="#252424"/>
<rect x="556.662" width="12.8813" height="12.5481" fill="#E8E8E8"/>
<rect x="764.578" y="12.4517" width="12.8813" height="12.5481" fill="#252424"/>
<rect x="751.697" y="12.4517" width="12.8813" height="12.5481" fill="#E8E8E8"/>
<rect x="751.697" width="12.8813" height="12.5481" fill="#252424"/>
<rect x="764.578" width="12.8813" height="12.5481" fill="#E8E8E8"/>
<rect x="972.495" y="12.4517" width="12.8813" height="12.5481" fill="#252424"/>
<rect x="959.614" y="12.4517" width="12.8813" height="12.5481" fill="#E8E8E8"/>
<rect x="959.614" width="12.8813" height="12.5481" fill="#252424"/>
<rect x="972.495" width="12.8813" height="12.5481" fill="#E8E8E8"/>
<rect x="1180.41" y="12.4517" width="12.8813" height="12.5481" fill="#252424"/>
<rect x="1167.53" y="12.4517" width="12.8813" height="12.5481" fill="#E8E8E8"/>
<rect x="1167.53" width="12.8813" height="12.5481" fill="#252424"/>
<rect x="1180.41" width="12.8813" height="12.5481" fill="#E8E8E8"/>
<rect x="1388.33" y="12.4517" width="12.8813" height="12.5481" fill="#252424"/>
<rect x="1375.45" y="12.4517" width="12.8813" height="12.5481" fill="#E8E8E8"/>
<rect x="1375.45" width="12.8813" height="12.5481" fill="#252424"/>
<rect x="1388.33" width="12.8813" height="12.5481" fill="#E8E8E8"/>
<rect x="1596.24" y="12.4517" width="12.8813" height="12.5481" fill="#252424"/>
<rect x="1583.36" y="12.4517" width="12.8813" height="12.5481" fill="#E8E8E8"/>
<rect x="1583.36" width="12.8813" height="12.5481" fill="#252424"/>
<rect x="1596.24" width="12.8813" height="12.5481" fill="#E8E8E8"/>
<rect x="1804.16" y="12.4517" width="12.8813" height="12.5481" fill="#252424"/>
<rect x="1791.28" y="12.4517" width="12.8813" height="12.5481" fill="#E8E8E8"/>
<rect x="1791.28" width="12.8813" height="12.5481" fill="#252424"/>
<rect x="1804.16" width="12.8813" height="12.5481" fill="#E8E8E8"/>
<rect x="88.8496" y="12.4517" width="12.8813" height="12.5481" fill="#252424"/>
<rect x="75.9686" y="12.4517" width="12.8813" height="12.5481" fill="#E8E8E8"/>
<rect x="75.9686" width="12.8813" height="12.5481" fill="#252424"/>
<rect x="88.8496" width="12.8813" height="12.5481" fill="#E8E8E8"/>
<rect x="504.683" y="12.4517" width="12.8813" height="12.5481" fill="#252424"/>
<rect x="491.802" y="12.4517" width="12.8813" height="12.5481" fill="#E8E8E8"/>
<rect x="491.802" width="12.8813" height="12.5481" fill="#252424"/>
<rect x="504.683" width="12.8813" height="12.5481" fill="#E8E8E8"/>
<rect x="712.599" y="12.4517" width="12.8813" height="12.5481" fill="#252424"/>
<rect x="699.718" y="12.4517" width="12.8813" height="12.5481" fill="#E8E8E8"/>
<rect x="699.718" width="12.8813" height="12.5481" fill="#252424"/>
<rect x="712.599" width="12.8813" height="12.5481" fill="#E8E8E8"/>
<rect x="920.516" y="12.4517" width="12.8813" height="12.5481" fill="#252424"/>
<rect x="907.635" y="12.4517" width="12.8813" height="12.5481" fill="#E8E8E8"/>
<rect x="907.635" width="12.8813" height="12.5481" fill="#252424"/>
<rect x="920.516" width="12.8813" height="12.5481" fill="#E8E8E8"/>
<rect x="1128.43" y="12.4517" width="12.8813" height="12.5481" fill="#252424"/>
<rect x="1115.55" y="12.4517" width="12.8813" height="12.5481" fill="#E8E8E8"/>
<rect x="1115.55" width="12.8813" height="12.5481" fill="#252424"/>
<rect x="1128.43" width="12.8813" height="12.5481" fill="#E8E8E8"/>
<rect x="1336.35" y="12.4517" width="12.8813" height="12.5481" fill="#252424"/>
<rect x="1323.47" y="12.4517" width="12.8813" height="12.5481" fill="#E8E8E8"/>
<rect x="1323.47" width="12.8813" height="12.5481" fill="#252424"/>
<rect x="1336.35" width="12.8813" height="12.5481" fill="#E8E8E8"/>
<rect x="1544.26" y="12.4517" width="12.8813" height="12.5481" fill="#252424"/>
<rect x="1531.38" y="12.4517" width="12.8813" height="12.5481" fill="#E8E8E8"/>
<rect x="1531.38" width="12.8813" height="12.5481" fill="#252424"/>
<rect x="1544.26" width="12.8813" height="12.5481" fill="#E8E8E8"/>
<rect x="1752.18" y="12.4517" width="12.8813" height="12.5481" fill="#252424"/>
<rect x="1739.3" y="12.4517" width="12.8813" height="12.5481" fill="#E8E8E8"/>
<rect x="1739.3" width="12.8813" height="12.5481" fill="#252424"/>
<rect x="1752.18" width="12.8813" height="12.5481" fill="#E8E8E8"/>
<rect x="192.808" y="12.4517" width="12.8813" height="12.5481" fill="#252424"/>
<rect x="179.927" y="12.4517" width="12.8813" height="12.5481" fill="#E8E8E8"/>
<rect x="179.927" width="12.8813" height="12.5481" fill="#252424"/>
<rect x="192.808" width="12.8813" height="12.5481" fill="#E8E8E8"/>
<rect x="400.724" y="12.4517" width="12.8813" height="12.5481" fill="#252424"/>
<rect x="387.843" y="12.4517" width="12.8813" height="12.5481" fill="#E8E8E8"/>
<rect x="387.843" width="12.8813" height="12.5481" fill="#252424"/>
<rect x="400.724" width="12.8813" height="12.5481" fill="#E8E8E8"/>
<rect x="608.641" y="12.4517" width="12.8813" height="12.5481" fill="#252424"/>
<rect x="595.76" y="12.4517" width="12.8813" height="12.5481" fill="#E8E8E8"/>
<rect x="595.76" width="12.8813" height="12.5481" fill="#252424"/>
<rect x="608.641" width="12.8813" height="12.5481" fill="#E8E8E8"/>
<rect x="816.557" y="12.4517" width="12.8813" height="12.5481" fill="#252424"/>
<rect x="803.676" y="12.4517" width="12.8813" height="12.5481" fill="#E8E8E8"/>
<rect x="803.676" width="12.8813" height="12.5481" fill="#252424"/>
<rect x="816.557" width="12.8813" height="12.5481" fill="#E8E8E8"/>
<rect x="1024.47" y="12.4517" width="12.8813" height="12.5481" fill="#252424"/>
<rect x="1011.59" y="12.4517" width="12.8813" height="12.5481" fill="#E8E8E8"/>
<rect x="1011.59" width="12.8813" height="12.5481" fill="#252424"/>
<rect x="1024.47" width="12.8813" height="12.5481" fill="#E8E8E8"/>
<rect x="1232.39" y="12.4517" width="12.8813" height="12.5481" fill="#252424"/>
<rect x="1219.51" y="12.4517" width="12.8813" height="12.5481" fill="#E8E8E8"/>
<rect x="1219.51" width="12.8813" height="12.5481" fill="#252424"/>
<rect x="1232.39" width="12.8813" height="12.5481" fill="#E8E8E8"/>
<rect x="1440.31" y="12.4517" width="12.8813" height="12.5481" fill="#252424"/>
<rect x="1427.43" y="12.4517" width="12.8813" height="12.5481" fill="#E8E8E8"/>
<rect x="1427.43" width="12.8813" height="12.5481" fill="#252424"/>
<rect x="1440.31" width="12.8813" height="12.5481" fill="#E8E8E8"/>
<rect x="1648.22" y="12.4517" width="12.8813" height="12.5481" fill="#252424"/>
<rect x="1635.34" y="12.4517" width="12.8813" height="12.5481" fill="#E8E8E8"/>
<rect x="1635.34" width="12.8813" height="12.5481" fill="#252424"/>
<rect x="1648.22" width="12.8813" height="12.5481" fill="#E8E8E8"/>
<rect x="1856.14" y="12.4517" width="12.8813" height="12.5481" fill="#252424"/>
<rect x="1843.26" y="12.4517" width="12.8813" height="12.5481" fill="#E8E8E8"/>
<rect x="1843.26" width="12.8813" height="12.5481" fill="#252424"/>
<rect x="1856.14" width="12.8813" height="12.5481" fill="#E8E8E8"/>
<rect x="1882.13" y="12.4517" width="12.8813" height="12.5481" fill="#252424"/>
<rect x="1869.25" y="12.4517" width="12.8813" height="12.5481" fill="#E8E8E8"/>
<rect x="1869.25" width="12.8813" height="12.5481" fill="#252424"/>
<rect x="1882.13" width="12.8813" height="12.5481" fill="#E8E8E8"/>
<rect x="1908.12" y="12.4517" width="12.8813" height="12.5481" fill="#252424"/>
<rect x="1895.24" y="12.4517" width="12.8813" height="12.5481" fill="#E8E8E8"/>
<rect x="1895.24" width="12.8813" height="12.5481" fill="#252424"/>
<rect x="1908.12" width="12.8813" height="12.5481" fill="#E8E8E8"/>
</svg>
