<svg width="1948" height="193" viewBox="0 0 1948 193" fill="none" xmlns="http://www.w3.org/2000/svg">
<rect y="97.0229" width="49.9193" height="48.7911" fill="#252424"/>
<rect x="49.9197" y="97.0229" width="49.9193" height="48.7911" fill="#E8E8E8"/>
<rect x="99.8398" y="97.8752" width="49.9193" height="46.9393" fill="#252424"/>
<rect x="149.76" y="97.8752" width="49.9193" height="46.9393" fill="#E8E8E8"/>
<rect x="49.9197" y="144.815" width="49.9193" height="46.9393" fill="#252424"/>
<rect y="144.815" width="49.9193" height="46.9393" fill="#E8E8E8"/>
<rect x="149.76" y="144.815" width="49.9193" height="46.9393" fill="#252424"/>
<rect x="99.8398" y="144.815" width="49.9193" height="46.9393" fill="#E8E8E8"/>
<rect x="199.665" y="96.877" width="49.6628" height="49.9359" fill="#252424"/>
<rect x="249.597" y="97.0291" width="49.9193" height="48.8951" fill="#E8E8E8"/>
<rect x="299.517" y="97.8757" width="49.9193" height="46.9393" fill="#252424"/>
<rect x="349.437" y="97.8757" width="49.9193" height="46.9393" fill="#E8E8E8"/>
<rect x="249.597" y="144.815" width="49.9193" height="46.9393" fill="#252424"/>
<rect x="199.677" y="144.815" width="49.9193" height="46.9393" fill="#E8E8E8"/>
<rect x="349.437" y="144.815" width="49.9193" height="46.9393" fill="#252424"/>
<rect x="299.517" y="144.815" width="49.9193" height="46.9393" fill="#E8E8E8"/>
<rect x="399.356" y="98.0217" width="49.9193" height="46.9393" fill="#252424"/>
<rect x="449.275" y="98.0217" width="49.9193" height="46.9393" fill="#E8E8E8"/>
<rect x="499.193" y="97.8757" width="49.9193" height="46.9393" fill="#252424"/>
<rect x="549.113" y="97.8757" width="49.9193" height="46.9393" fill="#E8E8E8"/>
<rect x="449.275" y="144.815" width="49.9193" height="46.9393" fill="#252424"/>
<rect x="399.356" y="144.815" width="49.9193" height="46.9393" fill="#E8E8E8"/>
<rect x="549.113" y="144.815" width="49.9193" height="46.9393" fill="#252424"/>
<rect x="499.193" y="144.815" width="49.9193" height="46.9393" fill="#E8E8E8"/>
<rect x="599.033" y="98.0217" width="49.9193" height="46.9393" fill="#252424"/>
<rect x="648.954" y="98.0217" width="49.9193" height="46.9393" fill="#E8E8E8"/>
<rect x="698.872" y="97.8757" width="49.9193" height="46.9393" fill="#252424"/>
<rect x="748.792" y="97.8757" width="49.9193" height="46.9393" fill="#E8E8E8"/>
<rect x="648.954" y="144.815" width="49.9193" height="46.9393" fill="#252424"/>
<rect x="599.033" y="144.815" width="49.9193" height="46.9393" fill="#E8E8E8"/>
<rect x="748.792" y="144.815" width="49.9193" height="46.9393" fill="#252424"/>
<rect x="698.872" y="144.815" width="49.9193" height="46.9393" fill="#E8E8E8"/>
<rect x="798.71" y="98.022" width="49.9193" height="46.9393" fill="#252424"/>
<rect x="848.63" y="98.022" width="49.9193" height="46.9393" fill="#E8E8E8"/>
<rect x="898.55" y="97.8757" width="49.9193" height="46.9393" fill="#252424"/>
<rect x="948.47" y="97.8757" width="49.9193" height="46.9393" fill="#E8E8E8"/>
<rect x="848.63" y="144.815" width="49.9193" height="46.9393" fill="#252424"/>
<rect x="798.71" y="144.815" width="49.9193" height="46.9393" fill="#E8E8E8"/>
<rect x="948.47" y="144.815" width="49.9193" height="46.9393" fill="#252424"/>
<rect x="898.55" y="144.815" width="49.9193" height="46.9393" fill="#E8E8E8"/>
<rect x="998.386" y="97.0229" width="49.9193" height="46.9393" fill="#252424"/>
<rect x="1048.31" y="97.0229" width="49.9193" height="46.9393" fill="#E8E8E8"/>
<rect x="1098.23" y="96.877" width="49.9193" height="46.9393" fill="#252424"/>
<rect x="1148.15" y="96.877" width="49.9193" height="46.9393" fill="#E8E8E8"/>
<rect x="1048.31" y="143.816" width="49.9193" height="46.9393" fill="#252424"/>
<rect x="998.386" y="143.816" width="49.9193" height="46.9393" fill="#E8E8E8"/>
<rect x="1148.15" y="143.816" width="49.9193" height="46.9393" fill="#252424"/>
<rect x="1098.23" y="143.816" width="49.9193" height="46.9393" fill="#E8E8E8"/>
<rect x="1198.06" y="97.0227" width="49.9193" height="46.9393" fill="#252424"/>
<rect x="1247.98" y="97.0227" width="49.9193" height="46.9393" fill="#E8E8E8"/>
<rect x="1297.9" y="97.875" width="49.9193" height="46.9393" fill="#252424"/>
<rect x="1347.82" y="97.875" width="49.9193" height="46.9393" fill="#E8E8E8"/>
<rect x="1247.98" y="144.815" width="49.9193" height="46.9393" fill="#252424"/>
<rect x="1198.06" y="144.815" width="49.9193" height="46.9393" fill="#E8E8E8"/>
<rect x="1347.82" y="144.815" width="49.9193" height="46.9393" fill="#252424"/>
<rect x="1297.9" y="144.815" width="49.9193" height="46.9393" fill="#E8E8E8"/>
<rect x="1397.74" y="97.0227" width="49.9193" height="46.9393" fill="#252424"/>
<rect x="1447.66" y="97.0227" width="49.9193" height="46.9393" fill="#E8E8E8"/>
<rect x="1497.58" y="97.875" width="49.9193" height="46.9393" fill="#252424"/>
<rect x="1547.5" y="97.875" width="49.9193" height="46.9393" fill="#E8E8E8"/>
<rect x="1447.66" y="144.815" width="49.9193" height="46.9393" fill="#252424"/>
<rect x="1397.74" y="144.815" width="49.9193" height="46.9393" fill="#E8E8E8"/>
<rect x="1547.5" y="144.815" width="49.9193" height="46.9393" fill="#252424"/>
<rect x="1497.58" y="144.815" width="49.9193" height="46.9393" fill="#E8E8E8"/>
<rect x="1597.42" y="97.0227" width="49.9193" height="46.9393" fill="#252424"/>
<rect x="1647.34" y="97.0227" width="49.9193" height="46.9393" fill="#E8E8E8"/>
<rect x="1697.26" y="97.8757" width="49.9193" height="46.9393" fill="#252424"/>
<rect x="1747.18" y="97.8757" width="49.9193" height="46.9393" fill="#E8E8E8"/>
<rect x="1796.81" y="97.8757" width="49.9193" height="46.9393" fill="#252424"/>
<rect x="1896.05" y="97.8757" width="49.9193" height="46.9393" fill="#252424"/>
<rect x="1846.73" y="97.8757" width="49.9193" height="46.9393" fill="#E8E8E8"/>
<rect x="1647.34" y="144.815" width="49.9193" height="46.9393" fill="#252424"/>
<rect x="1597.42" y="144.815" width="49.9193" height="46.9393" fill="#E8E8E8"/>
<rect x="1747.18" y="144.815" width="49.9193" height="46.9393" fill="#252424"/>
<rect x="1697.26" y="144.815" width="49.9193" height="46.9393" fill="#E8E8E8"/>
<rect x="1846.73" y="144.144" width="49.9193" height="46.9393" fill="#252424"/>
<rect x="1796.81" y="144.144" width="49.9193" height="46.9393" fill="#E8E8E8"/>
<rect x="1896.05" y="144.144" width="49.9193" height="46.9393" fill="#E8E8E8"/>
<line y1="-0.5" x2="1945.97" y2="-0.5" transform="matrix(1 -0.000513223 0.000528556 1 0 192.754)" stroke="black"/>
<line y1="97.3757" x2="1945.97" y2="97.3757" stroke="black"/>
<rect x="2.0271" y="1.146" width="49.9193" height="48.7911" fill="#252424"/>
<rect x="51.9468" y="1.146" width="49.9193" height="48.7911" fill="#E8E8E8"/>
<rect x="101.867" y="1.99829" width="49.9193" height="46.9393" fill="#252424"/>
<rect x="151.787" y="1.99829" width="49.9193" height="46.9393" fill="#E8E8E8"/>
<rect x="51.9468" y="48.9382" width="49.9193" height="46.9393" fill="#252424"/>
<rect x="2.0271" y="48.9382" width="49.9193" height="46.9393" fill="#E8E8E8"/>
<rect x="151.787" y="48.9382" width="49.9193" height="46.9393" fill="#252424"/>
<rect x="101.867" y="48.9382" width="49.9193" height="46.9393" fill="#E8E8E8"/>
<rect x="201.692" y="1" width="49.6628" height="49.9359" fill="#252424"/>
<rect x="251.624" y="1.1521" width="49.9193" height="48.8951" fill="#E8E8E8"/>
<rect x="301.544" y="1.99878" width="49.9193" height="46.9393" fill="#252424"/>
<rect x="351.464" y="1.99878" width="49.9193" height="46.9393" fill="#E8E8E8"/>
<rect x="251.624" y="48.9377" width="49.9193" height="46.9393" fill="#252424"/>
<rect x="201.704" y="48.9377" width="49.9193" height="46.9393" fill="#E8E8E8"/>
<rect x="351.464" y="48.9377" width="49.9193" height="46.9393" fill="#252424"/>
<rect x="301.544" y="48.9377" width="49.9193" height="46.9393" fill="#E8E8E8"/>
<rect x="401.383" y="2.14478" width="49.9193" height="46.9393" fill="#252424"/>
<rect x="451.302" y="2.14478" width="49.9193" height="46.9393" fill="#E8E8E8"/>
<rect x="501.221" y="1.99878" width="49.9193" height="46.9393" fill="#252424"/>
<rect x="551.14" y="1.99878" width="49.9193" height="46.9393" fill="#E8E8E8"/>
<rect x="451.302" y="48.9382" width="49.9193" height="46.9393" fill="#252424"/>
<rect x="401.383" y="48.9382" width="49.9193" height="46.9393" fill="#E8E8E8"/>
<rect x="551.14" y="48.9377" width="49.9193" height="46.9393" fill="#252424"/>
<rect x="501.221" y="48.9377" width="49.9193" height="46.9393" fill="#E8E8E8"/>
<rect x="601.061" y="2.14478" width="49.9193" height="46.9393" fill="#252424"/>
<rect x="650.98" y="2.14478" width="49.9193" height="46.9393" fill="#E8E8E8"/>
<rect x="700.899" y="1.99878" width="49.9193" height="46.9393" fill="#252424"/>
<rect x="750.818" y="1.99878" width="49.9193" height="46.9393" fill="#E8E8E8"/>
<rect x="650.98" y="48.9382" width="49.9193" height="46.9393" fill="#252424"/>
<rect x="601.061" y="48.9382" width="49.9193" height="46.9393" fill="#E8E8E8"/>
<rect x="750.818" y="48.9377" width="49.9193" height="46.9393" fill="#252424"/>
<rect x="700.899" y="48.9377" width="49.9193" height="46.9393" fill="#E8E8E8"/>
<rect x="800.737" y="2.14478" width="49.9193" height="46.9393" fill="#252424"/>
<rect x="850.657" y="2.14478" width="49.9193" height="46.9393" fill="#E8E8E8"/>
<rect x="900.577" y="1.99878" width="49.9193" height="46.9393" fill="#252424"/>
<rect x="950.498" y="1.99878" width="49.9193" height="46.9393" fill="#E8E8E8"/>
<rect x="850.657" y="48.9382" width="49.9193" height="46.9393" fill="#252424"/>
<rect x="800.737" y="48.9382" width="49.9193" height="46.9393" fill="#E8E8E8"/>
<rect x="950.498" y="48.9377" width="49.9193" height="46.9393" fill="#252424"/>
<rect x="900.577" y="48.9377" width="49.9193" height="46.9393" fill="#E8E8E8"/>
<rect x="1000.41" y="1.146" width="49.9193" height="46.9393" fill="#252424"/>
<rect x="1050.33" y="1.146" width="49.9193" height="46.9393" fill="#E8E8E8"/>
<rect x="1100.25" y="1" width="49.9193" height="46.9393" fill="#252424"/>
<rect x="1150.17" y="1" width="49.9193" height="46.9393" fill="#E8E8E8"/>
<rect x="1050.33" y="47.9392" width="49.9193" height="46.9393" fill="#252424"/>
<rect x="1000.41" y="47.9392" width="49.9193" height="46.9393" fill="#E8E8E8"/>
<rect x="1150.17" y="47.9392" width="49.9193" height="46.9393" fill="#252424"/>
<rect x="1100.25" y="47.9392" width="49.9193" height="46.9393" fill="#E8E8E8"/>
<rect x="1200.09" y="1.14575" width="49.9193" height="46.9393" fill="#252424"/>
<rect x="1250.01" y="1.14575" width="49.9193" height="46.9393" fill="#E8E8E8"/>
<rect x="1299.93" y="1.99805" width="49.9193" height="46.9393" fill="#252424"/>
<rect x="1349.85" y="1.99805" width="49.9193" height="46.9393" fill="#E8E8E8"/>
<rect x="1250.01" y="48.9377" width="49.9193" height="46.9393" fill="#252424"/>
<rect x="1200.09" y="48.9377" width="49.9193" height="46.9393" fill="#E8E8E8"/>
<rect x="1349.85" y="48.9377" width="49.9193" height="46.9393" fill="#252424"/>
<rect x="1299.93" y="48.9377" width="49.9193" height="46.9393" fill="#E8E8E8"/>
<rect x="1399.77" y="1.14575" width="49.9193" height="46.9393" fill="#252424"/>
<rect x="1449.69" y="1.14575" width="49.9193" height="46.9393" fill="#E8E8E8"/>
<rect x="1499.61" y="1.99805" width="49.9193" height="46.9393" fill="#252424"/>
<rect x="1549.53" y="1.99805" width="49.9193" height="46.9393" fill="#E8E8E8"/>
<rect x="1449.69" y="48.9377" width="49.9193" height="46.9393" fill="#252424"/>
<rect x="1399.77" y="48.9377" width="49.9193" height="46.9393" fill="#E8E8E8"/>
<rect x="1549.53" y="48.9377" width="49.9193" height="46.9393" fill="#252424"/>
<rect x="1499.61" y="48.9377" width="49.9193" height="46.9393" fill="#E8E8E8"/>
<rect x="1599.45" y="1.14575" width="49.9193" height="46.9393" fill="#252424"/>
<rect x="1649.37" y="1.14575" width="49.9193" height="46.9393" fill="#E8E8E8"/>
<rect x="1699.28" y="1.99878" width="49.9193" height="46.9393" fill="#252424"/>
<rect x="1749.2" y="1.99878" width="49.9193" height="46.9393" fill="#E8E8E8"/>
<rect x="1798.83" y="1.99878" width="49.9193" height="46.9393" fill="#252424"/>
<rect x="1898.08" y="1.99878" width="49.9193" height="46.9393" fill="#252424"/>
<rect x="1848.75" y="1.99878" width="49.9193" height="46.9393" fill="#E8E8E8"/>
<rect x="1649.37" y="48.9377" width="49.9193" height="46.9393" fill="#252424"/>
<rect x="1599.45" y="48.9377" width="49.9193" height="46.9393" fill="#E8E8E8"/>
<rect x="1749.2" y="48.9377" width="49.9193" height="46.9393" fill="#252424"/>
<rect x="1699.28" y="48.9377" width="49.9193" height="46.9393" fill="#E8E8E8"/>
<rect x="1848.75" y="48.2673" width="49.9193" height="46.9393" fill="#252424"/>
<rect x="1798.83" y="48.2673" width="49.9193" height="46.9393" fill="#E8E8E8"/>
<rect x="1898.08" y="48.2673" width="49.9193" height="46.9393" fill="#E8E8E8"/>
<line y1="-0.5" x2="1945.97" y2="-0.5" transform="matrix(1 -0.000690271 0.000392987 1 2.0271 96.877)" stroke="black"/>
<line x1="2.0271" y1="1.49878" x2="1948" y2="1.49878" stroke="black"/>
</svg>
