<svg width="30" height="464" viewBox="0 0 30 464" fill="none" xmlns="http://www.w3.org/2000/svg">
<rect x="28.5244" width="15.5361" height="14.2844" transform="rotate(90 28.5244 0)" fill="#403B3B"/>
<rect x="28.5244" y="15.5366" width="15.5361" height="14.2844" transform="rotate(90 28.5244 15.5366)" fill="#E8E8E8"/>
<rect x="28.5693" y="31.0723" width="15.5361" height="14.2844" transform="rotate(90 28.5693 31.0723)" fill="#403B3B"/>
<rect x="28.5693" y="46.6089" width="15.5361" height="14.2844" transform="rotate(90 28.5693 46.6089)" fill="#E8E8E8"/>
<rect x="14.2861" y="15.5366" width="15.5361" height="14.2844" transform="rotate(90 14.2861 15.5366)" fill="#403B3B" fill-opacity="0.8"/>
<rect x="14.2861" width="15.5361" height="14.2844" transform="rotate(90 14.2861 0)" fill="#E8E8E8"/>
<rect x="14.2861" y="46.6094" width="15.5361" height="14.2844" transform="rotate(90 14.2861 46.6094)" fill="#403B3B"/>
<rect x="14.2861" y="31.0723" width="15.5361" height="14.2844" transform="rotate(90 14.2861 31.0723)" fill="#E8E8E8"/>
<rect x="28.5234" y="61.686" width="15.5361" height="14.2844" transform="rotate(90 28.5234 61.686)" fill="#403B3B"/>
<rect x="28.5234" y="77.2222" width="15.5361" height="14.2844" transform="rotate(90 28.5234 77.2222)" fill="#E8E8E8"/>
<rect x="28.5684" y="92.7588" width="15.5361" height="14.2844" transform="rotate(90 28.5684 92.7588)" fill="#403B3B"/>
<rect x="28.5684" y="108.295" width="15.5361" height="14.2844" transform="rotate(90 28.5684 108.295)" fill="#E8E8E8"/>
<rect x="14.2842" y="77.2222" width="15.5361" height="14.2844" transform="rotate(90 14.2842 77.2222)" fill="#403B3B" fill-opacity="0.8"/>
<rect x="14.2842" y="61.686" width="15.5361" height="14.2844" transform="rotate(90 14.2842 61.686)" fill="#E8E8E8"/>
<rect x="14.2842" y="108.295" width="15.5361" height="14.2844" transform="rotate(90 14.2842 108.295)" fill="#403B3B"/>
<rect x="14.2842" y="92.7588" width="15.5361" height="14.2844" transform="rotate(90 14.2842 92.7588)" fill="#E8E8E8"/>
<rect x="28.5234" y="122.913" width="15.5361" height="14.2844" transform="rotate(90 28.5234 122.913)" fill="#403B3B"/>
<rect x="28.5234" y="138.45" width="15.5361" height="14.2844" transform="rotate(90 28.5234 138.45)" fill="#E8E8E8"/>
<rect x="28.5684" y="153.986" width="15.5361" height="14.2844" transform="rotate(90 28.5684 153.986)" fill="#403B3B"/>
<rect x="28.5684" y="169.522" width="15.5361" height="14.2844" transform="rotate(90 28.5684 169.522)" fill="#E8E8E8"/>
<rect x="14.2842" y="138.45" width="15.5361" height="14.2844" transform="rotate(90 14.2842 138.45)" fill="#403B3B" fill-opacity="0.8"/>
<rect x="14.2842" y="122.913" width="15.5361" height="14.2844" transform="rotate(90 14.2842 122.913)" fill="#E8E8E8"/>
<rect x="14.2842" y="169.522" width="15.5361" height="14.2844" transform="rotate(90 14.2842 169.522)" fill="#403B3B"/>
<rect x="14.2842" y="153.986" width="15.5361" height="14.2844" transform="rotate(90 14.2842 153.986)" fill="#E8E8E8"/>
<rect x="29.2959" y="184.916" width="15.5361" height="14.2844" transform="rotate(90 29.2959 184.916)" fill="#403B3B"/>
<rect x="29.2959" y="200.453" width="15.5361" height="14.2844" transform="rotate(90 29.2959 200.453)" fill="#E8E8E8"/>
<rect x="29.3398" y="215.989" width="15.5361" height="14.2844" transform="rotate(90 29.3398 215.989)" fill="#403B3B"/>
<rect x="29.3398" y="231.525" width="15.5361" height="14.2844" transform="rotate(90 29.3398 231.525)" fill="#E8E8E8"/>
<rect x="15.0566" y="200.453" width="15.5361" height="14.2844" transform="rotate(90 15.0566 200.453)" fill="#403B3B" fill-opacity="0.8"/>
<rect x="15.0566" y="184.917" width="15.5361" height="14.2844" transform="rotate(90 15.0566 184.917)" fill="#E8E8E8"/>
<rect x="15.0557" y="231.526" width="15.5361" height="14.2844" transform="rotate(90 15.0557 231.526)" fill="#403B3B"/>
<rect x="15.0557" y="215.99" width="15.5361" height="14.2844" transform="rotate(90 15.0557 215.99)" fill="#E8E8E8"/>
<rect x="29.2959" y="246.918" width="15.5361" height="14.2844" transform="rotate(90 29.2959 246.918)" fill="#403B3B"/>
<rect x="29.2959" y="262.455" width="15.5361" height="14.2844" transform="rotate(90 29.2959 262.455)" fill="#E8E8E8"/>
<rect x="29.3398" y="277.991" width="15.5361" height="14.2844" transform="rotate(90 29.3398 277.991)" fill="#403B3B"/>
<rect x="29.3398" y="293.528" width="15.5361" height="14.2844" transform="rotate(90 29.3398 293.528)" fill="#E8E8E8"/>
<rect x="15.0557" y="262.456" width="15.5361" height="14.2844" transform="rotate(90 15.0557 262.456)" fill="#403B3B" fill-opacity="0.8"/>
<rect x="15.0557" y="246.918" width="15.5361" height="14.2844" transform="rotate(90 15.0557 246.918)" fill="#E8E8E8"/>
<rect x="15.0557" y="293.528" width="15.5361" height="14.2844" transform="rotate(90 15.0557 293.528)" fill="#403B3B"/>
<rect x="15.0557" y="277.991" width="15.5361" height="14.2844" transform="rotate(90 15.0557 277.991)" fill="#E8E8E8"/>
<rect x="29.2959" y="308.921" width="15.5361" height="14.2844" transform="rotate(90 29.2959 308.921)" fill="#403B3B"/>
<rect x="29.2959" y="324.458" width="15.5361" height="14.2844" transform="rotate(90 29.2959 324.458)" fill="#E8E8E8"/>
<rect x="29.3398" y="339.995" width="15.5361" height="14.2844" transform="rotate(90 29.3398 339.995)" fill="#403B3B"/>
<rect x="29.3398" y="355.531" width="15.5361" height="14.2844" transform="rotate(90 29.3398 355.531)" fill="#E8E8E8"/>
<rect x="15.0557" y="324.459" width="15.5361" height="14.2844" transform="rotate(90 15.0557 324.459)" fill="#403B3B" fill-opacity="0.8"/>
<rect x="15.0557" y="308.921" width="15.5361" height="14.2844" transform="rotate(90 15.0557 308.921)" fill="#E8E8E8"/>
<rect x="15.0557" y="355.531" width="15.5361" height="14.2844" transform="rotate(90 15.0557 355.531)" fill="#403B3B"/>
<rect x="15.0557" y="339.995" width="15.5361" height="14.2844" transform="rotate(90 15.0557 339.995)" fill="#E8E8E8"/>
<rect x="29.2959" y="370.924" width="15.5361" height="14.2844" transform="rotate(90 29.2959 370.924)" fill="#403B3B"/>
<rect x="29.2959" y="386.461" width="15.5361" height="14.2844" transform="rotate(90 29.2959 386.461)" fill="#E8E8E8"/>
<rect x="29.3398" y="401.998" width="15.5361" height="14.2844" transform="rotate(90 29.3398 401.998)" fill="#403B3B"/>
<rect x="29.3398" y="417.534" width="15.5361" height="14.2844" transform="rotate(90 29.3398 417.534)" fill="#E8E8E8"/>
<rect x="15.0566" y="386.461" width="15.5361" height="14.2844" transform="rotate(90 15.0566 386.461)" fill="#403B3B" fill-opacity="0.74902"/>
<rect x="15.0566" y="370.925" width="15.5361" height="14.2844" transform="rotate(90 15.0566 370.925)" fill="#E8E8E8"/>
<rect x="15.0557" y="417.535" width="15.5361" height="14.2844" transform="rotate(90 15.0557 417.535)" fill="#403B3B"/>
<rect x="15.0557" y="401.998" width="15.5361" height="14.2844" transform="rotate(90 15.0557 401.998)" fill="#E8E8E8"/>
<rect x="29.2959" y="432.927" width="15.5361" height="14.2844" transform="rotate(90 29.2959 432.927)" fill="#403B3B"/>
<rect x="29.2959" y="448.463" width="15.5361" height="14.2844" transform="rotate(90 29.2959 448.463)" fill="#E8E8E8"/>
<rect x="15.0557" y="448.464" width="15.5361" height="14.2844" transform="rotate(90 15.0557 448.464)" fill="#403B3B" fill-opacity="0.8"/>
<rect x="15.0557" y="432.927" width="15.5361" height="14.2844" transform="rotate(90 15.0557 432.927)" fill="#E8E8E8"/>
</svg>
