<svg width="386" height="40" viewBox="0 0 386 40" fill="none" xmlns="http://www.w3.org/2000/svg">
<rect x="154.018" y="39.4473" width="19.2547" height="19.7543" transform="rotate(-180 154.018 39.4473)" fill="#A33A3A"/>
<rect x="134.764" y="39.4473" width="19.2547" height="19.7543" transform="rotate(-180 134.764 39.4473)" fill="#E8E8E8"/>
<rect x="115.509" y="39.5088" width="19.2547" height="19.7543" transform="rotate(-180 115.509 39.5088)" fill="#A33A3A"/>
<rect x="96.2546" y="39.509" width="19.2547" height="19.7543" transform="rotate(-180 96.2546 39.509)" fill="#E8E8E8"/>
<rect x="134.764" y="19.7546" width="19.2547" height="19.7543" transform="rotate(-180 134.764 19.7546)" fill="#A33A3A"/>
<rect x="154.018" y="19.7544" width="19.2547" height="19.7543" transform="rotate(-180 154.018 19.7544)" fill="#E8E8E8"/>
<rect x="96.2546" y="19.7546" width="19.2547" height="19.7543" transform="rotate(-180 96.2546 19.7546)" fill="#A33A3A"/>
<rect x="115.509" y="19.7544" width="19.2547" height="19.7543" transform="rotate(-180 115.509 19.7544)" fill="#E8E8E8"/>
<rect x="77.0183" y="39.4468" width="19.2547" height="19.7543" transform="rotate(-180 77.0183 39.4468)" fill="#A33A3A"/>
<rect x="57.7644" y="39.4468" width="19.2547" height="19.7543" transform="rotate(-180 57.7644 39.4468)" fill="#E8E8E8"/>
<rect x="38.5085" y="39.5081" width="19.2547" height="19.7543" transform="rotate(-180 38.5085 39.5081)" fill="#A33A3A"/>
<rect x="19.2546" y="39.5081" width="19.2547" height="19.7543" transform="rotate(-180 19.2546 39.5081)" fill="#E8E8E8"/>
<rect x="57.7644" y="19.7542" width="19.2547" height="19.7543" transform="rotate(-180 57.7644 19.7542)" fill="#A33A3A"/>
<rect x="77.0183" y="19.7539" width="19.2547" height="19.7543" transform="rotate(-180 77.0183 19.7539)" fill="#E8E8E8"/>
<rect x="19.2546" y="19.7542" width="19.2547" height="19.7543" transform="rotate(-180 19.2546 19.7542)" fill="#A33A3A"/>
<rect x="38.5085" y="19.7539" width="19.2547" height="19.7543" transform="rotate(-180 38.5085 19.7539)" fill="#E8E8E8"/>
<rect x="231.018" y="39.446" width="19.2547" height="19.7543" transform="rotate(-180 231.018 39.446)" fill="#A33A3A"/>
<rect x="211.762" y="39.4458" width="19.2547" height="19.7543" transform="rotate(-180 211.762 39.4458)" fill="#E8E8E8"/>
<rect x="192.509" y="39.5078" width="19.2547" height="19.7543" transform="rotate(-180 192.509 39.5078)" fill="#A33A3A"/>
<rect x="173.255" y="39.5076" width="19.2547" height="19.7543" transform="rotate(-180 173.255 39.5076)" fill="#E8E8E8"/>
<rect x="211.762" y="19.7534" width="19.2547" height="19.7543" transform="rotate(-180 211.762 19.7534)" fill="#A33A3A"/>
<rect x="231.018" y="19.7534" width="19.2547" height="19.7543" transform="rotate(-180 231.018 19.7534)" fill="#E8E8E8"/>
<rect x="173.255" y="19.7534" width="19.2547" height="19.7543" transform="rotate(-180 173.255 19.7534)" fill="#A33A3A"/>
<rect x="192.509" y="19.7534" width="19.2547" height="19.7543" transform="rotate(-180 192.509 19.7534)" fill="#E8E8E8"/>
<rect x="308.019" y="39.4475" width="19.2547" height="19.7543" transform="rotate(-180 308.019 39.4475)" fill="#A33A3A"/>
<rect x="288.765" y="39.4475" width="19.2547" height="19.7543" transform="rotate(-180 288.765 39.4475)" fill="#E8E8E8"/>
<rect x="269.509" y="39.5088" width="19.2547" height="19.7543" transform="rotate(-180 269.509 39.5088)" fill="#A33A3A"/>
<rect x="250.255" y="39.509" width="19.2547" height="19.7543" transform="rotate(-180 250.255 39.509)" fill="#E8E8E8"/>
<rect x="288.765" y="19.7546" width="19.2547" height="19.7543" transform="rotate(-180 288.765 19.7546)" fill="#A33A3A"/>
<rect x="308.019" y="19.7544" width="19.2547" height="19.7543" transform="rotate(-180 308.019 19.7544)" fill="#E8E8E8"/>
<rect x="250.255" y="19.7546" width="19.2547" height="19.7543" transform="rotate(-180 250.255 19.7546)" fill="#A33A3A"/>
<rect x="269.509" y="19.7544" width="19.2547" height="19.7543" transform="rotate(-180 269.509 19.7544)" fill="#E8E8E8"/>
<rect x="385.019" y="39.4475" width="19.2547" height="19.7543" transform="rotate(-180 385.019 39.4475)" fill="#A33A3A"/>
<rect x="365.765" y="39.4475" width="19.2547" height="19.7543" transform="rotate(-180 365.765 39.4475)" fill="#E8E8E8"/>
<rect x="346.509" y="39.5088" width="19.2547" height="19.7543" transform="rotate(-180 346.509 39.5088)" fill="#A33A3A"/>
<rect x="327.255" y="39.5088" width="19.2547" height="19.7543" transform="rotate(-180 327.255 39.5088)" fill="#E8E8E8"/>
<rect x="365.765" y="19.7544" width="19.2547" height="19.7543" transform="rotate(-180 365.765 19.7544)" fill="#A33A3A"/>
<rect x="385.019" y="19.7544" width="19.2547" height="19.7543" transform="rotate(-180 385.019 19.7544)" fill="#E8E8E8"/>
<rect x="327.255" y="19.7544" width="19.2547" height="19.7543" transform="rotate(-180 327.255 19.7544)" fill="#A33A3A"/>
<rect x="346.509" y="19.7544" width="19.2547" height="19.7543" transform="rotate(-180 346.509 19.7544)" fill="#E8E8E8"/>
</svg>
