<svg width="350" height="177" viewBox="0 0 350 177" fill="none" xmlns="http://www.w3.org/2000/svg">
<path d="M65.9971 79.454H56.897V74.539H87.5025V79.454H78.4024V106.454H65.9971V79.454Z" fill="#EBEBEB"/>
<path d="M91.5159 91.8163H106.261V95.8513H91.5159V91.8163Z" fill="#EBEBEB"/>
<path d="M114.223 99.3711C115.74 100.144 117.328 100.723 118.988 101.11C120.648 101.496 122.193 101.689 123.624 101.689C125.269 101.689 126.471 101.453 127.23 100.981C128.002 100.509 128.388 99.8648 128.388 99.0492C128.388 98.7916 128.338 98.5269 128.238 98.2551C128.152 97.9832 127.974 97.7185 127.702 97.461C127.444 97.1891 127.079 96.9244 126.607 96.6669C126.149 96.395 125.548 96.1303 124.804 95.8727L120.962 94.5635C118.215 93.6192 116.148 92.3457 114.76 90.7432C113.372 89.1264 112.678 87.2091 112.678 84.9913C112.678 83.5604 112.978 82.1868 113.579 80.8705C114.18 79.5398 115.089 78.3737 116.305 77.3721C117.521 76.3562 119.052 75.5478 120.898 74.9468C122.758 74.3459 124.933 74.0454 127.423 74.0454C128.653 74.0454 129.834 74.117 130.964 74.26C132.094 74.4031 133.153 74.5891 134.14 74.8181C135.142 75.047 136.058 75.3117 136.888 75.6122C137.717 75.8983 138.447 76.1845 139.077 76.4707L136.759 80.6559C136.301 80.3697 135.814 80.1193 135.299 79.9047C134.799 79.69 134.291 79.5112 133.776 79.3681C133.275 79.225 132.781 79.1177 132.295 79.0462C131.808 78.9746 131.365 78.9389 130.964 78.9389C130.277 78.9389 129.676 79.0319 129.161 79.2179C128.646 79.3896 128.21 79.6257 127.852 79.9261C127.509 80.2123 127.244 80.5414 127.058 80.9134C126.886 81.2711 126.8 81.6288 126.8 81.9865C126.8 82.3013 126.872 82.6089 127.015 82.9094C127.172 83.1956 127.43 83.4817 127.788 83.7679C128.16 84.0398 128.639 84.3188 129.226 84.6049C129.826 84.8768 130.57 85.163 131.458 85.4634L134.033 86.3219C136.823 87.252 138.955 88.5326 140.429 90.1637C141.903 91.7949 142.64 93.7694 142.64 96.0874C142.64 97.6613 142.282 99.1136 141.566 100.444C140.865 101.775 139.814 102.927 138.411 103.9C137.009 104.858 135.264 105.61 133.175 106.153C131.1 106.683 128.689 106.947 125.942 106.947C124.625 106.947 123.352 106.876 122.121 106.733C120.905 106.604 119.71 106.404 118.537 106.132C117.378 105.86 116.234 105.517 115.103 105.102C113.973 104.687 112.842 104.2 111.712 103.642L114.223 99.3711Z" fill="#EBEBEB"/>
<path d="M148.606 74.5605H161.011V87.9316H170.176V74.5605H182.603L182.581 106.454H170.176V92.8465H161.011V106.454H148.606V74.5605Z" fill="#EBEBEB"/>
<path d="M190.758 74.5605H203.185L203.164 106.454H190.758V74.5605Z" fill="#EBEBEB"/>
<path d="M211.362 74.5605H229.756C232.131 74.5605 234.206 74.8109 235.98 75.3117C237.768 75.8125 239.256 76.5136 240.444 77.415C241.646 78.3164 242.547 79.3967 243.148 80.6559C243.749 81.915 244.05 83.3029 244.05 84.8196C244.05 86.694 243.606 88.3609 242.719 89.8203C241.832 91.2655 240.516 92.4173 238.77 93.2758L245.466 106.475H231.451L226.386 94.8855H223.768V106.454H211.362V74.5605ZM224.519 91.0008C225.535 91.0008 226.443 90.8577 227.245 90.5715C228.046 90.2853 228.726 89.8847 229.284 89.3696C229.842 88.8402 230.271 88.2178 230.571 87.5024C230.872 86.7727 231.022 85.9785 231.022 85.12C231.022 84.2615 230.872 83.4746 230.571 82.7592C230.271 82.0295 229.842 81.407 229.284 80.8919C228.726 80.3625 228.046 79.9547 227.245 79.6686C226.443 79.3824 225.535 79.2393 224.519 79.2393H223.789L223.768 91.0008H224.519Z" fill="#EBEBEB"/>
<path d="M257.013 79.454H247.913V74.539H278.518V79.454H269.418V106.454H257.013V79.454Z" fill="#EBEBEB"/>
<path d="M285.588 29.8014C287.493 33.6303 286.269 38.9478 282.085 45.426C277.922 51.8722 270.922 59.3137 261.611 67.2783C242.995 83.2023 215.228 101.142 182.723 117.312C150.218 133.482 119.159 144.805 95.229 150.046C83.2599 152.668 73.1022 153.762 65.4496 153.193C57.7588 152.622 52.7799 150.39 50.8752 146.561C48.9705 142.732 50.1937 137.415 54.3777 130.937C58.5411 124.49 65.5409 117.049 74.8521 109.084C93.4683 93.1604 121.235 75.2203 153.74 59.0504C186.245 42.8805 217.304 31.5574 241.234 26.3162C253.203 23.6947 263.361 22.6011 271.013 23.1693C278.704 23.7403 283.683 25.9725 285.588 29.8014Z" stroke="#EBEBEB"/>
<path d="M17.723 30.219C17.723 42.5995 10.37 53.6759 0 53.6759C10.37 53.6759 17.723 64.753 17.723 77.1328C17.723 64.753 25.076 53.6759 35.446 53.6759C25.076 53.6759 17.723 42.5995 17.723 30.219Z" fill="#EBEBEB"/>
<path d="M332.277 100.959C332.277 113.34 324.924 124.416 314.554 124.416C324.924 124.416 332.277 135.493 332.277 147.873C332.277 135.493 339.63 124.416 350 124.416C339.63 124.416 332.277 113.34 332.277 100.959Z" fill="#EBEBEB"/>
</svg>
