<svg width="386" height="40" viewBox="0 0 386 40" fill="none" xmlns="http://www.w3.org/2000/svg">
<rect width="19.2547" height="19.7543" transform="matrix(1 -8.96913e-08 -8.52117e-08 -1 231 39.4473)" fill="#A33A3A"/>
<rect width="19.2547" height="19.7543" transform="matrix(1 -8.96913e-08 -8.52117e-08 -1 250.254 39.4473)" fill="#E8E8E8"/>
<rect width="19.2547" height="19.7543" transform="matrix(1 -8.96913e-08 -8.52117e-08 -1 269.51 39.5088)" fill="#A33A3A"/>
<rect width="19.2547" height="19.7543" transform="matrix(1 -8.96913e-08 -8.52117e-08 -1 288.764 39.509)" fill="#E8E8E8"/>
<rect width="19.2547" height="19.7543" transform="matrix(1 -8.96913e-08 -8.52117e-08 -1 250.254 19.7546)" fill="#A33A3A"/>
<rect width="19.2547" height="19.7543" transform="matrix(1 -8.96913e-08 -8.52117e-08 -1 231 19.7544)" fill="#E8E8E8"/>
<rect width="19.2547" height="19.7543" transform="matrix(1 -8.96913e-08 -8.52117e-08 -1 288.764 19.7546)" fill="#A33A3A"/>
<rect width="19.2547" height="19.7543" transform="matrix(1 -8.96913e-08 -8.52117e-08 -1 269.51 19.7544)" fill="#E8E8E8"/>
<rect width="19.2547" height="19.7543" transform="matrix(1 -8.96913e-08 -8.52117e-08 -1 308 39.448)" fill="#A33A3A"/>
<rect width="19.2547" height="19.7543" transform="matrix(1 -8.96913e-08 -8.52117e-08 -1 327.254 39.448)" fill="#E8E8E8"/>
<rect width="19.2547" height="19.7543" transform="matrix(1 -8.96913e-08 -8.52117e-08 -1 346.51 39.5093)" fill="#A33A3A"/>
<rect width="19.2547" height="19.7543" transform="matrix(1 -8.96913e-08 -8.52117e-08 -1 365.764 39.5093)" fill="#E8E8E8"/>
<rect width="19.2547" height="19.7543" transform="matrix(1 -8.96913e-08 -8.52117e-08 -1 327.254 19.7554)" fill="#A33A3A"/>
<rect width="19.2547" height="19.7543" transform="matrix(1 -8.96913e-08 -8.52117e-08 -1 308 19.7551)" fill="#E8E8E8"/>
<rect width="19.2547" height="19.7543" transform="matrix(1 -8.96913e-08 -8.52117e-08 -1 365.764 19.7554)" fill="#A33A3A"/>
<rect width="19.2547" height="19.7543" transform="matrix(1 -8.96913e-08 -8.52117e-08 -1 346.51 19.7551)" fill="#E8E8E8"/>
<rect width="19.2547" height="19.7543" transform="matrix(1 -8.96913e-08 -8.52117e-08 -1 154 39.4468)" fill="#A33A3A"/>
<rect width="19.2547" height="19.7543" transform="matrix(1 -8.96913e-08 -8.52117e-08 -1 173.256 39.4465)" fill="#E8E8E8"/>
<rect width="19.2547" height="19.7543" transform="matrix(1 -8.96913e-08 -8.52117e-08 -1 192.51 39.5085)" fill="#A33A3A"/>
<rect width="19.2547" height="19.7543" transform="matrix(1 -8.96913e-08 -8.52117e-08 -1 211.763 39.5083)" fill="#E8E8E8"/>
<rect width="19.2547" height="19.7543" transform="matrix(1 -8.96913e-08 -8.52117e-08 -1 173.256 19.7542)" fill="#A33A3A"/>
<rect width="19.2547" height="19.7543" transform="matrix(1 -8.96913e-08 -8.52117e-08 -1 154 19.7542)" fill="#E8E8E8"/>
<rect width="19.2547" height="19.7543" transform="matrix(1 -8.96913e-08 -8.52117e-08 -1 211.764 19.7542)" fill="#A33A3A"/>
<rect width="19.2547" height="19.7543" transform="matrix(1 -8.96913e-08 -8.52117e-08 -1 192.51 19.7542)" fill="#E8E8E8"/>
<rect width="19.2547" height="19.7543" transform="matrix(1 -8.96913e-08 -8.52117e-08 -1 77 39.4475)" fill="#A33A3A"/>
<rect width="19.2547" height="19.7543" transform="matrix(1 -8.96913e-08 -8.52117e-08 -1 96.2539 39.4475)" fill="#E8E8E8"/>
<rect width="19.2547" height="19.7543" transform="matrix(1 -8.96913e-08 -8.52117e-08 -1 115.51 39.5088)" fill="#A33A3A"/>
<rect width="19.2547" height="19.7543" transform="matrix(1 -8.96913e-08 -8.52117e-08 -1 134.764 39.509)" fill="#E8E8E8"/>
<rect width="19.2547" height="19.7543" transform="matrix(1 -8.96913e-08 -8.52117e-08 -1 96.2539 19.7546)" fill="#A33A3A"/>
<rect width="19.2547" height="19.7543" transform="matrix(1 -8.96913e-08 -8.52117e-08 -1 77 19.7544)" fill="#E8E8E8"/>
<rect width="19.2547" height="19.7543" transform="matrix(1 -8.96913e-08 -8.52117e-08 -1 134.764 19.7546)" fill="#A33A3A"/>
<rect width="19.2547" height="19.7543" transform="matrix(1 -8.96913e-08 -8.52117e-08 -1 115.51 19.7544)" fill="#E8E8E8"/>
<rect width="19.2547" height="19.7543" transform="matrix(1 -8.96913e-08 -8.52117e-08 -1 0 39.4475)" fill="#A33A3A"/>
<rect width="19.2547" height="19.7543" transform="matrix(1 -8.96913e-08 -8.52117e-08 -1 19.2539 39.4475)" fill="#E8E8E8"/>
<rect width="19.2547" height="19.7543" transform="matrix(1 -8.96913e-08 -8.52117e-08 -1 38.5098 39.5088)" fill="#A33A3A"/>
<rect width="19.2547" height="19.7543" transform="matrix(1 -8.96913e-08 -8.52117e-08 -1 57.7637 39.5088)" fill="#E8E8E8"/>
<rect width="19.2547" height="19.7543" transform="matrix(1 -8.96913e-08 -8.52117e-08 -1 19.2539 19.7544)" fill="#A33A3A"/>
<rect width="19.2547" height="19.7543" transform="matrix(1 -8.96913e-08 -8.52117e-08 -1 0 19.7544)" fill="#E8E8E8"/>
<rect width="19.2547" height="19.7543" transform="matrix(1 -8.96913e-08 -8.52117e-08 -1 57.7637 19.7544)" fill="#A33A3A"/>
<rect width="19.2547" height="19.7543" transform="matrix(1 -8.96913e-08 -8.52117e-08 -1 38.5098 19.7544)" fill="#E8E8E8"/>
</svg>
