<svg xmlns="http://www.w3.org/2000/svg" viewBox="0 0 723 1053"><defs><style>.cls-1{fill:#fefefe;}.cls-1,.cls-2,.cls-3,.cls-4,.cls-6,.cls-7{stroke:#414040;stroke-miterlimit:10;}.cls-1,.cls-3,.cls-4,.cls-6,.cls-7{stroke-width:5px;}.cls-2,.cls-3{fill:#da5971;}.cls-2{stroke-width:4px;}.cls-4{fill:none;}.cls-5{fill:#414040;}.cls-6{fill:#fff;}.cls-7{fill:#c3a8b7;}</style></defs><title>5px</title><g id="圖層_2" data-name="圖層 2"><path class="cls-1" d="M155.55,338.09C141.29,321.42,143,239.42,193.7,138.63S254.77-14.74,286.77,29.76,264.19,239,264.19,239Z"/><path class="cls-2" d="M182.47,321.06c-8.18-11.28-6.78-67.13,23-136s36.06-104.72,54.37-74.56S245.8,253.05,245.8,253.05Z"/><path class="cls-1" d="M482.78,852.49l-24.69,21.43-21.25-24.49a16.14,16.14,0,0,1,24.38-21.17l.27.31.3-.27a16,16,0,1,1,21,24.19Z"/><path class="cls-1" d="M343.5,952.5s-22,1-27,9-10,20,2,27,85,15,105-22,30-59.32,29.5-74.66-92.5-31.34-92.5-31.34l-44,40s2.53,31.63,24.7,49.11c1,.79,2,1.54,3.12,2.27.73.49,1.47,1,2.23,1.42a52.15,52.15,0,0,0,15.95,6.2"/><path class="cls-1" d="M227.67,884.16S158.5,863.5,172.5,926.5s124,5,111-17S227.67,884.16,227.67,884.16Z"/><path class="cls-1" d="M211.5,672.5s-3-1-10,2-9,9-26,7a82.09,82.09,0,0,1-29-9s-10,16-7,30,13.39,50.24,56.19,60.62S218.5,673.5,218.5,673.5Z"/><path class="cls-1" d="M587.5,274.5c-6,24-65,77-65,77l-31.36-71c3.36-9,54.36-142,125.36-125,0,0,99,127,80,211,0,0-42,43-81-26-14.27-25.25-23-47.55-28.45-65.68A222.94,222.94,0,0,1,579.92,243a111.88,111.88,0,0,1-1.42-18.48"/><path class="cls-3" d="M579.5,242.5s-41.81-11.64-75.9,66.18l18.9,42.82s54-46,65-77C587.5,274.5,580.5,250.5,579.5,242.5Z"/><path class="cls-1" d="M453,893.08c6.94-22.43,18.55-84.77-20.52-185.58-50-129-93-124-93-124l-26,9s-69.68,30.39-98.62,82.24A98.29,98.29,0,0,0,204.5,701.5c-14.43,65.43-33.63,212.52,120,228,2.55.26-1.64-.18,1,0"/><path class="cls-1" d="M286,228S140,261,119,441c0,0-69,21-23,66s220,189,394,62c0,0,117-41,41-136C531,433,572,195,286,228Z"/><ellipse class="cls-4" cx="344.01" cy="476.12" rx="65.35" ry="35.9" transform="translate(-187.32 726.57) rotate(-79.39)"/><ellipse class="cls-5" cx="346.89" cy="487.54" rx="55.43" ry="30.94" transform="matrix(0.33, -0.94, 0.94, 0.33, -227.85, 653.97)"/><ellipse class="cls-6" cx="196.01" cy="432.35" rx="62.2" ry="35.83" transform="translate(-267.08 536.74) rotate(-78.32)"/><ellipse class="cls-5" cx="199.89" cy="442.3" rx="52.99" ry="30.75" transform="translate(-284.73 469.16) rotate(-68.85)"/><path class="cls-6" d="M222,495s-34-6-29,24.94a.19.19,0,0,0,0,.1c1.05,1,22.8,20.88,36.5-3.2a.17.17,0,0,1,.32.09c-.77,5.67-3.15,35,32.08,25.09A.15.15,0,0,0,262,542c.73-.92,13.27-17.41-11-33"/><path class="cls-7" d="M222,495s23-12,29,14c0,0-11,4-17,6s-4,0-4,0S228,511,222,495Z"/><path class="cls-4" d="M334.5,722.5s-53,59-36,99,90-65,90-65"/><path class="cls-3" d="M296.75,865.61l-13.48,26.23-26-13.37a14.56,14.56,0,0,1,13.31-25.91l.32.17.17-.33a14.44,14.44,0,1,1,25.69,13.21Z"/><path class="cls-4" d="M325.5,930.5c-1-5-28-71,59-102"/><path class="cls-5" d="M276.24,536.83a58,58,0,0,1,11.78.83,77.42,77.42,0,0,1,11.44,2.84A75.14,75.14,0,0,1,310.35,545a49.15,49.15,0,0,1,9.89,6.48c-3.79-1.15-7.45-2.38-11.11-3.58l-10.92-3.64-10.94-3.59C283.62,539.45,279.93,538.32,276.24,536.83Z"/><path class="cls-5" d="M275.62,549.52a50,50,0,0,1,10.85,4.57,64.55,64.55,0,0,1,9.72,6.66,63.65,63.65,0,0,1,8.4,8.26,43.65,43.65,0,0,1,6.48,9.84l-8.72-7.64c-2.89-2.5-5.76-5-8.7-7.38s-5.88-4.8-8.91-7.12S278.65,552.08,275.62,549.52Z"/><path class="cls-5" d="M177.59,506.14c-3.91-.77-7.61-1.85-11.35-2.8l-11.13-3L144,497.42c-3.72-1-7.45-2-11.26-3.08a49.28,49.28,0,0,1,11.83,0,74.86,74.86,0,0,1,11.59,2.16,76.4,76.4,0,0,1,11.13,3.89A57.36,57.36,0,0,1,177.59,506.14Z"/><path class="cls-5" d="M171.15,517.09c-3.93.49-7.75.64-11.56,1s-7.58.68-11.35,1.09-7.54.9-11.32,1.42l-11.49,1.61a44.38,44.38,0,0,1,10.82-4.69,63.76,63.76,0,0,1,11.54-2.31,64.4,64.4,0,0,1,11.78-.25A49.63,49.63,0,0,1,171.15,517.09Z"/></g></svg>