<svg id="圖層_1" data-name="圖層 1" xmlns="http://www.w3.org/2000/svg" viewBox="0 0 3716 280"><defs><style>.cls-1{fill:#b30101;}.cls-2{fill:#e4d7ca;}</style></defs><title>red plaid</title><rect class="cls-1" x="761.71" y="195.78" width="84.41" height="82.22"/><rect class="cls-2" x="677.31" y="195.78" width="84.41" height="82.22"/><rect class="cls-1" x="677.31" y="114.19" width="84.41" height="82.22"/><rect class="cls-2" x="761.71" y="114.19" width="84.41" height="82.22"/><rect class="cls-1" x="87.71" y="195.78" width="84.41" height="82.22"/><rect class="cls-2" x="3.31" y="195.78" width="84.41" height="82.22"/><rect class="cls-1" x="3.31" y="114.19" width="84.41" height="82.22"/><rect class="cls-2" x="87.71" y="114.19" width="84.41" height="82.22"/><rect class="cls-1" x="256.71" y="195.78" width="84.41" height="82.22"/><rect class="cls-2" x="172.31" y="195.78" width="84.41" height="82.22"/><rect class="cls-1" x="172.31" y="114.19" width="84.41" height="82.22"/><rect class="cls-2" x="256.71" y="114.19" width="84.41" height="82.22"/><rect class="cls-1" x="424.71" y="195.78" width="84.41" height="82.22"/><rect class="cls-2" x="340.31" y="195.78" width="84.41" height="82.22"/><rect class="cls-1" x="340.31" y="114.19" width="84.41" height="82.22"/><rect class="cls-2" x="424.71" y="114.19" width="84.41" height="82.22"/><rect class="cls-1" x="593.71" y="195.78" width="84.41" height="82.22"/><rect class="cls-2" x="509.31" y="195.78" width="84.41" height="82.22"/><rect class="cls-1" x="509.31" y="114.19" width="84.41" height="82.22"/><rect class="cls-2" x="593.71" y="114.19" width="84.41" height="82.22"/><rect class="cls-1" x="930.71" y="195.78" width="84.41" height="82.22"/><rect class="cls-2" x="846.31" y="195.78" width="84.41" height="82.22"/><rect class="cls-1" x="846.31" y="114.19" width="84.41" height="82.22"/><rect class="cls-2" x="930.71" y="114.19" width="84.41" height="82.22"/><rect class="cls-1" x="1098.71" y="195.78" width="84.41" height="82.22"/><rect class="cls-2" x="1014.31" y="195.78" width="84.41" height="82.22"/><rect class="cls-1" x="1014.31" y="114.19" width="84.41" height="82.22"/><rect class="cls-2" x="1098.71" y="114.19" width="84.41" height="82.22"/><rect class="cls-1" x="1267.71" y="195.78" width="84.41" height="82.22"/><rect class="cls-2" x="1183.31" y="195.78" width="84.41" height="82.22"/><rect class="cls-1" x="1183.31" y="114.19" width="84.41" height="82.22"/><rect class="cls-2" x="1267.71" y="114.19" width="84.41" height="82.22"/><rect class="cls-1" x="1435.71" y="195.78" width="84.41" height="82.22"/><rect class="cls-2" x="1351.31" y="195.78" width="84.41" height="82.22"/><rect class="cls-1" x="1351.31" y="114.19" width="84.41" height="82.22"/><rect class="cls-2" x="1435.71" y="114.19" width="84.41" height="82.22"/><rect class="cls-1" x="1604.71" y="195.78" width="84.41" height="82.22"/><rect class="cls-2" x="1520.31" y="195.78" width="84.41" height="82.22"/><rect class="cls-1" x="1520.31" y="114.19" width="84.41" height="82.22"/><rect class="cls-2" x="1604.71" y="114.19" width="84.41" height="82.22"/><rect class="cls-1" x="1772.71" y="195.78" width="84.41" height="82.22"/><rect class="cls-2" x="1688.31" y="195.78" width="84.41" height="82.22"/><rect class="cls-1" x="1688.31" y="114.19" width="84.41" height="82.22"/><rect class="cls-2" x="1772.71" y="114.19" width="84.41" height="82.22"/><rect class="cls-1" x="1941.71" y="195.78" width="84.41" height="82.22"/><rect class="cls-2" x="1857.31" y="195.78" width="84.41" height="82.22"/><rect class="cls-1" x="1857.31" y="114.19" width="84.41" height="82.22"/><rect class="cls-2" x="1941.71" y="114.19" width="84.41" height="82.22"/><rect class="cls-1" x="2106.71" y="195.78" width="84.41" height="82.22"/><rect class="cls-2" x="2022.31" y="195.78" width="84.41" height="82.22"/><rect class="cls-1" x="2022.31" y="114.19" width="84.41" height="82.22"/><rect class="cls-2" x="2106.71" y="114.19" width="84.41" height="82.22"/><rect class="cls-1" x="2274.71" y="195.78" width="84.41" height="82.22"/><rect class="cls-2" x="2190.31" y="195.78" width="84.41" height="82.22"/><rect class="cls-1" x="2190.31" y="114.19" width="84.41" height="82.22"/><rect class="cls-2" x="2274.71" y="114.19" width="84.41" height="82.22"/><rect class="cls-1" x="2443.71" y="195.78" width="84.41" height="82.22"/><rect class="cls-2" x="2359.31" y="195.78" width="84.41" height="82.22"/><rect class="cls-1" x="2359.31" y="114.19" width="84.41" height="82.22"/><rect class="cls-2" x="2443.71" y="114.19" width="84.41" height="82.22"/><rect class="cls-1" x="2613.71" y="195.78" width="84.41" height="82.22"/><rect class="cls-2" x="2529.31" y="195.78" width="84.41" height="82.22"/><rect class="cls-1" x="2529.31" y="114.19" width="84.41" height="82.22"/><rect class="cls-2" x="2613.71" y="114.19" width="84.41" height="82.22"/><rect class="cls-1" x="2782.71" y="195.78" width="84.41" height="82.22"/><rect class="cls-2" x="2698.31" y="195.78" width="84.41" height="82.22"/><rect class="cls-1" x="2698.31" y="114.19" width="84.41" height="82.22"/><rect class="cls-2" x="2782.71" y="114.19" width="84.41" height="82.22"/><rect class="cls-1" x="2950.71" y="195.78" width="84.41" height="82.22"/><rect class="cls-2" x="2866.31" y="195.78" width="84.41" height="82.22"/><rect class="cls-1" x="2866.31" y="114.19" width="84.41" height="82.22"/><rect class="cls-2" x="2950.71" y="114.19" width="84.41" height="82.22"/><rect class="cls-1" x="3119.71" y="195.78" width="84.41" height="82.22"/><rect class="cls-2" x="3035.31" y="195.78" width="84.41" height="82.22"/><rect class="cls-1" x="3035.31" y="114.19" width="84.41" height="82.22"/><rect class="cls-2" x="3119.71" y="114.19" width="84.41" height="82.22"/><rect class="cls-1" x="3284.71" y="195.78" width="84.41" height="82.22"/><rect class="cls-2" x="3200.31" y="195.78" width="84.41" height="82.22"/><rect class="cls-1" x="3200.31" y="114.19" width="84.41" height="82.22"/><rect class="cls-2" x="3284.71" y="114.19" width="84.41" height="82.22"/><rect class="cls-1" x="3452.71" y="195.78" width="84.41" height="82.22"/><rect class="cls-2" x="3368.31" y="195.78" width="84.41" height="82.22"/><rect class="cls-1" x="3368.31" y="114.19" width="84.41" height="82.22"/><rect class="cls-2" x="3452.71" y="114.19" width="84.41" height="82.22"/><rect class="cls-1" x="3621.71" y="195.78" width="84.41" height="82.22"/><rect class="cls-2" x="3537.31" y="195.78" width="84.41" height="82.22"/><rect class="cls-1" x="3537.31" y="114.19" width="84.41" height="82.22"/><rect class="cls-2" x="3621.71" y="114.19" width="84.41" height="82.22"/><rect class="cls-1" x="762.71" y="30.78" width="84.41" height="82.22"/><rect class="cls-2" x="678.31" y="30.78" width="84.41" height="82.22"/><rect class="cls-1" x="88.71" y="30.78" width="84.41" height="82.22"/><rect class="cls-2" x="4.31" y="30.78" width="84.41" height="82.22"/><rect class="cls-1" x="257.71" y="30.78" width="84.41" height="82.22"/><rect class="cls-2" x="173.31" y="30.78" width="84.41" height="82.22"/><rect class="cls-1" x="425.71" y="30.78" width="84.41" height="82.22"/><rect class="cls-2" x="341.31" y="30.78" width="84.41" height="82.22"/><rect class="cls-1" x="594.71" y="30.78" width="84.41" height="82.22"/><rect class="cls-2" x="510.31" y="30.78" width="84.41" height="82.22"/><rect class="cls-1" x="931.71" y="30.78" width="84.41" height="82.22"/><rect class="cls-2" x="847.31" y="30.78" width="84.41" height="82.22"/><rect class="cls-1" x="1099.71" y="30.78" width="84.41" height="82.22"/><rect class="cls-2" x="1015.31" y="30.78" width="84.41" height="82.22"/><rect class="cls-1" x="1268.71" y="30.78" width="84.41" height="82.22"/><rect class="cls-2" x="1184.31" y="30.78" width="84.41" height="82.22"/><rect class="cls-1" x="1436.71" y="30.78" width="84.41" height="82.22"/><rect class="cls-2" x="1352.31" y="30.78" width="84.41" height="82.22"/><rect class="cls-1" x="1605.71" y="30.78" width="84.41" height="82.22"/><rect class="cls-2" x="1521.31" y="30.78" width="84.41" height="82.22"/><rect class="cls-1" x="1773.71" y="30.78" width="84.41" height="82.22"/><rect class="cls-2" x="1689.31" y="30.78" width="84.41" height="82.22"/><rect class="cls-1" x="1942.71" y="30.78" width="84.41" height="82.22"/><rect class="cls-2" x="1858.31" y="30.78" width="84.41" height="82.22"/><rect class="cls-1" x="2107.71" y="30.78" width="84.41" height="82.22"/><rect class="cls-2" x="2023.31" y="30.78" width="84.41" height="82.22"/><rect class="cls-1" x="2275.71" y="30.78" width="84.41" height="82.22"/><rect class="cls-2" x="2191.31" y="30.78" width="84.41" height="82.22"/><rect class="cls-1" x="2444.71" y="30.78" width="84.41" height="82.22"/><rect class="cls-2" x="2360.31" y="30.78" width="84.41" height="82.22"/><rect class="cls-1" x="2614.71" y="30.78" width="84.41" height="82.22"/><rect class="cls-2" x="2530.31" y="30.78" width="84.41" height="82.22"/><rect class="cls-1" x="2783.71" y="30.78" width="84.41" height="82.22"/><rect class="cls-2" x="2699.31" y="30.78" width="84.41" height="82.22"/><rect class="cls-1" x="2951.71" y="30.78" width="84.41" height="82.22"/><rect class="cls-2" x="2867.31" y="30.78" width="84.41" height="82.22"/><rect class="cls-1" x="3120.71" y="30.78" width="84.41" height="82.22"/><rect class="cls-2" x="3036.31" y="30.78" width="84.41" height="82.22"/><rect class="cls-1" x="3285.71" y="30.78" width="84.41" height="82.22"/><rect class="cls-2" x="3201.31" y="30.78" width="84.41" height="82.22"/><rect class="cls-1" x="3453.71" y="30.78" width="84.41" height="82.22"/><rect class="cls-2" x="3369.31" y="30.78" width="84.41" height="82.22"/><rect class="cls-1" x="3622.71" y="30.78" width="84.41" height="82.22"/><rect class="cls-2" x="3538.31" y="30.78" width="84.41" height="82.22"/></svg>