<svg width="49" height="49" viewBox="0 0 49 49" fill="none" xmlns="http://www.w3.org/2000/svg">
<path fill-rule="evenodd" clip-rule="evenodd" d="M26.2309 23.7831C25.2604 22.4053 22.0876 20.4685 17.1597 23.7433C14.2359 22.388 7.62663 20.9528 4.57982 26.0552C1.53317 31.1573 6.9399 36.3178 10.0246 38.2606L10.0091 38.2745C11.5915 41.559 16.1092 47.5146 21.5207 45.0607C26.9321 42.6067 26.2505 35.8759 25.2333 32.8172C29.0406 28.2884 27.4746 24.917 26.2153 23.7969L26.2309 23.7831Z" fill="#9B9B9B"/>
<path d="M32.0913 20.78C35.72 18.4313 39.6367 19.224 41.1415 19.9138C41.0468 26.741 32.246 28.4241 31.3129 28.1824C30.3797 27.9406 27.5553 23.7159 32.0913 20.78Z" fill="#9B9B9B"/>
<path d="M29.6277 35.0274C32.505 31.7854 36.9787 32.3148 38.8558 32.9848C37.8863 38.4944 32.8458 40.8767 30.23 41.1216C29.54 40.8219 26.0311 39.0799 29.6277 35.0274Z" fill="#9B9B9B"/>
<path d="M11.1754 11.5326C14.016 7.96942 17.315 8.4211 18.6095 9.09233C19.4793 16.9271 13.4399 18.9665 10.3115 19.0068C9.4159 18.0001 8.33483 15.0958 11.1754 11.5326Z" fill="#9B9B9B"/>
<path d="M23.5613 18.2748C20.7175 13.333 29.0264 8.98327 29.3224 8.29419C35.3487 9.38525 31.8827 15.6749 31.4554 16.0344C31.0281 16.3939 26.4052 23.2167 23.5613 18.2748Z" fill="#9B9B9B"/>
</svg>
