<svg xmlns="http://www.w3.org/2000/svg" xmlns:xlink="http://www.w3.org/1999/xlink" viewBox="0 0 150.75 154.69"><defs><style>.cls-1{fill:#171717;}.cls-2{fill:#fff;}.cls-3{fill:url(#New_Gradient_Swatch_13);}</style><linearGradient id="New_Gradient_Swatch_13" x1="6.17" y1="148.55" x2="141.29" y2="22.23" gradientUnits="userSpaceOnUse"><stop offset="0" stop-color="#56e7f2"/><stop offset="0.29" stop-color="#c2a7de"/><stop offset="0.62" stop-color="#e8fba9"/><stop offset="0.84" stop-color="#32abdf"/><stop offset="1" stop-color="#fefcef"/></linearGradient></defs><title>smile_sticker</title><g id="OBJECTS"><circle class="cls-1" cx="76.07" cy="83.2" r="61.65" transform="translate(-5.06 4.93) rotate(-3.59)"/><path class="cls-2" d="M76.07,145.23a62,62,0,1,1,62-62A62.1,62.1,0,0,1,76.07,145.23Zm0-123.3A61.28,61.28,0,1,0,137.34,83.2,61.35,61.35,0,0,0,76.07,21.93Z"/><circle class="cls-3" cx="76.07" cy="83.2" r="57.19"/><path class="cls-1" d="M124.9,81.87a8.24,8.24,0,0,1-2,.69,46.89,46.89,0,0,1-93.72,0,8.09,8.09,0,0,1-2-.69,1.85,1.85,0,1,1,1.65-3.32,4.83,4.83,0,0,0,4.26,0,1.86,1.86,0,1,1,1.65,3.33,9.22,9.22,0,0,1-1.89.66,43.19,43.19,0,0,0,86.31,0,8.58,8.58,0,0,1-1.88-.66A1.86,1.86,0,1,1,119,78.55a4.84,4.84,0,0,0,4.25,0,1.86,1.86,0,0,1,1.66,3.32Z"/><path class="cls-1" d="M92.48,69.14l5.63-5.64a2.1,2.1,0,0,0-3-3l-5.63,5.64-5.64-5.64a2.1,2.1,0,0,0-3,3l5.64,5.64L80.9,74.77a2.1,2.1,0,1,0,3,3l5.64-5.63,5.63,5.63a2.11,2.11,0,0,0,1.49.62,2.11,2.11,0,0,0,1.48-3.59Z"/><path class="cls-1" d="M71.24,60.53a2.11,2.11,0,0,0-3,0l-5.63,5.64L57,60.53a2.1,2.1,0,0,0-3,3l5.64,5.64L54,74.77a2.1,2.1,0,1,0,3,3l5.64-5.63,5.63,5.63a2.1,2.1,0,0,0,3,0,2.1,2.1,0,0,0,0-3L65.6,69.14l5.64-5.64A2.1,2.1,0,0,0,71.24,60.53Z"/></g></svg>