<svg id="圖層_1" data-name="圖層 1" xmlns="http://www.w3.org/2000/svg" viewBox="0 0 680 170"><defs><style>.cls-1{fill:#252424;}.cls-1,.cls-2,.cls-3,.cls-4,.cls-5{stroke:#000;stroke-miterlimit:10;}.cls-2{fill:#e8e8e8;}.cls-3{fill:#b30101;}.cls-4{stroke-width:9px;}.cls-5{fill:#e5ad3a;stroke-width:3px;}</style></defs><title>sticker</title><rect class="cls-1" x="380.36" y="42.31" width="42.05" height="40.96"/><rect class="cls-2" x="338.31" y="42.31" width="42.05" height="40.96"/><rect class="cls-1" x="338.31" y="1.66" width="42.05" height="40.96"/><rect class="cls-2" x="380.36" y="1.66" width="42.05" height="40.96"/><rect class="cls-1" x="465.2" y="42.31" width="42.05" height="40.96"/><rect class="cls-2" x="423.15" y="42.31" width="42.05" height="40.96"/><rect class="cls-1" x="423.15" y="1.66" width="42.05" height="40.96"/><rect class="cls-2" x="465.2" y="1.66" width="42.05" height="40.96"/><rect class="cls-1" x="380.36" y="124.31" width="42.05" height="40.96"/><rect class="cls-2" x="338.31" y="124.31" width="42.05" height="40.96"/><rect class="cls-1" x="338.31" y="83.66" width="42.05" height="40.96"/><rect class="cls-2" x="380.36" y="83.66" width="42.05" height="40.96"/><rect class="cls-1" x="465.2" y="124.31" width="42.05" height="40.96"/><rect class="cls-2" x="423.15" y="124.31" width="42.05" height="40.96"/><rect class="cls-1" x="423.15" y="83.66" width="42.05" height="40.96"/><rect class="cls-2" x="465.2" y="83.66" width="42.05" height="40.96"/><rect class="cls-1" x="549.2" y="42.31" width="42.05" height="40.96"/><rect class="cls-2" x="507.15" y="42.31" width="42.05" height="40.96"/><rect class="cls-1" x="507.15" y="1.66" width="42.05" height="40.96"/><rect class="cls-2" x="549.2" y="1.66" width="42.05" height="40.96"/><rect class="cls-1" x="549.2" y="124.31" width="42.05" height="40.96"/><rect class="cls-2" x="507.15" y="124.31" width="42.05" height="40.96"/><rect class="cls-1" x="507.15" y="83.66" width="42.05" height="40.96"/><rect class="cls-2" x="549.2" y="83.66" width="42.05" height="40.96"/><rect class="cls-1" x="633.2" y="42.31" width="42.05" height="40.96"/><rect class="cls-2" x="591.15" y="42.31" width="42.05" height="40.96"/><rect class="cls-1" x="591.15" y="1.66" width="42.05" height="40.96"/><rect class="cls-2" x="633.2" y="1.66" width="42.05" height="40.96"/><rect class="cls-1" x="633.2" y="124.31" width="42.05" height="40.96"/><rect class="cls-2" x="591.15" y="124.31" width="42.05" height="40.96"/><rect class="cls-1" x="591.15" y="83.66" width="42.05" height="40.96"/><rect class="cls-2" x="633.2" y="83.66" width="42.05" height="40.96"/><rect class="cls-1" x="44.36" y="43.31" width="42.05" height="40.96"/><rect class="cls-2" x="2.31" y="43.31" width="42.05" height="40.96"/><rect class="cls-1" x="2.31" y="2.66" width="42.05" height="40.96"/><rect class="cls-2" x="44.36" y="2.66" width="42.05" height="40.96"/><rect class="cls-1" x="129.2" y="43.31" width="42.05" height="40.96"/><rect class="cls-2" x="87.15" y="43.31" width="42.05" height="40.96"/><rect class="cls-1" x="87.15" y="2.66" width="42.05" height="40.96"/><rect class="cls-2" x="129.2" y="2.66" width="42.05" height="40.96"/><rect class="cls-1" x="44.36" y="125.31" width="42.05" height="40.96"/><rect class="cls-2" x="2.31" y="125.31" width="42.05" height="40.96"/><rect class="cls-1" x="2.31" y="84.66" width="42.05" height="40.96"/><rect class="cls-2" x="44.36" y="84.66" width="42.05" height="40.96"/><rect class="cls-1" x="129.2" y="125.31" width="42.05" height="40.96"/><rect class="cls-2" x="87.15" y="125.31" width="42.05" height="40.96"/><rect class="cls-1" x="87.15" y="84.66" width="42.05" height="40.96"/><rect class="cls-2" x="129.2" y="84.66" width="42.05" height="40.96"/><rect class="cls-1" x="211.36" y="43.31" width="42.05" height="40.96"/><rect class="cls-2" x="169.31" y="43.31" width="42.05" height="40.96"/><rect class="cls-1" x="169.31" y="2.66" width="42.05" height="40.96"/><rect class="cls-2" x="211.36" y="2.66" width="42.05" height="40.96"/><rect class="cls-1" x="296.2" y="43.31" width="42.05" height="40.96"/><rect class="cls-2" x="254.15" y="43.31" width="42.05" height="40.96"/><rect class="cls-1" x="254.15" y="2.66" width="42.05" height="40.96"/><rect class="cls-2" x="296.2" y="2.66" width="42.05" height="40.96"/><rect class="cls-1" x="211.36" y="125.31" width="42.05" height="40.96"/><rect class="cls-2" x="169.31" y="125.31" width="42.05" height="40.96"/><rect class="cls-1" x="169.31" y="84.66" width="42.05" height="40.96"/><rect class="cls-2" x="211.36" y="84.66" width="42.05" height="40.96"/><rect class="cls-1" x="296.2" y="125.31" width="42.05" height="40.96"/><rect class="cls-2" x="254.15" y="125.31" width="42.05" height="40.96"/><rect class="cls-1" x="254.15" y="84.66" width="42.05" height="40.96"/><rect class="cls-2" x="296.2" y="84.66" width="42.05" height="40.96"/><ellipse class="cls-3" cx="337.42" cy="84.98" rx="196.95" ry="59"/><path class="cls-4" d="M145,104.94V61.06h32.82q9.31,0,14.38,3.72a12.3,12.3,0,0,1,5.06,10.52,12.27,12.27,0,0,1-5.06,10.49q-5.06,3.72-14.38,3.72H162v15.43Zm26.32-34.45H162V80h9.31q4.16,0,5.75-1.06a4.07,4.07,0,0,0,1.58-3.66,4.11,4.11,0,0,0-1.58-3.69Q175.47,70.49,171.31,70.49Z"/><path class="cls-4" d="M236.45,61.06a60.38,60.38,0,0,1,9.17.55,15.21,15.21,0,0,1,5.37,1.7,9.76,9.76,0,0,1,3.75,3.9A12,12,0,0,1,256,72.87a12.2,12.2,0,0,1-1.93,6.84A10.81,10.81,0,0,1,248.79,84a8.72,8.72,0,0,1,4.08,3c.78,1.19,1.24,3.31,1.38,6.33,0,.34,0,.8.06,1.4.28,5.73,1.05,8.92,2.31,9.55v.68h-18.9q-.85-1.39-.95-5.4c0-1.56-.11-2.77-.2-3.62A4.57,4.57,0,0,0,235,92.54a8,8,0,0,0-4.53-1H220.27v13.38H203V61.06ZM220.27,80h9.92q3.88,0,5.47-.92A3.28,3.28,0,0,0,237.25,76a3.13,3.13,0,0,0-1.5-3c-1-.56-3-.85-6-.85h-9.5Z"/><path class="cls-4" d="M260.72,83q0-11.45,7.45-17.28t22.07-5.83q14.64,0,22.08,5.83T319.77,83q0,11.43-7.45,17.26t-22.08,5.83q-14.62,0-22.07-5.83T260.72,83ZM279,83q0,5.73,2.89,8.76c1.93,2,4.71,3,8.35,3s6.43-1,8.36-3,2.89-4.94,2.89-8.76-1-6.77-2.89-8.81-4.72-3-8.36-3-6.42,1-8.35,3S279,79.18,279,83Z"/><path class="cls-4" d="M326.83,61H355q13.65,0,20.8,5.62T382.91,83q0,10.76-7.12,16.34T355,104.94H326.83Zm17,10.89V93.28h8.46c4.41,0,7.57-.83,9.48-2.51s2.86-4.4,2.86-8.2-1-6.5-2.89-8.17-5.08-2.51-9.45-2.51Z"/><path class="cls-4" d="M407.1,61.06V82.51c0,4.41.66,7.47,2,9.18s3.64,2.57,6.93,2.57,5.58-.85,6.9-2.55,2-4.77,2-9.2V61.06h17v23q0,11.43-6.22,16.74T416,106.16q-13.38,0-19.66-5.34t-6.28-16.71v-23Z"/><path class="cls-4" d="M488.13,79.48a9,9,0,0,0-2.88-6.2,9.93,9.93,0,0,0-6.73-2.13c-3.64,0-6.43,1-8.35,3s-2.9,5-2.9,8.81,1,6.74,2.9,8.76,4.71,3,8.35,3A10.38,10.38,0,0,0,484.88,93a8.58,8.58,0,0,0,3.19-5.33h19.62A18.64,18.64,0,0,1,499,101.44q-7.41,4.66-20.43,4.66-14.62,0-22.08-5.83T449,83q0-11.45,7.45-17.28t22.08-5.83q13.65,0,21.13,5.06t7.92,14.52Z"/><path class="cls-4" d="M525.19,104.94V72.18H509.32V61.06h48.81V72.18H542.2v32.76Z"/><path class="cls-5" d="M145,104.94V61.06h32.82q9.31,0,14.38,3.72a12.3,12.3,0,0,1,5.06,10.52,12.27,12.27,0,0,1-5.06,10.49q-5.06,3.72-14.38,3.72H162v15.43Zm26.32-34.45H162V80h9.31q4.16,0,5.75-1.06a4.07,4.07,0,0,0,1.58-3.66,4.11,4.11,0,0,0-1.58-3.69Q175.47,70.49,171.31,70.49Z"/><path class="cls-5" d="M236.45,61.06a60.38,60.38,0,0,1,9.17.55,15.21,15.21,0,0,1,5.37,1.7,9.76,9.76,0,0,1,3.75,3.9A12,12,0,0,1,256,72.87a12.2,12.2,0,0,1-1.93,6.84A10.81,10.81,0,0,1,248.79,84a8.72,8.72,0,0,1,4.08,3c.78,1.19,1.24,3.31,1.38,6.33,0,.34,0,.8.06,1.4.28,5.73,1.05,8.92,2.31,9.55v.68h-18.9q-.85-1.39-.95-5.4c0-1.56-.11-2.77-.2-3.62A4.57,4.57,0,0,0,235,92.54a8,8,0,0,0-4.53-1H220.27v13.38H203V61.06ZM220.27,80h9.92q3.88,0,5.47-.92A3.28,3.28,0,0,0,237.25,76a3.13,3.13,0,0,0-1.5-3c-1-.56-3-.85-6-.85h-9.5Z"/><path class="cls-5" d="M260.72,83q0-11.45,7.45-17.28t22.07-5.83q14.64,0,22.08,5.83T319.77,83q0,11.43-7.45,17.26t-22.08,5.83q-14.62,0-22.07-5.83T260.72,83ZM279,83q0,5.73,2.89,8.76c1.93,2,4.71,3,8.35,3s6.43-1,8.36-3,2.89-4.94,2.89-8.76-1-6.77-2.89-8.81-4.72-3-8.36-3-6.42,1-8.35,3S279,79.18,279,83Z"/><path class="cls-5" d="M326.83,61H355q13.65,0,20.8,5.62T382.91,83q0,10.76-7.12,16.34T355,104.94H326.83Zm17,10.89V93.28h8.46c4.41,0,7.57-.83,9.48-2.51s2.86-4.4,2.86-8.2-1-6.5-2.89-8.17-5.08-2.51-9.45-2.51Z"/><path class="cls-5" d="M407.1,61.06V82.51c0,4.41.66,7.47,2,9.18s3.64,2.57,6.93,2.57,5.58-.85,6.9-2.55,2-4.77,2-9.2V61.06h17v23q0,11.43-6.22,16.74T416,106.16q-13.38,0-19.66-5.34t-6.28-16.71v-23Z"/><path class="cls-5" d="M488.13,79.48a9,9,0,0,0-2.88-6.2,9.93,9.93,0,0,0-6.73-2.13c-3.64,0-6.43,1-8.35,3s-2.9,5-2.9,8.81,1,6.74,2.9,8.76,4.71,3,8.35,3A10.38,10.38,0,0,0,484.88,93a8.58,8.58,0,0,0,3.19-5.33h19.62A18.64,18.64,0,0,1,499,101.44q-7.41,4.66-20.43,4.66-14.62,0-22.08-5.83T449,83q0-11.45,7.45-17.28t22.08-5.83q13.65,0,21.13,5.06t7.92,14.52Z"/><path class="cls-5" d="M525.19,104.94V72.18H509.32V61.06h48.81V72.18H542.2v32.76Z"/></svg>