<svg width="484" height="130" viewBox="0 0 484 130" fill="none" xmlns="http://www.w3.org/2000/svg">
<mask id="path-1-outside-1_607_390" maskUnits="userSpaceOnUse" x="89.6143" y="81.3047" width="336" height="49" fill="black">
<rect fill="white" x="89.6143" y="81.3047" width="336" height="49"/>
<path d="M136.215 83.3047C139.851 84.0318 142.555 85.2277 144.327 86.8924C146.122 88.5571 147.02 90.7959 147.02 93.6086C147.02 95.4838 146.778 97.0624 146.295 98.3445C145.811 99.6073 145.202 100.66 144.465 101.502C143.729 102.324 142.923 102.965 142.049 103.425C141.197 103.865 140.403 104.19 139.667 104.401C138.93 104.611 138.297 104.735 137.768 104.774C137.262 104.812 136.997 104.831 136.974 104.831C137.872 104.869 138.827 104.955 139.839 105.089C140.875 105.223 141.899 105.434 142.912 105.721C143.924 106.008 144.891 106.381 145.811 106.84C146.732 107.299 147.537 107.873 148.228 108.562C148.941 109.232 149.505 110.036 149.919 110.973C150.334 111.911 150.541 112.992 150.541 114.217C150.541 116.092 150.253 117.833 149.678 119.44C149.125 121.048 148.136 122.444 146.709 123.631C145.305 124.798 143.383 125.716 140.944 126.386C138.505 127.056 135.421 127.391 131.693 127.391H91.6143V114.934L96.0329 114.217V95.4169L91.6143 94.6993V83.3047H136.215ZM128.448 97.426C128.448 96.4501 128.24 95.7039 127.826 95.1873C127.435 94.6515 126.906 94.2592 126.238 94.0105C125.571 93.7617 124.811 93.6182 123.96 93.5799C123.108 93.5417 122.245 93.5225 121.371 93.5225H118.126V101.76H121.371C122.245 101.76 123.108 101.741 123.96 101.703C124.811 101.645 125.571 101.483 126.238 101.215C126.906 100.947 127.435 100.526 127.826 99.9518C128.24 99.3586 128.448 98.5167 128.448 97.426ZM128.448 111.748C128.448 110.772 128.24 110.026 127.826 109.509C127.435 108.993 126.906 108.61 126.238 108.361C125.571 108.113 124.811 107.969 123.96 107.931C123.108 107.893 122.245 107.873 121.371 107.873H118.126V116.111H121.371C122.245 116.111 123.108 116.092 123.96 116.053C124.811 115.996 125.571 115.833 126.238 115.566C126.906 115.298 127.435 114.867 127.826 114.274C128.24 113.681 128.448 112.839 128.448 111.748Z"/>
<path d="M211.987 96.4788C211.964 97.0911 211.953 97.6939 211.953 98.287C211.953 98.8611 211.953 99.4256 211.953 99.9805V104.831C211.953 108.888 211.285 112.389 209.95 115.336C208.639 118.264 206.832 120.684 204.531 122.598C202.252 124.492 199.583 125.85 196.522 126.673C193.461 127.496 190.205 127.907 186.753 127.907C184.06 127.907 181.471 127.754 178.986 127.448C176.523 127.161 174.222 126.616 172.081 125.812C169.941 124.989 167.997 123.956 166.248 122.712C164.498 121.449 162.991 119.957 161.725 118.235C160.483 116.494 159.516 114.513 158.826 112.294C158.158 110.074 157.825 107.586 157.825 104.831V96.4788L153.406 95.7613V83.3047H182.092V95.7613L177.674 96.4788V100.181C177.674 100.66 177.674 101.148 177.674 101.645C177.674 102.124 177.674 102.573 177.674 102.994C177.697 103.415 177.708 103.788 177.708 104.114C177.708 104.439 177.708 104.678 177.708 104.831C177.708 105.309 177.72 105.864 177.743 106.496C177.766 107.127 177.858 107.787 178.019 108.476C178.203 109.146 178.468 109.816 178.813 110.485C179.158 111.155 179.653 111.758 180.297 112.294C180.965 112.81 181.793 113.231 182.783 113.556C183.795 113.882 185.038 114.044 186.511 114.044C187.984 114.044 189.215 113.882 190.205 113.556C191.217 113.231 192.057 112.81 192.725 112.294C193.392 111.758 193.898 111.155 194.244 110.485C194.612 109.816 194.876 109.146 195.038 108.476C195.199 107.787 195.291 107.127 195.314 106.496C195.36 105.864 195.383 105.309 195.383 104.831C195.383 104.678 195.383 104.439 195.383 104.114C195.383 103.788 195.371 103.415 195.348 102.994C195.348 102.573 195.348 102.124 195.348 101.645C195.348 101.148 195.348 100.66 195.348 100.181V96.4788L190.93 95.7613V83.3047H216.406V95.7613L211.987 96.4788Z"/>
<path d="M239.811 105.893V114.217L244.229 114.905V127.391H222.136V114.934L226.555 114.217V96.4788L222.136 95.7613V83.3047H248.648L266.322 105.893V96.5362L261.904 95.7613V83.3047H283.997V95.7613L279.578 96.4788V114.217L283.997 114.934V127.391H257.451L239.811 105.893Z"/>
<path d="M308.713 105.893V114.217L313.132 114.905V127.391H291.039V114.934L295.458 114.217V96.4788L291.039 95.7613V83.3047H317.551L335.225 105.893V96.5362L330.807 95.7613V83.3047H352.9V95.7613L348.481 96.4788V114.217L352.9 114.934V127.391H326.353L308.713 105.893Z"/>
<path d="M373.267 127.391V114.992L377.685 114.073L362.531 96.4501L356.939 95.7613V83.3047H386.419V95.7613L382.967 96.4501L389.975 105.463L396.982 96.4501L393.53 95.7613V83.3047H422.976V95.7613L417.418 96.4501L402.264 114.073L406.683 114.992V127.391H373.267Z"/>
</mask>
<path d="M136.215 83.3047C139.851 84.0318 142.555 85.2277 144.327 86.8924C146.122 88.5571 147.02 90.7959 147.02 93.6086C147.02 95.4838 146.778 97.0624 146.295 98.3445C145.811 99.6073 145.202 100.66 144.465 101.502C143.729 102.324 142.923 102.965 142.049 103.425C141.197 103.865 140.403 104.19 139.667 104.401C138.93 104.611 138.297 104.735 137.768 104.774C137.262 104.812 136.997 104.831 136.974 104.831C137.872 104.869 138.827 104.955 139.839 105.089C140.875 105.223 141.899 105.434 142.912 105.721C143.924 106.008 144.891 106.381 145.811 106.84C146.732 107.299 147.537 107.873 148.228 108.562C148.941 109.232 149.505 110.036 149.919 110.973C150.334 111.911 150.541 112.992 150.541 114.217C150.541 116.092 150.253 117.833 149.678 119.44C149.125 121.048 148.136 122.444 146.709 123.631C145.305 124.798 143.383 125.716 140.944 126.386C138.505 127.056 135.421 127.391 131.693 127.391H91.6143V114.934L96.0329 114.217V95.4169L91.6143 94.6993V83.3047H136.215ZM128.448 97.426C128.448 96.4501 128.24 95.7039 127.826 95.1873C127.435 94.6515 126.906 94.2592 126.238 94.0105C125.571 93.7617 124.811 93.6182 123.96 93.5799C123.108 93.5417 122.245 93.5225 121.371 93.5225H118.126V101.76H121.371C122.245 101.76 123.108 101.741 123.96 101.703C124.811 101.645 125.571 101.483 126.238 101.215C126.906 100.947 127.435 100.526 127.826 99.9518C128.24 99.3586 128.448 98.5167 128.448 97.426ZM128.448 111.748C128.448 110.772 128.24 110.026 127.826 109.509C127.435 108.993 126.906 108.61 126.238 108.361C125.571 108.113 124.811 107.969 123.96 107.931C123.108 107.893 122.245 107.873 121.371 107.873H118.126V116.111H121.371C122.245 116.111 123.108 116.092 123.96 116.053C124.811 115.996 125.571 115.833 126.238 115.566C126.906 115.298 127.435 114.867 127.826 114.274C128.24 113.681 128.448 112.839 128.448 111.748Z" fill="black"/>
<path d="M211.987 96.4788C211.964 97.0911 211.953 97.6939 211.953 98.287C211.953 98.8611 211.953 99.4256 211.953 99.9805V104.831C211.953 108.888 211.285 112.389 209.95 115.336C208.639 118.264 206.832 120.684 204.531 122.598C202.252 124.492 199.583 125.85 196.522 126.673C193.461 127.496 190.205 127.907 186.753 127.907C184.06 127.907 181.471 127.754 178.986 127.448C176.523 127.161 174.222 126.616 172.081 125.812C169.941 124.989 167.997 123.956 166.248 122.712C164.498 121.449 162.991 119.957 161.725 118.235C160.483 116.494 159.516 114.513 158.826 112.294C158.158 110.074 157.825 107.586 157.825 104.831V96.4788L153.406 95.7613V83.3047H182.092V95.7613L177.674 96.4788V100.181C177.674 100.66 177.674 101.148 177.674 101.645C177.674 102.124 177.674 102.573 177.674 102.994C177.697 103.415 177.708 103.788 177.708 104.114C177.708 104.439 177.708 104.678 177.708 104.831C177.708 105.309 177.72 105.864 177.743 106.496C177.766 107.127 177.858 107.787 178.019 108.476C178.203 109.146 178.468 109.816 178.813 110.485C179.158 111.155 179.653 111.758 180.297 112.294C180.965 112.81 181.793 113.231 182.783 113.556C183.795 113.882 185.038 114.044 186.511 114.044C187.984 114.044 189.215 113.882 190.205 113.556C191.217 113.231 192.057 112.81 192.725 112.294C193.392 111.758 193.898 111.155 194.244 110.485C194.612 109.816 194.876 109.146 195.038 108.476C195.199 107.787 195.291 107.127 195.314 106.496C195.36 105.864 195.383 105.309 195.383 104.831C195.383 104.678 195.383 104.439 195.383 104.114C195.383 103.788 195.371 103.415 195.348 102.994C195.348 102.573 195.348 102.124 195.348 101.645C195.348 101.148 195.348 100.66 195.348 100.181V96.4788L190.93 95.7613V83.3047H216.406V95.7613L211.987 96.4788Z" fill="black"/>
<path d="M239.811 105.893V114.217L244.229 114.905V127.391H222.136V114.934L226.555 114.217V96.4788L222.136 95.7613V83.3047H248.648L266.322 105.893V96.5362L261.904 95.7613V83.3047H283.997V95.7613L279.578 96.4788V114.217L283.997 114.934V127.391H257.451L239.811 105.893Z" fill="black"/>
<path d="M308.713 105.893V114.217L313.132 114.905V127.391H291.039V114.934L295.458 114.217V96.4788L291.039 95.7613V83.3047H317.551L335.225 105.893V96.5362L330.807 95.7613V83.3047H352.9V95.7613L348.481 96.4788V114.217L352.9 114.934V127.391H326.353L308.713 105.893Z" fill="black"/>
<path d="M373.267 127.391V114.992L377.685 114.073L362.531 96.4501L356.939 95.7613V83.3047H386.419V95.7613L382.967 96.4501L389.975 105.463L396.982 96.4501L393.53 95.7613V83.3047H422.976V95.7613L417.418 96.4501L402.264 114.073L406.683 114.992V127.391H373.267Z" fill="black"/>
<path d="M136.215 83.3047C139.851 84.0318 142.555 85.2277 144.327 86.8924C146.122 88.5571 147.02 90.7959 147.02 93.6086C147.02 95.4838 146.778 97.0624 146.295 98.3445C145.811 99.6073 145.202 100.66 144.465 101.502C143.729 102.324 142.923 102.965 142.049 103.425C141.197 103.865 140.403 104.19 139.667 104.401C138.93 104.611 138.297 104.735 137.768 104.774C137.262 104.812 136.997 104.831 136.974 104.831C137.872 104.869 138.827 104.955 139.839 105.089C140.875 105.223 141.899 105.434 142.912 105.721C143.924 106.008 144.891 106.381 145.811 106.84C146.732 107.299 147.537 107.873 148.228 108.562C148.941 109.232 149.505 110.036 149.919 110.973C150.334 111.911 150.541 112.992 150.541 114.217C150.541 116.092 150.253 117.833 149.678 119.44C149.125 121.048 148.136 122.444 146.709 123.631C145.305 124.798 143.383 125.716 140.944 126.386C138.505 127.056 135.421 127.391 131.693 127.391H91.6143V114.934L96.0329 114.217V95.4169L91.6143 94.6993V83.3047H136.215ZM128.448 97.426C128.448 96.4501 128.24 95.7039 127.826 95.1873C127.435 94.6515 126.906 94.2592 126.238 94.0105C125.571 93.7617 124.811 93.6182 123.96 93.5799C123.108 93.5417 122.245 93.5225 121.371 93.5225H118.126V101.76H121.371C122.245 101.76 123.108 101.741 123.96 101.703C124.811 101.645 125.571 101.483 126.238 101.215C126.906 100.947 127.435 100.526 127.826 99.9518C128.24 99.3586 128.448 98.5167 128.448 97.426ZM128.448 111.748C128.448 110.772 128.24 110.026 127.826 109.509C127.435 108.993 126.906 108.61 126.238 108.361C125.571 108.113 124.811 107.969 123.96 107.931C123.108 107.893 122.245 107.873 121.371 107.873H118.126V116.111H121.371C122.245 116.111 123.108 116.092 123.96 116.053C124.811 115.996 125.571 115.833 126.238 115.566C126.906 115.298 127.435 114.867 127.826 114.274C128.24 113.681 128.448 112.839 128.448 111.748Z" stroke="black" stroke-width="4" mask="url(#path-1-outside-1_607_390)"/>
<path d="M211.987 96.4788C211.964 97.0911 211.953 97.6939 211.953 98.287C211.953 98.8611 211.953 99.4256 211.953 99.9805V104.831C211.953 108.888 211.285 112.389 209.95 115.336C208.639 118.264 206.832 120.684 204.531 122.598C202.252 124.492 199.583 125.85 196.522 126.673C193.461 127.496 190.205 127.907 186.753 127.907C184.06 127.907 181.471 127.754 178.986 127.448C176.523 127.161 174.222 126.616 172.081 125.812C169.941 124.989 167.997 123.956 166.248 122.712C164.498 121.449 162.991 119.957 161.725 118.235C160.483 116.494 159.516 114.513 158.826 112.294C158.158 110.074 157.825 107.586 157.825 104.831V96.4788L153.406 95.7613V83.3047H182.092V95.7613L177.674 96.4788V100.181C177.674 100.66 177.674 101.148 177.674 101.645C177.674 102.124 177.674 102.573 177.674 102.994C177.697 103.415 177.708 103.788 177.708 104.114C177.708 104.439 177.708 104.678 177.708 104.831C177.708 105.309 177.72 105.864 177.743 106.496C177.766 107.127 177.858 107.787 178.019 108.476C178.203 109.146 178.468 109.816 178.813 110.485C179.158 111.155 179.653 111.758 180.297 112.294C180.965 112.81 181.793 113.231 182.783 113.556C183.795 113.882 185.038 114.044 186.511 114.044C187.984 114.044 189.215 113.882 190.205 113.556C191.217 113.231 192.057 112.81 192.725 112.294C193.392 111.758 193.898 111.155 194.244 110.485C194.612 109.816 194.876 109.146 195.038 108.476C195.199 107.787 195.291 107.127 195.314 106.496C195.36 105.864 195.383 105.309 195.383 104.831C195.383 104.678 195.383 104.439 195.383 104.114C195.383 103.788 195.371 103.415 195.348 102.994C195.348 102.573 195.348 102.124 195.348 101.645C195.348 101.148 195.348 100.66 195.348 100.181V96.4788L190.93 95.7613V83.3047H216.406V95.7613L211.987 96.4788Z" stroke="black" stroke-width="4" mask="url(#path-1-outside-1_607_390)"/>
<path d="M239.811 105.893V114.217L244.229 114.905V127.391H222.136V114.934L226.555 114.217V96.4788L222.136 95.7613V83.3047H248.648L266.322 105.893V96.5362L261.904 95.7613V83.3047H283.997V95.7613L279.578 96.4788V114.217L283.997 114.934V127.391H257.451L239.811 105.893Z" stroke="black" stroke-width="4" mask="url(#path-1-outside-1_607_390)"/>
<path d="M308.713 105.893V114.217L313.132 114.905V127.391H291.039V114.934L295.458 114.217V96.4788L291.039 95.7613V83.3047H317.551L335.225 105.893V96.5362L330.807 95.7613V83.3047H352.9V95.7613L348.481 96.4788V114.217L352.9 114.934V127.391H326.353L308.713 105.893Z" stroke="black" stroke-width="4" mask="url(#path-1-outside-1_607_390)"/>
<path d="M373.267 127.391V114.992L377.685 114.073L362.531 96.4501L356.939 95.7613V83.3047H386.419V95.7613L382.967 96.4501L389.975 105.463L396.982 96.4501L393.53 95.7613V83.3047H422.976V95.7613L417.418 96.4501L402.264 114.073L406.683 114.992V127.391H373.267Z" stroke="black" stroke-width="4" mask="url(#path-1-outside-1_607_390)"/>
<mask id="path-2-outside-2_607_390" maskUnits="userSpaceOnUse" x="82.9951" y="81.3047" width="336" height="49" fill="black">
<rect fill="white" x="82.9951" y="81.3047" width="336" height="49"/>
<path d="M129.596 83.3047C133.232 84.0318 135.936 85.2277 137.708 86.8924C139.503 88.5571 140.4 90.7959 140.4 93.6086C140.4 95.4838 140.159 97.0624 139.676 98.3445C139.192 99.6073 138.582 100.66 137.846 101.502C137.11 102.324 136.304 102.965 135.43 103.425C134.578 103.865 133.784 104.19 133.048 104.401C132.311 104.611 131.678 104.735 131.149 104.774C130.643 104.812 130.378 104.831 130.355 104.831C131.253 104.869 132.208 104.955 133.22 105.089C134.256 105.223 135.28 105.434 136.293 105.721C137.305 106.008 138.272 106.381 139.192 106.84C140.113 107.299 140.918 107.873 141.609 108.562C142.322 109.232 142.886 110.036 143.3 110.973C143.714 111.911 143.922 112.992 143.922 114.217C143.922 116.092 143.634 117.833 143.059 119.44C142.506 121.048 141.517 122.444 140.09 123.631C138.686 124.798 136.764 125.716 134.325 126.386C131.885 127.056 128.802 127.391 125.073 127.391H84.9951V114.934L89.4137 114.217V95.4169L84.9951 94.6993V83.3047H129.596ZM121.828 97.426C121.828 96.4501 121.621 95.7039 121.207 95.1873C120.816 94.6515 120.287 94.2592 119.619 94.0105C118.952 93.7617 118.192 93.6182 117.341 93.5799C116.489 93.5417 115.626 93.5225 114.752 93.5225H111.507V101.76H114.752C115.626 101.76 116.489 101.741 117.341 101.703C118.192 101.645 118.952 101.483 119.619 101.215C120.287 100.947 120.816 100.526 121.207 99.9518C121.621 99.3586 121.828 98.5167 121.828 97.426ZM121.828 111.748C121.828 110.772 121.621 110.026 121.207 109.509C120.816 108.993 120.287 108.61 119.619 108.361C118.952 108.113 118.192 107.969 117.341 107.931C116.489 107.893 115.626 107.873 114.752 107.873H111.507V116.111H114.752C115.626 116.111 116.489 116.092 117.341 116.053C118.192 115.996 118.952 115.833 119.619 115.566C120.287 115.298 120.816 114.867 121.207 114.274C121.621 113.681 121.828 112.839 121.828 111.748Z"/>
<path d="M205.368 96.4788C205.345 97.0911 205.333 97.6939 205.333 98.287C205.333 98.8611 205.333 99.4256 205.333 99.9805V104.831C205.333 108.888 204.666 112.389 203.331 115.336C202.02 118.264 200.213 120.684 197.912 122.598C195.633 124.492 192.964 125.85 189.903 126.673C186.842 127.496 183.586 127.907 180.134 127.907C177.441 127.907 174.852 127.754 172.366 127.448C169.904 127.161 167.603 126.616 165.462 125.812C163.322 124.989 161.377 123.956 159.628 122.712C157.879 121.449 156.372 119.957 155.106 118.235C153.863 116.494 152.897 114.513 152.206 112.294C151.539 110.074 151.205 107.586 151.205 104.831V96.4788L146.787 95.7613V83.3047H175.473V95.7613L171.055 96.4788V100.181C171.055 100.66 171.055 101.148 171.055 101.645C171.055 102.124 171.055 102.573 171.055 102.994C171.078 103.415 171.089 103.788 171.089 104.114C171.089 104.439 171.089 104.678 171.089 104.831C171.089 105.309 171.101 105.864 171.124 106.496C171.147 107.127 171.239 107.787 171.4 108.476C171.584 109.146 171.849 109.816 172.194 110.485C172.539 111.155 173.034 111.758 173.678 112.294C174.346 112.81 175.174 113.231 176.164 113.556C177.176 113.882 178.419 114.044 179.892 114.044C181.365 114.044 182.596 113.882 183.586 113.556C184.598 113.231 185.438 112.81 186.106 112.294C186.773 111.758 187.279 111.155 187.624 110.485C187.993 109.816 188.257 109.146 188.418 108.476C188.58 107.787 188.672 107.127 188.695 106.496C188.741 105.864 188.764 105.309 188.764 104.831C188.764 104.678 188.764 104.439 188.764 104.114C188.764 103.788 188.752 103.415 188.729 102.994C188.729 102.573 188.729 102.124 188.729 101.645C188.729 101.148 188.729 100.66 188.729 100.181V96.4788L184.311 95.7613V83.3047H209.787V95.7613L205.368 96.4788Z"/>
<path d="M233.191 105.893V114.217L237.61 114.905V127.391H215.517V114.934L219.936 114.217V96.4788L215.517 95.7613V83.3047H242.029L259.703 105.893V96.5362L255.285 95.7613V83.3047H277.378V95.7613L272.959 96.4788V114.217L277.378 114.934V127.391H250.831L233.191 105.893Z"/>
<path d="M302.094 105.893V114.217L306.513 114.905V127.391H284.42V114.934L288.838 114.217V96.4788L284.42 95.7613V83.3047H310.932L328.606 105.893V96.5362L324.187 95.7613V83.3047H346.281V95.7613L341.862 96.4788V114.217L346.281 114.934V127.391H319.734L302.094 105.893Z"/>
<path d="M366.648 127.391V114.992L371.066 114.073L355.912 96.4501L350.319 95.7613V83.3047H379.8V95.7613L376.348 96.4501L383.356 105.463L390.363 96.4501L386.911 95.7613V83.3047H416.357V95.7613L410.799 96.4501L395.645 114.073L400.063 114.992V127.391H366.648Z"/>
</mask>
<path d="M129.596 83.3047C133.232 84.0318 135.936 85.2277 137.708 86.8924C139.503 88.5571 140.4 90.7959 140.4 93.6086C140.4 95.4838 140.159 97.0624 139.676 98.3445C139.192 99.6073 138.582 100.66 137.846 101.502C137.11 102.324 136.304 102.965 135.43 103.425C134.578 103.865 133.784 104.19 133.048 104.401C132.311 104.611 131.678 104.735 131.149 104.774C130.643 104.812 130.378 104.831 130.355 104.831C131.253 104.869 132.208 104.955 133.22 105.089C134.256 105.223 135.28 105.434 136.293 105.721C137.305 106.008 138.272 106.381 139.192 106.84C140.113 107.299 140.918 107.873 141.609 108.562C142.322 109.232 142.886 110.036 143.3 110.973C143.714 111.911 143.922 112.992 143.922 114.217C143.922 116.092 143.634 117.833 143.059 119.44C142.506 121.048 141.517 122.444 140.09 123.631C138.686 124.798 136.764 125.716 134.325 126.386C131.885 127.056 128.802 127.391 125.073 127.391H84.9951V114.934L89.4137 114.217V95.4169L84.9951 94.6993V83.3047H129.596ZM121.828 97.426C121.828 96.4501 121.621 95.7039 121.207 95.1873C120.816 94.6515 120.287 94.2592 119.619 94.0105C118.952 93.7617 118.192 93.6182 117.341 93.5799C116.489 93.5417 115.626 93.5225 114.752 93.5225H111.507V101.76H114.752C115.626 101.76 116.489 101.741 117.341 101.703C118.192 101.645 118.952 101.483 119.619 101.215C120.287 100.947 120.816 100.526 121.207 99.9518C121.621 99.3586 121.828 98.5167 121.828 97.426ZM121.828 111.748C121.828 110.772 121.621 110.026 121.207 109.509C120.816 108.993 120.287 108.61 119.619 108.361C118.952 108.113 118.192 107.969 117.341 107.931C116.489 107.893 115.626 107.873 114.752 107.873H111.507V116.111H114.752C115.626 116.111 116.489 116.092 117.341 116.053C118.192 115.996 118.952 115.833 119.619 115.566C120.287 115.298 120.816 114.867 121.207 114.274C121.621 113.681 121.828 112.839 121.828 111.748Z" fill="black"/>
<path d="M205.368 96.4788C205.345 97.0911 205.333 97.6939 205.333 98.287C205.333 98.8611 205.333 99.4256 205.333 99.9805V104.831C205.333 108.888 204.666 112.389 203.331 115.336C202.02 118.264 200.213 120.684 197.912 122.598C195.633 124.492 192.964 125.85 189.903 126.673C186.842 127.496 183.586 127.907 180.134 127.907C177.441 127.907 174.852 127.754 172.366 127.448C169.904 127.161 167.603 126.616 165.462 125.812C163.322 124.989 161.377 123.956 159.628 122.712C157.879 121.449 156.372 119.957 155.106 118.235C153.863 116.494 152.897 114.513 152.206 112.294C151.539 110.074 151.205 107.586 151.205 104.831V96.4788L146.787 95.7613V83.3047H175.473V95.7613L171.055 96.4788V100.181C171.055 100.66 171.055 101.148 171.055 101.645C171.055 102.124 171.055 102.573 171.055 102.994C171.078 103.415 171.089 103.788 171.089 104.114C171.089 104.439 171.089 104.678 171.089 104.831C171.089 105.309 171.101 105.864 171.124 106.496C171.147 107.127 171.239 107.787 171.4 108.476C171.584 109.146 171.849 109.816 172.194 110.485C172.539 111.155 173.034 111.758 173.678 112.294C174.346 112.81 175.174 113.231 176.164 113.556C177.176 113.882 178.419 114.044 179.892 114.044C181.365 114.044 182.596 113.882 183.586 113.556C184.598 113.231 185.438 112.81 186.106 112.294C186.773 111.758 187.279 111.155 187.624 110.485C187.993 109.816 188.257 109.146 188.418 108.476C188.58 107.787 188.672 107.127 188.695 106.496C188.741 105.864 188.764 105.309 188.764 104.831C188.764 104.678 188.764 104.439 188.764 104.114C188.764 103.788 188.752 103.415 188.729 102.994C188.729 102.573 188.729 102.124 188.729 101.645C188.729 101.148 188.729 100.66 188.729 100.181V96.4788L184.311 95.7613V83.3047H209.787V95.7613L205.368 96.4788Z" fill="black"/>
<path d="M233.191 105.893V114.217L237.61 114.905V127.391H215.517V114.934L219.936 114.217V96.4788L215.517 95.7613V83.3047H242.029L259.703 105.893V96.5362L255.285 95.7613V83.3047H277.378V95.7613L272.959 96.4788V114.217L277.378 114.934V127.391H250.831L233.191 105.893Z" fill="black"/>
<path d="M302.094 105.893V114.217L306.513 114.905V127.391H284.42V114.934L288.838 114.217V96.4788L284.42 95.7613V83.3047H310.932L328.606 105.893V96.5362L324.187 95.7613V83.3047H346.281V95.7613L341.862 96.4788V114.217L346.281 114.934V127.391H319.734L302.094 105.893Z" fill="black"/>
<path d="M366.648 127.391V114.992L371.066 114.073L355.912 96.4501L350.319 95.7613V83.3047H379.8V95.7613L376.348 96.4501L383.356 105.463L390.363 96.4501L386.911 95.7613V83.3047H416.357V95.7613L410.799 96.4501L395.645 114.073L400.063 114.992V127.391H366.648Z" fill="black"/>
<path d="M129.596 83.3047C133.232 84.0318 135.936 85.2277 137.708 86.8924C139.503 88.5571 140.4 90.7959 140.4 93.6086C140.4 95.4838 140.159 97.0624 139.676 98.3445C139.192 99.6073 138.582 100.66 137.846 101.502C137.11 102.324 136.304 102.965 135.43 103.425C134.578 103.865 133.784 104.19 133.048 104.401C132.311 104.611 131.678 104.735 131.149 104.774C130.643 104.812 130.378 104.831 130.355 104.831C131.253 104.869 132.208 104.955 133.22 105.089C134.256 105.223 135.28 105.434 136.293 105.721C137.305 106.008 138.272 106.381 139.192 106.84C140.113 107.299 140.918 107.873 141.609 108.562C142.322 109.232 142.886 110.036 143.3 110.973C143.714 111.911 143.922 112.992 143.922 114.217C143.922 116.092 143.634 117.833 143.059 119.44C142.506 121.048 141.517 122.444 140.09 123.631C138.686 124.798 136.764 125.716 134.325 126.386C131.885 127.056 128.802 127.391 125.073 127.391H84.9951V114.934L89.4137 114.217V95.4169L84.9951 94.6993V83.3047H129.596ZM121.828 97.426C121.828 96.4501 121.621 95.7039 121.207 95.1873C120.816 94.6515 120.287 94.2592 119.619 94.0105C118.952 93.7617 118.192 93.6182 117.341 93.5799C116.489 93.5417 115.626 93.5225 114.752 93.5225H111.507V101.76H114.752C115.626 101.76 116.489 101.741 117.341 101.703C118.192 101.645 118.952 101.483 119.619 101.215C120.287 100.947 120.816 100.526 121.207 99.9518C121.621 99.3586 121.828 98.5167 121.828 97.426ZM121.828 111.748C121.828 110.772 121.621 110.026 121.207 109.509C120.816 108.993 120.287 108.61 119.619 108.361C118.952 108.113 118.192 107.969 117.341 107.931C116.489 107.893 115.626 107.873 114.752 107.873H111.507V116.111H114.752C115.626 116.111 116.489 116.092 117.341 116.053C118.192 115.996 118.952 115.833 119.619 115.566C120.287 115.298 120.816 114.867 121.207 114.274C121.621 113.681 121.828 112.839 121.828 111.748Z" stroke="black" stroke-width="4" mask="url(#path-2-outside-2_607_390)"/>
<path d="M205.368 96.4788C205.345 97.0911 205.333 97.6939 205.333 98.287C205.333 98.8611 205.333 99.4256 205.333 99.9805V104.831C205.333 108.888 204.666 112.389 203.331 115.336C202.02 118.264 200.213 120.684 197.912 122.598C195.633 124.492 192.964 125.85 189.903 126.673C186.842 127.496 183.586 127.907 180.134 127.907C177.441 127.907 174.852 127.754 172.366 127.448C169.904 127.161 167.603 126.616 165.462 125.812C163.322 124.989 161.377 123.956 159.628 122.712C157.879 121.449 156.372 119.957 155.106 118.235C153.863 116.494 152.897 114.513 152.206 112.294C151.539 110.074 151.205 107.586 151.205 104.831V96.4788L146.787 95.7613V83.3047H175.473V95.7613L171.055 96.4788V100.181C171.055 100.66 171.055 101.148 171.055 101.645C171.055 102.124 171.055 102.573 171.055 102.994C171.078 103.415 171.089 103.788 171.089 104.114C171.089 104.439 171.089 104.678 171.089 104.831C171.089 105.309 171.101 105.864 171.124 106.496C171.147 107.127 171.239 107.787 171.4 108.476C171.584 109.146 171.849 109.816 172.194 110.485C172.539 111.155 173.034 111.758 173.678 112.294C174.346 112.81 175.174 113.231 176.164 113.556C177.176 113.882 178.419 114.044 179.892 114.044C181.365 114.044 182.596 113.882 183.586 113.556C184.598 113.231 185.438 112.81 186.106 112.294C186.773 111.758 187.279 111.155 187.624 110.485C187.993 109.816 188.257 109.146 188.418 108.476C188.58 107.787 188.672 107.127 188.695 106.496C188.741 105.864 188.764 105.309 188.764 104.831C188.764 104.678 188.764 104.439 188.764 104.114C188.764 103.788 188.752 103.415 188.729 102.994C188.729 102.573 188.729 102.124 188.729 101.645C188.729 101.148 188.729 100.66 188.729 100.181V96.4788L184.311 95.7613V83.3047H209.787V95.7613L205.368 96.4788Z" stroke="black" stroke-width="4" mask="url(#path-2-outside-2_607_390)"/>
<path d="M233.191 105.893V114.217L237.61 114.905V127.391H215.517V114.934L219.936 114.217V96.4788L215.517 95.7613V83.3047H242.029L259.703 105.893V96.5362L255.285 95.7613V83.3047H277.378V95.7613L272.959 96.4788V114.217L277.378 114.934V127.391H250.831L233.191 105.893Z" stroke="black" stroke-width="4" mask="url(#path-2-outside-2_607_390)"/>
<path d="M302.094 105.893V114.217L306.513 114.905V127.391H284.42V114.934L288.838 114.217V96.4788L284.42 95.7613V83.3047H310.932L328.606 105.893V96.5362L324.187 95.7613V83.3047H346.281V95.7613L341.862 96.4788V114.217L346.281 114.934V127.391H319.734L302.094 105.893Z" stroke="black" stroke-width="4" mask="url(#path-2-outside-2_607_390)"/>
<path d="M366.648 127.391V114.992L371.066 114.073L355.912 96.4501L350.319 95.7613V83.3047H379.8V95.7613L376.348 96.4501L383.356 105.463L390.363 96.4501L386.911 95.7613V83.3047H416.357V95.7613L410.799 96.4501L395.645 114.073L400.063 114.992V127.391H366.648Z" stroke="black" stroke-width="4" mask="url(#path-2-outside-2_607_390)"/>
<mask id="path-3-outside-3_607_390" maskUnits="userSpaceOnUse" x="72.6387" y="73.5264" width="342" height="55" fill="black">
<rect fill="white" x="72.6387" y="73.5264" width="342" height="55"/>
<path d="M122.239 78.5264C125.875 79.2535 128.579 80.4494 130.351 82.1141C132.146 83.7788 133.044 86.0175 133.044 88.8303C133.044 90.7055 132.802 92.2841 132.319 93.5661C131.836 94.829 131.226 95.8814 130.49 96.7233C129.753 97.5461 128.948 98.1871 128.073 98.6464C127.222 99.0865 126.428 99.4117 125.691 99.6222C124.955 99.8327 124.322 99.9571 123.793 99.9953C123.286 100.034 123.022 100.053 122.999 100.053C123.896 100.091 124.851 100.177 125.864 100.311C126.899 100.445 127.923 100.655 128.936 100.943C129.949 101.23 130.915 101.603 131.836 102.062C132.756 102.521 133.562 103.095 134.252 103.784C134.966 104.454 135.53 105.257 135.944 106.195C136.358 107.133 136.565 108.214 136.565 109.438C136.565 111.313 136.277 113.055 135.702 114.662C135.15 116.269 134.16 117.666 132.733 118.852C131.33 120.02 129.408 120.938 126.968 121.608C124.529 122.278 121.445 122.612 117.717 122.612H77.6387V110.156L82.0573 109.438V90.6385L77.6387 89.921V78.5264H122.239ZM114.472 92.6477C114.472 91.6718 114.265 90.9256 113.851 90.4089C113.459 89.8732 112.93 89.4809 112.263 89.2322C111.595 88.9834 110.836 88.8399 109.984 88.8016C109.133 88.7634 108.27 88.7442 107.395 88.7442H104.15V96.9817H107.395C108.27 96.9817 109.133 96.9625 109.984 96.9243C110.836 96.8668 111.595 96.7042 112.263 96.4363C112.93 96.1684 113.459 95.7475 113.851 95.1734C114.265 94.5803 114.472 93.7383 114.472 92.6477ZM114.472 106.97C114.472 105.994 114.265 105.248 113.851 104.731C113.459 104.215 112.93 103.832 112.263 103.583C111.595 103.334 110.836 103.191 109.984 103.153C109.133 103.114 108.27 103.095 107.395 103.095H104.15V111.333H107.395C108.27 111.333 109.133 111.313 109.984 111.275C110.836 111.218 111.595 111.055 112.263 110.787C112.93 110.519 113.459 110.089 113.851 109.496C114.265 108.902 114.472 108.061 114.472 106.97Z"/>
<path d="M198.012 91.7005C197.989 92.3128 197.977 92.9156 197.977 93.5087C197.977 94.0828 197.977 94.6472 197.977 95.2021V100.053C197.977 104.109 197.31 107.611 195.975 110.558C194.663 113.485 192.857 115.906 190.555 117.819C188.277 119.714 185.607 121.072 182.546 121.895C179.486 122.718 176.229 123.129 172.777 123.129C170.084 123.129 167.495 122.976 165.01 122.67C162.548 122.383 160.246 121.837 158.106 121.034C155.966 120.211 154.021 119.178 152.272 117.934C150.523 116.671 149.015 115.179 147.75 113.457C146.507 111.715 145.54 109.735 144.85 107.515C144.183 105.296 143.849 102.808 143.849 100.053V91.7005L139.43 90.983V78.5264H168.117V90.983L163.698 91.7005V95.4031C163.698 95.8814 163.698 96.3693 163.698 96.8668C163.698 97.3452 163.698 97.7949 163.698 98.2158C163.721 98.6368 163.733 99.0099 163.733 99.3352C163.733 99.6605 163.733 99.8997 163.733 100.053C163.733 100.531 163.744 101.086 163.767 101.717C163.79 102.349 163.882 103.009 164.043 103.698C164.228 104.368 164.492 105.037 164.837 105.707C165.183 106.377 165.677 106.979 166.322 107.515C166.989 108.032 167.818 108.453 168.807 108.778C169.82 109.103 171.063 109.266 172.535 109.266C174.008 109.266 175.24 109.103 176.229 108.778C177.242 108.453 178.082 108.032 178.749 107.515C179.417 106.979 179.923 106.377 180.268 105.707C180.636 105.037 180.901 104.368 181.062 103.698C181.223 103.009 181.315 102.349 181.338 101.717C181.384 101.086 181.407 100.531 181.407 100.053C181.407 99.8997 181.407 99.6605 181.407 99.3352C181.407 99.0099 181.396 98.6368 181.373 98.2158C181.373 97.7949 181.373 97.3452 181.373 96.8668C181.373 96.3693 181.373 95.8814 181.373 95.4031V91.7005L176.954 90.983V78.5264H202.43V90.983L198.012 91.7005Z"/>
<path d="M225.835 101.115V109.438L230.254 110.127V122.612H208.161V110.156L212.579 109.438V91.7005L208.161 90.983V78.5264H234.672L252.347 101.115V91.7579L247.928 90.983V78.5264H270.021V90.983L265.603 91.7005V109.438L270.021 110.156V122.612H243.475L225.835 101.115Z"/>
<path d="M294.738 101.115V109.438L299.157 110.127V122.612H277.063V110.156L281.482 109.438V91.7005L277.063 90.983V78.5264H303.575L321.25 101.115V91.7579L316.831 90.983V78.5264H338.924V90.983L334.505 91.7005V109.438L338.924 110.156V122.612H312.378L294.738 101.115Z"/>
<path d="M359.291 122.612V110.213L363.71 109.295L348.555 91.6718L342.963 90.983V78.5264H372.444V90.983L368.991 91.6718L375.999 100.684L383.007 91.6718L379.555 90.983V78.5264H409.001V90.983L403.443 91.6718L388.288 109.295L392.707 110.213V122.612H359.291Z"/>
</mask>
<path d="M122.239 78.5264C125.875 79.2535 128.579 80.4494 130.351 82.1141C132.146 83.7788 133.044 86.0175 133.044 88.8303C133.044 90.7055 132.802 92.2841 132.319 93.5661C131.836 94.829 131.226 95.8814 130.49 96.7233C129.753 97.5461 128.948 98.1871 128.073 98.6464C127.222 99.0865 126.428 99.4117 125.691 99.6222C124.955 99.8327 124.322 99.9571 123.793 99.9953C123.286 100.034 123.022 100.053 122.999 100.053C123.896 100.091 124.851 100.177 125.864 100.311C126.899 100.445 127.923 100.655 128.936 100.943C129.949 101.23 130.915 101.603 131.836 102.062C132.756 102.521 133.562 103.095 134.252 103.784C134.966 104.454 135.53 105.257 135.944 106.195C136.358 107.133 136.565 108.214 136.565 109.438C136.565 111.313 136.277 113.055 135.702 114.662C135.15 116.269 134.16 117.666 132.733 118.852C131.33 120.02 129.408 120.938 126.968 121.608C124.529 122.278 121.445 122.612 117.717 122.612H77.6387V110.156L82.0573 109.438V90.6385L77.6387 89.921V78.5264H122.239ZM114.472 92.6477C114.472 91.6718 114.265 90.9256 113.851 90.4089C113.459 89.8732 112.93 89.4809 112.263 89.2322C111.595 88.9834 110.836 88.8399 109.984 88.8016C109.133 88.7634 108.27 88.7442 107.395 88.7442H104.15V96.9817H107.395C108.27 96.9817 109.133 96.9625 109.984 96.9243C110.836 96.8668 111.595 96.7042 112.263 96.4363C112.93 96.1684 113.459 95.7475 113.851 95.1734C114.265 94.5803 114.472 93.7383 114.472 92.6477ZM114.472 106.97C114.472 105.994 114.265 105.248 113.851 104.731C113.459 104.215 112.93 103.832 112.263 103.583C111.595 103.334 110.836 103.191 109.984 103.153C109.133 103.114 108.27 103.095 107.395 103.095H104.15V111.333H107.395C108.27 111.333 109.133 111.313 109.984 111.275C110.836 111.218 111.595 111.055 112.263 110.787C112.93 110.519 113.459 110.089 113.851 109.496C114.265 108.902 114.472 108.061 114.472 106.97Z" fill="#AF382B"/>
<path d="M198.012 91.7005C197.989 92.3128 197.977 92.9156 197.977 93.5087C197.977 94.0828 197.977 94.6472 197.977 95.2021V100.053C197.977 104.109 197.31 107.611 195.975 110.558C194.663 113.485 192.857 115.906 190.555 117.819C188.277 119.714 185.607 121.072 182.546 121.895C179.486 122.718 176.229 123.129 172.777 123.129C170.084 123.129 167.495 122.976 165.01 122.67C162.548 122.383 160.246 121.837 158.106 121.034C155.966 120.211 154.021 119.178 152.272 117.934C150.523 116.671 149.015 115.179 147.75 113.457C146.507 111.715 145.54 109.735 144.85 107.515C144.183 105.296 143.849 102.808 143.849 100.053V91.7005L139.43 90.983V78.5264H168.117V90.983L163.698 91.7005V95.4031C163.698 95.8814 163.698 96.3693 163.698 96.8668C163.698 97.3452 163.698 97.7949 163.698 98.2158C163.721 98.6368 163.733 99.0099 163.733 99.3352C163.733 99.6605 163.733 99.8997 163.733 100.053C163.733 100.531 163.744 101.086 163.767 101.717C163.79 102.349 163.882 103.009 164.043 103.698C164.228 104.368 164.492 105.037 164.837 105.707C165.183 106.377 165.677 106.979 166.322 107.515C166.989 108.032 167.818 108.453 168.807 108.778C169.82 109.103 171.063 109.266 172.535 109.266C174.008 109.266 175.24 109.103 176.229 108.778C177.242 108.453 178.082 108.032 178.749 107.515C179.417 106.979 179.923 106.377 180.268 105.707C180.636 105.037 180.901 104.368 181.062 103.698C181.223 103.009 181.315 102.349 181.338 101.717C181.384 101.086 181.407 100.531 181.407 100.053C181.407 99.8997 181.407 99.6605 181.407 99.3352C181.407 99.0099 181.396 98.6368 181.373 98.2158C181.373 97.7949 181.373 97.3452 181.373 96.8668C181.373 96.3693 181.373 95.8814 181.373 95.4031V91.7005L176.954 90.983V78.5264H202.43V90.983L198.012 91.7005Z" fill="#AF382B"/>
<path d="M225.835 101.115V109.438L230.254 110.127V122.612H208.161V110.156L212.579 109.438V91.7005L208.161 90.983V78.5264H234.672L252.347 101.115V91.7579L247.928 90.983V78.5264H270.021V90.983L265.603 91.7005V109.438L270.021 110.156V122.612H243.475L225.835 101.115Z" fill="#AF382B"/>
<path d="M294.738 101.115V109.438L299.157 110.127V122.612H277.063V110.156L281.482 109.438V91.7005L277.063 90.983V78.5264H303.575L321.25 101.115V91.7579L316.831 90.983V78.5264H338.924V90.983L334.505 91.7005V109.438L338.924 110.156V122.612H312.378L294.738 101.115Z" fill="#AF382B"/>
<path d="M359.291 122.612V110.213L363.71 109.295L348.555 91.6718L342.963 90.983V78.5264H372.444V90.983L368.991 91.6718L375.999 100.684L383.007 91.6718L379.555 90.983V78.5264H409.001V90.983L403.443 91.6718L388.288 109.295L392.707 110.213V122.612H359.291Z" fill="#AF382B"/>
<path d="M122.239 78.5264C125.875 79.2535 128.579 80.4494 130.351 82.1141C132.146 83.7788 133.044 86.0175 133.044 88.8303C133.044 90.7055 132.802 92.2841 132.319 93.5661C131.836 94.829 131.226 95.8814 130.49 96.7233C129.753 97.5461 128.948 98.1871 128.073 98.6464C127.222 99.0865 126.428 99.4117 125.691 99.6222C124.955 99.8327 124.322 99.9571 123.793 99.9953C123.286 100.034 123.022 100.053 122.999 100.053C123.896 100.091 124.851 100.177 125.864 100.311C126.899 100.445 127.923 100.655 128.936 100.943C129.949 101.23 130.915 101.603 131.836 102.062C132.756 102.521 133.562 103.095 134.252 103.784C134.966 104.454 135.53 105.257 135.944 106.195C136.358 107.133 136.565 108.214 136.565 109.438C136.565 111.313 136.277 113.055 135.702 114.662C135.15 116.269 134.16 117.666 132.733 118.852C131.33 120.02 129.408 120.938 126.968 121.608C124.529 122.278 121.445 122.612 117.717 122.612H77.6387V110.156L82.0573 109.438V90.6385L77.6387 89.921V78.5264H122.239ZM114.472 92.6477C114.472 91.6718 114.265 90.9256 113.851 90.4089C113.459 89.8732 112.93 89.4809 112.263 89.2322C111.595 88.9834 110.836 88.8399 109.984 88.8016C109.133 88.7634 108.27 88.7442 107.395 88.7442H104.15V96.9817H107.395C108.27 96.9817 109.133 96.9625 109.984 96.9243C110.836 96.8668 111.595 96.7042 112.263 96.4363C112.93 96.1684 113.459 95.7475 113.851 95.1734C114.265 94.5803 114.472 93.7383 114.472 92.6477ZM114.472 106.97C114.472 105.994 114.265 105.248 113.851 104.731C113.459 104.215 112.93 103.832 112.263 103.583C111.595 103.334 110.836 103.191 109.984 103.153C109.133 103.114 108.27 103.095 107.395 103.095H104.15V111.333H107.395C108.27 111.333 109.133 111.313 109.984 111.275C110.836 111.218 111.595 111.055 112.263 110.787C112.93 110.519 113.459 110.089 113.851 109.496C114.265 108.902 114.472 108.061 114.472 106.97Z" stroke="#CDA97E" stroke-width="10" mask="url(#path-3-outside-3_607_390)"/>
<path d="M198.012 91.7005C197.989 92.3128 197.977 92.9156 197.977 93.5087C197.977 94.0828 197.977 94.6472 197.977 95.2021V100.053C197.977 104.109 197.31 107.611 195.975 110.558C194.663 113.485 192.857 115.906 190.555 117.819C188.277 119.714 185.607 121.072 182.546 121.895C179.486 122.718 176.229 123.129 172.777 123.129C170.084 123.129 167.495 122.976 165.01 122.67C162.548 122.383 160.246 121.837 158.106 121.034C155.966 120.211 154.021 119.178 152.272 117.934C150.523 116.671 149.015 115.179 147.75 113.457C146.507 111.715 145.54 109.735 144.85 107.515C144.183 105.296 143.849 102.808 143.849 100.053V91.7005L139.43 90.983V78.5264H168.117V90.983L163.698 91.7005V95.4031C163.698 95.8814 163.698 96.3693 163.698 96.8668C163.698 97.3452 163.698 97.7949 163.698 98.2158C163.721 98.6368 163.733 99.0099 163.733 99.3352C163.733 99.6605 163.733 99.8997 163.733 100.053C163.733 100.531 163.744 101.086 163.767 101.717C163.79 102.349 163.882 103.009 164.043 103.698C164.228 104.368 164.492 105.037 164.837 105.707C165.183 106.377 165.677 106.979 166.322 107.515C166.989 108.032 167.818 108.453 168.807 108.778C169.82 109.103 171.063 109.266 172.535 109.266C174.008 109.266 175.24 109.103 176.229 108.778C177.242 108.453 178.082 108.032 178.749 107.515C179.417 106.979 179.923 106.377 180.268 105.707C180.636 105.037 180.901 104.368 181.062 103.698C181.223 103.009 181.315 102.349 181.338 101.717C181.384 101.086 181.407 100.531 181.407 100.053C181.407 99.8997 181.407 99.6605 181.407 99.3352C181.407 99.0099 181.396 98.6368 181.373 98.2158C181.373 97.7949 181.373 97.3452 181.373 96.8668C181.373 96.3693 181.373 95.8814 181.373 95.4031V91.7005L176.954 90.983V78.5264H202.43V90.983L198.012 91.7005Z" stroke="#CDA97E" stroke-width="10" mask="url(#path-3-outside-3_607_390)"/>
<path d="M225.835 101.115V109.438L230.254 110.127V122.612H208.161V110.156L212.579 109.438V91.7005L208.161 90.983V78.5264H234.672L252.347 101.115V91.7579L247.928 90.983V78.5264H270.021V90.983L265.603 91.7005V109.438L270.021 110.156V122.612H243.475L225.835 101.115Z" stroke="#CDA97E" stroke-width="10" mask="url(#path-3-outside-3_607_390)"/>
<path d="M294.738 101.115V109.438L299.157 110.127V122.612H277.063V110.156L281.482 109.438V91.7005L277.063 90.983V78.5264H303.575L321.25 101.115V91.7579L316.831 90.983V78.5264H338.924V90.983L334.505 91.7005V109.438L338.924 110.156V122.612H312.378L294.738 101.115Z" stroke="#CDA97E" stroke-width="10" mask="url(#path-3-outside-3_607_390)"/>
<path d="M359.291 122.612V110.213L363.71 109.295L348.555 91.6718L342.963 90.983V78.5264H372.444V90.983L368.991 91.6718L375.999 100.684L383.007 91.6718L379.555 90.983V78.5264H409.001V90.983L403.443 91.6718L388.288 109.295L392.707 110.213V122.612H359.291Z" stroke="#CDA97E" stroke-width="10" mask="url(#path-3-outside-3_607_390)"/>
<path d="M464.4 74.0518C464.4 86.4531 456.431 97.5481 445.191 97.5481C456.431 97.5481 464.4 108.644 464.4 121.045C464.4 108.644 472.369 97.5481 483.609 97.5481C472.369 97.5481 464.4 86.4531 464.4 74.0518Z" fill="black"/>
<path d="M446.203 97.5482C452.768 95.2173 457.57 89.0566 459.55 81.6733C461.53 89.0566 466.333 95.2173 472.898 97.5482C466.333 99.8792 461.53 106.04 459.55 113.423C457.57 106.04 452.768 99.8792 446.203 97.5482Z" fill="#AF382B" stroke="#CDA97E" stroke-width="2"/>
<path d="M135.22 58.3638H110.499C109.722 57.1351 108.919 55.8309 108.089 54.4513C107.26 53.0717 106.457 51.6382 105.679 50.1508C104.902 48.6634 104.176 47.1221 103.503 45.5269C102.829 43.9317 102.259 42.2935 101.792 40.6121H100.432V58.3638H70.5806V44.3305L75.5558 43.5222V23.5394L70.5806 22.731V8.69775H104.436C108.919 8.69775 112.792 8.87021 116.057 9.21511C119.322 9.56001 122.095 10.0558 124.375 10.7025C126.656 11.3276 128.496 12.1037 129.895 13.0306C131.32 13.936 132.421 14.9707 133.199 16.1347C134.002 17.2772 134.533 18.5383 134.792 19.9179C135.077 21.2759 135.22 22.7202 135.22 24.2507C135.22 25.8028 135.039 27.2147 134.676 28.4866C134.339 29.7368 133.73 30.8901 132.849 31.9464C131.968 33.0026 130.763 33.9727 129.234 34.8565C127.705 35.7187 125.762 36.5379 123.404 37.3139C123.896 38.1762 124.635 39.1893 125.619 40.3534C126.604 41.4959 127.666 42.6707 128.807 43.8779C129.947 45.0635 131.087 46.2275 132.227 47.37C133.393 48.4909 134.391 49.4502 135.22 50.2478V58.3638ZM100.432 31.0733C101.935 31.0733 103.295 31.0194 104.513 30.9117C105.757 30.8039 106.807 30.556 107.662 30.168C108.543 29.7799 109.216 29.2087 109.683 28.4542C110.149 27.6998 110.383 26.6866 110.383 25.4148C110.383 24.1645 110.149 23.1729 109.683 22.44C109.216 21.6855 108.543 21.1035 107.662 20.6939C106.807 20.2843 105.757 20.0149 104.513 19.8855C103.295 19.7562 101.935 19.6915 100.432 19.6915V31.0733Z" fill="black"/>
<path d="M190.834 58.3638L188.735 50.0214H172.488L170.428 58.3638H148.311V42.0671L153.092 41.2588L164.558 8.69775H196.664L208.17 41.2588L212.95 42.0671V58.3638H190.834ZM175.83 38.9307H185.392L180.611 20.2089L175.83 38.9307Z" fill="black"/>
<path d="M247.031 34.1451V43.5222L252.006 44.2982V58.3638H227.13V44.3305L232.105 43.5222V23.5394L227.13 22.731V8.69775H256.981L276.882 34.1451V23.604L271.907 22.731V8.69775H296.783V22.731L291.808 23.5394V43.5222L296.783 44.3305V58.3638H266.893L247.031 34.1451Z" fill="black"/>
<path d="M357.839 8.69775C361.596 9.366 364.978 10.336 367.984 11.6079C370.99 12.8581 373.542 14.4641 375.641 16.4257C377.766 18.3874 379.386 20.737 380.5 23.4747C381.64 26.1908 382.21 29.3488 382.21 32.9487C382.21 37.7127 381.251 41.7222 379.334 44.9772C377.416 48.2107 374.708 50.819 371.21 52.8022C367.738 54.7854 363.553 56.2081 358.655 57.0704C353.758 57.9327 348.342 58.3638 342.408 58.3638H312.557V44.3305L317.532 43.5222V22.343L312.557 21.5346V8.69775H357.839ZM346.217 43.5222C348.99 43.5222 351.128 43.2743 352.631 42.7785C354.134 42.2611 355.222 41.539 355.896 40.6121C356.595 39.6851 356.997 38.575 357.101 37.2816C357.23 35.9882 357.295 34.5439 357.295 32.9487C357.295 31.3536 357.23 29.9093 357.101 28.6159C356.997 27.301 356.595 26.18 355.896 25.2531C355.222 24.3262 354.134 23.6148 352.631 23.119C351.128 22.6017 348.99 22.343 346.217 22.343H342.408V43.5222H346.217Z" fill="black"/>
<path d="M396.195 8.69775H431.022V22.731L426.047 23.5394V43.5222L431.022 44.3305V58.3638H396.195V44.3305L401.17 43.5222V23.5394L396.195 22.731V8.69775Z" fill="black"/>
<path d="M128.841 58.3638H104.12C103.343 57.1351 102.54 55.8309 101.71 54.4513C100.881 53.0717 100.078 51.6382 99.3005 50.1508C98.5231 48.6634 97.7976 47.1221 97.1238 45.5269C96.4501 43.9317 95.88 42.2935 95.4136 40.6121H94.0532V58.3638H64.2017V44.3305L69.1769 43.5222V23.5394L64.2017 22.731V8.69775H98.0567C102.54 8.69775 106.414 8.87021 109.679 9.21511C112.944 9.56001 115.716 10.0558 117.997 10.7025C120.277 11.3276 122.117 12.1037 123.516 13.0306C124.941 13.936 126.042 14.9707 126.82 16.1347C127.623 17.2772 128.154 18.5383 128.413 19.9179C128.699 21.2759 128.841 22.7202 128.841 24.2507C128.841 25.8028 128.66 27.2147 128.297 28.4866C127.96 29.7368 127.351 30.8901 126.47 31.9464C125.589 33.0026 124.384 33.9727 122.855 34.8565C121.326 35.7187 119.383 36.5379 117.025 37.3139C117.517 38.1762 118.256 39.1893 119.24 40.3534C120.225 41.4959 121.287 42.6707 122.428 43.8779C123.568 45.0635 124.708 46.2275 125.848 47.37C127.014 48.4909 128.012 49.4502 128.841 50.2478V58.3638ZM94.0532 31.0733C95.5561 31.0733 96.9165 31.0194 98.1344 30.9117C99.3782 30.8039 100.428 30.556 101.283 30.168C102.164 29.7799 102.838 29.2087 103.304 28.4542C103.77 27.6998 104.004 26.6866 104.004 25.4148C104.004 24.1645 103.77 23.1729 103.304 22.44C102.838 21.6855 102.164 21.1035 101.283 20.6939C100.428 20.2843 99.3782 20.0149 98.1344 19.8855C96.9165 19.7562 95.5561 19.6915 94.0532 19.6915V31.0733Z" fill="black"/>
<path d="M184.455 58.3638L182.356 50.0214H166.109L164.049 58.3638H141.932V42.0671L146.713 41.2588L158.179 8.69775H190.285L201.791 41.2588L206.572 42.0671V58.3638H184.455ZM169.452 38.9307H179.013L174.232 20.2089L169.452 38.9307Z" fill="black"/>
<path d="M240.652 34.1451V43.5222L245.627 44.2982V58.3638H220.751V44.3305L225.726 43.5222V23.5394L220.751 22.731V8.69775H250.603L270.504 34.1451V23.604L265.528 22.731V8.69775H290.405V22.731L285.429 23.5394V43.5222L290.405 44.3305V58.3638H260.514L240.652 34.1451Z" fill="black"/>
<path d="M351.46 8.69775C355.218 9.366 358.599 10.336 361.605 11.6079C364.611 12.8581 367.163 14.4641 369.262 16.4257C371.387 18.3874 373.007 20.737 374.121 23.4747C375.261 26.1908 375.831 29.3488 375.831 32.9487C375.831 37.7127 374.872 41.7222 372.955 44.9772C371.037 48.2107 368.329 50.819 364.831 52.8022C361.359 54.7854 357.174 56.2081 352.276 57.0704C347.379 57.9327 341.963 58.3638 336.029 58.3638H306.178V44.3305L311.153 43.5222V22.343L306.178 21.5346V8.69775H351.46ZM339.838 43.5222C342.611 43.5222 344.749 43.2743 346.252 42.7785C347.755 42.2611 348.843 41.539 349.517 40.6121C350.216 39.6851 350.618 38.575 350.722 37.2816C350.851 35.9882 350.916 34.5439 350.916 32.9487C350.916 31.3536 350.851 29.9093 350.722 28.6159C350.618 27.301 350.216 26.18 349.517 25.2531C348.843 24.3262 347.755 23.6148 346.252 23.119C344.749 22.6017 342.611 22.343 339.838 22.343H336.029V43.5222H339.838Z" fill="black"/>
<path d="M389.816 8.69775H424.643V22.731L419.668 23.5394V43.5222L424.643 44.3305V58.3638H389.816V44.3305L394.792 43.5222V23.5394L389.816 22.731V8.69775Z" fill="black"/>
<mask id="path-8-outside-4_607_390" maskUnits="userSpaceOnUse" x="57.0747" y="-0.302246" width="364" height="61" fill="black">
<rect fill="white" x="57.0747" y="-0.302246" width="364" height="61"/>
<path d="M125.45 55.1576H101.213C100.451 54.0082 99.663 52.7882 98.85 51.4977C98.037 50.2071 97.2494 48.8662 96.4872 47.4748C95.725 46.0834 95.0137 44.6416 94.3531 43.1494C93.6925 41.6572 93.1336 40.1247 92.6763 38.5518H91.3425V55.1576H62.0747V42.0303L66.9527 41.2741V22.5813L62.0747 21.8251V8.69775H95.2677C99.663 8.69775 103.461 8.85907 106.662 9.18171C109.863 9.50435 112.582 9.96814 114.818 10.5731C117.053 11.1579 118.857 11.8838 120.229 12.7509C121.626 13.5978 122.706 14.5657 123.468 15.6546C124.256 16.7234 124.777 17.903 125.031 19.1936C125.31 20.464 125.45 21.815 125.45 23.2467C125.45 24.6986 125.272 26.0194 124.917 27.2091C124.586 28.3787 123.989 29.4575 123.125 30.4456C122.262 31.4336 121.08 32.3411 119.581 33.1678C118.082 33.9744 116.177 34.7407 113.865 35.4666C114.348 36.2732 115.072 37.221 116.037 38.3099C117.003 39.3786 118.044 40.4776 119.162 41.6068C120.28 42.7159 121.398 43.8048 122.516 44.8735C123.659 45.9221 124.637 46.8194 125.45 47.5655V55.1576ZM91.3425 29.6289C92.816 29.6289 94.1498 29.5785 95.3439 29.4777C96.5634 29.3768 97.5924 29.1449 98.4308 28.782C99.2946 28.419 99.9551 27.8846 100.412 27.1789C100.87 26.4731 101.098 25.5253 101.098 24.3356C101.098 23.166 100.87 22.2385 100.412 21.5529C99.9551 20.8471 99.2946 20.3026 98.4308 19.9195C97.5924 19.5364 96.5634 19.2843 95.3439 19.1633C94.1498 19.0423 92.816 18.9818 91.3425 18.9818V29.6289Z"/>
<path d="M179.977 55.1576L177.919 47.3538H161.989L159.969 55.1576H138.285V39.913L142.973 39.1568L154.215 8.69775H185.693L196.973 39.1568L201.661 39.913V55.1576H179.977ZM165.266 36.979H174.641L169.954 19.4658L165.266 36.979Z"/>
<path d="M235.075 32.5024V41.2741L239.953 42V55.1576H215.563V42.0303L220.441 41.2741V22.5813L215.563 21.8251V8.69775H244.831L264.342 32.5024V22.6418L259.465 21.8251V8.69775H283.854V21.8251L278.976 22.5813V41.2741L283.854 42.0303V55.1576H254.548L235.075 32.5024Z"/>
<path d="M343.716 8.69775C347.4 9.32286 350.715 10.2303 353.663 11.42C356.61 12.5896 359.112 14.0919 361.17 15.9269C363.253 17.7619 364.841 19.9598 365.934 22.5208C367.052 25.0615 367.61 28.0157 367.61 31.3832C367.61 35.8397 366.67 39.5903 364.79 42.6352C362.91 45.66 360.255 48.0999 356.826 49.9551C353.421 51.8102 349.318 53.1411 344.516 53.9477C339.715 54.7543 334.405 55.1576 328.587 55.1576H299.319V42.0303L304.197 41.2741V21.4621L299.319 20.7059V8.69775H343.716ZM332.321 41.2741C335.04 41.2741 337.136 41.0422 338.609 40.5784C340.083 40.0945 341.15 39.4189 341.811 38.5518C342.497 37.6848 342.89 36.6463 342.992 35.4364C343.119 34.2265 343.183 32.8754 343.183 31.3832C343.183 29.891 343.119 28.54 342.992 27.3301C342.89 26.1 342.497 25.0515 341.811 24.1844C341.15 23.3173 340.083 22.6518 338.609 22.1881C337.136 21.7041 335.04 21.4621 332.321 21.4621H328.587V41.2741H332.321Z"/>
<path d="M381.322 8.69775H415.468V21.8251L410.59 22.5813V41.2741L415.468 42.0303V55.1576H381.322V42.0303L386.2 41.2741V22.5813L381.322 21.8251V8.69775Z"/>
</mask>
<path d="M125.45 55.1576H101.213C100.451 54.0082 99.663 52.7882 98.85 51.4977C98.037 50.2071 97.2494 48.8662 96.4872 47.4748C95.725 46.0834 95.0137 44.6416 94.3531 43.1494C93.6925 41.6572 93.1336 40.1247 92.6763 38.5518H91.3425V55.1576H62.0747V42.0303L66.9527 41.2741V22.5813L62.0747 21.8251V8.69775H95.2677C99.663 8.69775 103.461 8.85907 106.662 9.18171C109.863 9.50435 112.582 9.96814 114.818 10.5731C117.053 11.1579 118.857 11.8838 120.229 12.7509C121.626 13.5978 122.706 14.5657 123.468 15.6546C124.256 16.7234 124.777 17.903 125.031 19.1936C125.31 20.464 125.45 21.815 125.45 23.2467C125.45 24.6986 125.272 26.0194 124.917 27.2091C124.586 28.3787 123.989 29.4575 123.125 30.4456C122.262 31.4336 121.08 32.3411 119.581 33.1678C118.082 33.9744 116.177 34.7407 113.865 35.4666C114.348 36.2732 115.072 37.221 116.037 38.3099C117.003 39.3786 118.044 40.4776 119.162 41.6068C120.28 42.7159 121.398 43.8048 122.516 44.8735C123.659 45.9221 124.637 46.8194 125.45 47.5655V55.1576ZM91.3425 29.6289C92.816 29.6289 94.1498 29.5785 95.3439 29.4777C96.5634 29.3768 97.5924 29.1449 98.4308 28.782C99.2946 28.419 99.9551 27.8846 100.412 27.1789C100.87 26.4731 101.098 25.5253 101.098 24.3356C101.098 23.166 100.87 22.2385 100.412 21.5529C99.9551 20.8471 99.2946 20.3026 98.4308 19.9195C97.5924 19.5364 96.5634 19.2843 95.3439 19.1633C94.1498 19.0423 92.816 18.9818 91.3425 18.9818V29.6289Z" fill="#AF382B"/>
<path d="M179.977 55.1576L177.919 47.3538H161.989L159.969 55.1576H138.285V39.913L142.973 39.1568L154.215 8.69775H185.693L196.973 39.1568L201.661 39.913V55.1576H179.977ZM165.266 36.979H174.641L169.954 19.4658L165.266 36.979Z" fill="#AF382B"/>
<path d="M235.075 32.5024V41.2741L239.953 42V55.1576H215.563V42.0303L220.441 41.2741V22.5813L215.563 21.8251V8.69775H244.831L264.342 32.5024V22.6418L259.465 21.8251V8.69775H283.854V21.8251L278.976 22.5813V41.2741L283.854 42.0303V55.1576H254.548L235.075 32.5024Z" fill="#AF382B"/>
<path d="M343.716 8.69775C347.4 9.32286 350.715 10.2303 353.663 11.42C356.61 12.5896 359.112 14.0919 361.17 15.9269C363.253 17.7619 364.841 19.9598 365.934 22.5208C367.052 25.0615 367.61 28.0157 367.61 31.3832C367.61 35.8397 366.67 39.5903 364.79 42.6352C362.91 45.66 360.255 48.0999 356.826 49.9551C353.421 51.8102 349.318 53.1411 344.516 53.9477C339.715 54.7543 334.405 55.1576 328.587 55.1576H299.319V42.0303L304.197 41.2741V21.4621L299.319 20.7059V8.69775H343.716ZM332.321 41.2741C335.04 41.2741 337.136 41.0422 338.609 40.5784C340.083 40.0945 341.15 39.4189 341.811 38.5518C342.497 37.6848 342.89 36.6463 342.992 35.4364C343.119 34.2265 343.183 32.8754 343.183 31.3832C343.183 29.891 343.119 28.54 342.992 27.3301C342.89 26.1 342.497 25.0515 341.811 24.1844C341.15 23.3173 340.083 22.6518 338.609 22.1881C337.136 21.7041 335.04 21.4621 332.321 21.4621H328.587V41.2741H332.321Z" fill="#AF382B"/>
<path d="M381.322 8.69775H415.468V21.8251L410.59 22.5813V41.2741L415.468 42.0303V55.1576H381.322V42.0303L386.2 41.2741V22.5813L381.322 21.8251V8.69775Z" fill="#AF382B"/>
<path d="M125.45 55.1576H101.213C100.451 54.0082 99.663 52.7882 98.85 51.4977C98.037 50.2071 97.2494 48.8662 96.4872 47.4748C95.725 46.0834 95.0137 44.6416 94.3531 43.1494C93.6925 41.6572 93.1336 40.1247 92.6763 38.5518H91.3425V55.1576H62.0747V42.0303L66.9527 41.2741V22.5813L62.0747 21.8251V8.69775H95.2677C99.663 8.69775 103.461 8.85907 106.662 9.18171C109.863 9.50435 112.582 9.96814 114.818 10.5731C117.053 11.1579 118.857 11.8838 120.229 12.7509C121.626 13.5978 122.706 14.5657 123.468 15.6546C124.256 16.7234 124.777 17.903 125.031 19.1936C125.31 20.464 125.45 21.815 125.45 23.2467C125.45 24.6986 125.272 26.0194 124.917 27.2091C124.586 28.3787 123.989 29.4575 123.125 30.4456C122.262 31.4336 121.08 32.3411 119.581 33.1678C118.082 33.9744 116.177 34.7407 113.865 35.4666C114.348 36.2732 115.072 37.221 116.037 38.3099C117.003 39.3786 118.044 40.4776 119.162 41.6068C120.28 42.7159 121.398 43.8048 122.516 44.8735C123.659 45.9221 124.637 46.8194 125.45 47.5655V55.1576ZM91.3425 29.6289C92.816 29.6289 94.1498 29.5785 95.3439 29.4777C96.5634 29.3768 97.5924 29.1449 98.4308 28.782C99.2946 28.419 99.9551 27.8846 100.412 27.1789C100.87 26.4731 101.098 25.5253 101.098 24.3356C101.098 23.166 100.87 22.2385 100.412 21.5529C99.9551 20.8471 99.2946 20.3026 98.4308 19.9195C97.5924 19.5364 96.5634 19.2843 95.3439 19.1633C94.1498 19.0423 92.816 18.9818 91.3425 18.9818V29.6289Z" stroke="#CDA97E" stroke-width="10" mask="url(#path-8-outside-4_607_390)"/>
<path d="M179.977 55.1576L177.919 47.3538H161.989L159.969 55.1576H138.285V39.913L142.973 39.1568L154.215 8.69775H185.693L196.973 39.1568L201.661 39.913V55.1576H179.977ZM165.266 36.979H174.641L169.954 19.4658L165.266 36.979Z" stroke="#CDA97E" stroke-width="10" mask="url(#path-8-outside-4_607_390)"/>
<path d="M235.075 32.5024V41.2741L239.953 42V55.1576H215.563V42.0303L220.441 41.2741V22.5813L215.563 21.8251V8.69775H244.831L264.342 32.5024V22.6418L259.465 21.8251V8.69775H283.854V21.8251L278.976 22.5813V41.2741L283.854 42.0303V55.1576H254.548L235.075 32.5024Z" stroke="#CDA97E" stroke-width="10" mask="url(#path-8-outside-4_607_390)"/>
<path d="M343.716 8.69775C347.4 9.32286 350.715 10.2303 353.663 11.42C356.61 12.5896 359.112 14.0919 361.17 15.9269C363.253 17.7619 364.841 19.9598 365.934 22.5208C367.052 25.0615 367.61 28.0157 367.61 31.3832C367.61 35.8397 366.67 39.5903 364.79 42.6352C362.91 45.66 360.255 48.0999 356.826 49.9551C353.421 51.8102 349.318 53.1411 344.516 53.9477C339.715 54.7543 334.405 55.1576 328.587 55.1576H299.319V42.0303L304.197 41.2741V21.4621L299.319 20.7059V8.69775H343.716ZM332.321 41.2741C335.04 41.2741 337.136 41.0422 338.609 40.5784C340.083 40.0945 341.15 39.4189 341.811 38.5518C342.497 37.6848 342.89 36.6463 342.992 35.4364C343.119 34.2265 343.183 32.8754 343.183 31.3832C343.183 29.891 343.119 28.54 342.992 27.3301C342.89 26.1 342.497 25.0515 341.811 24.1844C341.15 23.3173 340.083 22.6518 338.609 22.1881C337.136 21.7041 335.04 21.4621 332.321 21.4621H328.587V41.2741H332.321Z" stroke="#CDA97E" stroke-width="10" mask="url(#path-8-outside-4_607_390)"/>
<path d="M381.322 8.69775H415.468V21.8251L410.59 22.5813V41.2741L415.468 42.0303V55.1576H381.322V42.0303L386.2 41.2741V22.5813L381.322 21.8251V8.69775Z" stroke="#CDA97E" stroke-width="10" mask="url(#path-8-outside-4_607_390)"/>
<path d="M24.0583 74.7168C24.0583 87.1182 16.0889 98.2132 4.84961 98.2132C16.0889 98.2132 24.0583 109.309 24.0583 121.71C24.0583 109.309 32.0277 98.2132 43.2669 98.2132C32.0277 98.2132 24.0583 87.1182 24.0583 74.7168Z" fill="black"/>
<path d="M5.86111 98.2132C12.4262 95.8823 17.2287 89.7216 19.2087 82.3384C21.1887 89.7216 25.9911 95.8823 32.5562 98.2132C25.9911 100.544 21.1887 106.705 19.2087 114.088C17.2287 106.705 12.4262 100.544 5.86111 98.2132Z" fill="#AF382B" stroke="#CDA97E" stroke-width="2"/>
</svg>
