<svg width="743" height="497" viewBox="0 0 743 497" fill="none" xmlns="http://www.w3.org/2000/svg">
<path d="M741.694 466.612L696.912 496H29.3784L3.48877 66.3716L29.3784 39.7822H741.694V466.612Z" fill="#030303" stroke="#252424"/>
<path d="M670.696 63.3159H6.43536C3.98578 63.3159 2 65.3017 2 67.7513V488.85C2 491.299 3.98578 493.285 6.43536 493.285H670.696C673.146 493.285 675.131 491.299 675.131 488.85V67.7513C675.131 65.3017 673.146 63.3159 670.696 63.3159Z" fill="#BF3A2A" stroke="black" stroke-width="4" stroke-miterlimit="10"/>
<path d="M658.174 72.709H16.8724C14.4228 72.709 12.437 74.6948 12.437 77.1443V474.24C12.437 476.689 14.4228 478.675 16.8724 478.675H658.174C660.623 478.675 662.609 476.689 662.609 474.24V77.1443C662.609 74.6948 660.623 72.709 658.174 72.709Z" fill="black"/>
<path d="M527.982 72.709H515.458V482.85H527.982V72.709Z" fill="#BD3928"/>
<path d="M46.8759 104.017C46.8759 104.017 38.527 106.104 39.5706 111.322C40.6142 116.54 30.1781 202.117 30.1781 217.771C30.1781 233.425 27.0472 424.407 38.527 439.017C38.527 439.017 33.3089 449.453 55.2248 452.584C77.1408 455.715 218.029 465.108 218.029 465.108C218.029 465.108 345.35 466.151 382.92 460.933C420.49 455.715 477.889 451.541 477.889 451.541C477.889 451.541 495.63 454.671 495.63 432.755C495.63 410.84 499.805 378.488 500.848 359.702C501.892 340.917 496.674 283.519 500.848 267.864C505.023 252.21 498.761 149.936 495.63 140.543C492.499 131.151 494.587 113.409 494.587 113.409C494.587 113.409 499.805 106.104 487.281 104.017C474.758 101.93 282.733 89.4062 282.733 89.4062C282.733 89.4062 89.6641 94.6243 64.6174 102.973L46.8759 104.017Z" fill="#EBAE53" stroke="black" stroke-miterlimit="10"/>
<path d="M57.8331 112.679C57.8331 112.679 49.9016 114.662 50.893 119.619C51.8845 124.577 41.9701 205.874 41.9701 220.746C41.9701 235.617 38.9958 417.05 49.9016 430.93C49.9016 430.93 44.9444 440.844 65.7645 443.818C86.5846 446.793 220.428 455.716 220.428 455.716C220.428 455.716 341.383 456.707 377.075 451.75C412.766 446.793 467.295 442.827 467.295 442.827C467.295 442.827 484.15 445.801 484.15 424.981C484.15 404.161 488.115 373.426 489.107 355.581C490.098 337.735 485.141 283.206 489.107 268.335C493.073 253.463 487.124 156.302 484.15 147.38C481.175 138.457 483.106 121.602 483.106 121.602C483.106 121.602 488.063 114.662 476.166 112.679C464.269 110.697 281.845 98.7993 281.845 98.7993C281.845 98.7993 98.534 103.756 74.6874 111.688L57.8331 112.679Z" fill="#F2F2F2" stroke="black" stroke-width="2" stroke-miterlimit="10"/>
<path d="M515.459 72.709C515.459 76.8834 493.313 106.105 493.313 106.105C495.63 110.279 494.273 119.139 493.908 125.151C493.543 131.162 496.413 144.343 496.413 144.343C496.413 144.343 502.58 224.304 502.236 232.006C501.892 239.708 503.979 256.396 501.892 267.875C499.804 279.355 499.804 284.051 499.262 297.357C498.719 310.664 500.389 324.178 500.618 337.255C500.848 350.331 490.412 411.894 490.412 411.894L477.889 451.552L319.259 459.9L81.3149 449.464L43.7448 442.159L39.5704 446.135L16.6108 478.686H515.459V72.709Z" fill="#F3B354" stroke="black" stroke-width="2" stroke-miterlimit="10"/>
<path d="M656.503 81.0576H539.305C535.933 81.0576 533.2 83.791 533.2 87.1628V476.744C533.2 480.116 535.933 482.849 539.305 482.849H656.503C659.875 482.849 662.608 480.116 662.608 476.744V87.1628C662.608 83.791 659.875 81.0576 656.503 81.0576Z" fill="#F5B34F" stroke="black" stroke-miterlimit="10"/>
<path d="M649.26 86.2754H542.373C539.613 86.2754 537.375 88.5135 537.375 91.2743V293.13C537.375 295.891 539.613 298.129 542.373 298.129H649.26C652.021 298.129 654.259 295.891 654.259 293.13V91.2743C654.259 88.5135 652.021 86.2754 649.26 86.2754Z" fill="#040201"/>
<path d="M647.11 91.4941H547.654C544.858 91.4941 542.592 93.7603 542.592 96.5557V289.937C542.592 292.733 544.858 294.999 547.654 294.999H647.11C649.906 294.999 652.172 292.733 652.172 289.937V96.5557C652.172 93.7603 649.906 91.4941 647.11 91.4941Z" fill="#BF3B2C" stroke="black" stroke-miterlimit="10"/>
<path d="M596.339 189.593C619.682 189.593 638.605 170.67 638.605 147.327C638.605 123.984 619.682 105.061 596.339 105.061C572.996 105.061 554.072 123.984 554.072 147.327C554.072 170.67 572.996 189.593 596.339 189.593Z" fill="#040303"/>
<path d="M596.338 187.485C618.517 187.485 636.497 169.506 636.497 147.327C636.497 125.148 618.517 107.168 596.338 107.168C574.16 107.168 556.18 125.148 556.18 147.327C556.18 169.506 574.16 187.485 596.338 187.485Z" fill="#CCCCCC" stroke="black" stroke-miterlimit="10"/>
<path d="M595.296 171.852C609.417 171.852 620.864 160.405 620.864 146.284C620.864 132.163 609.417 120.715 595.296 120.715C581.174 120.715 569.727 132.163 569.727 146.284C569.727 160.405 581.174 171.852 595.296 171.852Z" fill="#CCCCCC" stroke="#040303" stroke-width="2" stroke-miterlimit="10"/>
<path d="M595.518 123.028C594.546 119.71 591.067 117.808 587.748 118.78C584.43 119.752 582.528 123.231 583.5 126.55L596.117 169.615C597.09 172.933 600.568 174.836 603.887 173.863C607.206 172.891 609.108 169.412 608.136 166.093L595.518 123.028Z" fill="#CCCCCC" stroke="#040303" stroke-miterlimit="10"/>
<path d="M596.339 107.669H594.251V114.975H596.339V107.669Z" fill="#040303"/>
<path d="M626.604 145.239V147.327H633.909V145.239H626.604Z" fill="#040303"/>
<path d="M623.279 161.445L622.344 163.311L628.874 166.585L629.81 164.719L623.279 161.445Z" fill="#040303"/>
<path d="M610.115 172.248L608.361 173.375L612.306 179.512L614.059 178.385L610.115 172.248Z" fill="#040303"/>
<path d="M595.817 177.07H593.729V184.376H595.817V177.07Z" fill="#040303"/>
<path d="M581.17 173.219L579.304 172.284L576.029 178.814L577.895 179.75L581.17 173.219Z" fill="#040303"/>
<path d="M569.482 161.793L568.071 160.255L562.689 165.195L564.101 166.733L569.482 161.793Z" fill="#040303"/>
<path d="M564.597 147.73L564.523 145.645L557.222 145.905L557.297 147.99L564.597 147.73Z" fill="#040303"/>
<path d="M568.37 132.09L569.622 130.42L563.778 126.037L562.525 127.707L568.37 132.09Z" fill="#040303"/>
<path d="M579.291 120.232L581.157 119.297L577.883 112.767L576.017 113.702L579.291 120.232Z" fill="#040303"/>
<path d="M616.061 114.246L614.392 112.993L610.008 118.837L611.678 120.09L616.061 114.246Z" fill="#040303"/>
<path d="M621.875 129.753L622.81 131.619L629.34 128.344L628.405 126.478L621.875 129.753Z" fill="#040303"/>
<path d="M595.295 280.388C618.638 280.388 637.562 261.465 637.562 238.122C637.562 214.779 618.638 195.855 595.295 195.855C571.952 195.855 553.029 214.779 553.029 238.122C553.029 261.465 571.952 280.388 595.295 280.388Z" fill="#040303"/>
<path d="M595.295 278.28C617.474 278.28 635.453 260.3 635.453 238.122C635.453 215.943 617.474 197.963 595.295 197.963C573.116 197.963 555.137 215.943 555.137 238.122C555.137 260.3 573.116 278.28 595.295 278.28Z" fill="#CCCCCC" stroke="black" stroke-miterlimit="10"/>
<path d="M594.252 262.647C608.373 262.647 619.82 251.199 619.82 237.078C619.82 222.957 608.373 211.51 594.252 211.51C580.131 211.51 568.683 222.957 568.683 237.078C568.683 251.199 580.131 262.647 594.252 262.647Z" fill="#CCCCCC" stroke="#040303" stroke-width="2" stroke-miterlimit="10"/>
<path d="M574.394 225.673C571.033 224.859 567.648 226.924 566.834 230.285C566.02 233.646 568.084 237.03 571.445 237.845L615.058 248.412C618.419 249.226 621.804 247.162 622.619 243.801C623.433 240.44 621.368 237.055 618.007 236.241L574.394 225.673Z" fill="#CCCCCC" stroke="#040303" stroke-miterlimit="10"/>
<path d="M595.295 198.464H593.208V205.77H595.295V198.464Z" fill="#040303"/>
<path d="M625.56 236.034V238.122H632.865V236.034H625.56Z" fill="#040303"/>
<path d="M622.238 252.238L621.303 254.104L627.833 257.378L628.769 255.513L622.238 252.238Z" fill="#040303"/>
<path d="M609.113 262.876L607.36 264.003L611.305 270.139L613.058 269.012L609.113 262.876Z" fill="#040303"/>
<path d="M594.773 267.865H592.686V275.17H594.773V267.865Z" fill="#040303"/>
<path d="M580.126 264.017L578.26 263.082L574.986 269.612L576.852 270.547L580.126 264.017Z" fill="#040303"/>
<path d="M568.441 252.593L567.029 251.056L561.648 255.996L563.059 257.533L568.441 252.593Z" fill="#040303"/>
<path d="M563.553 238.533L563.479 236.447L556.178 236.707L556.253 238.793L563.553 238.533Z" fill="#040303"/>
<path d="M567.325 222.883L568.578 221.213L562.733 216.83L561.481 218.5L567.325 222.883Z" fill="#040303"/>
<path d="M578.256 211.029L580.122 210.093L576.847 203.563L574.981 204.498L578.256 211.029Z" fill="#040303"/>
<path d="M615.018 205.04L613.348 203.788L608.965 209.632L610.635 210.884L615.018 205.04Z" fill="#040303"/>
<path d="M620.831 220.555L621.766 222.421L628.296 219.146L627.361 217.281L620.831 220.555Z" fill="#040303"/>
<path d="M573.285 471.892C581.591 471.892 588.324 465 588.324 456.498C588.324 447.997 581.591 441.105 573.285 441.105C564.98 441.105 558.247 447.997 558.247 456.498C558.247 465 564.98 471.892 573.285 471.892Z" fill="#040303"/>
<path d="M573.285 470.618C581.175 470.618 587.572 464.362 587.572 456.644C587.572 448.927 581.175 442.67 573.285 442.67C565.394 442.67 558.998 448.927 558.998 456.644C558.998 464.362 565.394 470.618 573.285 470.618Z" fill="#CCCCCC" stroke="#040303" stroke-miterlimit="10"/>
<path d="M572.764 463.02C576.776 463.02 580.028 459.75 580.028 455.715C580.028 451.68 576.776 448.41 572.764 448.41C568.753 448.41 565.501 451.68 565.501 455.715C565.501 459.75 568.753 463.02 572.764 463.02Z" fill="#CCCCCC" stroke="#040303" stroke-width="2" stroke-miterlimit="10"/>
<path d="M627.22 470.848C635.525 470.848 642.258 463.956 642.258 455.455C642.258 446.953 635.525 440.062 627.22 440.062C618.914 440.062 612.181 446.953 612.181 455.455C612.181 463.956 618.914 470.848 627.22 470.848Z" fill="#040303"/>
<path d="M627.219 469.575C635.11 469.575 641.506 463.319 641.506 455.601C641.506 447.883 635.11 441.627 627.219 441.627C619.329 441.627 612.932 447.883 612.932 455.601C612.932 463.319 619.329 469.575 627.219 469.575Z" fill="#CCCCCC" stroke="#040303" stroke-miterlimit="10"/>
<path d="M626.698 461.977C630.709 461.977 633.961 458.706 633.961 454.672C633.961 450.637 630.709 447.366 626.698 447.366C622.686 447.366 619.434 450.637 619.434 454.672C619.434 458.706 622.686 461.977 626.698 461.977Z" fill="#CCCCCC" stroke="#040303" stroke-width="2" stroke-miterlimit="10"/>
<path d="M607.819 312.218H584.859V315.349H607.819V312.218Z" fill="#040303"/>
<path d="M633.909 323.697H559.812V326.828H633.909V323.697Z" fill="#040303"/>
<path d="M632.865 414.492H558.769V417.623H632.865V414.492Z" fill="#040303"/>
<path d="M644.345 334.134H549.376V338.309H644.345V334.134Z" fill="#040303"/>
<path d="M645.389 401.969H550.42V406.144H645.389V401.969Z" fill="#040303"/>
<path d="M650.607 345.614H543.114V349.788H650.607V345.614Z" fill="#040303"/>
<path d="M649.564 390.489H542.071V394.664H649.564V390.489Z" fill="#040303"/>
<path d="M654.781 357.094H538.94V361.269H654.781V357.094Z" fill="#040303"/>
<path d="M654.781 379.01H538.94V383.184H654.781V379.01Z" fill="#040303"/>
<path d="M654.781 367.53H537.896V372.748H654.781V367.53Z" fill="#040303"/>
<path d="M607.819 424.929H584.859V428.06H607.819V424.929Z" fill="#040303"/>
<path d="M85.2358 114.51L162.143 108.542L272.941 104.058L368.097 108.542L471.726 121.142V142.363L474.985 251.121L471.726 280.3C472.813 303.29 474.985 350.595 474.985 355.9C474.985 361.206 472.813 400.111 471.726 418.901C470.423 423.543 466.903 433.623 463.254 436.806C459.604 439.989 448.698 438.132 443.701 436.806L329.644 447.416H196.686L56.5585 432.827V424.206L50.6928 397.016L46.7822 308.153L50.6928 203.374L57.8621 117.826H63.7279L85.2358 114.51Z" fill="url(#paint0_linear_809_1246)"/>
<path d="M276.852 103.9L272.941 104.058M272.941 104.058L162.143 108.542L85.2358 114.51L63.7279 117.826H57.8621L50.6928 203.374L46.7822 308.153L50.6928 397.016L56.5585 424.206V432.827L196.686 447.416H329.644L443.701 436.806C448.698 438.132 459.604 439.989 463.254 436.806C466.903 433.623 470.423 423.543 471.726 418.901C472.813 400.111 474.985 361.206 474.985 355.9C474.985 350.595 472.813 303.29 471.726 280.3L474.985 251.121L471.726 142.363V121.142L368.097 108.542L272.941 104.058Z" stroke="black"/>
<ellipse cx="44.8453" cy="20.876" rx="44.8453" ry="20.876" transform="matrix(-1 0 0 1 666.203 25.0938)" fill="black"/>
<rect width="46.3109" height="2.24936" rx="1.12468" transform="matrix(-0.733211 0.680001 0.73782 0.674997 677.852 5.7251)" fill="black"/>
<ellipse cx="2.33909" cy="2.15458" rx="2.33909" ry="2.15458" transform="matrix(-1 0 0 1 682.318 3.13916)" fill="black"/>
<rect width="65.4206" height="3.17754" rx="1.58877" transform="matrix(0.733211 0.680001 -0.73782 0.674997 568.086 3.65234)" fill="black"/>
<ellipse cx="565.081" cy="3.04365" rx="3.3043" ry="3.04365" fill="black"/>
<defs>
<linearGradient id="paint0_linear_809_1246" x1="260.884" y1="103.9" x2="260.884" y2="447.416" gradientUnits="userSpaceOnUse">
<stop stop-color="#F6DB79"/>
<stop offset="0.604167" stop-color="#FFFAE8" stop-opacity="0.588542"/>
<stop offset="1" stop-color="#D9D9D9" stop-opacity="0"/>
</linearGradient>
</defs>
</svg>
